G04 #@! TF.GenerationSoftware,KiCad,Pcbnew,(5.1.6)-1*
G04 #@! TF.CreationDate,2020-10-17T23:14:51+08:00*
G04 #@! TF.ProjectId,Alvaro,416c7661-726f-42e6-9b69-6361645f7063,C*
G04 #@! TF.SameCoordinates,Original*
G04 #@! TF.FileFunction,Copper,L1,Top*
G04 #@! TF.FilePolarity,Positive*
%FSLAX46Y46*%
G04 Gerber Fmt 4.6, Leading zero omitted, Abs format (unit mm)*
G04 Created by KiCad (PCBNEW (5.1.6)-1) date 2020-10-17 23:14:51*
%MOMM*%
%LPD*%
G01*
G04 APERTURE LIST*
G04 #@! TA.AperFunction,SMDPad,CuDef*
%ADD10R,0.300000X0.800000*%
G04 #@! TD*
G04 #@! TA.AperFunction,ComponentPad*
%ADD11C,1.000000*%
G04 #@! TD*
G04 #@! TA.AperFunction,SMDPad,CuDef*
%ADD12R,0.540000X0.800000*%
G04 #@! TD*
G04 #@! TA.AperFunction,SMDPad,CuDef*
%ADD13R,1.200000X0.900000*%
G04 #@! TD*
G04 #@! TA.AperFunction,ComponentPad*
%ADD14C,1.700000*%
G04 #@! TD*
G04 #@! TA.AperFunction,SMDPad,CuDef*
%ADD15C,0.100000*%
G04 #@! TD*
G04 #@! TA.AperFunction,SMDPad,CuDef*
%ADD16R,1.200000X1.400000*%
G04 #@! TD*
G04 #@! TA.AperFunction,ViaPad*
%ADD17C,0.500000*%
G04 #@! TD*
G04 #@! TA.AperFunction,Conductor*
%ADD18C,0.310000*%
G04 #@! TD*
G04 #@! TA.AperFunction,Conductor*
%ADD19C,0.160000*%
G04 #@! TD*
G04 APERTURE END LIST*
G04 #@! TA.AperFunction,SMDPad,CuDef*
G36*
G01*
X26675000Y-36493750D02*
X26675000Y-37006250D01*
G75*
G02*
X26456250Y-37225000I-218750J0D01*
G01*
X26018750Y-37225000D01*
G75*
G02*
X25800000Y-37006250I0J218750D01*
G01*
X25800000Y-36493750D01*
G75*
G02*
X26018750Y-36275000I218750J0D01*
G01*
X26456250Y-36275000D01*
G75*
G02*
X26675000Y-36493750I0J-218750D01*
G01*
G37*
G04 #@! TD.AperFunction*
G04 #@! TA.AperFunction,SMDPad,CuDef*
G36*
G01*
X25100000Y-36493750D02*
X25100000Y-37006250D01*
G75*
G02*
X24881250Y-37225000I-218750J0D01*
G01*
X24443750Y-37225000D01*
G75*
G02*
X24225000Y-37006250I0J218750D01*
G01*
X24225000Y-36493750D01*
G75*
G02*
X24443750Y-36275000I218750J0D01*
G01*
X24881250Y-36275000D01*
G75*
G02*
X25100000Y-36493750I0J-218750D01*
G01*
G37*
G04 #@! TD.AperFunction*
G04 #@! TA.AperFunction,SMDPad,CuDef*
G36*
G01*
X35456250Y-34300000D02*
X34943750Y-34300000D01*
G75*
G02*
X34725000Y-34081250I0J218750D01*
G01*
X34725000Y-33643750D01*
G75*
G02*
X34943750Y-33425000I218750J0D01*
G01*
X35456250Y-33425000D01*
G75*
G02*
X35675000Y-33643750I0J-218750D01*
G01*
X35675000Y-34081250D01*
G75*
G02*
X35456250Y-34300000I-218750J0D01*
G01*
G37*
G04 #@! TD.AperFunction*
G04 #@! TA.AperFunction,SMDPad,CuDef*
G36*
G01*
X35456250Y-35875000D02*
X34943750Y-35875000D01*
G75*
G02*
X34725000Y-35656250I0J218750D01*
G01*
X34725000Y-35218750D01*
G75*
G02*
X34943750Y-35000000I218750J0D01*
G01*
X35456250Y-35000000D01*
G75*
G02*
X35675000Y-35218750I0J-218750D01*
G01*
X35675000Y-35656250D01*
G75*
G02*
X35456250Y-35875000I-218750J0D01*
G01*
G37*
G04 #@! TD.AperFunction*
G04 #@! TA.AperFunction,SMDPad,CuDef*
G36*
G01*
X25725000Y-31425000D02*
X24475000Y-31425000D01*
G75*
G02*
X24225000Y-31175000I0J250000D01*
G01*
X24225000Y-30425000D01*
G75*
G02*
X24475000Y-30175000I250000J0D01*
G01*
X25725000Y-30175000D01*
G75*
G02*
X25975000Y-30425000I0J-250000D01*
G01*
X25975000Y-31175000D01*
G75*
G02*
X25725000Y-31425000I-250000J0D01*
G01*
G37*
G04 #@! TD.AperFunction*
G04 #@! TA.AperFunction,SMDPad,CuDef*
G36*
G01*
X25725000Y-34225000D02*
X24475000Y-34225000D01*
G75*
G02*
X24225000Y-33975000I0J250000D01*
G01*
X24225000Y-33225000D01*
G75*
G02*
X24475000Y-32975000I250000J0D01*
G01*
X25725000Y-32975000D01*
G75*
G02*
X25975000Y-33225000I0J-250000D01*
G01*
X25975000Y-33975000D01*
G75*
G02*
X25725000Y-34225000I-250000J0D01*
G01*
G37*
G04 #@! TD.AperFunction*
D10*
X31758000Y-29500000D03*
X28750000Y-29500000D03*
D11*
X24424400Y-23973200D03*
X24424700Y-24252600D03*
X24424700Y-24557400D03*
X24424700Y-24900300D03*
X24424700Y-25192400D03*
X35575300Y-24570100D03*
X35575300Y-24265300D03*
X35575000Y-23985900D03*
X35575300Y-25205100D03*
X35575300Y-24913000D03*
X35575300Y-28735700D03*
X35575600Y-28219000D03*
X35575600Y-28981000D03*
X35575600Y-28481700D03*
X24425000Y-28481700D03*
X24425000Y-28981000D03*
X24425000Y-28219000D03*
X24424700Y-28735700D03*
D12*
X26800000Y-29500000D03*
X33200000Y-29500000D03*
X32400000Y-29500000D03*
X27600000Y-29500000D03*
D10*
X29250000Y-29500000D03*
X30750000Y-29500000D03*
X29750000Y-29500000D03*
X30250000Y-29500000D03*
X31250000Y-29500000D03*
X28250000Y-29500000D03*
D13*
X25100000Y-38200000D03*
X25100000Y-41500000D03*
D14*
X24920000Y-55240000D03*
X27460000Y-55240000D03*
X30000000Y-55240000D03*
X32540000Y-55240000D03*
X35080000Y-55240000D03*
X22380000Y-27300000D03*
X22380000Y-29840000D03*
X22380000Y-32380000D03*
X22380000Y-34920000D03*
X22380000Y-37460000D03*
X22380000Y-40000000D03*
X22380000Y-42540000D03*
X22380000Y-45080000D03*
X22380000Y-47620000D03*
X22380000Y-50160000D03*
X22380000Y-52700000D03*
X22380000Y-55240000D03*
X37620000Y-55240000D03*
X37620000Y-52700000D03*
X37620000Y-50160000D03*
X37620000Y-47620000D03*
X37620000Y-45080000D03*
X37620000Y-42540000D03*
X37620000Y-40000000D03*
X37620000Y-37460000D03*
X37620000Y-34920000D03*
X37620000Y-32380000D03*
X37620000Y-29840000D03*
X37620000Y-27300000D03*
X30000000Y-32380000D03*
X27460000Y-32380000D03*
G04 #@! TA.AperFunction,SMDPad,CuDef*
D15*
G36*
X27023045Y-43800000D02*
G01*
X30700000Y-40123045D01*
X34376955Y-43800000D01*
X30700000Y-47476955D01*
X27023045Y-43800000D01*
G37*
G04 #@! TD.AperFunction*
G04 #@! TA.AperFunction,SMDPad,CuDef*
G36*
G01*
X30912132Y-40052334D02*
X30912132Y-40052334D01*
G75*
G02*
X30912132Y-39840202I106066J106066D01*
G01*
X31477818Y-39274516D01*
G75*
G02*
X31689950Y-39274516I106066J-106066D01*
G01*
X31689950Y-39274516D01*
G75*
G02*
X31689950Y-39486648I-106066J-106066D01*
G01*
X31124264Y-40052334D01*
G75*
G02*
X30912132Y-40052334I-106066J106066D01*
G01*
G37*
G04 #@! TD.AperFunction*
G04 #@! TA.AperFunction,SMDPad,CuDef*
G36*
G01*
X31265685Y-40405888D02*
X31265685Y-40405888D01*
G75*
G02*
X31265685Y-40193756I106066J106066D01*
G01*
X31831371Y-39628070D01*
G75*
G02*
X32043503Y-39628070I106066J-106066D01*
G01*
X32043503Y-39628070D01*
G75*
G02*
X32043503Y-39840202I-106066J-106066D01*
G01*
X31477817Y-40405888D01*
G75*
G02*
X31265685Y-40405888I-106066J106066D01*
G01*
G37*
G04 #@! TD.AperFunction*
G04 #@! TA.AperFunction,SMDPad,CuDef*
G36*
G01*
X31619239Y-40759441D02*
X31619239Y-40759441D01*
G75*
G02*
X31619239Y-40547309I106066J106066D01*
G01*
X32184925Y-39981623D01*
G75*
G02*
X32397057Y-39981623I106066J-106066D01*
G01*
X32397057Y-39981623D01*
G75*
G02*
X32397057Y-40193755I-106066J-106066D01*
G01*
X31831371Y-40759441D01*
G75*
G02*
X31619239Y-40759441I-106066J106066D01*
G01*
G37*
G04 #@! TD.AperFunction*
G04 #@! TA.AperFunction,SMDPad,CuDef*
G36*
G01*
X31972792Y-41112995D02*
X31972792Y-41112995D01*
G75*
G02*
X31972792Y-40900863I106066J106066D01*
G01*
X32538478Y-40335177D01*
G75*
G02*
X32750610Y-40335177I106066J-106066D01*
G01*
X32750610Y-40335177D01*
G75*
G02*
X32750610Y-40547309I-106066J-106066D01*
G01*
X32184924Y-41112995D01*
G75*
G02*
X31972792Y-41112995I-106066J106066D01*
G01*
G37*
G04 #@! TD.AperFunction*
G04 #@! TA.AperFunction,SMDPad,CuDef*
G36*
G01*
X32326345Y-41466548D02*
X32326345Y-41466548D01*
G75*
G02*
X32326345Y-41254416I106066J106066D01*
G01*
X32892031Y-40688730D01*
G75*
G02*
X33104163Y-40688730I106066J-106066D01*
G01*
X33104163Y-40688730D01*
G75*
G02*
X33104163Y-40900862I-106066J-106066D01*
G01*
X32538477Y-41466548D01*
G75*
G02*
X32326345Y-41466548I-106066J106066D01*
G01*
G37*
G04 #@! TD.AperFunction*
G04 #@! TA.AperFunction,SMDPad,CuDef*
G36*
G01*
X32679899Y-41820101D02*
X32679899Y-41820101D01*
G75*
G02*
X32679899Y-41607969I106066J106066D01*
G01*
X33245585Y-41042283D01*
G75*
G02*
X33457717Y-41042283I106066J-106066D01*
G01*
X33457717Y-41042283D01*
G75*
G02*
X33457717Y-41254415I-106066J-106066D01*
G01*
X32892031Y-41820101D01*
G75*
G02*
X32679899Y-41820101I-106066J106066D01*
G01*
G37*
G04 #@! TD.AperFunction*
G04 #@! TA.AperFunction,SMDPad,CuDef*
G36*
G01*
X33033452Y-42173655D02*
X33033452Y-42173655D01*
G75*
G02*
X33033452Y-41961523I106066J106066D01*
G01*
X33599138Y-41395837D01*
G75*
G02*
X33811270Y-41395837I106066J-106066D01*
G01*
X33811270Y-41395837D01*
G75*
G02*
X33811270Y-41607969I-106066J-106066D01*
G01*
X33245584Y-42173655D01*
G75*
G02*
X33033452Y-42173655I-106066J106066D01*
G01*
G37*
G04 #@! TD.AperFunction*
G04 #@! TA.AperFunction,SMDPad,CuDef*
G36*
G01*
X33387005Y-42527208D02*
X33387005Y-42527208D01*
G75*
G02*
X33387005Y-42315076I106066J106066D01*
G01*
X33952691Y-41749390D01*
G75*
G02*
X34164823Y-41749390I106066J-106066D01*
G01*
X34164823Y-41749390D01*
G75*
G02*
X34164823Y-41961522I-106066J-106066D01*
G01*
X33599137Y-42527208D01*
G75*
G02*
X33387005Y-42527208I-106066J106066D01*
G01*
G37*
G04 #@! TD.AperFunction*
G04 #@! TA.AperFunction,SMDPad,CuDef*
G36*
G01*
X33740559Y-42880761D02*
X33740559Y-42880761D01*
G75*
G02*
X33740559Y-42668629I106066J106066D01*
G01*
X34306245Y-42102943D01*
G75*
G02*
X34518377Y-42102943I106066J-106066D01*
G01*
X34518377Y-42102943D01*
G75*
G02*
X34518377Y-42315075I-106066J-106066D01*
G01*
X33952691Y-42880761D01*
G75*
G02*
X33740559Y-42880761I-106066J106066D01*
G01*
G37*
G04 #@! TD.AperFunction*
G04 #@! TA.AperFunction,SMDPad,CuDef*
G36*
G01*
X34094112Y-43234315D02*
X34094112Y-43234315D01*
G75*
G02*
X34094112Y-43022183I106066J106066D01*
G01*
X34659798Y-42456497D01*
G75*
G02*
X34871930Y-42456497I106066J-106066D01*
G01*
X34871930Y-42456497D01*
G75*
G02*
X34871930Y-42668629I-106066J-106066D01*
G01*
X34306244Y-43234315D01*
G75*
G02*
X34094112Y-43234315I-106066J106066D01*
G01*
G37*
G04 #@! TD.AperFunction*
G04 #@! TA.AperFunction,SMDPad,CuDef*
G36*
G01*
X34447666Y-43587868D02*
X34447666Y-43587868D01*
G75*
G02*
X34447666Y-43375736I106066J106066D01*
G01*
X35013352Y-42810050D01*
G75*
G02*
X35225484Y-42810050I106066J-106066D01*
G01*
X35225484Y-42810050D01*
G75*
G02*
X35225484Y-43022182I-106066J-106066D01*
G01*
X34659798Y-43587868D01*
G75*
G02*
X34447666Y-43587868I-106066J106066D01*
G01*
G37*
G04 #@! TD.AperFunction*
G04 #@! TA.AperFunction,SMDPad,CuDef*
G36*
G01*
X34447666Y-44012132D02*
X34447666Y-44012132D01*
G75*
G02*
X34659798Y-44012132I106066J-106066D01*
G01*
X35225484Y-44577818D01*
G75*
G02*
X35225484Y-44789950I-106066J-106066D01*
G01*
X35225484Y-44789950D01*
G75*
G02*
X35013352Y-44789950I-106066J106066D01*
G01*
X34447666Y-44224264D01*
G75*
G02*
X34447666Y-44012132I106066J106066D01*
G01*
G37*
G04 #@! TD.AperFunction*
G04 #@! TA.AperFunction,SMDPad,CuDef*
G36*
G01*
X34094112Y-44365685D02*
X34094112Y-44365685D01*
G75*
G02*
X34306244Y-44365685I106066J-106066D01*
G01*
X34871930Y-44931371D01*
G75*
G02*
X34871930Y-45143503I-106066J-106066D01*
G01*
X34871930Y-45143503D01*
G75*
G02*
X34659798Y-45143503I-106066J106066D01*
G01*
X34094112Y-44577817D01*
G75*
G02*
X34094112Y-44365685I106066J106066D01*
G01*
G37*
G04 #@! TD.AperFunction*
G04 #@! TA.AperFunction,SMDPad,CuDef*
G36*
G01*
X33740559Y-44719239D02*
X33740559Y-44719239D01*
G75*
G02*
X33952691Y-44719239I106066J-106066D01*
G01*
X34518377Y-45284925D01*
G75*
G02*
X34518377Y-45497057I-106066J-106066D01*
G01*
X34518377Y-45497057D01*
G75*
G02*
X34306245Y-45497057I-106066J106066D01*
G01*
X33740559Y-44931371D01*
G75*
G02*
X33740559Y-44719239I106066J106066D01*
G01*
G37*
G04 #@! TD.AperFunction*
G04 #@! TA.AperFunction,SMDPad,CuDef*
G36*
G01*
X33387005Y-45072792D02*
X33387005Y-45072792D01*
G75*
G02*
X33599137Y-45072792I106066J-106066D01*
G01*
X34164823Y-45638478D01*
G75*
G02*
X34164823Y-45850610I-106066J-106066D01*
G01*
X34164823Y-45850610D01*
G75*
G02*
X33952691Y-45850610I-106066J106066D01*
G01*
X33387005Y-45284924D01*
G75*
G02*
X33387005Y-45072792I106066J106066D01*
G01*
G37*
G04 #@! TD.AperFunction*
G04 #@! TA.AperFunction,SMDPad,CuDef*
G36*
G01*
X33033452Y-45426345D02*
X33033452Y-45426345D01*
G75*
G02*
X33245584Y-45426345I106066J-106066D01*
G01*
X33811270Y-45992031D01*
G75*
G02*
X33811270Y-46204163I-106066J-106066D01*
G01*
X33811270Y-46204163D01*
G75*
G02*
X33599138Y-46204163I-106066J106066D01*
G01*
X33033452Y-45638477D01*
G75*
G02*
X33033452Y-45426345I106066J106066D01*
G01*
G37*
G04 #@! TD.AperFunction*
G04 #@! TA.AperFunction,SMDPad,CuDef*
G36*
G01*
X32679899Y-45779899D02*
X32679899Y-45779899D01*
G75*
G02*
X32892031Y-45779899I106066J-106066D01*
G01*
X33457717Y-46345585D01*
G75*
G02*
X33457717Y-46557717I-106066J-106066D01*
G01*
X33457717Y-46557717D01*
G75*
G02*
X33245585Y-46557717I-106066J106066D01*
G01*
X32679899Y-45992031D01*
G75*
G02*
X32679899Y-45779899I106066J106066D01*
G01*
G37*
G04 #@! TD.AperFunction*
G04 #@! TA.AperFunction,SMDPad,CuDef*
G36*
G01*
X32326345Y-46133452D02*
X32326345Y-46133452D01*
G75*
G02*
X32538477Y-46133452I106066J-106066D01*
G01*
X33104163Y-46699138D01*
G75*
G02*
X33104163Y-46911270I-106066J-106066D01*
G01*
X33104163Y-46911270D01*
G75*
G02*
X32892031Y-46911270I-106066J106066D01*
G01*
X32326345Y-46345584D01*
G75*
G02*
X32326345Y-46133452I106066J106066D01*
G01*
G37*
G04 #@! TD.AperFunction*
G04 #@! TA.AperFunction,SMDPad,CuDef*
G36*
G01*
X31972792Y-46487005D02*
X31972792Y-46487005D01*
G75*
G02*
X32184924Y-46487005I106066J-106066D01*
G01*
X32750610Y-47052691D01*
G75*
G02*
X32750610Y-47264823I-106066J-106066D01*
G01*
X32750610Y-47264823D01*
G75*
G02*
X32538478Y-47264823I-106066J106066D01*
G01*
X31972792Y-46699137D01*
G75*
G02*
X31972792Y-46487005I106066J106066D01*
G01*
G37*
G04 #@! TD.AperFunction*
G04 #@! TA.AperFunction,SMDPad,CuDef*
G36*
G01*
X31619239Y-46840559D02*
X31619239Y-46840559D01*
G75*
G02*
X31831371Y-46840559I106066J-106066D01*
G01*
X32397057Y-47406245D01*
G75*
G02*
X32397057Y-47618377I-106066J-106066D01*
G01*
X32397057Y-47618377D01*
G75*
G02*
X32184925Y-47618377I-106066J106066D01*
G01*
X31619239Y-47052691D01*
G75*
G02*
X31619239Y-46840559I106066J106066D01*
G01*
G37*
G04 #@! TD.AperFunction*
G04 #@! TA.AperFunction,SMDPad,CuDef*
G36*
G01*
X31265685Y-47194112D02*
X31265685Y-47194112D01*
G75*
G02*
X31477817Y-47194112I106066J-106066D01*
G01*
X32043503Y-47759798D01*
G75*
G02*
X32043503Y-47971930I-106066J-106066D01*
G01*
X32043503Y-47971930D01*
G75*
G02*
X31831371Y-47971930I-106066J106066D01*
G01*
X31265685Y-47406244D01*
G75*
G02*
X31265685Y-47194112I106066J106066D01*
G01*
G37*
G04 #@! TD.AperFunction*
G04 #@! TA.AperFunction,SMDPad,CuDef*
G36*
G01*
X30912132Y-47547666D02*
X30912132Y-47547666D01*
G75*
G02*
X31124264Y-47547666I106066J-106066D01*
G01*
X31689950Y-48113352D01*
G75*
G02*
X31689950Y-48325484I-106066J-106066D01*
G01*
X31689950Y-48325484D01*
G75*
G02*
X31477818Y-48325484I-106066J106066D01*
G01*
X30912132Y-47759798D01*
G75*
G02*
X30912132Y-47547666I106066J106066D01*
G01*
G37*
G04 #@! TD.AperFunction*
G04 #@! TA.AperFunction,SMDPad,CuDef*
G36*
G01*
X29710050Y-48325484D02*
X29710050Y-48325484D01*
G75*
G02*
X29710050Y-48113352I106066J106066D01*
G01*
X30275736Y-47547666D01*
G75*
G02*
X30487868Y-47547666I106066J-106066D01*
G01*
X30487868Y-47547666D01*
G75*
G02*
X30487868Y-47759798I-106066J-106066D01*
G01*
X29922182Y-48325484D01*
G75*
G02*
X29710050Y-48325484I-106066J106066D01*
G01*
G37*
G04 #@! TD.AperFunction*
G04 #@! TA.AperFunction,SMDPad,CuDef*
G36*
G01*
X29356497Y-47971930D02*
X29356497Y-47971930D01*
G75*
G02*
X29356497Y-47759798I106066J106066D01*
G01*
X29922183Y-47194112D01*
G75*
G02*
X30134315Y-47194112I106066J-106066D01*
G01*
X30134315Y-47194112D01*
G75*
G02*
X30134315Y-47406244I-106066J-106066D01*
G01*
X29568629Y-47971930D01*
G75*
G02*
X29356497Y-47971930I-106066J106066D01*
G01*
G37*
G04 #@! TD.AperFunction*
G04 #@! TA.AperFunction,SMDPad,CuDef*
G36*
G01*
X29002943Y-47618377D02*
X29002943Y-47618377D01*
G75*
G02*
X29002943Y-47406245I106066J106066D01*
G01*
X29568629Y-46840559D01*
G75*
G02*
X29780761Y-46840559I106066J-106066D01*
G01*
X29780761Y-46840559D01*
G75*
G02*
X29780761Y-47052691I-106066J-106066D01*
G01*
X29215075Y-47618377D01*
G75*
G02*
X29002943Y-47618377I-106066J106066D01*
G01*
G37*
G04 #@! TD.AperFunction*
G04 #@! TA.AperFunction,SMDPad,CuDef*
G36*
G01*
X28649390Y-47264823D02*
X28649390Y-47264823D01*
G75*
G02*
X28649390Y-47052691I106066J106066D01*
G01*
X29215076Y-46487005D01*
G75*
G02*
X29427208Y-46487005I106066J-106066D01*
G01*
X29427208Y-46487005D01*
G75*
G02*
X29427208Y-46699137I-106066J-106066D01*
G01*
X28861522Y-47264823D01*
G75*
G02*
X28649390Y-47264823I-106066J106066D01*
G01*
G37*
G04 #@! TD.AperFunction*
G04 #@! TA.AperFunction,SMDPad,CuDef*
G36*
G01*
X28295837Y-46911270D02*
X28295837Y-46911270D01*
G75*
G02*
X28295837Y-46699138I106066J106066D01*
G01*
X28861523Y-46133452D01*
G75*
G02*
X29073655Y-46133452I106066J-106066D01*
G01*
X29073655Y-46133452D01*
G75*
G02*
X29073655Y-46345584I-106066J-106066D01*
G01*
X28507969Y-46911270D01*
G75*
G02*
X28295837Y-46911270I-106066J106066D01*
G01*
G37*
G04 #@! TD.AperFunction*
G04 #@! TA.AperFunction,SMDPad,CuDef*
G36*
G01*
X27942283Y-46557717D02*
X27942283Y-46557717D01*
G75*
G02*
X27942283Y-46345585I106066J106066D01*
G01*
X28507969Y-45779899D01*
G75*
G02*
X28720101Y-45779899I106066J-106066D01*
G01*
X28720101Y-45779899D01*
G75*
G02*
X28720101Y-45992031I-106066J-106066D01*
G01*
X28154415Y-46557717D01*
G75*
G02*
X27942283Y-46557717I-106066J106066D01*
G01*
G37*
G04 #@! TD.AperFunction*
G04 #@! TA.AperFunction,SMDPad,CuDef*
G36*
G01*
X27588730Y-46204163D02*
X27588730Y-46204163D01*
G75*
G02*
X27588730Y-45992031I106066J106066D01*
G01*
X28154416Y-45426345D01*
G75*
G02*
X28366548Y-45426345I106066J-106066D01*
G01*
X28366548Y-45426345D01*
G75*
G02*
X28366548Y-45638477I-106066J-106066D01*
G01*
X27800862Y-46204163D01*
G75*
G02*
X27588730Y-46204163I-106066J106066D01*
G01*
G37*
G04 #@! TD.AperFunction*
G04 #@! TA.AperFunction,SMDPad,CuDef*
G36*
G01*
X27235177Y-45850610D02*
X27235177Y-45850610D01*
G75*
G02*
X27235177Y-45638478I106066J106066D01*
G01*
X27800863Y-45072792D01*
G75*
G02*
X28012995Y-45072792I106066J-106066D01*
G01*
X28012995Y-45072792D01*
G75*
G02*
X28012995Y-45284924I-106066J-106066D01*
G01*
X27447309Y-45850610D01*
G75*
G02*
X27235177Y-45850610I-106066J106066D01*
G01*
G37*
G04 #@! TD.AperFunction*
G04 #@! TA.AperFunction,SMDPad,CuDef*
G36*
G01*
X26881623Y-45497057D02*
X26881623Y-45497057D01*
G75*
G02*
X26881623Y-45284925I106066J106066D01*
G01*
X27447309Y-44719239D01*
G75*
G02*
X27659441Y-44719239I106066J-106066D01*
G01*
X27659441Y-44719239D01*
G75*
G02*
X27659441Y-44931371I-106066J-106066D01*
G01*
X27093755Y-45497057D01*
G75*
G02*
X26881623Y-45497057I-106066J106066D01*
G01*
G37*
G04 #@! TD.AperFunction*
G04 #@! TA.AperFunction,SMDPad,CuDef*
G36*
G01*
X26528070Y-45143503D02*
X26528070Y-45143503D01*
G75*
G02*
X26528070Y-44931371I106066J106066D01*
G01*
X27093756Y-44365685D01*
G75*
G02*
X27305888Y-44365685I106066J-106066D01*
G01*
X27305888Y-44365685D01*
G75*
G02*
X27305888Y-44577817I-106066J-106066D01*
G01*
X26740202Y-45143503D01*
G75*
G02*
X26528070Y-45143503I-106066J106066D01*
G01*
G37*
G04 #@! TD.AperFunction*
G04 #@! TA.AperFunction,SMDPad,CuDef*
G36*
G01*
X26174516Y-44789950D02*
X26174516Y-44789950D01*
G75*
G02*
X26174516Y-44577818I106066J106066D01*
G01*
X26740202Y-44012132D01*
G75*
G02*
X26952334Y-44012132I106066J-106066D01*
G01*
X26952334Y-44012132D01*
G75*
G02*
X26952334Y-44224264I-106066J-106066D01*
G01*
X26386648Y-44789950D01*
G75*
G02*
X26174516Y-44789950I-106066J106066D01*
G01*
G37*
G04 #@! TD.AperFunction*
G04 #@! TA.AperFunction,SMDPad,CuDef*
G36*
G01*
X26174516Y-42810050D02*
X26174516Y-42810050D01*
G75*
G02*
X26386648Y-42810050I106066J-106066D01*
G01*
X26952334Y-43375736D01*
G75*
G02*
X26952334Y-43587868I-106066J-106066D01*
G01*
X26952334Y-43587868D01*
G75*
G02*
X26740202Y-43587868I-106066J106066D01*
G01*
X26174516Y-43022182D01*
G75*
G02*
X26174516Y-42810050I106066J106066D01*
G01*
G37*
G04 #@! TD.AperFunction*
G04 #@! TA.AperFunction,SMDPad,CuDef*
G36*
G01*
X26528070Y-42456497D02*
X26528070Y-42456497D01*
G75*
G02*
X26740202Y-42456497I106066J-106066D01*
G01*
X27305888Y-43022183D01*
G75*
G02*
X27305888Y-43234315I-106066J-106066D01*
G01*
X27305888Y-43234315D01*
G75*
G02*
X27093756Y-43234315I-106066J106066D01*
G01*
X26528070Y-42668629D01*
G75*
G02*
X26528070Y-42456497I106066J106066D01*
G01*
G37*
G04 #@! TD.AperFunction*
G04 #@! TA.AperFunction,SMDPad,CuDef*
G36*
G01*
X26881623Y-42102943D02*
X26881623Y-42102943D01*
G75*
G02*
X27093755Y-42102943I106066J-106066D01*
G01*
X27659441Y-42668629D01*
G75*
G02*
X27659441Y-42880761I-106066J-106066D01*
G01*
X27659441Y-42880761D01*
G75*
G02*
X27447309Y-42880761I-106066J106066D01*
G01*
X26881623Y-42315075D01*
G75*
G02*
X26881623Y-42102943I106066J106066D01*
G01*
G37*
G04 #@! TD.AperFunction*
G04 #@! TA.AperFunction,SMDPad,CuDef*
G36*
G01*
X27235177Y-41749390D02*
X27235177Y-41749390D01*
G75*
G02*
X27447309Y-41749390I106066J-106066D01*
G01*
X28012995Y-42315076D01*
G75*
G02*
X28012995Y-42527208I-106066J-106066D01*
G01*
X28012995Y-42527208D01*
G75*
G02*
X27800863Y-42527208I-106066J106066D01*
G01*
X27235177Y-41961522D01*
G75*
G02*
X27235177Y-41749390I106066J106066D01*
G01*
G37*
G04 #@! TD.AperFunction*
G04 #@! TA.AperFunction,SMDPad,CuDef*
G36*
G01*
X27588730Y-41395837D02*
X27588730Y-41395837D01*
G75*
G02*
X27800862Y-41395837I106066J-106066D01*
G01*
X28366548Y-41961523D01*
G75*
G02*
X28366548Y-42173655I-106066J-106066D01*
G01*
X28366548Y-42173655D01*
G75*
G02*
X28154416Y-42173655I-106066J106066D01*
G01*
X27588730Y-41607969D01*
G75*
G02*
X27588730Y-41395837I106066J106066D01*
G01*
G37*
G04 #@! TD.AperFunction*
G04 #@! TA.AperFunction,SMDPad,CuDef*
G36*
G01*
X27942283Y-41042283D02*
X27942283Y-41042283D01*
G75*
G02*
X28154415Y-41042283I106066J-106066D01*
G01*
X28720101Y-41607969D01*
G75*
G02*
X28720101Y-41820101I-106066J-106066D01*
G01*
X28720101Y-41820101D01*
G75*
G02*
X28507969Y-41820101I-106066J106066D01*
G01*
X27942283Y-41254415D01*
G75*
G02*
X27942283Y-41042283I106066J106066D01*
G01*
G37*
G04 #@! TD.AperFunction*
G04 #@! TA.AperFunction,SMDPad,CuDef*
G36*
G01*
X28295837Y-40688730D02*
X28295837Y-40688730D01*
G75*
G02*
X28507969Y-40688730I106066J-106066D01*
G01*
X29073655Y-41254416D01*
G75*
G02*
X29073655Y-41466548I-106066J-106066D01*
G01*
X29073655Y-41466548D01*
G75*
G02*
X28861523Y-41466548I-106066J106066D01*
G01*
X28295837Y-40900862D01*
G75*
G02*
X28295837Y-40688730I106066J106066D01*
G01*
G37*
G04 #@! TD.AperFunction*
G04 #@! TA.AperFunction,SMDPad,CuDef*
G36*
G01*
X28649390Y-40335177D02*
X28649390Y-40335177D01*
G75*
G02*
X28861522Y-40335177I106066J-106066D01*
G01*
X29427208Y-40900863D01*
G75*
G02*
X29427208Y-41112995I-106066J-106066D01*
G01*
X29427208Y-41112995D01*
G75*
G02*
X29215076Y-41112995I-106066J106066D01*
G01*
X28649390Y-40547309D01*
G75*
G02*
X28649390Y-40335177I106066J106066D01*
G01*
G37*
G04 #@! TD.AperFunction*
G04 #@! TA.AperFunction,SMDPad,CuDef*
G36*
G01*
X29002943Y-39981623D02*
X29002943Y-39981623D01*
G75*
G02*
X29215075Y-39981623I106066J-106066D01*
G01*
X29780761Y-40547309D01*
G75*
G02*
X29780761Y-40759441I-106066J-106066D01*
G01*
X29780761Y-40759441D01*
G75*
G02*
X29568629Y-40759441I-106066J106066D01*
G01*
X29002943Y-40193755D01*
G75*
G02*
X29002943Y-39981623I106066J106066D01*
G01*
G37*
G04 #@! TD.AperFunction*
G04 #@! TA.AperFunction,SMDPad,CuDef*
G36*
G01*
X29356497Y-39628070D02*
X29356497Y-39628070D01*
G75*
G02*
X29568629Y-39628070I106066J-106066D01*
G01*
X30134315Y-40193756D01*
G75*
G02*
X30134315Y-40405888I-106066J-106066D01*
G01*
X30134315Y-40405888D01*
G75*
G02*
X29922183Y-40405888I-106066J106066D01*
G01*
X29356497Y-39840202D01*
G75*
G02*
X29356497Y-39628070I106066J106066D01*
G01*
G37*
G04 #@! TD.AperFunction*
G04 #@! TA.AperFunction,SMDPad,CuDef*
G36*
G01*
X29710050Y-39274516D02*
X29710050Y-39274516D01*
G75*
G02*
X29922182Y-39274516I106066J-106066D01*
G01*
X30487868Y-39840202D01*
G75*
G02*
X30487868Y-40052334I-106066J-106066D01*
G01*
X30487868Y-40052334D01*
G75*
G02*
X30275736Y-40052334I-106066J106066D01*
G01*
X29710050Y-39486648D01*
G75*
G02*
X29710050Y-39274516I106066J106066D01*
G01*
G37*
G04 #@! TD.AperFunction*
G04 #@! TA.AperFunction,SMDPad,CuDef*
G36*
G01*
X24225000Y-35506250D02*
X24225000Y-34993750D01*
G75*
G02*
X24443750Y-34775000I218750J0D01*
G01*
X24881250Y-34775000D01*
G75*
G02*
X25100000Y-34993750I0J-218750D01*
G01*
X25100000Y-35506250D01*
G75*
G02*
X24881250Y-35725000I-218750J0D01*
G01*
X24443750Y-35725000D01*
G75*
G02*
X24225000Y-35506250I0J218750D01*
G01*
G37*
G04 #@! TD.AperFunction*
G04 #@! TA.AperFunction,SMDPad,CuDef*
G36*
G01*
X25800000Y-35506250D02*
X25800000Y-34993750D01*
G75*
G02*
X26018750Y-34775000I218750J0D01*
G01*
X26456250Y-34775000D01*
G75*
G02*
X26675000Y-34993750I0J-218750D01*
G01*
X26675000Y-35506250D01*
G75*
G02*
X26456250Y-35725000I-218750J0D01*
G01*
X26018750Y-35725000D01*
G75*
G02*
X25800000Y-35506250I0J218750D01*
G01*
G37*
G04 #@! TD.AperFunction*
G04 #@! TA.AperFunction,SMDPad,CuDef*
G36*
G01*
X30956250Y-35650000D02*
X30443750Y-35650000D01*
G75*
G02*
X30225000Y-35431250I0J218750D01*
G01*
X30225000Y-34993750D01*
G75*
G02*
X30443750Y-34775000I218750J0D01*
G01*
X30956250Y-34775000D01*
G75*
G02*
X31175000Y-34993750I0J-218750D01*
G01*
X31175000Y-35431250D01*
G75*
G02*
X30956250Y-35650000I-218750J0D01*
G01*
G37*
G04 #@! TD.AperFunction*
G04 #@! TA.AperFunction,SMDPad,CuDef*
G36*
G01*
X30956250Y-37225000D02*
X30443750Y-37225000D01*
G75*
G02*
X30225000Y-37006250I0J218750D01*
G01*
X30225000Y-36568750D01*
G75*
G02*
X30443750Y-36350000I218750J0D01*
G01*
X30956250Y-36350000D01*
G75*
G02*
X31175000Y-36568750I0J-218750D01*
G01*
X31175000Y-37006250D01*
G75*
G02*
X30956250Y-37225000I-218750J0D01*
G01*
G37*
G04 #@! TD.AperFunction*
G04 #@! TA.AperFunction,SMDPad,CuDef*
G36*
G01*
X29456250Y-35650000D02*
X28943750Y-35650000D01*
G75*
G02*
X28725000Y-35431250I0J218750D01*
G01*
X28725000Y-34993750D01*
G75*
G02*
X28943750Y-34775000I218750J0D01*
G01*
X29456250Y-34775000D01*
G75*
G02*
X29675000Y-34993750I0J-218750D01*
G01*
X29675000Y-35431250D01*
G75*
G02*
X29456250Y-35650000I-218750J0D01*
G01*
G37*
G04 #@! TD.AperFunction*
G04 #@! TA.AperFunction,SMDPad,CuDef*
G36*
G01*
X29456250Y-37225000D02*
X28943750Y-37225000D01*
G75*
G02*
X28725000Y-37006250I0J218750D01*
G01*
X28725000Y-36568750D01*
G75*
G02*
X28943750Y-36350000I218750J0D01*
G01*
X29456250Y-36350000D01*
G75*
G02*
X29675000Y-36568750I0J-218750D01*
G01*
X29675000Y-37006250D01*
G75*
G02*
X29456250Y-37225000I-218750J0D01*
G01*
G37*
G04 #@! TD.AperFunction*
G04 #@! TA.AperFunction,SMDPad,CuDef*
G36*
G01*
X34943750Y-30425000D02*
X35456250Y-30425000D01*
G75*
G02*
X35675000Y-30643750I0J-218750D01*
G01*
X35675000Y-31081250D01*
G75*
G02*
X35456250Y-31300000I-218750J0D01*
G01*
X34943750Y-31300000D01*
G75*
G02*
X34725000Y-31081250I0J218750D01*
G01*
X34725000Y-30643750D01*
G75*
G02*
X34943750Y-30425000I218750J0D01*
G01*
G37*
G04 #@! TD.AperFunction*
G04 #@! TA.AperFunction,SMDPad,CuDef*
G36*
G01*
X34943750Y-32000000D02*
X35456250Y-32000000D01*
G75*
G02*
X35675000Y-32218750I0J-218750D01*
G01*
X35675000Y-32656250D01*
G75*
G02*
X35456250Y-32875000I-218750J0D01*
G01*
X34943750Y-32875000D01*
G75*
G02*
X34725000Y-32656250I0J218750D01*
G01*
X34725000Y-32218750D01*
G75*
G02*
X34943750Y-32000000I218750J0D01*
G01*
G37*
G04 #@! TD.AperFunction*
G04 #@! TA.AperFunction,SMDPad,CuDef*
G36*
G01*
X33956250Y-32875000D02*
X33443750Y-32875000D01*
G75*
G02*
X33225000Y-32656250I0J218750D01*
G01*
X33225000Y-32218750D01*
G75*
G02*
X33443750Y-32000000I218750J0D01*
G01*
X33956250Y-32000000D01*
G75*
G02*
X34175000Y-32218750I0J-218750D01*
G01*
X34175000Y-32656250D01*
G75*
G02*
X33956250Y-32875000I-218750J0D01*
G01*
G37*
G04 #@! TD.AperFunction*
G04 #@! TA.AperFunction,SMDPad,CuDef*
G36*
G01*
X33956250Y-31300000D02*
X33443750Y-31300000D01*
G75*
G02*
X33225000Y-31081250I0J218750D01*
G01*
X33225000Y-30643750D01*
G75*
G02*
X33443750Y-30425000I218750J0D01*
G01*
X33956250Y-30425000D01*
G75*
G02*
X34175000Y-30643750I0J-218750D01*
G01*
X34175000Y-31081250D01*
G75*
G02*
X33956250Y-31300000I-218750J0D01*
G01*
G37*
G04 #@! TD.AperFunction*
G04 #@! TA.AperFunction,SMDPad,CuDef*
G36*
G01*
X32456250Y-31850000D02*
X31943750Y-31850000D01*
G75*
G02*
X31725000Y-31631250I0J218750D01*
G01*
X31725000Y-31193750D01*
G75*
G02*
X31943750Y-30975000I218750J0D01*
G01*
X32456250Y-30975000D01*
G75*
G02*
X32675000Y-31193750I0J-218750D01*
G01*
X32675000Y-31631250D01*
G75*
G02*
X32456250Y-31850000I-218750J0D01*
G01*
G37*
G04 #@! TD.AperFunction*
G04 #@! TA.AperFunction,SMDPad,CuDef*
G36*
G01*
X32456250Y-33425000D02*
X31943750Y-33425000D01*
G75*
G02*
X31725000Y-33206250I0J218750D01*
G01*
X31725000Y-32768750D01*
G75*
G02*
X31943750Y-32550000I218750J0D01*
G01*
X32456250Y-32550000D01*
G75*
G02*
X32675000Y-32768750I0J-218750D01*
G01*
X32675000Y-33206250D01*
G75*
G02*
X32456250Y-33425000I-218750J0D01*
G01*
G37*
G04 #@! TD.AperFunction*
G04 #@! TA.AperFunction,SMDPad,CuDef*
G36*
G01*
X27956250Y-35650000D02*
X27443750Y-35650000D01*
G75*
G02*
X27225000Y-35431250I0J218750D01*
G01*
X27225000Y-34993750D01*
G75*
G02*
X27443750Y-34775000I218750J0D01*
G01*
X27956250Y-34775000D01*
G75*
G02*
X28175000Y-34993750I0J-218750D01*
G01*
X28175000Y-35431250D01*
G75*
G02*
X27956250Y-35650000I-218750J0D01*
G01*
G37*
G04 #@! TD.AperFunction*
G04 #@! TA.AperFunction,SMDPad,CuDef*
G36*
G01*
X27956250Y-37225000D02*
X27443750Y-37225000D01*
G75*
G02*
X27225000Y-37006250I0J218750D01*
G01*
X27225000Y-36568750D01*
G75*
G02*
X27443750Y-36350000I218750J0D01*
G01*
X27956250Y-36350000D01*
G75*
G02*
X28175000Y-36568750I0J-218750D01*
G01*
X28175000Y-37006250D01*
G75*
G02*
X27956250Y-37225000I-218750J0D01*
G01*
G37*
G04 #@! TD.AperFunction*
G04 #@! TA.AperFunction,SMDPad,CuDef*
G36*
G01*
X25700000Y-48331250D02*
X25700000Y-47818750D01*
G75*
G02*
X25918750Y-47600000I218750J0D01*
G01*
X26356250Y-47600000D01*
G75*
G02*
X26575000Y-47818750I0J-218750D01*
G01*
X26575000Y-48331250D01*
G75*
G02*
X26356250Y-48550000I-218750J0D01*
G01*
X25918750Y-48550000D01*
G75*
G02*
X25700000Y-48331250I0J218750D01*
G01*
G37*
G04 #@! TD.AperFunction*
G04 #@! TA.AperFunction,SMDPad,CuDef*
G36*
G01*
X24125000Y-48331250D02*
X24125000Y-47818750D01*
G75*
G02*
X24343750Y-47600000I218750J0D01*
G01*
X24781250Y-47600000D01*
G75*
G02*
X25000000Y-47818750I0J-218750D01*
G01*
X25000000Y-48331250D01*
G75*
G02*
X24781250Y-48550000I-218750J0D01*
G01*
X24343750Y-48550000D01*
G75*
G02*
X24125000Y-48331250I0J218750D01*
G01*
G37*
G04 #@! TD.AperFunction*
G04 #@! TA.AperFunction,SMDPad,CuDef*
G36*
G01*
X28806250Y-53025000D02*
X28293750Y-53025000D01*
G75*
G02*
X28075000Y-52806250I0J218750D01*
G01*
X28075000Y-52368750D01*
G75*
G02*
X28293750Y-52150000I218750J0D01*
G01*
X28806250Y-52150000D01*
G75*
G02*
X29025000Y-52368750I0J-218750D01*
G01*
X29025000Y-52806250D01*
G75*
G02*
X28806250Y-53025000I-218750J0D01*
G01*
G37*
G04 #@! TD.AperFunction*
G04 #@! TA.AperFunction,SMDPad,CuDef*
G36*
G01*
X28806250Y-51450000D02*
X28293750Y-51450000D01*
G75*
G02*
X28075000Y-51231250I0J218750D01*
G01*
X28075000Y-50793750D01*
G75*
G02*
X28293750Y-50575000I218750J0D01*
G01*
X28806250Y-50575000D01*
G75*
G02*
X29025000Y-50793750I0J-218750D01*
G01*
X29025000Y-51231250D01*
G75*
G02*
X28806250Y-51450000I-218750J0D01*
G01*
G37*
G04 #@! TD.AperFunction*
G04 #@! TA.AperFunction,SMDPad,CuDef*
G36*
G01*
X32456250Y-34850000D02*
X31943750Y-34850000D01*
G75*
G02*
X31725000Y-34631250I0J218750D01*
G01*
X31725000Y-34193750D01*
G75*
G02*
X31943750Y-33975000I218750J0D01*
G01*
X32456250Y-33975000D01*
G75*
G02*
X32675000Y-34193750I0J-218750D01*
G01*
X32675000Y-34631250D01*
G75*
G02*
X32456250Y-34850000I-218750J0D01*
G01*
G37*
G04 #@! TD.AperFunction*
G04 #@! TA.AperFunction,SMDPad,CuDef*
G36*
G01*
X32456250Y-36425000D02*
X31943750Y-36425000D01*
G75*
G02*
X31725000Y-36206250I0J218750D01*
G01*
X31725000Y-35768750D01*
G75*
G02*
X31943750Y-35550000I218750J0D01*
G01*
X32456250Y-35550000D01*
G75*
G02*
X32675000Y-35768750I0J-218750D01*
G01*
X32675000Y-36206250D01*
G75*
G02*
X32456250Y-36425000I-218750J0D01*
G01*
G37*
G04 #@! TD.AperFunction*
G04 #@! TA.AperFunction,SMDPad,CuDef*
G36*
G01*
X33956250Y-34300000D02*
X33443750Y-34300000D01*
G75*
G02*
X33225000Y-34081250I0J218750D01*
G01*
X33225000Y-33643750D01*
G75*
G02*
X33443750Y-33425000I218750J0D01*
G01*
X33956250Y-33425000D01*
G75*
G02*
X34175000Y-33643750I0J-218750D01*
G01*
X34175000Y-34081250D01*
G75*
G02*
X33956250Y-34300000I-218750J0D01*
G01*
G37*
G04 #@! TD.AperFunction*
G04 #@! TA.AperFunction,SMDPad,CuDef*
G36*
G01*
X33956250Y-35875000D02*
X33443750Y-35875000D01*
G75*
G02*
X33225000Y-35656250I0J218750D01*
G01*
X33225000Y-35218750D01*
G75*
G02*
X33443750Y-35000000I218750J0D01*
G01*
X33956250Y-35000000D01*
G75*
G02*
X34175000Y-35218750I0J-218750D01*
G01*
X34175000Y-35656250D01*
G75*
G02*
X33956250Y-35875000I-218750J0D01*
G01*
G37*
G04 #@! TD.AperFunction*
G04 #@! TA.AperFunction,SMDPad,CuDef*
G36*
G01*
X34693750Y-38025000D02*
X35206250Y-38025000D01*
G75*
G02*
X35425000Y-38243750I0J-218750D01*
G01*
X35425000Y-38681250D01*
G75*
G02*
X35206250Y-38900000I-218750J0D01*
G01*
X34693750Y-38900000D01*
G75*
G02*
X34475000Y-38681250I0J218750D01*
G01*
X34475000Y-38243750D01*
G75*
G02*
X34693750Y-38025000I218750J0D01*
G01*
G37*
G04 #@! TD.AperFunction*
G04 #@! TA.AperFunction,SMDPad,CuDef*
G36*
G01*
X34693750Y-39600000D02*
X35206250Y-39600000D01*
G75*
G02*
X35425000Y-39818750I0J-218750D01*
G01*
X35425000Y-40256250D01*
G75*
G02*
X35206250Y-40475000I-218750J0D01*
G01*
X34693750Y-40475000D01*
G75*
G02*
X34475000Y-40256250I0J218750D01*
G01*
X34475000Y-39818750D01*
G75*
G02*
X34693750Y-39600000I218750J0D01*
G01*
G37*
G04 #@! TD.AperFunction*
G04 #@! TA.AperFunction,SMDPad,CuDef*
G36*
G01*
X31668750Y-49475000D02*
X32181250Y-49475000D01*
G75*
G02*
X32400000Y-49693750I0J-218750D01*
G01*
X32400000Y-50131250D01*
G75*
G02*
X32181250Y-50350000I-218750J0D01*
G01*
X31668750Y-50350000D01*
G75*
G02*
X31450000Y-50131250I0J218750D01*
G01*
X31450000Y-49693750D01*
G75*
G02*
X31668750Y-49475000I218750J0D01*
G01*
G37*
G04 #@! TD.AperFunction*
G04 #@! TA.AperFunction,SMDPad,CuDef*
G36*
G01*
X31668750Y-51050000D02*
X32181250Y-51050000D01*
G75*
G02*
X32400000Y-51268750I0J-218750D01*
G01*
X32400000Y-51706250D01*
G75*
G02*
X32181250Y-51925000I-218750J0D01*
G01*
X31668750Y-51925000D01*
G75*
G02*
X31450000Y-51706250I0J218750D01*
G01*
X31450000Y-51268750D01*
G75*
G02*
X31668750Y-51050000I218750J0D01*
G01*
G37*
G04 #@! TD.AperFunction*
G04 #@! TA.AperFunction,SMDPad,CuDef*
G36*
G01*
X26575000Y-46318750D02*
X26575000Y-46831250D01*
G75*
G02*
X26356250Y-47050000I-218750J0D01*
G01*
X25918750Y-47050000D01*
G75*
G02*
X25700000Y-46831250I0J218750D01*
G01*
X25700000Y-46318750D01*
G75*
G02*
X25918750Y-46100000I218750J0D01*
G01*
X26356250Y-46100000D01*
G75*
G02*
X26575000Y-46318750I0J-218750D01*
G01*
G37*
G04 #@! TD.AperFunction*
G04 #@! TA.AperFunction,SMDPad,CuDef*
G36*
G01*
X25000000Y-46318750D02*
X25000000Y-46831250D01*
G75*
G02*
X24781250Y-47050000I-218750J0D01*
G01*
X24343750Y-47050000D01*
G75*
G02*
X24125000Y-46831250I0J218750D01*
G01*
X24125000Y-46318750D01*
G75*
G02*
X24343750Y-46100000I218750J0D01*
G01*
X24781250Y-46100000D01*
G75*
G02*
X25000000Y-46318750I0J-218750D01*
G01*
G37*
G04 #@! TD.AperFunction*
D16*
X25250000Y-52100000D03*
X25250000Y-49900000D03*
X26850000Y-49900000D03*
X26850000Y-52100000D03*
D17*
X32144943Y-38744456D03*
X25584999Y-40150000D03*
X33050000Y-48370003D03*
X35599993Y-42600000D03*
X36800000Y-43850000D03*
X24100000Y-51550000D03*
X24100000Y-50450000D03*
X24100000Y-52650000D03*
X27600000Y-34000000D03*
X36000000Y-49150000D03*
X36200000Y-47500000D03*
X23450000Y-46500000D03*
X35900000Y-53300000D03*
X35575000Y-27225000D03*
X35575000Y-26175000D03*
X24425000Y-27225000D03*
X24425000Y-26200000D03*
X32125000Y-52450000D03*
X32900000Y-49925000D03*
X29775000Y-52900000D03*
X29800000Y-51400000D03*
X24125000Y-49300000D03*
X26500000Y-37650000D03*
X32200000Y-33700000D03*
X33700000Y-34550000D03*
X32200000Y-35100000D03*
X29825000Y-34025000D03*
X24425000Y-32225000D03*
X25775000Y-32225000D03*
X24650000Y-36000000D03*
X27700000Y-35900000D03*
X34450000Y-29925000D03*
X25450555Y-42400555D03*
X34735854Y-41614146D03*
X26150526Y-41910000D03*
X25968156Y-43369947D03*
X25309999Y-43859999D03*
X34229687Y-51929687D03*
X30541118Y-38841118D03*
X34803589Y-45796411D03*
X26110002Y-41251244D03*
X33050000Y-47710000D03*
X26600002Y-40778701D03*
X28182768Y-50012814D03*
X28814335Y-49821175D03*
X29488133Y-50042411D03*
X29999970Y-50600000D03*
X35250000Y-43800000D03*
X36561916Y-36211916D03*
X35942965Y-43800000D03*
X37221721Y-36195808D03*
X25800000Y-44350000D03*
X30250000Y-31050000D03*
X29000000Y-31150000D03*
X26300000Y-38678306D03*
X31579943Y-37700000D03*
X30555889Y-48819111D03*
X28670961Y-30577868D03*
X32923168Y-30309945D03*
X27425000Y-30325000D03*
X31944344Y-30530656D03*
D18*
X31700000Y-49712500D02*
X31822510Y-49712500D01*
X35435534Y-42600000D02*
X34836575Y-43198959D01*
X35599993Y-42600000D02*
X35435534Y-42600000D01*
X32144943Y-38819523D02*
X31301041Y-39663425D01*
X32144943Y-38744456D02*
X32144943Y-38819523D01*
X31654594Y-47583021D02*
X32123287Y-48051713D01*
X32123287Y-48051713D02*
X32269675Y-48198101D01*
X36134989Y-42065004D02*
X35599993Y-42600000D01*
X34950000Y-38462500D02*
X35797489Y-38462500D01*
X36134989Y-38800000D02*
X36134989Y-42065004D01*
X35797489Y-38462500D02*
X36134989Y-38800000D01*
X25100000Y-40634999D02*
X25584999Y-40150000D01*
X32144943Y-38744456D02*
X32144943Y-37283929D01*
X35100000Y-32487500D02*
X35187500Y-32487500D01*
X33700000Y-35728872D02*
X33700000Y-35437500D01*
X32144943Y-37283929D02*
X33700000Y-35728872D01*
X26137500Y-46241180D02*
X27270532Y-45108148D01*
X25100000Y-41500000D02*
X25100000Y-41914908D01*
X24424988Y-44787488D02*
X26137500Y-46500000D01*
X25100000Y-41914908D02*
X24424988Y-42589920D01*
X24424988Y-42589920D02*
X24424988Y-44787488D01*
X26137500Y-46500000D02*
X26137500Y-46241180D01*
X25100000Y-40634999D02*
X25100000Y-41500000D01*
X31925000Y-48542776D02*
X32269675Y-48198101D01*
X31925000Y-49912500D02*
X31925000Y-48542776D01*
X31654594Y-47583021D02*
X32441576Y-48370003D01*
X32441576Y-48370003D02*
X33050000Y-48370003D01*
X35200000Y-32437500D02*
X36012500Y-32437500D01*
X37620000Y-34045000D02*
X37620000Y-34920000D01*
X36012500Y-32437500D02*
X37620000Y-34045000D01*
X30700000Y-43800000D02*
X30700000Y-43092893D01*
X30700000Y-40971573D02*
X31654594Y-40016979D01*
X30700000Y-43800000D02*
X30700000Y-40971573D01*
X33528427Y-43800000D02*
X34483021Y-42845406D01*
X30700000Y-43800000D02*
X33528427Y-43800000D01*
X34381775Y-43946241D02*
X34836575Y-44401041D01*
X30846241Y-43946241D02*
X34381775Y-43946241D01*
X30700000Y-43800000D02*
X30846241Y-43946241D01*
X31301041Y-47915345D02*
X31301041Y-47936575D01*
X30700000Y-47314304D02*
X31301041Y-47915345D01*
X30700000Y-43800000D02*
X30700000Y-47314304D01*
X29285787Y-43800000D02*
X27624086Y-45461701D01*
X30700000Y-43800000D02*
X29285787Y-43800000D01*
X24512500Y-46700000D02*
X24587500Y-46700000D01*
X25100000Y-51832998D02*
X25100000Y-52100000D01*
X26137500Y-48000000D02*
X26062500Y-48000000D01*
X34950000Y-40000000D02*
X34950000Y-40520042D01*
X30700000Y-43092893D02*
X28684746Y-41077639D01*
X33725000Y-32250000D02*
X33950000Y-32250000D01*
X34723557Y-29500000D02*
X33200000Y-29500000D01*
X35575000Y-28648557D02*
X34723557Y-29500000D01*
X35575000Y-23985900D02*
X35575000Y-28648557D01*
X25276443Y-29500000D02*
X26800000Y-29500000D01*
X24424400Y-28647957D02*
X25276443Y-29500000D01*
X24424400Y-23973200D02*
X24424400Y-28647957D01*
D19*
X25250000Y-49767998D02*
X25250000Y-49900000D01*
X26640001Y-48959999D02*
X26057999Y-48959999D01*
X26057999Y-48959999D02*
X25250000Y-49767998D01*
X27369991Y-48230009D02*
X26640001Y-48959999D01*
X27369991Y-46422902D02*
X27369991Y-48230009D01*
X27977639Y-45815254D02*
X27369991Y-46422902D01*
X25250000Y-48762500D02*
X25250000Y-49900000D01*
X24562500Y-48075000D02*
X25250000Y-48762500D01*
X27700000Y-40800000D02*
X28331192Y-41431192D01*
X27700000Y-36787500D02*
X27700000Y-40800000D01*
X26598250Y-45073323D02*
X26916979Y-44754594D01*
X24819998Y-43031112D02*
X25450555Y-42400555D01*
X24819998Y-43031112D02*
X24819998Y-44623870D01*
X24819998Y-44623870D02*
X25646128Y-45450000D01*
X26221573Y-45450000D02*
X26916979Y-44754594D01*
X25646128Y-45450000D02*
X26221573Y-45450000D01*
X36102500Y-30862500D02*
X37620000Y-32380000D01*
X35200000Y-30862500D02*
X36102500Y-30862500D01*
X33594972Y-40905028D02*
X33068808Y-41431192D01*
X33594972Y-37751120D02*
X33594972Y-40905028D01*
X36512562Y-37460000D02*
X36160033Y-37107471D01*
X34238619Y-37107471D02*
X33594972Y-37751120D01*
X37620000Y-37460000D02*
X36512562Y-37460000D01*
X36160033Y-37107471D02*
X34238619Y-37107471D01*
X33914980Y-41292127D02*
X33422361Y-41784746D01*
X33914981Y-37883671D02*
X33914980Y-41292127D01*
X34371172Y-37427480D02*
X33914981Y-37883671D01*
X37620000Y-40000000D02*
X37620000Y-39020000D01*
X36027480Y-37427480D02*
X34371172Y-37427480D01*
X37620000Y-39020000D02*
X36027480Y-37427480D01*
X36529999Y-41449999D02*
X37620000Y-42540000D01*
X36529999Y-38382561D02*
X36529999Y-41449999D01*
X34234990Y-38016224D02*
X34503724Y-37747490D01*
X33775914Y-42138299D02*
X34234990Y-41679223D01*
X34234990Y-41679223D02*
X34234990Y-38016224D01*
X34503724Y-37747490D02*
X35894928Y-37747490D01*
X35894928Y-37747490D02*
X36529999Y-38382561D01*
X34129468Y-42491852D02*
X34735854Y-41885466D01*
X34735854Y-41885466D02*
X34735854Y-41614146D01*
X26688680Y-41910000D02*
X27270532Y-42491852D01*
X26150526Y-41910000D02*
X26688680Y-41910000D01*
X26392437Y-43369947D02*
X26563425Y-43198959D01*
X25968156Y-43369947D02*
X26392437Y-43369947D01*
X25309999Y-43234076D02*
X25309999Y-43859999D01*
X26144075Y-42400000D02*
X25309999Y-43234076D01*
X26916979Y-42845406D02*
X26471573Y-42400000D01*
X26471573Y-42400000D02*
X26144075Y-42400000D01*
X34525037Y-51634337D02*
X34229687Y-51929687D01*
X33775914Y-45461701D02*
X34525037Y-46210824D01*
X34525037Y-46210824D02*
X34525037Y-51634337D01*
X33708205Y-51758205D02*
X34205028Y-51261380D01*
X33708205Y-53166671D02*
X33708205Y-51758205D01*
X34205028Y-51261380D02*
X34205028Y-46597921D01*
X22380000Y-55240000D02*
X23470001Y-54149999D01*
X30957449Y-53829989D02*
X33044887Y-53829989D01*
X34205028Y-46597921D02*
X33422361Y-45815254D01*
X23470001Y-54149999D02*
X30637439Y-54149999D01*
X30637439Y-54149999D02*
X30957449Y-53829989D01*
X33044887Y-53829989D02*
X33708205Y-53166671D01*
X30504887Y-53829989D02*
X23509989Y-53829989D01*
X23509989Y-53829989D02*
X22380000Y-52700000D01*
X30824897Y-53509979D02*
X30504887Y-53829989D01*
X33885020Y-46985020D02*
X33885019Y-51128829D01*
X33388195Y-53034119D02*
X32912335Y-53509979D01*
X33068808Y-46168808D02*
X33885020Y-46985020D01*
X32912335Y-53509979D02*
X30824897Y-53509979D01*
X33885019Y-51128829D02*
X33388195Y-51625653D01*
X33388195Y-51625653D02*
X33388195Y-53034119D01*
X30541118Y-39221266D02*
X30098959Y-39663425D01*
X30541118Y-38841118D02*
X30541118Y-39221266D01*
X33540001Y-47347108D02*
X32715254Y-46522361D01*
X30372335Y-53509979D02*
X30692345Y-53189969D01*
X23470001Y-53120001D02*
X23859979Y-53509979D01*
X23470001Y-48710001D02*
X23470001Y-53120001D01*
X33565010Y-50996276D02*
X33565010Y-47372117D01*
X33565010Y-47372117D02*
X33540001Y-47347108D01*
X23859979Y-53509979D02*
X30372335Y-53509979D01*
X22380000Y-47620000D02*
X23470001Y-48710001D01*
X30692345Y-53189969D02*
X32779783Y-53189969D01*
X32779783Y-53189969D02*
X33068185Y-52901567D01*
X33068185Y-52901567D02*
X33068185Y-51493101D01*
X33068185Y-51493101D02*
X33565010Y-50996276D01*
X34129468Y-45122290D02*
X34803589Y-45796411D01*
X34129468Y-45108148D02*
X34129468Y-45122290D01*
X25207999Y-39659999D02*
X23790011Y-41077987D01*
X25820200Y-39659999D02*
X25207999Y-39659999D01*
X26110002Y-39949801D02*
X25820200Y-39659999D01*
X26110002Y-41251244D02*
X26110002Y-39949801D01*
X22380000Y-45080000D02*
X23470001Y-43989999D01*
X23790011Y-41582551D02*
X23790011Y-41077987D01*
X23470001Y-41902561D02*
X23790011Y-41582551D01*
X23470001Y-43989999D02*
X23470001Y-41902561D01*
X32488680Y-47710000D02*
X33050000Y-47710000D01*
X32008148Y-47229468D02*
X32488680Y-47710000D01*
X26600001Y-39987239D02*
X25952752Y-39339990D01*
X26600002Y-40778701D02*
X26600001Y-39987239D01*
X25075446Y-39339990D02*
X23470001Y-40945435D01*
X25952752Y-39339990D02*
X25075446Y-39339990D01*
X23470001Y-41449999D02*
X22380000Y-42540000D01*
X23470001Y-40945435D02*
X23470001Y-41449999D01*
X28684746Y-46522361D02*
X28366017Y-46841090D01*
X28182768Y-47024339D02*
X28684746Y-46522361D01*
X28182768Y-50012814D02*
X28182768Y-47024339D01*
X28502778Y-49509618D02*
X28814335Y-49821175D01*
X28502778Y-47411435D02*
X28502778Y-49509618D01*
X29038299Y-46875914D02*
X28502778Y-47411435D01*
X29391852Y-47229468D02*
X28822788Y-47798532D01*
X28822788Y-49104426D02*
X28822788Y-48702212D01*
X29488133Y-49769771D02*
X28822788Y-49104426D01*
X28822788Y-47798532D02*
X28822788Y-48702212D01*
X29488133Y-50042411D02*
X29488133Y-49769771D01*
X29999970Y-50600000D02*
X29999970Y-49829046D01*
X29999970Y-49829046D02*
X29142798Y-48971874D01*
X29142798Y-48185629D02*
X29745406Y-47583021D01*
X29142798Y-48971874D02*
X29142798Y-48185629D01*
X33274962Y-40517931D02*
X33274962Y-37618568D01*
X33274962Y-37618568D02*
X33771765Y-37121765D01*
X32715254Y-41077639D02*
X33274962Y-40517931D01*
X33771765Y-37121765D02*
X34106067Y-36787461D01*
X33274963Y-37618568D02*
X34106067Y-36787461D01*
X33274962Y-37618568D02*
X33274963Y-37618568D01*
X35165057Y-52172081D02*
X35165057Y-46624685D01*
X34759990Y-53020010D02*
X34759990Y-52577148D01*
X32540000Y-55240000D02*
X34759990Y-53020010D01*
X35613600Y-44163600D02*
X35250000Y-43800000D01*
X35613599Y-46176143D02*
X35613600Y-44163600D01*
X35165057Y-46624685D02*
X35613599Y-46176143D01*
X34759990Y-52577148D02*
X35165057Y-52172081D01*
X34106067Y-36787461D02*
X35986371Y-36787461D01*
X35986371Y-36787461D02*
X36561916Y-36211916D01*
X35485067Y-52304633D02*
X35485067Y-46757237D01*
X35080000Y-52709700D02*
X35080000Y-55240000D01*
X35080000Y-52709700D02*
X35485067Y-52304633D01*
X35942965Y-46299339D02*
X35942965Y-45757035D01*
X35942965Y-43800000D02*
X35942965Y-45757035D01*
X35485067Y-46757237D02*
X35942965Y-46299339D01*
X32954952Y-40130835D02*
X32361701Y-40724086D01*
X32954953Y-37486015D02*
X32954952Y-40130835D01*
X32954953Y-37486015D02*
X33973517Y-36467451D01*
X36071915Y-35976715D02*
X36071915Y-36249355D01*
X36326715Y-35721915D02*
X36071915Y-35976715D01*
X37400000Y-36200000D02*
X37275202Y-36200000D01*
X37275202Y-36200000D02*
X36797117Y-35721915D01*
X35853819Y-36467451D02*
X33973517Y-36467451D01*
X36071915Y-36249355D02*
X35853819Y-36467451D01*
X37221721Y-36146519D02*
X37221721Y-36195808D01*
X36797117Y-35721915D02*
X37221721Y-36146519D01*
X36326715Y-35721915D02*
X36797117Y-35721915D01*
X31090001Y-54149999D02*
X30000000Y-55240000D01*
X34439980Y-52444596D02*
X34439980Y-52887458D01*
X34483021Y-44754594D02*
X34486974Y-44754594D01*
X34845047Y-52039529D02*
X34439980Y-52444596D01*
X34486974Y-44754594D02*
X35293590Y-45561210D01*
X35293590Y-45561210D02*
X35293590Y-46043590D01*
X35293590Y-46043590D02*
X34845047Y-46492133D01*
X33177439Y-54149999D02*
X31090001Y-54149999D01*
X34439980Y-52887458D02*
X33177439Y-54149999D01*
X34845047Y-46492133D02*
X34845047Y-52039529D01*
X26312384Y-44150000D02*
X26331192Y-44168808D01*
X26000000Y-44150000D02*
X25800000Y-44350000D01*
X26000000Y-44150000D02*
X26312384Y-44150000D01*
X26563425Y-44401041D02*
X26331192Y-44168808D01*
X29750000Y-32130000D02*
X30000000Y-32380000D01*
X29750000Y-29500000D02*
X29750000Y-32130000D01*
X30750000Y-31630000D02*
X30000000Y-32380000D01*
X30750000Y-29500000D02*
X30750000Y-31630000D01*
X30000000Y-33350000D02*
X30700000Y-34050000D01*
X30000000Y-32380000D02*
X30000000Y-33350000D01*
X30700000Y-35212500D02*
X30700000Y-34050000D01*
X30250000Y-29500000D02*
X30250000Y-31050000D01*
X29250000Y-29500000D02*
X29250000Y-30900000D01*
X29250000Y-30900000D02*
X29000000Y-31150000D01*
X29200000Y-34120000D02*
X29200000Y-35212500D01*
X27460000Y-32380000D02*
X29200000Y-34120000D01*
X27690001Y-47458689D02*
X27858543Y-47290147D01*
X27858543Y-47290147D02*
X27858543Y-46641457D01*
X27858543Y-46641457D02*
X28331192Y-46168808D01*
X26850000Y-52250000D02*
X27690001Y-51409999D01*
X27690001Y-51409999D02*
X27690001Y-47458689D01*
X26587500Y-52537500D02*
X26300000Y-52250000D01*
X26937500Y-52587500D02*
X26600000Y-52250000D01*
X28300000Y-52587500D02*
X26937500Y-52587500D01*
X28554516Y-40240303D02*
X29038299Y-40724086D01*
X28554516Y-38645484D02*
X28554516Y-40240303D01*
X29200000Y-36787500D02*
X29200000Y-38000000D01*
X29200000Y-38000000D02*
X28554516Y-38645484D01*
X28874526Y-39853206D02*
X28874526Y-38778036D01*
X28874526Y-38778036D02*
X29771454Y-37881108D01*
X29771454Y-37881108D02*
X30518892Y-37881108D01*
X30700000Y-37700000D02*
X30700000Y-36787500D01*
X30518892Y-37881108D02*
X30700000Y-37700000D01*
X29391852Y-40370532D02*
X28874526Y-39853206D01*
X32008148Y-40370532D02*
X32634943Y-39743737D01*
X32634943Y-39743737D02*
X32634943Y-37352557D01*
X32634943Y-37352557D02*
X32635849Y-37352557D01*
X32635849Y-37352557D02*
X33840965Y-36147441D01*
X34490059Y-36147441D02*
X35200000Y-35437500D01*
X33840965Y-36147441D02*
X34490059Y-36147441D01*
D18*
X27977639Y-41784746D02*
X27165003Y-40972110D01*
X27165003Y-40972110D02*
X27165003Y-39993613D01*
X26300000Y-39128610D02*
X26300000Y-38678306D01*
X27165003Y-39993613D02*
X26300000Y-39128610D01*
X31579943Y-37184235D02*
X31579943Y-37700000D01*
X32200000Y-35987500D02*
X32200000Y-36564178D01*
X32200000Y-36564178D02*
X31579943Y-37184235D01*
X25771694Y-38150000D02*
X26300000Y-38678306D01*
X25100000Y-38150000D02*
X25771694Y-38150000D01*
X25821694Y-38200000D02*
X26300000Y-38678306D01*
X25100000Y-38200000D02*
X25821694Y-38200000D01*
X25100000Y-37887500D02*
X26237500Y-36750000D01*
X25100000Y-38200000D02*
X25100000Y-37887500D01*
X26237500Y-35250000D02*
X26237500Y-36750000D01*
X26237500Y-34737500D02*
X25100000Y-33600000D01*
X26237500Y-35250000D02*
X26237500Y-34737500D01*
X31579943Y-37700000D02*
X31003825Y-38276118D01*
X31003825Y-38276118D02*
X29935072Y-38276118D01*
X29935072Y-38276118D02*
X29269536Y-38941654D01*
X29269536Y-39541109D02*
X29745406Y-40016979D01*
X29269536Y-38941654D02*
X29269536Y-39541109D01*
D19*
X30555889Y-48393505D02*
X30098959Y-47936575D01*
X30555889Y-48819111D02*
X30555889Y-48393505D01*
X28250000Y-29500000D02*
X28250000Y-30156907D01*
X28250000Y-30156907D02*
X28670961Y-30577868D01*
X33700000Y-30862500D02*
X33475723Y-30862500D01*
X33475723Y-30862500D02*
X32923168Y-30309945D01*
X31250000Y-29500000D02*
X31250000Y-30447702D01*
X32200000Y-31412500D02*
X31687500Y-31412500D01*
X31250000Y-30975000D02*
X31250000Y-30447702D01*
X31687500Y-31412500D02*
X31250000Y-30975000D01*
D18*
X27600000Y-30150000D02*
X27425000Y-30325000D01*
X27600000Y-29500000D02*
X27600000Y-30150000D01*
X26950000Y-30800000D02*
X27425000Y-30325000D01*
X25100000Y-30800000D02*
X26950000Y-30800000D01*
X32400000Y-29500000D02*
X32400000Y-30075000D01*
X31944344Y-30530656D02*
X31944344Y-30530656D01*
X32400000Y-30075000D02*
X31944344Y-30530656D01*
D19*
G36*
X36653202Y-42025750D02*
G01*
X36571888Y-42222059D01*
X36530000Y-42432644D01*
X36530000Y-42647356D01*
X36571888Y-42857941D01*
X36654055Y-43056309D01*
X36773342Y-43234834D01*
X36925166Y-43386658D01*
X37103691Y-43505945D01*
X37302059Y-43588112D01*
X37512644Y-43630000D01*
X37727356Y-43630000D01*
X37937941Y-43588112D01*
X38136309Y-43505945D01*
X38314834Y-43386658D01*
X38466658Y-43234834D01*
X38575000Y-43072689D01*
X38575000Y-44547311D01*
X38466658Y-44385166D01*
X38314834Y-44233342D01*
X38136309Y-44114055D01*
X37937941Y-44031888D01*
X37727356Y-43990000D01*
X37512644Y-43990000D01*
X37302059Y-44031888D01*
X37103691Y-44114055D01*
X36925166Y-44233342D01*
X36773342Y-44385166D01*
X36654055Y-44563691D01*
X36571888Y-44762059D01*
X36530000Y-44972644D01*
X36530000Y-45187356D01*
X36571888Y-45397941D01*
X36654055Y-45596309D01*
X36773342Y-45774834D01*
X36925166Y-45926658D01*
X37103691Y-46045945D01*
X37302059Y-46128112D01*
X37512644Y-46170000D01*
X37727356Y-46170000D01*
X37937941Y-46128112D01*
X38136309Y-46045945D01*
X38314834Y-45926658D01*
X38466658Y-45774834D01*
X38575000Y-45612689D01*
X38575000Y-47087311D01*
X38466658Y-46925166D01*
X38314834Y-46773342D01*
X38136309Y-46654055D01*
X37937941Y-46571888D01*
X37727356Y-46530000D01*
X37512644Y-46530000D01*
X37302059Y-46571888D01*
X37103691Y-46654055D01*
X36925166Y-46773342D01*
X36773342Y-46925166D01*
X36654055Y-47103691D01*
X36571888Y-47302059D01*
X36530000Y-47512644D01*
X36530000Y-47727356D01*
X36571888Y-47937941D01*
X36654055Y-48136309D01*
X36773342Y-48314834D01*
X36925166Y-48466658D01*
X37103691Y-48585945D01*
X37302059Y-48668112D01*
X37512644Y-48710000D01*
X37727356Y-48710000D01*
X37937941Y-48668112D01*
X38136309Y-48585945D01*
X38314834Y-48466658D01*
X38466658Y-48314834D01*
X38575000Y-48152689D01*
X38575000Y-49627311D01*
X38466658Y-49465166D01*
X38314834Y-49313342D01*
X38136309Y-49194055D01*
X37937941Y-49111888D01*
X37727356Y-49070000D01*
X37512644Y-49070000D01*
X37302059Y-49111888D01*
X37103691Y-49194055D01*
X36925166Y-49313342D01*
X36773342Y-49465166D01*
X36654055Y-49643691D01*
X36571888Y-49842059D01*
X36530000Y-50052644D01*
X36530000Y-50267356D01*
X36571888Y-50477941D01*
X36654055Y-50676309D01*
X36773342Y-50854834D01*
X36925166Y-51006658D01*
X37103691Y-51125945D01*
X37302059Y-51208112D01*
X37512644Y-51250000D01*
X37727356Y-51250000D01*
X37937941Y-51208112D01*
X38136309Y-51125945D01*
X38314834Y-51006658D01*
X38466658Y-50854834D01*
X38575000Y-50692689D01*
X38575000Y-52167311D01*
X38466658Y-52005166D01*
X38314834Y-51853342D01*
X38136309Y-51734055D01*
X37937941Y-51651888D01*
X37727356Y-51610000D01*
X37512644Y-51610000D01*
X37302059Y-51651888D01*
X37103691Y-51734055D01*
X36925166Y-51853342D01*
X36773342Y-52005166D01*
X36654055Y-52183691D01*
X36571888Y-52382059D01*
X36530000Y-52592644D01*
X36530000Y-52807356D01*
X36571888Y-53017941D01*
X36654055Y-53216309D01*
X36773342Y-53394834D01*
X36925166Y-53546658D01*
X37103691Y-53665945D01*
X37302059Y-53748112D01*
X37512644Y-53790000D01*
X37727356Y-53790000D01*
X37937941Y-53748112D01*
X38136309Y-53665945D01*
X38314834Y-53546658D01*
X38466658Y-53394834D01*
X38575000Y-53232689D01*
X38575000Y-54707311D01*
X38466658Y-54545166D01*
X38314834Y-54393342D01*
X38136309Y-54274055D01*
X37937941Y-54191888D01*
X37727356Y-54150000D01*
X37512644Y-54150000D01*
X37302059Y-54191888D01*
X37103691Y-54274055D01*
X36925166Y-54393342D01*
X36773342Y-54545166D01*
X36654055Y-54723691D01*
X36571888Y-54922059D01*
X36530000Y-55132644D01*
X36530000Y-55347356D01*
X36571888Y-55557941D01*
X36654055Y-55756309D01*
X36773342Y-55934834D01*
X36925166Y-56086658D01*
X37087311Y-56195000D01*
X35612689Y-56195000D01*
X35774834Y-56086658D01*
X35926658Y-55934834D01*
X36045945Y-55756309D01*
X36128112Y-55557941D01*
X36170000Y-55347356D01*
X36170000Y-55132644D01*
X36128112Y-54922059D01*
X36045945Y-54723691D01*
X35926658Y-54545166D01*
X35774834Y-54393342D01*
X35596309Y-54274055D01*
X35400000Y-54192741D01*
X35400000Y-52842247D01*
X35700231Y-52542018D01*
X35712436Y-52532002D01*
X35722455Y-52519794D01*
X35752424Y-52483276D01*
X35781500Y-52428879D01*
X35782139Y-52427684D01*
X35800437Y-52367364D01*
X35805067Y-52320351D01*
X35805067Y-52320347D01*
X35806615Y-52304634D01*
X35805067Y-52288921D01*
X35805067Y-46889784D01*
X36158124Y-46536728D01*
X36170334Y-46526708D01*
X36190822Y-46501743D01*
X36210323Y-46477982D01*
X36240037Y-46422391D01*
X36251692Y-46383968D01*
X36258335Y-46362070D01*
X36262965Y-46315057D01*
X36262965Y-46315055D01*
X36264513Y-46299339D01*
X36262965Y-46283623D01*
X36262965Y-44172965D01*
X36323573Y-44112357D01*
X36377197Y-44032102D01*
X36414135Y-43942928D01*
X36432965Y-43848261D01*
X36432965Y-43751739D01*
X36414135Y-43657072D01*
X36377197Y-43567898D01*
X36323573Y-43487643D01*
X36255322Y-43419392D01*
X36175067Y-43365768D01*
X36085893Y-43328830D01*
X35991226Y-43310000D01*
X35894704Y-43310000D01*
X35800037Y-43328830D01*
X35710863Y-43365768D01*
X35630608Y-43419392D01*
X35596483Y-43453518D01*
X35562357Y-43419392D01*
X35482102Y-43365768D01*
X35392928Y-43328830D01*
X35298261Y-43310000D01*
X35284147Y-43310000D01*
X35512042Y-43082105D01*
X35551732Y-43090000D01*
X35648254Y-43090000D01*
X35742921Y-43071170D01*
X35832095Y-43034232D01*
X35912350Y-42980608D01*
X35980601Y-42912357D01*
X36034225Y-42832102D01*
X36071163Y-42742928D01*
X36084939Y-42673667D01*
X36400583Y-42358024D01*
X36415647Y-42345662D01*
X36428009Y-42330599D01*
X36428015Y-42330593D01*
X36465008Y-42285516D01*
X36501687Y-42216896D01*
X36524273Y-42142437D01*
X36526711Y-42117680D01*
X36529989Y-42084405D01*
X36529989Y-42084398D01*
X36531899Y-42065004D01*
X36529989Y-42045610D01*
X36529989Y-41902536D01*
X36653202Y-42025750D01*
G37*
X36653202Y-42025750D02*
X36571888Y-42222059D01*
X36530000Y-42432644D01*
X36530000Y-42647356D01*
X36571888Y-42857941D01*
X36654055Y-43056309D01*
X36773342Y-43234834D01*
X36925166Y-43386658D01*
X37103691Y-43505945D01*
X37302059Y-43588112D01*
X37512644Y-43630000D01*
X37727356Y-43630000D01*
X37937941Y-43588112D01*
X38136309Y-43505945D01*
X38314834Y-43386658D01*
X38466658Y-43234834D01*
X38575000Y-43072689D01*
X38575000Y-44547311D01*
X38466658Y-44385166D01*
X38314834Y-44233342D01*
X38136309Y-44114055D01*
X37937941Y-44031888D01*
X37727356Y-43990000D01*
X37512644Y-43990000D01*
X37302059Y-44031888D01*
X37103691Y-44114055D01*
X36925166Y-44233342D01*
X36773342Y-44385166D01*
X36654055Y-44563691D01*
X36571888Y-44762059D01*
X36530000Y-44972644D01*
X36530000Y-45187356D01*
X36571888Y-45397941D01*
X36654055Y-45596309D01*
X36773342Y-45774834D01*
X36925166Y-45926658D01*
X37103691Y-46045945D01*
X37302059Y-46128112D01*
X37512644Y-46170000D01*
X37727356Y-46170000D01*
X37937941Y-46128112D01*
X38136309Y-46045945D01*
X38314834Y-45926658D01*
X38466658Y-45774834D01*
X38575000Y-45612689D01*
X38575000Y-47087311D01*
X38466658Y-46925166D01*
X38314834Y-46773342D01*
X38136309Y-46654055D01*
X37937941Y-46571888D01*
X37727356Y-46530000D01*
X37512644Y-46530000D01*
X37302059Y-46571888D01*
X37103691Y-46654055D01*
X36925166Y-46773342D01*
X36773342Y-46925166D01*
X36654055Y-47103691D01*
X36571888Y-47302059D01*
X36530000Y-47512644D01*
X36530000Y-47727356D01*
X36571888Y-47937941D01*
X36654055Y-48136309D01*
X36773342Y-48314834D01*
X36925166Y-48466658D01*
X37103691Y-48585945D01*
X37302059Y-48668112D01*
X37512644Y-48710000D01*
X37727356Y-48710000D01*
X37937941Y-48668112D01*
X38136309Y-48585945D01*
X38314834Y-48466658D01*
X38466658Y-48314834D01*
X38575000Y-48152689D01*
X38575000Y-49627311D01*
X38466658Y-49465166D01*
X38314834Y-49313342D01*
X38136309Y-49194055D01*
X37937941Y-49111888D01*
X37727356Y-49070000D01*
X37512644Y-49070000D01*
X37302059Y-49111888D01*
X37103691Y-49194055D01*
X36925166Y-49313342D01*
X36773342Y-49465166D01*
X36654055Y-49643691D01*
X36571888Y-49842059D01*
X36530000Y-50052644D01*
X36530000Y-50267356D01*
X36571888Y-50477941D01*
X36654055Y-50676309D01*
X36773342Y-50854834D01*
X36925166Y-51006658D01*
X37103691Y-51125945D01*
X37302059Y-51208112D01*
X37512644Y-51250000D01*
X37727356Y-51250000D01*
X37937941Y-51208112D01*
X38136309Y-51125945D01*
X38314834Y-51006658D01*
X38466658Y-50854834D01*
X38575000Y-50692689D01*
X38575000Y-52167311D01*
X38466658Y-52005166D01*
X38314834Y-51853342D01*
X38136309Y-51734055D01*
X37937941Y-51651888D01*
X37727356Y-51610000D01*
X37512644Y-51610000D01*
X37302059Y-51651888D01*
X37103691Y-51734055D01*
X36925166Y-51853342D01*
X36773342Y-52005166D01*
X36654055Y-52183691D01*
X36571888Y-52382059D01*
X36530000Y-52592644D01*
X36530000Y-52807356D01*
X36571888Y-53017941D01*
X36654055Y-53216309D01*
X36773342Y-53394834D01*
X36925166Y-53546658D01*
X37103691Y-53665945D01*
X37302059Y-53748112D01*
X37512644Y-53790000D01*
X37727356Y-53790000D01*
X37937941Y-53748112D01*
X38136309Y-53665945D01*
X38314834Y-53546658D01*
X38466658Y-53394834D01*
X38575000Y-53232689D01*
X38575000Y-54707311D01*
X38466658Y-54545166D01*
X38314834Y-54393342D01*
X38136309Y-54274055D01*
X37937941Y-54191888D01*
X37727356Y-54150000D01*
X37512644Y-54150000D01*
X37302059Y-54191888D01*
X37103691Y-54274055D01*
X36925166Y-54393342D01*
X36773342Y-54545166D01*
X36654055Y-54723691D01*
X36571888Y-54922059D01*
X36530000Y-55132644D01*
X36530000Y-55347356D01*
X36571888Y-55557941D01*
X36654055Y-55756309D01*
X36773342Y-55934834D01*
X36925166Y-56086658D01*
X37087311Y-56195000D01*
X35612689Y-56195000D01*
X35774834Y-56086658D01*
X35926658Y-55934834D01*
X36045945Y-55756309D01*
X36128112Y-55557941D01*
X36170000Y-55347356D01*
X36170000Y-55132644D01*
X36128112Y-54922059D01*
X36045945Y-54723691D01*
X35926658Y-54545166D01*
X35774834Y-54393342D01*
X35596309Y-54274055D01*
X35400000Y-54192741D01*
X35400000Y-52842247D01*
X35700231Y-52542018D01*
X35712436Y-52532002D01*
X35722455Y-52519794D01*
X35752424Y-52483276D01*
X35781500Y-52428879D01*
X35782139Y-52427684D01*
X35800437Y-52367364D01*
X35805067Y-52320351D01*
X35805067Y-52320347D01*
X35806615Y-52304634D01*
X35805067Y-52288921D01*
X35805067Y-46889784D01*
X36158124Y-46536728D01*
X36170334Y-46526708D01*
X36190822Y-46501743D01*
X36210323Y-46477982D01*
X36240037Y-46422391D01*
X36251692Y-46383968D01*
X36258335Y-46362070D01*
X36262965Y-46315057D01*
X36262965Y-46315055D01*
X36264513Y-46299339D01*
X36262965Y-46283623D01*
X36262965Y-44172965D01*
X36323573Y-44112357D01*
X36377197Y-44032102D01*
X36414135Y-43942928D01*
X36432965Y-43848261D01*
X36432965Y-43751739D01*
X36414135Y-43657072D01*
X36377197Y-43567898D01*
X36323573Y-43487643D01*
X36255322Y-43419392D01*
X36175067Y-43365768D01*
X36085893Y-43328830D01*
X35991226Y-43310000D01*
X35894704Y-43310000D01*
X35800037Y-43328830D01*
X35710863Y-43365768D01*
X35630608Y-43419392D01*
X35596483Y-43453518D01*
X35562357Y-43419392D01*
X35482102Y-43365768D01*
X35392928Y-43328830D01*
X35298261Y-43310000D01*
X35284147Y-43310000D01*
X35512042Y-43082105D01*
X35551732Y-43090000D01*
X35648254Y-43090000D01*
X35742921Y-43071170D01*
X35832095Y-43034232D01*
X35912350Y-42980608D01*
X35980601Y-42912357D01*
X36034225Y-42832102D01*
X36071163Y-42742928D01*
X36084939Y-42673667D01*
X36400583Y-42358024D01*
X36415647Y-42345662D01*
X36428009Y-42330599D01*
X36428015Y-42330593D01*
X36465008Y-42285516D01*
X36501687Y-42216896D01*
X36524273Y-42142437D01*
X36526711Y-42117680D01*
X36529989Y-42084405D01*
X36529989Y-42084398D01*
X36531899Y-42065004D01*
X36529989Y-42045610D01*
X36529989Y-41902536D01*
X36653202Y-42025750D01*
G36*
X24258839Y-41950000D02*
G01*
X24263473Y-41997048D01*
X24277196Y-42042288D01*
X24299482Y-42083982D01*
X24329473Y-42120527D01*
X24332930Y-42123364D01*
X24159404Y-42296891D01*
X24144330Y-42309262D01*
X24094969Y-42369409D01*
X24058290Y-42438030D01*
X24035704Y-42512488D01*
X24029988Y-42570520D01*
X24029988Y-42570526D01*
X24028078Y-42589920D01*
X24029988Y-42609314D01*
X24029989Y-44768084D01*
X24028078Y-44787488D01*
X24035704Y-44864921D01*
X24046879Y-44901758D01*
X24058291Y-44939379D01*
X24094970Y-45008000D01*
X24144331Y-45068146D01*
X24159399Y-45080512D01*
X24937968Y-45859081D01*
X24702500Y-45860000D01*
X24642500Y-45920000D01*
X24642500Y-46495000D01*
X25180000Y-46495000D01*
X25240000Y-46435000D01*
X25240946Y-46162060D01*
X25458839Y-46379953D01*
X25458839Y-46831250D01*
X25467676Y-46920974D01*
X25493848Y-47007250D01*
X25536348Y-47086763D01*
X25593544Y-47156456D01*
X25663237Y-47213652D01*
X25742750Y-47256152D01*
X25829026Y-47282324D01*
X25918750Y-47291161D01*
X26356250Y-47291161D01*
X26445974Y-47282324D01*
X26532250Y-47256152D01*
X26611763Y-47213652D01*
X26681456Y-47156456D01*
X26738652Y-47086763D01*
X26781152Y-47007250D01*
X26807324Y-46920974D01*
X26816161Y-46831250D01*
X26816161Y-46318750D01*
X26807324Y-46229026D01*
X26784269Y-46153025D01*
X27019925Y-45917369D01*
X27063711Y-45923081D01*
X27518020Y-45468772D01*
X27496807Y-45447559D01*
X27609944Y-45334422D01*
X27631157Y-45355635D01*
X27645300Y-45341493D01*
X27744295Y-45440488D01*
X27730152Y-45454630D01*
X27751366Y-45475844D01*
X27638229Y-45588981D01*
X27617015Y-45567767D01*
X27162706Y-46022076D01*
X27172361Y-46096082D01*
X27222547Y-46117799D01*
X27154838Y-46185508D01*
X27142622Y-46195533D01*
X27130074Y-46210824D01*
X27102634Y-46244260D01*
X27090357Y-46267229D01*
X27072919Y-46299852D01*
X27054621Y-46360172D01*
X27050767Y-46399310D01*
X27048443Y-46422902D01*
X27049991Y-46438615D01*
X27049992Y-48097460D01*
X26815406Y-48332047D01*
X26815000Y-48215000D01*
X26755000Y-48155000D01*
X26217500Y-48155000D01*
X26217500Y-48175000D01*
X26057500Y-48175000D01*
X26057500Y-48155000D01*
X25520000Y-48155000D01*
X25460000Y-48215000D01*
X25458947Y-48518899D01*
X25241161Y-48301113D01*
X25241161Y-47818750D01*
X25232324Y-47729026D01*
X25206152Y-47642750D01*
X25183302Y-47600000D01*
X25458839Y-47600000D01*
X25460000Y-47935000D01*
X25520000Y-47995000D01*
X26057500Y-47995000D01*
X26057500Y-47420000D01*
X26217500Y-47420000D01*
X26217500Y-47995000D01*
X26755000Y-47995000D01*
X26815000Y-47935000D01*
X26816161Y-47600000D01*
X26811527Y-47552952D01*
X26797804Y-47507712D01*
X26775518Y-47466018D01*
X26745527Y-47429473D01*
X26708982Y-47399482D01*
X26667288Y-47377196D01*
X26622048Y-47363473D01*
X26575000Y-47358839D01*
X26277500Y-47360000D01*
X26217500Y-47420000D01*
X26057500Y-47420000D01*
X25997500Y-47360000D01*
X25700000Y-47358839D01*
X25652952Y-47363473D01*
X25607712Y-47377196D01*
X25566018Y-47399482D01*
X25529473Y-47429473D01*
X25499482Y-47466018D01*
X25477196Y-47507712D01*
X25463473Y-47552952D01*
X25458839Y-47600000D01*
X25183302Y-47600000D01*
X25163652Y-47563237D01*
X25106456Y-47493544D01*
X25036763Y-47436348D01*
X24957250Y-47393848D01*
X24870974Y-47367676D01*
X24781250Y-47358839D01*
X24343750Y-47358839D01*
X24254026Y-47367676D01*
X24167750Y-47393848D01*
X24088237Y-47436348D01*
X24018544Y-47493544D01*
X23961348Y-47563237D01*
X23918848Y-47642750D01*
X23892676Y-47729026D01*
X23883839Y-47818750D01*
X23883839Y-48331250D01*
X23892676Y-48420974D01*
X23918848Y-48507250D01*
X23961348Y-48586763D01*
X24018544Y-48656456D01*
X24088237Y-48713652D01*
X24167750Y-48756152D01*
X24254026Y-48782324D01*
X24343750Y-48791161D01*
X24781250Y-48791161D01*
X24822091Y-48787139D01*
X24930000Y-48895048D01*
X24930000Y-48958839D01*
X24650000Y-48958839D01*
X24602952Y-48963473D01*
X24557712Y-48977196D01*
X24516018Y-48999482D01*
X24479473Y-49029473D01*
X24449482Y-49066018D01*
X24427196Y-49107712D01*
X24413473Y-49152952D01*
X24408839Y-49200000D01*
X24408839Y-50600000D01*
X24413473Y-50647048D01*
X24427196Y-50692288D01*
X24449482Y-50733982D01*
X24479473Y-50770527D01*
X24516018Y-50800518D01*
X24557712Y-50822804D01*
X24602952Y-50836527D01*
X24650000Y-50841161D01*
X25850000Y-50841161D01*
X25897048Y-50836527D01*
X25942288Y-50822804D01*
X25983982Y-50800518D01*
X26020527Y-50770527D01*
X26050000Y-50734613D01*
X26079473Y-50770527D01*
X26116018Y-50800518D01*
X26157712Y-50822804D01*
X26202952Y-50836527D01*
X26250000Y-50841161D01*
X26710000Y-50840000D01*
X26770000Y-50780000D01*
X26770000Y-49980000D01*
X26750000Y-49980000D01*
X26750000Y-49820000D01*
X26770000Y-49820000D01*
X26770000Y-49800000D01*
X26930000Y-49800000D01*
X26930000Y-49820000D01*
X26950000Y-49820000D01*
X26950000Y-49980000D01*
X26930000Y-49980000D01*
X26930000Y-50780000D01*
X26990000Y-50840000D01*
X27370001Y-50840959D01*
X27370001Y-51158839D01*
X26250000Y-51158839D01*
X26202952Y-51163473D01*
X26157712Y-51177196D01*
X26116018Y-51199482D01*
X26079473Y-51229473D01*
X26050000Y-51265387D01*
X26020527Y-51229473D01*
X25983982Y-51199482D01*
X25942288Y-51177196D01*
X25897048Y-51163473D01*
X25850000Y-51158839D01*
X25390000Y-51160000D01*
X25330000Y-51220000D01*
X25330000Y-52020000D01*
X25350000Y-52020000D01*
X25350000Y-52180000D01*
X25330000Y-52180000D01*
X25330000Y-52980000D01*
X25390000Y-53040000D01*
X25850000Y-53041161D01*
X25897048Y-53036527D01*
X25942288Y-53022804D01*
X25983982Y-53000518D01*
X26020527Y-52970527D01*
X26050000Y-52934613D01*
X26079473Y-52970527D01*
X26116018Y-53000518D01*
X26157712Y-53022804D01*
X26202952Y-53036527D01*
X26250000Y-53041161D01*
X27450000Y-53041161D01*
X27497048Y-53036527D01*
X27542288Y-53022804D01*
X27583982Y-53000518D01*
X27620527Y-52970527D01*
X27650518Y-52933982D01*
X27664673Y-52907500D01*
X27846172Y-52907500D01*
X27868848Y-52982250D01*
X27911348Y-53061763D01*
X27968544Y-53131456D01*
X28038237Y-53188652D01*
X28040720Y-53189979D01*
X23992527Y-53189979D01*
X23790001Y-52987454D01*
X23790001Y-52800000D01*
X24408839Y-52800000D01*
X24413473Y-52847048D01*
X24427196Y-52892288D01*
X24449482Y-52933982D01*
X24479473Y-52970527D01*
X24516018Y-53000518D01*
X24557712Y-53022804D01*
X24602952Y-53036527D01*
X24650000Y-53041161D01*
X25110000Y-53040000D01*
X25170000Y-52980000D01*
X25170000Y-52180000D01*
X24470000Y-52180000D01*
X24410000Y-52240000D01*
X24408839Y-52800000D01*
X23790001Y-52800000D01*
X23790001Y-51400000D01*
X24408839Y-51400000D01*
X24410000Y-51960000D01*
X24470000Y-52020000D01*
X25170000Y-52020000D01*
X25170000Y-51220000D01*
X25110000Y-51160000D01*
X24650000Y-51158839D01*
X24602952Y-51163473D01*
X24557712Y-51177196D01*
X24516018Y-51199482D01*
X24479473Y-51229473D01*
X24449482Y-51266018D01*
X24427196Y-51307712D01*
X24413473Y-51352952D01*
X24408839Y-51400000D01*
X23790001Y-51400000D01*
X23790001Y-48725713D01*
X23791549Y-48710000D01*
X23789636Y-48690577D01*
X23785371Y-48647270D01*
X23767073Y-48586950D01*
X23748262Y-48551758D01*
X23737358Y-48531358D01*
X23707389Y-48494840D01*
X23707386Y-48494837D01*
X23697370Y-48482632D01*
X23685165Y-48472617D01*
X23346798Y-48134250D01*
X23428112Y-47937941D01*
X23470000Y-47727356D01*
X23470000Y-47512644D01*
X23428112Y-47302059D01*
X23345945Y-47103691D01*
X23310070Y-47050000D01*
X23883839Y-47050000D01*
X23888473Y-47097048D01*
X23902196Y-47142288D01*
X23924482Y-47183982D01*
X23954473Y-47220527D01*
X23991018Y-47250518D01*
X24032712Y-47272804D01*
X24077952Y-47286527D01*
X24125000Y-47291161D01*
X24422500Y-47290000D01*
X24482500Y-47230000D01*
X24482500Y-46655000D01*
X24642500Y-46655000D01*
X24642500Y-47230000D01*
X24702500Y-47290000D01*
X25000000Y-47291161D01*
X25047048Y-47286527D01*
X25092288Y-47272804D01*
X25133982Y-47250518D01*
X25170527Y-47220527D01*
X25200518Y-47183982D01*
X25222804Y-47142288D01*
X25236527Y-47097048D01*
X25241161Y-47050000D01*
X25240000Y-46715000D01*
X25180000Y-46655000D01*
X24642500Y-46655000D01*
X24482500Y-46655000D01*
X23945000Y-46655000D01*
X23885000Y-46715000D01*
X23883839Y-47050000D01*
X23310070Y-47050000D01*
X23226658Y-46925166D01*
X23074834Y-46773342D01*
X22896309Y-46654055D01*
X22697941Y-46571888D01*
X22487356Y-46530000D01*
X22272644Y-46530000D01*
X22062059Y-46571888D01*
X21863691Y-46654055D01*
X21685166Y-46773342D01*
X21533342Y-46925166D01*
X21425000Y-47087311D01*
X21425000Y-45612689D01*
X21533342Y-45774834D01*
X21685166Y-45926658D01*
X21863691Y-46045945D01*
X22062059Y-46128112D01*
X22272644Y-46170000D01*
X22487356Y-46170000D01*
X22697941Y-46128112D01*
X22765809Y-46100000D01*
X23883839Y-46100000D01*
X23885000Y-46435000D01*
X23945000Y-46495000D01*
X24482500Y-46495000D01*
X24482500Y-45920000D01*
X24422500Y-45860000D01*
X24125000Y-45858839D01*
X24077952Y-45863473D01*
X24032712Y-45877196D01*
X23991018Y-45899482D01*
X23954473Y-45929473D01*
X23924482Y-45966018D01*
X23902196Y-46007712D01*
X23888473Y-46052952D01*
X23883839Y-46100000D01*
X22765809Y-46100000D01*
X22896309Y-46045945D01*
X23074834Y-45926658D01*
X23226658Y-45774834D01*
X23345945Y-45596309D01*
X23428112Y-45397941D01*
X23470000Y-45187356D01*
X23470000Y-44972644D01*
X23428112Y-44762059D01*
X23346798Y-44565750D01*
X23685165Y-44227383D01*
X23697370Y-44217368D01*
X23716018Y-44194645D01*
X23737358Y-44168642D01*
X23764321Y-44118198D01*
X23767073Y-44113050D01*
X23785371Y-44052730D01*
X23790001Y-44005717D01*
X23790001Y-44005713D01*
X23791549Y-43990000D01*
X23790001Y-43974287D01*
X23790001Y-42035109D01*
X24005175Y-41819936D01*
X24017380Y-41809920D01*
X24027399Y-41797712D01*
X24057368Y-41761195D01*
X24086169Y-41707312D01*
X24087083Y-41705602D01*
X24105381Y-41645282D01*
X24110011Y-41598269D01*
X24110011Y-41598258D01*
X24111558Y-41582552D01*
X24110011Y-41566846D01*
X24110011Y-41210534D01*
X24258839Y-41061706D01*
X24258839Y-41950000D01*
G37*
X24258839Y-41950000D02*
X24263473Y-41997048D01*
X24277196Y-42042288D01*
X24299482Y-42083982D01*
X24329473Y-42120527D01*
X24332930Y-42123364D01*
X24159404Y-42296891D01*
X24144330Y-42309262D01*
X24094969Y-42369409D01*
X24058290Y-42438030D01*
X24035704Y-42512488D01*
X24029988Y-42570520D01*
X24029988Y-42570526D01*
X24028078Y-42589920D01*
X24029988Y-42609314D01*
X24029989Y-44768084D01*
X24028078Y-44787488D01*
X24035704Y-44864921D01*
X24046879Y-44901758D01*
X24058291Y-44939379D01*
X24094970Y-45008000D01*
X24144331Y-45068146D01*
X24159399Y-45080512D01*
X24937968Y-45859081D01*
X24702500Y-45860000D01*
X24642500Y-45920000D01*
X24642500Y-46495000D01*
X25180000Y-46495000D01*
X25240000Y-46435000D01*
X25240946Y-46162060D01*
X25458839Y-46379953D01*
X25458839Y-46831250D01*
X25467676Y-46920974D01*
X25493848Y-47007250D01*
X25536348Y-47086763D01*
X25593544Y-47156456D01*
X25663237Y-47213652D01*
X25742750Y-47256152D01*
X25829026Y-47282324D01*
X25918750Y-47291161D01*
X26356250Y-47291161D01*
X26445974Y-47282324D01*
X26532250Y-47256152D01*
X26611763Y-47213652D01*
X26681456Y-47156456D01*
X26738652Y-47086763D01*
X26781152Y-47007250D01*
X26807324Y-46920974D01*
X26816161Y-46831250D01*
X26816161Y-46318750D01*
X26807324Y-46229026D01*
X26784269Y-46153025D01*
X27019925Y-45917369D01*
X27063711Y-45923081D01*
X27518020Y-45468772D01*
X27496807Y-45447559D01*
X27609944Y-45334422D01*
X27631157Y-45355635D01*
X27645300Y-45341493D01*
X27744295Y-45440488D01*
X27730152Y-45454630D01*
X27751366Y-45475844D01*
X27638229Y-45588981D01*
X27617015Y-45567767D01*
X27162706Y-46022076D01*
X27172361Y-46096082D01*
X27222547Y-46117799D01*
X27154838Y-46185508D01*
X27142622Y-46195533D01*
X27130074Y-46210824D01*
X27102634Y-46244260D01*
X27090357Y-46267229D01*
X27072919Y-46299852D01*
X27054621Y-46360172D01*
X27050767Y-46399310D01*
X27048443Y-46422902D01*
X27049991Y-46438615D01*
X27049992Y-48097460D01*
X26815406Y-48332047D01*
X26815000Y-48215000D01*
X26755000Y-48155000D01*
X26217500Y-48155000D01*
X26217500Y-48175000D01*
X26057500Y-48175000D01*
X26057500Y-48155000D01*
X25520000Y-48155000D01*
X25460000Y-48215000D01*
X25458947Y-48518899D01*
X25241161Y-48301113D01*
X25241161Y-47818750D01*
X25232324Y-47729026D01*
X25206152Y-47642750D01*
X25183302Y-47600000D01*
X25458839Y-47600000D01*
X25460000Y-47935000D01*
X25520000Y-47995000D01*
X26057500Y-47995000D01*
X26057500Y-47420000D01*
X26217500Y-47420000D01*
X26217500Y-47995000D01*
X26755000Y-47995000D01*
X26815000Y-47935000D01*
X26816161Y-47600000D01*
X26811527Y-47552952D01*
X26797804Y-47507712D01*
X26775518Y-47466018D01*
X26745527Y-47429473D01*
X26708982Y-47399482D01*
X26667288Y-47377196D01*
X26622048Y-47363473D01*
X26575000Y-47358839D01*
X26277500Y-47360000D01*
X26217500Y-47420000D01*
X26057500Y-47420000D01*
X25997500Y-47360000D01*
X25700000Y-47358839D01*
X25652952Y-47363473D01*
X25607712Y-47377196D01*
X25566018Y-47399482D01*
X25529473Y-47429473D01*
X25499482Y-47466018D01*
X25477196Y-47507712D01*
X25463473Y-47552952D01*
X25458839Y-47600000D01*
X25183302Y-47600000D01*
X25163652Y-47563237D01*
X25106456Y-47493544D01*
X25036763Y-47436348D01*
X24957250Y-47393848D01*
X24870974Y-47367676D01*
X24781250Y-47358839D01*
X24343750Y-47358839D01*
X24254026Y-47367676D01*
X24167750Y-47393848D01*
X24088237Y-47436348D01*
X24018544Y-47493544D01*
X23961348Y-47563237D01*
X23918848Y-47642750D01*
X23892676Y-47729026D01*
X23883839Y-47818750D01*
X23883839Y-48331250D01*
X23892676Y-48420974D01*
X23918848Y-48507250D01*
X23961348Y-48586763D01*
X24018544Y-48656456D01*
X24088237Y-48713652D01*
X24167750Y-48756152D01*
X24254026Y-48782324D01*
X24343750Y-48791161D01*
X24781250Y-48791161D01*
X24822091Y-48787139D01*
X24930000Y-48895048D01*
X24930000Y-48958839D01*
X24650000Y-48958839D01*
X24602952Y-48963473D01*
X24557712Y-48977196D01*
X24516018Y-48999482D01*
X24479473Y-49029473D01*
X24449482Y-49066018D01*
X24427196Y-49107712D01*
X24413473Y-49152952D01*
X24408839Y-49200000D01*
X24408839Y-50600000D01*
X24413473Y-50647048D01*
X24427196Y-50692288D01*
X24449482Y-50733982D01*
X24479473Y-50770527D01*
X24516018Y-50800518D01*
X24557712Y-50822804D01*
X24602952Y-50836527D01*
X24650000Y-50841161D01*
X25850000Y-50841161D01*
X25897048Y-50836527D01*
X25942288Y-50822804D01*
X25983982Y-50800518D01*
X26020527Y-50770527D01*
X26050000Y-50734613D01*
X26079473Y-50770527D01*
X26116018Y-50800518D01*
X26157712Y-50822804D01*
X26202952Y-50836527D01*
X26250000Y-50841161D01*
X26710000Y-50840000D01*
X26770000Y-50780000D01*
X26770000Y-49980000D01*
X26750000Y-49980000D01*
X26750000Y-49820000D01*
X26770000Y-49820000D01*
X26770000Y-49800000D01*
X26930000Y-49800000D01*
X26930000Y-49820000D01*
X26950000Y-49820000D01*
X26950000Y-49980000D01*
X26930000Y-49980000D01*
X26930000Y-50780000D01*
X26990000Y-50840000D01*
X27370001Y-50840959D01*
X27370001Y-51158839D01*
X26250000Y-51158839D01*
X26202952Y-51163473D01*
X26157712Y-51177196D01*
X26116018Y-51199482D01*
X26079473Y-51229473D01*
X26050000Y-51265387D01*
X26020527Y-51229473D01*
X25983982Y-51199482D01*
X25942288Y-51177196D01*
X25897048Y-51163473D01*
X25850000Y-51158839D01*
X25390000Y-51160000D01*
X25330000Y-51220000D01*
X25330000Y-52020000D01*
X25350000Y-52020000D01*
X25350000Y-52180000D01*
X25330000Y-52180000D01*
X25330000Y-52980000D01*
X25390000Y-53040000D01*
X25850000Y-53041161D01*
X25897048Y-53036527D01*
X25942288Y-53022804D01*
X25983982Y-53000518D01*
X26020527Y-52970527D01*
X26050000Y-52934613D01*
X26079473Y-52970527D01*
X26116018Y-53000518D01*
X26157712Y-53022804D01*
X26202952Y-53036527D01*
X26250000Y-53041161D01*
X27450000Y-53041161D01*
X27497048Y-53036527D01*
X27542288Y-53022804D01*
X27583982Y-53000518D01*
X27620527Y-52970527D01*
X27650518Y-52933982D01*
X27664673Y-52907500D01*
X27846172Y-52907500D01*
X27868848Y-52982250D01*
X27911348Y-53061763D01*
X27968544Y-53131456D01*
X28038237Y-53188652D01*
X28040720Y-53189979D01*
X23992527Y-53189979D01*
X23790001Y-52987454D01*
X23790001Y-52800000D01*
X24408839Y-52800000D01*
X24413473Y-52847048D01*
X24427196Y-52892288D01*
X24449482Y-52933982D01*
X24479473Y-52970527D01*
X24516018Y-53000518D01*
X24557712Y-53022804D01*
X24602952Y-53036527D01*
X24650000Y-53041161D01*
X25110000Y-53040000D01*
X25170000Y-52980000D01*
X25170000Y-52180000D01*
X24470000Y-52180000D01*
X24410000Y-52240000D01*
X24408839Y-52800000D01*
X23790001Y-52800000D01*
X23790001Y-51400000D01*
X24408839Y-51400000D01*
X24410000Y-51960000D01*
X24470000Y-52020000D01*
X25170000Y-52020000D01*
X25170000Y-51220000D01*
X25110000Y-51160000D01*
X24650000Y-51158839D01*
X24602952Y-51163473D01*
X24557712Y-51177196D01*
X24516018Y-51199482D01*
X24479473Y-51229473D01*
X24449482Y-51266018D01*
X24427196Y-51307712D01*
X24413473Y-51352952D01*
X24408839Y-51400000D01*
X23790001Y-51400000D01*
X23790001Y-48725713D01*
X23791549Y-48710000D01*
X23789636Y-48690577D01*
X23785371Y-48647270D01*
X23767073Y-48586950D01*
X23748262Y-48551758D01*
X23737358Y-48531358D01*
X23707389Y-48494840D01*
X23707386Y-48494837D01*
X23697370Y-48482632D01*
X23685165Y-48472617D01*
X23346798Y-48134250D01*
X23428112Y-47937941D01*
X23470000Y-47727356D01*
X23470000Y-47512644D01*
X23428112Y-47302059D01*
X23345945Y-47103691D01*
X23310070Y-47050000D01*
X23883839Y-47050000D01*
X23888473Y-47097048D01*
X23902196Y-47142288D01*
X23924482Y-47183982D01*
X23954473Y-47220527D01*
X23991018Y-47250518D01*
X24032712Y-47272804D01*
X24077952Y-47286527D01*
X24125000Y-47291161D01*
X24422500Y-47290000D01*
X24482500Y-47230000D01*
X24482500Y-46655000D01*
X24642500Y-46655000D01*
X24642500Y-47230000D01*
X24702500Y-47290000D01*
X25000000Y-47291161D01*
X25047048Y-47286527D01*
X25092288Y-47272804D01*
X25133982Y-47250518D01*
X25170527Y-47220527D01*
X25200518Y-47183982D01*
X25222804Y-47142288D01*
X25236527Y-47097048D01*
X25241161Y-47050000D01*
X25240000Y-46715000D01*
X25180000Y-46655000D01*
X24642500Y-46655000D01*
X24482500Y-46655000D01*
X23945000Y-46655000D01*
X23885000Y-46715000D01*
X23883839Y-47050000D01*
X23310070Y-47050000D01*
X23226658Y-46925166D01*
X23074834Y-46773342D01*
X22896309Y-46654055D01*
X22697941Y-46571888D01*
X22487356Y-46530000D01*
X22272644Y-46530000D01*
X22062059Y-46571888D01*
X21863691Y-46654055D01*
X21685166Y-46773342D01*
X21533342Y-46925166D01*
X21425000Y-47087311D01*
X21425000Y-45612689D01*
X21533342Y-45774834D01*
X21685166Y-45926658D01*
X21863691Y-46045945D01*
X22062059Y-46128112D01*
X22272644Y-46170000D01*
X22487356Y-46170000D01*
X22697941Y-46128112D01*
X22765809Y-46100000D01*
X23883839Y-46100000D01*
X23885000Y-46435000D01*
X23945000Y-46495000D01*
X24482500Y-46495000D01*
X24482500Y-45920000D01*
X24422500Y-45860000D01*
X24125000Y-45858839D01*
X24077952Y-45863473D01*
X24032712Y-45877196D01*
X23991018Y-45899482D01*
X23954473Y-45929473D01*
X23924482Y-45966018D01*
X23902196Y-46007712D01*
X23888473Y-46052952D01*
X23883839Y-46100000D01*
X22765809Y-46100000D01*
X22896309Y-46045945D01*
X23074834Y-45926658D01*
X23226658Y-45774834D01*
X23345945Y-45596309D01*
X23428112Y-45397941D01*
X23470000Y-45187356D01*
X23470000Y-44972644D01*
X23428112Y-44762059D01*
X23346798Y-44565750D01*
X23685165Y-44227383D01*
X23697370Y-44217368D01*
X23716018Y-44194645D01*
X23737358Y-44168642D01*
X23764321Y-44118198D01*
X23767073Y-44113050D01*
X23785371Y-44052730D01*
X23790001Y-44005717D01*
X23790001Y-44005713D01*
X23791549Y-43990000D01*
X23790001Y-43974287D01*
X23790001Y-42035109D01*
X24005175Y-41819936D01*
X24017380Y-41809920D01*
X24027399Y-41797712D01*
X24057368Y-41761195D01*
X24086169Y-41707312D01*
X24087083Y-41705602D01*
X24105381Y-41645282D01*
X24110011Y-41598269D01*
X24110011Y-41598258D01*
X24111558Y-41582552D01*
X24110011Y-41566846D01*
X24110011Y-41210534D01*
X24258839Y-41061706D01*
X24258839Y-41950000D01*
G36*
X31428321Y-47922433D02*
G01*
X31407107Y-47943646D01*
X31421250Y-47957789D01*
X31322255Y-48056784D01*
X31308112Y-48042641D01*
X31081838Y-48268915D01*
X31364681Y-48551758D01*
X31433729Y-48588136D01*
X31508548Y-48610345D01*
X31530001Y-48612329D01*
X31530000Y-49257548D01*
X31492750Y-49268848D01*
X31413237Y-49311348D01*
X31343544Y-49368544D01*
X31286348Y-49438237D01*
X31243848Y-49517750D01*
X31217676Y-49604026D01*
X31208839Y-49693750D01*
X31208839Y-50131250D01*
X31217676Y-50220974D01*
X31243848Y-50307250D01*
X31286348Y-50386763D01*
X31343544Y-50456456D01*
X31413237Y-50513652D01*
X31492750Y-50556152D01*
X31579026Y-50582324D01*
X31668750Y-50591161D01*
X32181250Y-50591161D01*
X32270974Y-50582324D01*
X32357250Y-50556152D01*
X32436763Y-50513652D01*
X32506456Y-50456456D01*
X32563652Y-50386763D01*
X32606152Y-50307250D01*
X32632324Y-50220974D01*
X32641161Y-50131250D01*
X32641161Y-49693750D01*
X32632324Y-49604026D01*
X32606152Y-49517750D01*
X32563652Y-49438237D01*
X32506456Y-49368544D01*
X32436763Y-49311348D01*
X32357250Y-49268848D01*
X32320000Y-49257548D01*
X32320000Y-48745897D01*
X32335541Y-48750611D01*
X32364143Y-48759287D01*
X32422175Y-48765003D01*
X32422182Y-48765003D01*
X32441576Y-48766913D01*
X32460970Y-48765003D01*
X32759182Y-48765003D01*
X32817898Y-48804235D01*
X32907072Y-48841173D01*
X33001739Y-48860003D01*
X33098261Y-48860003D01*
X33192928Y-48841173D01*
X33245011Y-48819599D01*
X33245010Y-50863728D01*
X32853028Y-51255711D01*
X32840817Y-51265732D01*
X32830797Y-51277942D01*
X32800828Y-51314459D01*
X32780253Y-51352952D01*
X32771114Y-51370050D01*
X32752816Y-51430370D01*
X32750883Y-51450000D01*
X32746637Y-51493101D01*
X32748186Y-51508824D01*
X32748185Y-52769019D01*
X32647236Y-52869969D01*
X30708050Y-52869969D01*
X30692344Y-52868422D01*
X30676638Y-52869969D01*
X30676627Y-52869969D01*
X30629614Y-52874599D01*
X30569294Y-52892897D01*
X30557289Y-52899314D01*
X30513701Y-52922612D01*
X30477184Y-52952581D01*
X30477181Y-52952584D01*
X30464976Y-52962600D01*
X30454959Y-52974806D01*
X30239787Y-53189979D01*
X29059280Y-53189979D01*
X29061763Y-53188652D01*
X29131456Y-53131456D01*
X29188652Y-53061763D01*
X29231152Y-52982250D01*
X29257324Y-52895974D01*
X29266161Y-52806250D01*
X29266161Y-52368750D01*
X29257324Y-52279026D01*
X29231152Y-52192750D01*
X29188652Y-52113237D01*
X29131456Y-52043544D01*
X29061763Y-51986348D01*
X28982250Y-51943848D01*
X28920118Y-51925000D01*
X31208839Y-51925000D01*
X31213473Y-51972048D01*
X31227196Y-52017288D01*
X31249482Y-52058982D01*
X31279473Y-52095527D01*
X31316018Y-52125518D01*
X31357712Y-52147804D01*
X31402952Y-52161527D01*
X31450000Y-52166161D01*
X31785000Y-52165000D01*
X31845000Y-52105000D01*
X31845000Y-51567500D01*
X32005000Y-51567500D01*
X32005000Y-52105000D01*
X32065000Y-52165000D01*
X32400000Y-52166161D01*
X32447048Y-52161527D01*
X32492288Y-52147804D01*
X32533982Y-52125518D01*
X32570527Y-52095527D01*
X32600518Y-52058982D01*
X32622804Y-52017288D01*
X32636527Y-51972048D01*
X32641161Y-51925000D01*
X32640000Y-51627500D01*
X32580000Y-51567500D01*
X32005000Y-51567500D01*
X31845000Y-51567500D01*
X31270000Y-51567500D01*
X31210000Y-51627500D01*
X31208839Y-51925000D01*
X28920118Y-51925000D01*
X28895974Y-51917676D01*
X28806250Y-51908839D01*
X28293750Y-51908839D01*
X28204026Y-51917676D01*
X28117750Y-51943848D01*
X28038237Y-51986348D01*
X27968544Y-52043544D01*
X27911348Y-52113237D01*
X27868848Y-52192750D01*
X27846172Y-52267500D01*
X27691161Y-52267500D01*
X27691161Y-51861387D01*
X27905160Y-51647388D01*
X27917370Y-51637368D01*
X27920438Y-51633629D01*
X27941018Y-51650518D01*
X27982712Y-51672804D01*
X28027952Y-51686527D01*
X28075000Y-51691161D01*
X28410000Y-51690000D01*
X28470000Y-51630000D01*
X28470000Y-51092500D01*
X28630000Y-51092500D01*
X28630000Y-51630000D01*
X28690000Y-51690000D01*
X29025000Y-51691161D01*
X29072048Y-51686527D01*
X29117288Y-51672804D01*
X29158982Y-51650518D01*
X29195527Y-51620527D01*
X29225518Y-51583982D01*
X29247804Y-51542288D01*
X29261527Y-51497048D01*
X29266161Y-51450000D01*
X29265000Y-51152500D01*
X29205000Y-51092500D01*
X28630000Y-51092500D01*
X28470000Y-51092500D01*
X28450000Y-51092500D01*
X28450000Y-50932500D01*
X28470000Y-50932500D01*
X28470000Y-50912500D01*
X28630000Y-50912500D01*
X28630000Y-50932500D01*
X29205000Y-50932500D01*
X29265000Y-50872500D01*
X29266161Y-50575000D01*
X29261527Y-50527952D01*
X29247804Y-50482712D01*
X29238187Y-50464720D01*
X29256031Y-50476643D01*
X29345205Y-50513581D01*
X29439872Y-50532411D01*
X29513814Y-50532411D01*
X29509970Y-50551739D01*
X29509970Y-50648261D01*
X29528800Y-50742928D01*
X29565738Y-50832102D01*
X29619362Y-50912357D01*
X29687613Y-50980608D01*
X29767868Y-51034232D01*
X29857042Y-51071170D01*
X29951709Y-51090000D01*
X30048231Y-51090000D01*
X30142898Y-51071170D01*
X30194005Y-51050000D01*
X31208839Y-51050000D01*
X31210000Y-51347500D01*
X31270000Y-51407500D01*
X31845000Y-51407500D01*
X31845000Y-50870000D01*
X32005000Y-50870000D01*
X32005000Y-51407500D01*
X32580000Y-51407500D01*
X32640000Y-51347500D01*
X32641161Y-51050000D01*
X32636527Y-51002952D01*
X32622804Y-50957712D01*
X32600518Y-50916018D01*
X32570527Y-50879473D01*
X32533982Y-50849482D01*
X32492288Y-50827196D01*
X32447048Y-50813473D01*
X32400000Y-50808839D01*
X32065000Y-50810000D01*
X32005000Y-50870000D01*
X31845000Y-50870000D01*
X31785000Y-50810000D01*
X31450000Y-50808839D01*
X31402952Y-50813473D01*
X31357712Y-50827196D01*
X31316018Y-50849482D01*
X31279473Y-50879473D01*
X31249482Y-50916018D01*
X31227196Y-50957712D01*
X31213473Y-51002952D01*
X31208839Y-51050000D01*
X30194005Y-51050000D01*
X30232072Y-51034232D01*
X30312327Y-50980608D01*
X30380578Y-50912357D01*
X30434202Y-50832102D01*
X30471140Y-50742928D01*
X30489970Y-50648261D01*
X30489970Y-50551739D01*
X30471140Y-50457072D01*
X30434202Y-50367898D01*
X30380578Y-50287643D01*
X30319970Y-50227035D01*
X30319970Y-49844758D01*
X30321518Y-49829045D01*
X30319970Y-49813328D01*
X30315340Y-49766315D01*
X30297042Y-49705995D01*
X30273420Y-49661803D01*
X30267327Y-49650403D01*
X30237358Y-49613885D01*
X30237355Y-49613882D01*
X30227339Y-49601677D01*
X30215133Y-49591660D01*
X29462798Y-48839327D01*
X29462798Y-48385734D01*
X29490275Y-48437139D01*
X29539011Y-48496523D01*
X29598395Y-48545259D01*
X29666148Y-48581474D01*
X29739663Y-48603775D01*
X29816116Y-48611305D01*
X29892569Y-48603775D01*
X29966084Y-48581474D01*
X30033837Y-48545259D01*
X30078340Y-48508737D01*
X30148457Y-48438620D01*
X30195936Y-48486099D01*
X30175281Y-48506754D01*
X30121657Y-48587009D01*
X30084719Y-48676183D01*
X30065889Y-48770850D01*
X30065889Y-48867372D01*
X30084719Y-48962039D01*
X30121657Y-49051213D01*
X30175281Y-49131468D01*
X30243532Y-49199719D01*
X30323787Y-49253343D01*
X30412961Y-49290281D01*
X30507628Y-49309111D01*
X30604150Y-49309111D01*
X30698817Y-49290281D01*
X30787991Y-49253343D01*
X30868246Y-49199719D01*
X30936497Y-49131468D01*
X30990121Y-49051213D01*
X31027059Y-48962039D01*
X31045889Y-48867372D01*
X31045889Y-48770850D01*
X31027059Y-48676183D01*
X30990121Y-48587009D01*
X30936497Y-48506754D01*
X30875889Y-48446146D01*
X30875889Y-48409221D01*
X30877437Y-48393505D01*
X30875122Y-48370003D01*
X30871259Y-48330774D01*
X30855004Y-48277188D01*
X30852961Y-48270453D01*
X30823247Y-48214862D01*
X30793277Y-48178345D01*
X30783258Y-48166136D01*
X30771047Y-48156115D01*
X30601005Y-47986073D01*
X30671121Y-47915957D01*
X30697156Y-47884233D01*
X30968701Y-48155778D01*
X31194975Y-47929504D01*
X31180833Y-47915362D01*
X31279828Y-47816367D01*
X31293970Y-47830509D01*
X31315184Y-47809296D01*
X31428321Y-47922433D01*
G37*
X31428321Y-47922433D02*
X31407107Y-47943646D01*
X31421250Y-47957789D01*
X31322255Y-48056784D01*
X31308112Y-48042641D01*
X31081838Y-48268915D01*
X31364681Y-48551758D01*
X31433729Y-48588136D01*
X31508548Y-48610345D01*
X31530001Y-48612329D01*
X31530000Y-49257548D01*
X31492750Y-49268848D01*
X31413237Y-49311348D01*
X31343544Y-49368544D01*
X31286348Y-49438237D01*
X31243848Y-49517750D01*
X31217676Y-49604026D01*
X31208839Y-49693750D01*
X31208839Y-50131250D01*
X31217676Y-50220974D01*
X31243848Y-50307250D01*
X31286348Y-50386763D01*
X31343544Y-50456456D01*
X31413237Y-50513652D01*
X31492750Y-50556152D01*
X31579026Y-50582324D01*
X31668750Y-50591161D01*
X32181250Y-50591161D01*
X32270974Y-50582324D01*
X32357250Y-50556152D01*
X32436763Y-50513652D01*
X32506456Y-50456456D01*
X32563652Y-50386763D01*
X32606152Y-50307250D01*
X32632324Y-50220974D01*
X32641161Y-50131250D01*
X32641161Y-49693750D01*
X32632324Y-49604026D01*
X32606152Y-49517750D01*
X32563652Y-49438237D01*
X32506456Y-49368544D01*
X32436763Y-49311348D01*
X32357250Y-49268848D01*
X32320000Y-49257548D01*
X32320000Y-48745897D01*
X32335541Y-48750611D01*
X32364143Y-48759287D01*
X32422175Y-48765003D01*
X32422182Y-48765003D01*
X32441576Y-48766913D01*
X32460970Y-48765003D01*
X32759182Y-48765003D01*
X32817898Y-48804235D01*
X32907072Y-48841173D01*
X33001739Y-48860003D01*
X33098261Y-48860003D01*
X33192928Y-48841173D01*
X33245011Y-48819599D01*
X33245010Y-50863728D01*
X32853028Y-51255711D01*
X32840817Y-51265732D01*
X32830797Y-51277942D01*
X32800828Y-51314459D01*
X32780253Y-51352952D01*
X32771114Y-51370050D01*
X32752816Y-51430370D01*
X32750883Y-51450000D01*
X32746637Y-51493101D01*
X32748186Y-51508824D01*
X32748185Y-52769019D01*
X32647236Y-52869969D01*
X30708050Y-52869969D01*
X30692344Y-52868422D01*
X30676638Y-52869969D01*
X30676627Y-52869969D01*
X30629614Y-52874599D01*
X30569294Y-52892897D01*
X30557289Y-52899314D01*
X30513701Y-52922612D01*
X30477184Y-52952581D01*
X30477181Y-52952584D01*
X30464976Y-52962600D01*
X30454959Y-52974806D01*
X30239787Y-53189979D01*
X29059280Y-53189979D01*
X29061763Y-53188652D01*
X29131456Y-53131456D01*
X29188652Y-53061763D01*
X29231152Y-52982250D01*
X29257324Y-52895974D01*
X29266161Y-52806250D01*
X29266161Y-52368750D01*
X29257324Y-52279026D01*
X29231152Y-52192750D01*
X29188652Y-52113237D01*
X29131456Y-52043544D01*
X29061763Y-51986348D01*
X28982250Y-51943848D01*
X28920118Y-51925000D01*
X31208839Y-51925000D01*
X31213473Y-51972048D01*
X31227196Y-52017288D01*
X31249482Y-52058982D01*
X31279473Y-52095527D01*
X31316018Y-52125518D01*
X31357712Y-52147804D01*
X31402952Y-52161527D01*
X31450000Y-52166161D01*
X31785000Y-52165000D01*
X31845000Y-52105000D01*
X31845000Y-51567500D01*
X32005000Y-51567500D01*
X32005000Y-52105000D01*
X32065000Y-52165000D01*
X32400000Y-52166161D01*
X32447048Y-52161527D01*
X32492288Y-52147804D01*
X32533982Y-52125518D01*
X32570527Y-52095527D01*
X32600518Y-52058982D01*
X32622804Y-52017288D01*
X32636527Y-51972048D01*
X32641161Y-51925000D01*
X32640000Y-51627500D01*
X32580000Y-51567500D01*
X32005000Y-51567500D01*
X31845000Y-51567500D01*
X31270000Y-51567500D01*
X31210000Y-51627500D01*
X31208839Y-51925000D01*
X28920118Y-51925000D01*
X28895974Y-51917676D01*
X28806250Y-51908839D01*
X28293750Y-51908839D01*
X28204026Y-51917676D01*
X28117750Y-51943848D01*
X28038237Y-51986348D01*
X27968544Y-52043544D01*
X27911348Y-52113237D01*
X27868848Y-52192750D01*
X27846172Y-52267500D01*
X27691161Y-52267500D01*
X27691161Y-51861387D01*
X27905160Y-51647388D01*
X27917370Y-51637368D01*
X27920438Y-51633629D01*
X27941018Y-51650518D01*
X27982712Y-51672804D01*
X28027952Y-51686527D01*
X28075000Y-51691161D01*
X28410000Y-51690000D01*
X28470000Y-51630000D01*
X28470000Y-51092500D01*
X28630000Y-51092500D01*
X28630000Y-51630000D01*
X28690000Y-51690000D01*
X29025000Y-51691161D01*
X29072048Y-51686527D01*
X29117288Y-51672804D01*
X29158982Y-51650518D01*
X29195527Y-51620527D01*
X29225518Y-51583982D01*
X29247804Y-51542288D01*
X29261527Y-51497048D01*
X29266161Y-51450000D01*
X29265000Y-51152500D01*
X29205000Y-51092500D01*
X28630000Y-51092500D01*
X28470000Y-51092500D01*
X28450000Y-51092500D01*
X28450000Y-50932500D01*
X28470000Y-50932500D01*
X28470000Y-50912500D01*
X28630000Y-50912500D01*
X28630000Y-50932500D01*
X29205000Y-50932500D01*
X29265000Y-50872500D01*
X29266161Y-50575000D01*
X29261527Y-50527952D01*
X29247804Y-50482712D01*
X29238187Y-50464720D01*
X29256031Y-50476643D01*
X29345205Y-50513581D01*
X29439872Y-50532411D01*
X29513814Y-50532411D01*
X29509970Y-50551739D01*
X29509970Y-50648261D01*
X29528800Y-50742928D01*
X29565738Y-50832102D01*
X29619362Y-50912357D01*
X29687613Y-50980608D01*
X29767868Y-51034232D01*
X29857042Y-51071170D01*
X29951709Y-51090000D01*
X30048231Y-51090000D01*
X30142898Y-51071170D01*
X30194005Y-51050000D01*
X31208839Y-51050000D01*
X31210000Y-51347500D01*
X31270000Y-51407500D01*
X31845000Y-51407500D01*
X31845000Y-50870000D01*
X32005000Y-50870000D01*
X32005000Y-51407500D01*
X32580000Y-51407500D01*
X32640000Y-51347500D01*
X32641161Y-51050000D01*
X32636527Y-51002952D01*
X32622804Y-50957712D01*
X32600518Y-50916018D01*
X32570527Y-50879473D01*
X32533982Y-50849482D01*
X32492288Y-50827196D01*
X32447048Y-50813473D01*
X32400000Y-50808839D01*
X32065000Y-50810000D01*
X32005000Y-50870000D01*
X31845000Y-50870000D01*
X31785000Y-50810000D01*
X31450000Y-50808839D01*
X31402952Y-50813473D01*
X31357712Y-50827196D01*
X31316018Y-50849482D01*
X31279473Y-50879473D01*
X31249482Y-50916018D01*
X31227196Y-50957712D01*
X31213473Y-51002952D01*
X31208839Y-51050000D01*
X30194005Y-51050000D01*
X30232072Y-51034232D01*
X30312327Y-50980608D01*
X30380578Y-50912357D01*
X30434202Y-50832102D01*
X30471140Y-50742928D01*
X30489970Y-50648261D01*
X30489970Y-50551739D01*
X30471140Y-50457072D01*
X30434202Y-50367898D01*
X30380578Y-50287643D01*
X30319970Y-50227035D01*
X30319970Y-49844758D01*
X30321518Y-49829045D01*
X30319970Y-49813328D01*
X30315340Y-49766315D01*
X30297042Y-49705995D01*
X30273420Y-49661803D01*
X30267327Y-49650403D01*
X30237358Y-49613885D01*
X30237355Y-49613882D01*
X30227339Y-49601677D01*
X30215133Y-49591660D01*
X29462798Y-48839327D01*
X29462798Y-48385734D01*
X29490275Y-48437139D01*
X29539011Y-48496523D01*
X29598395Y-48545259D01*
X29666148Y-48581474D01*
X29739663Y-48603775D01*
X29816116Y-48611305D01*
X29892569Y-48603775D01*
X29966084Y-48581474D01*
X30033837Y-48545259D01*
X30078340Y-48508737D01*
X30148457Y-48438620D01*
X30195936Y-48486099D01*
X30175281Y-48506754D01*
X30121657Y-48587009D01*
X30084719Y-48676183D01*
X30065889Y-48770850D01*
X30065889Y-48867372D01*
X30084719Y-48962039D01*
X30121657Y-49051213D01*
X30175281Y-49131468D01*
X30243532Y-49199719D01*
X30323787Y-49253343D01*
X30412961Y-49290281D01*
X30507628Y-49309111D01*
X30604150Y-49309111D01*
X30698817Y-49290281D01*
X30787991Y-49253343D01*
X30868246Y-49199719D01*
X30936497Y-49131468D01*
X30990121Y-49051213D01*
X31027059Y-48962039D01*
X31045889Y-48867372D01*
X31045889Y-48770850D01*
X31027059Y-48676183D01*
X30990121Y-48587009D01*
X30936497Y-48506754D01*
X30875889Y-48446146D01*
X30875889Y-48409221D01*
X30877437Y-48393505D01*
X30875122Y-48370003D01*
X30871259Y-48330774D01*
X30855004Y-48277188D01*
X30852961Y-48270453D01*
X30823247Y-48214862D01*
X30793277Y-48178345D01*
X30783258Y-48166136D01*
X30771047Y-48156115D01*
X30601005Y-47986073D01*
X30671121Y-47915957D01*
X30697156Y-47884233D01*
X30968701Y-48155778D01*
X31194975Y-47929504D01*
X31180833Y-47915362D01*
X31279828Y-47816367D01*
X31293970Y-47830509D01*
X31315184Y-47809296D01*
X31428321Y-47922433D01*
G36*
X34963855Y-44386899D02*
G01*
X34942641Y-44408112D01*
X34956784Y-44422255D01*
X34857789Y-44521250D01*
X34843646Y-44507107D01*
X34822433Y-44528321D01*
X34709296Y-44415184D01*
X34730509Y-44393970D01*
X34716367Y-44379828D01*
X34815362Y-44280833D01*
X34829504Y-44294975D01*
X34850718Y-44273762D01*
X34963855Y-44386899D01*
G37*
X34963855Y-44386899D02*
X34942641Y-44408112D01*
X34956784Y-44422255D01*
X34857789Y-44521250D01*
X34843646Y-44507107D01*
X34822433Y-44528321D01*
X34709296Y-44415184D01*
X34730509Y-44393970D01*
X34716367Y-44379828D01*
X34815362Y-44280833D01*
X34829504Y-44294975D01*
X34850718Y-44273762D01*
X34963855Y-44386899D01*
G36*
X30827280Y-43785858D02*
G01*
X30813137Y-43800000D01*
X30827280Y-43814143D01*
X30714143Y-43927280D01*
X30700000Y-43913137D01*
X30685858Y-43927280D01*
X30572721Y-43814143D01*
X30586863Y-43800000D01*
X30572721Y-43785858D01*
X30685858Y-43672721D01*
X30700000Y-43686863D01*
X30714143Y-43672721D01*
X30827280Y-43785858D01*
G37*
X30827280Y-43785858D02*
X30813137Y-43800000D01*
X30827280Y-43814143D01*
X30714143Y-43927280D01*
X30700000Y-43913137D01*
X30685858Y-43927280D01*
X30572721Y-43814143D01*
X30586863Y-43800000D01*
X30572721Y-43785858D01*
X30685858Y-43672721D01*
X30700000Y-43686863D01*
X30714143Y-43672721D01*
X30827280Y-43785858D01*
G36*
X35739989Y-38963614D02*
G01*
X35739990Y-41901389D01*
X35526326Y-42115054D01*
X35457065Y-42128830D01*
X35367891Y-42165768D01*
X35287636Y-42219392D01*
X35262338Y-42244690D01*
X35215022Y-42269981D01*
X35154876Y-42319342D01*
X35142509Y-42334411D01*
X35087182Y-42389738D01*
X35043396Y-42384026D01*
X34589087Y-42838335D01*
X34610301Y-42859549D01*
X34497164Y-42972686D01*
X34475950Y-42951472D01*
X34461808Y-42965615D01*
X34362813Y-42866620D01*
X34376955Y-42852477D01*
X34355742Y-42831264D01*
X34468879Y-42718127D01*
X34490092Y-42739340D01*
X34944401Y-42285031D01*
X34934746Y-42211025D01*
X34884561Y-42189308D01*
X34951018Y-42122851D01*
X34963223Y-42112835D01*
X34975076Y-42098392D01*
X35003211Y-42064109D01*
X35032925Y-42008518D01*
X35032926Y-42008517D01*
X35034277Y-42004065D01*
X35048211Y-41994754D01*
X35116462Y-41926503D01*
X35170086Y-41846248D01*
X35207024Y-41757074D01*
X35225854Y-41662407D01*
X35225854Y-41565885D01*
X35207024Y-41471218D01*
X35170086Y-41382044D01*
X35116462Y-41301789D01*
X35048211Y-41233538D01*
X34967956Y-41179914D01*
X34878782Y-41142976D01*
X34784115Y-41124146D01*
X34687593Y-41124146D01*
X34592926Y-41142976D01*
X34554990Y-41158690D01*
X34554990Y-40715884D01*
X34810000Y-40715000D01*
X34870000Y-40655000D01*
X34870000Y-40117500D01*
X35030000Y-40117500D01*
X35030000Y-40655000D01*
X35090000Y-40715000D01*
X35425000Y-40716161D01*
X35472048Y-40711527D01*
X35517288Y-40697804D01*
X35558982Y-40675518D01*
X35595527Y-40645527D01*
X35625518Y-40608982D01*
X35647804Y-40567288D01*
X35661527Y-40522048D01*
X35666161Y-40475000D01*
X35665000Y-40177500D01*
X35605000Y-40117500D01*
X35030000Y-40117500D01*
X34870000Y-40117500D01*
X34850000Y-40117500D01*
X34850000Y-39957500D01*
X34870000Y-39957500D01*
X34870000Y-39420000D01*
X35030000Y-39420000D01*
X35030000Y-39957500D01*
X35605000Y-39957500D01*
X35665000Y-39897500D01*
X35666161Y-39600000D01*
X35661527Y-39552952D01*
X35647804Y-39507712D01*
X35625518Y-39466018D01*
X35595527Y-39429473D01*
X35558982Y-39399482D01*
X35517288Y-39377196D01*
X35472048Y-39363473D01*
X35425000Y-39358839D01*
X35090000Y-39360000D01*
X35030000Y-39420000D01*
X34870000Y-39420000D01*
X34810000Y-39360000D01*
X34554990Y-39359116D01*
X34554990Y-39117449D01*
X34604026Y-39132324D01*
X34693750Y-39141161D01*
X35206250Y-39141161D01*
X35295974Y-39132324D01*
X35382250Y-39106152D01*
X35461763Y-39063652D01*
X35531456Y-39006456D01*
X35588652Y-38936763D01*
X35631018Y-38857500D01*
X35633876Y-38857500D01*
X35739989Y-38963614D01*
G37*
X35739989Y-38963614D02*
X35739990Y-41901389D01*
X35526326Y-42115054D01*
X35457065Y-42128830D01*
X35367891Y-42165768D01*
X35287636Y-42219392D01*
X35262338Y-42244690D01*
X35215022Y-42269981D01*
X35154876Y-42319342D01*
X35142509Y-42334411D01*
X35087182Y-42389738D01*
X35043396Y-42384026D01*
X34589087Y-42838335D01*
X34610301Y-42859549D01*
X34497164Y-42972686D01*
X34475950Y-42951472D01*
X34461808Y-42965615D01*
X34362813Y-42866620D01*
X34376955Y-42852477D01*
X34355742Y-42831264D01*
X34468879Y-42718127D01*
X34490092Y-42739340D01*
X34944401Y-42285031D01*
X34934746Y-42211025D01*
X34884561Y-42189308D01*
X34951018Y-42122851D01*
X34963223Y-42112835D01*
X34975076Y-42098392D01*
X35003211Y-42064109D01*
X35032925Y-42008518D01*
X35032926Y-42008517D01*
X35034277Y-42004065D01*
X35048211Y-41994754D01*
X35116462Y-41926503D01*
X35170086Y-41846248D01*
X35207024Y-41757074D01*
X35225854Y-41662407D01*
X35225854Y-41565885D01*
X35207024Y-41471218D01*
X35170086Y-41382044D01*
X35116462Y-41301789D01*
X35048211Y-41233538D01*
X34967956Y-41179914D01*
X34878782Y-41142976D01*
X34784115Y-41124146D01*
X34687593Y-41124146D01*
X34592926Y-41142976D01*
X34554990Y-41158690D01*
X34554990Y-40715884D01*
X34810000Y-40715000D01*
X34870000Y-40655000D01*
X34870000Y-40117500D01*
X35030000Y-40117500D01*
X35030000Y-40655000D01*
X35090000Y-40715000D01*
X35425000Y-40716161D01*
X35472048Y-40711527D01*
X35517288Y-40697804D01*
X35558982Y-40675518D01*
X35595527Y-40645527D01*
X35625518Y-40608982D01*
X35647804Y-40567288D01*
X35661527Y-40522048D01*
X35666161Y-40475000D01*
X35665000Y-40177500D01*
X35605000Y-40117500D01*
X35030000Y-40117500D01*
X34870000Y-40117500D01*
X34850000Y-40117500D01*
X34850000Y-39957500D01*
X34870000Y-39957500D01*
X34870000Y-39420000D01*
X35030000Y-39420000D01*
X35030000Y-39957500D01*
X35605000Y-39957500D01*
X35665000Y-39897500D01*
X35666161Y-39600000D01*
X35661527Y-39552952D01*
X35647804Y-39507712D01*
X35625518Y-39466018D01*
X35595527Y-39429473D01*
X35558982Y-39399482D01*
X35517288Y-39377196D01*
X35472048Y-39363473D01*
X35425000Y-39358839D01*
X35090000Y-39360000D01*
X35030000Y-39420000D01*
X34870000Y-39420000D01*
X34810000Y-39360000D01*
X34554990Y-39359116D01*
X34554990Y-39117449D01*
X34604026Y-39132324D01*
X34693750Y-39141161D01*
X35206250Y-39141161D01*
X35295974Y-39132324D01*
X35382250Y-39106152D01*
X35461763Y-39063652D01*
X35531456Y-39006456D01*
X35588652Y-38936763D01*
X35631018Y-38857500D01*
X35633876Y-38857500D01*
X35739989Y-38963614D01*
G36*
X23686885Y-23878412D02*
G01*
X23682564Y-24024115D01*
X23697507Y-24112921D01*
X23687185Y-24157812D01*
X23682864Y-24303515D01*
X23700148Y-24406234D01*
X23687185Y-24462612D01*
X23682864Y-24608315D01*
X23703849Y-24733034D01*
X23687185Y-24805512D01*
X23682864Y-24951215D01*
X23698914Y-25046601D01*
X23687185Y-25097612D01*
X23682864Y-25243315D01*
X23707051Y-25387062D01*
X23758817Y-25523328D01*
X23779599Y-25562208D01*
X23888088Y-25615875D01*
X24023011Y-25480952D01*
X24054892Y-25545401D01*
X24144546Y-25585691D01*
X24001225Y-25729012D01*
X24054892Y-25837501D01*
X24187851Y-25897252D01*
X24329912Y-25929915D01*
X24475615Y-25934236D01*
X24619362Y-25910049D01*
X24755628Y-25858283D01*
X24794508Y-25837501D01*
X24848175Y-25729012D01*
X24704695Y-25585532D01*
X24755628Y-25566183D01*
X24794508Y-25545401D01*
X24826389Y-25480952D01*
X24961312Y-25615875D01*
X25069801Y-25562208D01*
X25113000Y-25466080D01*
X25113001Y-27946294D01*
X25090883Y-27888072D01*
X25070101Y-27849192D01*
X24961612Y-27795525D01*
X24836419Y-27920718D01*
X24794808Y-27836599D01*
X24725438Y-27805425D01*
X24848475Y-27682388D01*
X24794808Y-27573899D01*
X24661849Y-27514148D01*
X24519788Y-27481485D01*
X24374085Y-27477164D01*
X24230338Y-27501351D01*
X24094072Y-27553117D01*
X24055192Y-27573899D01*
X24001525Y-27682388D01*
X24123699Y-27804562D01*
X24094072Y-27815817D01*
X24055192Y-27836599D01*
X24013581Y-27920718D01*
X23888388Y-27795525D01*
X23779899Y-27849192D01*
X23720148Y-27982151D01*
X23687485Y-28124212D01*
X23683164Y-28269915D01*
X23696357Y-28348324D01*
X23687485Y-28386912D01*
X23683164Y-28532615D01*
X23695385Y-28605247D01*
X23687185Y-28640912D01*
X23682864Y-28786615D01*
X23694493Y-28855730D01*
X23687485Y-28886212D01*
X23683164Y-29031915D01*
X23707351Y-29175662D01*
X23759117Y-29311928D01*
X23779899Y-29350808D01*
X23888388Y-29404475D01*
X24007621Y-29285242D01*
X24054892Y-29380801D01*
X24112464Y-29406673D01*
X24001525Y-29517612D01*
X24055192Y-29626101D01*
X24188151Y-29685852D01*
X24330212Y-29718515D01*
X24475915Y-29722836D01*
X24619662Y-29698649D01*
X24755928Y-29646883D01*
X24794808Y-29626101D01*
X24848475Y-29517612D01*
X24738828Y-29407965D01*
X24755628Y-29401583D01*
X24794508Y-29380801D01*
X24841977Y-29284840D01*
X24961612Y-29404475D01*
X25070101Y-29350808D01*
X25129852Y-29217849D01*
X25131888Y-29208992D01*
X25135570Y-29221128D01*
X25164820Y-29275851D01*
X25204184Y-29323816D01*
X25252149Y-29363180D01*
X25306872Y-29392430D01*
X25366249Y-29410442D01*
X25412527Y-29415000D01*
X25428000Y-29416524D01*
X25443473Y-29415000D01*
X26345000Y-29415000D01*
X26350000Y-29420000D01*
X26720000Y-29420000D01*
X26720000Y-29415000D01*
X26880000Y-29415000D01*
X26880000Y-29420000D01*
X26900000Y-29420000D01*
X26900000Y-29580000D01*
X26880000Y-29580000D01*
X26880000Y-30080000D01*
X26940000Y-30140000D01*
X26971142Y-30140278D01*
X26953830Y-30182072D01*
X26940053Y-30251333D01*
X26786387Y-30405000D01*
X26214191Y-30405000D01*
X26206723Y-30329179D01*
X26178774Y-30237041D01*
X26133385Y-30152126D01*
X26072303Y-30077697D01*
X25997874Y-30016615D01*
X25912959Y-29971226D01*
X25820821Y-29943277D01*
X25725000Y-29933839D01*
X24475000Y-29933839D01*
X24379179Y-29943277D01*
X24287041Y-29971226D01*
X24202126Y-30016615D01*
X24127697Y-30077697D01*
X24066615Y-30152126D01*
X24021226Y-30237041D01*
X23993277Y-30329179D01*
X23983839Y-30425000D01*
X23983839Y-31175000D01*
X23993277Y-31270821D01*
X24021226Y-31362959D01*
X24066615Y-31447874D01*
X24127697Y-31522303D01*
X24202126Y-31583385D01*
X24287041Y-31628774D01*
X24379179Y-31656723D01*
X24475000Y-31666161D01*
X25725000Y-31666161D01*
X25820821Y-31656723D01*
X25912959Y-31628774D01*
X25997874Y-31583385D01*
X26072303Y-31522303D01*
X26133385Y-31447874D01*
X26178774Y-31362959D01*
X26206723Y-31270821D01*
X26214191Y-31195000D01*
X26930606Y-31195000D01*
X26950000Y-31196910D01*
X26969394Y-31195000D01*
X26969401Y-31195000D01*
X27027433Y-31189284D01*
X27101891Y-31166698D01*
X27170512Y-31130019D01*
X27230658Y-31080658D01*
X27243029Y-31065584D01*
X27498667Y-30809947D01*
X27567928Y-30796170D01*
X27657102Y-30759232D01*
X27737357Y-30705608D01*
X27805608Y-30637357D01*
X27859232Y-30557102D01*
X27896170Y-30467928D01*
X27910917Y-30393787D01*
X27930019Y-30370512D01*
X27965675Y-30303804D01*
X27982643Y-30335549D01*
X28004932Y-30362708D01*
X28022632Y-30384276D01*
X28034843Y-30394297D01*
X28180961Y-30540415D01*
X28180961Y-30626129D01*
X28199791Y-30720796D01*
X28236729Y-30809970D01*
X28290353Y-30890225D01*
X28358604Y-30958476D01*
X28438859Y-31012100D01*
X28521057Y-31046149D01*
X28510000Y-31101739D01*
X28510000Y-31198261D01*
X28528830Y-31292928D01*
X28565768Y-31382102D01*
X28619392Y-31462357D01*
X28687643Y-31530608D01*
X28767898Y-31584232D01*
X28857072Y-31621170D01*
X28951739Y-31640000D01*
X29048261Y-31640000D01*
X29142928Y-31621170D01*
X29232102Y-31584232D01*
X29298925Y-31539583D01*
X29153342Y-31685166D01*
X29034055Y-31863691D01*
X28951888Y-32062059D01*
X28910000Y-32272644D01*
X28910000Y-32487356D01*
X28951888Y-32697941D01*
X29034055Y-32896309D01*
X29153342Y-33074834D01*
X29305166Y-33226658D01*
X29483691Y-33345945D01*
X29682059Y-33428112D01*
X29689762Y-33429644D01*
X29702625Y-33472048D01*
X29702929Y-33473051D01*
X29732643Y-33528642D01*
X29757543Y-33558982D01*
X29772632Y-33577369D01*
X29784843Y-33587390D01*
X30380001Y-34182550D01*
X30380001Y-34540118D01*
X30354026Y-34542676D01*
X30267750Y-34568848D01*
X30188237Y-34611348D01*
X30118544Y-34668544D01*
X30061348Y-34738237D01*
X30018848Y-34817750D01*
X29992676Y-34904026D01*
X29983839Y-34993750D01*
X29983839Y-35431250D01*
X29992676Y-35520974D01*
X30018848Y-35607250D01*
X30061348Y-35686763D01*
X30118544Y-35756456D01*
X30188237Y-35813652D01*
X30267750Y-35856152D01*
X30354026Y-35882324D01*
X30443750Y-35891161D01*
X30956250Y-35891161D01*
X31045974Y-35882324D01*
X31132250Y-35856152D01*
X31211763Y-35813652D01*
X31281456Y-35756456D01*
X31338652Y-35686763D01*
X31381152Y-35607250D01*
X31407324Y-35520974D01*
X31416161Y-35431250D01*
X31416161Y-34993750D01*
X31407324Y-34904026D01*
X31390936Y-34850000D01*
X31483839Y-34850000D01*
X31488473Y-34897048D01*
X31502196Y-34942288D01*
X31524482Y-34983982D01*
X31554473Y-35020527D01*
X31591018Y-35050518D01*
X31632712Y-35072804D01*
X31677952Y-35086527D01*
X31725000Y-35091161D01*
X32060000Y-35090000D01*
X32120000Y-35030000D01*
X32120000Y-34492500D01*
X32280000Y-34492500D01*
X32280000Y-35030000D01*
X32340000Y-35090000D01*
X32675000Y-35091161D01*
X32722048Y-35086527D01*
X32767288Y-35072804D01*
X32808982Y-35050518D01*
X32845527Y-35020527D01*
X32875518Y-34983982D01*
X32897804Y-34942288D01*
X32911527Y-34897048D01*
X32916161Y-34850000D01*
X32915000Y-34552500D01*
X32855000Y-34492500D01*
X32280000Y-34492500D01*
X32120000Y-34492500D01*
X31545000Y-34492500D01*
X31485000Y-34552500D01*
X31483839Y-34850000D01*
X31390936Y-34850000D01*
X31381152Y-34817750D01*
X31338652Y-34738237D01*
X31281456Y-34668544D01*
X31211763Y-34611348D01*
X31132250Y-34568848D01*
X31045974Y-34542676D01*
X31020000Y-34540118D01*
X31020000Y-34065705D01*
X31021547Y-34049999D01*
X31020000Y-34034293D01*
X31020000Y-34034282D01*
X31015370Y-33987269D01*
X31011649Y-33975000D01*
X31483839Y-33975000D01*
X31485000Y-34272500D01*
X31545000Y-34332500D01*
X32120000Y-34332500D01*
X32120000Y-33795000D01*
X32280000Y-33795000D01*
X32280000Y-34332500D01*
X32855000Y-34332500D01*
X32887500Y-34300000D01*
X32983839Y-34300000D01*
X32988473Y-34347048D01*
X33002196Y-34392288D01*
X33024482Y-34433982D01*
X33054473Y-34470527D01*
X33091018Y-34500518D01*
X33132712Y-34522804D01*
X33177952Y-34536527D01*
X33225000Y-34541161D01*
X33560000Y-34540000D01*
X33620000Y-34480000D01*
X33620000Y-33942500D01*
X33780000Y-33942500D01*
X33780000Y-34480000D01*
X33840000Y-34540000D01*
X34175000Y-34541161D01*
X34222048Y-34536527D01*
X34267288Y-34522804D01*
X34308982Y-34500518D01*
X34345527Y-34470527D01*
X34375518Y-34433982D01*
X34397804Y-34392288D01*
X34411527Y-34347048D01*
X34416161Y-34300000D01*
X34483839Y-34300000D01*
X34488473Y-34347048D01*
X34502196Y-34392288D01*
X34524482Y-34433982D01*
X34554473Y-34470527D01*
X34591018Y-34500518D01*
X34632712Y-34522804D01*
X34677952Y-34536527D01*
X34725000Y-34541161D01*
X35060000Y-34540000D01*
X35120000Y-34480000D01*
X35120000Y-33942500D01*
X35280000Y-33942500D01*
X35280000Y-34480000D01*
X35340000Y-34540000D01*
X35675000Y-34541161D01*
X35722048Y-34536527D01*
X35767288Y-34522804D01*
X35808982Y-34500518D01*
X35845527Y-34470527D01*
X35875518Y-34433982D01*
X35897804Y-34392288D01*
X35911527Y-34347048D01*
X35916161Y-34300000D01*
X35915000Y-34002500D01*
X35855000Y-33942500D01*
X35280000Y-33942500D01*
X35120000Y-33942500D01*
X34545000Y-33942500D01*
X34485000Y-34002500D01*
X34483839Y-34300000D01*
X34416161Y-34300000D01*
X34415000Y-34002500D01*
X34355000Y-33942500D01*
X33780000Y-33942500D01*
X33620000Y-33942500D01*
X33045000Y-33942500D01*
X32985000Y-34002500D01*
X32983839Y-34300000D01*
X32887500Y-34300000D01*
X32915000Y-34272500D01*
X32916161Y-33975000D01*
X32911527Y-33927952D01*
X32897804Y-33882712D01*
X32875518Y-33841018D01*
X32845527Y-33804473D01*
X32808982Y-33774482D01*
X32767288Y-33752196D01*
X32722048Y-33738473D01*
X32675000Y-33733839D01*
X32340000Y-33735000D01*
X32280000Y-33795000D01*
X32120000Y-33795000D01*
X32060000Y-33735000D01*
X31725000Y-33733839D01*
X31677952Y-33738473D01*
X31632712Y-33752196D01*
X31591018Y-33774482D01*
X31554473Y-33804473D01*
X31524482Y-33841018D01*
X31502196Y-33882712D01*
X31488473Y-33927952D01*
X31483839Y-33975000D01*
X31011649Y-33975000D01*
X30997072Y-33926949D01*
X30979727Y-33894499D01*
X30967357Y-33871356D01*
X30937388Y-33834839D01*
X30937385Y-33834836D01*
X30927369Y-33822631D01*
X30915163Y-33812614D01*
X30527549Y-33425000D01*
X31483839Y-33425000D01*
X31488473Y-33472048D01*
X31502196Y-33517288D01*
X31524482Y-33558982D01*
X31554473Y-33595527D01*
X31591018Y-33625518D01*
X31632712Y-33647804D01*
X31677952Y-33661527D01*
X31725000Y-33666161D01*
X32060000Y-33665000D01*
X32120000Y-33605000D01*
X32120000Y-33067500D01*
X32280000Y-33067500D01*
X32280000Y-33605000D01*
X32340000Y-33665000D01*
X32675000Y-33666161D01*
X32722048Y-33661527D01*
X32767288Y-33647804D01*
X32808982Y-33625518D01*
X32845527Y-33595527D01*
X32875518Y-33558982D01*
X32897804Y-33517288D01*
X32911527Y-33472048D01*
X32916161Y-33425000D01*
X32983839Y-33425000D01*
X32985000Y-33722500D01*
X33045000Y-33782500D01*
X33620000Y-33782500D01*
X33620000Y-33245000D01*
X33780000Y-33245000D01*
X33780000Y-33782500D01*
X34355000Y-33782500D01*
X34415000Y-33722500D01*
X34416161Y-33425000D01*
X34483839Y-33425000D01*
X34485000Y-33722500D01*
X34545000Y-33782500D01*
X35120000Y-33782500D01*
X35120000Y-33245000D01*
X35280000Y-33245000D01*
X35280000Y-33782500D01*
X35855000Y-33782500D01*
X35915000Y-33722500D01*
X35916161Y-33425000D01*
X35911527Y-33377952D01*
X35897804Y-33332712D01*
X35875518Y-33291018D01*
X35845527Y-33254473D01*
X35808982Y-33224482D01*
X35767288Y-33202196D01*
X35722048Y-33188473D01*
X35675000Y-33183839D01*
X35340000Y-33185000D01*
X35280000Y-33245000D01*
X35120000Y-33245000D01*
X35060000Y-33185000D01*
X34725000Y-33183839D01*
X34677952Y-33188473D01*
X34632712Y-33202196D01*
X34591018Y-33224482D01*
X34554473Y-33254473D01*
X34524482Y-33291018D01*
X34502196Y-33332712D01*
X34488473Y-33377952D01*
X34483839Y-33425000D01*
X34416161Y-33425000D01*
X34411527Y-33377952D01*
X34397804Y-33332712D01*
X34375518Y-33291018D01*
X34345527Y-33254473D01*
X34308982Y-33224482D01*
X34267288Y-33202196D01*
X34222048Y-33188473D01*
X34175000Y-33183839D01*
X33840000Y-33185000D01*
X33780000Y-33245000D01*
X33620000Y-33245000D01*
X33560000Y-33185000D01*
X33225000Y-33183839D01*
X33177952Y-33188473D01*
X33132712Y-33202196D01*
X33091018Y-33224482D01*
X33054473Y-33254473D01*
X33024482Y-33291018D01*
X33002196Y-33332712D01*
X32988473Y-33377952D01*
X32983839Y-33425000D01*
X32916161Y-33425000D01*
X32915000Y-33127500D01*
X32855000Y-33067500D01*
X32280000Y-33067500D01*
X32120000Y-33067500D01*
X31545000Y-33067500D01*
X31485000Y-33127500D01*
X31483839Y-33425000D01*
X30527549Y-33425000D01*
X30468356Y-33365808D01*
X30516309Y-33345945D01*
X30694834Y-33226658D01*
X30846658Y-33074834D01*
X30965945Y-32896309D01*
X31048112Y-32697941D01*
X31077539Y-32550000D01*
X31483839Y-32550000D01*
X31485000Y-32847500D01*
X31545000Y-32907500D01*
X32120000Y-32907500D01*
X32120000Y-32370000D01*
X32280000Y-32370000D01*
X32280000Y-32907500D01*
X32855000Y-32907500D01*
X32887500Y-32875000D01*
X32983839Y-32875000D01*
X32988473Y-32922048D01*
X33002196Y-32967288D01*
X33024482Y-33008982D01*
X33054473Y-33045527D01*
X33091018Y-33075518D01*
X33132712Y-33097804D01*
X33177952Y-33111527D01*
X33225000Y-33116161D01*
X33560000Y-33115000D01*
X33620000Y-33055000D01*
X33620000Y-32517500D01*
X33780000Y-32517500D01*
X33780000Y-33055000D01*
X33840000Y-33115000D01*
X34175000Y-33116161D01*
X34222048Y-33111527D01*
X34267288Y-33097804D01*
X34308982Y-33075518D01*
X34345527Y-33045527D01*
X34375518Y-33008982D01*
X34397804Y-32967288D01*
X34411527Y-32922048D01*
X34416161Y-32875000D01*
X34415000Y-32577500D01*
X34355000Y-32517500D01*
X33780000Y-32517500D01*
X33620000Y-32517500D01*
X33045000Y-32517500D01*
X32985000Y-32577500D01*
X32983839Y-32875000D01*
X32887500Y-32875000D01*
X32915000Y-32847500D01*
X32916161Y-32550000D01*
X32911527Y-32502952D01*
X32897804Y-32457712D01*
X32875518Y-32416018D01*
X32845527Y-32379473D01*
X32808982Y-32349482D01*
X32767288Y-32327196D01*
X32722048Y-32313473D01*
X32675000Y-32308839D01*
X32340000Y-32310000D01*
X32280000Y-32370000D01*
X32120000Y-32370000D01*
X32060000Y-32310000D01*
X31725000Y-32308839D01*
X31677952Y-32313473D01*
X31632712Y-32327196D01*
X31591018Y-32349482D01*
X31554473Y-32379473D01*
X31524482Y-32416018D01*
X31502196Y-32457712D01*
X31488473Y-32502952D01*
X31483839Y-32550000D01*
X31077539Y-32550000D01*
X31090000Y-32487356D01*
X31090000Y-32272644D01*
X31048112Y-32062059D01*
X30966889Y-31865970D01*
X30977369Y-31857369D01*
X31008036Y-31820000D01*
X31017357Y-31808643D01*
X31034166Y-31777196D01*
X31047072Y-31753051D01*
X31065370Y-31692731D01*
X31070000Y-31645718D01*
X31070000Y-31645714D01*
X31071548Y-31630001D01*
X31070000Y-31614288D01*
X31070000Y-31247547D01*
X31450114Y-31627663D01*
X31460131Y-31639869D01*
X31472336Y-31649885D01*
X31472339Y-31649888D01*
X31486847Y-31661795D01*
X31492676Y-31720974D01*
X31518848Y-31807250D01*
X31561348Y-31886763D01*
X31618544Y-31956456D01*
X31688237Y-32013652D01*
X31767750Y-32056152D01*
X31854026Y-32082324D01*
X31943750Y-32091161D01*
X32456250Y-32091161D01*
X32545974Y-32082324D01*
X32632250Y-32056152D01*
X32711763Y-32013652D01*
X32728397Y-32000000D01*
X32983839Y-32000000D01*
X32985000Y-32297500D01*
X33045000Y-32357500D01*
X33620000Y-32357500D01*
X33620000Y-31820000D01*
X33780000Y-31820000D01*
X33780000Y-32357500D01*
X34355000Y-32357500D01*
X34415000Y-32297500D01*
X34416161Y-32000000D01*
X34411527Y-31952952D01*
X34397804Y-31907712D01*
X34375518Y-31866018D01*
X34345527Y-31829473D01*
X34308982Y-31799482D01*
X34267288Y-31777196D01*
X34222048Y-31763473D01*
X34175000Y-31758839D01*
X33840000Y-31760000D01*
X33780000Y-31820000D01*
X33620000Y-31820000D01*
X33560000Y-31760000D01*
X33225000Y-31758839D01*
X33177952Y-31763473D01*
X33132712Y-31777196D01*
X33091018Y-31799482D01*
X33054473Y-31829473D01*
X33024482Y-31866018D01*
X33002196Y-31907712D01*
X32988473Y-31952952D01*
X32983839Y-32000000D01*
X32728397Y-32000000D01*
X32781456Y-31956456D01*
X32838652Y-31886763D01*
X32881152Y-31807250D01*
X32907324Y-31720974D01*
X32916161Y-31631250D01*
X32916161Y-31193750D01*
X32907324Y-31104026D01*
X32881152Y-31017750D01*
X32838652Y-30938237D01*
X32781456Y-30868544D01*
X32711763Y-30811348D01*
X32632250Y-30768848D01*
X32545974Y-30742676D01*
X32456250Y-30733839D01*
X32390555Y-30733839D01*
X32415514Y-30673584D01*
X32429291Y-30604323D01*
X32489990Y-30543624D01*
X32542560Y-30622302D01*
X32610811Y-30690553D01*
X32691066Y-30744177D01*
X32780240Y-30781115D01*
X32874907Y-30799945D01*
X32960621Y-30799945D01*
X32983839Y-30823164D01*
X32983839Y-31081250D01*
X32992676Y-31170974D01*
X33018848Y-31257250D01*
X33061348Y-31336763D01*
X33118544Y-31406456D01*
X33188237Y-31463652D01*
X33267750Y-31506152D01*
X33354026Y-31532324D01*
X33443750Y-31541161D01*
X33956250Y-31541161D01*
X34045974Y-31532324D01*
X34132250Y-31506152D01*
X34211763Y-31463652D01*
X34281456Y-31406456D01*
X34338652Y-31336763D01*
X34381152Y-31257250D01*
X34407324Y-31170974D01*
X34416161Y-31081250D01*
X34416161Y-30643750D01*
X34407324Y-30554026D01*
X34381152Y-30467750D01*
X34338652Y-30388237D01*
X34281456Y-30318544D01*
X34211763Y-30261348D01*
X34132250Y-30218848D01*
X34045974Y-30192676D01*
X33956250Y-30183839D01*
X33443750Y-30183839D01*
X33398569Y-30188289D01*
X33394338Y-30167017D01*
X33383307Y-30140387D01*
X33470000Y-30141161D01*
X33517048Y-30136527D01*
X33562288Y-30122804D01*
X33603982Y-30100518D01*
X33640527Y-30070527D01*
X33670518Y-30033982D01*
X33692804Y-29992288D01*
X33706527Y-29947048D01*
X33711161Y-29900000D01*
X33711059Y-29877053D01*
X36525353Y-29877053D01*
X36553614Y-30089896D01*
X36622857Y-30293136D01*
X36689249Y-30417345D01*
X36833571Y-30513292D01*
X37506863Y-29840000D01*
X36833571Y-29166708D01*
X36689249Y-29262655D01*
X36594499Y-29455330D01*
X36539158Y-29662786D01*
X36525353Y-29877053D01*
X33711059Y-29877053D01*
X33710000Y-29640000D01*
X33650000Y-29580000D01*
X33280000Y-29580000D01*
X33280000Y-29600000D01*
X33120000Y-29600000D01*
X33120000Y-29580000D01*
X33100000Y-29580000D01*
X33100000Y-29420000D01*
X33120000Y-29420000D01*
X33120000Y-29415000D01*
X33280000Y-29415000D01*
X33280000Y-29420000D01*
X33650000Y-29420000D01*
X33655000Y-29415000D01*
X34556527Y-29415000D01*
X34572000Y-29416524D01*
X34587473Y-29415000D01*
X34633751Y-29410442D01*
X34693128Y-29392430D01*
X34747851Y-29363180D01*
X34795816Y-29323816D01*
X34835180Y-29275851D01*
X34864430Y-29221128D01*
X34869222Y-29205331D01*
X34909717Y-29311928D01*
X34930499Y-29350808D01*
X35038988Y-29404475D01*
X35158221Y-29285242D01*
X35205492Y-29380801D01*
X35263064Y-29406673D01*
X35152125Y-29517612D01*
X35205792Y-29626101D01*
X35338751Y-29685852D01*
X35480812Y-29718515D01*
X35626515Y-29722836D01*
X35770262Y-29698649D01*
X35906528Y-29646883D01*
X35945408Y-29626101D01*
X35999075Y-29517612D01*
X35889428Y-29407965D01*
X35906228Y-29401583D01*
X35945108Y-29380801D01*
X35992577Y-29284840D01*
X36112212Y-29404475D01*
X36220701Y-29350808D01*
X36280452Y-29217849D01*
X36313115Y-29075788D01*
X36313773Y-29053571D01*
X36946708Y-29053571D01*
X37620000Y-29726863D01*
X38293292Y-29053571D01*
X38197345Y-28909249D01*
X38004670Y-28814499D01*
X37797214Y-28759158D01*
X37582947Y-28745353D01*
X37370104Y-28773614D01*
X37166864Y-28842857D01*
X37042655Y-28909249D01*
X36946708Y-29053571D01*
X36313773Y-29053571D01*
X36317436Y-28930085D01*
X36305807Y-28860970D01*
X36312815Y-28830488D01*
X36317136Y-28684785D01*
X36304915Y-28612153D01*
X36313115Y-28576488D01*
X36317436Y-28430785D01*
X36304243Y-28352376D01*
X36313115Y-28313788D01*
X36317436Y-28168085D01*
X36293249Y-28024338D01*
X36241483Y-27888072D01*
X36220701Y-27849192D01*
X36112212Y-27795525D01*
X35987019Y-27920718D01*
X35945408Y-27836599D01*
X35876038Y-27805425D01*
X35999075Y-27682388D01*
X35945408Y-27573899D01*
X35812449Y-27514148D01*
X35670388Y-27481485D01*
X35524685Y-27477164D01*
X35380938Y-27501351D01*
X35244672Y-27553117D01*
X35205792Y-27573899D01*
X35152125Y-27682388D01*
X35274299Y-27804562D01*
X35244672Y-27815817D01*
X35205792Y-27836599D01*
X35164181Y-27920718D01*
X35038988Y-27795525D01*
X34930499Y-27849192D01*
X34887000Y-27945987D01*
X34887000Y-25477019D01*
X34909417Y-25536028D01*
X34930199Y-25574908D01*
X35038688Y-25628575D01*
X35173611Y-25493652D01*
X35205492Y-25558101D01*
X35295146Y-25598391D01*
X35151825Y-25741712D01*
X35205492Y-25850201D01*
X35338451Y-25909952D01*
X35480512Y-25942615D01*
X35626215Y-25946936D01*
X35769962Y-25922749D01*
X35906228Y-25870983D01*
X35945108Y-25850201D01*
X35998775Y-25741712D01*
X35855295Y-25598232D01*
X35906228Y-25578883D01*
X35945108Y-25558101D01*
X35976989Y-25493652D01*
X36111912Y-25628575D01*
X36220401Y-25574908D01*
X36280152Y-25441949D01*
X36312815Y-25299888D01*
X36317136Y-25154185D01*
X36301086Y-25058799D01*
X36312815Y-25007788D01*
X36317136Y-24862085D01*
X36296151Y-24737366D01*
X36312815Y-24664888D01*
X36317136Y-24519185D01*
X36299852Y-24416466D01*
X36312815Y-24360088D01*
X36317136Y-24214385D01*
X36302193Y-24125579D01*
X36312515Y-24080688D01*
X36316836Y-23934985D01*
X36294965Y-23805000D01*
X37604590Y-23805000D01*
X37805204Y-23824670D01*
X37983344Y-23878454D01*
X38147653Y-23965819D01*
X38291861Y-24083431D01*
X38410477Y-24226813D01*
X38498988Y-24390511D01*
X38554015Y-24568275D01*
X38575001Y-24767942D01*
X38575001Y-26767312D01*
X38466658Y-26605166D01*
X38314834Y-26453342D01*
X38136309Y-26334055D01*
X37937941Y-26251888D01*
X37727356Y-26210000D01*
X37512644Y-26210000D01*
X37302059Y-26251888D01*
X37103691Y-26334055D01*
X36925166Y-26453342D01*
X36773342Y-26605166D01*
X36654055Y-26783691D01*
X36571888Y-26982059D01*
X36530000Y-27192644D01*
X36530000Y-27407356D01*
X36571888Y-27617941D01*
X36654055Y-27816309D01*
X36773342Y-27994834D01*
X36925166Y-28146658D01*
X37103691Y-28265945D01*
X37302059Y-28348112D01*
X37512644Y-28390000D01*
X37727356Y-28390000D01*
X37937941Y-28348112D01*
X38136309Y-28265945D01*
X38314834Y-28146658D01*
X38466658Y-27994834D01*
X38575001Y-27832688D01*
X38575001Y-29308023D01*
X38550751Y-29262655D01*
X38406429Y-29166708D01*
X37733137Y-29840000D01*
X38406429Y-30513292D01*
X38550751Y-30417345D01*
X38575001Y-30368033D01*
X38575001Y-31847312D01*
X38466658Y-31685166D01*
X38314834Y-31533342D01*
X38136309Y-31414055D01*
X37937941Y-31331888D01*
X37727356Y-31290000D01*
X37512644Y-31290000D01*
X37302059Y-31331888D01*
X37105750Y-31413202D01*
X36339895Y-30647348D01*
X36329869Y-30635131D01*
X36319266Y-30626429D01*
X36946708Y-30626429D01*
X37042655Y-30770751D01*
X37235330Y-30865501D01*
X37442786Y-30920842D01*
X37657053Y-30934647D01*
X37869896Y-30906386D01*
X38073136Y-30837143D01*
X38197345Y-30770751D01*
X38293292Y-30626429D01*
X37620000Y-29953137D01*
X36946708Y-30626429D01*
X36319266Y-30626429D01*
X36281142Y-30595143D01*
X36225551Y-30565428D01*
X36165231Y-30547130D01*
X36118218Y-30542500D01*
X36118213Y-30542500D01*
X36102500Y-30540952D01*
X36086787Y-30542500D01*
X35903828Y-30542500D01*
X35881152Y-30467750D01*
X35838652Y-30388237D01*
X35781456Y-30318544D01*
X35711763Y-30261348D01*
X35632250Y-30218848D01*
X35545974Y-30192676D01*
X35456250Y-30183839D01*
X34943750Y-30183839D01*
X34854026Y-30192676D01*
X34767750Y-30218848D01*
X34688237Y-30261348D01*
X34618544Y-30318544D01*
X34561348Y-30388237D01*
X34518848Y-30467750D01*
X34492676Y-30554026D01*
X34483839Y-30643750D01*
X34483839Y-31081250D01*
X34492676Y-31170974D01*
X34518848Y-31257250D01*
X34561348Y-31336763D01*
X34618544Y-31406456D01*
X34688237Y-31463652D01*
X34767750Y-31506152D01*
X34854026Y-31532324D01*
X34943750Y-31541161D01*
X35456250Y-31541161D01*
X35545974Y-31532324D01*
X35632250Y-31506152D01*
X35711763Y-31463652D01*
X35781456Y-31406456D01*
X35838652Y-31336763D01*
X35881152Y-31257250D01*
X35903828Y-31182500D01*
X35969953Y-31182500D01*
X36653202Y-31865750D01*
X36571888Y-32062059D01*
X36530000Y-32272644D01*
X36530000Y-32396387D01*
X36305529Y-32171916D01*
X36293158Y-32156842D01*
X36233012Y-32107481D01*
X36164391Y-32070802D01*
X36089933Y-32048216D01*
X36031901Y-32042500D01*
X36031894Y-32042500D01*
X36012500Y-32040590D01*
X35993106Y-32042500D01*
X35881018Y-32042500D01*
X35838652Y-31963237D01*
X35781456Y-31893544D01*
X35711763Y-31836348D01*
X35632250Y-31793848D01*
X35545974Y-31767676D01*
X35456250Y-31758839D01*
X34943750Y-31758839D01*
X34854026Y-31767676D01*
X34767750Y-31793848D01*
X34688237Y-31836348D01*
X34618544Y-31893544D01*
X34561348Y-31963237D01*
X34518848Y-32042750D01*
X34492676Y-32129026D01*
X34483839Y-32218750D01*
X34483839Y-32656250D01*
X34492676Y-32745974D01*
X34518848Y-32832250D01*
X34561348Y-32911763D01*
X34618544Y-32981456D01*
X34688237Y-33038652D01*
X34767750Y-33081152D01*
X34854026Y-33107324D01*
X34943750Y-33116161D01*
X35456250Y-33116161D01*
X35545974Y-33107324D01*
X35632250Y-33081152D01*
X35711763Y-33038652D01*
X35781456Y-32981456D01*
X35838652Y-32911763D01*
X35869826Y-32853439D01*
X37023814Y-34007427D01*
X36925166Y-34073342D01*
X36773342Y-34225166D01*
X36654055Y-34403691D01*
X36571888Y-34602059D01*
X36530000Y-34812644D01*
X36530000Y-35027356D01*
X36571888Y-35237941D01*
X36639808Y-35401915D01*
X36342431Y-35401915D01*
X36326715Y-35400367D01*
X36310999Y-35401915D01*
X36310997Y-35401915D01*
X36263984Y-35406545D01*
X36225896Y-35418099D01*
X36203663Y-35424843D01*
X36148072Y-35454557D01*
X36128632Y-35470512D01*
X36099346Y-35494546D01*
X36089325Y-35506757D01*
X35913575Y-35682508D01*
X35916161Y-35656250D01*
X35916161Y-35218750D01*
X35907324Y-35129026D01*
X35881152Y-35042750D01*
X35838652Y-34963237D01*
X35781456Y-34893544D01*
X35711763Y-34836348D01*
X35632250Y-34793848D01*
X35545974Y-34767676D01*
X35456250Y-34758839D01*
X34943750Y-34758839D01*
X34854026Y-34767676D01*
X34767750Y-34793848D01*
X34688237Y-34836348D01*
X34618544Y-34893544D01*
X34561348Y-34963237D01*
X34518848Y-35042750D01*
X34492676Y-35129026D01*
X34483839Y-35218750D01*
X34483839Y-35656250D01*
X34487861Y-35697091D01*
X34393540Y-35791412D01*
X34407324Y-35745974D01*
X34416161Y-35656250D01*
X34416161Y-35218750D01*
X34407324Y-35129026D01*
X34381152Y-35042750D01*
X34338652Y-34963237D01*
X34281456Y-34893544D01*
X34211763Y-34836348D01*
X34132250Y-34793848D01*
X34045974Y-34767676D01*
X33956250Y-34758839D01*
X33443750Y-34758839D01*
X33354026Y-34767676D01*
X33267750Y-34793848D01*
X33188237Y-34836348D01*
X33118544Y-34893544D01*
X33061348Y-34963237D01*
X33018848Y-35042750D01*
X32992676Y-35129026D01*
X32983839Y-35218750D01*
X32983839Y-35656250D01*
X32992676Y-35745974D01*
X33018848Y-35832250D01*
X33025522Y-35844736D01*
X32916161Y-35954097D01*
X32916161Y-35768750D01*
X32907324Y-35679026D01*
X32881152Y-35592750D01*
X32838652Y-35513237D01*
X32781456Y-35443544D01*
X32711763Y-35386348D01*
X32632250Y-35343848D01*
X32545974Y-35317676D01*
X32456250Y-35308839D01*
X31943750Y-35308839D01*
X31854026Y-35317676D01*
X31767750Y-35343848D01*
X31688237Y-35386348D01*
X31618544Y-35443544D01*
X31561348Y-35513237D01*
X31518848Y-35592750D01*
X31492676Y-35679026D01*
X31483839Y-35768750D01*
X31483839Y-36206250D01*
X31492676Y-36295974D01*
X31518848Y-36382250D01*
X31561348Y-36461763D01*
X31618544Y-36531456D01*
X31649062Y-36556502D01*
X31416161Y-36789404D01*
X31416161Y-36568750D01*
X31407324Y-36479026D01*
X31381152Y-36392750D01*
X31338652Y-36313237D01*
X31281456Y-36243544D01*
X31211763Y-36186348D01*
X31132250Y-36143848D01*
X31045974Y-36117676D01*
X30956250Y-36108839D01*
X30443750Y-36108839D01*
X30354026Y-36117676D01*
X30267750Y-36143848D01*
X30188237Y-36186348D01*
X30118544Y-36243544D01*
X30061348Y-36313237D01*
X30018848Y-36392750D01*
X29992676Y-36479026D01*
X29983839Y-36568750D01*
X29983839Y-37006250D01*
X29992676Y-37095974D01*
X30018848Y-37182250D01*
X30061348Y-37261763D01*
X30118544Y-37331456D01*
X30188237Y-37388652D01*
X30267750Y-37431152D01*
X30354026Y-37457324D01*
X30380000Y-37459882D01*
X30380000Y-37561108D01*
X29787170Y-37561108D01*
X29771454Y-37559560D01*
X29755738Y-37561108D01*
X29755736Y-37561108D01*
X29708723Y-37565738D01*
X29663445Y-37579473D01*
X29648402Y-37584036D01*
X29592811Y-37613751D01*
X29567489Y-37634532D01*
X29544085Y-37653739D01*
X29534065Y-37665949D01*
X29520000Y-37680014D01*
X29520000Y-37459882D01*
X29545974Y-37457324D01*
X29632250Y-37431152D01*
X29711763Y-37388652D01*
X29781456Y-37331456D01*
X29838652Y-37261763D01*
X29881152Y-37182250D01*
X29907324Y-37095974D01*
X29916161Y-37006250D01*
X29916161Y-36568750D01*
X29907324Y-36479026D01*
X29881152Y-36392750D01*
X29838652Y-36313237D01*
X29781456Y-36243544D01*
X29711763Y-36186348D01*
X29632250Y-36143848D01*
X29545974Y-36117676D01*
X29456250Y-36108839D01*
X28943750Y-36108839D01*
X28854026Y-36117676D01*
X28767750Y-36143848D01*
X28688237Y-36186348D01*
X28618544Y-36243544D01*
X28561348Y-36313237D01*
X28518848Y-36392750D01*
X28492676Y-36479026D01*
X28483839Y-36568750D01*
X28483839Y-37006250D01*
X28492676Y-37095974D01*
X28518848Y-37182250D01*
X28561348Y-37261763D01*
X28618544Y-37331456D01*
X28688237Y-37388652D01*
X28767750Y-37431152D01*
X28854026Y-37457324D01*
X28880001Y-37459882D01*
X28880001Y-37867450D01*
X28339363Y-38408090D01*
X28327147Y-38418115D01*
X28304096Y-38446204D01*
X28287159Y-38466842D01*
X28280116Y-38480019D01*
X28257444Y-38522434D01*
X28239146Y-38582754D01*
X28234516Y-38629766D01*
X28232968Y-38645484D01*
X28234516Y-38661197D01*
X28234517Y-40224580D01*
X28232968Y-40240303D01*
X28235418Y-40265169D01*
X28239147Y-40303034D01*
X28255883Y-40358204D01*
X28257445Y-40363354D01*
X28287159Y-40418945D01*
X28287695Y-40419599D01*
X28233021Y-40443258D01*
X28223366Y-40517264D01*
X28677675Y-40971573D01*
X28698889Y-40950360D01*
X28812026Y-41063497D01*
X28790812Y-41084710D01*
X28804955Y-41098853D01*
X28705960Y-41197848D01*
X28691817Y-41183705D01*
X28670604Y-41204919D01*
X28557467Y-41091782D01*
X28578680Y-41070568D01*
X28124371Y-40616259D01*
X28050365Y-40625914D01*
X28028648Y-40676100D01*
X28020000Y-40667453D01*
X28020000Y-37459882D01*
X28045974Y-37457324D01*
X28132250Y-37431152D01*
X28211763Y-37388652D01*
X28281456Y-37331456D01*
X28338652Y-37261763D01*
X28381152Y-37182250D01*
X28407324Y-37095974D01*
X28416161Y-37006250D01*
X28416161Y-36568750D01*
X28407324Y-36479026D01*
X28381152Y-36392750D01*
X28338652Y-36313237D01*
X28281456Y-36243544D01*
X28211763Y-36186348D01*
X28132250Y-36143848D01*
X28045974Y-36117676D01*
X27956250Y-36108839D01*
X27443750Y-36108839D01*
X27354026Y-36117676D01*
X27267750Y-36143848D01*
X27188237Y-36186348D01*
X27118544Y-36243544D01*
X27061348Y-36313237D01*
X27018848Y-36392750D01*
X26992676Y-36479026D01*
X26983839Y-36568750D01*
X26983839Y-37006250D01*
X26992676Y-37095974D01*
X27018848Y-37182250D01*
X27061348Y-37261763D01*
X27118544Y-37331456D01*
X27188237Y-37388652D01*
X27267750Y-37431152D01*
X27354026Y-37457324D01*
X27380000Y-37459882D01*
X27380001Y-39649997D01*
X26696653Y-38966650D01*
X26734232Y-38910408D01*
X26771170Y-38821234D01*
X26790000Y-38726567D01*
X26790000Y-38630045D01*
X26771170Y-38535378D01*
X26734232Y-38446204D01*
X26680608Y-38365949D01*
X26612357Y-38297698D01*
X26532102Y-38244074D01*
X26442928Y-38207136D01*
X26373668Y-38193360D01*
X26114722Y-37934415D01*
X26102352Y-37919342D01*
X26087279Y-37906972D01*
X26064723Y-37884416D01*
X26052352Y-37869342D01*
X25992206Y-37819981D01*
X25941161Y-37792697D01*
X25941161Y-37750000D01*
X25936527Y-37702952D01*
X25922804Y-37657712D01*
X25910821Y-37635293D01*
X26079953Y-37466161D01*
X26456250Y-37466161D01*
X26545974Y-37457324D01*
X26632250Y-37431152D01*
X26711763Y-37388652D01*
X26781456Y-37331456D01*
X26838652Y-37261763D01*
X26881152Y-37182250D01*
X26907324Y-37095974D01*
X26916161Y-37006250D01*
X26916161Y-36493750D01*
X26907324Y-36404026D01*
X26881152Y-36317750D01*
X26838652Y-36238237D01*
X26781456Y-36168544D01*
X26711763Y-36111348D01*
X26632500Y-36068982D01*
X26632500Y-35931018D01*
X26711763Y-35888652D01*
X26781456Y-35831456D01*
X26838652Y-35761763D01*
X26881152Y-35682250D01*
X26890935Y-35650000D01*
X26983839Y-35650000D01*
X26988473Y-35697048D01*
X27002196Y-35742288D01*
X27024482Y-35783982D01*
X27054473Y-35820527D01*
X27091018Y-35850518D01*
X27132712Y-35872804D01*
X27177952Y-35886527D01*
X27225000Y-35891161D01*
X27560000Y-35890000D01*
X27620000Y-35830000D01*
X27620000Y-35292500D01*
X27780000Y-35292500D01*
X27780000Y-35830000D01*
X27840000Y-35890000D01*
X28175000Y-35891161D01*
X28222048Y-35886527D01*
X28267288Y-35872804D01*
X28308982Y-35850518D01*
X28345527Y-35820527D01*
X28375518Y-35783982D01*
X28397804Y-35742288D01*
X28411527Y-35697048D01*
X28416161Y-35650000D01*
X28415000Y-35352500D01*
X28355000Y-35292500D01*
X27780000Y-35292500D01*
X27620000Y-35292500D01*
X27045000Y-35292500D01*
X26985000Y-35352500D01*
X26983839Y-35650000D01*
X26890935Y-35650000D01*
X26907324Y-35595974D01*
X26916161Y-35506250D01*
X26916161Y-34993750D01*
X26907324Y-34904026D01*
X26881152Y-34817750D01*
X26858302Y-34775000D01*
X26983839Y-34775000D01*
X26985000Y-35072500D01*
X27045000Y-35132500D01*
X27620000Y-35132500D01*
X27620000Y-34595000D01*
X27780000Y-34595000D01*
X27780000Y-35132500D01*
X28355000Y-35132500D01*
X28415000Y-35072500D01*
X28416161Y-34775000D01*
X28411527Y-34727952D01*
X28397804Y-34682712D01*
X28375518Y-34641018D01*
X28345527Y-34604473D01*
X28308982Y-34574482D01*
X28267288Y-34552196D01*
X28222048Y-34538473D01*
X28175000Y-34533839D01*
X27840000Y-34535000D01*
X27780000Y-34595000D01*
X27620000Y-34595000D01*
X27560000Y-34535000D01*
X27225000Y-34533839D01*
X27177952Y-34538473D01*
X27132712Y-34552196D01*
X27091018Y-34574482D01*
X27054473Y-34604473D01*
X27024482Y-34641018D01*
X27002196Y-34682712D01*
X26988473Y-34727952D01*
X26983839Y-34775000D01*
X26858302Y-34775000D01*
X26838652Y-34738237D01*
X26781456Y-34668544D01*
X26711763Y-34611348D01*
X26632250Y-34568848D01*
X26588076Y-34555448D01*
X26567519Y-34516988D01*
X26518158Y-34456842D01*
X26503089Y-34444475D01*
X26188735Y-34130121D01*
X26206723Y-34070821D01*
X26216161Y-33975000D01*
X26216161Y-33225000D01*
X26206723Y-33129179D01*
X26178774Y-33037041D01*
X26133385Y-32952126D01*
X26072303Y-32877697D01*
X25997874Y-32816615D01*
X25912959Y-32771226D01*
X25820821Y-32743277D01*
X25725000Y-32733839D01*
X24475000Y-32733839D01*
X24379179Y-32743277D01*
X24287041Y-32771226D01*
X24202126Y-32816615D01*
X24127697Y-32877697D01*
X24066615Y-32952126D01*
X24021226Y-33037041D01*
X23993277Y-33129179D01*
X23983839Y-33225000D01*
X23983839Y-33975000D01*
X23993277Y-34070821D01*
X24021226Y-34162959D01*
X24066615Y-34247874D01*
X24127697Y-34322303D01*
X24202126Y-34383385D01*
X24287041Y-34428774D01*
X24379179Y-34456723D01*
X24475000Y-34466161D01*
X25407547Y-34466161D01*
X25655855Y-34714468D01*
X25636348Y-34738237D01*
X25593848Y-34817750D01*
X25567676Y-34904026D01*
X25558839Y-34993750D01*
X25558839Y-35506250D01*
X25567676Y-35595974D01*
X25593848Y-35682250D01*
X25636348Y-35761763D01*
X25693544Y-35831456D01*
X25763237Y-35888652D01*
X25842500Y-35931019D01*
X25842501Y-36068981D01*
X25763237Y-36111348D01*
X25693544Y-36168544D01*
X25636348Y-36238237D01*
X25593848Y-36317750D01*
X25567676Y-36404026D01*
X25558839Y-36493750D01*
X25558839Y-36870047D01*
X25340687Y-37088200D01*
X25340000Y-36890000D01*
X25280000Y-36830000D01*
X24742500Y-36830000D01*
X24742500Y-37405000D01*
X24802500Y-37465000D01*
X24963259Y-37465627D01*
X24920048Y-37508839D01*
X24500000Y-37508839D01*
X24452952Y-37513473D01*
X24407712Y-37527196D01*
X24366018Y-37549482D01*
X24329473Y-37579473D01*
X24299482Y-37616018D01*
X24277196Y-37657712D01*
X24263473Y-37702952D01*
X24258839Y-37750000D01*
X24258839Y-38650000D01*
X24263473Y-38697048D01*
X24277196Y-38742288D01*
X24299482Y-38783982D01*
X24329473Y-38820527D01*
X24366018Y-38850518D01*
X24407712Y-38872804D01*
X24452952Y-38886527D01*
X24500000Y-38891161D01*
X25700000Y-38891161D01*
X25747048Y-38886527D01*
X25792288Y-38872804D01*
X25833982Y-38850518D01*
X25839190Y-38846244D01*
X25865768Y-38910408D01*
X25905000Y-38969124D01*
X25905000Y-39019990D01*
X25091158Y-39019990D01*
X25075445Y-39018442D01*
X25059732Y-39019990D01*
X25059728Y-39019990D01*
X25012715Y-39024620D01*
X24952395Y-39042918D01*
X24926518Y-39056750D01*
X24896803Y-39072633D01*
X24871956Y-39093025D01*
X24848077Y-39112621D01*
X24838056Y-39124832D01*
X23254849Y-40708040D01*
X23242632Y-40718066D01*
X23220772Y-40744704D01*
X23202644Y-40766793D01*
X23191902Y-40786890D01*
X23172929Y-40822385D01*
X23154631Y-40882705D01*
X23150885Y-40920746D01*
X23148453Y-40945435D01*
X23150001Y-40961149D01*
X23150002Y-41317449D01*
X22894250Y-41573202D01*
X22697941Y-41491888D01*
X22487356Y-41450000D01*
X22272644Y-41450000D01*
X22062059Y-41491888D01*
X21863691Y-41574055D01*
X21685166Y-41693342D01*
X21533342Y-41845166D01*
X21425000Y-42007311D01*
X21425000Y-40532689D01*
X21533342Y-40694834D01*
X21685166Y-40846658D01*
X21863691Y-40965945D01*
X22062059Y-41048112D01*
X22272644Y-41090000D01*
X22487356Y-41090000D01*
X22697941Y-41048112D01*
X22896309Y-40965945D01*
X23074834Y-40846658D01*
X23226658Y-40694834D01*
X23345945Y-40516309D01*
X23428112Y-40317941D01*
X23470000Y-40107356D01*
X23470000Y-39892644D01*
X23428112Y-39682059D01*
X23345945Y-39483691D01*
X23226658Y-39305166D01*
X23074834Y-39153342D01*
X22896309Y-39034055D01*
X22697941Y-38951888D01*
X22487356Y-38910000D01*
X22272644Y-38910000D01*
X22062059Y-38951888D01*
X21863691Y-39034055D01*
X21685166Y-39153342D01*
X21533342Y-39305166D01*
X21425000Y-39467311D01*
X21425000Y-37992689D01*
X21533342Y-38154834D01*
X21685166Y-38306658D01*
X21863691Y-38425945D01*
X22062059Y-38508112D01*
X22272644Y-38550000D01*
X22487356Y-38550000D01*
X22697941Y-38508112D01*
X22896309Y-38425945D01*
X23074834Y-38306658D01*
X23226658Y-38154834D01*
X23345945Y-37976309D01*
X23428112Y-37777941D01*
X23470000Y-37567356D01*
X23470000Y-37352644D01*
X23444611Y-37225000D01*
X23983839Y-37225000D01*
X23988473Y-37272048D01*
X24002196Y-37317288D01*
X24024482Y-37358982D01*
X24054473Y-37395527D01*
X24091018Y-37425518D01*
X24132712Y-37447804D01*
X24177952Y-37461527D01*
X24225000Y-37466161D01*
X24522500Y-37465000D01*
X24582500Y-37405000D01*
X24582500Y-36830000D01*
X24045000Y-36830000D01*
X23985000Y-36890000D01*
X23983839Y-37225000D01*
X23444611Y-37225000D01*
X23428112Y-37142059D01*
X23345945Y-36943691D01*
X23226658Y-36765166D01*
X23074834Y-36613342D01*
X22896309Y-36494055D01*
X22697941Y-36411888D01*
X22487356Y-36370000D01*
X22272644Y-36370000D01*
X22062059Y-36411888D01*
X21863691Y-36494055D01*
X21685166Y-36613342D01*
X21533342Y-36765166D01*
X21425000Y-36927311D01*
X21425000Y-36275000D01*
X23983839Y-36275000D01*
X23985000Y-36610000D01*
X24045000Y-36670000D01*
X24582500Y-36670000D01*
X24582500Y-36095000D01*
X24742500Y-36095000D01*
X24742500Y-36670000D01*
X25280000Y-36670000D01*
X25340000Y-36610000D01*
X25341161Y-36275000D01*
X25336527Y-36227952D01*
X25322804Y-36182712D01*
X25300518Y-36141018D01*
X25270527Y-36104473D01*
X25233982Y-36074482D01*
X25192288Y-36052196D01*
X25147048Y-36038473D01*
X25100000Y-36033839D01*
X24802500Y-36035000D01*
X24742500Y-36095000D01*
X24582500Y-36095000D01*
X24522500Y-36035000D01*
X24225000Y-36033839D01*
X24177952Y-36038473D01*
X24132712Y-36052196D01*
X24091018Y-36074482D01*
X24054473Y-36104473D01*
X24024482Y-36141018D01*
X24002196Y-36182712D01*
X23988473Y-36227952D01*
X23983839Y-36275000D01*
X21425000Y-36275000D01*
X21425000Y-35706429D01*
X21706708Y-35706429D01*
X21802655Y-35850751D01*
X21995330Y-35945501D01*
X22202786Y-36000842D01*
X22417053Y-36014647D01*
X22629896Y-35986386D01*
X22833136Y-35917143D01*
X22957345Y-35850751D01*
X23040945Y-35725000D01*
X23983839Y-35725000D01*
X23988473Y-35772048D01*
X24002196Y-35817288D01*
X24024482Y-35858982D01*
X24054473Y-35895527D01*
X24091018Y-35925518D01*
X24132712Y-35947804D01*
X24177952Y-35961527D01*
X24225000Y-35966161D01*
X24522500Y-35965000D01*
X24582500Y-35905000D01*
X24582500Y-35330000D01*
X24742500Y-35330000D01*
X24742500Y-35905000D01*
X24802500Y-35965000D01*
X25100000Y-35966161D01*
X25147048Y-35961527D01*
X25192288Y-35947804D01*
X25233982Y-35925518D01*
X25270527Y-35895527D01*
X25300518Y-35858982D01*
X25322804Y-35817288D01*
X25336527Y-35772048D01*
X25341161Y-35725000D01*
X25340000Y-35390000D01*
X25280000Y-35330000D01*
X24742500Y-35330000D01*
X24582500Y-35330000D01*
X24045000Y-35330000D01*
X23985000Y-35390000D01*
X23983839Y-35725000D01*
X23040945Y-35725000D01*
X23053292Y-35706429D01*
X22380000Y-35033137D01*
X21706708Y-35706429D01*
X21425000Y-35706429D01*
X21425000Y-35451979D01*
X21449249Y-35497345D01*
X21593571Y-35593292D01*
X22266863Y-34920000D01*
X22493137Y-34920000D01*
X23166429Y-35593292D01*
X23310751Y-35497345D01*
X23405501Y-35304670D01*
X23460842Y-35097214D01*
X23474647Y-34882947D01*
X23460314Y-34775000D01*
X23983839Y-34775000D01*
X23985000Y-35110000D01*
X24045000Y-35170000D01*
X24582500Y-35170000D01*
X24582500Y-34595000D01*
X24742500Y-34595000D01*
X24742500Y-35170000D01*
X25280000Y-35170000D01*
X25340000Y-35110000D01*
X25341161Y-34775000D01*
X25336527Y-34727952D01*
X25322804Y-34682712D01*
X25300518Y-34641018D01*
X25270527Y-34604473D01*
X25233982Y-34574482D01*
X25192288Y-34552196D01*
X25147048Y-34538473D01*
X25100000Y-34533839D01*
X24802500Y-34535000D01*
X24742500Y-34595000D01*
X24582500Y-34595000D01*
X24522500Y-34535000D01*
X24225000Y-34533839D01*
X24177952Y-34538473D01*
X24132712Y-34552196D01*
X24091018Y-34574482D01*
X24054473Y-34604473D01*
X24024482Y-34641018D01*
X24002196Y-34682712D01*
X23988473Y-34727952D01*
X23983839Y-34775000D01*
X23460314Y-34775000D01*
X23446386Y-34670104D01*
X23377143Y-34466864D01*
X23310751Y-34342655D01*
X23166429Y-34246708D01*
X22493137Y-34920000D01*
X22266863Y-34920000D01*
X21593571Y-34246708D01*
X21449249Y-34342655D01*
X21425000Y-34391966D01*
X21425000Y-34133571D01*
X21706708Y-34133571D01*
X22380000Y-34806863D01*
X23053292Y-34133571D01*
X22957345Y-33989249D01*
X22764670Y-33894499D01*
X22557214Y-33839158D01*
X22342947Y-33825353D01*
X22130104Y-33853614D01*
X21926864Y-33922857D01*
X21802655Y-33989249D01*
X21706708Y-34133571D01*
X21425000Y-34133571D01*
X21425000Y-33166429D01*
X21706708Y-33166429D01*
X21802655Y-33310751D01*
X21995330Y-33405501D01*
X22202786Y-33460842D01*
X22417053Y-33474647D01*
X22629896Y-33446386D01*
X22833136Y-33377143D01*
X22957345Y-33310751D01*
X23053292Y-33166429D01*
X22380000Y-32493137D01*
X21706708Y-33166429D01*
X21425000Y-33166429D01*
X21425000Y-32911979D01*
X21449249Y-32957345D01*
X21593571Y-33053292D01*
X22266863Y-32380000D01*
X22493137Y-32380000D01*
X23166429Y-33053292D01*
X23310751Y-32957345D01*
X23405501Y-32764670D01*
X23460842Y-32557214D01*
X23474647Y-32342947D01*
X23465313Y-32272644D01*
X26370000Y-32272644D01*
X26370000Y-32487356D01*
X26411888Y-32697941D01*
X26494055Y-32896309D01*
X26613342Y-33074834D01*
X26765166Y-33226658D01*
X26943691Y-33345945D01*
X27142059Y-33428112D01*
X27352644Y-33470000D01*
X27567356Y-33470000D01*
X27777941Y-33428112D01*
X27974250Y-33346798D01*
X28880000Y-34252548D01*
X28880000Y-34540118D01*
X28854026Y-34542676D01*
X28767750Y-34568848D01*
X28688237Y-34611348D01*
X28618544Y-34668544D01*
X28561348Y-34738237D01*
X28518848Y-34817750D01*
X28492676Y-34904026D01*
X28483839Y-34993750D01*
X28483839Y-35431250D01*
X28492676Y-35520974D01*
X28518848Y-35607250D01*
X28561348Y-35686763D01*
X28618544Y-35756456D01*
X28688237Y-35813652D01*
X28767750Y-35856152D01*
X28854026Y-35882324D01*
X28943750Y-35891161D01*
X29456250Y-35891161D01*
X29545974Y-35882324D01*
X29632250Y-35856152D01*
X29711763Y-35813652D01*
X29781456Y-35756456D01*
X29838652Y-35686763D01*
X29881152Y-35607250D01*
X29907324Y-35520974D01*
X29916161Y-35431250D01*
X29916161Y-34993750D01*
X29907324Y-34904026D01*
X29881152Y-34817750D01*
X29838652Y-34738237D01*
X29781456Y-34668544D01*
X29711763Y-34611348D01*
X29632250Y-34568848D01*
X29545974Y-34542676D01*
X29520000Y-34540118D01*
X29520000Y-34135716D01*
X29521548Y-34120000D01*
X29520000Y-34104282D01*
X29515370Y-34057269D01*
X29498756Y-34002500D01*
X29497072Y-33996948D01*
X29467358Y-33941357D01*
X29437388Y-33904840D01*
X29427369Y-33892631D01*
X29415159Y-33882611D01*
X28426798Y-32894250D01*
X28508112Y-32697941D01*
X28550000Y-32487356D01*
X28550000Y-32272644D01*
X28508112Y-32062059D01*
X28425945Y-31863691D01*
X28306658Y-31685166D01*
X28154834Y-31533342D01*
X27976309Y-31414055D01*
X27777941Y-31331888D01*
X27567356Y-31290000D01*
X27352644Y-31290000D01*
X27142059Y-31331888D01*
X26943691Y-31414055D01*
X26765166Y-31533342D01*
X26613342Y-31685166D01*
X26494055Y-31863691D01*
X26411888Y-32062059D01*
X26370000Y-32272644D01*
X23465313Y-32272644D01*
X23446386Y-32130104D01*
X23377143Y-31926864D01*
X23310751Y-31802655D01*
X23166429Y-31706708D01*
X22493137Y-32380000D01*
X22266863Y-32380000D01*
X21593571Y-31706708D01*
X21449249Y-31802655D01*
X21425000Y-31851966D01*
X21425000Y-31593571D01*
X21706708Y-31593571D01*
X22380000Y-32266863D01*
X23053292Y-31593571D01*
X22957345Y-31449249D01*
X22764670Y-31354499D01*
X22557214Y-31299158D01*
X22342947Y-31285353D01*
X22130104Y-31313614D01*
X21926864Y-31382857D01*
X21802655Y-31449249D01*
X21706708Y-31593571D01*
X21425000Y-31593571D01*
X21425000Y-30372689D01*
X21533342Y-30534834D01*
X21685166Y-30686658D01*
X21863691Y-30805945D01*
X22062059Y-30888112D01*
X22272644Y-30930000D01*
X22487356Y-30930000D01*
X22697941Y-30888112D01*
X22896309Y-30805945D01*
X23074834Y-30686658D01*
X23226658Y-30534834D01*
X23345945Y-30356309D01*
X23428112Y-30157941D01*
X23470000Y-29947356D01*
X23470000Y-29900000D01*
X26288839Y-29900000D01*
X26293473Y-29947048D01*
X26307196Y-29992288D01*
X26329482Y-30033982D01*
X26359473Y-30070527D01*
X26396018Y-30100518D01*
X26437712Y-30122804D01*
X26482952Y-30136527D01*
X26530000Y-30141161D01*
X26660000Y-30140000D01*
X26720000Y-30080000D01*
X26720000Y-29580000D01*
X26350000Y-29580000D01*
X26290000Y-29640000D01*
X26288839Y-29900000D01*
X23470000Y-29900000D01*
X23470000Y-29732644D01*
X23428112Y-29522059D01*
X23345945Y-29323691D01*
X23226658Y-29145166D01*
X23074834Y-28993342D01*
X22896309Y-28874055D01*
X22697941Y-28791888D01*
X22487356Y-28750000D01*
X22272644Y-28750000D01*
X22062059Y-28791888D01*
X21863691Y-28874055D01*
X21685166Y-28993342D01*
X21533342Y-29145166D01*
X21425000Y-29307311D01*
X21425000Y-27832689D01*
X21533342Y-27994834D01*
X21685166Y-28146658D01*
X21863691Y-28265945D01*
X22062059Y-28348112D01*
X22272644Y-28390000D01*
X22487356Y-28390000D01*
X22697941Y-28348112D01*
X22896309Y-28265945D01*
X23074834Y-28146658D01*
X23226658Y-27994834D01*
X23345945Y-27816309D01*
X23428112Y-27617941D01*
X23470000Y-27407356D01*
X23470000Y-27192644D01*
X23428112Y-26982059D01*
X23345945Y-26783691D01*
X23226658Y-26605166D01*
X23074834Y-26453342D01*
X22896309Y-26334055D01*
X22697941Y-26251888D01*
X22487356Y-26210000D01*
X22272644Y-26210000D01*
X22062059Y-26251888D01*
X21863691Y-26334055D01*
X21685166Y-26453342D01*
X21533342Y-26605166D01*
X21425000Y-26767311D01*
X21425000Y-24775410D01*
X21444670Y-24574796D01*
X21498454Y-24396656D01*
X21585819Y-24232347D01*
X21703431Y-24088139D01*
X21846813Y-23969523D01*
X22010511Y-23881012D01*
X22188275Y-23825985D01*
X22387933Y-23805000D01*
X23703764Y-23805000D01*
X23686885Y-23878412D01*
G37*
X23686885Y-23878412D02*
X23682564Y-24024115D01*
X23697507Y-24112921D01*
X23687185Y-24157812D01*
X23682864Y-24303515D01*
X23700148Y-24406234D01*
X23687185Y-24462612D01*
X23682864Y-24608315D01*
X23703849Y-24733034D01*
X23687185Y-24805512D01*
X23682864Y-24951215D01*
X23698914Y-25046601D01*
X23687185Y-25097612D01*
X23682864Y-25243315D01*
X23707051Y-25387062D01*
X23758817Y-25523328D01*
X23779599Y-25562208D01*
X23888088Y-25615875D01*
X24023011Y-25480952D01*
X24054892Y-25545401D01*
X24144546Y-25585691D01*
X24001225Y-25729012D01*
X24054892Y-25837501D01*
X24187851Y-25897252D01*
X24329912Y-25929915D01*
X24475615Y-25934236D01*
X24619362Y-25910049D01*
X24755628Y-25858283D01*
X24794508Y-25837501D01*
X24848175Y-25729012D01*
X24704695Y-25585532D01*
X24755628Y-25566183D01*
X24794508Y-25545401D01*
X24826389Y-25480952D01*
X24961312Y-25615875D01*
X25069801Y-25562208D01*
X25113000Y-25466080D01*
X25113001Y-27946294D01*
X25090883Y-27888072D01*
X25070101Y-27849192D01*
X24961612Y-27795525D01*
X24836419Y-27920718D01*
X24794808Y-27836599D01*
X24725438Y-27805425D01*
X24848475Y-27682388D01*
X24794808Y-27573899D01*
X24661849Y-27514148D01*
X24519788Y-27481485D01*
X24374085Y-27477164D01*
X24230338Y-27501351D01*
X24094072Y-27553117D01*
X24055192Y-27573899D01*
X24001525Y-27682388D01*
X24123699Y-27804562D01*
X24094072Y-27815817D01*
X24055192Y-27836599D01*
X24013581Y-27920718D01*
X23888388Y-27795525D01*
X23779899Y-27849192D01*
X23720148Y-27982151D01*
X23687485Y-28124212D01*
X23683164Y-28269915D01*
X23696357Y-28348324D01*
X23687485Y-28386912D01*
X23683164Y-28532615D01*
X23695385Y-28605247D01*
X23687185Y-28640912D01*
X23682864Y-28786615D01*
X23694493Y-28855730D01*
X23687485Y-28886212D01*
X23683164Y-29031915D01*
X23707351Y-29175662D01*
X23759117Y-29311928D01*
X23779899Y-29350808D01*
X23888388Y-29404475D01*
X24007621Y-29285242D01*
X24054892Y-29380801D01*
X24112464Y-29406673D01*
X24001525Y-29517612D01*
X24055192Y-29626101D01*
X24188151Y-29685852D01*
X24330212Y-29718515D01*
X24475915Y-29722836D01*
X24619662Y-29698649D01*
X24755928Y-29646883D01*
X24794808Y-29626101D01*
X24848475Y-29517612D01*
X24738828Y-29407965D01*
X24755628Y-29401583D01*
X24794508Y-29380801D01*
X24841977Y-29284840D01*
X24961612Y-29404475D01*
X25070101Y-29350808D01*
X25129852Y-29217849D01*
X25131888Y-29208992D01*
X25135570Y-29221128D01*
X25164820Y-29275851D01*
X25204184Y-29323816D01*
X25252149Y-29363180D01*
X25306872Y-29392430D01*
X25366249Y-29410442D01*
X25412527Y-29415000D01*
X25428000Y-29416524D01*
X25443473Y-29415000D01*
X26345000Y-29415000D01*
X26350000Y-29420000D01*
X26720000Y-29420000D01*
X26720000Y-29415000D01*
X26880000Y-29415000D01*
X26880000Y-29420000D01*
X26900000Y-29420000D01*
X26900000Y-29580000D01*
X26880000Y-29580000D01*
X26880000Y-30080000D01*
X26940000Y-30140000D01*
X26971142Y-30140278D01*
X26953830Y-30182072D01*
X26940053Y-30251333D01*
X26786387Y-30405000D01*
X26214191Y-30405000D01*
X26206723Y-30329179D01*
X26178774Y-30237041D01*
X26133385Y-30152126D01*
X26072303Y-30077697D01*
X25997874Y-30016615D01*
X25912959Y-29971226D01*
X25820821Y-29943277D01*
X25725000Y-29933839D01*
X24475000Y-29933839D01*
X24379179Y-29943277D01*
X24287041Y-29971226D01*
X24202126Y-30016615D01*
X24127697Y-30077697D01*
X24066615Y-30152126D01*
X24021226Y-30237041D01*
X23993277Y-30329179D01*
X23983839Y-30425000D01*
X23983839Y-31175000D01*
X23993277Y-31270821D01*
X24021226Y-31362959D01*
X24066615Y-31447874D01*
X24127697Y-31522303D01*
X24202126Y-31583385D01*
X24287041Y-31628774D01*
X24379179Y-31656723D01*
X24475000Y-31666161D01*
X25725000Y-31666161D01*
X25820821Y-31656723D01*
X25912959Y-31628774D01*
X25997874Y-31583385D01*
X26072303Y-31522303D01*
X26133385Y-31447874D01*
X26178774Y-31362959D01*
X26206723Y-31270821D01*
X26214191Y-31195000D01*
X26930606Y-31195000D01*
X26950000Y-31196910D01*
X26969394Y-31195000D01*
X26969401Y-31195000D01*
X27027433Y-31189284D01*
X27101891Y-31166698D01*
X27170512Y-31130019D01*
X27230658Y-31080658D01*
X27243029Y-31065584D01*
X27498667Y-30809947D01*
X27567928Y-30796170D01*
X27657102Y-30759232D01*
X27737357Y-30705608D01*
X27805608Y-30637357D01*
X27859232Y-30557102D01*
X27896170Y-30467928D01*
X27910917Y-30393787D01*
X27930019Y-30370512D01*
X27965675Y-30303804D01*
X27982643Y-30335549D01*
X28004932Y-30362708D01*
X28022632Y-30384276D01*
X28034843Y-30394297D01*
X28180961Y-30540415D01*
X28180961Y-30626129D01*
X28199791Y-30720796D01*
X28236729Y-30809970D01*
X28290353Y-30890225D01*
X28358604Y-30958476D01*
X28438859Y-31012100D01*
X28521057Y-31046149D01*
X28510000Y-31101739D01*
X28510000Y-31198261D01*
X28528830Y-31292928D01*
X28565768Y-31382102D01*
X28619392Y-31462357D01*
X28687643Y-31530608D01*
X28767898Y-31584232D01*
X28857072Y-31621170D01*
X28951739Y-31640000D01*
X29048261Y-31640000D01*
X29142928Y-31621170D01*
X29232102Y-31584232D01*
X29298925Y-31539583D01*
X29153342Y-31685166D01*
X29034055Y-31863691D01*
X28951888Y-32062059D01*
X28910000Y-32272644D01*
X28910000Y-32487356D01*
X28951888Y-32697941D01*
X29034055Y-32896309D01*
X29153342Y-33074834D01*
X29305166Y-33226658D01*
X29483691Y-33345945D01*
X29682059Y-33428112D01*
X29689762Y-33429644D01*
X29702625Y-33472048D01*
X29702929Y-33473051D01*
X29732643Y-33528642D01*
X29757543Y-33558982D01*
X29772632Y-33577369D01*
X29784843Y-33587390D01*
X30380001Y-34182550D01*
X30380001Y-34540118D01*
X30354026Y-34542676D01*
X30267750Y-34568848D01*
X30188237Y-34611348D01*
X30118544Y-34668544D01*
X30061348Y-34738237D01*
X30018848Y-34817750D01*
X29992676Y-34904026D01*
X29983839Y-34993750D01*
X29983839Y-35431250D01*
X29992676Y-35520974D01*
X30018848Y-35607250D01*
X30061348Y-35686763D01*
X30118544Y-35756456D01*
X30188237Y-35813652D01*
X30267750Y-35856152D01*
X30354026Y-35882324D01*
X30443750Y-35891161D01*
X30956250Y-35891161D01*
X31045974Y-35882324D01*
X31132250Y-35856152D01*
X31211763Y-35813652D01*
X31281456Y-35756456D01*
X31338652Y-35686763D01*
X31381152Y-35607250D01*
X31407324Y-35520974D01*
X31416161Y-35431250D01*
X31416161Y-34993750D01*
X31407324Y-34904026D01*
X31390936Y-34850000D01*
X31483839Y-34850000D01*
X31488473Y-34897048D01*
X31502196Y-34942288D01*
X31524482Y-34983982D01*
X31554473Y-35020527D01*
X31591018Y-35050518D01*
X31632712Y-35072804D01*
X31677952Y-35086527D01*
X31725000Y-35091161D01*
X32060000Y-35090000D01*
X32120000Y-35030000D01*
X32120000Y-34492500D01*
X32280000Y-34492500D01*
X32280000Y-35030000D01*
X32340000Y-35090000D01*
X32675000Y-35091161D01*
X32722048Y-35086527D01*
X32767288Y-35072804D01*
X32808982Y-35050518D01*
X32845527Y-35020527D01*
X32875518Y-34983982D01*
X32897804Y-34942288D01*
X32911527Y-34897048D01*
X32916161Y-34850000D01*
X32915000Y-34552500D01*
X32855000Y-34492500D01*
X32280000Y-34492500D01*
X32120000Y-34492500D01*
X31545000Y-34492500D01*
X31485000Y-34552500D01*
X31483839Y-34850000D01*
X31390936Y-34850000D01*
X31381152Y-34817750D01*
X31338652Y-34738237D01*
X31281456Y-34668544D01*
X31211763Y-34611348D01*
X31132250Y-34568848D01*
X31045974Y-34542676D01*
X31020000Y-34540118D01*
X31020000Y-34065705D01*
X31021547Y-34049999D01*
X31020000Y-34034293D01*
X31020000Y-34034282D01*
X31015370Y-33987269D01*
X31011649Y-33975000D01*
X31483839Y-33975000D01*
X31485000Y-34272500D01*
X31545000Y-34332500D01*
X32120000Y-34332500D01*
X32120000Y-33795000D01*
X32280000Y-33795000D01*
X32280000Y-34332500D01*
X32855000Y-34332500D01*
X32887500Y-34300000D01*
X32983839Y-34300000D01*
X32988473Y-34347048D01*
X33002196Y-34392288D01*
X33024482Y-34433982D01*
X33054473Y-34470527D01*
X33091018Y-34500518D01*
X33132712Y-34522804D01*
X33177952Y-34536527D01*
X33225000Y-34541161D01*
X33560000Y-34540000D01*
X33620000Y-34480000D01*
X33620000Y-33942500D01*
X33780000Y-33942500D01*
X33780000Y-34480000D01*
X33840000Y-34540000D01*
X34175000Y-34541161D01*
X34222048Y-34536527D01*
X34267288Y-34522804D01*
X34308982Y-34500518D01*
X34345527Y-34470527D01*
X34375518Y-34433982D01*
X34397804Y-34392288D01*
X34411527Y-34347048D01*
X34416161Y-34300000D01*
X34483839Y-34300000D01*
X34488473Y-34347048D01*
X34502196Y-34392288D01*
X34524482Y-34433982D01*
X34554473Y-34470527D01*
X34591018Y-34500518D01*
X34632712Y-34522804D01*
X34677952Y-34536527D01*
X34725000Y-34541161D01*
X35060000Y-34540000D01*
X35120000Y-34480000D01*
X35120000Y-33942500D01*
X35280000Y-33942500D01*
X35280000Y-34480000D01*
X35340000Y-34540000D01*
X35675000Y-34541161D01*
X35722048Y-34536527D01*
X35767288Y-34522804D01*
X35808982Y-34500518D01*
X35845527Y-34470527D01*
X35875518Y-34433982D01*
X35897804Y-34392288D01*
X35911527Y-34347048D01*
X35916161Y-34300000D01*
X35915000Y-34002500D01*
X35855000Y-33942500D01*
X35280000Y-33942500D01*
X35120000Y-33942500D01*
X34545000Y-33942500D01*
X34485000Y-34002500D01*
X34483839Y-34300000D01*
X34416161Y-34300000D01*
X34415000Y-34002500D01*
X34355000Y-33942500D01*
X33780000Y-33942500D01*
X33620000Y-33942500D01*
X33045000Y-33942500D01*
X32985000Y-34002500D01*
X32983839Y-34300000D01*
X32887500Y-34300000D01*
X32915000Y-34272500D01*
X32916161Y-33975000D01*
X32911527Y-33927952D01*
X32897804Y-33882712D01*
X32875518Y-33841018D01*
X32845527Y-33804473D01*
X32808982Y-33774482D01*
X32767288Y-33752196D01*
X32722048Y-33738473D01*
X32675000Y-33733839D01*
X32340000Y-33735000D01*
X32280000Y-33795000D01*
X32120000Y-33795000D01*
X32060000Y-33735000D01*
X31725000Y-33733839D01*
X31677952Y-33738473D01*
X31632712Y-33752196D01*
X31591018Y-33774482D01*
X31554473Y-33804473D01*
X31524482Y-33841018D01*
X31502196Y-33882712D01*
X31488473Y-33927952D01*
X31483839Y-33975000D01*
X31011649Y-33975000D01*
X30997072Y-33926949D01*
X30979727Y-33894499D01*
X30967357Y-33871356D01*
X30937388Y-33834839D01*
X30937385Y-33834836D01*
X30927369Y-33822631D01*
X30915163Y-33812614D01*
X30527549Y-33425000D01*
X31483839Y-33425000D01*
X31488473Y-33472048D01*
X31502196Y-33517288D01*
X31524482Y-33558982D01*
X31554473Y-33595527D01*
X31591018Y-33625518D01*
X31632712Y-33647804D01*
X31677952Y-33661527D01*
X31725000Y-33666161D01*
X32060000Y-33665000D01*
X32120000Y-33605000D01*
X32120000Y-33067500D01*
X32280000Y-33067500D01*
X32280000Y-33605000D01*
X32340000Y-33665000D01*
X32675000Y-33666161D01*
X32722048Y-33661527D01*
X32767288Y-33647804D01*
X32808982Y-33625518D01*
X32845527Y-33595527D01*
X32875518Y-33558982D01*
X32897804Y-33517288D01*
X32911527Y-33472048D01*
X32916161Y-33425000D01*
X32983839Y-33425000D01*
X32985000Y-33722500D01*
X33045000Y-33782500D01*
X33620000Y-33782500D01*
X33620000Y-33245000D01*
X33780000Y-33245000D01*
X33780000Y-33782500D01*
X34355000Y-33782500D01*
X34415000Y-33722500D01*
X34416161Y-33425000D01*
X34483839Y-33425000D01*
X34485000Y-33722500D01*
X34545000Y-33782500D01*
X35120000Y-33782500D01*
X35120000Y-33245000D01*
X35280000Y-33245000D01*
X35280000Y-33782500D01*
X35855000Y-33782500D01*
X35915000Y-33722500D01*
X35916161Y-33425000D01*
X35911527Y-33377952D01*
X35897804Y-33332712D01*
X35875518Y-33291018D01*
X35845527Y-33254473D01*
X35808982Y-33224482D01*
X35767288Y-33202196D01*
X35722048Y-33188473D01*
X35675000Y-33183839D01*
X35340000Y-33185000D01*
X35280000Y-33245000D01*
X35120000Y-33245000D01*
X35060000Y-33185000D01*
X34725000Y-33183839D01*
X34677952Y-33188473D01*
X34632712Y-33202196D01*
X34591018Y-33224482D01*
X34554473Y-33254473D01*
X34524482Y-33291018D01*
X34502196Y-33332712D01*
X34488473Y-33377952D01*
X34483839Y-33425000D01*
X34416161Y-33425000D01*
X34411527Y-33377952D01*
X34397804Y-33332712D01*
X34375518Y-33291018D01*
X34345527Y-33254473D01*
X34308982Y-33224482D01*
X34267288Y-33202196D01*
X34222048Y-33188473D01*
X34175000Y-33183839D01*
X33840000Y-33185000D01*
X33780000Y-33245000D01*
X33620000Y-33245000D01*
X33560000Y-33185000D01*
X33225000Y-33183839D01*
X33177952Y-33188473D01*
X33132712Y-33202196D01*
X33091018Y-33224482D01*
X33054473Y-33254473D01*
X33024482Y-33291018D01*
X33002196Y-33332712D01*
X32988473Y-33377952D01*
X32983839Y-33425000D01*
X32916161Y-33425000D01*
X32915000Y-33127500D01*
X32855000Y-33067500D01*
X32280000Y-33067500D01*
X32120000Y-33067500D01*
X31545000Y-33067500D01*
X31485000Y-33127500D01*
X31483839Y-33425000D01*
X30527549Y-33425000D01*
X30468356Y-33365808D01*
X30516309Y-33345945D01*
X30694834Y-33226658D01*
X30846658Y-33074834D01*
X30965945Y-32896309D01*
X31048112Y-32697941D01*
X31077539Y-32550000D01*
X31483839Y-32550000D01*
X31485000Y-32847500D01*
X31545000Y-32907500D01*
X32120000Y-32907500D01*
X32120000Y-32370000D01*
X32280000Y-32370000D01*
X32280000Y-32907500D01*
X32855000Y-32907500D01*
X32887500Y-32875000D01*
X32983839Y-32875000D01*
X32988473Y-32922048D01*
X33002196Y-32967288D01*
X33024482Y-33008982D01*
X33054473Y-33045527D01*
X33091018Y-33075518D01*
X33132712Y-33097804D01*
X33177952Y-33111527D01*
X33225000Y-33116161D01*
X33560000Y-33115000D01*
X33620000Y-33055000D01*
X33620000Y-32517500D01*
X33780000Y-32517500D01*
X33780000Y-33055000D01*
X33840000Y-33115000D01*
X34175000Y-33116161D01*
X34222048Y-33111527D01*
X34267288Y-33097804D01*
X34308982Y-33075518D01*
X34345527Y-33045527D01*
X34375518Y-33008982D01*
X34397804Y-32967288D01*
X34411527Y-32922048D01*
X34416161Y-32875000D01*
X34415000Y-32577500D01*
X34355000Y-32517500D01*
X33780000Y-32517500D01*
X33620000Y-32517500D01*
X33045000Y-32517500D01*
X32985000Y-32577500D01*
X32983839Y-32875000D01*
X32887500Y-32875000D01*
X32915000Y-32847500D01*
X32916161Y-32550000D01*
X32911527Y-32502952D01*
X32897804Y-32457712D01*
X32875518Y-32416018D01*
X32845527Y-32379473D01*
X32808982Y-32349482D01*
X32767288Y-32327196D01*
X32722048Y-32313473D01*
X32675000Y-32308839D01*
X32340000Y-32310000D01*
X32280000Y-32370000D01*
X32120000Y-32370000D01*
X32060000Y-32310000D01*
X31725000Y-32308839D01*
X31677952Y-32313473D01*
X31632712Y-32327196D01*
X31591018Y-32349482D01*
X31554473Y-32379473D01*
X31524482Y-32416018D01*
X31502196Y-32457712D01*
X31488473Y-32502952D01*
X31483839Y-32550000D01*
X31077539Y-32550000D01*
X31090000Y-32487356D01*
X31090000Y-32272644D01*
X31048112Y-32062059D01*
X30966889Y-31865970D01*
X30977369Y-31857369D01*
X31008036Y-31820000D01*
X31017357Y-31808643D01*
X31034166Y-31777196D01*
X31047072Y-31753051D01*
X31065370Y-31692731D01*
X31070000Y-31645718D01*
X31070000Y-31645714D01*
X31071548Y-31630001D01*
X31070000Y-31614288D01*
X31070000Y-31247547D01*
X31450114Y-31627663D01*
X31460131Y-31639869D01*
X31472336Y-31649885D01*
X31472339Y-31649888D01*
X31486847Y-31661795D01*
X31492676Y-31720974D01*
X31518848Y-31807250D01*
X31561348Y-31886763D01*
X31618544Y-31956456D01*
X31688237Y-32013652D01*
X31767750Y-32056152D01*
X31854026Y-32082324D01*
X31943750Y-32091161D01*
X32456250Y-32091161D01*
X32545974Y-32082324D01*
X32632250Y-32056152D01*
X32711763Y-32013652D01*
X32728397Y-32000000D01*
X32983839Y-32000000D01*
X32985000Y-32297500D01*
X33045000Y-32357500D01*
X33620000Y-32357500D01*
X33620000Y-31820000D01*
X33780000Y-31820000D01*
X33780000Y-32357500D01*
X34355000Y-32357500D01*
X34415000Y-32297500D01*
X34416161Y-32000000D01*
X34411527Y-31952952D01*
X34397804Y-31907712D01*
X34375518Y-31866018D01*
X34345527Y-31829473D01*
X34308982Y-31799482D01*
X34267288Y-31777196D01*
X34222048Y-31763473D01*
X34175000Y-31758839D01*
X33840000Y-31760000D01*
X33780000Y-31820000D01*
X33620000Y-31820000D01*
X33560000Y-31760000D01*
X33225000Y-31758839D01*
X33177952Y-31763473D01*
X33132712Y-31777196D01*
X33091018Y-31799482D01*
X33054473Y-31829473D01*
X33024482Y-31866018D01*
X33002196Y-31907712D01*
X32988473Y-31952952D01*
X32983839Y-32000000D01*
X32728397Y-32000000D01*
X32781456Y-31956456D01*
X32838652Y-31886763D01*
X32881152Y-31807250D01*
X32907324Y-31720974D01*
X32916161Y-31631250D01*
X32916161Y-31193750D01*
X32907324Y-31104026D01*
X32881152Y-31017750D01*
X32838652Y-30938237D01*
X32781456Y-30868544D01*
X32711763Y-30811348D01*
X32632250Y-30768848D01*
X32545974Y-30742676D01*
X32456250Y-30733839D01*
X32390555Y-30733839D01*
X32415514Y-30673584D01*
X32429291Y-30604323D01*
X32489990Y-30543624D01*
X32542560Y-30622302D01*
X32610811Y-30690553D01*
X32691066Y-30744177D01*
X32780240Y-30781115D01*
X32874907Y-30799945D01*
X32960621Y-30799945D01*
X32983839Y-30823164D01*
X32983839Y-31081250D01*
X32992676Y-31170974D01*
X33018848Y-31257250D01*
X33061348Y-31336763D01*
X33118544Y-31406456D01*
X33188237Y-31463652D01*
X33267750Y-31506152D01*
X33354026Y-31532324D01*
X33443750Y-31541161D01*
X33956250Y-31541161D01*
X34045974Y-31532324D01*
X34132250Y-31506152D01*
X34211763Y-31463652D01*
X34281456Y-31406456D01*
X34338652Y-31336763D01*
X34381152Y-31257250D01*
X34407324Y-31170974D01*
X34416161Y-31081250D01*
X34416161Y-30643750D01*
X34407324Y-30554026D01*
X34381152Y-30467750D01*
X34338652Y-30388237D01*
X34281456Y-30318544D01*
X34211763Y-30261348D01*
X34132250Y-30218848D01*
X34045974Y-30192676D01*
X33956250Y-30183839D01*
X33443750Y-30183839D01*
X33398569Y-30188289D01*
X33394338Y-30167017D01*
X33383307Y-30140387D01*
X33470000Y-30141161D01*
X33517048Y-30136527D01*
X33562288Y-30122804D01*
X33603982Y-30100518D01*
X33640527Y-30070527D01*
X33670518Y-30033982D01*
X33692804Y-29992288D01*
X33706527Y-29947048D01*
X33711161Y-29900000D01*
X33711059Y-29877053D01*
X36525353Y-29877053D01*
X36553614Y-30089896D01*
X36622857Y-30293136D01*
X36689249Y-30417345D01*
X36833571Y-30513292D01*
X37506863Y-29840000D01*
X36833571Y-29166708D01*
X36689249Y-29262655D01*
X36594499Y-29455330D01*
X36539158Y-29662786D01*
X36525353Y-29877053D01*
X33711059Y-29877053D01*
X33710000Y-29640000D01*
X33650000Y-29580000D01*
X33280000Y-29580000D01*
X33280000Y-29600000D01*
X33120000Y-29600000D01*
X33120000Y-29580000D01*
X33100000Y-29580000D01*
X33100000Y-29420000D01*
X33120000Y-29420000D01*
X33120000Y-29415000D01*
X33280000Y-29415000D01*
X33280000Y-29420000D01*
X33650000Y-29420000D01*
X33655000Y-29415000D01*
X34556527Y-29415000D01*
X34572000Y-29416524D01*
X34587473Y-29415000D01*
X34633751Y-29410442D01*
X34693128Y-29392430D01*
X34747851Y-29363180D01*
X34795816Y-29323816D01*
X34835180Y-29275851D01*
X34864430Y-29221128D01*
X34869222Y-29205331D01*
X34909717Y-29311928D01*
X34930499Y-29350808D01*
X35038988Y-29404475D01*
X35158221Y-29285242D01*
X35205492Y-29380801D01*
X35263064Y-29406673D01*
X35152125Y-29517612D01*
X35205792Y-29626101D01*
X35338751Y-29685852D01*
X35480812Y-29718515D01*
X35626515Y-29722836D01*
X35770262Y-29698649D01*
X35906528Y-29646883D01*
X35945408Y-29626101D01*
X35999075Y-29517612D01*
X35889428Y-29407965D01*
X35906228Y-29401583D01*
X35945108Y-29380801D01*
X35992577Y-29284840D01*
X36112212Y-29404475D01*
X36220701Y-29350808D01*
X36280452Y-29217849D01*
X36313115Y-29075788D01*
X36313773Y-29053571D01*
X36946708Y-29053571D01*
X37620000Y-29726863D01*
X38293292Y-29053571D01*
X38197345Y-28909249D01*
X38004670Y-28814499D01*
X37797214Y-28759158D01*
X37582947Y-28745353D01*
X37370104Y-28773614D01*
X37166864Y-28842857D01*
X37042655Y-28909249D01*
X36946708Y-29053571D01*
X36313773Y-29053571D01*
X36317436Y-28930085D01*
X36305807Y-28860970D01*
X36312815Y-28830488D01*
X36317136Y-28684785D01*
X36304915Y-28612153D01*
X36313115Y-28576488D01*
X36317436Y-28430785D01*
X36304243Y-28352376D01*
X36313115Y-28313788D01*
X36317436Y-28168085D01*
X36293249Y-28024338D01*
X36241483Y-27888072D01*
X36220701Y-27849192D01*
X36112212Y-27795525D01*
X35987019Y-27920718D01*
X35945408Y-27836599D01*
X35876038Y-27805425D01*
X35999075Y-27682388D01*
X35945408Y-27573899D01*
X35812449Y-27514148D01*
X35670388Y-27481485D01*
X35524685Y-27477164D01*
X35380938Y-27501351D01*
X35244672Y-27553117D01*
X35205792Y-27573899D01*
X35152125Y-27682388D01*
X35274299Y-27804562D01*
X35244672Y-27815817D01*
X35205792Y-27836599D01*
X35164181Y-27920718D01*
X35038988Y-27795525D01*
X34930499Y-27849192D01*
X34887000Y-27945987D01*
X34887000Y-25477019D01*
X34909417Y-25536028D01*
X34930199Y-25574908D01*
X35038688Y-25628575D01*
X35173611Y-25493652D01*
X35205492Y-25558101D01*
X35295146Y-25598391D01*
X35151825Y-25741712D01*
X35205492Y-25850201D01*
X35338451Y-25909952D01*
X35480512Y-25942615D01*
X35626215Y-25946936D01*
X35769962Y-25922749D01*
X35906228Y-25870983D01*
X35945108Y-25850201D01*
X35998775Y-25741712D01*
X35855295Y-25598232D01*
X35906228Y-25578883D01*
X35945108Y-25558101D01*
X35976989Y-25493652D01*
X36111912Y-25628575D01*
X36220401Y-25574908D01*
X36280152Y-25441949D01*
X36312815Y-25299888D01*
X36317136Y-25154185D01*
X36301086Y-25058799D01*
X36312815Y-25007788D01*
X36317136Y-24862085D01*
X36296151Y-24737366D01*
X36312815Y-24664888D01*
X36317136Y-24519185D01*
X36299852Y-24416466D01*
X36312815Y-24360088D01*
X36317136Y-24214385D01*
X36302193Y-24125579D01*
X36312515Y-24080688D01*
X36316836Y-23934985D01*
X36294965Y-23805000D01*
X37604590Y-23805000D01*
X37805204Y-23824670D01*
X37983344Y-23878454D01*
X38147653Y-23965819D01*
X38291861Y-24083431D01*
X38410477Y-24226813D01*
X38498988Y-24390511D01*
X38554015Y-24568275D01*
X38575001Y-24767942D01*
X38575001Y-26767312D01*
X38466658Y-26605166D01*
X38314834Y-26453342D01*
X38136309Y-26334055D01*
X37937941Y-26251888D01*
X37727356Y-26210000D01*
X37512644Y-26210000D01*
X37302059Y-26251888D01*
X37103691Y-26334055D01*
X36925166Y-26453342D01*
X36773342Y-26605166D01*
X36654055Y-26783691D01*
X36571888Y-26982059D01*
X36530000Y-27192644D01*
X36530000Y-27407356D01*
X36571888Y-27617941D01*
X36654055Y-27816309D01*
X36773342Y-27994834D01*
X36925166Y-28146658D01*
X37103691Y-28265945D01*
X37302059Y-28348112D01*
X37512644Y-28390000D01*
X37727356Y-28390000D01*
X37937941Y-28348112D01*
X38136309Y-28265945D01*
X38314834Y-28146658D01*
X38466658Y-27994834D01*
X38575001Y-27832688D01*
X38575001Y-29308023D01*
X38550751Y-29262655D01*
X38406429Y-29166708D01*
X37733137Y-29840000D01*
X38406429Y-30513292D01*
X38550751Y-30417345D01*
X38575001Y-30368033D01*
X38575001Y-31847312D01*
X38466658Y-31685166D01*
X38314834Y-31533342D01*
X38136309Y-31414055D01*
X37937941Y-31331888D01*
X37727356Y-31290000D01*
X37512644Y-31290000D01*
X37302059Y-31331888D01*
X37105750Y-31413202D01*
X36339895Y-30647348D01*
X36329869Y-30635131D01*
X36319266Y-30626429D01*
X36946708Y-30626429D01*
X37042655Y-30770751D01*
X37235330Y-30865501D01*
X37442786Y-30920842D01*
X37657053Y-30934647D01*
X37869896Y-30906386D01*
X38073136Y-30837143D01*
X38197345Y-30770751D01*
X38293292Y-30626429D01*
X37620000Y-29953137D01*
X36946708Y-30626429D01*
X36319266Y-30626429D01*
X36281142Y-30595143D01*
X36225551Y-30565428D01*
X36165231Y-30547130D01*
X36118218Y-30542500D01*
X36118213Y-30542500D01*
X36102500Y-30540952D01*
X36086787Y-30542500D01*
X35903828Y-30542500D01*
X35881152Y-30467750D01*
X35838652Y-30388237D01*
X35781456Y-30318544D01*
X35711763Y-30261348D01*
X35632250Y-30218848D01*
X35545974Y-30192676D01*
X35456250Y-30183839D01*
X34943750Y-30183839D01*
X34854026Y-30192676D01*
X34767750Y-30218848D01*
X34688237Y-30261348D01*
X34618544Y-30318544D01*
X34561348Y-30388237D01*
X34518848Y-30467750D01*
X34492676Y-30554026D01*
X34483839Y-30643750D01*
X34483839Y-31081250D01*
X34492676Y-31170974D01*
X34518848Y-31257250D01*
X34561348Y-31336763D01*
X34618544Y-31406456D01*
X34688237Y-31463652D01*
X34767750Y-31506152D01*
X34854026Y-31532324D01*
X34943750Y-31541161D01*
X35456250Y-31541161D01*
X35545974Y-31532324D01*
X35632250Y-31506152D01*
X35711763Y-31463652D01*
X35781456Y-31406456D01*
X35838652Y-31336763D01*
X35881152Y-31257250D01*
X35903828Y-31182500D01*
X35969953Y-31182500D01*
X36653202Y-31865750D01*
X36571888Y-32062059D01*
X36530000Y-32272644D01*
X36530000Y-32396387D01*
X36305529Y-32171916D01*
X36293158Y-32156842D01*
X36233012Y-32107481D01*
X36164391Y-32070802D01*
X36089933Y-32048216D01*
X36031901Y-32042500D01*
X36031894Y-32042500D01*
X36012500Y-32040590D01*
X35993106Y-32042500D01*
X35881018Y-32042500D01*
X35838652Y-31963237D01*
X35781456Y-31893544D01*
X35711763Y-31836348D01*
X35632250Y-31793848D01*
X35545974Y-31767676D01*
X35456250Y-31758839D01*
X34943750Y-31758839D01*
X34854026Y-31767676D01*
X34767750Y-31793848D01*
X34688237Y-31836348D01*
X34618544Y-31893544D01*
X34561348Y-31963237D01*
X34518848Y-32042750D01*
X34492676Y-32129026D01*
X34483839Y-32218750D01*
X34483839Y-32656250D01*
X34492676Y-32745974D01*
X34518848Y-32832250D01*
X34561348Y-32911763D01*
X34618544Y-32981456D01*
X34688237Y-33038652D01*
X34767750Y-33081152D01*
X34854026Y-33107324D01*
X34943750Y-33116161D01*
X35456250Y-33116161D01*
X35545974Y-33107324D01*
X35632250Y-33081152D01*
X35711763Y-33038652D01*
X35781456Y-32981456D01*
X35838652Y-32911763D01*
X35869826Y-32853439D01*
X37023814Y-34007427D01*
X36925166Y-34073342D01*
X36773342Y-34225166D01*
X36654055Y-34403691D01*
X36571888Y-34602059D01*
X36530000Y-34812644D01*
X36530000Y-35027356D01*
X36571888Y-35237941D01*
X36639808Y-35401915D01*
X36342431Y-35401915D01*
X36326715Y-35400367D01*
X36310999Y-35401915D01*
X36310997Y-35401915D01*
X36263984Y-35406545D01*
X36225896Y-35418099D01*
X36203663Y-35424843D01*
X36148072Y-35454557D01*
X36128632Y-35470512D01*
X36099346Y-35494546D01*
X36089325Y-35506757D01*
X35913575Y-35682508D01*
X35916161Y-35656250D01*
X35916161Y-35218750D01*
X35907324Y-35129026D01*
X35881152Y-35042750D01*
X35838652Y-34963237D01*
X35781456Y-34893544D01*
X35711763Y-34836348D01*
X35632250Y-34793848D01*
X35545974Y-34767676D01*
X35456250Y-34758839D01*
X34943750Y-34758839D01*
X34854026Y-34767676D01*
X34767750Y-34793848D01*
X34688237Y-34836348D01*
X34618544Y-34893544D01*
X34561348Y-34963237D01*
X34518848Y-35042750D01*
X34492676Y-35129026D01*
X34483839Y-35218750D01*
X34483839Y-35656250D01*
X34487861Y-35697091D01*
X34393540Y-35791412D01*
X34407324Y-35745974D01*
X34416161Y-35656250D01*
X34416161Y-35218750D01*
X34407324Y-35129026D01*
X34381152Y-35042750D01*
X34338652Y-34963237D01*
X34281456Y-34893544D01*
X34211763Y-34836348D01*
X34132250Y-34793848D01*
X34045974Y-34767676D01*
X33956250Y-34758839D01*
X33443750Y-34758839D01*
X33354026Y-34767676D01*
X33267750Y-34793848D01*
X33188237Y-34836348D01*
X33118544Y-34893544D01*
X33061348Y-34963237D01*
X33018848Y-35042750D01*
X32992676Y-35129026D01*
X32983839Y-35218750D01*
X32983839Y-35656250D01*
X32992676Y-35745974D01*
X33018848Y-35832250D01*
X33025522Y-35844736D01*
X32916161Y-35954097D01*
X32916161Y-35768750D01*
X32907324Y-35679026D01*
X32881152Y-35592750D01*
X32838652Y-35513237D01*
X32781456Y-35443544D01*
X32711763Y-35386348D01*
X32632250Y-35343848D01*
X32545974Y-35317676D01*
X32456250Y-35308839D01*
X31943750Y-35308839D01*
X31854026Y-35317676D01*
X31767750Y-35343848D01*
X31688237Y-35386348D01*
X31618544Y-35443544D01*
X31561348Y-35513237D01*
X31518848Y-35592750D01*
X31492676Y-35679026D01*
X31483839Y-35768750D01*
X31483839Y-36206250D01*
X31492676Y-36295974D01*
X31518848Y-36382250D01*
X31561348Y-36461763D01*
X31618544Y-36531456D01*
X31649062Y-36556502D01*
X31416161Y-36789404D01*
X31416161Y-36568750D01*
X31407324Y-36479026D01*
X31381152Y-36392750D01*
X31338652Y-36313237D01*
X31281456Y-36243544D01*
X31211763Y-36186348D01*
X31132250Y-36143848D01*
X31045974Y-36117676D01*
X30956250Y-36108839D01*
X30443750Y-36108839D01*
X30354026Y-36117676D01*
X30267750Y-36143848D01*
X30188237Y-36186348D01*
X30118544Y-36243544D01*
X30061348Y-36313237D01*
X30018848Y-36392750D01*
X29992676Y-36479026D01*
X29983839Y-36568750D01*
X29983839Y-37006250D01*
X29992676Y-37095974D01*
X30018848Y-37182250D01*
X30061348Y-37261763D01*
X30118544Y-37331456D01*
X30188237Y-37388652D01*
X30267750Y-37431152D01*
X30354026Y-37457324D01*
X30380000Y-37459882D01*
X30380000Y-37561108D01*
X29787170Y-37561108D01*
X29771454Y-37559560D01*
X29755738Y-37561108D01*
X29755736Y-37561108D01*
X29708723Y-37565738D01*
X29663445Y-37579473D01*
X29648402Y-37584036D01*
X29592811Y-37613751D01*
X29567489Y-37634532D01*
X29544085Y-37653739D01*
X29534065Y-37665949D01*
X29520000Y-37680014D01*
X29520000Y-37459882D01*
X29545974Y-37457324D01*
X29632250Y-37431152D01*
X29711763Y-37388652D01*
X29781456Y-37331456D01*
X29838652Y-37261763D01*
X29881152Y-37182250D01*
X29907324Y-37095974D01*
X29916161Y-37006250D01*
X29916161Y-36568750D01*
X29907324Y-36479026D01*
X29881152Y-36392750D01*
X29838652Y-36313237D01*
X29781456Y-36243544D01*
X29711763Y-36186348D01*
X29632250Y-36143848D01*
X29545974Y-36117676D01*
X29456250Y-36108839D01*
X28943750Y-36108839D01*
X28854026Y-36117676D01*
X28767750Y-36143848D01*
X28688237Y-36186348D01*
X28618544Y-36243544D01*
X28561348Y-36313237D01*
X28518848Y-36392750D01*
X28492676Y-36479026D01*
X28483839Y-36568750D01*
X28483839Y-37006250D01*
X28492676Y-37095974D01*
X28518848Y-37182250D01*
X28561348Y-37261763D01*
X28618544Y-37331456D01*
X28688237Y-37388652D01*
X28767750Y-37431152D01*
X28854026Y-37457324D01*
X28880001Y-37459882D01*
X28880001Y-37867450D01*
X28339363Y-38408090D01*
X28327147Y-38418115D01*
X28304096Y-38446204D01*
X28287159Y-38466842D01*
X28280116Y-38480019D01*
X28257444Y-38522434D01*
X28239146Y-38582754D01*
X28234516Y-38629766D01*
X28232968Y-38645484D01*
X28234516Y-38661197D01*
X28234517Y-40224580D01*
X28232968Y-40240303D01*
X28235418Y-40265169D01*
X28239147Y-40303034D01*
X28255883Y-40358204D01*
X28257445Y-40363354D01*
X28287159Y-40418945D01*
X28287695Y-40419599D01*
X28233021Y-40443258D01*
X28223366Y-40517264D01*
X28677675Y-40971573D01*
X28698889Y-40950360D01*
X28812026Y-41063497D01*
X28790812Y-41084710D01*
X28804955Y-41098853D01*
X28705960Y-41197848D01*
X28691817Y-41183705D01*
X28670604Y-41204919D01*
X28557467Y-41091782D01*
X28578680Y-41070568D01*
X28124371Y-40616259D01*
X28050365Y-40625914D01*
X28028648Y-40676100D01*
X28020000Y-40667453D01*
X28020000Y-37459882D01*
X28045974Y-37457324D01*
X28132250Y-37431152D01*
X28211763Y-37388652D01*
X28281456Y-37331456D01*
X28338652Y-37261763D01*
X28381152Y-37182250D01*
X28407324Y-37095974D01*
X28416161Y-37006250D01*
X28416161Y-36568750D01*
X28407324Y-36479026D01*
X28381152Y-36392750D01*
X28338652Y-36313237D01*
X28281456Y-36243544D01*
X28211763Y-36186348D01*
X28132250Y-36143848D01*
X28045974Y-36117676D01*
X27956250Y-36108839D01*
X27443750Y-36108839D01*
X27354026Y-36117676D01*
X27267750Y-36143848D01*
X27188237Y-36186348D01*
X27118544Y-36243544D01*
X27061348Y-36313237D01*
X27018848Y-36392750D01*
X26992676Y-36479026D01*
X26983839Y-36568750D01*
X26983839Y-37006250D01*
X26992676Y-37095974D01*
X27018848Y-37182250D01*
X27061348Y-37261763D01*
X27118544Y-37331456D01*
X27188237Y-37388652D01*
X27267750Y-37431152D01*
X27354026Y-37457324D01*
X27380000Y-37459882D01*
X27380001Y-39649997D01*
X26696653Y-38966650D01*
X26734232Y-38910408D01*
X26771170Y-38821234D01*
X26790000Y-38726567D01*
X26790000Y-38630045D01*
X26771170Y-38535378D01*
X26734232Y-38446204D01*
X26680608Y-38365949D01*
X26612357Y-38297698D01*
X26532102Y-38244074D01*
X26442928Y-38207136D01*
X26373668Y-38193360D01*
X26114722Y-37934415D01*
X26102352Y-37919342D01*
X26087279Y-37906972D01*
X26064723Y-37884416D01*
X26052352Y-37869342D01*
X25992206Y-37819981D01*
X25941161Y-37792697D01*
X25941161Y-37750000D01*
X25936527Y-37702952D01*
X25922804Y-37657712D01*
X25910821Y-37635293D01*
X26079953Y-37466161D01*
X26456250Y-37466161D01*
X26545974Y-37457324D01*
X26632250Y-37431152D01*
X26711763Y-37388652D01*
X26781456Y-37331456D01*
X26838652Y-37261763D01*
X26881152Y-37182250D01*
X26907324Y-37095974D01*
X26916161Y-37006250D01*
X26916161Y-36493750D01*
X26907324Y-36404026D01*
X26881152Y-36317750D01*
X26838652Y-36238237D01*
X26781456Y-36168544D01*
X26711763Y-36111348D01*
X26632500Y-36068982D01*
X26632500Y-35931018D01*
X26711763Y-35888652D01*
X26781456Y-35831456D01*
X26838652Y-35761763D01*
X26881152Y-35682250D01*
X26890935Y-35650000D01*
X26983839Y-35650000D01*
X26988473Y-35697048D01*
X27002196Y-35742288D01*
X27024482Y-35783982D01*
X27054473Y-35820527D01*
X27091018Y-35850518D01*
X27132712Y-35872804D01*
X27177952Y-35886527D01*
X27225000Y-35891161D01*
X27560000Y-35890000D01*
X27620000Y-35830000D01*
X27620000Y-35292500D01*
X27780000Y-35292500D01*
X27780000Y-35830000D01*
X27840000Y-35890000D01*
X28175000Y-35891161D01*
X28222048Y-35886527D01*
X28267288Y-35872804D01*
X28308982Y-35850518D01*
X28345527Y-35820527D01*
X28375518Y-35783982D01*
X28397804Y-35742288D01*
X28411527Y-35697048D01*
X28416161Y-35650000D01*
X28415000Y-35352500D01*
X28355000Y-35292500D01*
X27780000Y-35292500D01*
X27620000Y-35292500D01*
X27045000Y-35292500D01*
X26985000Y-35352500D01*
X26983839Y-35650000D01*
X26890935Y-35650000D01*
X26907324Y-35595974D01*
X26916161Y-35506250D01*
X26916161Y-34993750D01*
X26907324Y-34904026D01*
X26881152Y-34817750D01*
X26858302Y-34775000D01*
X26983839Y-34775000D01*
X26985000Y-35072500D01*
X27045000Y-35132500D01*
X27620000Y-35132500D01*
X27620000Y-34595000D01*
X27780000Y-34595000D01*
X27780000Y-35132500D01*
X28355000Y-35132500D01*
X28415000Y-35072500D01*
X28416161Y-34775000D01*
X28411527Y-34727952D01*
X28397804Y-34682712D01*
X28375518Y-34641018D01*
X28345527Y-34604473D01*
X28308982Y-34574482D01*
X28267288Y-34552196D01*
X28222048Y-34538473D01*
X28175000Y-34533839D01*
X27840000Y-34535000D01*
X27780000Y-34595000D01*
X27620000Y-34595000D01*
X27560000Y-34535000D01*
X27225000Y-34533839D01*
X27177952Y-34538473D01*
X27132712Y-34552196D01*
X27091018Y-34574482D01*
X27054473Y-34604473D01*
X27024482Y-34641018D01*
X27002196Y-34682712D01*
X26988473Y-34727952D01*
X26983839Y-34775000D01*
X26858302Y-34775000D01*
X26838652Y-34738237D01*
X26781456Y-34668544D01*
X26711763Y-34611348D01*
X26632250Y-34568848D01*
X26588076Y-34555448D01*
X26567519Y-34516988D01*
X26518158Y-34456842D01*
X26503089Y-34444475D01*
X26188735Y-34130121D01*
X26206723Y-34070821D01*
X26216161Y-33975000D01*
X26216161Y-33225000D01*
X26206723Y-33129179D01*
X26178774Y-33037041D01*
X26133385Y-32952126D01*
X26072303Y-32877697D01*
X25997874Y-32816615D01*
X25912959Y-32771226D01*
X25820821Y-32743277D01*
X25725000Y-32733839D01*
X24475000Y-32733839D01*
X24379179Y-32743277D01*
X24287041Y-32771226D01*
X24202126Y-32816615D01*
X24127697Y-32877697D01*
X24066615Y-32952126D01*
X24021226Y-33037041D01*
X23993277Y-33129179D01*
X23983839Y-33225000D01*
X23983839Y-33975000D01*
X23993277Y-34070821D01*
X24021226Y-34162959D01*
X24066615Y-34247874D01*
X24127697Y-34322303D01*
X24202126Y-34383385D01*
X24287041Y-34428774D01*
X24379179Y-34456723D01*
X24475000Y-34466161D01*
X25407547Y-34466161D01*
X25655855Y-34714468D01*
X25636348Y-34738237D01*
X25593848Y-34817750D01*
X25567676Y-34904026D01*
X25558839Y-34993750D01*
X25558839Y-35506250D01*
X25567676Y-35595974D01*
X25593848Y-35682250D01*
X25636348Y-35761763D01*
X25693544Y-35831456D01*
X25763237Y-35888652D01*
X25842500Y-35931019D01*
X25842501Y-36068981D01*
X25763237Y-36111348D01*
X25693544Y-36168544D01*
X25636348Y-36238237D01*
X25593848Y-36317750D01*
X25567676Y-36404026D01*
X25558839Y-36493750D01*
X25558839Y-36870047D01*
X25340687Y-37088200D01*
X25340000Y-36890000D01*
X25280000Y-36830000D01*
X24742500Y-36830000D01*
X24742500Y-37405000D01*
X24802500Y-37465000D01*
X24963259Y-37465627D01*
X24920048Y-37508839D01*
X24500000Y-37508839D01*
X24452952Y-37513473D01*
X24407712Y-37527196D01*
X24366018Y-37549482D01*
X24329473Y-37579473D01*
X24299482Y-37616018D01*
X24277196Y-37657712D01*
X24263473Y-37702952D01*
X24258839Y-37750000D01*
X24258839Y-38650000D01*
X24263473Y-38697048D01*
X24277196Y-38742288D01*
X24299482Y-38783982D01*
X24329473Y-38820527D01*
X24366018Y-38850518D01*
X24407712Y-38872804D01*
X24452952Y-38886527D01*
X24500000Y-38891161D01*
X25700000Y-38891161D01*
X25747048Y-38886527D01*
X25792288Y-38872804D01*
X25833982Y-38850518D01*
X25839190Y-38846244D01*
X25865768Y-38910408D01*
X25905000Y-38969124D01*
X25905000Y-39019990D01*
X25091158Y-39019990D01*
X25075445Y-39018442D01*
X25059732Y-39019990D01*
X25059728Y-39019990D01*
X25012715Y-39024620D01*
X24952395Y-39042918D01*
X24926518Y-39056750D01*
X24896803Y-39072633D01*
X24871956Y-39093025D01*
X24848077Y-39112621D01*
X24838056Y-39124832D01*
X23254849Y-40708040D01*
X23242632Y-40718066D01*
X23220772Y-40744704D01*
X23202644Y-40766793D01*
X23191902Y-40786890D01*
X23172929Y-40822385D01*
X23154631Y-40882705D01*
X23150885Y-40920746D01*
X23148453Y-40945435D01*
X23150001Y-40961149D01*
X23150002Y-41317449D01*
X22894250Y-41573202D01*
X22697941Y-41491888D01*
X22487356Y-41450000D01*
X22272644Y-41450000D01*
X22062059Y-41491888D01*
X21863691Y-41574055D01*
X21685166Y-41693342D01*
X21533342Y-41845166D01*
X21425000Y-42007311D01*
X21425000Y-40532689D01*
X21533342Y-40694834D01*
X21685166Y-40846658D01*
X21863691Y-40965945D01*
X22062059Y-41048112D01*
X22272644Y-41090000D01*
X22487356Y-41090000D01*
X22697941Y-41048112D01*
X22896309Y-40965945D01*
X23074834Y-40846658D01*
X23226658Y-40694834D01*
X23345945Y-40516309D01*
X23428112Y-40317941D01*
X23470000Y-40107356D01*
X23470000Y-39892644D01*
X23428112Y-39682059D01*
X23345945Y-39483691D01*
X23226658Y-39305166D01*
X23074834Y-39153342D01*
X22896309Y-39034055D01*
X22697941Y-38951888D01*
X22487356Y-38910000D01*
X22272644Y-38910000D01*
X22062059Y-38951888D01*
X21863691Y-39034055D01*
X21685166Y-39153342D01*
X21533342Y-39305166D01*
X21425000Y-39467311D01*
X21425000Y-37992689D01*
X21533342Y-38154834D01*
X21685166Y-38306658D01*
X21863691Y-38425945D01*
X22062059Y-38508112D01*
X22272644Y-38550000D01*
X22487356Y-38550000D01*
X22697941Y-38508112D01*
X22896309Y-38425945D01*
X23074834Y-38306658D01*
X23226658Y-38154834D01*
X23345945Y-37976309D01*
X23428112Y-37777941D01*
X23470000Y-37567356D01*
X23470000Y-37352644D01*
X23444611Y-37225000D01*
X23983839Y-37225000D01*
X23988473Y-37272048D01*
X24002196Y-37317288D01*
X24024482Y-37358982D01*
X24054473Y-37395527D01*
X24091018Y-37425518D01*
X24132712Y-37447804D01*
X24177952Y-37461527D01*
X24225000Y-37466161D01*
X24522500Y-37465000D01*
X24582500Y-37405000D01*
X24582500Y-36830000D01*
X24045000Y-36830000D01*
X23985000Y-36890000D01*
X23983839Y-37225000D01*
X23444611Y-37225000D01*
X23428112Y-37142059D01*
X23345945Y-36943691D01*
X23226658Y-36765166D01*
X23074834Y-36613342D01*
X22896309Y-36494055D01*
X22697941Y-36411888D01*
X22487356Y-36370000D01*
X22272644Y-36370000D01*
X22062059Y-36411888D01*
X21863691Y-36494055D01*
X21685166Y-36613342D01*
X21533342Y-36765166D01*
X21425000Y-36927311D01*
X21425000Y-36275000D01*
X23983839Y-36275000D01*
X23985000Y-36610000D01*
X24045000Y-36670000D01*
X24582500Y-36670000D01*
X24582500Y-36095000D01*
X24742500Y-36095000D01*
X24742500Y-36670000D01*
X25280000Y-36670000D01*
X25340000Y-36610000D01*
X25341161Y-36275000D01*
X25336527Y-36227952D01*
X25322804Y-36182712D01*
X25300518Y-36141018D01*
X25270527Y-36104473D01*
X25233982Y-36074482D01*
X25192288Y-36052196D01*
X25147048Y-36038473D01*
X25100000Y-36033839D01*
X24802500Y-36035000D01*
X24742500Y-36095000D01*
X24582500Y-36095000D01*
X24522500Y-36035000D01*
X24225000Y-36033839D01*
X24177952Y-36038473D01*
X24132712Y-36052196D01*
X24091018Y-36074482D01*
X24054473Y-36104473D01*
X24024482Y-36141018D01*
X24002196Y-36182712D01*
X23988473Y-36227952D01*
X23983839Y-36275000D01*
X21425000Y-36275000D01*
X21425000Y-35706429D01*
X21706708Y-35706429D01*
X21802655Y-35850751D01*
X21995330Y-35945501D01*
X22202786Y-36000842D01*
X22417053Y-36014647D01*
X22629896Y-35986386D01*
X22833136Y-35917143D01*
X22957345Y-35850751D01*
X23040945Y-35725000D01*
X23983839Y-35725000D01*
X23988473Y-35772048D01*
X24002196Y-35817288D01*
X24024482Y-35858982D01*
X24054473Y-35895527D01*
X24091018Y-35925518D01*
X24132712Y-35947804D01*
X24177952Y-35961527D01*
X24225000Y-35966161D01*
X24522500Y-35965000D01*
X24582500Y-35905000D01*
X24582500Y-35330000D01*
X24742500Y-35330000D01*
X24742500Y-35905000D01*
X24802500Y-35965000D01*
X25100000Y-35966161D01*
X25147048Y-35961527D01*
X25192288Y-35947804D01*
X25233982Y-35925518D01*
X25270527Y-35895527D01*
X25300518Y-35858982D01*
X25322804Y-35817288D01*
X25336527Y-35772048D01*
X25341161Y-35725000D01*
X25340000Y-35390000D01*
X25280000Y-35330000D01*
X24742500Y-35330000D01*
X24582500Y-35330000D01*
X24045000Y-35330000D01*
X23985000Y-35390000D01*
X23983839Y-35725000D01*
X23040945Y-35725000D01*
X23053292Y-35706429D01*
X22380000Y-35033137D01*
X21706708Y-35706429D01*
X21425000Y-35706429D01*
X21425000Y-35451979D01*
X21449249Y-35497345D01*
X21593571Y-35593292D01*
X22266863Y-34920000D01*
X22493137Y-34920000D01*
X23166429Y-35593292D01*
X23310751Y-35497345D01*
X23405501Y-35304670D01*
X23460842Y-35097214D01*
X23474647Y-34882947D01*
X23460314Y-34775000D01*
X23983839Y-34775000D01*
X23985000Y-35110000D01*
X24045000Y-35170000D01*
X24582500Y-35170000D01*
X24582500Y-34595000D01*
X24742500Y-34595000D01*
X24742500Y-35170000D01*
X25280000Y-35170000D01*
X25340000Y-35110000D01*
X25341161Y-34775000D01*
X25336527Y-34727952D01*
X25322804Y-34682712D01*
X25300518Y-34641018D01*
X25270527Y-34604473D01*
X25233982Y-34574482D01*
X25192288Y-34552196D01*
X25147048Y-34538473D01*
X25100000Y-34533839D01*
X24802500Y-34535000D01*
X24742500Y-34595000D01*
X24582500Y-34595000D01*
X24522500Y-34535000D01*
X24225000Y-34533839D01*
X24177952Y-34538473D01*
X24132712Y-34552196D01*
X24091018Y-34574482D01*
X24054473Y-34604473D01*
X24024482Y-34641018D01*
X24002196Y-34682712D01*
X23988473Y-34727952D01*
X23983839Y-34775000D01*
X23460314Y-34775000D01*
X23446386Y-34670104D01*
X23377143Y-34466864D01*
X23310751Y-34342655D01*
X23166429Y-34246708D01*
X22493137Y-34920000D01*
X22266863Y-34920000D01*
X21593571Y-34246708D01*
X21449249Y-34342655D01*
X21425000Y-34391966D01*
X21425000Y-34133571D01*
X21706708Y-34133571D01*
X22380000Y-34806863D01*
X23053292Y-34133571D01*
X22957345Y-33989249D01*
X22764670Y-33894499D01*
X22557214Y-33839158D01*
X22342947Y-33825353D01*
X22130104Y-33853614D01*
X21926864Y-33922857D01*
X21802655Y-33989249D01*
X21706708Y-34133571D01*
X21425000Y-34133571D01*
X21425000Y-33166429D01*
X21706708Y-33166429D01*
X21802655Y-33310751D01*
X21995330Y-33405501D01*
X22202786Y-33460842D01*
X22417053Y-33474647D01*
X22629896Y-33446386D01*
X22833136Y-33377143D01*
X22957345Y-33310751D01*
X23053292Y-33166429D01*
X22380000Y-32493137D01*
X21706708Y-33166429D01*
X21425000Y-33166429D01*
X21425000Y-32911979D01*
X21449249Y-32957345D01*
X21593571Y-33053292D01*
X22266863Y-32380000D01*
X22493137Y-32380000D01*
X23166429Y-33053292D01*
X23310751Y-32957345D01*
X23405501Y-32764670D01*
X23460842Y-32557214D01*
X23474647Y-32342947D01*
X23465313Y-32272644D01*
X26370000Y-32272644D01*
X26370000Y-32487356D01*
X26411888Y-32697941D01*
X26494055Y-32896309D01*
X26613342Y-33074834D01*
X26765166Y-33226658D01*
X26943691Y-33345945D01*
X27142059Y-33428112D01*
X27352644Y-33470000D01*
X27567356Y-33470000D01*
X27777941Y-33428112D01*
X27974250Y-33346798D01*
X28880000Y-34252548D01*
X28880000Y-34540118D01*
X28854026Y-34542676D01*
X28767750Y-34568848D01*
X28688237Y-34611348D01*
X28618544Y-34668544D01*
X28561348Y-34738237D01*
X28518848Y-34817750D01*
X28492676Y-34904026D01*
X28483839Y-34993750D01*
X28483839Y-35431250D01*
X28492676Y-35520974D01*
X28518848Y-35607250D01*
X28561348Y-35686763D01*
X28618544Y-35756456D01*
X28688237Y-35813652D01*
X28767750Y-35856152D01*
X28854026Y-35882324D01*
X28943750Y-35891161D01*
X29456250Y-35891161D01*
X29545974Y-35882324D01*
X29632250Y-35856152D01*
X29711763Y-35813652D01*
X29781456Y-35756456D01*
X29838652Y-35686763D01*
X29881152Y-35607250D01*
X29907324Y-35520974D01*
X29916161Y-35431250D01*
X29916161Y-34993750D01*
X29907324Y-34904026D01*
X29881152Y-34817750D01*
X29838652Y-34738237D01*
X29781456Y-34668544D01*
X29711763Y-34611348D01*
X29632250Y-34568848D01*
X29545974Y-34542676D01*
X29520000Y-34540118D01*
X29520000Y-34135716D01*
X29521548Y-34120000D01*
X29520000Y-34104282D01*
X29515370Y-34057269D01*
X29498756Y-34002500D01*
X29497072Y-33996948D01*
X29467358Y-33941357D01*
X29437388Y-33904840D01*
X29427369Y-33892631D01*
X29415159Y-33882611D01*
X28426798Y-32894250D01*
X28508112Y-32697941D01*
X28550000Y-32487356D01*
X28550000Y-32272644D01*
X28508112Y-32062059D01*
X28425945Y-31863691D01*
X28306658Y-31685166D01*
X28154834Y-31533342D01*
X27976309Y-31414055D01*
X27777941Y-31331888D01*
X27567356Y-31290000D01*
X27352644Y-31290000D01*
X27142059Y-31331888D01*
X26943691Y-31414055D01*
X26765166Y-31533342D01*
X26613342Y-31685166D01*
X26494055Y-31863691D01*
X26411888Y-32062059D01*
X26370000Y-32272644D01*
X23465313Y-32272644D01*
X23446386Y-32130104D01*
X23377143Y-31926864D01*
X23310751Y-31802655D01*
X23166429Y-31706708D01*
X22493137Y-32380000D01*
X22266863Y-32380000D01*
X21593571Y-31706708D01*
X21449249Y-31802655D01*
X21425000Y-31851966D01*
X21425000Y-31593571D01*
X21706708Y-31593571D01*
X22380000Y-32266863D01*
X23053292Y-31593571D01*
X22957345Y-31449249D01*
X22764670Y-31354499D01*
X22557214Y-31299158D01*
X22342947Y-31285353D01*
X22130104Y-31313614D01*
X21926864Y-31382857D01*
X21802655Y-31449249D01*
X21706708Y-31593571D01*
X21425000Y-31593571D01*
X21425000Y-30372689D01*
X21533342Y-30534834D01*
X21685166Y-30686658D01*
X21863691Y-30805945D01*
X22062059Y-30888112D01*
X22272644Y-30930000D01*
X22487356Y-30930000D01*
X22697941Y-30888112D01*
X22896309Y-30805945D01*
X23074834Y-30686658D01*
X23226658Y-30534834D01*
X23345945Y-30356309D01*
X23428112Y-30157941D01*
X23470000Y-29947356D01*
X23470000Y-29900000D01*
X26288839Y-29900000D01*
X26293473Y-29947048D01*
X26307196Y-29992288D01*
X26329482Y-30033982D01*
X26359473Y-30070527D01*
X26396018Y-30100518D01*
X26437712Y-30122804D01*
X26482952Y-30136527D01*
X26530000Y-30141161D01*
X26660000Y-30140000D01*
X26720000Y-30080000D01*
X26720000Y-29580000D01*
X26350000Y-29580000D01*
X26290000Y-29640000D01*
X26288839Y-29900000D01*
X23470000Y-29900000D01*
X23470000Y-29732644D01*
X23428112Y-29522059D01*
X23345945Y-29323691D01*
X23226658Y-29145166D01*
X23074834Y-28993342D01*
X22896309Y-28874055D01*
X22697941Y-28791888D01*
X22487356Y-28750000D01*
X22272644Y-28750000D01*
X22062059Y-28791888D01*
X21863691Y-28874055D01*
X21685166Y-28993342D01*
X21533342Y-29145166D01*
X21425000Y-29307311D01*
X21425000Y-27832689D01*
X21533342Y-27994834D01*
X21685166Y-28146658D01*
X21863691Y-28265945D01*
X22062059Y-28348112D01*
X22272644Y-28390000D01*
X22487356Y-28390000D01*
X22697941Y-28348112D01*
X22896309Y-28265945D01*
X23074834Y-28146658D01*
X23226658Y-27994834D01*
X23345945Y-27816309D01*
X23428112Y-27617941D01*
X23470000Y-27407356D01*
X23470000Y-27192644D01*
X23428112Y-26982059D01*
X23345945Y-26783691D01*
X23226658Y-26605166D01*
X23074834Y-26453342D01*
X22896309Y-26334055D01*
X22697941Y-26251888D01*
X22487356Y-26210000D01*
X22272644Y-26210000D01*
X22062059Y-26251888D01*
X21863691Y-26334055D01*
X21685166Y-26453342D01*
X21533342Y-26605166D01*
X21425000Y-26767311D01*
X21425000Y-24775410D01*
X21444670Y-24574796D01*
X21498454Y-24396656D01*
X21585819Y-24232347D01*
X21703431Y-24088139D01*
X21846813Y-23969523D01*
X22010511Y-23881012D01*
X22188275Y-23825985D01*
X22387933Y-23805000D01*
X23703764Y-23805000D01*
X23686885Y-23878412D01*
G36*
X32314943Y-39611189D02*
G01*
X32310692Y-39615440D01*
X32288975Y-39565254D01*
X32214969Y-39555599D01*
X31760660Y-40009908D01*
X31781874Y-40031122D01*
X31668737Y-40144259D01*
X31647523Y-40123045D01*
X31633381Y-40137188D01*
X31534386Y-40038193D01*
X31548528Y-40024050D01*
X31527315Y-40002837D01*
X31640452Y-39889700D01*
X31661665Y-39910913D01*
X32115974Y-39456604D01*
X32110262Y-39412819D01*
X32314943Y-39208137D01*
X32314943Y-39611189D01*
G37*
X32314943Y-39611189D02*
X32310692Y-39615440D01*
X32288975Y-39565254D01*
X32214969Y-39555599D01*
X31760660Y-40009908D01*
X31781874Y-40031122D01*
X31668737Y-40144259D01*
X31647523Y-40123045D01*
X31633381Y-40137188D01*
X31534386Y-40038193D01*
X31548528Y-40024050D01*
X31527315Y-40002837D01*
X31640452Y-39889700D01*
X31661665Y-39910913D01*
X32115974Y-39456604D01*
X32110262Y-39412819D01*
X32314943Y-39208137D01*
X32314943Y-39611189D01*
M02*
