G04 #@! TF.GenerationSoftware,KiCad,Pcbnew,(5.1.6)-1*
G04 #@! TF.CreationDate,2020-10-17T23:14:51+08:00*
G04 #@! TF.ProjectId,Alvaro,416c7661-726f-42e6-9b69-6361645f7063,C*
G04 #@! TF.SameCoordinates,Original*
G04 #@! TF.FileFunction,Copper,L2,Bot*
G04 #@! TF.FilePolarity,Positive*
%FSLAX46Y46*%
G04 Gerber Fmt 4.6, Leading zero omitted, Abs format (unit mm)*
G04 Created by KiCad (PCBNEW (5.1.6)-1) date 2020-10-17 23:14:51*
%MOMM*%
%LPD*%
G01*
G04 APERTURE LIST*
G04 #@! TA.AperFunction,ComponentPad*
%ADD10C,1.000000*%
G04 #@! TD*
G04 #@! TA.AperFunction,ComponentPad*
%ADD11C,1.700000*%
G04 #@! TD*
G04 #@! TA.AperFunction,ViaPad*
%ADD12C,0.500000*%
G04 #@! TD*
G04 #@! TA.AperFunction,Conductor*
%ADD13C,0.310000*%
G04 #@! TD*
G04 #@! TA.AperFunction,Conductor*
%ADD14C,0.160000*%
G04 #@! TD*
G04 #@! TA.AperFunction,Conductor*
%ADD15C,0.254000*%
G04 #@! TD*
G04 APERTURE END LIST*
D10*
X24424400Y-23973200D03*
X24424700Y-24252600D03*
X24424700Y-24557400D03*
X24424700Y-24900300D03*
X24424700Y-25192400D03*
X35575300Y-24570100D03*
X35575300Y-24265300D03*
X35575000Y-23985900D03*
X35575300Y-25205100D03*
X35575300Y-24913000D03*
X35575300Y-28735700D03*
X35575600Y-28219000D03*
X35575600Y-28981000D03*
X35575600Y-28481700D03*
X24425000Y-28481700D03*
X24425000Y-28981000D03*
X24425000Y-28219000D03*
X24424700Y-28735700D03*
D11*
X24920000Y-55240000D03*
X27460000Y-55240000D03*
X30000000Y-55240000D03*
X32540000Y-55240000D03*
X35080000Y-55240000D03*
X22380000Y-27300000D03*
X22380000Y-29840000D03*
X22380000Y-32380000D03*
X22380000Y-34920000D03*
X22380000Y-37460000D03*
X22380000Y-40000000D03*
X22380000Y-42540000D03*
X22380000Y-45080000D03*
X22380000Y-47620000D03*
X22380000Y-50160000D03*
X22380000Y-52700000D03*
X22380000Y-55240000D03*
X37620000Y-55240000D03*
X37620000Y-52700000D03*
X37620000Y-50160000D03*
X37620000Y-47620000D03*
X37620000Y-45080000D03*
X37620000Y-42540000D03*
X37620000Y-40000000D03*
X37620000Y-37460000D03*
X37620000Y-34920000D03*
X37620000Y-32380000D03*
X37620000Y-29840000D03*
X37620000Y-27300000D03*
X30000000Y-32380000D03*
X27460000Y-32380000D03*
D12*
X32144943Y-38744456D03*
X25584999Y-40150000D03*
X33050000Y-48370003D03*
X35599993Y-42600000D03*
X36800000Y-43850000D03*
X24100000Y-51550000D03*
X24100000Y-50450000D03*
X24100000Y-52650000D03*
X27600000Y-34000000D03*
X36000000Y-49150000D03*
X36200000Y-47500000D03*
X23450000Y-46500000D03*
X35900000Y-53300000D03*
X35575000Y-27225000D03*
X35575000Y-26175000D03*
X24425000Y-27225000D03*
X24425000Y-26200000D03*
X32125000Y-52450000D03*
X32900000Y-49925000D03*
X29775000Y-52900000D03*
X29800000Y-51400000D03*
X24125000Y-49300000D03*
X26500000Y-37650000D03*
X32200000Y-33700000D03*
X33700000Y-34550000D03*
X32200000Y-35100000D03*
X29825000Y-34025000D03*
X24425000Y-32225000D03*
X25775000Y-32225000D03*
X24650000Y-36000000D03*
X27700000Y-35900000D03*
X34450000Y-29925000D03*
X25450555Y-42400555D03*
X34735854Y-41614146D03*
X26150526Y-41910000D03*
X25968156Y-43369947D03*
X25309999Y-43859999D03*
X34229687Y-51929687D03*
X30541118Y-38841118D03*
X34803589Y-45796411D03*
X26110002Y-41251244D03*
X33050000Y-47710000D03*
X26600002Y-40778701D03*
X28182768Y-50012814D03*
X28814335Y-49821175D03*
X29488133Y-50042411D03*
X29999970Y-50600000D03*
X35250000Y-43800000D03*
X36561916Y-36211916D03*
X35942965Y-43800000D03*
X37221721Y-36195808D03*
X25800000Y-44350000D03*
X30250000Y-31050000D03*
X29000000Y-31150000D03*
X26300000Y-38678306D03*
X31579943Y-37700000D03*
X30555889Y-48819111D03*
X28670961Y-30577868D03*
X32923168Y-30309945D03*
X27425000Y-30325000D03*
X31944344Y-30530656D03*
D13*
X32144943Y-38744456D02*
X31254388Y-39635011D01*
X32144943Y-38744456D02*
X33244700Y-37644700D01*
X33244700Y-37644700D02*
X35969399Y-34920000D01*
X30739399Y-40150000D02*
X32144943Y-38744456D01*
X25584999Y-40150000D02*
X30739399Y-40150000D01*
X35599993Y-41642083D02*
X35599993Y-42600000D01*
X33226199Y-48370003D02*
X34170853Y-47425349D01*
X34170853Y-47425349D02*
X34170853Y-41342945D01*
X33050000Y-48370003D02*
X33226199Y-48370003D01*
X34464653Y-41049145D02*
X35007055Y-41049145D01*
X35007055Y-41049145D02*
X35599993Y-41642083D01*
X34170853Y-41342945D02*
X34464653Y-41049145D01*
X25266453Y-29490010D02*
X24424400Y-28647957D01*
X24424400Y-28647957D02*
X24424400Y-23973200D01*
X34733547Y-29490010D02*
X25266453Y-29490010D01*
X35575000Y-28648557D02*
X34733547Y-29490010D01*
X35575000Y-23985900D02*
X35575000Y-28648557D01*
D14*
X36320000Y-32380000D02*
X37620000Y-32380000D01*
X34737601Y-35337601D02*
X34737601Y-33962399D01*
X34737601Y-33962399D02*
X36320000Y-32380000D01*
X25094999Y-42044999D02*
X25094999Y-39914798D01*
X25450555Y-42400555D02*
X25094999Y-42044999D01*
X25094999Y-39914798D02*
X25521481Y-39488316D01*
X25521481Y-39488316D02*
X30586886Y-39488316D01*
X30586886Y-39488316D02*
X34737601Y-35337601D01*
X34735854Y-44011056D02*
X34735854Y-41614146D01*
X37620000Y-45080000D02*
X35155000Y-45080000D01*
X34735854Y-44660854D02*
X34735854Y-44011056D01*
X35155000Y-45080000D02*
X34735854Y-44660854D01*
X36500000Y-48740000D02*
X37620000Y-47620000D01*
X30090588Y-47689090D02*
X31056194Y-47689090D01*
X26930019Y-43525695D02*
X26930019Y-44528521D01*
X26930019Y-44528521D02*
X30090588Y-47689090D01*
X32090018Y-48722914D02*
X32090018Y-49884894D01*
X32090018Y-49884894D02*
X33004790Y-50799666D01*
X33004790Y-50799666D02*
X35800334Y-50799666D01*
X35800334Y-50799666D02*
X36500000Y-50100000D01*
X36500000Y-50100000D02*
X36500000Y-48740000D01*
X31056194Y-47689090D02*
X32090018Y-48722914D01*
X26930019Y-42689493D02*
X26150526Y-41910000D01*
X26930019Y-43330019D02*
X26930019Y-42689493D01*
X26930019Y-43525695D02*
X26930019Y-43330019D01*
X26610010Y-43658248D02*
X26321709Y-43369947D01*
X26610011Y-44661075D02*
X26610010Y-43658248D01*
X30923642Y-48009100D02*
X29958036Y-48009100D01*
X29958036Y-48009100D02*
X26610011Y-44661075D01*
X36660324Y-51119676D02*
X32872238Y-51119676D01*
X26321709Y-43369947D02*
X25968156Y-43369947D01*
X32872238Y-51119676D02*
X31770010Y-50017448D01*
X31770009Y-48855467D02*
X30923642Y-48009100D01*
X37620000Y-50160000D02*
X36660324Y-51119676D01*
X31770010Y-50017448D02*
X31770009Y-48855467D01*
X25309999Y-43859999D02*
X25309999Y-43859999D01*
X36359686Y-51439686D02*
X37620000Y-52700000D01*
X32739686Y-51439686D02*
X36359686Y-51439686D01*
X31450000Y-50150000D02*
X32739686Y-51439686D01*
X31450000Y-48988020D02*
X31450000Y-50150000D01*
X30791090Y-48329110D02*
X31450000Y-48988020D01*
X29825484Y-48329110D02*
X30791090Y-48329110D01*
X26290001Y-44793627D02*
X29825484Y-48329110D01*
X26035201Y-43859999D02*
X26290001Y-44114799D01*
X26290001Y-44114799D02*
X26290001Y-44793627D01*
X25309999Y-43859999D02*
X26035201Y-43859999D01*
X34229687Y-51929687D02*
X36229687Y-51929687D01*
X36529999Y-54149999D02*
X37620000Y-55240000D01*
X36529999Y-52229999D02*
X36529999Y-54149999D01*
X36229687Y-51929687D02*
X36529999Y-52229999D01*
X23470001Y-51250001D02*
X22380000Y-50160000D01*
X23729989Y-53829989D02*
X23470001Y-53570001D01*
X27914354Y-47329990D02*
X27921240Y-47329990D01*
X24750040Y-39807195D02*
X24750040Y-44165676D01*
X24750040Y-44165676D02*
X27914354Y-47329990D01*
X28284897Y-53509979D02*
X27964887Y-53829989D01*
X30489970Y-53004906D02*
X29984897Y-53509979D01*
X23470001Y-53570001D02*
X23470001Y-51250001D01*
X27964887Y-53829989D02*
X23729989Y-53829989D01*
X27921240Y-47329990D02*
X30489970Y-49898720D01*
X30489970Y-49898720D02*
X30489970Y-53004906D01*
X29984897Y-53509979D02*
X28284897Y-53509979D01*
X24750040Y-39807195D02*
X25388929Y-39168306D01*
X30213930Y-39168306D02*
X30541118Y-38841118D01*
X25388929Y-39168306D02*
X30213930Y-39168306D01*
X34050000Y-48950000D02*
X32750000Y-48950000D01*
X32750000Y-48930334D02*
X31169666Y-47350000D01*
X31169666Y-47350000D02*
X30204060Y-47350000D01*
X34803589Y-48196411D02*
X34050000Y-48950000D01*
X32750000Y-48950000D02*
X32750000Y-48930334D01*
X34803589Y-45796411D02*
X34803589Y-48196411D01*
X30204060Y-47350000D02*
X27533301Y-44679241D01*
X27533301Y-44679241D02*
X27533301Y-42716699D01*
X27533301Y-42716699D02*
X27533301Y-42567573D01*
X26216972Y-41251244D02*
X26110002Y-41251244D01*
X27533301Y-42567573D02*
X26216972Y-41251244D01*
X33050000Y-47710000D02*
X31982228Y-47710000D01*
X30336612Y-47029990D02*
X27853311Y-44546689D01*
X31982228Y-47710000D02*
X31302218Y-47029990D01*
X31302218Y-47029990D02*
X30336612Y-47029990D01*
X27853311Y-42032010D02*
X26600002Y-40778701D01*
X27853311Y-43296689D02*
X27853311Y-42032010D01*
X27853311Y-44546689D02*
X27853311Y-43296689D01*
X23470002Y-41090002D02*
X23470003Y-44695887D01*
X22380000Y-40000000D02*
X23470002Y-41090002D01*
X23470003Y-44695887D02*
X27384145Y-48610029D01*
X27384145Y-48610029D02*
X27391031Y-48610029D01*
X27391031Y-48610029D02*
X27840501Y-49059499D01*
X28200000Y-49418998D02*
X27840501Y-49059499D01*
X28200000Y-49900000D02*
X28200000Y-49418998D01*
X23790012Y-38870012D02*
X22380000Y-37460000D01*
X23790012Y-44563334D02*
X23790012Y-38870012D01*
X27516697Y-48290019D02*
X23790012Y-44563334D01*
X27523583Y-48290019D02*
X27516697Y-48290019D01*
X28814335Y-49580771D02*
X27523583Y-48290019D01*
X28814335Y-49821175D02*
X28814335Y-49580771D01*
X27656137Y-47970011D02*
X27649250Y-47970010D01*
X24110022Y-38737460D02*
X23470002Y-38097440D01*
X23470002Y-38097440D02*
X23470001Y-30930001D01*
X29488133Y-50042411D02*
X29488133Y-49802007D01*
X27649250Y-47970010D02*
X24110022Y-44430782D01*
X23470001Y-30930001D02*
X22380000Y-29840000D01*
X29488133Y-49802007D02*
X27656137Y-47970011D01*
X24110022Y-44430782D02*
X24110022Y-38737460D01*
X29999970Y-50600000D02*
X29999970Y-49861282D01*
X27788689Y-47650001D02*
X27781803Y-47650001D01*
X24430031Y-38604907D02*
X23790010Y-37964886D01*
X27781803Y-47650001D02*
X24430031Y-44298229D01*
X24430031Y-44298229D02*
X24430031Y-38604907D01*
X23790010Y-37964886D02*
X23790010Y-29411542D01*
X23790010Y-29411542D02*
X22380000Y-28001532D01*
X22380000Y-28001532D02*
X22380000Y-27300000D01*
X29999970Y-49861282D02*
X27788689Y-47650001D01*
X36089993Y-42960007D02*
X35250000Y-43800000D01*
X36561916Y-36211916D02*
X36089993Y-36683839D01*
X36089993Y-36683839D02*
X36089993Y-37289993D01*
X36089993Y-37289993D02*
X36089993Y-42960007D01*
X36410003Y-43332962D02*
X35942965Y-43800000D01*
X36410003Y-43332962D02*
X36410003Y-37439997D01*
X36410003Y-37210003D02*
X36410003Y-37056795D01*
X36410003Y-37439997D02*
X36410003Y-37210003D01*
X36410003Y-37056795D02*
X37266798Y-36200000D01*
X37266798Y-36200000D02*
X37400000Y-36200000D01*
X37051917Y-36414881D02*
X36410003Y-37056795D01*
X37104192Y-36195808D02*
X37051917Y-36248083D01*
X37221721Y-36195808D02*
X37104192Y-36195808D01*
X37221721Y-36245077D02*
X36410003Y-37056795D01*
X37221721Y-36195808D02*
X37221721Y-36245077D01*
X26010001Y-54149999D02*
X24920000Y-55240000D01*
X28086926Y-47050000D02*
X28093812Y-47050000D01*
X28046906Y-47009980D02*
X28086926Y-47050000D01*
X28046906Y-47003094D02*
X28046906Y-47009980D01*
X25800000Y-44756188D02*
X28046906Y-47003094D01*
X28417449Y-53829989D02*
X28097439Y-54149999D01*
X25800000Y-44350000D02*
X25800000Y-44756188D01*
X28093812Y-47050000D02*
X30809980Y-49766168D01*
X30809980Y-49766168D02*
X30809980Y-53137458D01*
X28097439Y-54149999D02*
X26010001Y-54149999D01*
X30809980Y-53137458D02*
X30117449Y-53829989D01*
X30117449Y-53829989D02*
X28417449Y-53829989D01*
X27770000Y-32380000D02*
X27460000Y-32380000D01*
X29000000Y-31150000D02*
X27770000Y-32380000D01*
X29100000Y-31050000D02*
X29000000Y-31150000D01*
X30250000Y-31050000D02*
X29100000Y-31050000D01*
D13*
X26300000Y-38678306D02*
X27971694Y-38678306D01*
X33065001Y-35699177D02*
X33065001Y-33434999D01*
X37620000Y-27300000D02*
X36450000Y-28470000D01*
X36450000Y-28470000D02*
X36450000Y-30050000D01*
X33065001Y-33434999D02*
X36450000Y-30050000D01*
X33065001Y-36214942D02*
X31579943Y-37700000D01*
X33065001Y-35699177D02*
X33065001Y-36214942D01*
X28950000Y-37700000D02*
X27971694Y-38678306D01*
X31579943Y-37700000D02*
X28950000Y-37700000D01*
D14*
X27460000Y-55240000D02*
X28550001Y-54149999D01*
X28550001Y-54149999D02*
X30250001Y-54149999D01*
X30250001Y-54149999D02*
X31129990Y-53270010D01*
X31129990Y-49393212D02*
X30555889Y-48819111D01*
X31129990Y-50745010D02*
X31129990Y-49393212D01*
X31129990Y-50745010D02*
X31129990Y-53270010D01*
X28688830Y-30559999D02*
X28670961Y-30577868D01*
X30959999Y-30559999D02*
X28688830Y-30559999D01*
X31420657Y-31020657D02*
X30959999Y-30559999D01*
X32923168Y-30309945D02*
X32212456Y-31020657D01*
X32212456Y-31020657D02*
X31420657Y-31020657D01*
D13*
X31426555Y-30012867D02*
X31944344Y-30530656D01*
X27425000Y-30325000D02*
X27737133Y-30012867D01*
X27737133Y-30012867D02*
X31426555Y-30012867D01*
D14*
G36*
X32502300Y-51654849D02*
G01*
X32512317Y-51667055D01*
X32524522Y-51677071D01*
X32524525Y-51677074D01*
X32561042Y-51707043D01*
X32599771Y-51727744D01*
X32616635Y-51736758D01*
X32676955Y-51755056D01*
X32723968Y-51759686D01*
X32723972Y-51759686D01*
X32739685Y-51761234D01*
X32755398Y-51759686D01*
X33769731Y-51759686D01*
X33758517Y-51786759D01*
X33739687Y-51881426D01*
X33739687Y-51977948D01*
X33758517Y-52072615D01*
X33795455Y-52161789D01*
X33849079Y-52242044D01*
X33917330Y-52310295D01*
X33997585Y-52363919D01*
X34086759Y-52400857D01*
X34181426Y-52419687D01*
X34277948Y-52419687D01*
X34372615Y-52400857D01*
X34461789Y-52363919D01*
X34542044Y-52310295D01*
X34602652Y-52249687D01*
X36097139Y-52249687D01*
X36209999Y-52362547D01*
X36210000Y-54134276D01*
X36208451Y-54149999D01*
X36211453Y-54180475D01*
X36214630Y-54212730D01*
X36232928Y-54273050D01*
X36262642Y-54328641D01*
X36287965Y-54359497D01*
X36302631Y-54377368D01*
X36314840Y-54387387D01*
X36653202Y-54725750D01*
X36571888Y-54922059D01*
X36530000Y-55132644D01*
X36530000Y-55347356D01*
X36571888Y-55557941D01*
X36654055Y-55756309D01*
X36773342Y-55934834D01*
X36925166Y-56086658D01*
X37087311Y-56195000D01*
X35612689Y-56195000D01*
X35774834Y-56086658D01*
X35926658Y-55934834D01*
X36045945Y-55756309D01*
X36128112Y-55557941D01*
X36170000Y-55347356D01*
X36170000Y-55132644D01*
X36128112Y-54922059D01*
X36045945Y-54723691D01*
X35926658Y-54545166D01*
X35774834Y-54393342D01*
X35596309Y-54274055D01*
X35397941Y-54191888D01*
X35187356Y-54150000D01*
X34972644Y-54150000D01*
X34762059Y-54191888D01*
X34563691Y-54274055D01*
X34385166Y-54393342D01*
X34233342Y-54545166D01*
X34114055Y-54723691D01*
X34031888Y-54922059D01*
X33990000Y-55132644D01*
X33990000Y-55347356D01*
X34031888Y-55557941D01*
X34114055Y-55756309D01*
X34233342Y-55934834D01*
X34385166Y-56086658D01*
X34547311Y-56195000D01*
X33072689Y-56195000D01*
X33234834Y-56086658D01*
X33386658Y-55934834D01*
X33505945Y-55756309D01*
X33588112Y-55557941D01*
X33630000Y-55347356D01*
X33630000Y-55132644D01*
X33588112Y-54922059D01*
X33505945Y-54723691D01*
X33386658Y-54545166D01*
X33234834Y-54393342D01*
X33056309Y-54274055D01*
X32857941Y-54191888D01*
X32647356Y-54150000D01*
X32432644Y-54150000D01*
X32222059Y-54191888D01*
X32023691Y-54274055D01*
X31845166Y-54393342D01*
X31693342Y-54545166D01*
X31574055Y-54723691D01*
X31491888Y-54922059D01*
X31450000Y-55132644D01*
X31450000Y-55347356D01*
X31491888Y-55557941D01*
X31574055Y-55756309D01*
X31693342Y-55934834D01*
X31845166Y-56086658D01*
X32007311Y-56195000D01*
X30532689Y-56195000D01*
X30694834Y-56086658D01*
X30846658Y-55934834D01*
X30965945Y-55756309D01*
X31048112Y-55557941D01*
X31090000Y-55347356D01*
X31090000Y-55132644D01*
X31048112Y-54922059D01*
X30965945Y-54723691D01*
X30846658Y-54545166D01*
X30694834Y-54393342D01*
X30553585Y-54298962D01*
X31345153Y-53507396D01*
X31357359Y-53497379D01*
X31367378Y-53485171D01*
X31397347Y-53448654D01*
X31427061Y-53393062D01*
X31427062Y-53393061D01*
X31445360Y-53332741D01*
X31449990Y-53285728D01*
X31449990Y-53285724D01*
X31451538Y-53270011D01*
X31449990Y-53254298D01*
X31449990Y-50602537D01*
X32502300Y-51654849D01*
G37*
X32502300Y-51654849D02*
X32512317Y-51667055D01*
X32524522Y-51677071D01*
X32524525Y-51677074D01*
X32561042Y-51707043D01*
X32599771Y-51727744D01*
X32616635Y-51736758D01*
X32676955Y-51755056D01*
X32723968Y-51759686D01*
X32723972Y-51759686D01*
X32739685Y-51761234D01*
X32755398Y-51759686D01*
X33769731Y-51759686D01*
X33758517Y-51786759D01*
X33739687Y-51881426D01*
X33739687Y-51977948D01*
X33758517Y-52072615D01*
X33795455Y-52161789D01*
X33849079Y-52242044D01*
X33917330Y-52310295D01*
X33997585Y-52363919D01*
X34086759Y-52400857D01*
X34181426Y-52419687D01*
X34277948Y-52419687D01*
X34372615Y-52400857D01*
X34461789Y-52363919D01*
X34542044Y-52310295D01*
X34602652Y-52249687D01*
X36097139Y-52249687D01*
X36209999Y-52362547D01*
X36210000Y-54134276D01*
X36208451Y-54149999D01*
X36211453Y-54180475D01*
X36214630Y-54212730D01*
X36232928Y-54273050D01*
X36262642Y-54328641D01*
X36287965Y-54359497D01*
X36302631Y-54377368D01*
X36314840Y-54387387D01*
X36653202Y-54725750D01*
X36571888Y-54922059D01*
X36530000Y-55132644D01*
X36530000Y-55347356D01*
X36571888Y-55557941D01*
X36654055Y-55756309D01*
X36773342Y-55934834D01*
X36925166Y-56086658D01*
X37087311Y-56195000D01*
X35612689Y-56195000D01*
X35774834Y-56086658D01*
X35926658Y-55934834D01*
X36045945Y-55756309D01*
X36128112Y-55557941D01*
X36170000Y-55347356D01*
X36170000Y-55132644D01*
X36128112Y-54922059D01*
X36045945Y-54723691D01*
X35926658Y-54545166D01*
X35774834Y-54393342D01*
X35596309Y-54274055D01*
X35397941Y-54191888D01*
X35187356Y-54150000D01*
X34972644Y-54150000D01*
X34762059Y-54191888D01*
X34563691Y-54274055D01*
X34385166Y-54393342D01*
X34233342Y-54545166D01*
X34114055Y-54723691D01*
X34031888Y-54922059D01*
X33990000Y-55132644D01*
X33990000Y-55347356D01*
X34031888Y-55557941D01*
X34114055Y-55756309D01*
X34233342Y-55934834D01*
X34385166Y-56086658D01*
X34547311Y-56195000D01*
X33072689Y-56195000D01*
X33234834Y-56086658D01*
X33386658Y-55934834D01*
X33505945Y-55756309D01*
X33588112Y-55557941D01*
X33630000Y-55347356D01*
X33630000Y-55132644D01*
X33588112Y-54922059D01*
X33505945Y-54723691D01*
X33386658Y-54545166D01*
X33234834Y-54393342D01*
X33056309Y-54274055D01*
X32857941Y-54191888D01*
X32647356Y-54150000D01*
X32432644Y-54150000D01*
X32222059Y-54191888D01*
X32023691Y-54274055D01*
X31845166Y-54393342D01*
X31693342Y-54545166D01*
X31574055Y-54723691D01*
X31491888Y-54922059D01*
X31450000Y-55132644D01*
X31450000Y-55347356D01*
X31491888Y-55557941D01*
X31574055Y-55756309D01*
X31693342Y-55934834D01*
X31845166Y-56086658D01*
X32007311Y-56195000D01*
X30532689Y-56195000D01*
X30694834Y-56086658D01*
X30846658Y-55934834D01*
X30965945Y-55756309D01*
X31048112Y-55557941D01*
X31090000Y-55347356D01*
X31090000Y-55132644D01*
X31048112Y-54922059D01*
X30965945Y-54723691D01*
X30846658Y-54545166D01*
X30694834Y-54393342D01*
X30553585Y-54298962D01*
X31345153Y-53507396D01*
X31357359Y-53497379D01*
X31367378Y-53485171D01*
X31397347Y-53448654D01*
X31427061Y-53393062D01*
X31427062Y-53393061D01*
X31445360Y-53332741D01*
X31449990Y-53285728D01*
X31449990Y-53285724D01*
X31451538Y-53270011D01*
X31449990Y-53254298D01*
X31449990Y-50602537D01*
X32502300Y-51654849D01*
G36*
X27146755Y-48825187D02*
G01*
X27156776Y-48837398D01*
X27168985Y-48847417D01*
X27205502Y-48877386D01*
X27206230Y-48877775D01*
X27625341Y-49296887D01*
X27625346Y-49296891D01*
X27880001Y-49551547D01*
X27880001Y-49625799D01*
X27870411Y-49632206D01*
X27802160Y-49700457D01*
X27748536Y-49780712D01*
X27711598Y-49869886D01*
X27692768Y-49964553D01*
X27692768Y-50061075D01*
X27711598Y-50155742D01*
X27748536Y-50244916D01*
X27802160Y-50325171D01*
X27870411Y-50393422D01*
X27950666Y-50447046D01*
X28039840Y-50483984D01*
X28134507Y-50502814D01*
X28231029Y-50502814D01*
X28325696Y-50483984D01*
X28414870Y-50447046D01*
X28495125Y-50393422D01*
X28563376Y-50325171D01*
X28603973Y-50264412D01*
X28671407Y-50292345D01*
X28766074Y-50311175D01*
X28862596Y-50311175D01*
X28957263Y-50292345D01*
X29046053Y-50255566D01*
X29053901Y-50274513D01*
X29107525Y-50354768D01*
X29175776Y-50423019D01*
X29256031Y-50476643D01*
X29345205Y-50513581D01*
X29439872Y-50532411D01*
X29513814Y-50532411D01*
X29509970Y-50551739D01*
X29509970Y-50648261D01*
X29528800Y-50742928D01*
X29565738Y-50832102D01*
X29619362Y-50912357D01*
X29687613Y-50980608D01*
X29767868Y-51034232D01*
X29857042Y-51071170D01*
X29951709Y-51090000D01*
X30048231Y-51090000D01*
X30142898Y-51071170D01*
X30169970Y-51059956D01*
X30169971Y-52872357D01*
X29852350Y-53189979D01*
X28300602Y-53189979D01*
X28284896Y-53188432D01*
X28269190Y-53189979D01*
X28269179Y-53189979D01*
X28222166Y-53194609D01*
X28161846Y-53212907D01*
X28155482Y-53216309D01*
X28106253Y-53242622D01*
X28069736Y-53272591D01*
X28069733Y-53272594D01*
X28057528Y-53282610D01*
X28047511Y-53294816D01*
X27832339Y-53509989D01*
X23862537Y-53509989D01*
X23790001Y-53437454D01*
X23790001Y-51265713D01*
X23791549Y-51250000D01*
X23790001Y-51234283D01*
X23785371Y-51187270D01*
X23767073Y-51126950D01*
X23747322Y-51090000D01*
X23737358Y-51071358D01*
X23707389Y-51034840D01*
X23707386Y-51034837D01*
X23697370Y-51022632D01*
X23685164Y-51012615D01*
X23346798Y-50674250D01*
X23428112Y-50477941D01*
X23470000Y-50267356D01*
X23470000Y-50052644D01*
X23428112Y-49842059D01*
X23345945Y-49643691D01*
X23226658Y-49465166D01*
X23074834Y-49313342D01*
X22896309Y-49194055D01*
X22697941Y-49111888D01*
X22487356Y-49070000D01*
X22272644Y-49070000D01*
X22062059Y-49111888D01*
X21863691Y-49194055D01*
X21685166Y-49313342D01*
X21533342Y-49465166D01*
X21425000Y-49627311D01*
X21425000Y-48152689D01*
X21533342Y-48314834D01*
X21685166Y-48466658D01*
X21863691Y-48585945D01*
X22062059Y-48668112D01*
X22272644Y-48710000D01*
X22487356Y-48710000D01*
X22697941Y-48668112D01*
X22896309Y-48585945D01*
X23074834Y-48466658D01*
X23226658Y-48314834D01*
X23345945Y-48136309D01*
X23428112Y-47937941D01*
X23470000Y-47727356D01*
X23470000Y-47512644D01*
X23428112Y-47302059D01*
X23345945Y-47103691D01*
X23226658Y-46925166D01*
X23074834Y-46773342D01*
X22896309Y-46654055D01*
X22697941Y-46571888D01*
X22487356Y-46530000D01*
X22272644Y-46530000D01*
X22062059Y-46571888D01*
X21863691Y-46654055D01*
X21685166Y-46773342D01*
X21533342Y-46925166D01*
X21425000Y-47087311D01*
X21425000Y-45612689D01*
X21533342Y-45774834D01*
X21685166Y-45926658D01*
X21863691Y-46045945D01*
X22062059Y-46128112D01*
X22272644Y-46170000D01*
X22487356Y-46170000D01*
X22697941Y-46128112D01*
X22896309Y-46045945D01*
X23074834Y-45926658D01*
X23226658Y-45774834D01*
X23345945Y-45596309D01*
X23428112Y-45397941D01*
X23470000Y-45187356D01*
X23470000Y-45148431D01*
X27146755Y-48825187D01*
G37*
X27146755Y-48825187D02*
X27156776Y-48837398D01*
X27168985Y-48847417D01*
X27205502Y-48877386D01*
X27206230Y-48877775D01*
X27625341Y-49296887D01*
X27625346Y-49296891D01*
X27880001Y-49551547D01*
X27880001Y-49625799D01*
X27870411Y-49632206D01*
X27802160Y-49700457D01*
X27748536Y-49780712D01*
X27711598Y-49869886D01*
X27692768Y-49964553D01*
X27692768Y-50061075D01*
X27711598Y-50155742D01*
X27748536Y-50244916D01*
X27802160Y-50325171D01*
X27870411Y-50393422D01*
X27950666Y-50447046D01*
X28039840Y-50483984D01*
X28134507Y-50502814D01*
X28231029Y-50502814D01*
X28325696Y-50483984D01*
X28414870Y-50447046D01*
X28495125Y-50393422D01*
X28563376Y-50325171D01*
X28603973Y-50264412D01*
X28671407Y-50292345D01*
X28766074Y-50311175D01*
X28862596Y-50311175D01*
X28957263Y-50292345D01*
X29046053Y-50255566D01*
X29053901Y-50274513D01*
X29107525Y-50354768D01*
X29175776Y-50423019D01*
X29256031Y-50476643D01*
X29345205Y-50513581D01*
X29439872Y-50532411D01*
X29513814Y-50532411D01*
X29509970Y-50551739D01*
X29509970Y-50648261D01*
X29528800Y-50742928D01*
X29565738Y-50832102D01*
X29619362Y-50912357D01*
X29687613Y-50980608D01*
X29767868Y-51034232D01*
X29857042Y-51071170D01*
X29951709Y-51090000D01*
X30048231Y-51090000D01*
X30142898Y-51071170D01*
X30169970Y-51059956D01*
X30169971Y-52872357D01*
X29852350Y-53189979D01*
X28300602Y-53189979D01*
X28284896Y-53188432D01*
X28269190Y-53189979D01*
X28269179Y-53189979D01*
X28222166Y-53194609D01*
X28161846Y-53212907D01*
X28155482Y-53216309D01*
X28106253Y-53242622D01*
X28069736Y-53272591D01*
X28069733Y-53272594D01*
X28057528Y-53282610D01*
X28047511Y-53294816D01*
X27832339Y-53509989D01*
X23862537Y-53509989D01*
X23790001Y-53437454D01*
X23790001Y-51265713D01*
X23791549Y-51250000D01*
X23790001Y-51234283D01*
X23785371Y-51187270D01*
X23767073Y-51126950D01*
X23747322Y-51090000D01*
X23737358Y-51071358D01*
X23707389Y-51034840D01*
X23707386Y-51034837D01*
X23697370Y-51022632D01*
X23685164Y-51012615D01*
X23346798Y-50674250D01*
X23428112Y-50477941D01*
X23470000Y-50267356D01*
X23470000Y-50052644D01*
X23428112Y-49842059D01*
X23345945Y-49643691D01*
X23226658Y-49465166D01*
X23074834Y-49313342D01*
X22896309Y-49194055D01*
X22697941Y-49111888D01*
X22487356Y-49070000D01*
X22272644Y-49070000D01*
X22062059Y-49111888D01*
X21863691Y-49194055D01*
X21685166Y-49313342D01*
X21533342Y-49465166D01*
X21425000Y-49627311D01*
X21425000Y-48152689D01*
X21533342Y-48314834D01*
X21685166Y-48466658D01*
X21863691Y-48585945D01*
X22062059Y-48668112D01*
X22272644Y-48710000D01*
X22487356Y-48710000D01*
X22697941Y-48668112D01*
X22896309Y-48585945D01*
X23074834Y-48466658D01*
X23226658Y-48314834D01*
X23345945Y-48136309D01*
X23428112Y-47937941D01*
X23470000Y-47727356D01*
X23470000Y-47512644D01*
X23428112Y-47302059D01*
X23345945Y-47103691D01*
X23226658Y-46925166D01*
X23074834Y-46773342D01*
X22896309Y-46654055D01*
X22697941Y-46571888D01*
X22487356Y-46530000D01*
X22272644Y-46530000D01*
X22062059Y-46571888D01*
X21863691Y-46654055D01*
X21685166Y-46773342D01*
X21533342Y-46925166D01*
X21425000Y-47087311D01*
X21425000Y-45612689D01*
X21533342Y-45774834D01*
X21685166Y-45926658D01*
X21863691Y-46045945D01*
X22062059Y-46128112D01*
X22272644Y-46170000D01*
X22487356Y-46170000D01*
X22697941Y-46128112D01*
X22896309Y-46045945D01*
X23074834Y-45926658D01*
X23226658Y-45774834D01*
X23345945Y-45596309D01*
X23428112Y-45397941D01*
X23470000Y-45187356D01*
X23470000Y-45148431D01*
X27146755Y-48825187D01*
G36*
X35092269Y-45395370D02*
G01*
X35139282Y-45400000D01*
X35139287Y-45400000D01*
X35155000Y-45401548D01*
X35170713Y-45400000D01*
X36572741Y-45400000D01*
X36654055Y-45596309D01*
X36773342Y-45774834D01*
X36925166Y-45926658D01*
X37103691Y-46045945D01*
X37302059Y-46128112D01*
X37512644Y-46170000D01*
X37727356Y-46170000D01*
X37937941Y-46128112D01*
X38136309Y-46045945D01*
X38314834Y-45926658D01*
X38466658Y-45774834D01*
X38575000Y-45612689D01*
X38575000Y-47087311D01*
X38466658Y-46925166D01*
X38314834Y-46773342D01*
X38136309Y-46654055D01*
X37937941Y-46571888D01*
X37727356Y-46530000D01*
X37512644Y-46530000D01*
X37302059Y-46571888D01*
X37103691Y-46654055D01*
X36925166Y-46773342D01*
X36773342Y-46925166D01*
X36654055Y-47103691D01*
X36571888Y-47302059D01*
X36530000Y-47512644D01*
X36530000Y-47727356D01*
X36571888Y-47937941D01*
X36653202Y-48134250D01*
X36284843Y-48502610D01*
X36272632Y-48512631D01*
X36262612Y-48524841D01*
X36232643Y-48561358D01*
X36209109Y-48605387D01*
X36202929Y-48616949D01*
X36184631Y-48677269D01*
X36181684Y-48707196D01*
X36178452Y-48740000D01*
X36180001Y-48755723D01*
X36180000Y-49967452D01*
X35667787Y-50479666D01*
X33137338Y-50479666D01*
X32410018Y-49752347D01*
X32410018Y-49042900D01*
X32467580Y-49100462D01*
X32482643Y-49128642D01*
X32513172Y-49165843D01*
X32522631Y-49177369D01*
X32571358Y-49217357D01*
X32626949Y-49247072D01*
X32687269Y-49265370D01*
X32750000Y-49271548D01*
X32765718Y-49270000D01*
X34034287Y-49270000D01*
X34050000Y-49271548D01*
X34065713Y-49270000D01*
X34065718Y-49270000D01*
X34112731Y-49265370D01*
X34173051Y-49247072D01*
X34228642Y-49217357D01*
X34277369Y-49177369D01*
X34287394Y-49165153D01*
X35018747Y-48433801D01*
X35030958Y-48423780D01*
X35057170Y-48391840D01*
X35070946Y-48375054D01*
X35088255Y-48342672D01*
X35100661Y-48319462D01*
X35118959Y-48259142D01*
X35123589Y-48212129D01*
X35123589Y-48212127D01*
X35125137Y-48196411D01*
X35123589Y-48180695D01*
X35123589Y-46169376D01*
X35184197Y-46108768D01*
X35237821Y-46028513D01*
X35274759Y-45939339D01*
X35293589Y-45844672D01*
X35293589Y-45748150D01*
X35274759Y-45653483D01*
X35237821Y-45564309D01*
X35184197Y-45484054D01*
X35115946Y-45415803D01*
X35079625Y-45391535D01*
X35092269Y-45395370D01*
G37*
X35092269Y-45395370D02*
X35139282Y-45400000D01*
X35139287Y-45400000D01*
X35155000Y-45401548D01*
X35170713Y-45400000D01*
X36572741Y-45400000D01*
X36654055Y-45596309D01*
X36773342Y-45774834D01*
X36925166Y-45926658D01*
X37103691Y-46045945D01*
X37302059Y-46128112D01*
X37512644Y-46170000D01*
X37727356Y-46170000D01*
X37937941Y-46128112D01*
X38136309Y-46045945D01*
X38314834Y-45926658D01*
X38466658Y-45774834D01*
X38575000Y-45612689D01*
X38575000Y-47087311D01*
X38466658Y-46925166D01*
X38314834Y-46773342D01*
X38136309Y-46654055D01*
X37937941Y-46571888D01*
X37727356Y-46530000D01*
X37512644Y-46530000D01*
X37302059Y-46571888D01*
X37103691Y-46654055D01*
X36925166Y-46773342D01*
X36773342Y-46925166D01*
X36654055Y-47103691D01*
X36571888Y-47302059D01*
X36530000Y-47512644D01*
X36530000Y-47727356D01*
X36571888Y-47937941D01*
X36653202Y-48134250D01*
X36284843Y-48502610D01*
X36272632Y-48512631D01*
X36262612Y-48524841D01*
X36232643Y-48561358D01*
X36209109Y-48605387D01*
X36202929Y-48616949D01*
X36184631Y-48677269D01*
X36181684Y-48707196D01*
X36178452Y-48740000D01*
X36180001Y-48755723D01*
X36180000Y-49967452D01*
X35667787Y-50479666D01*
X33137338Y-50479666D01*
X32410018Y-49752347D01*
X32410018Y-49042900D01*
X32467580Y-49100462D01*
X32482643Y-49128642D01*
X32513172Y-49165843D01*
X32522631Y-49177369D01*
X32571358Y-49217357D01*
X32626949Y-49247072D01*
X32687269Y-49265370D01*
X32750000Y-49271548D01*
X32765718Y-49270000D01*
X34034287Y-49270000D01*
X34050000Y-49271548D01*
X34065713Y-49270000D01*
X34065718Y-49270000D01*
X34112731Y-49265370D01*
X34173051Y-49247072D01*
X34228642Y-49217357D01*
X34277369Y-49177369D01*
X34287394Y-49165153D01*
X35018747Y-48433801D01*
X35030958Y-48423780D01*
X35057170Y-48391840D01*
X35070946Y-48375054D01*
X35088255Y-48342672D01*
X35100661Y-48319462D01*
X35118959Y-48259142D01*
X35123589Y-48212129D01*
X35123589Y-48212127D01*
X35125137Y-48196411D01*
X35123589Y-48180695D01*
X35123589Y-46169376D01*
X35184197Y-46108768D01*
X35237821Y-46028513D01*
X35274759Y-45939339D01*
X35293589Y-45844672D01*
X35293589Y-45748150D01*
X35274759Y-45653483D01*
X35237821Y-45564309D01*
X35184197Y-45484054D01*
X35115946Y-45415803D01*
X35079625Y-45391535D01*
X35092269Y-45395370D01*
G36*
X38575000Y-44547311D02*
G01*
X38466658Y-44385166D01*
X38314834Y-44233342D01*
X38136309Y-44114055D01*
X37937941Y-44031888D01*
X37727356Y-43990000D01*
X37512644Y-43990000D01*
X37302059Y-44031888D01*
X37103691Y-44114055D01*
X36925166Y-44233342D01*
X36773342Y-44385166D01*
X36654055Y-44563691D01*
X36572741Y-44760000D01*
X35287548Y-44760000D01*
X35055854Y-44528307D01*
X35055854Y-44249954D01*
X35107072Y-44271170D01*
X35201739Y-44290000D01*
X35298261Y-44290000D01*
X35392928Y-44271170D01*
X35482102Y-44234232D01*
X35562357Y-44180608D01*
X35596483Y-44146483D01*
X35630608Y-44180608D01*
X35710863Y-44234232D01*
X35800037Y-44271170D01*
X35894704Y-44290000D01*
X35991226Y-44290000D01*
X36085893Y-44271170D01*
X36175067Y-44234232D01*
X36255322Y-44180608D01*
X36323573Y-44112357D01*
X36377197Y-44032102D01*
X36414135Y-43942928D01*
X36432965Y-43848261D01*
X36432965Y-43762548D01*
X36625167Y-43570347D01*
X36637372Y-43560331D01*
X36647391Y-43548123D01*
X36677360Y-43511606D01*
X36707074Y-43456014D01*
X36707075Y-43456013D01*
X36725373Y-43395693D01*
X36730003Y-43348680D01*
X36730003Y-43348669D01*
X36731550Y-43332963D01*
X36730003Y-43317257D01*
X36730003Y-43169973D01*
X36773342Y-43234834D01*
X36925166Y-43386658D01*
X37103691Y-43505945D01*
X37302059Y-43588112D01*
X37512644Y-43630000D01*
X37727356Y-43630000D01*
X37937941Y-43588112D01*
X38136309Y-43505945D01*
X38314834Y-43386658D01*
X38466658Y-43234834D01*
X38575000Y-43072689D01*
X38575000Y-44547311D01*
G37*
X38575000Y-44547311D02*
X38466658Y-44385166D01*
X38314834Y-44233342D01*
X38136309Y-44114055D01*
X37937941Y-44031888D01*
X37727356Y-43990000D01*
X37512644Y-43990000D01*
X37302059Y-44031888D01*
X37103691Y-44114055D01*
X36925166Y-44233342D01*
X36773342Y-44385166D01*
X36654055Y-44563691D01*
X36572741Y-44760000D01*
X35287548Y-44760000D01*
X35055854Y-44528307D01*
X35055854Y-44249954D01*
X35107072Y-44271170D01*
X35201739Y-44290000D01*
X35298261Y-44290000D01*
X35392928Y-44271170D01*
X35482102Y-44234232D01*
X35562357Y-44180608D01*
X35596483Y-44146483D01*
X35630608Y-44180608D01*
X35710863Y-44234232D01*
X35800037Y-44271170D01*
X35894704Y-44290000D01*
X35991226Y-44290000D01*
X36085893Y-44271170D01*
X36175067Y-44234232D01*
X36255322Y-44180608D01*
X36323573Y-44112357D01*
X36377197Y-44032102D01*
X36414135Y-43942928D01*
X36432965Y-43848261D01*
X36432965Y-43762548D01*
X36625167Y-43570347D01*
X36637372Y-43560331D01*
X36647391Y-43548123D01*
X36677360Y-43511606D01*
X36707074Y-43456014D01*
X36707075Y-43456013D01*
X36725373Y-43395693D01*
X36730003Y-43348680D01*
X36730003Y-43348669D01*
X36731550Y-43332963D01*
X36730003Y-43317257D01*
X36730003Y-43169973D01*
X36773342Y-43234834D01*
X36925166Y-43386658D01*
X37103691Y-43505945D01*
X37302059Y-43588112D01*
X37512644Y-43630000D01*
X37727356Y-43630000D01*
X37937941Y-43588112D01*
X38136309Y-43505945D01*
X38314834Y-43386658D01*
X38466658Y-43234834D01*
X38575000Y-43072689D01*
X38575000Y-44547311D01*
G36*
X34909717Y-29311928D02*
G01*
X34930499Y-29350808D01*
X35038988Y-29404475D01*
X35158221Y-29285242D01*
X35205492Y-29380801D01*
X35263064Y-29406673D01*
X35152125Y-29517612D01*
X35205792Y-29626101D01*
X35338751Y-29685852D01*
X35480812Y-29718515D01*
X35626515Y-29722836D01*
X35770262Y-29698649D01*
X35906528Y-29646883D01*
X35945408Y-29626101D01*
X35999074Y-29517614D01*
X36044547Y-29563087D01*
X36055001Y-29552633D01*
X36055001Y-29886385D01*
X32799413Y-33141974D01*
X32784344Y-33154341D01*
X32734983Y-33214487D01*
X32698304Y-33283108D01*
X32675717Y-33357566D01*
X32668091Y-33434999D01*
X32670002Y-33454403D01*
X32670001Y-35679776D01*
X32670001Y-35679777D01*
X32670002Y-36051327D01*
X31506277Y-37215053D01*
X31437015Y-37228830D01*
X31347841Y-37265768D01*
X31289125Y-37305000D01*
X28969394Y-37305000D01*
X28950000Y-37303090D01*
X28930606Y-37305000D01*
X28930599Y-37305000D01*
X28872567Y-37310716D01*
X28798108Y-37333302D01*
X28729488Y-37369981D01*
X28684411Y-37406974D01*
X28684405Y-37406980D01*
X28669342Y-37419342D01*
X28656980Y-37434405D01*
X27808081Y-38283306D01*
X26590818Y-38283306D01*
X26532102Y-38244074D01*
X26442928Y-38207136D01*
X26348261Y-38188306D01*
X26251739Y-38188306D01*
X26157072Y-38207136D01*
X26067898Y-38244074D01*
X25987643Y-38297698D01*
X25919392Y-38365949D01*
X25865768Y-38446204D01*
X25828830Y-38535378D01*
X25810000Y-38630045D01*
X25810000Y-38726567D01*
X25828830Y-38821234D01*
X25840044Y-38848306D01*
X25404634Y-38848306D01*
X25388928Y-38846759D01*
X25373222Y-38848306D01*
X25373211Y-38848306D01*
X25326198Y-38852936D01*
X25265878Y-38871234D01*
X25249014Y-38880248D01*
X25210285Y-38900949D01*
X25173768Y-38930918D01*
X25173765Y-38930921D01*
X25161560Y-38940937D01*
X25151543Y-38953143D01*
X24750031Y-39354656D01*
X24750031Y-38620619D01*
X24751579Y-38604906D01*
X24750031Y-38589189D01*
X24745401Y-38542176D01*
X24727103Y-38481856D01*
X24718089Y-38464992D01*
X24697388Y-38426263D01*
X24667419Y-38389746D01*
X24667416Y-38389743D01*
X24657400Y-38377538D01*
X24645194Y-38367521D01*
X24110010Y-37832339D01*
X24110010Y-32272644D01*
X26370000Y-32272644D01*
X26370000Y-32487356D01*
X26411888Y-32697941D01*
X26494055Y-32896309D01*
X26613342Y-33074834D01*
X26765166Y-33226658D01*
X26943691Y-33345945D01*
X27142059Y-33428112D01*
X27352644Y-33470000D01*
X27567356Y-33470000D01*
X27777941Y-33428112D01*
X27976309Y-33345945D01*
X28154834Y-33226658D01*
X28306658Y-33074834D01*
X28425945Y-32896309D01*
X28508112Y-32697941D01*
X28550000Y-32487356D01*
X28550000Y-32272644D01*
X28513484Y-32089064D01*
X28962548Y-31640000D01*
X29048261Y-31640000D01*
X29142928Y-31621170D01*
X29232102Y-31584232D01*
X29298925Y-31539583D01*
X29153342Y-31685166D01*
X29034055Y-31863691D01*
X28951888Y-32062059D01*
X28910000Y-32272644D01*
X28910000Y-32487356D01*
X28951888Y-32697941D01*
X29034055Y-32896309D01*
X29153342Y-33074834D01*
X29305166Y-33226658D01*
X29483691Y-33345945D01*
X29682059Y-33428112D01*
X29892644Y-33470000D01*
X30107356Y-33470000D01*
X30317941Y-33428112D01*
X30516309Y-33345945D01*
X30694834Y-33226658D01*
X30846658Y-33074834D01*
X30965945Y-32896309D01*
X31048112Y-32697941D01*
X31090000Y-32487356D01*
X31090000Y-32272644D01*
X31048112Y-32062059D01*
X30965945Y-31863691D01*
X30846658Y-31685166D01*
X30694834Y-31533342D01*
X30551720Y-31437716D01*
X30562357Y-31430608D01*
X30630608Y-31362357D01*
X30684232Y-31282102D01*
X30721170Y-31192928D01*
X30740000Y-31098261D01*
X30740000Y-31001739D01*
X30721170Y-30907072D01*
X30709956Y-30879999D01*
X30827452Y-30879999D01*
X31183267Y-31235815D01*
X31193288Y-31248026D01*
X31216692Y-31267233D01*
X31242014Y-31288014D01*
X31262863Y-31299158D01*
X31297606Y-31317729D01*
X31357926Y-31336027D01*
X31404939Y-31340657D01*
X31404941Y-31340657D01*
X31420657Y-31342205D01*
X31436373Y-31340657D01*
X32196743Y-31340657D01*
X32212456Y-31342205D01*
X32228169Y-31340657D01*
X32228174Y-31340657D01*
X32275187Y-31336027D01*
X32335507Y-31317729D01*
X32391098Y-31288014D01*
X32439825Y-31248026D01*
X32449850Y-31235810D01*
X32885716Y-30799945D01*
X32971429Y-30799945D01*
X33066096Y-30781115D01*
X33155270Y-30744177D01*
X33235525Y-30690553D01*
X33303776Y-30622302D01*
X33357400Y-30542047D01*
X33394338Y-30452873D01*
X33413168Y-30358206D01*
X33413168Y-30261684D01*
X33394338Y-30167017D01*
X33357400Y-30077843D01*
X33303776Y-29997588D01*
X33235525Y-29929337D01*
X33155270Y-29875713D01*
X33066096Y-29838775D01*
X32971429Y-29819945D01*
X32874907Y-29819945D01*
X32780240Y-29838775D01*
X32691066Y-29875713D01*
X32610811Y-29929337D01*
X32542560Y-29997588D01*
X32488936Y-30077843D01*
X32451998Y-30167017D01*
X32433168Y-30261684D01*
X32433168Y-30347397D01*
X32408872Y-30371693D01*
X32378576Y-30298554D01*
X32324952Y-30218299D01*
X32256701Y-30150048D01*
X32176446Y-30096424D01*
X32087272Y-30059486D01*
X32018011Y-30045709D01*
X31719584Y-29747283D01*
X31707213Y-29732209D01*
X31647067Y-29682848D01*
X31578446Y-29646169D01*
X31503988Y-29623583D01*
X31445956Y-29617867D01*
X31445949Y-29617867D01*
X31426555Y-29615957D01*
X31407161Y-29617867D01*
X27756527Y-29617867D01*
X27737133Y-29615957D01*
X27717739Y-29617867D01*
X27717732Y-29617867D01*
X27659700Y-29623583D01*
X27585242Y-29646169D01*
X27516621Y-29682848D01*
X27456475Y-29732209D01*
X27444108Y-29747278D01*
X27351333Y-29840053D01*
X27282072Y-29853830D01*
X27192898Y-29890768D01*
X27112643Y-29944392D01*
X27044392Y-30012643D01*
X26990768Y-30092898D01*
X26953830Y-30182072D01*
X26935000Y-30276739D01*
X26935000Y-30373261D01*
X26953830Y-30467928D01*
X26990768Y-30557102D01*
X27044392Y-30637357D01*
X27112643Y-30705608D01*
X27192898Y-30759232D01*
X27282072Y-30796170D01*
X27376739Y-30815000D01*
X27473261Y-30815000D01*
X27567928Y-30796170D01*
X27657102Y-30759232D01*
X27737357Y-30705608D01*
X27805608Y-30637357D01*
X27859232Y-30557102D01*
X27896170Y-30467928D01*
X27908117Y-30407867D01*
X28211005Y-30407867D01*
X28199791Y-30434940D01*
X28180961Y-30529607D01*
X28180961Y-30626129D01*
X28199791Y-30720796D01*
X28236729Y-30809970D01*
X28290353Y-30890225D01*
X28358604Y-30958476D01*
X28438859Y-31012100D01*
X28521057Y-31046149D01*
X28510000Y-31101739D01*
X28510000Y-31187452D01*
X28159472Y-31537980D01*
X28154834Y-31533342D01*
X27976309Y-31414055D01*
X27777941Y-31331888D01*
X27567356Y-31290000D01*
X27352644Y-31290000D01*
X27142059Y-31331888D01*
X26943691Y-31414055D01*
X26765166Y-31533342D01*
X26613342Y-31685166D01*
X26494055Y-31863691D01*
X26411888Y-32062059D01*
X26370000Y-32272644D01*
X24110010Y-32272644D01*
X24110010Y-29650736D01*
X24188151Y-29685852D01*
X24330212Y-29718515D01*
X24475915Y-29722836D01*
X24619662Y-29698649D01*
X24755928Y-29646883D01*
X24794808Y-29626101D01*
X24848475Y-29517612D01*
X24738828Y-29407965D01*
X24755628Y-29401583D01*
X24794508Y-29380801D01*
X24841977Y-29284840D01*
X24961612Y-29404475D01*
X25070101Y-29350808D01*
X25129852Y-29217849D01*
X25131888Y-29208992D01*
X25135570Y-29221128D01*
X25164820Y-29275851D01*
X25204184Y-29323816D01*
X25252149Y-29363180D01*
X25306872Y-29392430D01*
X25366249Y-29410442D01*
X25412527Y-29415000D01*
X25428000Y-29416524D01*
X25443473Y-29415000D01*
X34556527Y-29415000D01*
X34572000Y-29416524D01*
X34587473Y-29415000D01*
X34633751Y-29410442D01*
X34693128Y-29392430D01*
X34747851Y-29363180D01*
X34795816Y-29323816D01*
X34835180Y-29275851D01*
X34864430Y-29221128D01*
X34869222Y-29205331D01*
X34909717Y-29311928D01*
G37*
X34909717Y-29311928D02*
X34930499Y-29350808D01*
X35038988Y-29404475D01*
X35158221Y-29285242D01*
X35205492Y-29380801D01*
X35263064Y-29406673D01*
X35152125Y-29517612D01*
X35205792Y-29626101D01*
X35338751Y-29685852D01*
X35480812Y-29718515D01*
X35626515Y-29722836D01*
X35770262Y-29698649D01*
X35906528Y-29646883D01*
X35945408Y-29626101D01*
X35999074Y-29517614D01*
X36044547Y-29563087D01*
X36055001Y-29552633D01*
X36055001Y-29886385D01*
X32799413Y-33141974D01*
X32784344Y-33154341D01*
X32734983Y-33214487D01*
X32698304Y-33283108D01*
X32675717Y-33357566D01*
X32668091Y-33434999D01*
X32670002Y-33454403D01*
X32670001Y-35679776D01*
X32670001Y-35679777D01*
X32670002Y-36051327D01*
X31506277Y-37215053D01*
X31437015Y-37228830D01*
X31347841Y-37265768D01*
X31289125Y-37305000D01*
X28969394Y-37305000D01*
X28950000Y-37303090D01*
X28930606Y-37305000D01*
X28930599Y-37305000D01*
X28872567Y-37310716D01*
X28798108Y-37333302D01*
X28729488Y-37369981D01*
X28684411Y-37406974D01*
X28684405Y-37406980D01*
X28669342Y-37419342D01*
X28656980Y-37434405D01*
X27808081Y-38283306D01*
X26590818Y-38283306D01*
X26532102Y-38244074D01*
X26442928Y-38207136D01*
X26348261Y-38188306D01*
X26251739Y-38188306D01*
X26157072Y-38207136D01*
X26067898Y-38244074D01*
X25987643Y-38297698D01*
X25919392Y-38365949D01*
X25865768Y-38446204D01*
X25828830Y-38535378D01*
X25810000Y-38630045D01*
X25810000Y-38726567D01*
X25828830Y-38821234D01*
X25840044Y-38848306D01*
X25404634Y-38848306D01*
X25388928Y-38846759D01*
X25373222Y-38848306D01*
X25373211Y-38848306D01*
X25326198Y-38852936D01*
X25265878Y-38871234D01*
X25249014Y-38880248D01*
X25210285Y-38900949D01*
X25173768Y-38930918D01*
X25173765Y-38930921D01*
X25161560Y-38940937D01*
X25151543Y-38953143D01*
X24750031Y-39354656D01*
X24750031Y-38620619D01*
X24751579Y-38604906D01*
X24750031Y-38589189D01*
X24745401Y-38542176D01*
X24727103Y-38481856D01*
X24718089Y-38464992D01*
X24697388Y-38426263D01*
X24667419Y-38389746D01*
X24667416Y-38389743D01*
X24657400Y-38377538D01*
X24645194Y-38367521D01*
X24110010Y-37832339D01*
X24110010Y-32272644D01*
X26370000Y-32272644D01*
X26370000Y-32487356D01*
X26411888Y-32697941D01*
X26494055Y-32896309D01*
X26613342Y-33074834D01*
X26765166Y-33226658D01*
X26943691Y-33345945D01*
X27142059Y-33428112D01*
X27352644Y-33470000D01*
X27567356Y-33470000D01*
X27777941Y-33428112D01*
X27976309Y-33345945D01*
X28154834Y-33226658D01*
X28306658Y-33074834D01*
X28425945Y-32896309D01*
X28508112Y-32697941D01*
X28550000Y-32487356D01*
X28550000Y-32272644D01*
X28513484Y-32089064D01*
X28962548Y-31640000D01*
X29048261Y-31640000D01*
X29142928Y-31621170D01*
X29232102Y-31584232D01*
X29298925Y-31539583D01*
X29153342Y-31685166D01*
X29034055Y-31863691D01*
X28951888Y-32062059D01*
X28910000Y-32272644D01*
X28910000Y-32487356D01*
X28951888Y-32697941D01*
X29034055Y-32896309D01*
X29153342Y-33074834D01*
X29305166Y-33226658D01*
X29483691Y-33345945D01*
X29682059Y-33428112D01*
X29892644Y-33470000D01*
X30107356Y-33470000D01*
X30317941Y-33428112D01*
X30516309Y-33345945D01*
X30694834Y-33226658D01*
X30846658Y-33074834D01*
X30965945Y-32896309D01*
X31048112Y-32697941D01*
X31090000Y-32487356D01*
X31090000Y-32272644D01*
X31048112Y-32062059D01*
X30965945Y-31863691D01*
X30846658Y-31685166D01*
X30694834Y-31533342D01*
X30551720Y-31437716D01*
X30562357Y-31430608D01*
X30630608Y-31362357D01*
X30684232Y-31282102D01*
X30721170Y-31192928D01*
X30740000Y-31098261D01*
X30740000Y-31001739D01*
X30721170Y-30907072D01*
X30709956Y-30879999D01*
X30827452Y-30879999D01*
X31183267Y-31235815D01*
X31193288Y-31248026D01*
X31216692Y-31267233D01*
X31242014Y-31288014D01*
X31262863Y-31299158D01*
X31297606Y-31317729D01*
X31357926Y-31336027D01*
X31404939Y-31340657D01*
X31404941Y-31340657D01*
X31420657Y-31342205D01*
X31436373Y-31340657D01*
X32196743Y-31340657D01*
X32212456Y-31342205D01*
X32228169Y-31340657D01*
X32228174Y-31340657D01*
X32275187Y-31336027D01*
X32335507Y-31317729D01*
X32391098Y-31288014D01*
X32439825Y-31248026D01*
X32449850Y-31235810D01*
X32885716Y-30799945D01*
X32971429Y-30799945D01*
X33066096Y-30781115D01*
X33155270Y-30744177D01*
X33235525Y-30690553D01*
X33303776Y-30622302D01*
X33357400Y-30542047D01*
X33394338Y-30452873D01*
X33413168Y-30358206D01*
X33413168Y-30261684D01*
X33394338Y-30167017D01*
X33357400Y-30077843D01*
X33303776Y-29997588D01*
X33235525Y-29929337D01*
X33155270Y-29875713D01*
X33066096Y-29838775D01*
X32971429Y-29819945D01*
X32874907Y-29819945D01*
X32780240Y-29838775D01*
X32691066Y-29875713D01*
X32610811Y-29929337D01*
X32542560Y-29997588D01*
X32488936Y-30077843D01*
X32451998Y-30167017D01*
X32433168Y-30261684D01*
X32433168Y-30347397D01*
X32408872Y-30371693D01*
X32378576Y-30298554D01*
X32324952Y-30218299D01*
X32256701Y-30150048D01*
X32176446Y-30096424D01*
X32087272Y-30059486D01*
X32018011Y-30045709D01*
X31719584Y-29747283D01*
X31707213Y-29732209D01*
X31647067Y-29682848D01*
X31578446Y-29646169D01*
X31503988Y-29623583D01*
X31445956Y-29617867D01*
X31445949Y-29617867D01*
X31426555Y-29615957D01*
X31407161Y-29617867D01*
X27756527Y-29617867D01*
X27737133Y-29615957D01*
X27717739Y-29617867D01*
X27717732Y-29617867D01*
X27659700Y-29623583D01*
X27585242Y-29646169D01*
X27516621Y-29682848D01*
X27456475Y-29732209D01*
X27444108Y-29747278D01*
X27351333Y-29840053D01*
X27282072Y-29853830D01*
X27192898Y-29890768D01*
X27112643Y-29944392D01*
X27044392Y-30012643D01*
X26990768Y-30092898D01*
X26953830Y-30182072D01*
X26935000Y-30276739D01*
X26935000Y-30373261D01*
X26953830Y-30467928D01*
X26990768Y-30557102D01*
X27044392Y-30637357D01*
X27112643Y-30705608D01*
X27192898Y-30759232D01*
X27282072Y-30796170D01*
X27376739Y-30815000D01*
X27473261Y-30815000D01*
X27567928Y-30796170D01*
X27657102Y-30759232D01*
X27737357Y-30705608D01*
X27805608Y-30637357D01*
X27859232Y-30557102D01*
X27896170Y-30467928D01*
X27908117Y-30407867D01*
X28211005Y-30407867D01*
X28199791Y-30434940D01*
X28180961Y-30529607D01*
X28180961Y-30626129D01*
X28199791Y-30720796D01*
X28236729Y-30809970D01*
X28290353Y-30890225D01*
X28358604Y-30958476D01*
X28438859Y-31012100D01*
X28521057Y-31046149D01*
X28510000Y-31101739D01*
X28510000Y-31187452D01*
X28159472Y-31537980D01*
X28154834Y-31533342D01*
X27976309Y-31414055D01*
X27777941Y-31331888D01*
X27567356Y-31290000D01*
X27352644Y-31290000D01*
X27142059Y-31331888D01*
X26943691Y-31414055D01*
X26765166Y-31533342D01*
X26613342Y-31685166D01*
X26494055Y-31863691D01*
X26411888Y-32062059D01*
X26370000Y-32272644D01*
X24110010Y-32272644D01*
X24110010Y-29650736D01*
X24188151Y-29685852D01*
X24330212Y-29718515D01*
X24475915Y-29722836D01*
X24619662Y-29698649D01*
X24755928Y-29646883D01*
X24794808Y-29626101D01*
X24848475Y-29517612D01*
X24738828Y-29407965D01*
X24755628Y-29401583D01*
X24794508Y-29380801D01*
X24841977Y-29284840D01*
X24961612Y-29404475D01*
X25070101Y-29350808D01*
X25129852Y-29217849D01*
X25131888Y-29208992D01*
X25135570Y-29221128D01*
X25164820Y-29275851D01*
X25204184Y-29323816D01*
X25252149Y-29363180D01*
X25306872Y-29392430D01*
X25366249Y-29410442D01*
X25412527Y-29415000D01*
X25428000Y-29416524D01*
X25443473Y-29415000D01*
X34556527Y-29415000D01*
X34572000Y-29416524D01*
X34587473Y-29415000D01*
X34633751Y-29410442D01*
X34693128Y-29392430D01*
X34747851Y-29363180D01*
X34795816Y-29323816D01*
X34835180Y-29275851D01*
X34864430Y-29221128D01*
X34869222Y-29205331D01*
X34909717Y-29311928D01*
G36*
X21533342Y-30534834D02*
G01*
X21685166Y-30686658D01*
X21863691Y-30805945D01*
X22062059Y-30888112D01*
X22272644Y-30930000D01*
X22487356Y-30930000D01*
X22697941Y-30888112D01*
X22894250Y-30806798D01*
X23150001Y-31062550D01*
X23150001Y-31601597D01*
X23097632Y-31549228D01*
X23053291Y-31593569D01*
X22957345Y-31449249D01*
X22764670Y-31354499D01*
X22557214Y-31299158D01*
X22342947Y-31285353D01*
X22130104Y-31313614D01*
X21926864Y-31382857D01*
X21802655Y-31449249D01*
X21706708Y-31593571D01*
X22380000Y-32266863D01*
X22394143Y-32252721D01*
X22507280Y-32365858D01*
X22493137Y-32380000D01*
X22507280Y-32394143D01*
X22394143Y-32507280D01*
X22380000Y-32493137D01*
X21706708Y-33166429D01*
X21802655Y-33310751D01*
X21995330Y-33405501D01*
X22202786Y-33460842D01*
X22417053Y-33474647D01*
X22629896Y-33446386D01*
X22833136Y-33377143D01*
X22957345Y-33310751D01*
X23053291Y-33166431D01*
X23097632Y-33210772D01*
X23150002Y-33158402D01*
X23150002Y-34141598D01*
X23097632Y-34089228D01*
X23053291Y-34133569D01*
X22957345Y-33989249D01*
X22764670Y-33894499D01*
X22557214Y-33839158D01*
X22342947Y-33825353D01*
X22130104Y-33853614D01*
X21926864Y-33922857D01*
X21802655Y-33989249D01*
X21706708Y-34133571D01*
X22380000Y-34806863D01*
X22394143Y-34792721D01*
X22507280Y-34905858D01*
X22493137Y-34920000D01*
X22507280Y-34934143D01*
X22394143Y-35047280D01*
X22380000Y-35033137D01*
X21706708Y-35706429D01*
X21802655Y-35850751D01*
X21995330Y-35945501D01*
X22202786Y-36000842D01*
X22417053Y-36014647D01*
X22629896Y-35986386D01*
X22833136Y-35917143D01*
X22957345Y-35850751D01*
X23053291Y-35706431D01*
X23097632Y-35750772D01*
X23150002Y-35698402D01*
X23150003Y-36688511D01*
X23074834Y-36613342D01*
X22896309Y-36494055D01*
X22697941Y-36411888D01*
X22487356Y-36370000D01*
X22272644Y-36370000D01*
X22062059Y-36411888D01*
X21863691Y-36494055D01*
X21685166Y-36613342D01*
X21533342Y-36765166D01*
X21425000Y-36927311D01*
X21425000Y-35451979D01*
X21449249Y-35497345D01*
X21593571Y-35593292D01*
X22266863Y-34920000D01*
X21593571Y-34246708D01*
X21449249Y-34342655D01*
X21425000Y-34391966D01*
X21425000Y-32911979D01*
X21449249Y-32957345D01*
X21593571Y-33053292D01*
X22266863Y-32380000D01*
X21593571Y-31706708D01*
X21449249Y-31802655D01*
X21425000Y-31851966D01*
X21425000Y-30372689D01*
X21533342Y-30534834D01*
G37*
X21533342Y-30534834D02*
X21685166Y-30686658D01*
X21863691Y-30805945D01*
X22062059Y-30888112D01*
X22272644Y-30930000D01*
X22487356Y-30930000D01*
X22697941Y-30888112D01*
X22894250Y-30806798D01*
X23150001Y-31062550D01*
X23150001Y-31601597D01*
X23097632Y-31549228D01*
X23053291Y-31593569D01*
X22957345Y-31449249D01*
X22764670Y-31354499D01*
X22557214Y-31299158D01*
X22342947Y-31285353D01*
X22130104Y-31313614D01*
X21926864Y-31382857D01*
X21802655Y-31449249D01*
X21706708Y-31593571D01*
X22380000Y-32266863D01*
X22394143Y-32252721D01*
X22507280Y-32365858D01*
X22493137Y-32380000D01*
X22507280Y-32394143D01*
X22394143Y-32507280D01*
X22380000Y-32493137D01*
X21706708Y-33166429D01*
X21802655Y-33310751D01*
X21995330Y-33405501D01*
X22202786Y-33460842D01*
X22417053Y-33474647D01*
X22629896Y-33446386D01*
X22833136Y-33377143D01*
X22957345Y-33310751D01*
X23053291Y-33166431D01*
X23097632Y-33210772D01*
X23150002Y-33158402D01*
X23150002Y-34141598D01*
X23097632Y-34089228D01*
X23053291Y-34133569D01*
X22957345Y-33989249D01*
X22764670Y-33894499D01*
X22557214Y-33839158D01*
X22342947Y-33825353D01*
X22130104Y-33853614D01*
X21926864Y-33922857D01*
X21802655Y-33989249D01*
X21706708Y-34133571D01*
X22380000Y-34806863D01*
X22394143Y-34792721D01*
X22507280Y-34905858D01*
X22493137Y-34920000D01*
X22507280Y-34934143D01*
X22394143Y-35047280D01*
X22380000Y-35033137D01*
X21706708Y-35706429D01*
X21802655Y-35850751D01*
X21995330Y-35945501D01*
X22202786Y-36000842D01*
X22417053Y-36014647D01*
X22629896Y-35986386D01*
X22833136Y-35917143D01*
X22957345Y-35850751D01*
X23053291Y-35706431D01*
X23097632Y-35750772D01*
X23150002Y-35698402D01*
X23150003Y-36688511D01*
X23074834Y-36613342D01*
X22896309Y-36494055D01*
X22697941Y-36411888D01*
X22487356Y-36370000D01*
X22272644Y-36370000D01*
X22062059Y-36411888D01*
X21863691Y-36494055D01*
X21685166Y-36613342D01*
X21533342Y-36765166D01*
X21425000Y-36927311D01*
X21425000Y-35451979D01*
X21449249Y-35497345D01*
X21593571Y-35593292D01*
X22266863Y-34920000D01*
X21593571Y-34246708D01*
X21449249Y-34342655D01*
X21425000Y-34391966D01*
X21425000Y-32911979D01*
X21449249Y-32957345D01*
X21593571Y-33053292D01*
X22266863Y-32380000D01*
X21593571Y-31706708D01*
X21449249Y-31802655D01*
X21425000Y-31851966D01*
X21425000Y-30372689D01*
X21533342Y-30534834D01*
G36*
X38575001Y-29308023D02*
G01*
X38550751Y-29262655D01*
X38406429Y-29166708D01*
X37733137Y-29840000D01*
X38406429Y-30513292D01*
X38550751Y-30417345D01*
X38575001Y-30368033D01*
X38575001Y-31847312D01*
X38466658Y-31685166D01*
X38314834Y-31533342D01*
X38136309Y-31414055D01*
X37937941Y-31331888D01*
X37727356Y-31290000D01*
X37512644Y-31290000D01*
X37302059Y-31331888D01*
X37103691Y-31414055D01*
X36925166Y-31533342D01*
X36773342Y-31685166D01*
X36654055Y-31863691D01*
X36572741Y-32060000D01*
X36335712Y-32060000D01*
X36319999Y-32058452D01*
X36304286Y-32060000D01*
X36304282Y-32060000D01*
X36257269Y-32064630D01*
X36196949Y-32082928D01*
X36171072Y-32096760D01*
X36141357Y-32112643D01*
X36120081Y-32130104D01*
X36092631Y-32152631D01*
X36082611Y-32164841D01*
X34522444Y-33725009D01*
X34510233Y-33735030D01*
X34500213Y-33747240D01*
X34470244Y-33783757D01*
X34445527Y-33830000D01*
X34440530Y-33839348D01*
X34422232Y-33899668D01*
X34419055Y-33931923D01*
X34416053Y-33962399D01*
X34417602Y-33978122D01*
X34417601Y-35205052D01*
X33460001Y-36162653D01*
X33460001Y-33598612D01*
X36432184Y-30626429D01*
X36946708Y-30626429D01*
X37042655Y-30770751D01*
X37235330Y-30865501D01*
X37442786Y-30920842D01*
X37657053Y-30934647D01*
X37869896Y-30906386D01*
X38073136Y-30837143D01*
X38197345Y-30770751D01*
X38293292Y-30626429D01*
X37620000Y-29953137D01*
X36946708Y-30626429D01*
X36432184Y-30626429D01*
X36672536Y-30386078D01*
X36689249Y-30417345D01*
X36833571Y-30513292D01*
X37506863Y-29840000D01*
X36845000Y-29178137D01*
X36845000Y-29053571D01*
X36946708Y-29053571D01*
X37620000Y-29726863D01*
X38293292Y-29053571D01*
X38197345Y-28909249D01*
X38004670Y-28814499D01*
X37797214Y-28759158D01*
X37582947Y-28745353D01*
X37370104Y-28773614D01*
X37166864Y-28842857D01*
X37042655Y-28909249D01*
X36946708Y-29053571D01*
X36845000Y-29053571D01*
X36845000Y-28633613D01*
X37180750Y-28297864D01*
X37302059Y-28348112D01*
X37512644Y-28390000D01*
X37727356Y-28390000D01*
X37937941Y-28348112D01*
X38136309Y-28265945D01*
X38314834Y-28146658D01*
X38466658Y-27994834D01*
X38575001Y-27832688D01*
X38575001Y-29308023D01*
G37*
X38575001Y-29308023D02*
X38550751Y-29262655D01*
X38406429Y-29166708D01*
X37733137Y-29840000D01*
X38406429Y-30513292D01*
X38550751Y-30417345D01*
X38575001Y-30368033D01*
X38575001Y-31847312D01*
X38466658Y-31685166D01*
X38314834Y-31533342D01*
X38136309Y-31414055D01*
X37937941Y-31331888D01*
X37727356Y-31290000D01*
X37512644Y-31290000D01*
X37302059Y-31331888D01*
X37103691Y-31414055D01*
X36925166Y-31533342D01*
X36773342Y-31685166D01*
X36654055Y-31863691D01*
X36572741Y-32060000D01*
X36335712Y-32060000D01*
X36319999Y-32058452D01*
X36304286Y-32060000D01*
X36304282Y-32060000D01*
X36257269Y-32064630D01*
X36196949Y-32082928D01*
X36171072Y-32096760D01*
X36141357Y-32112643D01*
X36120081Y-32130104D01*
X36092631Y-32152631D01*
X36082611Y-32164841D01*
X34522444Y-33725009D01*
X34510233Y-33735030D01*
X34500213Y-33747240D01*
X34470244Y-33783757D01*
X34445527Y-33830000D01*
X34440530Y-33839348D01*
X34422232Y-33899668D01*
X34419055Y-33931923D01*
X34416053Y-33962399D01*
X34417602Y-33978122D01*
X34417601Y-35205052D01*
X33460001Y-36162653D01*
X33460001Y-33598612D01*
X36432184Y-30626429D01*
X36946708Y-30626429D01*
X37042655Y-30770751D01*
X37235330Y-30865501D01*
X37442786Y-30920842D01*
X37657053Y-30934647D01*
X37869896Y-30906386D01*
X38073136Y-30837143D01*
X38197345Y-30770751D01*
X38293292Y-30626429D01*
X37620000Y-29953137D01*
X36946708Y-30626429D01*
X36432184Y-30626429D01*
X36672536Y-30386078D01*
X36689249Y-30417345D01*
X36833571Y-30513292D01*
X37506863Y-29840000D01*
X36845000Y-29178137D01*
X36845000Y-29053571D01*
X36946708Y-29053571D01*
X37620000Y-29726863D01*
X38293292Y-29053571D01*
X38197345Y-28909249D01*
X38004670Y-28814499D01*
X37797214Y-28759158D01*
X37582947Y-28745353D01*
X37370104Y-28773614D01*
X37166864Y-28842857D01*
X37042655Y-28909249D01*
X36946708Y-29053571D01*
X36845000Y-29053571D01*
X36845000Y-28633613D01*
X37180750Y-28297864D01*
X37302059Y-28348112D01*
X37512644Y-28390000D01*
X37727356Y-28390000D01*
X37937941Y-28348112D01*
X38136309Y-28265945D01*
X38314834Y-28146658D01*
X38466658Y-27994834D01*
X38575001Y-27832688D01*
X38575001Y-29308023D01*
G36*
X23686885Y-23878412D02*
G01*
X23682564Y-24024115D01*
X23697507Y-24112921D01*
X23687185Y-24157812D01*
X23682864Y-24303515D01*
X23700148Y-24406234D01*
X23687185Y-24462612D01*
X23682864Y-24608315D01*
X23703849Y-24733034D01*
X23687185Y-24805512D01*
X23682864Y-24951215D01*
X23698914Y-25046601D01*
X23687185Y-25097612D01*
X23682864Y-25243315D01*
X23707051Y-25387062D01*
X23758817Y-25523328D01*
X23779599Y-25562208D01*
X23888088Y-25615875D01*
X24023011Y-25480952D01*
X24054892Y-25545401D01*
X24144546Y-25585691D01*
X24001225Y-25729012D01*
X24054892Y-25837501D01*
X24187851Y-25897252D01*
X24329912Y-25929915D01*
X24475615Y-25934236D01*
X24619362Y-25910049D01*
X24755628Y-25858283D01*
X24794508Y-25837501D01*
X24848175Y-25729012D01*
X24704695Y-25585532D01*
X24755628Y-25566183D01*
X24794508Y-25545401D01*
X24826389Y-25480952D01*
X24961312Y-25615875D01*
X25069801Y-25562208D01*
X25113000Y-25466080D01*
X25113001Y-27946294D01*
X25090883Y-27888072D01*
X25070101Y-27849192D01*
X24961612Y-27795525D01*
X24836419Y-27920718D01*
X24794808Y-27836599D01*
X24725438Y-27805425D01*
X24848475Y-27682388D01*
X24794808Y-27573899D01*
X24661849Y-27514148D01*
X24519788Y-27481485D01*
X24374085Y-27477164D01*
X24230338Y-27501351D01*
X24094072Y-27553117D01*
X24055192Y-27573899D01*
X24001525Y-27682388D01*
X24123699Y-27804562D01*
X24094072Y-27815817D01*
X24055192Y-27836599D01*
X24013581Y-27920718D01*
X23888388Y-27795525D01*
X23779899Y-27849192D01*
X23720148Y-27982151D01*
X23687485Y-28124212D01*
X23683164Y-28269915D01*
X23696357Y-28348324D01*
X23687485Y-28386912D01*
X23683164Y-28532615D01*
X23695385Y-28605247D01*
X23687185Y-28640912D01*
X23682864Y-28786615D01*
X23694493Y-28855730D01*
X23693045Y-28862029D01*
X23016591Y-28185575D01*
X23074834Y-28146658D01*
X23226658Y-27994834D01*
X23345945Y-27816309D01*
X23428112Y-27617941D01*
X23470000Y-27407356D01*
X23470000Y-27192644D01*
X23428112Y-26982059D01*
X23345945Y-26783691D01*
X23226658Y-26605166D01*
X23074834Y-26453342D01*
X22896309Y-26334055D01*
X22697941Y-26251888D01*
X22487356Y-26210000D01*
X22272644Y-26210000D01*
X22062059Y-26251888D01*
X21863691Y-26334055D01*
X21685166Y-26453342D01*
X21533342Y-26605166D01*
X21425000Y-26767311D01*
X21425000Y-24775410D01*
X21444670Y-24574796D01*
X21498454Y-24396656D01*
X21585819Y-24232347D01*
X21703431Y-24088139D01*
X21846813Y-23969523D01*
X22010511Y-23881012D01*
X22188275Y-23825985D01*
X22387933Y-23805000D01*
X23703764Y-23805000D01*
X23686885Y-23878412D01*
G37*
X23686885Y-23878412D02*
X23682564Y-24024115D01*
X23697507Y-24112921D01*
X23687185Y-24157812D01*
X23682864Y-24303515D01*
X23700148Y-24406234D01*
X23687185Y-24462612D01*
X23682864Y-24608315D01*
X23703849Y-24733034D01*
X23687185Y-24805512D01*
X23682864Y-24951215D01*
X23698914Y-25046601D01*
X23687185Y-25097612D01*
X23682864Y-25243315D01*
X23707051Y-25387062D01*
X23758817Y-25523328D01*
X23779599Y-25562208D01*
X23888088Y-25615875D01*
X24023011Y-25480952D01*
X24054892Y-25545401D01*
X24144546Y-25585691D01*
X24001225Y-25729012D01*
X24054892Y-25837501D01*
X24187851Y-25897252D01*
X24329912Y-25929915D01*
X24475615Y-25934236D01*
X24619362Y-25910049D01*
X24755628Y-25858283D01*
X24794508Y-25837501D01*
X24848175Y-25729012D01*
X24704695Y-25585532D01*
X24755628Y-25566183D01*
X24794508Y-25545401D01*
X24826389Y-25480952D01*
X24961312Y-25615875D01*
X25069801Y-25562208D01*
X25113000Y-25466080D01*
X25113001Y-27946294D01*
X25090883Y-27888072D01*
X25070101Y-27849192D01*
X24961612Y-27795525D01*
X24836419Y-27920718D01*
X24794808Y-27836599D01*
X24725438Y-27805425D01*
X24848475Y-27682388D01*
X24794808Y-27573899D01*
X24661849Y-27514148D01*
X24519788Y-27481485D01*
X24374085Y-27477164D01*
X24230338Y-27501351D01*
X24094072Y-27553117D01*
X24055192Y-27573899D01*
X24001525Y-27682388D01*
X24123699Y-27804562D01*
X24094072Y-27815817D01*
X24055192Y-27836599D01*
X24013581Y-27920718D01*
X23888388Y-27795525D01*
X23779899Y-27849192D01*
X23720148Y-27982151D01*
X23687485Y-28124212D01*
X23683164Y-28269915D01*
X23696357Y-28348324D01*
X23687485Y-28386912D01*
X23683164Y-28532615D01*
X23695385Y-28605247D01*
X23687185Y-28640912D01*
X23682864Y-28786615D01*
X23694493Y-28855730D01*
X23693045Y-28862029D01*
X23016591Y-28185575D01*
X23074834Y-28146658D01*
X23226658Y-27994834D01*
X23345945Y-27816309D01*
X23428112Y-27617941D01*
X23470000Y-27407356D01*
X23470000Y-27192644D01*
X23428112Y-26982059D01*
X23345945Y-26783691D01*
X23226658Y-26605166D01*
X23074834Y-26453342D01*
X22896309Y-26334055D01*
X22697941Y-26251888D01*
X22487356Y-26210000D01*
X22272644Y-26210000D01*
X22062059Y-26251888D01*
X21863691Y-26334055D01*
X21685166Y-26453342D01*
X21533342Y-26605166D01*
X21425000Y-26767311D01*
X21425000Y-24775410D01*
X21444670Y-24574796D01*
X21498454Y-24396656D01*
X21585819Y-24232347D01*
X21703431Y-24088139D01*
X21846813Y-23969523D01*
X22010511Y-23881012D01*
X22188275Y-23825985D01*
X22387933Y-23805000D01*
X23703764Y-23805000D01*
X23686885Y-23878412D01*
G36*
X37805204Y-23824670D02*
G01*
X37983344Y-23878454D01*
X38147653Y-23965819D01*
X38291861Y-24083431D01*
X38410477Y-24226813D01*
X38498988Y-24390511D01*
X38554015Y-24568275D01*
X38575001Y-24767942D01*
X38575001Y-26767312D01*
X38466658Y-26605166D01*
X38314834Y-26453342D01*
X38136309Y-26334055D01*
X37937941Y-26251888D01*
X37727356Y-26210000D01*
X37512644Y-26210000D01*
X37302059Y-26251888D01*
X37103691Y-26334055D01*
X36925166Y-26453342D01*
X36773342Y-26605166D01*
X36654055Y-26783691D01*
X36571888Y-26982059D01*
X36530000Y-27192644D01*
X36530000Y-27407356D01*
X36571888Y-27617941D01*
X36622136Y-27739250D01*
X36299557Y-28061830D01*
X36293249Y-28024338D01*
X36241483Y-27888072D01*
X36220701Y-27849192D01*
X36112212Y-27795525D01*
X35987019Y-27920718D01*
X35945408Y-27836599D01*
X35876038Y-27805425D01*
X35999075Y-27682388D01*
X35945408Y-27573899D01*
X35812449Y-27514148D01*
X35670388Y-27481485D01*
X35524685Y-27477164D01*
X35380938Y-27501351D01*
X35244672Y-27553117D01*
X35205792Y-27573899D01*
X35152125Y-27682388D01*
X35274299Y-27804562D01*
X35244672Y-27815817D01*
X35205792Y-27836599D01*
X35164181Y-27920718D01*
X35038988Y-27795525D01*
X34930499Y-27849192D01*
X34887000Y-27945987D01*
X34887000Y-25477019D01*
X34909417Y-25536028D01*
X34930199Y-25574908D01*
X35038688Y-25628575D01*
X35173611Y-25493652D01*
X35205492Y-25558101D01*
X35295146Y-25598391D01*
X35151825Y-25741712D01*
X35205492Y-25850201D01*
X35338451Y-25909952D01*
X35480512Y-25942615D01*
X35626215Y-25946936D01*
X35769962Y-25922749D01*
X35906228Y-25870983D01*
X35945108Y-25850201D01*
X35998775Y-25741712D01*
X35855295Y-25598232D01*
X35906228Y-25578883D01*
X35945108Y-25558101D01*
X35976989Y-25493652D01*
X36111912Y-25628575D01*
X36220401Y-25574908D01*
X36280152Y-25441949D01*
X36312815Y-25299888D01*
X36317136Y-25154185D01*
X36301086Y-25058799D01*
X36312815Y-25007788D01*
X36317136Y-24862085D01*
X36296151Y-24737366D01*
X36312815Y-24664888D01*
X36317136Y-24519185D01*
X36299852Y-24416466D01*
X36312815Y-24360088D01*
X36317136Y-24214385D01*
X36302193Y-24125579D01*
X36312515Y-24080688D01*
X36316836Y-23934985D01*
X36294965Y-23805000D01*
X37604590Y-23805000D01*
X37805204Y-23824670D01*
G37*
X37805204Y-23824670D02*
X37983344Y-23878454D01*
X38147653Y-23965819D01*
X38291861Y-24083431D01*
X38410477Y-24226813D01*
X38498988Y-24390511D01*
X38554015Y-24568275D01*
X38575001Y-24767942D01*
X38575001Y-26767312D01*
X38466658Y-26605166D01*
X38314834Y-26453342D01*
X38136309Y-26334055D01*
X37937941Y-26251888D01*
X37727356Y-26210000D01*
X37512644Y-26210000D01*
X37302059Y-26251888D01*
X37103691Y-26334055D01*
X36925166Y-26453342D01*
X36773342Y-26605166D01*
X36654055Y-26783691D01*
X36571888Y-26982059D01*
X36530000Y-27192644D01*
X36530000Y-27407356D01*
X36571888Y-27617941D01*
X36622136Y-27739250D01*
X36299557Y-28061830D01*
X36293249Y-28024338D01*
X36241483Y-27888072D01*
X36220701Y-27849192D01*
X36112212Y-27795525D01*
X35987019Y-27920718D01*
X35945408Y-27836599D01*
X35876038Y-27805425D01*
X35999075Y-27682388D01*
X35945408Y-27573899D01*
X35812449Y-27514148D01*
X35670388Y-27481485D01*
X35524685Y-27477164D01*
X35380938Y-27501351D01*
X35244672Y-27553117D01*
X35205792Y-27573899D01*
X35152125Y-27682388D01*
X35274299Y-27804562D01*
X35244672Y-27815817D01*
X35205792Y-27836599D01*
X35164181Y-27920718D01*
X35038988Y-27795525D01*
X34930499Y-27849192D01*
X34887000Y-27945987D01*
X34887000Y-25477019D01*
X34909417Y-25536028D01*
X34930199Y-25574908D01*
X35038688Y-25628575D01*
X35173611Y-25493652D01*
X35205492Y-25558101D01*
X35295146Y-25598391D01*
X35151825Y-25741712D01*
X35205492Y-25850201D01*
X35338451Y-25909952D01*
X35480512Y-25942615D01*
X35626215Y-25946936D01*
X35769962Y-25922749D01*
X35906228Y-25870983D01*
X35945108Y-25850201D01*
X35998775Y-25741712D01*
X35855295Y-25598232D01*
X35906228Y-25578883D01*
X35945108Y-25558101D01*
X35976989Y-25493652D01*
X36111912Y-25628575D01*
X36220401Y-25574908D01*
X36280152Y-25441949D01*
X36312815Y-25299888D01*
X36317136Y-25154185D01*
X36301086Y-25058799D01*
X36312815Y-25007788D01*
X36317136Y-24862085D01*
X36296151Y-24737366D01*
X36312815Y-24664888D01*
X36317136Y-24519185D01*
X36299852Y-24416466D01*
X36312815Y-24360088D01*
X36317136Y-24214385D01*
X36302193Y-24125579D01*
X36312515Y-24080688D01*
X36316836Y-23934985D01*
X36294965Y-23805000D01*
X37604590Y-23805000D01*
X37805204Y-23824670D01*
D15*
G36*
X36612404Y-32918571D02*
G01*
X36736835Y-33104795D01*
X36895205Y-33263165D01*
X37081429Y-33387596D01*
X37278104Y-33469061D01*
X37261981Y-33471401D01*
X36986253Y-33569081D01*
X36848843Y-33642528D01*
X36771208Y-33891603D01*
X37620000Y-34740395D01*
X37634143Y-34726253D01*
X37813748Y-34905858D01*
X37799605Y-34920000D01*
X37813748Y-34934143D01*
X37634143Y-35113748D01*
X37620000Y-35099605D01*
X37605858Y-35113748D01*
X37426253Y-34934143D01*
X37440395Y-34920000D01*
X36591603Y-34071208D01*
X36342528Y-34148843D01*
X36216629Y-34412883D01*
X36144661Y-34696411D01*
X36129389Y-34988531D01*
X36171401Y-35278019D01*
X36269081Y-35553747D01*
X36342528Y-35691157D01*
X36384390Y-35704205D01*
X36307551Y-35736033D01*
X36219599Y-35794801D01*
X36144801Y-35869599D01*
X36086033Y-35957551D01*
X36045553Y-36055279D01*
X36024916Y-36159026D01*
X36024916Y-36229901D01*
X35843228Y-36411589D01*
X35829230Y-36423077D01*
X35783368Y-36478960D01*
X35749289Y-36542716D01*
X35728304Y-36611896D01*
X35722993Y-36665818D01*
X35722993Y-36665828D01*
X35721219Y-36683839D01*
X35722993Y-36701851D01*
X35722994Y-37271962D01*
X35722993Y-37271972D01*
X35722994Y-42807989D01*
X35267984Y-43263000D01*
X35197110Y-43263000D01*
X35102854Y-43281749D01*
X35102854Y-42006578D01*
X35152969Y-41956463D01*
X35211737Y-41868511D01*
X35252217Y-41770783D01*
X35272854Y-41667036D01*
X35272854Y-41561256D01*
X35252217Y-41457509D01*
X35211737Y-41359781D01*
X35152969Y-41271829D01*
X35078171Y-41197031D01*
X34990219Y-41138263D01*
X34892491Y-41097783D01*
X34788744Y-41077146D01*
X34682964Y-41077146D01*
X34579217Y-41097783D01*
X34481489Y-41138263D01*
X34393537Y-41197031D01*
X34318739Y-41271829D01*
X34259971Y-41359781D01*
X34219491Y-41457509D01*
X34198854Y-41561256D01*
X34198854Y-41667036D01*
X34219491Y-41770783D01*
X34259971Y-41868511D01*
X34318739Y-41956463D01*
X34368855Y-42006579D01*
X34368854Y-44029077D01*
X34368855Y-44029087D01*
X34368854Y-44642842D01*
X34367080Y-44660854D01*
X34368854Y-44678865D01*
X34368854Y-44678875D01*
X34374165Y-44732797D01*
X34395150Y-44801977D01*
X34429229Y-44865733D01*
X34473000Y-44919068D01*
X34473000Y-45371460D01*
X34461272Y-45379296D01*
X34386474Y-45454094D01*
X34327706Y-45542046D01*
X34287226Y-45639774D01*
X34266589Y-45743521D01*
X34266589Y-45849301D01*
X34287226Y-45953048D01*
X34327706Y-46050776D01*
X34386474Y-46138728D01*
X34436589Y-46188843D01*
X34436590Y-48044394D01*
X33897985Y-48583000D01*
X32921682Y-48583000D01*
X32415682Y-48077000D01*
X32657568Y-48077000D01*
X32707683Y-48127115D01*
X32795635Y-48185883D01*
X32893363Y-48226363D01*
X32997110Y-48247000D01*
X33102890Y-48247000D01*
X33206637Y-48226363D01*
X33304365Y-48185883D01*
X33392317Y-48127115D01*
X33467115Y-48052317D01*
X33525883Y-47964365D01*
X33566363Y-47866637D01*
X33587000Y-47762890D01*
X33587000Y-47657110D01*
X33566363Y-47553363D01*
X33525883Y-47455635D01*
X33467115Y-47367683D01*
X33392317Y-47292885D01*
X33304365Y-47234117D01*
X33206637Y-47193637D01*
X33102890Y-47173000D01*
X32997110Y-47173000D01*
X32893363Y-47193637D01*
X32795635Y-47234117D01*
X32707683Y-47292885D01*
X32657568Y-47343000D01*
X32134244Y-47343000D01*
X31574473Y-46783230D01*
X31562981Y-46769227D01*
X31507098Y-46723365D01*
X31443342Y-46689286D01*
X31374162Y-46668301D01*
X31320240Y-46662990D01*
X31320229Y-46662990D01*
X31302218Y-46661216D01*
X31284207Y-46662990D01*
X30488628Y-46662990D01*
X28220311Y-44394674D01*
X28220311Y-42050021D01*
X28222085Y-42032010D01*
X28220311Y-42013998D01*
X28220311Y-42013988D01*
X28215000Y-41960066D01*
X28194015Y-41890886D01*
X28194015Y-41890885D01*
X28159936Y-41827129D01*
X28125562Y-41785245D01*
X28125561Y-41785244D01*
X28114074Y-41771247D01*
X28100077Y-41759760D01*
X27137002Y-40796686D01*
X27137002Y-40725811D01*
X27116365Y-40622064D01*
X27075885Y-40524336D01*
X27017117Y-40436384D01*
X26942319Y-40361586D01*
X26854367Y-40302818D01*
X26756639Y-40262338D01*
X26652892Y-40241701D01*
X26547112Y-40241701D01*
X26443365Y-40262338D01*
X26345637Y-40302818D01*
X26257685Y-40361586D01*
X26182887Y-40436384D01*
X26124119Y-40524336D01*
X26083639Y-40622064D01*
X26065303Y-40714244D01*
X26057112Y-40714244D01*
X25953365Y-40734881D01*
X25855637Y-40775361D01*
X25767685Y-40834129D01*
X25692887Y-40908927D01*
X25634119Y-40996879D01*
X25593639Y-41094607D01*
X25573002Y-41198354D01*
X25573002Y-41304134D01*
X25593639Y-41407881D01*
X25634119Y-41505609D01*
X25692887Y-41593561D01*
X25706814Y-41607488D01*
X25674643Y-41655635D01*
X25634163Y-41753363D01*
X25613526Y-41857110D01*
X25613526Y-41886816D01*
X25607192Y-41884192D01*
X25503445Y-41863555D01*
X25461999Y-41863555D01*
X25461999Y-40066813D01*
X25673497Y-39855316D01*
X30568875Y-39855316D01*
X30586886Y-39857090D01*
X30604897Y-39855316D01*
X30604908Y-39855316D01*
X30658830Y-39850005D01*
X30728010Y-39829020D01*
X30791766Y-39794941D01*
X30847649Y-39749079D01*
X30859141Y-39735076D01*
X34984377Y-35609842D01*
X34998363Y-35598364D01*
X35009842Y-35584377D01*
X35009852Y-35584367D01*
X35044225Y-35542482D01*
X35044226Y-35542481D01*
X35078305Y-35478725D01*
X35099290Y-35409545D01*
X35104601Y-35355623D01*
X35104601Y-35355613D01*
X35106375Y-35337602D01*
X35104601Y-35319590D01*
X35104601Y-34114414D01*
X36472016Y-32747000D01*
X36541337Y-32747000D01*
X36612404Y-32918571D01*
G37*
X36612404Y-32918571D02*
X36736835Y-33104795D01*
X36895205Y-33263165D01*
X37081429Y-33387596D01*
X37278104Y-33469061D01*
X37261981Y-33471401D01*
X36986253Y-33569081D01*
X36848843Y-33642528D01*
X36771208Y-33891603D01*
X37620000Y-34740395D01*
X37634143Y-34726253D01*
X37813748Y-34905858D01*
X37799605Y-34920000D01*
X37813748Y-34934143D01*
X37634143Y-35113748D01*
X37620000Y-35099605D01*
X37605858Y-35113748D01*
X37426253Y-34934143D01*
X37440395Y-34920000D01*
X36591603Y-34071208D01*
X36342528Y-34148843D01*
X36216629Y-34412883D01*
X36144661Y-34696411D01*
X36129389Y-34988531D01*
X36171401Y-35278019D01*
X36269081Y-35553747D01*
X36342528Y-35691157D01*
X36384390Y-35704205D01*
X36307551Y-35736033D01*
X36219599Y-35794801D01*
X36144801Y-35869599D01*
X36086033Y-35957551D01*
X36045553Y-36055279D01*
X36024916Y-36159026D01*
X36024916Y-36229901D01*
X35843228Y-36411589D01*
X35829230Y-36423077D01*
X35783368Y-36478960D01*
X35749289Y-36542716D01*
X35728304Y-36611896D01*
X35722993Y-36665818D01*
X35722993Y-36665828D01*
X35721219Y-36683839D01*
X35722993Y-36701851D01*
X35722994Y-37271962D01*
X35722993Y-37271972D01*
X35722994Y-42807989D01*
X35267984Y-43263000D01*
X35197110Y-43263000D01*
X35102854Y-43281749D01*
X35102854Y-42006578D01*
X35152969Y-41956463D01*
X35211737Y-41868511D01*
X35252217Y-41770783D01*
X35272854Y-41667036D01*
X35272854Y-41561256D01*
X35252217Y-41457509D01*
X35211737Y-41359781D01*
X35152969Y-41271829D01*
X35078171Y-41197031D01*
X34990219Y-41138263D01*
X34892491Y-41097783D01*
X34788744Y-41077146D01*
X34682964Y-41077146D01*
X34579217Y-41097783D01*
X34481489Y-41138263D01*
X34393537Y-41197031D01*
X34318739Y-41271829D01*
X34259971Y-41359781D01*
X34219491Y-41457509D01*
X34198854Y-41561256D01*
X34198854Y-41667036D01*
X34219491Y-41770783D01*
X34259971Y-41868511D01*
X34318739Y-41956463D01*
X34368855Y-42006579D01*
X34368854Y-44029077D01*
X34368855Y-44029087D01*
X34368854Y-44642842D01*
X34367080Y-44660854D01*
X34368854Y-44678865D01*
X34368854Y-44678875D01*
X34374165Y-44732797D01*
X34395150Y-44801977D01*
X34429229Y-44865733D01*
X34473000Y-44919068D01*
X34473000Y-45371460D01*
X34461272Y-45379296D01*
X34386474Y-45454094D01*
X34327706Y-45542046D01*
X34287226Y-45639774D01*
X34266589Y-45743521D01*
X34266589Y-45849301D01*
X34287226Y-45953048D01*
X34327706Y-46050776D01*
X34386474Y-46138728D01*
X34436589Y-46188843D01*
X34436590Y-48044394D01*
X33897985Y-48583000D01*
X32921682Y-48583000D01*
X32415682Y-48077000D01*
X32657568Y-48077000D01*
X32707683Y-48127115D01*
X32795635Y-48185883D01*
X32893363Y-48226363D01*
X32997110Y-48247000D01*
X33102890Y-48247000D01*
X33206637Y-48226363D01*
X33304365Y-48185883D01*
X33392317Y-48127115D01*
X33467115Y-48052317D01*
X33525883Y-47964365D01*
X33566363Y-47866637D01*
X33587000Y-47762890D01*
X33587000Y-47657110D01*
X33566363Y-47553363D01*
X33525883Y-47455635D01*
X33467115Y-47367683D01*
X33392317Y-47292885D01*
X33304365Y-47234117D01*
X33206637Y-47193637D01*
X33102890Y-47173000D01*
X32997110Y-47173000D01*
X32893363Y-47193637D01*
X32795635Y-47234117D01*
X32707683Y-47292885D01*
X32657568Y-47343000D01*
X32134244Y-47343000D01*
X31574473Y-46783230D01*
X31562981Y-46769227D01*
X31507098Y-46723365D01*
X31443342Y-46689286D01*
X31374162Y-46668301D01*
X31320240Y-46662990D01*
X31320229Y-46662990D01*
X31302218Y-46661216D01*
X31284207Y-46662990D01*
X30488628Y-46662990D01*
X28220311Y-44394674D01*
X28220311Y-42050021D01*
X28222085Y-42032010D01*
X28220311Y-42013998D01*
X28220311Y-42013988D01*
X28215000Y-41960066D01*
X28194015Y-41890886D01*
X28194015Y-41890885D01*
X28159936Y-41827129D01*
X28125562Y-41785245D01*
X28125561Y-41785244D01*
X28114074Y-41771247D01*
X28100077Y-41759760D01*
X27137002Y-40796686D01*
X27137002Y-40725811D01*
X27116365Y-40622064D01*
X27075885Y-40524336D01*
X27017117Y-40436384D01*
X26942319Y-40361586D01*
X26854367Y-40302818D01*
X26756639Y-40262338D01*
X26652892Y-40241701D01*
X26547112Y-40241701D01*
X26443365Y-40262338D01*
X26345637Y-40302818D01*
X26257685Y-40361586D01*
X26182887Y-40436384D01*
X26124119Y-40524336D01*
X26083639Y-40622064D01*
X26065303Y-40714244D01*
X26057112Y-40714244D01*
X25953365Y-40734881D01*
X25855637Y-40775361D01*
X25767685Y-40834129D01*
X25692887Y-40908927D01*
X25634119Y-40996879D01*
X25593639Y-41094607D01*
X25573002Y-41198354D01*
X25573002Y-41304134D01*
X25593639Y-41407881D01*
X25634119Y-41505609D01*
X25692887Y-41593561D01*
X25706814Y-41607488D01*
X25674643Y-41655635D01*
X25634163Y-41753363D01*
X25613526Y-41857110D01*
X25613526Y-41886816D01*
X25607192Y-41884192D01*
X25503445Y-41863555D01*
X25461999Y-41863555D01*
X25461999Y-40066813D01*
X25673497Y-39855316D01*
X30568875Y-39855316D01*
X30586886Y-39857090D01*
X30604897Y-39855316D01*
X30604908Y-39855316D01*
X30658830Y-39850005D01*
X30728010Y-39829020D01*
X30791766Y-39794941D01*
X30847649Y-39749079D01*
X30859141Y-39735076D01*
X34984377Y-35609842D01*
X34998363Y-35598364D01*
X35009842Y-35584377D01*
X35009852Y-35584367D01*
X35044225Y-35542482D01*
X35044226Y-35542481D01*
X35078305Y-35478725D01*
X35099290Y-35409545D01*
X35104601Y-35355623D01*
X35104601Y-35355613D01*
X35106375Y-35337602D01*
X35104601Y-35319590D01*
X35104601Y-34114414D01*
X36472016Y-32747000D01*
X36541337Y-32747000D01*
X36612404Y-32918571D01*
M02*
