M48
; DRILL file {KiCad (5.1.6)-1} date 10/17/20 23:14:52
; FORMAT={-:-/ absolute / inch / decimal}
; #@! TF.CreationDate,2020-10-17T23:14:52+08:00
; #@! TF.GenerationSoftware,Kicad,Pcbnew,(5.1.6)-1
; #@! TF.FileFunction,Plated,1,2,PTH
FMAT,2
INCH
T1C0.0118
T2C0.0236
T3C0.0394
%
G90
G05
T1
X0.9232Y-1.8307
X0.9488Y-1.9862
X0.9488Y-2.0295
X0.9488Y-2.0728
X0.9498Y-1.9409
X0.9616Y-1.0315
X0.9616Y-1.0719
X0.9616Y-1.2687
X0.9705Y-1.4173
X0.9965Y-1.7268
X1.002Y-1.6693
X1.0073Y-1.5807
X1.0148Y-1.2687
X1.0157Y-1.7461
X1.0224Y-1.7075
X1.028Y-1.6241
X1.0295Y-1.65
X1.0354Y-1.5228
X1.0433Y-1.4823
X1.0472Y-1.6055
X1.0797Y-1.1939
X1.0866Y-1.3386
X1.0906Y-1.4134
X1.1096Y-1.969
X1.1288Y-1.2039
X1.1344Y-1.9615
X1.1417Y-1.2264
X1.161Y-1.9702
X1.1722Y-2.0827
X1.1732Y-2.0236
X1.1742Y-1.3396
X1.1811Y-1.9921
X1.1909Y-1.2224
X1.2024Y-1.5292
X1.203Y-1.922
X1.2433Y-1.4843
X1.2577Y-1.202
X1.2648Y-2.065
X1.2655Y-1.5254
X1.2677Y-1.3268
X1.2677Y-1.3819
X1.2953Y-1.9656
X1.2962Y-1.1933
X1.3012Y-1.8783
X1.3012Y-1.9043
X1.3268Y-1.3602
X1.3476Y-2.0445
X1.3563Y-1.1781
X1.3676Y-1.6384
X1.3702Y-1.803
X1.3878Y-1.7244
X1.4006Y-1.0305
X1.4006Y-1.0719
X1.4016Y-1.6772
X1.4134Y-2.0984
X1.4151Y-1.7244
X1.4173Y-1.935
X1.4252Y-1.8701
X1.4394Y-1.4257
X1.4488Y-1.7264
X1.4654Y-1.425
T2
X0.9616Y-0.9438
X0.9616Y-0.9548
X0.9616Y-0.9668
X0.9616Y-0.9803
X0.9616Y-0.9918
X0.9616Y-1.1313
X0.9616Y-1.111
X0.9616Y-1.1213
X0.9616Y-1.141
X1.4006Y-0.9443
X1.4006Y-0.9553
X1.4006Y-0.9673
X1.4006Y-0.9808
X1.4006Y-0.9923
X1.4006Y-1.1313
X1.4006Y-1.111
X1.4006Y-1.1213
X1.4006Y-1.141
T3
X1.4811Y-1.0748
X1.4811Y-1.1748
X1.4811Y-1.2748
X1.4811Y-1.3748
X1.4811Y-1.4748
X1.4811Y-1.5748
X1.4811Y-1.6748
X1.4811Y-1.7748
X1.4811Y-1.8748
X1.4811Y-1.9748
X1.4811Y-2.0748
X1.4811Y-2.1748
X0.9811Y-2.1748
X1.0811Y-2.1748
X1.1811Y-2.1748
X1.2811Y-2.1748
X1.3811Y-2.1748
X0.8811Y-1.0748
X0.8811Y-1.1748
X0.8811Y-1.2748
X0.8811Y-1.3748
X0.8811Y-1.4748
X0.8811Y-1.5748
X0.8811Y-1.6748
X0.8811Y-1.7748
X0.8811Y-1.8748
X0.8811Y-1.9748
X0.8811Y-2.0748
X0.8811Y-2.1748
X1.0811Y-1.2748
X1.1811Y-1.2748
T0
M30
