G04 #@! TF.GenerationSoftware,KiCad,Pcbnew,(5.1.6)-1*
G04 #@! TF.CreationDate,2020-09-27T19:06:04+08:00*
G04 #@! TF.ProjectId,Alvaro,416c7661-726f-42e6-9b69-6361645f7063,C*
G04 #@! TF.SameCoordinates,Original*
G04 #@! TF.FileFunction,Copper,L2,Bot*
G04 #@! TF.FilePolarity,Positive*
%FSLAX46Y46*%
G04 Gerber Fmt 4.6, Leading zero omitted, Abs format (unit mm)*
G04 Created by KiCad (PCBNEW (5.1.6)-1) date 2020-09-27 19:06:04*
%MOMM*%
%LPD*%
G01*
G04 APERTURE LIST*
G04 #@! TA.AperFunction,ComponentPad*
%ADD10O,1.000000X1.800000*%
G04 #@! TD*
G04 #@! TA.AperFunction,ComponentPad*
%ADD11O,1.000000X2.200000*%
G04 #@! TD*
G04 #@! TA.AperFunction,ComponentPad*
%ADD12C,1.700000*%
G04 #@! TD*
G04 #@! TA.AperFunction,ViaPad*
%ADD13C,0.500000*%
G04 #@! TD*
G04 #@! TA.AperFunction,Conductor*
%ADD14C,0.310000*%
G04 #@! TD*
G04 #@! TA.AperFunction,Conductor*
%ADD15C,0.160000*%
G04 #@! TD*
G04 #@! TA.AperFunction,Conductor*
%ADD16C,0.254000*%
G04 #@! TD*
G04 APERTURE END LIST*
D10*
X24425000Y-28600000D03*
X35575000Y-28600000D03*
D11*
X24425000Y-24600000D03*
X35575000Y-24600000D03*
D12*
X24920000Y-55240000D03*
X27460000Y-55240000D03*
X30000000Y-55240000D03*
X32540000Y-55240000D03*
X35080000Y-55240000D03*
X22380000Y-27300000D03*
X22380000Y-29840000D03*
X22380000Y-32380000D03*
X22380000Y-34920000D03*
X22380000Y-37460000D03*
X22380000Y-40000000D03*
X22380000Y-42540000D03*
X22380000Y-45080000D03*
X22380000Y-47620000D03*
X22380000Y-50160000D03*
X22380000Y-52700000D03*
X22380000Y-55240000D03*
X37620000Y-55240000D03*
X37620000Y-52700000D03*
X37620000Y-50160000D03*
X37620000Y-47620000D03*
X37620000Y-45080000D03*
X37620000Y-42540000D03*
X37620000Y-40000000D03*
X37620000Y-37460000D03*
X37620000Y-34920000D03*
X37620000Y-32380000D03*
X37620000Y-29840000D03*
X37620000Y-27300000D03*
X30000000Y-32380000D03*
X27460000Y-32380000D03*
D13*
X33075010Y-48460000D03*
X35599993Y-42600000D03*
X32144943Y-38744456D03*
X26289990Y-39978317D03*
X36800000Y-43850000D03*
X24100000Y-51150000D03*
X24100000Y-50050000D03*
X24100000Y-52250000D03*
X27600000Y-34000000D03*
X36000000Y-49150000D03*
X36200000Y-47500000D03*
X23450000Y-46500000D03*
X35900000Y-53300000D03*
X35575000Y-27225000D03*
X35575000Y-26175000D03*
X24425000Y-27225000D03*
X24425000Y-26200000D03*
X32125000Y-52450000D03*
X32900000Y-49925000D03*
X29775000Y-52900000D03*
X29800000Y-51400000D03*
X25000000Y-38950000D03*
X24125000Y-49100000D03*
X30825000Y-37875000D03*
X24900000Y-35925000D03*
X24600000Y-30150000D03*
X29450000Y-34100000D03*
X33350000Y-32400000D03*
X31600000Y-32400000D03*
X25240040Y-42705931D03*
X34735854Y-41614146D03*
X26721672Y-41471672D03*
X25968156Y-43369947D03*
X25309999Y-43859999D03*
X34229687Y-51929687D03*
X29430020Y-38750001D03*
X34803589Y-45796411D03*
X25585000Y-41564245D03*
X33050000Y-47710000D03*
X25585000Y-40810002D03*
X28182768Y-50012814D03*
X28814335Y-49821175D03*
X29488133Y-50042411D03*
X29999970Y-50600000D03*
X35750000Y-36617471D03*
X35250000Y-43800000D03*
X36410003Y-36617471D03*
X35942965Y-43800000D03*
X25800000Y-44350000D03*
X29039997Y-30739999D03*
X30250000Y-31050000D03*
X26650000Y-38000000D03*
X30325000Y-38750001D03*
X27300000Y-30450000D03*
X33517002Y-30450000D03*
X30555889Y-48819111D03*
D14*
X35969399Y-34920000D02*
X37620000Y-34920000D01*
X32144943Y-38744456D02*
X31254388Y-39635011D01*
X35599993Y-42600000D02*
X35599993Y-39999993D01*
X33650000Y-38050000D02*
X33244700Y-37644700D01*
X32144943Y-38744456D02*
X33244700Y-37644700D01*
X35599993Y-39999993D02*
X33650000Y-38050000D01*
X33244700Y-37644700D02*
X35969399Y-34920000D01*
X34170853Y-41342945D02*
X34170853Y-47717710D01*
X33428563Y-48460000D02*
X33075010Y-48460000D01*
X34464653Y-41049145D02*
X34170853Y-41342945D01*
X35007055Y-41049145D02*
X34464653Y-41049145D01*
X35599993Y-41642083D02*
X35007055Y-41049145D01*
X34170853Y-47717710D02*
X33428563Y-48460000D01*
X35599993Y-42600000D02*
X35599993Y-41642083D01*
X30911082Y-39978317D02*
X31254388Y-39635011D01*
X26289990Y-39978317D02*
X30911082Y-39978317D01*
D15*
X25240040Y-41940040D02*
X25240040Y-42705931D01*
X25094999Y-41794999D02*
X25240040Y-41940040D01*
X25094999Y-40448106D02*
X25094999Y-41794999D01*
X30586886Y-39488316D02*
X26054789Y-39488316D01*
X26054789Y-39488316D02*
X25094999Y-40448106D01*
X37620000Y-32455202D02*
X30586886Y-39488316D01*
X37620000Y-32380000D02*
X37620000Y-32455202D01*
X34735854Y-44011056D02*
X34735854Y-41614146D01*
X37620000Y-45080000D02*
X35155000Y-45080000D01*
X34735854Y-44660854D02*
X34735854Y-44011056D01*
X35155000Y-45080000D02*
X34735854Y-44660854D01*
X36500000Y-48740000D02*
X37620000Y-47620000D01*
X26721672Y-43317348D02*
X26930019Y-43525695D01*
X30090588Y-47689090D02*
X31056194Y-47689090D01*
X26930019Y-43525695D02*
X26930019Y-44528521D01*
X26930019Y-44528521D02*
X30090588Y-47689090D01*
X32090018Y-48722914D02*
X32090018Y-49884894D01*
X32090018Y-49884894D02*
X33004790Y-50799666D01*
X33004790Y-50799666D02*
X35800334Y-50799666D01*
X35800334Y-50799666D02*
X36500000Y-50100000D01*
X36500000Y-50100000D02*
X36500000Y-48740000D01*
X31056194Y-47689090D02*
X32090018Y-48722914D01*
X26721672Y-41471672D02*
X26721672Y-43317348D01*
X26610010Y-43658248D02*
X26321709Y-43369947D01*
X26610011Y-44661075D02*
X26610010Y-43658248D01*
X30923642Y-48009100D02*
X29958036Y-48009100D01*
X29958036Y-48009100D02*
X26610011Y-44661075D01*
X36660324Y-51119676D02*
X32872238Y-51119676D01*
X26321709Y-43369947D02*
X25968156Y-43369947D01*
X32872238Y-51119676D02*
X31770010Y-50017448D01*
X31770009Y-48855467D02*
X30923642Y-48009100D01*
X37620000Y-50160000D02*
X36660324Y-51119676D01*
X31770010Y-50017448D02*
X31770009Y-48855467D01*
X25309999Y-43859999D02*
X25309999Y-43859999D01*
X36359686Y-51439686D02*
X37620000Y-52700000D01*
X32739686Y-51439686D02*
X36359686Y-51439686D01*
X31450000Y-50150000D02*
X32739686Y-51439686D01*
X31450000Y-48988020D02*
X31450000Y-50150000D01*
X30791090Y-48329110D02*
X31450000Y-48988020D01*
X29825484Y-48329110D02*
X30791090Y-48329110D01*
X26290001Y-44793627D02*
X29825484Y-48329110D01*
X26035201Y-43859999D02*
X26290001Y-44114799D01*
X26290001Y-44114799D02*
X26290001Y-44793627D01*
X25309999Y-43859999D02*
X26035201Y-43859999D01*
X34229687Y-51929687D02*
X36229687Y-51929687D01*
X36529999Y-54149999D02*
X37620000Y-55240000D01*
X36529999Y-52229999D02*
X36529999Y-54149999D01*
X36229687Y-51929687D02*
X36529999Y-52229999D01*
X25922237Y-39168306D02*
X29011715Y-39168306D01*
X24750040Y-40340503D02*
X25922237Y-39168306D01*
X27964887Y-53829989D02*
X28284897Y-53509979D01*
X28284897Y-53509979D02*
X29984897Y-53509979D01*
X29011715Y-39168306D02*
X29430020Y-38750001D01*
X23470001Y-53570001D02*
X23729989Y-53829989D01*
X23729989Y-53829989D02*
X27964887Y-53829989D01*
X22380000Y-50160000D02*
X23470001Y-51250001D01*
X27914354Y-47329990D02*
X24750040Y-44165676D01*
X24750040Y-44165676D02*
X24750040Y-40340503D01*
X29984897Y-53509979D02*
X30489970Y-53004906D01*
X23470001Y-51250001D02*
X23470001Y-53570001D01*
X30489970Y-53004906D02*
X30489970Y-49898720D01*
X30489970Y-49898720D02*
X27921240Y-47329990D01*
X27921240Y-47329990D02*
X27914354Y-47329990D01*
X26360918Y-40788327D02*
X25585000Y-41564245D01*
X30204060Y-47350000D02*
X27533301Y-44679241D01*
X27533301Y-41183301D02*
X27138327Y-40788327D01*
X31169666Y-47350000D02*
X30204060Y-47350000D01*
X27533301Y-44679241D02*
X27533301Y-41183301D01*
X34803589Y-45796411D02*
X34803589Y-48196411D01*
X32750000Y-48950000D02*
X32750000Y-48930334D01*
X27138327Y-40788327D02*
X26360918Y-40788327D01*
X34803589Y-48196411D02*
X34050000Y-48950000D01*
X32750000Y-48930334D02*
X31169666Y-47350000D01*
X34050000Y-48950000D02*
X32750000Y-48950000D01*
X27543318Y-40468318D02*
X25926685Y-40468317D01*
X33050000Y-47710000D02*
X31982228Y-47710000D01*
X30336612Y-47029990D02*
X27853311Y-44546689D01*
X25926685Y-40468317D02*
X25585000Y-40810002D01*
X31982228Y-47710000D02*
X31302218Y-47029990D01*
X31302218Y-47029990D02*
X30336612Y-47029990D01*
X27853311Y-40778311D02*
X27543318Y-40468318D01*
X27853311Y-44546689D02*
X27853311Y-40778311D01*
X23470002Y-41090002D02*
X23470003Y-44695887D01*
X22380000Y-40000000D02*
X23470002Y-41090002D01*
X23470003Y-44695887D02*
X27384145Y-48610029D01*
X27384145Y-48610029D02*
X27391031Y-48610029D01*
X28200000Y-49900000D02*
X28200000Y-49418998D01*
X27391031Y-48610029D02*
X27840501Y-49059499D01*
X28200000Y-49418998D02*
X27840501Y-49059499D01*
X23790012Y-38870012D02*
X22380000Y-37460000D01*
X23790012Y-44563334D02*
X23790012Y-38870012D01*
X27516697Y-48290019D02*
X23790012Y-44563334D01*
X27523583Y-48290019D02*
X27516697Y-48290019D01*
X28814335Y-49580771D02*
X27523583Y-48290019D01*
X28814335Y-49821175D02*
X28814335Y-49580771D01*
X27656137Y-47970011D02*
X27649250Y-47970010D01*
X24110022Y-38737460D02*
X23470002Y-38097440D01*
X23470002Y-38097440D02*
X23470001Y-30930001D01*
X29488133Y-50042411D02*
X29488133Y-49802007D01*
X27649250Y-47970010D02*
X24110022Y-44430782D01*
X23470001Y-30930001D02*
X22380000Y-29840000D01*
X29488133Y-49802007D02*
X27656137Y-47970011D01*
X24110022Y-44430782D02*
X24110022Y-38737460D01*
X29999970Y-50600000D02*
X29999970Y-49861282D01*
X27788689Y-47650001D02*
X27781803Y-47650001D01*
X24430031Y-38604907D02*
X23790010Y-37964886D01*
X27781803Y-47650001D02*
X24430031Y-44298229D01*
X24430031Y-44298229D02*
X24430031Y-38604907D01*
X23790010Y-37964886D02*
X23790010Y-29411542D01*
X23790010Y-29411542D02*
X22380000Y-28001532D01*
X22380000Y-28001532D02*
X22380000Y-27300000D01*
X29999970Y-49861282D02*
X27788689Y-47650001D01*
X35250000Y-43800000D02*
X36089993Y-42960007D01*
X35750000Y-36971024D02*
X36089993Y-37311017D01*
X35750000Y-36617471D02*
X35750000Y-36971024D01*
X36089993Y-37311017D02*
X36089993Y-42960007D01*
X36410003Y-36617471D02*
X36410003Y-43332962D01*
X36410003Y-43332962D02*
X35942965Y-43800000D01*
X26010001Y-54149999D02*
X24920000Y-55240000D01*
X28086926Y-47050000D02*
X28093812Y-47050000D01*
X28046906Y-47009980D02*
X28086926Y-47050000D01*
X28046906Y-47003094D02*
X28046906Y-47009980D01*
X25800000Y-44756188D02*
X28046906Y-47003094D01*
X28417449Y-53829989D02*
X28097439Y-54149999D01*
X25800000Y-44350000D02*
X25800000Y-44756188D01*
X28093812Y-47050000D02*
X30809980Y-49766168D01*
X30809980Y-49766168D02*
X30809980Y-53137458D01*
X28097439Y-54149999D02*
X26010001Y-54149999D01*
X30809980Y-53137458D02*
X30117449Y-53829989D01*
X30117449Y-53829989D02*
X28417449Y-53829989D01*
X27460000Y-32319996D02*
X27460000Y-32380000D01*
X29039997Y-30739999D02*
X27460000Y-32319996D01*
X29939999Y-30739999D02*
X30250000Y-31050000D01*
X29039997Y-30739999D02*
X29939999Y-30739999D01*
D14*
X36501299Y-29226299D02*
X36501299Y-28418701D01*
X36501299Y-28418701D02*
X37620000Y-27300000D01*
X36501299Y-29226299D02*
X35767608Y-29959990D01*
X29574999Y-38000000D02*
X26650000Y-38000000D01*
X30325000Y-38750001D02*
X29574999Y-38000000D01*
X27575002Y-30174998D02*
X27300000Y-30450000D01*
X33242000Y-30174998D02*
X27575002Y-30174998D01*
X33517002Y-30450000D02*
X33242000Y-30174998D01*
X35277598Y-30450000D02*
X35767608Y-29959990D01*
X33517002Y-30450000D02*
X35277598Y-30450000D01*
D15*
X27460000Y-55240000D02*
X28550001Y-54149999D01*
X28550001Y-54149999D02*
X30250001Y-54149999D01*
X30250001Y-54149999D02*
X31129990Y-53270010D01*
X31129990Y-49393212D02*
X30555889Y-48819111D01*
X31129990Y-50745010D02*
X31129990Y-49393212D01*
X31129990Y-50745010D02*
X31129990Y-53270010D01*
G36*
X32502300Y-51654849D02*
G01*
X32512317Y-51667055D01*
X32524522Y-51677071D01*
X32524525Y-51677074D01*
X32561042Y-51707043D01*
X32599771Y-51727744D01*
X32616635Y-51736758D01*
X32676955Y-51755056D01*
X32723968Y-51759686D01*
X32723972Y-51759686D01*
X32739685Y-51761234D01*
X32755398Y-51759686D01*
X33769731Y-51759686D01*
X33758517Y-51786759D01*
X33739687Y-51881426D01*
X33739687Y-51977948D01*
X33758517Y-52072615D01*
X33795455Y-52161789D01*
X33849079Y-52242044D01*
X33917330Y-52310295D01*
X33997585Y-52363919D01*
X34086759Y-52400857D01*
X34181426Y-52419687D01*
X34277948Y-52419687D01*
X34372615Y-52400857D01*
X34461789Y-52363919D01*
X34542044Y-52310295D01*
X34602652Y-52249687D01*
X36097139Y-52249687D01*
X36209999Y-52362547D01*
X36210000Y-54134276D01*
X36208451Y-54149999D01*
X36211453Y-54180475D01*
X36214630Y-54212730D01*
X36232928Y-54273050D01*
X36262642Y-54328641D01*
X36287965Y-54359497D01*
X36302631Y-54377368D01*
X36314840Y-54387387D01*
X36653202Y-54725750D01*
X36571888Y-54922059D01*
X36530000Y-55132644D01*
X36530000Y-55347356D01*
X36571888Y-55557941D01*
X36654055Y-55756309D01*
X36773342Y-55934834D01*
X36925166Y-56086658D01*
X37087311Y-56195000D01*
X35612689Y-56195000D01*
X35774834Y-56086658D01*
X35926658Y-55934834D01*
X36045945Y-55756309D01*
X36128112Y-55557941D01*
X36170000Y-55347356D01*
X36170000Y-55132644D01*
X36128112Y-54922059D01*
X36045945Y-54723691D01*
X35926658Y-54545166D01*
X35774834Y-54393342D01*
X35596309Y-54274055D01*
X35397941Y-54191888D01*
X35187356Y-54150000D01*
X34972644Y-54150000D01*
X34762059Y-54191888D01*
X34563691Y-54274055D01*
X34385166Y-54393342D01*
X34233342Y-54545166D01*
X34114055Y-54723691D01*
X34031888Y-54922059D01*
X33990000Y-55132644D01*
X33990000Y-55347356D01*
X34031888Y-55557941D01*
X34114055Y-55756309D01*
X34233342Y-55934834D01*
X34385166Y-56086658D01*
X34547311Y-56195000D01*
X33072689Y-56195000D01*
X33234834Y-56086658D01*
X33386658Y-55934834D01*
X33505945Y-55756309D01*
X33588112Y-55557941D01*
X33630000Y-55347356D01*
X33630000Y-55132644D01*
X33588112Y-54922059D01*
X33505945Y-54723691D01*
X33386658Y-54545166D01*
X33234834Y-54393342D01*
X33056309Y-54274055D01*
X32857941Y-54191888D01*
X32647356Y-54150000D01*
X32432644Y-54150000D01*
X32222059Y-54191888D01*
X32023691Y-54274055D01*
X31845166Y-54393342D01*
X31693342Y-54545166D01*
X31574055Y-54723691D01*
X31491888Y-54922059D01*
X31450000Y-55132644D01*
X31450000Y-55347356D01*
X31491888Y-55557941D01*
X31574055Y-55756309D01*
X31693342Y-55934834D01*
X31845166Y-56086658D01*
X32007311Y-56195000D01*
X30532689Y-56195000D01*
X30694834Y-56086658D01*
X30846658Y-55934834D01*
X30965945Y-55756309D01*
X31048112Y-55557941D01*
X31090000Y-55347356D01*
X31090000Y-55132644D01*
X31048112Y-54922059D01*
X30965945Y-54723691D01*
X30846658Y-54545166D01*
X30694834Y-54393342D01*
X30553585Y-54298962D01*
X31345153Y-53507396D01*
X31357359Y-53497379D01*
X31367378Y-53485171D01*
X31397347Y-53448654D01*
X31427061Y-53393062D01*
X31427062Y-53393061D01*
X31445360Y-53332741D01*
X31449990Y-53285728D01*
X31449990Y-53285724D01*
X31451538Y-53270011D01*
X31449990Y-53254298D01*
X31449990Y-50602537D01*
X32502300Y-51654849D01*
G37*
X32502300Y-51654849D02*
X32512317Y-51667055D01*
X32524522Y-51677071D01*
X32524525Y-51677074D01*
X32561042Y-51707043D01*
X32599771Y-51727744D01*
X32616635Y-51736758D01*
X32676955Y-51755056D01*
X32723968Y-51759686D01*
X32723972Y-51759686D01*
X32739685Y-51761234D01*
X32755398Y-51759686D01*
X33769731Y-51759686D01*
X33758517Y-51786759D01*
X33739687Y-51881426D01*
X33739687Y-51977948D01*
X33758517Y-52072615D01*
X33795455Y-52161789D01*
X33849079Y-52242044D01*
X33917330Y-52310295D01*
X33997585Y-52363919D01*
X34086759Y-52400857D01*
X34181426Y-52419687D01*
X34277948Y-52419687D01*
X34372615Y-52400857D01*
X34461789Y-52363919D01*
X34542044Y-52310295D01*
X34602652Y-52249687D01*
X36097139Y-52249687D01*
X36209999Y-52362547D01*
X36210000Y-54134276D01*
X36208451Y-54149999D01*
X36211453Y-54180475D01*
X36214630Y-54212730D01*
X36232928Y-54273050D01*
X36262642Y-54328641D01*
X36287965Y-54359497D01*
X36302631Y-54377368D01*
X36314840Y-54387387D01*
X36653202Y-54725750D01*
X36571888Y-54922059D01*
X36530000Y-55132644D01*
X36530000Y-55347356D01*
X36571888Y-55557941D01*
X36654055Y-55756309D01*
X36773342Y-55934834D01*
X36925166Y-56086658D01*
X37087311Y-56195000D01*
X35612689Y-56195000D01*
X35774834Y-56086658D01*
X35926658Y-55934834D01*
X36045945Y-55756309D01*
X36128112Y-55557941D01*
X36170000Y-55347356D01*
X36170000Y-55132644D01*
X36128112Y-54922059D01*
X36045945Y-54723691D01*
X35926658Y-54545166D01*
X35774834Y-54393342D01*
X35596309Y-54274055D01*
X35397941Y-54191888D01*
X35187356Y-54150000D01*
X34972644Y-54150000D01*
X34762059Y-54191888D01*
X34563691Y-54274055D01*
X34385166Y-54393342D01*
X34233342Y-54545166D01*
X34114055Y-54723691D01*
X34031888Y-54922059D01*
X33990000Y-55132644D01*
X33990000Y-55347356D01*
X34031888Y-55557941D01*
X34114055Y-55756309D01*
X34233342Y-55934834D01*
X34385166Y-56086658D01*
X34547311Y-56195000D01*
X33072689Y-56195000D01*
X33234834Y-56086658D01*
X33386658Y-55934834D01*
X33505945Y-55756309D01*
X33588112Y-55557941D01*
X33630000Y-55347356D01*
X33630000Y-55132644D01*
X33588112Y-54922059D01*
X33505945Y-54723691D01*
X33386658Y-54545166D01*
X33234834Y-54393342D01*
X33056309Y-54274055D01*
X32857941Y-54191888D01*
X32647356Y-54150000D01*
X32432644Y-54150000D01*
X32222059Y-54191888D01*
X32023691Y-54274055D01*
X31845166Y-54393342D01*
X31693342Y-54545166D01*
X31574055Y-54723691D01*
X31491888Y-54922059D01*
X31450000Y-55132644D01*
X31450000Y-55347356D01*
X31491888Y-55557941D01*
X31574055Y-55756309D01*
X31693342Y-55934834D01*
X31845166Y-56086658D01*
X32007311Y-56195000D01*
X30532689Y-56195000D01*
X30694834Y-56086658D01*
X30846658Y-55934834D01*
X30965945Y-55756309D01*
X31048112Y-55557941D01*
X31090000Y-55347356D01*
X31090000Y-55132644D01*
X31048112Y-54922059D01*
X30965945Y-54723691D01*
X30846658Y-54545166D01*
X30694834Y-54393342D01*
X30553585Y-54298962D01*
X31345153Y-53507396D01*
X31357359Y-53497379D01*
X31367378Y-53485171D01*
X31397347Y-53448654D01*
X31427061Y-53393062D01*
X31427062Y-53393061D01*
X31445360Y-53332741D01*
X31449990Y-53285728D01*
X31449990Y-53285724D01*
X31451538Y-53270011D01*
X31449990Y-53254298D01*
X31449990Y-50602537D01*
X32502300Y-51654849D01*
G36*
X27146755Y-48825187D02*
G01*
X27156776Y-48837398D01*
X27168985Y-48847417D01*
X27205502Y-48877386D01*
X27206230Y-48877775D01*
X27625341Y-49296887D01*
X27625346Y-49296891D01*
X27880001Y-49551547D01*
X27880001Y-49625799D01*
X27870411Y-49632206D01*
X27802160Y-49700457D01*
X27748536Y-49780712D01*
X27711598Y-49869886D01*
X27692768Y-49964553D01*
X27692768Y-50061075D01*
X27711598Y-50155742D01*
X27748536Y-50244916D01*
X27802160Y-50325171D01*
X27870411Y-50393422D01*
X27950666Y-50447046D01*
X28039840Y-50483984D01*
X28134507Y-50502814D01*
X28231029Y-50502814D01*
X28325696Y-50483984D01*
X28414870Y-50447046D01*
X28495125Y-50393422D01*
X28563376Y-50325171D01*
X28603973Y-50264412D01*
X28671407Y-50292345D01*
X28766074Y-50311175D01*
X28862596Y-50311175D01*
X28957263Y-50292345D01*
X29046053Y-50255566D01*
X29053901Y-50274513D01*
X29107525Y-50354768D01*
X29175776Y-50423019D01*
X29256031Y-50476643D01*
X29345205Y-50513581D01*
X29439872Y-50532411D01*
X29513814Y-50532411D01*
X29509970Y-50551739D01*
X29509970Y-50648261D01*
X29528800Y-50742928D01*
X29565738Y-50832102D01*
X29619362Y-50912357D01*
X29687613Y-50980608D01*
X29767868Y-51034232D01*
X29857042Y-51071170D01*
X29951709Y-51090000D01*
X30048231Y-51090000D01*
X30142898Y-51071170D01*
X30169971Y-51059956D01*
X30169970Y-52872358D01*
X29852350Y-53189979D01*
X28300602Y-53189979D01*
X28284896Y-53188432D01*
X28269190Y-53189979D01*
X28269179Y-53189979D01*
X28222166Y-53194609D01*
X28161846Y-53212907D01*
X28155482Y-53216309D01*
X28106253Y-53242622D01*
X28069736Y-53272591D01*
X28069733Y-53272594D01*
X28057528Y-53282610D01*
X28047511Y-53294816D01*
X27832339Y-53509989D01*
X23862537Y-53509989D01*
X23790001Y-53437454D01*
X23790001Y-51265713D01*
X23791549Y-51250000D01*
X23790001Y-51234283D01*
X23785371Y-51187270D01*
X23767073Y-51126950D01*
X23737359Y-51071360D01*
X23737358Y-51071358D01*
X23707389Y-51034840D01*
X23707386Y-51034837D01*
X23697370Y-51022632D01*
X23685165Y-51012617D01*
X23346798Y-50674250D01*
X23428112Y-50477941D01*
X23470000Y-50267356D01*
X23470000Y-50052644D01*
X23428112Y-49842059D01*
X23345945Y-49643691D01*
X23226658Y-49465166D01*
X23074834Y-49313342D01*
X22896309Y-49194055D01*
X22697941Y-49111888D01*
X22487356Y-49070000D01*
X22272644Y-49070000D01*
X22062059Y-49111888D01*
X21863691Y-49194055D01*
X21685166Y-49313342D01*
X21533342Y-49465166D01*
X21425000Y-49627311D01*
X21425000Y-48152689D01*
X21533342Y-48314834D01*
X21685166Y-48466658D01*
X21863691Y-48585945D01*
X22062059Y-48668112D01*
X22272644Y-48710000D01*
X22487356Y-48710000D01*
X22697941Y-48668112D01*
X22896309Y-48585945D01*
X23074834Y-48466658D01*
X23226658Y-48314834D01*
X23345945Y-48136309D01*
X23428112Y-47937941D01*
X23470000Y-47727356D01*
X23470000Y-47512644D01*
X23428112Y-47302059D01*
X23345945Y-47103691D01*
X23226658Y-46925166D01*
X23074834Y-46773342D01*
X22896309Y-46654055D01*
X22697941Y-46571888D01*
X22487356Y-46530000D01*
X22272644Y-46530000D01*
X22062059Y-46571888D01*
X21863691Y-46654055D01*
X21685166Y-46773342D01*
X21533342Y-46925166D01*
X21425000Y-47087311D01*
X21425000Y-45612689D01*
X21533342Y-45774834D01*
X21685166Y-45926658D01*
X21863691Y-46045945D01*
X22062059Y-46128112D01*
X22272644Y-46170000D01*
X22487356Y-46170000D01*
X22697941Y-46128112D01*
X22896309Y-46045945D01*
X23074834Y-45926658D01*
X23226658Y-45774834D01*
X23345945Y-45596309D01*
X23428112Y-45397941D01*
X23470000Y-45187356D01*
X23470000Y-45148431D01*
X27146755Y-48825187D01*
G37*
X27146755Y-48825187D02*
X27156776Y-48837398D01*
X27168985Y-48847417D01*
X27205502Y-48877386D01*
X27206230Y-48877775D01*
X27625341Y-49296887D01*
X27625346Y-49296891D01*
X27880001Y-49551547D01*
X27880001Y-49625799D01*
X27870411Y-49632206D01*
X27802160Y-49700457D01*
X27748536Y-49780712D01*
X27711598Y-49869886D01*
X27692768Y-49964553D01*
X27692768Y-50061075D01*
X27711598Y-50155742D01*
X27748536Y-50244916D01*
X27802160Y-50325171D01*
X27870411Y-50393422D01*
X27950666Y-50447046D01*
X28039840Y-50483984D01*
X28134507Y-50502814D01*
X28231029Y-50502814D01*
X28325696Y-50483984D01*
X28414870Y-50447046D01*
X28495125Y-50393422D01*
X28563376Y-50325171D01*
X28603973Y-50264412D01*
X28671407Y-50292345D01*
X28766074Y-50311175D01*
X28862596Y-50311175D01*
X28957263Y-50292345D01*
X29046053Y-50255566D01*
X29053901Y-50274513D01*
X29107525Y-50354768D01*
X29175776Y-50423019D01*
X29256031Y-50476643D01*
X29345205Y-50513581D01*
X29439872Y-50532411D01*
X29513814Y-50532411D01*
X29509970Y-50551739D01*
X29509970Y-50648261D01*
X29528800Y-50742928D01*
X29565738Y-50832102D01*
X29619362Y-50912357D01*
X29687613Y-50980608D01*
X29767868Y-51034232D01*
X29857042Y-51071170D01*
X29951709Y-51090000D01*
X30048231Y-51090000D01*
X30142898Y-51071170D01*
X30169971Y-51059956D01*
X30169970Y-52872358D01*
X29852350Y-53189979D01*
X28300602Y-53189979D01*
X28284896Y-53188432D01*
X28269190Y-53189979D01*
X28269179Y-53189979D01*
X28222166Y-53194609D01*
X28161846Y-53212907D01*
X28155482Y-53216309D01*
X28106253Y-53242622D01*
X28069736Y-53272591D01*
X28069733Y-53272594D01*
X28057528Y-53282610D01*
X28047511Y-53294816D01*
X27832339Y-53509989D01*
X23862537Y-53509989D01*
X23790001Y-53437454D01*
X23790001Y-51265713D01*
X23791549Y-51250000D01*
X23790001Y-51234283D01*
X23785371Y-51187270D01*
X23767073Y-51126950D01*
X23737359Y-51071360D01*
X23737358Y-51071358D01*
X23707389Y-51034840D01*
X23707386Y-51034837D01*
X23697370Y-51022632D01*
X23685165Y-51012617D01*
X23346798Y-50674250D01*
X23428112Y-50477941D01*
X23470000Y-50267356D01*
X23470000Y-50052644D01*
X23428112Y-49842059D01*
X23345945Y-49643691D01*
X23226658Y-49465166D01*
X23074834Y-49313342D01*
X22896309Y-49194055D01*
X22697941Y-49111888D01*
X22487356Y-49070000D01*
X22272644Y-49070000D01*
X22062059Y-49111888D01*
X21863691Y-49194055D01*
X21685166Y-49313342D01*
X21533342Y-49465166D01*
X21425000Y-49627311D01*
X21425000Y-48152689D01*
X21533342Y-48314834D01*
X21685166Y-48466658D01*
X21863691Y-48585945D01*
X22062059Y-48668112D01*
X22272644Y-48710000D01*
X22487356Y-48710000D01*
X22697941Y-48668112D01*
X22896309Y-48585945D01*
X23074834Y-48466658D01*
X23226658Y-48314834D01*
X23345945Y-48136309D01*
X23428112Y-47937941D01*
X23470000Y-47727356D01*
X23470000Y-47512644D01*
X23428112Y-47302059D01*
X23345945Y-47103691D01*
X23226658Y-46925166D01*
X23074834Y-46773342D01*
X22896309Y-46654055D01*
X22697941Y-46571888D01*
X22487356Y-46530000D01*
X22272644Y-46530000D01*
X22062059Y-46571888D01*
X21863691Y-46654055D01*
X21685166Y-46773342D01*
X21533342Y-46925166D01*
X21425000Y-47087311D01*
X21425000Y-45612689D01*
X21533342Y-45774834D01*
X21685166Y-45926658D01*
X21863691Y-46045945D01*
X22062059Y-46128112D01*
X22272644Y-46170000D01*
X22487356Y-46170000D01*
X22697941Y-46128112D01*
X22896309Y-46045945D01*
X23074834Y-45926658D01*
X23226658Y-45774834D01*
X23345945Y-45596309D01*
X23428112Y-45397941D01*
X23470000Y-45187356D01*
X23470000Y-45148431D01*
X27146755Y-48825187D01*
G36*
X35092269Y-45395370D02*
G01*
X35139282Y-45400000D01*
X35139287Y-45400000D01*
X35155000Y-45401548D01*
X35170713Y-45400000D01*
X36572741Y-45400000D01*
X36654055Y-45596309D01*
X36773342Y-45774834D01*
X36925166Y-45926658D01*
X37103691Y-46045945D01*
X37302059Y-46128112D01*
X37512644Y-46170000D01*
X37727356Y-46170000D01*
X37937941Y-46128112D01*
X38136309Y-46045945D01*
X38314834Y-45926658D01*
X38466658Y-45774834D01*
X38575000Y-45612689D01*
X38575000Y-47087311D01*
X38466658Y-46925166D01*
X38314834Y-46773342D01*
X38136309Y-46654055D01*
X37937941Y-46571888D01*
X37727356Y-46530000D01*
X37512644Y-46530000D01*
X37302059Y-46571888D01*
X37103691Y-46654055D01*
X36925166Y-46773342D01*
X36773342Y-46925166D01*
X36654055Y-47103691D01*
X36571888Y-47302059D01*
X36530000Y-47512644D01*
X36530000Y-47727356D01*
X36571888Y-47937941D01*
X36653202Y-48134250D01*
X36284843Y-48502610D01*
X36272632Y-48512631D01*
X36262612Y-48524841D01*
X36232643Y-48561358D01*
X36209109Y-48605387D01*
X36202929Y-48616949D01*
X36184631Y-48677269D01*
X36181684Y-48707196D01*
X36178452Y-48740000D01*
X36180001Y-48755723D01*
X36180000Y-49967452D01*
X35667787Y-50479666D01*
X33137338Y-50479666D01*
X32410018Y-49752347D01*
X32410018Y-49042900D01*
X32467580Y-49100462D01*
X32482643Y-49128642D01*
X32513172Y-49165843D01*
X32522631Y-49177369D01*
X32571358Y-49217357D01*
X32626949Y-49247072D01*
X32687269Y-49265370D01*
X32750000Y-49271548D01*
X32765718Y-49270000D01*
X34034287Y-49270000D01*
X34050000Y-49271548D01*
X34065713Y-49270000D01*
X34065718Y-49270000D01*
X34112731Y-49265370D01*
X34173051Y-49247072D01*
X34228642Y-49217357D01*
X34277369Y-49177369D01*
X34287394Y-49165153D01*
X35018747Y-48433801D01*
X35030958Y-48423780D01*
X35057170Y-48391840D01*
X35070946Y-48375054D01*
X35088255Y-48342672D01*
X35100661Y-48319462D01*
X35118959Y-48259142D01*
X35123589Y-48212129D01*
X35123589Y-48212127D01*
X35125137Y-48196411D01*
X35123589Y-48180695D01*
X35123589Y-46169376D01*
X35184197Y-46108768D01*
X35237821Y-46028513D01*
X35274759Y-45939339D01*
X35293589Y-45844672D01*
X35293589Y-45748150D01*
X35274759Y-45653483D01*
X35237821Y-45564309D01*
X35184197Y-45484054D01*
X35115946Y-45415803D01*
X35079625Y-45391535D01*
X35092269Y-45395370D01*
G37*
X35092269Y-45395370D02*
X35139282Y-45400000D01*
X35139287Y-45400000D01*
X35155000Y-45401548D01*
X35170713Y-45400000D01*
X36572741Y-45400000D01*
X36654055Y-45596309D01*
X36773342Y-45774834D01*
X36925166Y-45926658D01*
X37103691Y-46045945D01*
X37302059Y-46128112D01*
X37512644Y-46170000D01*
X37727356Y-46170000D01*
X37937941Y-46128112D01*
X38136309Y-46045945D01*
X38314834Y-45926658D01*
X38466658Y-45774834D01*
X38575000Y-45612689D01*
X38575000Y-47087311D01*
X38466658Y-46925166D01*
X38314834Y-46773342D01*
X38136309Y-46654055D01*
X37937941Y-46571888D01*
X37727356Y-46530000D01*
X37512644Y-46530000D01*
X37302059Y-46571888D01*
X37103691Y-46654055D01*
X36925166Y-46773342D01*
X36773342Y-46925166D01*
X36654055Y-47103691D01*
X36571888Y-47302059D01*
X36530000Y-47512644D01*
X36530000Y-47727356D01*
X36571888Y-47937941D01*
X36653202Y-48134250D01*
X36284843Y-48502610D01*
X36272632Y-48512631D01*
X36262612Y-48524841D01*
X36232643Y-48561358D01*
X36209109Y-48605387D01*
X36202929Y-48616949D01*
X36184631Y-48677269D01*
X36181684Y-48707196D01*
X36178452Y-48740000D01*
X36180001Y-48755723D01*
X36180000Y-49967452D01*
X35667787Y-50479666D01*
X33137338Y-50479666D01*
X32410018Y-49752347D01*
X32410018Y-49042900D01*
X32467580Y-49100462D01*
X32482643Y-49128642D01*
X32513172Y-49165843D01*
X32522631Y-49177369D01*
X32571358Y-49217357D01*
X32626949Y-49247072D01*
X32687269Y-49265370D01*
X32750000Y-49271548D01*
X32765718Y-49270000D01*
X34034287Y-49270000D01*
X34050000Y-49271548D01*
X34065713Y-49270000D01*
X34065718Y-49270000D01*
X34112731Y-49265370D01*
X34173051Y-49247072D01*
X34228642Y-49217357D01*
X34277369Y-49177369D01*
X34287394Y-49165153D01*
X35018747Y-48433801D01*
X35030958Y-48423780D01*
X35057170Y-48391840D01*
X35070946Y-48375054D01*
X35088255Y-48342672D01*
X35100661Y-48319462D01*
X35118959Y-48259142D01*
X35123589Y-48212129D01*
X35123589Y-48212127D01*
X35125137Y-48196411D01*
X35123589Y-48180695D01*
X35123589Y-46169376D01*
X35184197Y-46108768D01*
X35237821Y-46028513D01*
X35274759Y-45939339D01*
X35293589Y-45844672D01*
X35293589Y-45748150D01*
X35274759Y-45653483D01*
X35237821Y-45564309D01*
X35184197Y-45484054D01*
X35115946Y-45415803D01*
X35079625Y-45391535D01*
X35092269Y-45395370D01*
G36*
X38575000Y-44547311D02*
G01*
X38466658Y-44385166D01*
X38314834Y-44233342D01*
X38136309Y-44114055D01*
X37937941Y-44031888D01*
X37727356Y-43990000D01*
X37512644Y-43990000D01*
X37302059Y-44031888D01*
X37103691Y-44114055D01*
X36925166Y-44233342D01*
X36773342Y-44385166D01*
X36654055Y-44563691D01*
X36572741Y-44760000D01*
X35287548Y-44760000D01*
X35055854Y-44528307D01*
X35055854Y-44249954D01*
X35107072Y-44271170D01*
X35201739Y-44290000D01*
X35298261Y-44290000D01*
X35392928Y-44271170D01*
X35482102Y-44234232D01*
X35562357Y-44180608D01*
X35596483Y-44146483D01*
X35630608Y-44180608D01*
X35710863Y-44234232D01*
X35800037Y-44271170D01*
X35894704Y-44290000D01*
X35991226Y-44290000D01*
X36085893Y-44271170D01*
X36175067Y-44234232D01*
X36255322Y-44180608D01*
X36323573Y-44112357D01*
X36377197Y-44032102D01*
X36414135Y-43942928D01*
X36432965Y-43848261D01*
X36432965Y-43762548D01*
X36625166Y-43570348D01*
X36637372Y-43560331D01*
X36647391Y-43548123D01*
X36677360Y-43511606D01*
X36707074Y-43456014D01*
X36707075Y-43456013D01*
X36725373Y-43395693D01*
X36730003Y-43348680D01*
X36730003Y-43348669D01*
X36731550Y-43332963D01*
X36730003Y-43317257D01*
X36730003Y-43169973D01*
X36773342Y-43234834D01*
X36925166Y-43386658D01*
X37103691Y-43505945D01*
X37302059Y-43588112D01*
X37512644Y-43630000D01*
X37727356Y-43630000D01*
X37937941Y-43588112D01*
X38136309Y-43505945D01*
X38314834Y-43386658D01*
X38466658Y-43234834D01*
X38575000Y-43072689D01*
X38575000Y-44547311D01*
G37*
X38575000Y-44547311D02*
X38466658Y-44385166D01*
X38314834Y-44233342D01*
X38136309Y-44114055D01*
X37937941Y-44031888D01*
X37727356Y-43990000D01*
X37512644Y-43990000D01*
X37302059Y-44031888D01*
X37103691Y-44114055D01*
X36925166Y-44233342D01*
X36773342Y-44385166D01*
X36654055Y-44563691D01*
X36572741Y-44760000D01*
X35287548Y-44760000D01*
X35055854Y-44528307D01*
X35055854Y-44249954D01*
X35107072Y-44271170D01*
X35201739Y-44290000D01*
X35298261Y-44290000D01*
X35392928Y-44271170D01*
X35482102Y-44234232D01*
X35562357Y-44180608D01*
X35596483Y-44146483D01*
X35630608Y-44180608D01*
X35710863Y-44234232D01*
X35800037Y-44271170D01*
X35894704Y-44290000D01*
X35991226Y-44290000D01*
X36085893Y-44271170D01*
X36175067Y-44234232D01*
X36255322Y-44180608D01*
X36323573Y-44112357D01*
X36377197Y-44032102D01*
X36414135Y-43942928D01*
X36432965Y-43848261D01*
X36432965Y-43762548D01*
X36625166Y-43570348D01*
X36637372Y-43560331D01*
X36647391Y-43548123D01*
X36677360Y-43511606D01*
X36707074Y-43456014D01*
X36707075Y-43456013D01*
X36725373Y-43395693D01*
X36730003Y-43348680D01*
X36730003Y-43348669D01*
X36731550Y-43332963D01*
X36730003Y-43317257D01*
X36730003Y-43169973D01*
X36773342Y-43234834D01*
X36925166Y-43386658D01*
X37103691Y-43505945D01*
X37302059Y-43588112D01*
X37512644Y-43630000D01*
X37727356Y-43630000D01*
X37937941Y-43588112D01*
X38136309Y-43505945D01*
X38314834Y-43386658D01*
X38466658Y-43234834D01*
X38575000Y-43072689D01*
X38575000Y-44547311D01*
G36*
X23685000Y-23920000D02*
G01*
X23685000Y-24520000D01*
X24345000Y-24520000D01*
X24345000Y-24500000D01*
X24505000Y-24500000D01*
X24505000Y-24520000D01*
X24525000Y-24520000D01*
X24525000Y-24680000D01*
X24505000Y-24680000D01*
X24505000Y-25875278D01*
X24619098Y-25914091D01*
X24769605Y-25859733D01*
X24891691Y-25779827D01*
X24995842Y-25677639D01*
X25078056Y-25557096D01*
X25113000Y-25474954D01*
X25113001Y-27925048D01*
X25078056Y-27842904D01*
X24995842Y-27722361D01*
X24891691Y-27620173D01*
X24769605Y-27540267D01*
X24619098Y-27485909D01*
X24505000Y-27524722D01*
X24505000Y-28520000D01*
X24525000Y-28520000D01*
X24525000Y-28680000D01*
X24505000Y-28680000D01*
X24505000Y-29675278D01*
X24619098Y-29714091D01*
X24769605Y-29659733D01*
X24891691Y-29579827D01*
X24995842Y-29477639D01*
X25078056Y-29357096D01*
X25135174Y-29222830D01*
X25135546Y-29221049D01*
X25135570Y-29221128D01*
X25164820Y-29275851D01*
X25204184Y-29323816D01*
X25252149Y-29363180D01*
X25306872Y-29392430D01*
X25366249Y-29410442D01*
X25412527Y-29415000D01*
X25428000Y-29416524D01*
X25443473Y-29415000D01*
X34556527Y-29415000D01*
X34572000Y-29416524D01*
X34587473Y-29415000D01*
X34633751Y-29410442D01*
X34693128Y-29392430D01*
X34747851Y-29363180D01*
X34795816Y-29323816D01*
X34835180Y-29275851D01*
X34864430Y-29221128D01*
X34864454Y-29221049D01*
X34864826Y-29222830D01*
X34921944Y-29357096D01*
X35004158Y-29477639D01*
X35108309Y-29579827D01*
X35230395Y-29659733D01*
X35380902Y-29714091D01*
X35493039Y-29675945D01*
X35113985Y-30055000D01*
X33807820Y-30055000D01*
X33749104Y-30015768D01*
X33659930Y-29978830D01*
X33590669Y-29965053D01*
X33535028Y-29909413D01*
X33522658Y-29894340D01*
X33462512Y-29844979D01*
X33393891Y-29808300D01*
X33319433Y-29785714D01*
X33261401Y-29779998D01*
X33261394Y-29779998D01*
X33242000Y-29778088D01*
X33222606Y-29779998D01*
X27594396Y-29779998D01*
X27575002Y-29778088D01*
X27555608Y-29779998D01*
X27555601Y-29779998D01*
X27497569Y-29785714D01*
X27423110Y-29808300D01*
X27354490Y-29844979D01*
X27309413Y-29881972D01*
X27309407Y-29881978D01*
X27294344Y-29894340D01*
X27281981Y-29909404D01*
X27226332Y-29965054D01*
X27157072Y-29978830D01*
X27067898Y-30015768D01*
X26987643Y-30069392D01*
X26919392Y-30137643D01*
X26865768Y-30217898D01*
X26828830Y-30307072D01*
X26810000Y-30401739D01*
X26810000Y-30498261D01*
X26828830Y-30592928D01*
X26865768Y-30682102D01*
X26919392Y-30762357D01*
X26987643Y-30830608D01*
X27067898Y-30884232D01*
X27157072Y-30921170D01*
X27251739Y-30940000D01*
X27348261Y-30940000D01*
X27442928Y-30921170D01*
X27532102Y-30884232D01*
X27612357Y-30830608D01*
X27680608Y-30762357D01*
X27734232Y-30682102D01*
X27771170Y-30592928D01*
X27775731Y-30569998D01*
X28580041Y-30569998D01*
X28568827Y-30597071D01*
X28549997Y-30691738D01*
X28549997Y-30777451D01*
X27931821Y-31395627D01*
X27777941Y-31331888D01*
X27567356Y-31290000D01*
X27352644Y-31290000D01*
X27142059Y-31331888D01*
X26943691Y-31414055D01*
X26765166Y-31533342D01*
X26613342Y-31685166D01*
X26494055Y-31863691D01*
X26411888Y-32062059D01*
X26370000Y-32272644D01*
X26370000Y-32487356D01*
X26411888Y-32697941D01*
X26494055Y-32896309D01*
X26613342Y-33074834D01*
X26765166Y-33226658D01*
X26943691Y-33345945D01*
X27142059Y-33428112D01*
X27352644Y-33470000D01*
X27567356Y-33470000D01*
X27777941Y-33428112D01*
X27976309Y-33345945D01*
X28154834Y-33226658D01*
X28306658Y-33074834D01*
X28425945Y-32896309D01*
X28508112Y-32697941D01*
X28550000Y-32487356D01*
X28550000Y-32272644D01*
X28508112Y-32062059D01*
X28425945Y-31863691D01*
X28403077Y-31829467D01*
X29002545Y-31229999D01*
X29088258Y-31229999D01*
X29182925Y-31211169D01*
X29272099Y-31174231D01*
X29352354Y-31120607D01*
X29412962Y-31059999D01*
X29760000Y-31059999D01*
X29760000Y-31098261D01*
X29778830Y-31192928D01*
X29815768Y-31282102D01*
X29829445Y-31302571D01*
X29682059Y-31331888D01*
X29483691Y-31414055D01*
X29305166Y-31533342D01*
X29153342Y-31685166D01*
X29034055Y-31863691D01*
X28951888Y-32062059D01*
X28910000Y-32272644D01*
X28910000Y-32487356D01*
X28951888Y-32697941D01*
X29034055Y-32896309D01*
X29153342Y-33074834D01*
X29305166Y-33226658D01*
X29483691Y-33345945D01*
X29682059Y-33428112D01*
X29892644Y-33470000D01*
X30107356Y-33470000D01*
X30317941Y-33428112D01*
X30516309Y-33345945D01*
X30694834Y-33226658D01*
X30846658Y-33074834D01*
X30965945Y-32896309D01*
X31048112Y-32697941D01*
X31090000Y-32487356D01*
X31090000Y-32272644D01*
X31048112Y-32062059D01*
X30965945Y-31863691D01*
X30846658Y-31685166D01*
X30694834Y-31533342D01*
X30551720Y-31437716D01*
X30562357Y-31430608D01*
X30630608Y-31362357D01*
X30684232Y-31282102D01*
X30721170Y-31192928D01*
X30740000Y-31098261D01*
X30740000Y-31001739D01*
X30721170Y-30907072D01*
X30684232Y-30817898D01*
X30630608Y-30737643D01*
X30562357Y-30669392D01*
X30482102Y-30615768D01*
X30392928Y-30578830D01*
X30348526Y-30569998D01*
X33041271Y-30569998D01*
X33045832Y-30592928D01*
X33082770Y-30682102D01*
X33136394Y-30762357D01*
X33204645Y-30830608D01*
X33284900Y-30884232D01*
X33374074Y-30921170D01*
X33468741Y-30940000D01*
X33565263Y-30940000D01*
X33659930Y-30921170D01*
X33749104Y-30884232D01*
X33807820Y-30845000D01*
X35258204Y-30845000D01*
X35277598Y-30846910D01*
X35296992Y-30845000D01*
X35296999Y-30845000D01*
X35355031Y-30839284D01*
X35429489Y-30816698D01*
X35498110Y-30780019D01*
X35558256Y-30730658D01*
X35570627Y-30715584D01*
X35659782Y-30626429D01*
X36946708Y-30626429D01*
X37042655Y-30770751D01*
X37235330Y-30865501D01*
X37442786Y-30920842D01*
X37657053Y-30934647D01*
X37869896Y-30906386D01*
X38073136Y-30837143D01*
X38197345Y-30770751D01*
X38293292Y-30626429D01*
X37620000Y-29953137D01*
X36946708Y-30626429D01*
X35659782Y-30626429D01*
X36060633Y-30225579D01*
X36060637Y-30225574D01*
X36533355Y-29752857D01*
X36525353Y-29877053D01*
X36553614Y-30089896D01*
X36622857Y-30293136D01*
X36689249Y-30417345D01*
X36833571Y-30513292D01*
X37506863Y-29840000D01*
X37492721Y-29825858D01*
X37605858Y-29712721D01*
X37620000Y-29726863D01*
X38293292Y-29053571D01*
X38197345Y-28909249D01*
X38004670Y-28814499D01*
X37797214Y-28759158D01*
X37582947Y-28745353D01*
X37370104Y-28773614D01*
X37166864Y-28842857D01*
X37042655Y-28909249D01*
X36946709Y-29053569D01*
X36902368Y-29009228D01*
X36896299Y-29015297D01*
X36896299Y-28582314D01*
X37180750Y-28297864D01*
X37302059Y-28348112D01*
X37512644Y-28390000D01*
X37727356Y-28390000D01*
X37937941Y-28348112D01*
X38136309Y-28265945D01*
X38314834Y-28146658D01*
X38466658Y-27994834D01*
X38575001Y-27832688D01*
X38575001Y-29308023D01*
X38550751Y-29262655D01*
X38406429Y-29166708D01*
X37733137Y-29840000D01*
X38406429Y-30513292D01*
X38550751Y-30417345D01*
X38575001Y-30368033D01*
X38575001Y-31847312D01*
X38466658Y-31685166D01*
X38314834Y-31533342D01*
X38136309Y-31414055D01*
X37937941Y-31331888D01*
X37727356Y-31290000D01*
X37512644Y-31290000D01*
X37302059Y-31331888D01*
X37103691Y-31414055D01*
X36925166Y-31533342D01*
X36773342Y-31685166D01*
X36654055Y-31863691D01*
X36571888Y-32062059D01*
X36530000Y-32272644D01*
X36530000Y-32487356D01*
X36571888Y-32697941D01*
X36654055Y-32896309D01*
X36683010Y-32939643D01*
X30812668Y-38809987D01*
X30815000Y-38798262D01*
X30815000Y-38701740D01*
X30796170Y-38607073D01*
X30759232Y-38517899D01*
X30705608Y-38437644D01*
X30637357Y-38369393D01*
X30557102Y-38315769D01*
X30467928Y-38278831D01*
X30398668Y-38265055D01*
X29868028Y-37734416D01*
X29855657Y-37719342D01*
X29795511Y-37669981D01*
X29726890Y-37633302D01*
X29652432Y-37610716D01*
X29594400Y-37605000D01*
X29594393Y-37605000D01*
X29574999Y-37603090D01*
X29555605Y-37605000D01*
X26940818Y-37605000D01*
X26882102Y-37565768D01*
X26792928Y-37528830D01*
X26698261Y-37510000D01*
X26601739Y-37510000D01*
X26507072Y-37528830D01*
X26417898Y-37565768D01*
X26337643Y-37619392D01*
X26269392Y-37687643D01*
X26215768Y-37767898D01*
X26178830Y-37857072D01*
X26160000Y-37951739D01*
X26160000Y-38048261D01*
X26178830Y-38142928D01*
X26215768Y-38232102D01*
X26269392Y-38312357D01*
X26337643Y-38380608D01*
X26417898Y-38434232D01*
X26507072Y-38471170D01*
X26601739Y-38490000D01*
X26698261Y-38490000D01*
X26792928Y-38471170D01*
X26882102Y-38434232D01*
X26940818Y-38395000D01*
X29092056Y-38395000D01*
X29049412Y-38437644D01*
X28995788Y-38517899D01*
X28958850Y-38607073D01*
X28940020Y-38701740D01*
X28940020Y-38787454D01*
X28879168Y-38848306D01*
X25937950Y-38848306D01*
X25922237Y-38846758D01*
X25906524Y-38848306D01*
X25906519Y-38848306D01*
X25859506Y-38852936D01*
X25799186Y-38871234D01*
X25773309Y-38885066D01*
X25743594Y-38900949D01*
X25725130Y-38916102D01*
X25694868Y-38940937D01*
X25684848Y-38953147D01*
X24750031Y-39887965D01*
X24750031Y-38620619D01*
X24751579Y-38604906D01*
X24750031Y-38589189D01*
X24745401Y-38542176D01*
X24727103Y-38481856D01*
X24718089Y-38464992D01*
X24697388Y-38426263D01*
X24667419Y-38389746D01*
X24667416Y-38389743D01*
X24657400Y-38377538D01*
X24645194Y-38367521D01*
X24110010Y-37832339D01*
X24110010Y-29670429D01*
X24230902Y-29714091D01*
X24345000Y-29675278D01*
X24345000Y-28680000D01*
X23685000Y-28680000D01*
X23685000Y-28853983D01*
X23016591Y-28185575D01*
X23074834Y-28146658D01*
X23101492Y-28120000D01*
X23685000Y-28120000D01*
X23685000Y-28520000D01*
X24345000Y-28520000D01*
X24345000Y-27524722D01*
X24230902Y-27485909D01*
X24080395Y-27540267D01*
X23958309Y-27620173D01*
X23854158Y-27722361D01*
X23771944Y-27842904D01*
X23714826Y-27977170D01*
X23685000Y-28120000D01*
X23101492Y-28120000D01*
X23226658Y-27994834D01*
X23345945Y-27816309D01*
X23428112Y-27617941D01*
X23470000Y-27407356D01*
X23470000Y-27192644D01*
X23428112Y-26982059D01*
X23345945Y-26783691D01*
X23226658Y-26605166D01*
X23074834Y-26453342D01*
X22896309Y-26334055D01*
X22697941Y-26251888D01*
X22487356Y-26210000D01*
X22272644Y-26210000D01*
X22062059Y-26251888D01*
X21863691Y-26334055D01*
X21685166Y-26453342D01*
X21533342Y-26605166D01*
X21425000Y-26767311D01*
X21425000Y-24775410D01*
X21434354Y-24680000D01*
X23685000Y-24680000D01*
X23685000Y-25280000D01*
X23714826Y-25422830D01*
X23771944Y-25557096D01*
X23854158Y-25677639D01*
X23958309Y-25779827D01*
X24080395Y-25859733D01*
X24230902Y-25914091D01*
X24345000Y-25875278D01*
X24345000Y-24680000D01*
X23685000Y-24680000D01*
X21434354Y-24680000D01*
X21444670Y-24574796D01*
X21498454Y-24396656D01*
X21585819Y-24232347D01*
X21703431Y-24088139D01*
X21846813Y-23969523D01*
X22010511Y-23881012D01*
X22188275Y-23825985D01*
X22387933Y-23805000D01*
X23709014Y-23805000D01*
X23685000Y-23920000D01*
G37*
X23685000Y-23920000D02*
X23685000Y-24520000D01*
X24345000Y-24520000D01*
X24345000Y-24500000D01*
X24505000Y-24500000D01*
X24505000Y-24520000D01*
X24525000Y-24520000D01*
X24525000Y-24680000D01*
X24505000Y-24680000D01*
X24505000Y-25875278D01*
X24619098Y-25914091D01*
X24769605Y-25859733D01*
X24891691Y-25779827D01*
X24995842Y-25677639D01*
X25078056Y-25557096D01*
X25113000Y-25474954D01*
X25113001Y-27925048D01*
X25078056Y-27842904D01*
X24995842Y-27722361D01*
X24891691Y-27620173D01*
X24769605Y-27540267D01*
X24619098Y-27485909D01*
X24505000Y-27524722D01*
X24505000Y-28520000D01*
X24525000Y-28520000D01*
X24525000Y-28680000D01*
X24505000Y-28680000D01*
X24505000Y-29675278D01*
X24619098Y-29714091D01*
X24769605Y-29659733D01*
X24891691Y-29579827D01*
X24995842Y-29477639D01*
X25078056Y-29357096D01*
X25135174Y-29222830D01*
X25135546Y-29221049D01*
X25135570Y-29221128D01*
X25164820Y-29275851D01*
X25204184Y-29323816D01*
X25252149Y-29363180D01*
X25306872Y-29392430D01*
X25366249Y-29410442D01*
X25412527Y-29415000D01*
X25428000Y-29416524D01*
X25443473Y-29415000D01*
X34556527Y-29415000D01*
X34572000Y-29416524D01*
X34587473Y-29415000D01*
X34633751Y-29410442D01*
X34693128Y-29392430D01*
X34747851Y-29363180D01*
X34795816Y-29323816D01*
X34835180Y-29275851D01*
X34864430Y-29221128D01*
X34864454Y-29221049D01*
X34864826Y-29222830D01*
X34921944Y-29357096D01*
X35004158Y-29477639D01*
X35108309Y-29579827D01*
X35230395Y-29659733D01*
X35380902Y-29714091D01*
X35493039Y-29675945D01*
X35113985Y-30055000D01*
X33807820Y-30055000D01*
X33749104Y-30015768D01*
X33659930Y-29978830D01*
X33590669Y-29965053D01*
X33535028Y-29909413D01*
X33522658Y-29894340D01*
X33462512Y-29844979D01*
X33393891Y-29808300D01*
X33319433Y-29785714D01*
X33261401Y-29779998D01*
X33261394Y-29779998D01*
X33242000Y-29778088D01*
X33222606Y-29779998D01*
X27594396Y-29779998D01*
X27575002Y-29778088D01*
X27555608Y-29779998D01*
X27555601Y-29779998D01*
X27497569Y-29785714D01*
X27423110Y-29808300D01*
X27354490Y-29844979D01*
X27309413Y-29881972D01*
X27309407Y-29881978D01*
X27294344Y-29894340D01*
X27281981Y-29909404D01*
X27226332Y-29965054D01*
X27157072Y-29978830D01*
X27067898Y-30015768D01*
X26987643Y-30069392D01*
X26919392Y-30137643D01*
X26865768Y-30217898D01*
X26828830Y-30307072D01*
X26810000Y-30401739D01*
X26810000Y-30498261D01*
X26828830Y-30592928D01*
X26865768Y-30682102D01*
X26919392Y-30762357D01*
X26987643Y-30830608D01*
X27067898Y-30884232D01*
X27157072Y-30921170D01*
X27251739Y-30940000D01*
X27348261Y-30940000D01*
X27442928Y-30921170D01*
X27532102Y-30884232D01*
X27612357Y-30830608D01*
X27680608Y-30762357D01*
X27734232Y-30682102D01*
X27771170Y-30592928D01*
X27775731Y-30569998D01*
X28580041Y-30569998D01*
X28568827Y-30597071D01*
X28549997Y-30691738D01*
X28549997Y-30777451D01*
X27931821Y-31395627D01*
X27777941Y-31331888D01*
X27567356Y-31290000D01*
X27352644Y-31290000D01*
X27142059Y-31331888D01*
X26943691Y-31414055D01*
X26765166Y-31533342D01*
X26613342Y-31685166D01*
X26494055Y-31863691D01*
X26411888Y-32062059D01*
X26370000Y-32272644D01*
X26370000Y-32487356D01*
X26411888Y-32697941D01*
X26494055Y-32896309D01*
X26613342Y-33074834D01*
X26765166Y-33226658D01*
X26943691Y-33345945D01*
X27142059Y-33428112D01*
X27352644Y-33470000D01*
X27567356Y-33470000D01*
X27777941Y-33428112D01*
X27976309Y-33345945D01*
X28154834Y-33226658D01*
X28306658Y-33074834D01*
X28425945Y-32896309D01*
X28508112Y-32697941D01*
X28550000Y-32487356D01*
X28550000Y-32272644D01*
X28508112Y-32062059D01*
X28425945Y-31863691D01*
X28403077Y-31829467D01*
X29002545Y-31229999D01*
X29088258Y-31229999D01*
X29182925Y-31211169D01*
X29272099Y-31174231D01*
X29352354Y-31120607D01*
X29412962Y-31059999D01*
X29760000Y-31059999D01*
X29760000Y-31098261D01*
X29778830Y-31192928D01*
X29815768Y-31282102D01*
X29829445Y-31302571D01*
X29682059Y-31331888D01*
X29483691Y-31414055D01*
X29305166Y-31533342D01*
X29153342Y-31685166D01*
X29034055Y-31863691D01*
X28951888Y-32062059D01*
X28910000Y-32272644D01*
X28910000Y-32487356D01*
X28951888Y-32697941D01*
X29034055Y-32896309D01*
X29153342Y-33074834D01*
X29305166Y-33226658D01*
X29483691Y-33345945D01*
X29682059Y-33428112D01*
X29892644Y-33470000D01*
X30107356Y-33470000D01*
X30317941Y-33428112D01*
X30516309Y-33345945D01*
X30694834Y-33226658D01*
X30846658Y-33074834D01*
X30965945Y-32896309D01*
X31048112Y-32697941D01*
X31090000Y-32487356D01*
X31090000Y-32272644D01*
X31048112Y-32062059D01*
X30965945Y-31863691D01*
X30846658Y-31685166D01*
X30694834Y-31533342D01*
X30551720Y-31437716D01*
X30562357Y-31430608D01*
X30630608Y-31362357D01*
X30684232Y-31282102D01*
X30721170Y-31192928D01*
X30740000Y-31098261D01*
X30740000Y-31001739D01*
X30721170Y-30907072D01*
X30684232Y-30817898D01*
X30630608Y-30737643D01*
X30562357Y-30669392D01*
X30482102Y-30615768D01*
X30392928Y-30578830D01*
X30348526Y-30569998D01*
X33041271Y-30569998D01*
X33045832Y-30592928D01*
X33082770Y-30682102D01*
X33136394Y-30762357D01*
X33204645Y-30830608D01*
X33284900Y-30884232D01*
X33374074Y-30921170D01*
X33468741Y-30940000D01*
X33565263Y-30940000D01*
X33659930Y-30921170D01*
X33749104Y-30884232D01*
X33807820Y-30845000D01*
X35258204Y-30845000D01*
X35277598Y-30846910D01*
X35296992Y-30845000D01*
X35296999Y-30845000D01*
X35355031Y-30839284D01*
X35429489Y-30816698D01*
X35498110Y-30780019D01*
X35558256Y-30730658D01*
X35570627Y-30715584D01*
X35659782Y-30626429D01*
X36946708Y-30626429D01*
X37042655Y-30770751D01*
X37235330Y-30865501D01*
X37442786Y-30920842D01*
X37657053Y-30934647D01*
X37869896Y-30906386D01*
X38073136Y-30837143D01*
X38197345Y-30770751D01*
X38293292Y-30626429D01*
X37620000Y-29953137D01*
X36946708Y-30626429D01*
X35659782Y-30626429D01*
X36060633Y-30225579D01*
X36060637Y-30225574D01*
X36533355Y-29752857D01*
X36525353Y-29877053D01*
X36553614Y-30089896D01*
X36622857Y-30293136D01*
X36689249Y-30417345D01*
X36833571Y-30513292D01*
X37506863Y-29840000D01*
X37492721Y-29825858D01*
X37605858Y-29712721D01*
X37620000Y-29726863D01*
X38293292Y-29053571D01*
X38197345Y-28909249D01*
X38004670Y-28814499D01*
X37797214Y-28759158D01*
X37582947Y-28745353D01*
X37370104Y-28773614D01*
X37166864Y-28842857D01*
X37042655Y-28909249D01*
X36946709Y-29053569D01*
X36902368Y-29009228D01*
X36896299Y-29015297D01*
X36896299Y-28582314D01*
X37180750Y-28297864D01*
X37302059Y-28348112D01*
X37512644Y-28390000D01*
X37727356Y-28390000D01*
X37937941Y-28348112D01*
X38136309Y-28265945D01*
X38314834Y-28146658D01*
X38466658Y-27994834D01*
X38575001Y-27832688D01*
X38575001Y-29308023D01*
X38550751Y-29262655D01*
X38406429Y-29166708D01*
X37733137Y-29840000D01*
X38406429Y-30513292D01*
X38550751Y-30417345D01*
X38575001Y-30368033D01*
X38575001Y-31847312D01*
X38466658Y-31685166D01*
X38314834Y-31533342D01*
X38136309Y-31414055D01*
X37937941Y-31331888D01*
X37727356Y-31290000D01*
X37512644Y-31290000D01*
X37302059Y-31331888D01*
X37103691Y-31414055D01*
X36925166Y-31533342D01*
X36773342Y-31685166D01*
X36654055Y-31863691D01*
X36571888Y-32062059D01*
X36530000Y-32272644D01*
X36530000Y-32487356D01*
X36571888Y-32697941D01*
X36654055Y-32896309D01*
X36683010Y-32939643D01*
X30812668Y-38809987D01*
X30815000Y-38798262D01*
X30815000Y-38701740D01*
X30796170Y-38607073D01*
X30759232Y-38517899D01*
X30705608Y-38437644D01*
X30637357Y-38369393D01*
X30557102Y-38315769D01*
X30467928Y-38278831D01*
X30398668Y-38265055D01*
X29868028Y-37734416D01*
X29855657Y-37719342D01*
X29795511Y-37669981D01*
X29726890Y-37633302D01*
X29652432Y-37610716D01*
X29594400Y-37605000D01*
X29594393Y-37605000D01*
X29574999Y-37603090D01*
X29555605Y-37605000D01*
X26940818Y-37605000D01*
X26882102Y-37565768D01*
X26792928Y-37528830D01*
X26698261Y-37510000D01*
X26601739Y-37510000D01*
X26507072Y-37528830D01*
X26417898Y-37565768D01*
X26337643Y-37619392D01*
X26269392Y-37687643D01*
X26215768Y-37767898D01*
X26178830Y-37857072D01*
X26160000Y-37951739D01*
X26160000Y-38048261D01*
X26178830Y-38142928D01*
X26215768Y-38232102D01*
X26269392Y-38312357D01*
X26337643Y-38380608D01*
X26417898Y-38434232D01*
X26507072Y-38471170D01*
X26601739Y-38490000D01*
X26698261Y-38490000D01*
X26792928Y-38471170D01*
X26882102Y-38434232D01*
X26940818Y-38395000D01*
X29092056Y-38395000D01*
X29049412Y-38437644D01*
X28995788Y-38517899D01*
X28958850Y-38607073D01*
X28940020Y-38701740D01*
X28940020Y-38787454D01*
X28879168Y-38848306D01*
X25937950Y-38848306D01*
X25922237Y-38846758D01*
X25906524Y-38848306D01*
X25906519Y-38848306D01*
X25859506Y-38852936D01*
X25799186Y-38871234D01*
X25773309Y-38885066D01*
X25743594Y-38900949D01*
X25725130Y-38916102D01*
X25694868Y-38940937D01*
X25684848Y-38953147D01*
X24750031Y-39887965D01*
X24750031Y-38620619D01*
X24751579Y-38604906D01*
X24750031Y-38589189D01*
X24745401Y-38542176D01*
X24727103Y-38481856D01*
X24718089Y-38464992D01*
X24697388Y-38426263D01*
X24667419Y-38389746D01*
X24667416Y-38389743D01*
X24657400Y-38377538D01*
X24645194Y-38367521D01*
X24110010Y-37832339D01*
X24110010Y-29670429D01*
X24230902Y-29714091D01*
X24345000Y-29675278D01*
X24345000Y-28680000D01*
X23685000Y-28680000D01*
X23685000Y-28853983D01*
X23016591Y-28185575D01*
X23074834Y-28146658D01*
X23101492Y-28120000D01*
X23685000Y-28120000D01*
X23685000Y-28520000D01*
X24345000Y-28520000D01*
X24345000Y-27524722D01*
X24230902Y-27485909D01*
X24080395Y-27540267D01*
X23958309Y-27620173D01*
X23854158Y-27722361D01*
X23771944Y-27842904D01*
X23714826Y-27977170D01*
X23685000Y-28120000D01*
X23101492Y-28120000D01*
X23226658Y-27994834D01*
X23345945Y-27816309D01*
X23428112Y-27617941D01*
X23470000Y-27407356D01*
X23470000Y-27192644D01*
X23428112Y-26982059D01*
X23345945Y-26783691D01*
X23226658Y-26605166D01*
X23074834Y-26453342D01*
X22896309Y-26334055D01*
X22697941Y-26251888D01*
X22487356Y-26210000D01*
X22272644Y-26210000D01*
X22062059Y-26251888D01*
X21863691Y-26334055D01*
X21685166Y-26453342D01*
X21533342Y-26605166D01*
X21425000Y-26767311D01*
X21425000Y-24775410D01*
X21434354Y-24680000D01*
X23685000Y-24680000D01*
X23685000Y-25280000D01*
X23714826Y-25422830D01*
X23771944Y-25557096D01*
X23854158Y-25677639D01*
X23958309Y-25779827D01*
X24080395Y-25859733D01*
X24230902Y-25914091D01*
X24345000Y-25875278D01*
X24345000Y-24680000D01*
X23685000Y-24680000D01*
X21434354Y-24680000D01*
X21444670Y-24574796D01*
X21498454Y-24396656D01*
X21585819Y-24232347D01*
X21703431Y-24088139D01*
X21846813Y-23969523D01*
X22010511Y-23881012D01*
X22188275Y-23825985D01*
X22387933Y-23805000D01*
X23709014Y-23805000D01*
X23685000Y-23920000D01*
G36*
X21533342Y-30534834D02*
G01*
X21685166Y-30686658D01*
X21863691Y-30805945D01*
X22062059Y-30888112D01*
X22272644Y-30930000D01*
X22487356Y-30930000D01*
X22697941Y-30888112D01*
X22894250Y-30806798D01*
X23150001Y-31062550D01*
X23150001Y-31601597D01*
X23097632Y-31549228D01*
X23053291Y-31593569D01*
X22957345Y-31449249D01*
X22764670Y-31354499D01*
X22557214Y-31299158D01*
X22342947Y-31285353D01*
X22130104Y-31313614D01*
X21926864Y-31382857D01*
X21802655Y-31449249D01*
X21706708Y-31593571D01*
X22380000Y-32266863D01*
X22394143Y-32252721D01*
X22507280Y-32365858D01*
X22493137Y-32380000D01*
X22507280Y-32394143D01*
X22394143Y-32507280D01*
X22380000Y-32493137D01*
X21706708Y-33166429D01*
X21802655Y-33310751D01*
X21995330Y-33405501D01*
X22202786Y-33460842D01*
X22417053Y-33474647D01*
X22629896Y-33446386D01*
X22833136Y-33377143D01*
X22957345Y-33310751D01*
X23053291Y-33166431D01*
X23097632Y-33210772D01*
X23150002Y-33158402D01*
X23150002Y-34141598D01*
X23097632Y-34089228D01*
X23053291Y-34133569D01*
X22957345Y-33989249D01*
X22764670Y-33894499D01*
X22557214Y-33839158D01*
X22342947Y-33825353D01*
X22130104Y-33853614D01*
X21926864Y-33922857D01*
X21802655Y-33989249D01*
X21706708Y-34133571D01*
X22380000Y-34806863D01*
X22394143Y-34792721D01*
X22507280Y-34905858D01*
X22493137Y-34920000D01*
X22507280Y-34934143D01*
X22394143Y-35047280D01*
X22380000Y-35033137D01*
X21706708Y-35706429D01*
X21802655Y-35850751D01*
X21995330Y-35945501D01*
X22202786Y-36000842D01*
X22417053Y-36014647D01*
X22629896Y-35986386D01*
X22833136Y-35917143D01*
X22957345Y-35850751D01*
X23053291Y-35706431D01*
X23097632Y-35750772D01*
X23150002Y-35698402D01*
X23150003Y-36688511D01*
X23074834Y-36613342D01*
X22896309Y-36494055D01*
X22697941Y-36411888D01*
X22487356Y-36370000D01*
X22272644Y-36370000D01*
X22062059Y-36411888D01*
X21863691Y-36494055D01*
X21685166Y-36613342D01*
X21533342Y-36765166D01*
X21425000Y-36927311D01*
X21425000Y-35451979D01*
X21449249Y-35497345D01*
X21593571Y-35593292D01*
X22266863Y-34920000D01*
X21593571Y-34246708D01*
X21449249Y-34342655D01*
X21425000Y-34391966D01*
X21425000Y-32911979D01*
X21449249Y-32957345D01*
X21593571Y-33053292D01*
X22266863Y-32380000D01*
X21593571Y-31706708D01*
X21449249Y-31802655D01*
X21425000Y-31851966D01*
X21425000Y-30372689D01*
X21533342Y-30534834D01*
G37*
X21533342Y-30534834D02*
X21685166Y-30686658D01*
X21863691Y-30805945D01*
X22062059Y-30888112D01*
X22272644Y-30930000D01*
X22487356Y-30930000D01*
X22697941Y-30888112D01*
X22894250Y-30806798D01*
X23150001Y-31062550D01*
X23150001Y-31601597D01*
X23097632Y-31549228D01*
X23053291Y-31593569D01*
X22957345Y-31449249D01*
X22764670Y-31354499D01*
X22557214Y-31299158D01*
X22342947Y-31285353D01*
X22130104Y-31313614D01*
X21926864Y-31382857D01*
X21802655Y-31449249D01*
X21706708Y-31593571D01*
X22380000Y-32266863D01*
X22394143Y-32252721D01*
X22507280Y-32365858D01*
X22493137Y-32380000D01*
X22507280Y-32394143D01*
X22394143Y-32507280D01*
X22380000Y-32493137D01*
X21706708Y-33166429D01*
X21802655Y-33310751D01*
X21995330Y-33405501D01*
X22202786Y-33460842D01*
X22417053Y-33474647D01*
X22629896Y-33446386D01*
X22833136Y-33377143D01*
X22957345Y-33310751D01*
X23053291Y-33166431D01*
X23097632Y-33210772D01*
X23150002Y-33158402D01*
X23150002Y-34141598D01*
X23097632Y-34089228D01*
X23053291Y-34133569D01*
X22957345Y-33989249D01*
X22764670Y-33894499D01*
X22557214Y-33839158D01*
X22342947Y-33825353D01*
X22130104Y-33853614D01*
X21926864Y-33922857D01*
X21802655Y-33989249D01*
X21706708Y-34133571D01*
X22380000Y-34806863D01*
X22394143Y-34792721D01*
X22507280Y-34905858D01*
X22493137Y-34920000D01*
X22507280Y-34934143D01*
X22394143Y-35047280D01*
X22380000Y-35033137D01*
X21706708Y-35706429D01*
X21802655Y-35850751D01*
X21995330Y-35945501D01*
X22202786Y-36000842D01*
X22417053Y-36014647D01*
X22629896Y-35986386D01*
X22833136Y-35917143D01*
X22957345Y-35850751D01*
X23053291Y-35706431D01*
X23097632Y-35750772D01*
X23150002Y-35698402D01*
X23150003Y-36688511D01*
X23074834Y-36613342D01*
X22896309Y-36494055D01*
X22697941Y-36411888D01*
X22487356Y-36370000D01*
X22272644Y-36370000D01*
X22062059Y-36411888D01*
X21863691Y-36494055D01*
X21685166Y-36613342D01*
X21533342Y-36765166D01*
X21425000Y-36927311D01*
X21425000Y-35451979D01*
X21449249Y-35497345D01*
X21593571Y-35593292D01*
X22266863Y-34920000D01*
X21593571Y-34246708D01*
X21449249Y-34342655D01*
X21425000Y-34391966D01*
X21425000Y-32911979D01*
X21449249Y-32957345D01*
X21593571Y-33053292D01*
X22266863Y-32380000D01*
X21593571Y-31706708D01*
X21449249Y-31802655D01*
X21425000Y-31851966D01*
X21425000Y-30372689D01*
X21533342Y-30534834D01*
G36*
X37805204Y-23824670D02*
G01*
X37983344Y-23878454D01*
X38147653Y-23965819D01*
X38291861Y-24083431D01*
X38410477Y-24226813D01*
X38498988Y-24390511D01*
X38554015Y-24568275D01*
X38575001Y-24767942D01*
X38575001Y-26767312D01*
X38466658Y-26605166D01*
X38314834Y-26453342D01*
X38136309Y-26334055D01*
X37937941Y-26251888D01*
X37727356Y-26210000D01*
X37512644Y-26210000D01*
X37302059Y-26251888D01*
X37103691Y-26334055D01*
X36925166Y-26453342D01*
X36773342Y-26605166D01*
X36654055Y-26783691D01*
X36571888Y-26982059D01*
X36530000Y-27192644D01*
X36530000Y-27407356D01*
X36571888Y-27617941D01*
X36622136Y-27739250D01*
X36302283Y-28059103D01*
X36285174Y-27977170D01*
X36228056Y-27842904D01*
X36145842Y-27722361D01*
X36041691Y-27620173D01*
X35919605Y-27540267D01*
X35769098Y-27485909D01*
X35655000Y-27524722D01*
X35655000Y-28520000D01*
X35675000Y-28520000D01*
X35675000Y-28680000D01*
X35655000Y-28680000D01*
X35655000Y-28700000D01*
X35495000Y-28700000D01*
X35495000Y-28680000D01*
X35475000Y-28680000D01*
X35475000Y-28520000D01*
X35495000Y-28520000D01*
X35495000Y-27524722D01*
X35380902Y-27485909D01*
X35230395Y-27540267D01*
X35108309Y-27620173D01*
X35004158Y-27722361D01*
X34921944Y-27842904D01*
X34887000Y-27925046D01*
X34887000Y-25474954D01*
X34921944Y-25557096D01*
X35004158Y-25677639D01*
X35108309Y-25779827D01*
X35230395Y-25859733D01*
X35380902Y-25914091D01*
X35495000Y-25875278D01*
X35495000Y-24680000D01*
X35655000Y-24680000D01*
X35655000Y-25875278D01*
X35769098Y-25914091D01*
X35919605Y-25859733D01*
X36041691Y-25779827D01*
X36145842Y-25677639D01*
X36228056Y-25557096D01*
X36285174Y-25422830D01*
X36315000Y-25280000D01*
X36315000Y-24680000D01*
X35655000Y-24680000D01*
X35495000Y-24680000D01*
X35475000Y-24680000D01*
X35475000Y-24520000D01*
X35495000Y-24520000D01*
X35495000Y-24500000D01*
X35655000Y-24500000D01*
X35655000Y-24520000D01*
X36315000Y-24520000D01*
X36315000Y-23920000D01*
X36290986Y-23805000D01*
X37604590Y-23805000D01*
X37805204Y-23824670D01*
G37*
X37805204Y-23824670D02*
X37983344Y-23878454D01*
X38147653Y-23965819D01*
X38291861Y-24083431D01*
X38410477Y-24226813D01*
X38498988Y-24390511D01*
X38554015Y-24568275D01*
X38575001Y-24767942D01*
X38575001Y-26767312D01*
X38466658Y-26605166D01*
X38314834Y-26453342D01*
X38136309Y-26334055D01*
X37937941Y-26251888D01*
X37727356Y-26210000D01*
X37512644Y-26210000D01*
X37302059Y-26251888D01*
X37103691Y-26334055D01*
X36925166Y-26453342D01*
X36773342Y-26605166D01*
X36654055Y-26783691D01*
X36571888Y-26982059D01*
X36530000Y-27192644D01*
X36530000Y-27407356D01*
X36571888Y-27617941D01*
X36622136Y-27739250D01*
X36302283Y-28059103D01*
X36285174Y-27977170D01*
X36228056Y-27842904D01*
X36145842Y-27722361D01*
X36041691Y-27620173D01*
X35919605Y-27540267D01*
X35769098Y-27485909D01*
X35655000Y-27524722D01*
X35655000Y-28520000D01*
X35675000Y-28520000D01*
X35675000Y-28680000D01*
X35655000Y-28680000D01*
X35655000Y-28700000D01*
X35495000Y-28700000D01*
X35495000Y-28680000D01*
X35475000Y-28680000D01*
X35475000Y-28520000D01*
X35495000Y-28520000D01*
X35495000Y-27524722D01*
X35380902Y-27485909D01*
X35230395Y-27540267D01*
X35108309Y-27620173D01*
X35004158Y-27722361D01*
X34921944Y-27842904D01*
X34887000Y-27925046D01*
X34887000Y-25474954D01*
X34921944Y-25557096D01*
X35004158Y-25677639D01*
X35108309Y-25779827D01*
X35230395Y-25859733D01*
X35380902Y-25914091D01*
X35495000Y-25875278D01*
X35495000Y-24680000D01*
X35655000Y-24680000D01*
X35655000Y-25875278D01*
X35769098Y-25914091D01*
X35919605Y-25859733D01*
X36041691Y-25779827D01*
X36145842Y-25677639D01*
X36228056Y-25557096D01*
X36285174Y-25422830D01*
X36315000Y-25280000D01*
X36315000Y-24680000D01*
X35655000Y-24680000D01*
X35495000Y-24680000D01*
X35475000Y-24680000D01*
X35475000Y-24520000D01*
X35495000Y-24520000D01*
X35495000Y-24500000D01*
X35655000Y-24500000D01*
X35655000Y-24520000D01*
X36315000Y-24520000D01*
X36315000Y-23920000D01*
X36290986Y-23805000D01*
X37604590Y-23805000D01*
X37805204Y-23824670D01*
D16*
G36*
X36216629Y-34412883D02*
G01*
X36144661Y-34696411D01*
X36129389Y-34988531D01*
X36171401Y-35278019D01*
X36269081Y-35553747D01*
X36342528Y-35691157D01*
X36591603Y-35768792D01*
X37440395Y-34920000D01*
X37426253Y-34905858D01*
X37605858Y-34726253D01*
X37620000Y-34740395D01*
X37634143Y-34726253D01*
X37813748Y-34905858D01*
X37799605Y-34920000D01*
X37813748Y-34934143D01*
X37634143Y-35113748D01*
X37620000Y-35099605D01*
X36771208Y-35948397D01*
X36848843Y-36197472D01*
X37112883Y-36323371D01*
X37286531Y-36367448D01*
X37081429Y-36452404D01*
X36943078Y-36544847D01*
X36926366Y-36460834D01*
X36885886Y-36363106D01*
X36827118Y-36275154D01*
X36752320Y-36200356D01*
X36664368Y-36141588D01*
X36566640Y-36101108D01*
X36462893Y-36080471D01*
X36357113Y-36080471D01*
X36253366Y-36101108D01*
X36155638Y-36141588D01*
X36080002Y-36192127D01*
X36004365Y-36141588D01*
X35906637Y-36101108D01*
X35802890Y-36080471D01*
X35697110Y-36080471D01*
X35593363Y-36101108D01*
X35495635Y-36141588D01*
X35407683Y-36200356D01*
X35332885Y-36275154D01*
X35274117Y-36363106D01*
X35233637Y-36460834D01*
X35213000Y-36564581D01*
X35213000Y-36670361D01*
X35233637Y-36774108D01*
X35274117Y-36871836D01*
X35332885Y-36959788D01*
X35385279Y-37012182D01*
X35388311Y-37042968D01*
X35409297Y-37112148D01*
X35443376Y-37175904D01*
X35489238Y-37231787D01*
X35503235Y-37243274D01*
X35722993Y-37463033D01*
X35722994Y-42807989D01*
X35267984Y-43263000D01*
X35197110Y-43263000D01*
X35102854Y-43281749D01*
X35102854Y-42006578D01*
X35152969Y-41956463D01*
X35211737Y-41868511D01*
X35252217Y-41770783D01*
X35272854Y-41667036D01*
X35272854Y-41561256D01*
X35252217Y-41457509D01*
X35211737Y-41359781D01*
X35152969Y-41271829D01*
X35078171Y-41197031D01*
X34990219Y-41138263D01*
X34892491Y-41097783D01*
X34788744Y-41077146D01*
X34682964Y-41077146D01*
X34579217Y-41097783D01*
X34481489Y-41138263D01*
X34393537Y-41197031D01*
X34318739Y-41271829D01*
X34259971Y-41359781D01*
X34219491Y-41457509D01*
X34198854Y-41561256D01*
X34198854Y-41667036D01*
X34219491Y-41770783D01*
X34259971Y-41868511D01*
X34318739Y-41956463D01*
X34368855Y-42006579D01*
X34368854Y-44029077D01*
X34368855Y-44029087D01*
X34368854Y-44642842D01*
X34367080Y-44660854D01*
X34368854Y-44678865D01*
X34368854Y-44678875D01*
X34374165Y-44732797D01*
X34395150Y-44801977D01*
X34429229Y-44865733D01*
X34475091Y-44921616D01*
X34489089Y-44933104D01*
X34673000Y-45117016D01*
X34673000Y-45274867D01*
X34646952Y-45280048D01*
X34549224Y-45320528D01*
X34461272Y-45379296D01*
X34386474Y-45454094D01*
X34327706Y-45542046D01*
X34287226Y-45639774D01*
X34266589Y-45743521D01*
X34266589Y-45849301D01*
X34287226Y-45953048D01*
X34327706Y-46050776D01*
X34386474Y-46138728D01*
X34436589Y-46188843D01*
X34436590Y-48044394D01*
X33897985Y-48583000D01*
X32921682Y-48583000D01*
X32415682Y-48077000D01*
X32657568Y-48077000D01*
X32707683Y-48127115D01*
X32795635Y-48185883D01*
X32893363Y-48226363D01*
X32997110Y-48247000D01*
X33102890Y-48247000D01*
X33206637Y-48226363D01*
X33304365Y-48185883D01*
X33392317Y-48127115D01*
X33467115Y-48052317D01*
X33525883Y-47964365D01*
X33566363Y-47866637D01*
X33587000Y-47762890D01*
X33587000Y-47657110D01*
X33566363Y-47553363D01*
X33525883Y-47455635D01*
X33467115Y-47367683D01*
X33392317Y-47292885D01*
X33304365Y-47234117D01*
X33206637Y-47193637D01*
X33102890Y-47173000D01*
X32997110Y-47173000D01*
X32893363Y-47193637D01*
X32795635Y-47234117D01*
X32707683Y-47292885D01*
X32657568Y-47343000D01*
X32134244Y-47343000D01*
X31574473Y-46783230D01*
X31562981Y-46769227D01*
X31507098Y-46723365D01*
X31443342Y-46689286D01*
X31374162Y-46668301D01*
X31320240Y-46662990D01*
X31320229Y-46662990D01*
X31302218Y-46661216D01*
X31284207Y-46662990D01*
X30488628Y-46662990D01*
X28220311Y-44394674D01*
X28220311Y-40796322D01*
X28222085Y-40778310D01*
X28220311Y-40760299D01*
X28220311Y-40760289D01*
X28215000Y-40706367D01*
X28194015Y-40637187D01*
X28159936Y-40573431D01*
X28114074Y-40517548D01*
X28100076Y-40506060D01*
X27815568Y-40221553D01*
X27804081Y-40207556D01*
X27790081Y-40196066D01*
X27748198Y-40161694D01*
X27684442Y-40127615D01*
X27615262Y-40106630D01*
X27543318Y-40099544D01*
X27525297Y-40101319D01*
X25960804Y-40101317D01*
X26206805Y-39855316D01*
X30568875Y-39855316D01*
X30586886Y-39857090D01*
X30604897Y-39855316D01*
X30604908Y-39855316D01*
X30658830Y-39850005D01*
X30728010Y-39829020D01*
X30791766Y-39794941D01*
X30847649Y-39749079D01*
X30859141Y-39735076D01*
X36248795Y-34345422D01*
X36216629Y-34412883D01*
G37*
X36216629Y-34412883D02*
X36144661Y-34696411D01*
X36129389Y-34988531D01*
X36171401Y-35278019D01*
X36269081Y-35553747D01*
X36342528Y-35691157D01*
X36591603Y-35768792D01*
X37440395Y-34920000D01*
X37426253Y-34905858D01*
X37605858Y-34726253D01*
X37620000Y-34740395D01*
X37634143Y-34726253D01*
X37813748Y-34905858D01*
X37799605Y-34920000D01*
X37813748Y-34934143D01*
X37634143Y-35113748D01*
X37620000Y-35099605D01*
X36771208Y-35948397D01*
X36848843Y-36197472D01*
X37112883Y-36323371D01*
X37286531Y-36367448D01*
X37081429Y-36452404D01*
X36943078Y-36544847D01*
X36926366Y-36460834D01*
X36885886Y-36363106D01*
X36827118Y-36275154D01*
X36752320Y-36200356D01*
X36664368Y-36141588D01*
X36566640Y-36101108D01*
X36462893Y-36080471D01*
X36357113Y-36080471D01*
X36253366Y-36101108D01*
X36155638Y-36141588D01*
X36080002Y-36192127D01*
X36004365Y-36141588D01*
X35906637Y-36101108D01*
X35802890Y-36080471D01*
X35697110Y-36080471D01*
X35593363Y-36101108D01*
X35495635Y-36141588D01*
X35407683Y-36200356D01*
X35332885Y-36275154D01*
X35274117Y-36363106D01*
X35233637Y-36460834D01*
X35213000Y-36564581D01*
X35213000Y-36670361D01*
X35233637Y-36774108D01*
X35274117Y-36871836D01*
X35332885Y-36959788D01*
X35385279Y-37012182D01*
X35388311Y-37042968D01*
X35409297Y-37112148D01*
X35443376Y-37175904D01*
X35489238Y-37231787D01*
X35503235Y-37243274D01*
X35722993Y-37463033D01*
X35722994Y-42807989D01*
X35267984Y-43263000D01*
X35197110Y-43263000D01*
X35102854Y-43281749D01*
X35102854Y-42006578D01*
X35152969Y-41956463D01*
X35211737Y-41868511D01*
X35252217Y-41770783D01*
X35272854Y-41667036D01*
X35272854Y-41561256D01*
X35252217Y-41457509D01*
X35211737Y-41359781D01*
X35152969Y-41271829D01*
X35078171Y-41197031D01*
X34990219Y-41138263D01*
X34892491Y-41097783D01*
X34788744Y-41077146D01*
X34682964Y-41077146D01*
X34579217Y-41097783D01*
X34481489Y-41138263D01*
X34393537Y-41197031D01*
X34318739Y-41271829D01*
X34259971Y-41359781D01*
X34219491Y-41457509D01*
X34198854Y-41561256D01*
X34198854Y-41667036D01*
X34219491Y-41770783D01*
X34259971Y-41868511D01*
X34318739Y-41956463D01*
X34368855Y-42006579D01*
X34368854Y-44029077D01*
X34368855Y-44029087D01*
X34368854Y-44642842D01*
X34367080Y-44660854D01*
X34368854Y-44678865D01*
X34368854Y-44678875D01*
X34374165Y-44732797D01*
X34395150Y-44801977D01*
X34429229Y-44865733D01*
X34475091Y-44921616D01*
X34489089Y-44933104D01*
X34673000Y-45117016D01*
X34673000Y-45274867D01*
X34646952Y-45280048D01*
X34549224Y-45320528D01*
X34461272Y-45379296D01*
X34386474Y-45454094D01*
X34327706Y-45542046D01*
X34287226Y-45639774D01*
X34266589Y-45743521D01*
X34266589Y-45849301D01*
X34287226Y-45953048D01*
X34327706Y-46050776D01*
X34386474Y-46138728D01*
X34436589Y-46188843D01*
X34436590Y-48044394D01*
X33897985Y-48583000D01*
X32921682Y-48583000D01*
X32415682Y-48077000D01*
X32657568Y-48077000D01*
X32707683Y-48127115D01*
X32795635Y-48185883D01*
X32893363Y-48226363D01*
X32997110Y-48247000D01*
X33102890Y-48247000D01*
X33206637Y-48226363D01*
X33304365Y-48185883D01*
X33392317Y-48127115D01*
X33467115Y-48052317D01*
X33525883Y-47964365D01*
X33566363Y-47866637D01*
X33587000Y-47762890D01*
X33587000Y-47657110D01*
X33566363Y-47553363D01*
X33525883Y-47455635D01*
X33467115Y-47367683D01*
X33392317Y-47292885D01*
X33304365Y-47234117D01*
X33206637Y-47193637D01*
X33102890Y-47173000D01*
X32997110Y-47173000D01*
X32893363Y-47193637D01*
X32795635Y-47234117D01*
X32707683Y-47292885D01*
X32657568Y-47343000D01*
X32134244Y-47343000D01*
X31574473Y-46783230D01*
X31562981Y-46769227D01*
X31507098Y-46723365D01*
X31443342Y-46689286D01*
X31374162Y-46668301D01*
X31320240Y-46662990D01*
X31320229Y-46662990D01*
X31302218Y-46661216D01*
X31284207Y-46662990D01*
X30488628Y-46662990D01*
X28220311Y-44394674D01*
X28220311Y-40796322D01*
X28222085Y-40778310D01*
X28220311Y-40760299D01*
X28220311Y-40760289D01*
X28215000Y-40706367D01*
X28194015Y-40637187D01*
X28159936Y-40573431D01*
X28114074Y-40517548D01*
X28100076Y-40506060D01*
X27815568Y-40221553D01*
X27804081Y-40207556D01*
X27790081Y-40196066D01*
X27748198Y-40161694D01*
X27684442Y-40127615D01*
X27615262Y-40106630D01*
X27543318Y-40099544D01*
X27525297Y-40101319D01*
X25960804Y-40101317D01*
X26206805Y-39855316D01*
X30568875Y-39855316D01*
X30586886Y-39857090D01*
X30604897Y-39855316D01*
X30604908Y-39855316D01*
X30658830Y-39850005D01*
X30728010Y-39829020D01*
X30791766Y-39794941D01*
X30847649Y-39749079D01*
X30859141Y-39735076D01*
X36248795Y-34345422D01*
X36216629Y-34412883D01*
M02*
