G04 #@! TF.GenerationSoftware,KiCad,Pcbnew,(5.1.6)-1*
G04 #@! TF.CreationDate,2020-09-28T23:28:44+08:00*
G04 #@! TF.ProjectId,Alvaro,416c7661-726f-42e6-9b69-6361645f7063,C*
G04 #@! TF.SameCoordinates,Original*
G04 #@! TF.FileFunction,Legend,Bot*
G04 #@! TF.FilePolarity,Positive*
%FSLAX46Y46*%
G04 Gerber Fmt 4.6, Leading zero omitted, Abs format (unit mm)*
G04 Created by KiCad (PCBNEW (5.1.6)-1) date 2020-09-28 23:28:44*
%MOMM*%
%LPD*%
G01*
G04 APERTURE LIST*
%ADD10C,0.080000*%
G04 APERTURE END LIST*
D10*
X32916666Y-37816666D02*
X32583333Y-37816666D01*
X32983333Y-38016666D02*
X32750000Y-37316666D01*
X32516666Y-38016666D01*
X32183333Y-38016666D02*
X32250000Y-37983333D01*
X32283333Y-37916666D01*
X32283333Y-37316666D01*
X31983333Y-37550000D02*
X31816666Y-38016666D01*
X31650000Y-37550000D01*
X31083333Y-38016666D02*
X31083333Y-37650000D01*
X31116666Y-37583333D01*
X31183333Y-37550000D01*
X31316666Y-37550000D01*
X31383333Y-37583333D01*
X31083333Y-37983333D02*
X31150000Y-38016666D01*
X31316666Y-38016666D01*
X31383333Y-37983333D01*
X31416666Y-37916666D01*
X31416666Y-37850000D01*
X31383333Y-37783333D01*
X31316666Y-37750000D01*
X31150000Y-37750000D01*
X31083333Y-37716666D01*
X30750000Y-38016666D02*
X30750000Y-37550000D01*
X30750000Y-37683333D02*
X30716666Y-37616666D01*
X30683333Y-37583333D01*
X30616666Y-37550000D01*
X30550000Y-37550000D01*
X30216666Y-38016666D02*
X30283333Y-37983333D01*
X30316666Y-37950000D01*
X30350000Y-37883333D01*
X30350000Y-37683333D01*
X30316666Y-37616666D01*
X30283333Y-37583333D01*
X30216666Y-37550000D01*
X30116666Y-37550000D01*
X30050000Y-37583333D01*
X30016666Y-37616666D01*
X29983333Y-37683333D01*
X29983333Y-37883333D01*
X30016666Y-37950000D01*
X30050000Y-37983333D01*
X30116666Y-38016666D01*
X30216666Y-38016666D01*
X29250000Y-37316666D02*
X29016666Y-38016666D01*
X28783333Y-37316666D01*
X28183333Y-38016666D02*
X28583333Y-38016666D01*
X28383333Y-38016666D02*
X28383333Y-37316666D01*
X28450000Y-37416666D01*
X28516666Y-37483333D01*
X28583333Y-37516666D01*
X27883333Y-37950000D02*
X27850000Y-37983333D01*
X27883333Y-38016666D01*
X27916666Y-37983333D01*
X27883333Y-37950000D01*
X27883333Y-38016666D01*
X27416666Y-37316666D02*
X27350000Y-37316666D01*
X27283333Y-37350000D01*
X27250000Y-37383333D01*
X27216666Y-37450000D01*
X27183333Y-37583333D01*
X27183333Y-37750000D01*
X27216666Y-37883333D01*
X27250000Y-37950000D01*
X27283333Y-37983333D01*
X27350000Y-38016666D01*
X27416666Y-38016666D01*
X27483333Y-37983333D01*
X27516666Y-37950000D01*
X27550000Y-37883333D01*
X27583333Y-37750000D01*
X27583333Y-37583333D01*
X27550000Y-37450000D01*
X27516666Y-37383333D01*
X27483333Y-37350000D01*
X27416666Y-37316666D01*
X34075000Y-47666666D02*
X34075000Y-46966666D01*
X33908333Y-46966666D01*
X33808333Y-47000000D01*
X33741666Y-47066666D01*
X33708333Y-47133333D01*
X33675000Y-47266666D01*
X33675000Y-47366666D01*
X33708333Y-47500000D01*
X33741666Y-47566666D01*
X33808333Y-47633333D01*
X33908333Y-47666666D01*
X34075000Y-47666666D01*
X33108333Y-47633333D02*
X33175000Y-47666666D01*
X33308333Y-47666666D01*
X33375000Y-47633333D01*
X33408333Y-47566666D01*
X33408333Y-47300000D01*
X33375000Y-47233333D01*
X33308333Y-47200000D01*
X33175000Y-47200000D01*
X33108333Y-47233333D01*
X33075000Y-47300000D01*
X33075000Y-47366666D01*
X33408333Y-47433333D01*
X32808333Y-47633333D02*
X32741666Y-47666666D01*
X32608333Y-47666666D01*
X32541666Y-47633333D01*
X32508333Y-47566666D01*
X32508333Y-47533333D01*
X32541666Y-47466666D01*
X32608333Y-47433333D01*
X32708333Y-47433333D01*
X32775000Y-47400000D01*
X32808333Y-47333333D01*
X32808333Y-47300000D01*
X32775000Y-47233333D01*
X32708333Y-47200000D01*
X32608333Y-47200000D01*
X32541666Y-47233333D01*
X32208333Y-47666666D02*
X32208333Y-47200000D01*
X32208333Y-46966666D02*
X32241666Y-47000000D01*
X32208333Y-47033333D01*
X32175000Y-47000000D01*
X32208333Y-46966666D01*
X32208333Y-47033333D01*
X31575000Y-47200000D02*
X31575000Y-47766666D01*
X31608333Y-47833333D01*
X31641666Y-47866666D01*
X31708333Y-47900000D01*
X31808333Y-47900000D01*
X31875000Y-47866666D01*
X31575000Y-47633333D02*
X31641666Y-47666666D01*
X31775000Y-47666666D01*
X31841666Y-47633333D01*
X31875000Y-47600000D01*
X31908333Y-47533333D01*
X31908333Y-47333333D01*
X31875000Y-47266666D01*
X31841666Y-47233333D01*
X31775000Y-47200000D01*
X31641666Y-47200000D01*
X31575000Y-47233333D01*
X31241666Y-47200000D02*
X31241666Y-47666666D01*
X31241666Y-47266666D02*
X31208333Y-47233333D01*
X31141666Y-47200000D01*
X31041666Y-47200000D01*
X30975000Y-47233333D01*
X30941666Y-47300000D01*
X30941666Y-47666666D01*
X30341666Y-47633333D02*
X30408333Y-47666666D01*
X30541666Y-47666666D01*
X30608333Y-47633333D01*
X30641666Y-47566666D01*
X30641666Y-47300000D01*
X30608333Y-47233333D01*
X30541666Y-47200000D01*
X30408333Y-47200000D01*
X30341666Y-47233333D01*
X30308333Y-47300000D01*
X30308333Y-47366666D01*
X30641666Y-47433333D01*
X29708333Y-47666666D02*
X29708333Y-46966666D01*
X29708333Y-47633333D02*
X29775000Y-47666666D01*
X29908333Y-47666666D01*
X29975000Y-47633333D01*
X30008333Y-47600000D01*
X30041666Y-47533333D01*
X30041666Y-47333333D01*
X30008333Y-47266666D01*
X29975000Y-47233333D01*
X29908333Y-47200000D01*
X29775000Y-47200000D01*
X29708333Y-47233333D01*
X28841666Y-47666666D02*
X28841666Y-46966666D01*
X28841666Y-47233333D02*
X28775000Y-47200000D01*
X28641666Y-47200000D01*
X28575000Y-47233333D01*
X28541666Y-47266666D01*
X28508333Y-47333333D01*
X28508333Y-47533333D01*
X28541666Y-47600000D01*
X28575000Y-47633333D01*
X28641666Y-47666666D01*
X28775000Y-47666666D01*
X28841666Y-47633333D01*
X28275000Y-47200000D02*
X28108333Y-47666666D01*
X27941666Y-47200000D02*
X28108333Y-47666666D01*
X28175000Y-47833333D01*
X28208333Y-47866666D01*
X28275000Y-47900000D01*
X27175000Y-47466666D02*
X26841666Y-47466666D01*
X27241666Y-47666666D02*
X27008333Y-46966666D01*
X26775000Y-47666666D01*
X26541666Y-47666666D02*
X26541666Y-47200000D01*
X26541666Y-47333333D02*
X26508333Y-47266666D01*
X26475000Y-47233333D01*
X26408333Y-47200000D01*
X26341666Y-47200000D01*
X26108333Y-47666666D02*
X26108333Y-47200000D01*
X26108333Y-46966666D02*
X26141666Y-47000000D01*
X26108333Y-47033333D01*
X26075000Y-47000000D01*
X26108333Y-46966666D01*
X26108333Y-47033333D01*
X25475000Y-47666666D02*
X25475000Y-47300000D01*
X25508333Y-47233333D01*
X25575000Y-47200000D01*
X25708333Y-47200000D01*
X25775000Y-47233333D01*
X25475000Y-47633333D02*
X25541666Y-47666666D01*
X25708333Y-47666666D01*
X25775000Y-47633333D01*
X25808333Y-47566666D01*
X25808333Y-47500000D01*
X25775000Y-47433333D01*
X25708333Y-47400000D01*
X25541666Y-47400000D01*
X25475000Y-47366666D01*
X22908333Y-30800000D02*
X22975000Y-30766666D01*
X23075000Y-30766666D01*
X23175000Y-30800000D01*
X23241666Y-30866666D01*
X23275000Y-30933333D01*
X23308333Y-31066666D01*
X23308333Y-31166666D01*
X23275000Y-31300000D01*
X23241666Y-31366666D01*
X23175000Y-31433333D01*
X23075000Y-31466666D01*
X23008333Y-31466666D01*
X22908333Y-31433333D01*
X22875000Y-31400000D01*
X22875000Y-31166666D01*
X23008333Y-31166666D01*
X22575000Y-31466666D02*
X22575000Y-30766666D01*
X22175000Y-31466666D01*
X22175000Y-30766666D01*
X21841666Y-31466666D02*
X21841666Y-30766666D01*
X21675000Y-30766666D01*
X21575000Y-30800000D01*
X21508333Y-30866666D01*
X21475000Y-30933333D01*
X21441666Y-31066666D01*
X21441666Y-31166666D01*
X21475000Y-31300000D01*
X21508333Y-31366666D01*
X21575000Y-31433333D01*
X21675000Y-31466666D01*
X21841666Y-31466666D01*
X37833333Y-43800000D02*
X38066666Y-43800000D01*
X38066666Y-44166666D02*
X38066666Y-43466666D01*
X37733333Y-43466666D01*
X37533333Y-43466666D02*
X37066666Y-43466666D01*
X37366666Y-44166666D01*
X30541666Y-31191666D02*
X30541666Y-30491666D01*
X30375000Y-30491666D01*
X30275000Y-30525000D01*
X30208333Y-30591666D01*
X30175000Y-30658333D01*
X30141666Y-30791666D01*
X30141666Y-30891666D01*
X30175000Y-31025000D01*
X30208333Y-31091666D01*
X30275000Y-31158333D01*
X30375000Y-31191666D01*
X30541666Y-31191666D01*
X29841666Y-30925000D02*
X29308333Y-30925000D01*
X27991666Y-31216666D02*
X27991666Y-30516666D01*
X27825000Y-30516666D01*
X27725000Y-30550000D01*
X27658333Y-30616666D01*
X27625000Y-30683333D01*
X27591666Y-30816666D01*
X27591666Y-30916666D01*
X27625000Y-31050000D01*
X27658333Y-31116666D01*
X27725000Y-31183333D01*
X27825000Y-31216666D01*
X27991666Y-31216666D01*
X27291666Y-30950000D02*
X26758333Y-30950000D01*
X27025000Y-31216666D02*
X27025000Y-30683333D01*
X22891666Y-26341666D02*
X22891666Y-25641666D01*
X22725000Y-25641666D01*
X22625000Y-25675000D01*
X22558333Y-25741666D01*
X22525000Y-25808333D01*
X22491666Y-25941666D01*
X22491666Y-26041666D01*
X22525000Y-26175000D01*
X22558333Y-26241666D01*
X22625000Y-26308333D01*
X22725000Y-26341666D01*
X22891666Y-26341666D01*
X22258333Y-25641666D02*
X21825000Y-25641666D01*
X22058333Y-25908333D01*
X21958333Y-25908333D01*
X21891666Y-25941666D01*
X21858333Y-25975000D01*
X21825000Y-26041666D01*
X21825000Y-26208333D01*
X21858333Y-26275000D01*
X21891666Y-26308333D01*
X21958333Y-26341666D01*
X22158333Y-26341666D01*
X22225000Y-26308333D01*
X22258333Y-26275000D01*
X22891666Y-28891666D02*
X22891666Y-28191666D01*
X22725000Y-28191666D01*
X22625000Y-28225000D01*
X22558333Y-28291666D01*
X22525000Y-28358333D01*
X22491666Y-28491666D01*
X22491666Y-28591666D01*
X22525000Y-28725000D01*
X22558333Y-28791666D01*
X22625000Y-28858333D01*
X22725000Y-28891666D01*
X22891666Y-28891666D01*
X22225000Y-28258333D02*
X22191666Y-28225000D01*
X22125000Y-28191666D01*
X21958333Y-28191666D01*
X21891666Y-28225000D01*
X21858333Y-28258333D01*
X21825000Y-28325000D01*
X21825000Y-28391666D01*
X21858333Y-28491666D01*
X22258333Y-28891666D01*
X21825000Y-28891666D01*
X22908333Y-33325000D02*
X22975000Y-33291666D01*
X23075000Y-33291666D01*
X23175000Y-33325000D01*
X23241666Y-33391666D01*
X23275000Y-33458333D01*
X23308333Y-33591666D01*
X23308333Y-33691666D01*
X23275000Y-33825000D01*
X23241666Y-33891666D01*
X23175000Y-33958333D01*
X23075000Y-33991666D01*
X23008333Y-33991666D01*
X22908333Y-33958333D01*
X22875000Y-33925000D01*
X22875000Y-33691666D01*
X23008333Y-33691666D01*
X22575000Y-33991666D02*
X22575000Y-33291666D01*
X22175000Y-33991666D01*
X22175000Y-33291666D01*
X21841666Y-33991666D02*
X21841666Y-33291666D01*
X21675000Y-33291666D01*
X21575000Y-33325000D01*
X21508333Y-33391666D01*
X21475000Y-33458333D01*
X21441666Y-33591666D01*
X21441666Y-33691666D01*
X21475000Y-33825000D01*
X21508333Y-33891666D01*
X21575000Y-33958333D01*
X21675000Y-33991666D01*
X21841666Y-33991666D01*
X22891666Y-36541666D02*
X22891666Y-35841666D01*
X22725000Y-35841666D01*
X22625000Y-35875000D01*
X22558333Y-35941666D01*
X22525000Y-36008333D01*
X22491666Y-36141666D01*
X22491666Y-36241666D01*
X22525000Y-36375000D01*
X22558333Y-36441666D01*
X22625000Y-36508333D01*
X22725000Y-36541666D01*
X22891666Y-36541666D01*
X21825000Y-36541666D02*
X22225000Y-36541666D01*
X22025000Y-36541666D02*
X22025000Y-35841666D01*
X22091666Y-35941666D01*
X22158333Y-36008333D01*
X22225000Y-36041666D01*
X22891666Y-39091666D02*
X22891666Y-38391666D01*
X22725000Y-38391666D01*
X22625000Y-38425000D01*
X22558333Y-38491666D01*
X22525000Y-38558333D01*
X22491666Y-38691666D01*
X22491666Y-38791666D01*
X22525000Y-38925000D01*
X22558333Y-38991666D01*
X22625000Y-39058333D01*
X22725000Y-39091666D01*
X22891666Y-39091666D01*
X22058333Y-38391666D02*
X21991666Y-38391666D01*
X21925000Y-38425000D01*
X21891666Y-38458333D01*
X21858333Y-38525000D01*
X21825000Y-38658333D01*
X21825000Y-38825000D01*
X21858333Y-38958333D01*
X21891666Y-39025000D01*
X21925000Y-39058333D01*
X21991666Y-39091666D01*
X22058333Y-39091666D01*
X22125000Y-39058333D01*
X22158333Y-39025000D01*
X22191666Y-38958333D01*
X22225000Y-38825000D01*
X22225000Y-38658333D01*
X22191666Y-38525000D01*
X22158333Y-38458333D01*
X22125000Y-38425000D01*
X22058333Y-38391666D01*
X22891666Y-41641666D02*
X22891666Y-40941666D01*
X22725000Y-40941666D01*
X22625000Y-40975000D01*
X22558333Y-41041666D01*
X22525000Y-41108333D01*
X22491666Y-41241666D01*
X22491666Y-41341666D01*
X22525000Y-41475000D01*
X22558333Y-41541666D01*
X22625000Y-41608333D01*
X22725000Y-41641666D01*
X22891666Y-41641666D01*
X21891666Y-41175000D02*
X21891666Y-41641666D01*
X22058333Y-40908333D02*
X22225000Y-41408333D01*
X21791666Y-41408333D01*
X22491666Y-44100000D02*
X22525000Y-44133333D01*
X22625000Y-44166666D01*
X22691666Y-44166666D01*
X22791666Y-44133333D01*
X22858333Y-44066666D01*
X22891666Y-44000000D01*
X22925000Y-43866666D01*
X22925000Y-43766666D01*
X22891666Y-43633333D01*
X22858333Y-43566666D01*
X22791666Y-43500000D01*
X22691666Y-43466666D01*
X22625000Y-43466666D01*
X22525000Y-43500000D01*
X22491666Y-43533333D01*
X21891666Y-43466666D02*
X22025000Y-43466666D01*
X22091666Y-43500000D01*
X22125000Y-43533333D01*
X22191666Y-43633333D01*
X22225000Y-43766666D01*
X22225000Y-44033333D01*
X22191666Y-44100000D01*
X22158333Y-44133333D01*
X22091666Y-44166666D01*
X21958333Y-44166666D01*
X21891666Y-44133333D01*
X21858333Y-44100000D01*
X21825000Y-44033333D01*
X21825000Y-43866666D01*
X21858333Y-43800000D01*
X21891666Y-43766666D01*
X21958333Y-43733333D01*
X22091666Y-43733333D01*
X22158333Y-43766666D01*
X22191666Y-43800000D01*
X22225000Y-43866666D01*
X22891666Y-46716666D02*
X22891666Y-46016666D01*
X22725000Y-46016666D01*
X22625000Y-46050000D01*
X22558333Y-46116666D01*
X22525000Y-46183333D01*
X22491666Y-46316666D01*
X22491666Y-46416666D01*
X22525000Y-46550000D01*
X22558333Y-46616666D01*
X22625000Y-46683333D01*
X22725000Y-46716666D01*
X22891666Y-46716666D01*
X22258333Y-46016666D02*
X21791666Y-46016666D01*
X22091666Y-46716666D01*
X22858333Y-48875000D02*
X22625000Y-48875000D01*
X22525000Y-49241666D02*
X22858333Y-49241666D01*
X22858333Y-48541666D01*
X22525000Y-48541666D01*
X21925000Y-48541666D02*
X22058333Y-48541666D01*
X22125000Y-48575000D01*
X22158333Y-48608333D01*
X22225000Y-48708333D01*
X22258333Y-48841666D01*
X22258333Y-49108333D01*
X22225000Y-49175000D01*
X22191666Y-49208333D01*
X22125000Y-49241666D01*
X21991666Y-49241666D01*
X21925000Y-49208333D01*
X21891666Y-49175000D01*
X21858333Y-49108333D01*
X21858333Y-48941666D01*
X21891666Y-48875000D01*
X21925000Y-48841666D01*
X21991666Y-48808333D01*
X22125000Y-48808333D01*
X22191666Y-48841666D01*
X22225000Y-48875000D01*
X22258333Y-48941666D01*
X22658333Y-51425000D02*
X22558333Y-51458333D01*
X22525000Y-51491666D01*
X22491666Y-51558333D01*
X22491666Y-51658333D01*
X22525000Y-51725000D01*
X22558333Y-51758333D01*
X22625000Y-51791666D01*
X22891666Y-51791666D01*
X22891666Y-51091666D01*
X22658333Y-51091666D01*
X22591666Y-51125000D01*
X22558333Y-51158333D01*
X22525000Y-51225000D01*
X22525000Y-51291666D01*
X22558333Y-51358333D01*
X22591666Y-51391666D01*
X22658333Y-51425000D01*
X22891666Y-51425000D01*
X21891666Y-51325000D02*
X21891666Y-51791666D01*
X22058333Y-51058333D02*
X22225000Y-51558333D01*
X21791666Y-51558333D01*
X22683333Y-53950000D02*
X22583333Y-53983333D01*
X22550000Y-54016666D01*
X22516666Y-54083333D01*
X22516666Y-54183333D01*
X22550000Y-54250000D01*
X22583333Y-54283333D01*
X22650000Y-54316666D01*
X22916666Y-54316666D01*
X22916666Y-53616666D01*
X22683333Y-53616666D01*
X22616666Y-53650000D01*
X22583333Y-53683333D01*
X22550000Y-53750000D01*
X22550000Y-53816666D01*
X22583333Y-53883333D01*
X22616666Y-53916666D01*
X22683333Y-53950000D01*
X22916666Y-53950000D01*
X21883333Y-53616666D02*
X22216666Y-53616666D01*
X22250000Y-53950000D01*
X22216666Y-53916666D01*
X22150000Y-53883333D01*
X21983333Y-53883333D01*
X21916666Y-53916666D01*
X21883333Y-53950000D01*
X21850000Y-54016666D01*
X21850000Y-54183333D01*
X21883333Y-54250000D01*
X21916666Y-54283333D01*
X21983333Y-54316666D01*
X22150000Y-54316666D01*
X22216666Y-54283333D01*
X22250000Y-54250000D01*
X25208333Y-53950000D02*
X25108333Y-53983333D01*
X25075000Y-54016666D01*
X25041666Y-54083333D01*
X25041666Y-54183333D01*
X25075000Y-54250000D01*
X25108333Y-54283333D01*
X25175000Y-54316666D01*
X25441666Y-54316666D01*
X25441666Y-53616666D01*
X25208333Y-53616666D01*
X25141666Y-53650000D01*
X25108333Y-53683333D01*
X25075000Y-53750000D01*
X25075000Y-53816666D01*
X25108333Y-53883333D01*
X25141666Y-53916666D01*
X25208333Y-53950000D01*
X25441666Y-53950000D01*
X24808333Y-53616666D02*
X24341666Y-53616666D01*
X24641666Y-54316666D01*
X27976666Y-54291666D02*
X27976666Y-53591666D01*
X27810000Y-53591666D01*
X27710000Y-53625000D01*
X27643333Y-53691666D01*
X27610000Y-53758333D01*
X27576666Y-53891666D01*
X27576666Y-53991666D01*
X27610000Y-54125000D01*
X27643333Y-54191666D01*
X27710000Y-54258333D01*
X27810000Y-54291666D01*
X27976666Y-54291666D01*
X26976666Y-53591666D02*
X27110000Y-53591666D01*
X27176666Y-53625000D01*
X27210000Y-53658333D01*
X27276666Y-53758333D01*
X27310000Y-53891666D01*
X27310000Y-54158333D01*
X27276666Y-54225000D01*
X27243333Y-54258333D01*
X27176666Y-54291666D01*
X27043333Y-54291666D01*
X26976666Y-54258333D01*
X26943333Y-54225000D01*
X26910000Y-54158333D01*
X26910000Y-53991666D01*
X26943333Y-53925000D01*
X26976666Y-53891666D01*
X27043333Y-53858333D01*
X27176666Y-53858333D01*
X27243333Y-53891666D01*
X27276666Y-53925000D01*
X27310000Y-53991666D01*
X30116666Y-54225000D02*
X30150000Y-54258333D01*
X30250000Y-54291666D01*
X30316666Y-54291666D01*
X30416666Y-54258333D01*
X30483333Y-54191666D01*
X30516666Y-54125000D01*
X30550000Y-53991666D01*
X30550000Y-53891666D01*
X30516666Y-53758333D01*
X30483333Y-53691666D01*
X30416666Y-53625000D01*
X30316666Y-53591666D01*
X30250000Y-53591666D01*
X30150000Y-53625000D01*
X30116666Y-53658333D01*
X29883333Y-53591666D02*
X29416666Y-53591666D01*
X29716666Y-54291666D01*
X32773333Y-53950000D02*
X33006666Y-53950000D01*
X33006666Y-54316666D02*
X33006666Y-53616666D01*
X32673333Y-53616666D01*
X32273333Y-53616666D02*
X32206666Y-53616666D01*
X32140000Y-53650000D01*
X32106666Y-53683333D01*
X32073333Y-53750000D01*
X32040000Y-53883333D01*
X32040000Y-54050000D01*
X32073333Y-54183333D01*
X32106666Y-54250000D01*
X32140000Y-54283333D01*
X32206666Y-54316666D01*
X32273333Y-54316666D01*
X32340000Y-54283333D01*
X32373333Y-54250000D01*
X32406666Y-54183333D01*
X32440000Y-54050000D01*
X32440000Y-53883333D01*
X32406666Y-53750000D01*
X32373333Y-53683333D01*
X32340000Y-53650000D01*
X32273333Y-53616666D01*
X35333333Y-53950000D02*
X35566666Y-53950000D01*
X35566666Y-54316666D02*
X35566666Y-53616666D01*
X35233333Y-53616666D01*
X34600000Y-54316666D02*
X35000000Y-54316666D01*
X34800000Y-54316666D02*
X34800000Y-53616666D01*
X34866666Y-53716666D01*
X34933333Y-53783333D01*
X35000000Y-53816666D01*
X37933333Y-53950000D02*
X37833333Y-53983333D01*
X37800000Y-54016666D01*
X37766666Y-54083333D01*
X37766666Y-54183333D01*
X37800000Y-54250000D01*
X37833333Y-54283333D01*
X37900000Y-54316666D01*
X38166666Y-54316666D01*
X38166666Y-53616666D01*
X37933333Y-53616666D01*
X37866666Y-53650000D01*
X37833333Y-53683333D01*
X37800000Y-53750000D01*
X37800000Y-53816666D01*
X37833333Y-53883333D01*
X37866666Y-53916666D01*
X37933333Y-53950000D01*
X38166666Y-53950000D01*
X37166666Y-53616666D02*
X37300000Y-53616666D01*
X37366666Y-53650000D01*
X37400000Y-53683333D01*
X37466666Y-53783333D01*
X37500000Y-53916666D01*
X37500000Y-54183333D01*
X37466666Y-54250000D01*
X37433333Y-54283333D01*
X37366666Y-54316666D01*
X37233333Y-54316666D01*
X37166666Y-54283333D01*
X37133333Y-54250000D01*
X37100000Y-54183333D01*
X37100000Y-54016666D01*
X37133333Y-53950000D01*
X37166666Y-53916666D01*
X37233333Y-53883333D01*
X37366666Y-53883333D01*
X37433333Y-53916666D01*
X37466666Y-53950000D01*
X37500000Y-54016666D01*
X37908333Y-51425000D02*
X37808333Y-51458333D01*
X37775000Y-51491666D01*
X37741666Y-51558333D01*
X37741666Y-51658333D01*
X37775000Y-51725000D01*
X37808333Y-51758333D01*
X37875000Y-51791666D01*
X38141666Y-51791666D01*
X38141666Y-51091666D01*
X37908333Y-51091666D01*
X37841666Y-51125000D01*
X37808333Y-51158333D01*
X37775000Y-51225000D01*
X37775000Y-51291666D01*
X37808333Y-51358333D01*
X37841666Y-51391666D01*
X37908333Y-51425000D01*
X38141666Y-51425000D01*
X37475000Y-51158333D02*
X37441666Y-51125000D01*
X37375000Y-51091666D01*
X37208333Y-51091666D01*
X37141666Y-51125000D01*
X37108333Y-51158333D01*
X37075000Y-51225000D01*
X37075000Y-51291666D01*
X37108333Y-51391666D01*
X37508333Y-51791666D01*
X37075000Y-51791666D01*
X37908333Y-48875000D02*
X37808333Y-48908333D01*
X37775000Y-48941666D01*
X37741666Y-49008333D01*
X37741666Y-49108333D01*
X37775000Y-49175000D01*
X37808333Y-49208333D01*
X37875000Y-49241666D01*
X38141666Y-49241666D01*
X38141666Y-48541666D01*
X37908333Y-48541666D01*
X37841666Y-48575000D01*
X37808333Y-48608333D01*
X37775000Y-48675000D01*
X37775000Y-48741666D01*
X37808333Y-48808333D01*
X37841666Y-48841666D01*
X37908333Y-48875000D01*
X38141666Y-48875000D01*
X37508333Y-48541666D02*
X37075000Y-48541666D01*
X37308333Y-48808333D01*
X37208333Y-48808333D01*
X37141666Y-48841666D01*
X37108333Y-48875000D01*
X37075000Y-48941666D01*
X37075000Y-49108333D01*
X37108333Y-49175000D01*
X37141666Y-49208333D01*
X37208333Y-49241666D01*
X37408333Y-49241666D01*
X37475000Y-49208333D01*
X37508333Y-49175000D01*
X37908333Y-46325000D02*
X37808333Y-46358333D01*
X37775000Y-46391666D01*
X37741666Y-46458333D01*
X37741666Y-46558333D01*
X37775000Y-46625000D01*
X37808333Y-46658333D01*
X37875000Y-46691666D01*
X38141666Y-46691666D01*
X38141666Y-45991666D01*
X37908333Y-45991666D01*
X37841666Y-46025000D01*
X37808333Y-46058333D01*
X37775000Y-46125000D01*
X37775000Y-46191666D01*
X37808333Y-46258333D01*
X37841666Y-46291666D01*
X37908333Y-46325000D01*
X38141666Y-46325000D01*
X37075000Y-46691666D02*
X37475000Y-46691666D01*
X37275000Y-46691666D02*
X37275000Y-45991666D01*
X37341666Y-46091666D01*
X37408333Y-46158333D01*
X37475000Y-46191666D01*
X37858333Y-41250000D02*
X38091666Y-41250000D01*
X38091666Y-41616666D02*
X38091666Y-40916666D01*
X37758333Y-40916666D01*
X37191666Y-40916666D02*
X37325000Y-40916666D01*
X37391666Y-40950000D01*
X37425000Y-40983333D01*
X37491666Y-41083333D01*
X37525000Y-41216666D01*
X37525000Y-41483333D01*
X37491666Y-41550000D01*
X37458333Y-41583333D01*
X37391666Y-41616666D01*
X37258333Y-41616666D01*
X37191666Y-41583333D01*
X37158333Y-41550000D01*
X37125000Y-41483333D01*
X37125000Y-41316666D01*
X37158333Y-41250000D01*
X37191666Y-41216666D01*
X37258333Y-41183333D01*
X37391666Y-41183333D01*
X37458333Y-41216666D01*
X37491666Y-41250000D01*
X37525000Y-41316666D01*
X37858333Y-38700000D02*
X38091666Y-38700000D01*
X38091666Y-39066666D02*
X38091666Y-38366666D01*
X37758333Y-38366666D01*
X37158333Y-38366666D02*
X37491666Y-38366666D01*
X37525000Y-38700000D01*
X37491666Y-38666666D01*
X37425000Y-38633333D01*
X37258333Y-38633333D01*
X37191666Y-38666666D01*
X37158333Y-38700000D01*
X37125000Y-38766666D01*
X37125000Y-38933333D01*
X37158333Y-39000000D01*
X37191666Y-39033333D01*
X37258333Y-39066666D01*
X37425000Y-39066666D01*
X37491666Y-39033333D01*
X37525000Y-39000000D01*
X37858333Y-36175000D02*
X38091666Y-36175000D01*
X38091666Y-36541666D02*
X38091666Y-35841666D01*
X37758333Y-35841666D01*
X37191666Y-36075000D02*
X37191666Y-36541666D01*
X37358333Y-35808333D02*
X37525000Y-36308333D01*
X37091666Y-36308333D01*
X38583333Y-33291666D02*
X38350000Y-33991666D01*
X38116666Y-33291666D01*
X37483333Y-33925000D02*
X37516666Y-33958333D01*
X37616666Y-33991666D01*
X37683333Y-33991666D01*
X37783333Y-33958333D01*
X37850000Y-33891666D01*
X37883333Y-33825000D01*
X37916666Y-33691666D01*
X37916666Y-33591666D01*
X37883333Y-33458333D01*
X37850000Y-33391666D01*
X37783333Y-33325000D01*
X37683333Y-33291666D01*
X37616666Y-33291666D01*
X37516666Y-33325000D01*
X37483333Y-33358333D01*
X36783333Y-33925000D02*
X36816666Y-33958333D01*
X36916666Y-33991666D01*
X36983333Y-33991666D01*
X37083333Y-33958333D01*
X37150000Y-33891666D01*
X37183333Y-33825000D01*
X37216666Y-33691666D01*
X37216666Y-33591666D01*
X37183333Y-33458333D01*
X37150000Y-33391666D01*
X37083333Y-33325000D01*
X36983333Y-33291666D01*
X36916666Y-33291666D01*
X36816666Y-33325000D01*
X36783333Y-33358333D01*
X38033333Y-31441666D02*
X38266666Y-31108333D01*
X38433333Y-31441666D02*
X38433333Y-30741666D01*
X38166666Y-30741666D01*
X38100000Y-30775000D01*
X38066666Y-30808333D01*
X38033333Y-30875000D01*
X38033333Y-30975000D01*
X38066666Y-31041666D01*
X38100000Y-31075000D01*
X38166666Y-31108333D01*
X38433333Y-31108333D01*
X37766666Y-31408333D02*
X37666666Y-31441666D01*
X37500000Y-31441666D01*
X37433333Y-31408333D01*
X37400000Y-31375000D01*
X37366666Y-31308333D01*
X37366666Y-31241666D01*
X37400000Y-31175000D01*
X37433333Y-31141666D01*
X37500000Y-31108333D01*
X37633333Y-31075000D01*
X37700000Y-31041666D01*
X37733333Y-31008333D01*
X37766666Y-30941666D01*
X37766666Y-30875000D01*
X37733333Y-30808333D01*
X37700000Y-30775000D01*
X37633333Y-30741666D01*
X37466666Y-30741666D01*
X37366666Y-30775000D01*
X37166666Y-30741666D02*
X36766666Y-30741666D01*
X36966666Y-31441666D02*
X36966666Y-30741666D01*
X38183333Y-28250000D02*
X38250000Y-28216666D01*
X38350000Y-28216666D01*
X38450000Y-28250000D01*
X38516666Y-28316666D01*
X38550000Y-28383333D01*
X38583333Y-28516666D01*
X38583333Y-28616666D01*
X38550000Y-28750000D01*
X38516666Y-28816666D01*
X38450000Y-28883333D01*
X38350000Y-28916666D01*
X38283333Y-28916666D01*
X38183333Y-28883333D01*
X38150000Y-28850000D01*
X38150000Y-28616666D01*
X38283333Y-28616666D01*
X37850000Y-28916666D02*
X37850000Y-28216666D01*
X37450000Y-28916666D01*
X37450000Y-28216666D01*
X37116666Y-28916666D02*
X37116666Y-28216666D01*
X36950000Y-28216666D01*
X36850000Y-28250000D01*
X36783333Y-28316666D01*
X36750000Y-28383333D01*
X36716666Y-28516666D01*
X36716666Y-28616666D01*
X36750000Y-28750000D01*
X36783333Y-28816666D01*
X36850000Y-28883333D01*
X36950000Y-28916666D01*
X37116666Y-28916666D01*
X38103333Y-26316666D02*
X38336666Y-25983333D01*
X38503333Y-26316666D02*
X38503333Y-25616666D01*
X38236666Y-25616666D01*
X38170000Y-25650000D01*
X38136666Y-25683333D01*
X38103333Y-25750000D01*
X38103333Y-25850000D01*
X38136666Y-25916666D01*
X38170000Y-25950000D01*
X38236666Y-25983333D01*
X38503333Y-25983333D01*
X37836666Y-26116666D02*
X37503333Y-26116666D01*
X37903333Y-26316666D02*
X37670000Y-25616666D01*
X37436666Y-26316666D01*
X37270000Y-25616666D02*
X37103333Y-26316666D01*
X36970000Y-25816666D01*
X36836666Y-26316666D01*
X36670000Y-25616666D01*
G36*
X27424808Y-43958035D02*
G01*
X27417388Y-44013769D01*
X27414095Y-44098644D01*
X27414000Y-44117916D01*
X27416084Y-44199217D01*
X27421645Y-44261398D01*
X27429646Y-44294743D01*
X27433186Y-44297833D01*
X27444169Y-44314655D01*
X27441487Y-44339453D01*
X27439850Y-44386442D01*
X27449007Y-44454175D01*
X27465417Y-44527017D01*
X27485542Y-44589330D01*
X27505843Y-44625481D01*
X27506325Y-44625916D01*
X27529191Y-44664437D01*
X27533380Y-44684262D01*
X27546191Y-44727380D01*
X27575978Y-44790635D01*
X27616924Y-44864636D01*
X27663214Y-44939997D01*
X27709029Y-45007327D01*
X27748555Y-45057239D01*
X27775974Y-45080343D01*
X27779121Y-45080930D01*
X27796428Y-45085070D01*
X27806695Y-45102623D01*
X27811095Y-45141409D01*
X27810801Y-45209246D01*
X27808484Y-45276791D01*
X27808746Y-45484081D01*
X27824622Y-45687312D01*
X27854681Y-45872510D01*
X27879706Y-45971798D01*
X27928165Y-46088585D01*
X27998356Y-46198086D01*
X28081188Y-46288155D01*
X28156206Y-46341126D01*
X28232685Y-46364927D01*
X28320211Y-46369792D01*
X28398359Y-46355424D01*
X28421180Y-46344958D01*
X28519646Y-46273822D01*
X28596681Y-46183356D01*
X28636932Y-46116336D01*
X28674805Y-46034270D01*
X28710692Y-45935823D01*
X28740749Y-45834199D01*
X28761137Y-45742601D01*
X28765557Y-45698646D01*
X28676467Y-45698646D01*
X28671968Y-45780369D01*
X28662418Y-45844714D01*
X28662090Y-45846100D01*
X28611744Y-46004124D01*
X28543645Y-46139230D01*
X28462320Y-46242698D01*
X28450383Y-46253940D01*
X28373440Y-46309899D01*
X28302303Y-46328191D01*
X28227942Y-46309004D01*
X28151188Y-46260143D01*
X28054861Y-46160534D01*
X27979514Y-46024366D01*
X27925223Y-45851891D01*
X27892066Y-45643363D01*
X27880121Y-45399035D01*
X27880090Y-45374934D01*
X27884470Y-45252670D01*
X27895973Y-45125451D01*
X27912979Y-45004081D01*
X27933867Y-44899364D01*
X27957017Y-44822105D01*
X27965994Y-44802336D01*
X28001994Y-44758234D01*
X28063582Y-44703856D01*
X28138670Y-44648236D01*
X28215173Y-44600405D01*
X28274608Y-44571723D01*
X28331943Y-44558770D01*
X28378494Y-44572305D01*
X28420608Y-44616961D01*
X28464632Y-44697368D01*
X28473723Y-44717040D01*
X28510419Y-44811167D01*
X28546511Y-44926363D01*
X28578702Y-45049363D01*
X28603696Y-45166901D01*
X28618194Y-45265711D01*
X28620500Y-45307550D01*
X28625617Y-45354788D01*
X28638103Y-45377073D01*
X28639767Y-45377333D01*
X28653422Y-45396814D01*
X28664393Y-45448628D01*
X28672206Y-45522832D01*
X28676389Y-45609486D01*
X28676467Y-45698646D01*
X28765557Y-45698646D01*
X28768013Y-45674231D01*
X28767658Y-45666995D01*
X28766264Y-45624267D01*
X28777029Y-45606213D01*
X28809000Y-45609810D01*
X28871225Y-45632036D01*
X28871738Y-45632230D01*
X28935827Y-45651804D01*
X29028123Y-45673959D01*
X29134878Y-45695605D01*
X29215696Y-45709572D01*
X29336298Y-45724346D01*
X29483003Y-45735480D01*
X29647148Y-45742958D01*
X29820070Y-45746764D01*
X29993108Y-45746879D01*
X30157599Y-45743288D01*
X30304879Y-45735974D01*
X30426288Y-45724920D01*
X30504910Y-45712071D01*
X30643069Y-45680812D01*
X30701433Y-45834739D01*
X30779677Y-46006337D01*
X30871281Y-46140174D01*
X30979489Y-46239598D01*
X31107546Y-46307955D01*
X31184015Y-46332586D01*
X31249733Y-46346418D01*
X31298138Y-46343523D01*
X31351653Y-46321772D01*
X31363932Y-46315496D01*
X31425105Y-46273681D01*
X31473917Y-46223355D01*
X31481852Y-46211352D01*
X31521171Y-46122165D01*
X31555888Y-46003800D01*
X31583229Y-45869373D01*
X31600420Y-45731997D01*
X31605000Y-45629073D01*
X31605000Y-45518518D01*
X31538293Y-45518518D01*
X31535933Y-45618280D01*
X31534944Y-45641916D01*
X31523828Y-45793631D01*
X31503392Y-45921354D01*
X31470759Y-46042935D01*
X31469795Y-46045948D01*
X31424902Y-46165424D01*
X31376858Y-46245413D01*
X31320601Y-46288715D01*
X31251072Y-46298132D01*
X31163211Y-46276468D01*
X31100801Y-46250276D01*
X31017566Y-46200125D01*
X30944393Y-46129003D01*
X30877946Y-46031859D01*
X30814889Y-45903641D01*
X30751889Y-45739297D01*
X30739463Y-45703015D01*
X30657270Y-45429199D01*
X30605318Y-45184947D01*
X30583606Y-44970195D01*
X30592132Y-44784883D01*
X30630896Y-44628948D01*
X30699898Y-44502330D01*
X30726578Y-44469960D01*
X30820497Y-44389278D01*
X30916671Y-44350473D01*
X31012287Y-44353393D01*
X31104530Y-44397885D01*
X31190587Y-44483798D01*
X31199360Y-44495504D01*
X31287542Y-44624215D01*
X31354965Y-44743943D01*
X31407773Y-44868530D01*
X31452106Y-45011816D01*
X31481558Y-45131398D01*
X31508601Y-45254434D01*
X31526094Y-45350618D01*
X31535502Y-45433972D01*
X31538293Y-45518518D01*
X31605000Y-45518518D01*
X31605000Y-45444286D01*
X31684375Y-45395299D01*
X31791144Y-45318594D01*
X31889588Y-45228418D01*
X31965589Y-45138004D01*
X31976710Y-45121284D01*
X32089204Y-44930399D01*
X32181751Y-44747100D01*
X32250438Y-44579618D01*
X32280892Y-44481394D01*
X32309025Y-44347572D01*
X32321339Y-44228040D01*
X32318307Y-44128356D01*
X32300403Y-44054075D01*
X32268100Y-44010753D01*
X32240000Y-44001838D01*
X32235662Y-44021432D01*
X32232092Y-44074731D01*
X32229711Y-44153107D01*
X32228942Y-44229056D01*
X32225939Y-44350818D01*
X32215404Y-44454156D01*
X32194210Y-44549521D01*
X32159227Y-44647360D01*
X32107326Y-44758123D01*
X32035380Y-44892259D01*
X32024555Y-44911666D01*
X31964121Y-45010684D01*
X31895573Y-45108489D01*
X31824182Y-45199080D01*
X31755220Y-45276455D01*
X31693960Y-45334615D01*
X31645674Y-45367557D01*
X31620283Y-45371844D01*
X31606123Y-45348684D01*
X31589346Y-45294123D01*
X31573026Y-45218709D01*
X31569083Y-45196055D01*
X31534409Y-45034048D01*
X31486928Y-44881031D01*
X31431145Y-44750451D01*
X31402934Y-44700000D01*
X31364320Y-44635997D01*
X31319522Y-44559290D01*
X31300497Y-44525937D01*
X31226117Y-44429225D01*
X31154646Y-44374554D01*
X31055635Y-44325974D01*
X30972204Y-44307146D01*
X30891263Y-44316672D01*
X30828433Y-44339748D01*
X30728811Y-44391960D01*
X30655518Y-44452835D01*
X30602112Y-44531254D01*
X30562150Y-44636098D01*
X30535966Y-44742894D01*
X30515495Y-44858179D01*
X30507065Y-44962258D01*
X30511306Y-45067286D01*
X30528844Y-45185423D01*
X30560309Y-45328824D01*
X30567834Y-45359610D01*
X30592017Y-45458414D01*
X30611960Y-45541838D01*
X30625706Y-45601554D01*
X30631297Y-45629234D01*
X30631334Y-45629841D01*
X30611262Y-45641569D01*
X30555159Y-45655659D01*
X30469197Y-45671126D01*
X30359545Y-45686986D01*
X30232374Y-45702255D01*
X30093854Y-45715950D01*
X30088359Y-45716434D01*
X29983770Y-45724505D01*
X29893249Y-45728194D01*
X29805216Y-45727089D01*
X29708089Y-45720778D01*
X29590287Y-45708850D01*
X29468727Y-45694415D01*
X29243655Y-45663518D01*
X29060758Y-45631360D01*
X28919895Y-45597904D01*
X28820923Y-45563108D01*
X28763702Y-45526934D01*
X28747772Y-45493862D01*
X28743682Y-45453094D01*
X28732642Y-45384871D01*
X28716925Y-45303054D01*
X28714767Y-45292666D01*
X28694829Y-45197170D01*
X28674938Y-45101294D01*
X28659871Y-45028083D01*
X28614247Y-44847423D01*
X28557916Y-44703137D01*
X28488791Y-44590152D01*
X28470563Y-44567708D01*
X28419440Y-44514698D01*
X28373449Y-44478267D01*
X28346839Y-44467166D01*
X28293518Y-44480127D01*
X28222541Y-44514715D01*
X28142510Y-44564492D01*
X28062028Y-44623016D01*
X27989697Y-44683848D01*
X27934119Y-44740547D01*
X27903898Y-44786674D01*
X27900834Y-44801060D01*
X27894574Y-44836657D01*
X27878604Y-44895808D01*
X27866782Y-44933735D01*
X27845530Y-44993623D01*
X27828781Y-45020003D01*
X27809480Y-45020092D01*
X27792542Y-45009693D01*
X27766387Y-44979629D01*
X27727769Y-44920893D01*
X27682605Y-44842948D01*
X27650539Y-44782564D01*
X27569029Y-44595400D01*
X27509384Y-44399773D01*
X27475820Y-44210747D01*
X27470627Y-44139977D01*
X27464841Y-44082834D01*
X27454443Y-44048396D01*
X27448748Y-44043833D01*
X27439678Y-44026484D01*
X27443859Y-43990916D01*
X27446839Y-43950782D01*
X27435570Y-43938000D01*
X27424808Y-43958035D01*
G37*
X27424808Y-43958035D02*
X27417388Y-44013769D01*
X27414095Y-44098644D01*
X27414000Y-44117916D01*
X27416084Y-44199217D01*
X27421645Y-44261398D01*
X27429646Y-44294743D01*
X27433186Y-44297833D01*
X27444169Y-44314655D01*
X27441487Y-44339453D01*
X27439850Y-44386442D01*
X27449007Y-44454175D01*
X27465417Y-44527017D01*
X27485542Y-44589330D01*
X27505843Y-44625481D01*
X27506325Y-44625916D01*
X27529191Y-44664437D01*
X27533380Y-44684262D01*
X27546191Y-44727380D01*
X27575978Y-44790635D01*
X27616924Y-44864636D01*
X27663214Y-44939997D01*
X27709029Y-45007327D01*
X27748555Y-45057239D01*
X27775974Y-45080343D01*
X27779121Y-45080930D01*
X27796428Y-45085070D01*
X27806695Y-45102623D01*
X27811095Y-45141409D01*
X27810801Y-45209246D01*
X27808484Y-45276791D01*
X27808746Y-45484081D01*
X27824622Y-45687312D01*
X27854681Y-45872510D01*
X27879706Y-45971798D01*
X27928165Y-46088585D01*
X27998356Y-46198086D01*
X28081188Y-46288155D01*
X28156206Y-46341126D01*
X28232685Y-46364927D01*
X28320211Y-46369792D01*
X28398359Y-46355424D01*
X28421180Y-46344958D01*
X28519646Y-46273822D01*
X28596681Y-46183356D01*
X28636932Y-46116336D01*
X28674805Y-46034270D01*
X28710692Y-45935823D01*
X28740749Y-45834199D01*
X28761137Y-45742601D01*
X28765557Y-45698646D01*
X28676467Y-45698646D01*
X28671968Y-45780369D01*
X28662418Y-45844714D01*
X28662090Y-45846100D01*
X28611744Y-46004124D01*
X28543645Y-46139230D01*
X28462320Y-46242698D01*
X28450383Y-46253940D01*
X28373440Y-46309899D01*
X28302303Y-46328191D01*
X28227942Y-46309004D01*
X28151188Y-46260143D01*
X28054861Y-46160534D01*
X27979514Y-46024366D01*
X27925223Y-45851891D01*
X27892066Y-45643363D01*
X27880121Y-45399035D01*
X27880090Y-45374934D01*
X27884470Y-45252670D01*
X27895973Y-45125451D01*
X27912979Y-45004081D01*
X27933867Y-44899364D01*
X27957017Y-44822105D01*
X27965994Y-44802336D01*
X28001994Y-44758234D01*
X28063582Y-44703856D01*
X28138670Y-44648236D01*
X28215173Y-44600405D01*
X28274608Y-44571723D01*
X28331943Y-44558770D01*
X28378494Y-44572305D01*
X28420608Y-44616961D01*
X28464632Y-44697368D01*
X28473723Y-44717040D01*
X28510419Y-44811167D01*
X28546511Y-44926363D01*
X28578702Y-45049363D01*
X28603696Y-45166901D01*
X28618194Y-45265711D01*
X28620500Y-45307550D01*
X28625617Y-45354788D01*
X28638103Y-45377073D01*
X28639767Y-45377333D01*
X28653422Y-45396814D01*
X28664393Y-45448628D01*
X28672206Y-45522832D01*
X28676389Y-45609486D01*
X28676467Y-45698646D01*
X28765557Y-45698646D01*
X28768013Y-45674231D01*
X28767658Y-45666995D01*
X28766264Y-45624267D01*
X28777029Y-45606213D01*
X28809000Y-45609810D01*
X28871225Y-45632036D01*
X28871738Y-45632230D01*
X28935827Y-45651804D01*
X29028123Y-45673959D01*
X29134878Y-45695605D01*
X29215696Y-45709572D01*
X29336298Y-45724346D01*
X29483003Y-45735480D01*
X29647148Y-45742958D01*
X29820070Y-45746764D01*
X29993108Y-45746879D01*
X30157599Y-45743288D01*
X30304879Y-45735974D01*
X30426288Y-45724920D01*
X30504910Y-45712071D01*
X30643069Y-45680812D01*
X30701433Y-45834739D01*
X30779677Y-46006337D01*
X30871281Y-46140174D01*
X30979489Y-46239598D01*
X31107546Y-46307955D01*
X31184015Y-46332586D01*
X31249733Y-46346418D01*
X31298138Y-46343523D01*
X31351653Y-46321772D01*
X31363932Y-46315496D01*
X31425105Y-46273681D01*
X31473917Y-46223355D01*
X31481852Y-46211352D01*
X31521171Y-46122165D01*
X31555888Y-46003800D01*
X31583229Y-45869373D01*
X31600420Y-45731997D01*
X31605000Y-45629073D01*
X31605000Y-45518518D01*
X31538293Y-45518518D01*
X31535933Y-45618280D01*
X31534944Y-45641916D01*
X31523828Y-45793631D01*
X31503392Y-45921354D01*
X31470759Y-46042935D01*
X31469795Y-46045948D01*
X31424902Y-46165424D01*
X31376858Y-46245413D01*
X31320601Y-46288715D01*
X31251072Y-46298132D01*
X31163211Y-46276468D01*
X31100801Y-46250276D01*
X31017566Y-46200125D01*
X30944393Y-46129003D01*
X30877946Y-46031859D01*
X30814889Y-45903641D01*
X30751889Y-45739297D01*
X30739463Y-45703015D01*
X30657270Y-45429199D01*
X30605318Y-45184947D01*
X30583606Y-44970195D01*
X30592132Y-44784883D01*
X30630896Y-44628948D01*
X30699898Y-44502330D01*
X30726578Y-44469960D01*
X30820497Y-44389278D01*
X30916671Y-44350473D01*
X31012287Y-44353393D01*
X31104530Y-44397885D01*
X31190587Y-44483798D01*
X31199360Y-44495504D01*
X31287542Y-44624215D01*
X31354965Y-44743943D01*
X31407773Y-44868530D01*
X31452106Y-45011816D01*
X31481558Y-45131398D01*
X31508601Y-45254434D01*
X31526094Y-45350618D01*
X31535502Y-45433972D01*
X31538293Y-45518518D01*
X31605000Y-45518518D01*
X31605000Y-45444286D01*
X31684375Y-45395299D01*
X31791144Y-45318594D01*
X31889588Y-45228418D01*
X31965589Y-45138004D01*
X31976710Y-45121284D01*
X32089204Y-44930399D01*
X32181751Y-44747100D01*
X32250438Y-44579618D01*
X32280892Y-44481394D01*
X32309025Y-44347572D01*
X32321339Y-44228040D01*
X32318307Y-44128356D01*
X32300403Y-44054075D01*
X32268100Y-44010753D01*
X32240000Y-44001838D01*
X32235662Y-44021432D01*
X32232092Y-44074731D01*
X32229711Y-44153107D01*
X32228942Y-44229056D01*
X32225939Y-44350818D01*
X32215404Y-44454156D01*
X32194210Y-44549521D01*
X32159227Y-44647360D01*
X32107326Y-44758123D01*
X32035380Y-44892259D01*
X32024555Y-44911666D01*
X31964121Y-45010684D01*
X31895573Y-45108489D01*
X31824182Y-45199080D01*
X31755220Y-45276455D01*
X31693960Y-45334615D01*
X31645674Y-45367557D01*
X31620283Y-45371844D01*
X31606123Y-45348684D01*
X31589346Y-45294123D01*
X31573026Y-45218709D01*
X31569083Y-45196055D01*
X31534409Y-45034048D01*
X31486928Y-44881031D01*
X31431145Y-44750451D01*
X31402934Y-44700000D01*
X31364320Y-44635997D01*
X31319522Y-44559290D01*
X31300497Y-44525937D01*
X31226117Y-44429225D01*
X31154646Y-44374554D01*
X31055635Y-44325974D01*
X30972204Y-44307146D01*
X30891263Y-44316672D01*
X30828433Y-44339748D01*
X30728811Y-44391960D01*
X30655518Y-44452835D01*
X30602112Y-44531254D01*
X30562150Y-44636098D01*
X30535966Y-44742894D01*
X30515495Y-44858179D01*
X30507065Y-44962258D01*
X30511306Y-45067286D01*
X30528844Y-45185423D01*
X30560309Y-45328824D01*
X30567834Y-45359610D01*
X30592017Y-45458414D01*
X30611960Y-45541838D01*
X30625706Y-45601554D01*
X30631297Y-45629234D01*
X30631334Y-45629841D01*
X30611262Y-45641569D01*
X30555159Y-45655659D01*
X30469197Y-45671126D01*
X30359545Y-45686986D01*
X30232374Y-45702255D01*
X30093854Y-45715950D01*
X30088359Y-45716434D01*
X29983770Y-45724505D01*
X29893249Y-45728194D01*
X29805216Y-45727089D01*
X29708089Y-45720778D01*
X29590287Y-45708850D01*
X29468727Y-45694415D01*
X29243655Y-45663518D01*
X29060758Y-45631360D01*
X28919895Y-45597904D01*
X28820923Y-45563108D01*
X28763702Y-45526934D01*
X28747772Y-45493862D01*
X28743682Y-45453094D01*
X28732642Y-45384871D01*
X28716925Y-45303054D01*
X28714767Y-45292666D01*
X28694829Y-45197170D01*
X28674938Y-45101294D01*
X28659871Y-45028083D01*
X28614247Y-44847423D01*
X28557916Y-44703137D01*
X28488791Y-44590152D01*
X28470563Y-44567708D01*
X28419440Y-44514698D01*
X28373449Y-44478267D01*
X28346839Y-44467166D01*
X28293518Y-44480127D01*
X28222541Y-44514715D01*
X28142510Y-44564492D01*
X28062028Y-44623016D01*
X27989697Y-44683848D01*
X27934119Y-44740547D01*
X27903898Y-44786674D01*
X27900834Y-44801060D01*
X27894574Y-44836657D01*
X27878604Y-44895808D01*
X27866782Y-44933735D01*
X27845530Y-44993623D01*
X27828781Y-45020003D01*
X27809480Y-45020092D01*
X27792542Y-45009693D01*
X27766387Y-44979629D01*
X27727769Y-44920893D01*
X27682605Y-44842948D01*
X27650539Y-44782564D01*
X27569029Y-44595400D01*
X27509384Y-44399773D01*
X27475820Y-44210747D01*
X27470627Y-44139977D01*
X27464841Y-44082834D01*
X27454443Y-44048396D01*
X27448748Y-44043833D01*
X27439678Y-44026484D01*
X27443859Y-43990916D01*
X27446839Y-43950782D01*
X27435570Y-43938000D01*
X27424808Y-43958035D01*
G36*
X32222522Y-43933776D02*
G01*
X32218834Y-43948583D01*
X32235777Y-43976645D01*
X32250584Y-43980333D01*
X32278646Y-43963390D01*
X32282334Y-43948583D01*
X32265391Y-43920521D01*
X32250584Y-43916833D01*
X32222522Y-43933776D01*
G37*
X32222522Y-43933776D02*
X32218834Y-43948583D01*
X32235777Y-43976645D01*
X32250584Y-43980333D01*
X32278646Y-43963390D01*
X32282334Y-43948583D01*
X32265391Y-43920521D01*
X32250584Y-43916833D01*
X32222522Y-43933776D01*
G36*
X32184335Y-38892473D02*
G01*
X32176500Y-38912479D01*
X32167412Y-38943983D01*
X32142761Y-39004028D01*
X32106467Y-39083572D01*
X32068677Y-39161187D01*
X31987629Y-39312975D01*
X31904428Y-39444932D01*
X31807596Y-39574146D01*
X31725437Y-39672255D01*
X31652744Y-39756260D01*
X31418187Y-39634390D01*
X31206340Y-39537061D01*
X30978757Y-39455312D01*
X30742472Y-39390209D01*
X30504517Y-39342817D01*
X30271927Y-39314204D01*
X30051734Y-39305435D01*
X29850974Y-39317576D01*
X29676679Y-39351694D01*
X29636500Y-39364318D01*
X29592999Y-39378468D01*
X29521402Y-39400923D01*
X29434156Y-39427798D01*
X29393084Y-39440305D01*
X29235599Y-39492295D01*
X29086642Y-39549362D01*
X28954768Y-39607768D01*
X28848527Y-39663772D01*
X28785783Y-39705879D01*
X28733064Y-39743120D01*
X28689959Y-39765380D01*
X28677592Y-39768166D01*
X28652581Y-39752227D01*
X28609869Y-39709374D01*
X28556485Y-39647054D01*
X28522893Y-39604254D01*
X28447732Y-39507980D01*
X28361469Y-39401341D01*
X28280481Y-39304514D01*
X28265959Y-39287643D01*
X28208723Y-39219248D01*
X28163955Y-39161316D01*
X28137839Y-39122086D01*
X28133667Y-39111416D01*
X28116268Y-39095522D01*
X28088270Y-39094652D01*
X28054944Y-39112251D01*
X28024192Y-39159028D01*
X27999606Y-39217833D01*
X27965251Y-39297549D01*
X27918097Y-39391203D01*
X27872303Y-39471833D01*
X27769802Y-39641702D01*
X27690559Y-39777585D01*
X27634709Y-39879237D01*
X27602387Y-39946413D01*
X27593725Y-39978867D01*
X27594366Y-39980559D01*
X27591127Y-40008321D01*
X27569349Y-40056327D01*
X27555692Y-40079587D01*
X27511984Y-40160439D01*
X27463935Y-40267220D01*
X27417742Y-40384861D01*
X27379603Y-40498291D01*
X27370406Y-40530166D01*
X27358937Y-40591838D01*
X27348927Y-40681925D01*
X27341707Y-40786509D01*
X27339093Y-40857743D01*
X27333925Y-41090069D01*
X27135838Y-41126540D01*
X27055894Y-41143147D01*
X26967376Y-41164567D01*
X26876586Y-41188831D01*
X26789829Y-41213968D01*
X26713410Y-41238007D01*
X26653634Y-41258978D01*
X26616804Y-41274909D01*
X26609226Y-41283830D01*
X26630834Y-41284399D01*
X26683879Y-41276041D01*
X26764150Y-41259058D01*
X26858159Y-41236415D01*
X26906000Y-41223923D01*
X27003592Y-41198613D01*
X27095815Y-41176245D01*
X27168360Y-41160228D01*
X27191750Y-41155836D01*
X27255125Y-41144222D01*
X27304604Y-41133353D01*
X27311547Y-41131468D01*
X27340559Y-41137131D01*
X27364678Y-41177457D01*
X27371865Y-41197515D01*
X27386319Y-41248234D01*
X27390572Y-41278284D01*
X27389652Y-41280776D01*
X27367798Y-41291950D01*
X27317926Y-41314360D01*
X27255250Y-41341277D01*
X27159947Y-41382921D01*
X27057779Y-41430003D01*
X26954493Y-41479563D01*
X26855833Y-41528638D01*
X26767543Y-41574268D01*
X26695367Y-41613491D01*
X26645052Y-41643347D01*
X26622340Y-41660875D01*
X26629615Y-41663772D01*
X26675914Y-41649912D01*
X26750195Y-41620887D01*
X26842724Y-41580761D01*
X26943769Y-41533595D01*
X26957699Y-41526828D01*
X27117965Y-41449593D01*
X27241587Y-41392282D01*
X27329134Y-41354645D01*
X27381176Y-41336428D01*
X27393154Y-41334500D01*
X27415707Y-41351695D01*
X27424845Y-41389351D01*
X27416203Y-41426574D01*
X27413246Y-41430658D01*
X27385996Y-41454469D01*
X27333077Y-41494189D01*
X27264267Y-41542578D01*
X27238256Y-41560212D01*
X27139180Y-41627631D01*
X27031395Y-41702509D01*
X26921545Y-41780062D01*
X26816273Y-41855508D01*
X26722223Y-41924064D01*
X26646039Y-41980948D01*
X26594366Y-42021376D01*
X26578505Y-42035146D01*
X26548600Y-42067917D01*
X26549025Y-42078584D01*
X26575727Y-42069739D01*
X26624654Y-42043976D01*
X26691752Y-42003887D01*
X26772970Y-41952065D01*
X26864256Y-41891104D01*
X26961555Y-41823596D01*
X27060816Y-41752134D01*
X27157986Y-41679311D01*
X27249012Y-41607720D01*
X27258156Y-41600293D01*
X27305082Y-41565949D01*
X27339899Y-41547289D01*
X27345522Y-41546166D01*
X27375237Y-41531582D01*
X27392834Y-41514416D01*
X27427075Y-41490795D01*
X27466706Y-41483183D01*
X27494541Y-41493134D01*
X27498667Y-41504850D01*
X27513765Y-41552539D01*
X27554106Y-41617989D01*
X27612256Y-41692044D01*
X27680785Y-41765547D01*
X27752261Y-41829343D01*
X27777383Y-41848241D01*
X27886589Y-41921322D01*
X27986910Y-41980323D01*
X28073232Y-42022994D01*
X28140441Y-42047083D01*
X28183421Y-42050339D01*
X28197167Y-42033000D01*
X28214311Y-42014221D01*
X28228917Y-42011833D01*
X28255423Y-42017469D01*
X28253584Y-42037551D01*
X28221547Y-42076841D01*
X28191875Y-42106896D01*
X28147224Y-42161102D01*
X28087095Y-42250173D01*
X28013630Y-42370484D01*
X27928973Y-42518407D01*
X27835267Y-42690316D01*
X27742632Y-42867074D01*
X27696972Y-42964363D01*
X27649584Y-43080420D01*
X27602380Y-43208755D01*
X27557270Y-43342877D01*
X27516165Y-43476296D01*
X27480974Y-43602522D01*
X27453608Y-43715063D01*
X27435978Y-43807428D01*
X27429994Y-43873128D01*
X27437077Y-43905191D01*
X27452169Y-43905646D01*
X27456334Y-43878733D01*
X27455592Y-43835643D01*
X27454526Y-43818658D01*
X27468074Y-43797087D01*
X27479337Y-43788698D01*
X27503579Y-43758535D01*
X27526946Y-43707114D01*
X27528770Y-43701664D01*
X27546274Y-43659015D01*
X27571980Y-43636140D01*
X27619396Y-43624457D01*
X27657417Y-43619924D01*
X27744102Y-43598043D01*
X27843262Y-43554139D01*
X27938452Y-43497102D01*
X28013228Y-43435824D01*
X28027834Y-43419644D01*
X28059139Y-43391528D01*
X28116518Y-43348358D01*
X28190076Y-43297401D01*
X28229802Y-43271292D01*
X28313701Y-43212782D01*
X28391417Y-43150951D01*
X28450282Y-43096146D01*
X28465501Y-43078776D01*
X28515652Y-43010203D01*
X28567824Y-42930366D01*
X28616296Y-42849142D01*
X28655353Y-42776403D01*
X28679274Y-42722025D01*
X28684000Y-42701480D01*
X28685915Y-42684876D01*
X28620500Y-42684876D01*
X28604644Y-42753721D01*
X28561148Y-42840232D01*
X28496128Y-42936525D01*
X28415695Y-43034713D01*
X28325964Y-43126911D01*
X28233047Y-43205232D01*
X28198097Y-43229767D01*
X28113432Y-43288450D01*
X28027804Y-43352485D01*
X27959546Y-43408155D01*
X27958725Y-43408876D01*
X27860201Y-43483496D01*
X27758267Y-43539872D01*
X27664539Y-43572226D01*
X27619416Y-43577701D01*
X27581472Y-43575086D01*
X27567812Y-43558345D01*
X27571532Y-43515368D01*
X27574425Y-43498791D01*
X27596536Y-43408070D01*
X27632711Y-43296538D01*
X27679240Y-43172633D01*
X27732412Y-43044786D01*
X27788516Y-42921435D01*
X27843843Y-42811013D01*
X27894682Y-42721955D01*
X27937322Y-42662696D01*
X27946258Y-42653533D01*
X27996063Y-42618287D01*
X28072561Y-42576076D01*
X28162259Y-42533252D01*
X28251666Y-42496166D01*
X28327291Y-42471171D01*
X28340311Y-42468019D01*
X28417699Y-42470160D01*
X28495565Y-42503031D01*
X28562673Y-42557935D01*
X28607790Y-42626177D01*
X28620500Y-42684876D01*
X28685915Y-42684876D01*
X28686639Y-42678608D01*
X28698702Y-42672078D01*
X28726410Y-42684438D01*
X28775981Y-42718238D01*
X28839030Y-42765037D01*
X28966614Y-42849421D01*
X29120356Y-42933258D01*
X29284648Y-43009073D01*
X29443884Y-43069394D01*
X29525222Y-43093669D01*
X29642434Y-43115864D01*
X29789545Y-43130760D01*
X29954711Y-43138097D01*
X30126086Y-43137612D01*
X30291826Y-43129045D01*
X30430250Y-43113636D01*
X30577027Y-43086170D01*
X30740820Y-43046431D01*
X30906542Y-42998735D01*
X31059104Y-42947396D01*
X31174518Y-42900814D01*
X31245100Y-42869739D01*
X31300392Y-42847113D01*
X31329390Y-42837419D01*
X31330406Y-42837333D01*
X31344158Y-42855857D01*
X31358136Y-42901705D01*
X31360827Y-42914828D01*
X31371324Y-42947806D01*
X31393547Y-42986923D01*
X31431289Y-43036785D01*
X31488344Y-43101998D01*
X31568505Y-43187167D01*
X31675391Y-43296720D01*
X31781999Y-43403926D01*
X31864652Y-43484337D01*
X31928296Y-43542097D01*
X31977874Y-43581347D01*
X32018329Y-43606230D01*
X32054605Y-43620889D01*
X32066069Y-43624079D01*
X32130101Y-43646084D01*
X32169462Y-43679456D01*
X32193545Y-43735644D01*
X32206424Y-43795125D01*
X32220347Y-43846032D01*
X32236986Y-43873137D01*
X32240960Y-43874500D01*
X32255990Y-43855194D01*
X32259994Y-43801171D01*
X32254073Y-43718274D01*
X32239327Y-43612346D01*
X32222655Y-43520997D01*
X32195763Y-43520997D01*
X32190681Y-43544675D01*
X32178476Y-43586053D01*
X32176500Y-43601064D01*
X32163357Y-43619448D01*
X32125327Y-43605747D01*
X32086058Y-43578166D01*
X32043248Y-43548717D01*
X32013913Y-43535854D01*
X32013284Y-43535833D01*
X31993072Y-43521554D01*
X31949437Y-43482639D01*
X31888296Y-43424969D01*
X31815565Y-43354428D01*
X31737158Y-43276896D01*
X31658992Y-43198257D01*
X31586982Y-43124392D01*
X31527045Y-43061184D01*
X31485096Y-43014515D01*
X31470449Y-42996083D01*
X31444870Y-42944777D01*
X31425943Y-42884212D01*
X31420419Y-42839196D01*
X31432123Y-42803706D01*
X31467758Y-42762993D01*
X31490874Y-42741337D01*
X31545823Y-42698723D01*
X31596154Y-42672270D01*
X31615897Y-42668000D01*
X31655455Y-42680213D01*
X31714418Y-42712092D01*
X31774334Y-42752666D01*
X31837744Y-42796121D01*
X31892184Y-42826666D01*
X31924021Y-42837333D01*
X31945372Y-42849031D01*
X31970017Y-42887388D01*
X32000481Y-42957292D01*
X32036034Y-43054291D01*
X32069303Y-43153398D01*
X32098338Y-43246987D01*
X32119277Y-43322226D01*
X32126841Y-43355916D01*
X32136967Y-43406973D01*
X32144842Y-43420317D01*
X32154611Y-43400082D01*
X32158662Y-43387666D01*
X32166815Y-43371423D01*
X32167739Y-43395466D01*
X32163771Y-43437551D01*
X32159081Y-43499005D01*
X32164204Y-43525351D01*
X32178462Y-43524037D01*
X32195763Y-43520997D01*
X32222655Y-43520997D01*
X32216856Y-43489228D01*
X32187762Y-43354764D01*
X32153146Y-43214795D01*
X32114108Y-43075165D01*
X32071748Y-42941715D01*
X32057516Y-42900833D01*
X32015350Y-42782961D01*
X31938750Y-42782961D01*
X31926590Y-42791394D01*
X31891083Y-42772085D01*
X31840880Y-42734562D01*
X31782389Y-42691452D01*
X31729111Y-42656516D01*
X31715674Y-42648909D01*
X31667597Y-42623693D01*
X31729313Y-42571763D01*
X31774587Y-42537964D01*
X31807967Y-42520493D01*
X31812100Y-42519833D01*
X31832249Y-42537788D01*
X31861129Y-42584081D01*
X31892766Y-42647352D01*
X31921186Y-42716239D01*
X31931749Y-42747375D01*
X31938750Y-42782961D01*
X32015350Y-42782961D01*
X32010126Y-42768359D01*
X31974420Y-42670308D01*
X31947944Y-42601198D01*
X31928240Y-42555549D01*
X31912853Y-42527881D01*
X31899328Y-42512713D01*
X31885207Y-42504567D01*
X31878800Y-42502030D01*
X31865601Y-42491112D01*
X31868544Y-42469672D01*
X31890805Y-42431803D01*
X31935562Y-42371599D01*
X31977376Y-42318750D01*
X32037751Y-42247433D01*
X32092200Y-42190488D01*
X32133406Y-42155185D01*
X32150002Y-42147258D01*
X32203365Y-42143873D01*
X32231080Y-42141967D01*
X32308107Y-42117860D01*
X32394138Y-42059219D01*
X32484082Y-41971430D01*
X32572849Y-41859876D01*
X32655349Y-41729943D01*
X32698934Y-41647028D01*
X32735018Y-41578281D01*
X32766642Y-41527570D01*
X32787792Y-41504362D01*
X32789878Y-41503833D01*
X32801408Y-41506281D01*
X32820321Y-41515819D01*
X32851376Y-41535738D01*
X32899334Y-41569329D01*
X32968953Y-41619883D01*
X33064994Y-41690691D01*
X33132613Y-41740804D01*
X33301738Y-41870893D01*
X33443788Y-41991294D01*
X33569370Y-42111605D01*
X33689092Y-42241427D01*
X33701105Y-42255250D01*
X33750053Y-42308288D01*
X33789377Y-42344454D01*
X33810071Y-42355791D01*
X33826862Y-42366192D01*
X33827500Y-42371666D01*
X33843681Y-42392133D01*
X33849211Y-42392833D01*
X33857544Y-42378091D01*
X33841641Y-42338315D01*
X33805314Y-42280175D01*
X33752376Y-42210344D01*
X33728988Y-42182467D01*
X33671691Y-42123053D01*
X33587684Y-42045123D01*
X33484561Y-41954966D01*
X33369916Y-41858871D01*
X33251343Y-41763127D01*
X33136436Y-41674024D01*
X33032790Y-41597851D01*
X32976019Y-41558886D01*
X32889120Y-41497466D01*
X32833170Y-41448958D01*
X32810050Y-41415501D01*
X32821646Y-41399235D01*
X32834382Y-41398000D01*
X32867923Y-41407924D01*
X32927247Y-41434039D01*
X33001774Y-41470858D01*
X33080926Y-41512897D01*
X33154122Y-41554667D01*
X33210784Y-41590684D01*
X33222846Y-41599447D01*
X33272075Y-41632745D01*
X33309731Y-41650883D01*
X33316207Y-41652000D01*
X33339336Y-41666023D01*
X33340667Y-41672763D01*
X33358610Y-41692899D01*
X33392878Y-41706630D01*
X33430332Y-41722041D01*
X33440503Y-41736421D01*
X33452120Y-41760607D01*
X33487616Y-41802198D01*
X33537604Y-41852415D01*
X33592696Y-41902481D01*
X33643505Y-41943618D01*
X33680644Y-41967049D01*
X33689772Y-41969500D01*
X33708465Y-41958460D01*
X33696430Y-41927865D01*
X33658258Y-41881502D01*
X33598537Y-41823157D01*
X33521857Y-41756618D01*
X33432807Y-41685669D01*
X33335976Y-41614099D01*
X33235954Y-41545694D01*
X33137331Y-41484241D01*
X33044696Y-41433525D01*
X33033443Y-41427972D01*
X32950948Y-41386506D01*
X32914664Y-41366873D01*
X32740845Y-41366873D01*
X32740158Y-41374616D01*
X32712208Y-41376083D01*
X32669128Y-41367443D01*
X32651880Y-41354258D01*
X32643750Y-41327837D01*
X32667256Y-41327919D01*
X32705699Y-41346065D01*
X32740845Y-41366873D01*
X32914664Y-41366873D01*
X32884890Y-41350763D01*
X32843191Y-41325188D01*
X32832667Y-41315279D01*
X32844065Y-41288388D01*
X32863401Y-41259170D01*
X32884516Y-41234615D01*
X32906155Y-41229673D01*
X32942617Y-41244675D01*
X32974526Y-41261740D01*
X33110372Y-41335813D01*
X33215243Y-41393827D01*
X33295584Y-41439518D01*
X33357839Y-41476625D01*
X33408452Y-41508886D01*
X33451841Y-41538605D01*
X33512972Y-41577354D01*
X33565179Y-41602792D01*
X33589424Y-41608785D01*
X33605910Y-41598847D01*
X33587747Y-41572117D01*
X33538154Y-41530729D01*
X33460351Y-41476816D01*
X33357556Y-41412512D01*
X33232989Y-41339950D01*
X33089867Y-41261265D01*
X32970891Y-41198796D01*
X32908032Y-41166423D01*
X32905437Y-40906503D01*
X32903973Y-40871434D01*
X32834664Y-40871434D01*
X32834521Y-40979929D01*
X32828505Y-41050610D01*
X32811254Y-41087991D01*
X32777405Y-41096587D01*
X32721597Y-41080914D01*
X32638466Y-41045486D01*
X32631584Y-41042427D01*
X32530582Y-41003326D01*
X32430091Y-40974446D01*
X32338839Y-40957238D01*
X32265552Y-40953153D01*
X32218959Y-40963640D01*
X32209702Y-40972317D01*
X32216835Y-40987510D01*
X32263138Y-40994915D01*
X32301911Y-40995833D01*
X32379746Y-41003392D01*
X32471107Y-41027989D01*
X32586370Y-41072502D01*
X32601492Y-41078970D01*
X32684012Y-41115015D01*
X32750766Y-41145054D01*
X32792963Y-41165083D01*
X32803011Y-41170788D01*
X32802630Y-41194461D01*
X32790225Y-41240881D01*
X32787907Y-41247697D01*
X32764543Y-41294624D01*
X32737259Y-41304957D01*
X32729936Y-41302808D01*
X32676810Y-41284617D01*
X32598835Y-41260587D01*
X32505735Y-41233409D01*
X32407231Y-41205775D01*
X32313048Y-41180373D01*
X32232907Y-41159897D01*
X32176533Y-41147035D01*
X32156071Y-41144000D01*
X32117945Y-41149776D01*
X32115304Y-41163606D01*
X32143445Y-41180243D01*
X32197662Y-41194437D01*
X32201909Y-41195139D01*
X32262570Y-41207865D01*
X32305848Y-41222342D01*
X32313034Y-41226523D01*
X32347919Y-41245127D01*
X32399356Y-41265194D01*
X32440813Y-41283599D01*
X32499893Y-41315069D01*
X32566187Y-41353346D01*
X32629285Y-41392172D01*
X32678778Y-41425288D01*
X32704255Y-41446436D01*
X32705667Y-41449350D01*
X32698020Y-41471076D01*
X32677713Y-41521903D01*
X32648703Y-41591994D01*
X32639977Y-41612741D01*
X32552360Y-41785604D01*
X32449312Y-41928189D01*
X32334764Y-42035242D01*
X32312096Y-42051085D01*
X32244761Y-42093747D01*
X32203173Y-42113029D01*
X32179053Y-42110734D01*
X32164122Y-42088669D01*
X32162169Y-42083780D01*
X32165072Y-42045929D01*
X32177832Y-42032176D01*
X32187033Y-42014877D01*
X32174929Y-41982157D01*
X32138545Y-41927819D01*
X32109180Y-41889140D01*
X32057911Y-41821267D01*
X32014741Y-41760805D01*
X32000560Y-41738829D01*
X31846871Y-41738829D01*
X31841673Y-41758068D01*
X31818767Y-41791739D01*
X31774915Y-41846818D01*
X31731681Y-41899814D01*
X31712730Y-41935948D01*
X31710834Y-41947439D01*
X31695264Y-41968712D01*
X31689667Y-41969500D01*
X31669340Y-41985792D01*
X31668500Y-41992078D01*
X31656674Y-42023873D01*
X31627869Y-42067643D01*
X31592095Y-42111119D01*
X31559360Y-42142028D01*
X31540608Y-42148865D01*
X31515939Y-42153557D01*
X31507943Y-42162925D01*
X31505092Y-42177770D01*
X31517063Y-42172604D01*
X31538915Y-42169807D01*
X31541500Y-42176841D01*
X31526674Y-42202086D01*
X31489254Y-42241257D01*
X31439832Y-42285407D01*
X31389000Y-42325591D01*
X31347349Y-42352863D01*
X31326101Y-42358776D01*
X31312557Y-42360702D01*
X31313434Y-42366367D01*
X31302433Y-42389937D01*
X31267972Y-42432078D01*
X31226029Y-42475249D01*
X31168304Y-42526680D01*
X31126365Y-42551179D01*
X31089122Y-42554522D01*
X31077862Y-42552416D01*
X31044839Y-42547865D01*
X31049799Y-42557692D01*
X31050638Y-42558261D01*
X31062882Y-42577154D01*
X31039781Y-42600845D01*
X31029472Y-42607600D01*
X30969047Y-42640804D01*
X30889808Y-42678081D01*
X30805526Y-42713648D01*
X30729971Y-42741721D01*
X30676916Y-42756519D01*
X30673667Y-42757009D01*
X30616285Y-42774676D01*
X30568416Y-42800663D01*
X30511482Y-42828493D01*
X30462582Y-42838821D01*
X30402490Y-42847328D01*
X30366750Y-42858355D01*
X30313590Y-42868375D01*
X30227424Y-42869965D01*
X30116606Y-42863741D01*
X29989486Y-42850318D01*
X29854414Y-42830312D01*
X29766309Y-42814070D01*
X29643516Y-42789432D01*
X29556663Y-42771566D01*
X29500166Y-42758997D01*
X29468443Y-42750249D01*
X29455911Y-42743847D01*
X29456987Y-42738315D01*
X29463200Y-42733952D01*
X29457984Y-42725968D01*
X29420221Y-42721039D01*
X29396354Y-42720354D01*
X29300482Y-42704272D01*
X29190202Y-42660973D01*
X29077609Y-42596254D01*
X28980334Y-42520947D01*
X28933253Y-42476325D01*
X28905308Y-42445310D01*
X28902049Y-42435195D01*
X28899737Y-42422901D01*
X28876943Y-42397265D01*
X28464642Y-42397265D01*
X28447109Y-42422644D01*
X28392113Y-42434521D01*
X28369776Y-42435166D01*
X28306968Y-42443321D01*
X28226162Y-42464412D01*
X28164650Y-42486213D01*
X28080695Y-42519269D01*
X28029676Y-42535218D01*
X28005562Y-42533497D01*
X28002321Y-42513540D01*
X28013923Y-42474786D01*
X28014832Y-42472208D01*
X28041671Y-42414344D01*
X28082747Y-42344041D01*
X28106796Y-42308166D01*
X28151839Y-42244646D01*
X28191966Y-42187939D01*
X28207946Y-42165291D01*
X28249091Y-42125069D01*
X28287989Y-42126243D01*
X28326238Y-42169192D01*
X28341176Y-42197041D01*
X28371050Y-42244895D01*
X28399617Y-42269399D01*
X28407440Y-42270259D01*
X28425891Y-42278507D01*
X28422913Y-42296105D01*
X28426335Y-42335390D01*
X28442833Y-42360308D01*
X28464642Y-42397265D01*
X28876943Y-42397265D01*
X28872683Y-42392474D01*
X28863088Y-42383335D01*
X28829827Y-42343635D01*
X28819805Y-42312485D01*
X28821237Y-42308727D01*
X28821540Y-42291531D01*
X28813373Y-42291767D01*
X28793114Y-42277582D01*
X28758996Y-42234751D01*
X28717550Y-42171726D01*
X28706971Y-42154079D01*
X28670289Y-42089222D01*
X28647047Y-42042995D01*
X28640960Y-42023005D01*
X28643089Y-42023295D01*
X28674952Y-42031625D01*
X28732886Y-42038529D01*
X28768750Y-42040841D01*
X28823733Y-42041128D01*
X28851818Y-42036671D01*
X28851210Y-42031687D01*
X28850660Y-42016276D01*
X28892055Y-41996789D01*
X28938000Y-41982897D01*
X28960416Y-41969874D01*
X29003188Y-41940997D01*
X29017551Y-41930859D01*
X29065984Y-41886499D01*
X29073334Y-41851672D01*
X29039538Y-41826310D01*
X28964534Y-41810342D01*
X28906548Y-41805584D01*
X28782577Y-41807012D01*
X28688504Y-41825143D01*
X28628106Y-41858906D01*
X28608267Y-41890032D01*
X28597011Y-41917974D01*
X28584657Y-41913765D01*
X28562619Y-41875034D01*
X28540071Y-41811411D01*
X28529691Y-41747250D01*
X28345334Y-41747250D01*
X28334750Y-41757833D01*
X28324167Y-41747250D01*
X28334750Y-41736666D01*
X28345334Y-41747250D01*
X28529691Y-41747250D01*
X28528398Y-41739258D01*
X28528238Y-41735735D01*
X28523011Y-41687186D01*
X28521577Y-41683750D01*
X28387667Y-41683750D01*
X28377084Y-41694333D01*
X28366500Y-41683750D01*
X28377084Y-41673166D01*
X28387667Y-41683750D01*
X28521577Y-41683750D01*
X28513720Y-41664930D01*
X28510838Y-41665104D01*
X28488475Y-41659193D01*
X28483362Y-41652719D01*
X28498439Y-41644274D01*
X28554611Y-41637965D01*
X28650687Y-41633862D01*
X28785480Y-41632033D01*
X28842013Y-41631944D01*
X29213728Y-41632306D01*
X29203661Y-41687824D01*
X29185570Y-41793214D01*
X29176470Y-41863686D01*
X29176128Y-41905637D01*
X29184313Y-41925467D01*
X29194889Y-41929604D01*
X29285337Y-41922590D01*
X29343774Y-41891693D01*
X29372905Y-41872424D01*
X29393046Y-41887371D01*
X29402727Y-41904243D01*
X29415518Y-41937736D01*
X29411715Y-41948333D01*
X29412564Y-41961291D01*
X29432183Y-41987092D01*
X29455372Y-42019760D01*
X29457638Y-42035473D01*
X29466663Y-42043330D01*
X29487788Y-42045095D01*
X29515858Y-42038074D01*
X29517281Y-42028464D01*
X29522664Y-42012749D01*
X29529418Y-42011833D01*
X29550771Y-42028204D01*
X29551834Y-42035344D01*
X29562706Y-42038339D01*
X29588953Y-42013010D01*
X29589848Y-42011910D01*
X29627863Y-41964964D01*
X29695248Y-42021666D01*
X29741811Y-42053980D01*
X29777188Y-42066562D01*
X29784234Y-42065017D01*
X29804093Y-42065296D01*
X29805834Y-42072320D01*
X29789270Y-42098149D01*
X29779375Y-42103648D01*
X29764656Y-42113309D01*
X29778631Y-42115995D01*
X29807975Y-42100794D01*
X29826579Y-42076121D01*
X29859952Y-42045686D01*
X29885532Y-42046368D01*
X29907886Y-42050946D01*
X29894565Y-42038280D01*
X29876679Y-42000412D01*
X29881147Y-41961553D01*
X29898034Y-41921591D01*
X29926977Y-41915018D01*
X29940582Y-41918440D01*
X29994148Y-41943629D01*
X30019565Y-41961780D01*
X30066385Y-41982202D01*
X30104231Y-41983582D01*
X30142895Y-41967218D01*
X30150621Y-41927329D01*
X30150423Y-41925014D01*
X30141450Y-41857740D01*
X30126450Y-41771936D01*
X30109073Y-41686632D01*
X30092969Y-41620856D01*
X30090499Y-41612598D01*
X30083399Y-41578397D01*
X30099606Y-41569676D01*
X30136123Y-41575872D01*
X30209735Y-41587387D01*
X30317850Y-41598388D01*
X30452639Y-41608436D01*
X30606272Y-41617092D01*
X30770920Y-41623921D01*
X30938753Y-41628482D01*
X31101941Y-41630338D01*
X31109986Y-41630353D01*
X31301585Y-41632872D01*
X31460488Y-41639765D01*
X31584578Y-41650809D01*
X31671737Y-41665785D01*
X31719850Y-41684470D01*
X31728517Y-41694878D01*
X31748566Y-41706604D01*
X31754538Y-41704069D01*
X31786020Y-41703805D01*
X31817095Y-41715728D01*
X31837599Y-41727041D01*
X31846871Y-41738829D01*
X32000560Y-41738829D01*
X31988526Y-41720183D01*
X31987603Y-41718493D01*
X31952684Y-41683075D01*
X31921088Y-41673166D01*
X31879581Y-41666503D01*
X31813599Y-41649149D01*
X31747208Y-41628106D01*
X31706349Y-41615251D01*
X31663100Y-41604774D01*
X31612168Y-41596264D01*
X31548259Y-41589308D01*
X31466079Y-41583495D01*
X31360336Y-41578413D01*
X31225735Y-41573650D01*
X31056983Y-41568793D01*
X30948834Y-41565961D01*
X30779680Y-41560979D01*
X30619636Y-41555045D01*
X30474842Y-41548481D01*
X30351441Y-41541606D01*
X30255573Y-41534742D01*
X30193380Y-41528211D01*
X30179074Y-41525712D01*
X30109610Y-41514682D01*
X30051204Y-41513184D01*
X30032751Y-41516294D01*
X30002808Y-41528758D01*
X30011908Y-41542223D01*
X30027175Y-41551160D01*
X30051148Y-41571656D01*
X30037891Y-41588979D01*
X30024106Y-41606467D01*
X30022076Y-41641272D01*
X30031797Y-41703370D01*
X30037805Y-41732604D01*
X30050909Y-41803347D01*
X30057591Y-41858189D01*
X30056996Y-41881673D01*
X30035112Y-41886115D01*
X29985767Y-41870077D01*
X29948991Y-41852856D01*
X29890427Y-41824224D01*
X29857868Y-41814283D01*
X29839859Y-41822006D01*
X29827283Y-41841973D01*
X29809103Y-41895945D01*
X29805834Y-41924525D01*
X29796437Y-41968710D01*
X29769381Y-41974998D01*
X29726370Y-41943137D01*
X29720554Y-41937097D01*
X29666935Y-41894194D01*
X29617655Y-41890837D01*
X29563051Y-41926623D01*
X29559042Y-41930337D01*
X29530077Y-41954426D01*
X29510388Y-41957643D01*
X29496336Y-41934532D01*
X29484285Y-41879637D01*
X29472403Y-41800407D01*
X29454336Y-41723390D01*
X29428847Y-41680431D01*
X29399668Y-41673875D01*
X29370533Y-41706063D01*
X29359922Y-41729796D01*
X29330747Y-41788061D01*
X29301834Y-41828607D01*
X29274852Y-41854520D01*
X29261802Y-41845245D01*
X29254151Y-41818062D01*
X29254594Y-41760992D01*
X29267265Y-41726083D01*
X29289138Y-41675046D01*
X29305801Y-41612497D01*
X29312469Y-41565211D01*
X29302615Y-41549689D01*
X29268148Y-41556211D01*
X29260755Y-41558372D01*
X29221384Y-41563982D01*
X29147637Y-41569084D01*
X29047474Y-41573332D01*
X28928851Y-41576383D01*
X28811000Y-41577832D01*
X28419417Y-41580166D01*
X28286095Y-41711814D01*
X28222830Y-41775636D01*
X28186247Y-41817682D01*
X28172030Y-41845007D01*
X28175865Y-41864669D01*
X28185553Y-41876242D01*
X28213026Y-41910827D01*
X28210519Y-41942002D01*
X28187254Y-41976999D01*
X28170842Y-41994642D01*
X28150879Y-41999874D01*
X28118848Y-41990365D01*
X28066230Y-41963787D01*
X27997136Y-41924997D01*
X27846314Y-41828205D01*
X27726422Y-41724431D01*
X27626194Y-41603333D01*
X27593321Y-41554390D01*
X27552059Y-41484815D01*
X27534705Y-41440098D01*
X27538435Y-41412267D01*
X27541476Y-41408010D01*
X27575998Y-41383225D01*
X27640317Y-41350486D01*
X27723731Y-41314170D01*
X27815540Y-41278655D01*
X27905043Y-41248320D01*
X27951878Y-41235599D01*
X27745845Y-41235599D01*
X27725581Y-41258120D01*
X27666704Y-41295636D01*
X27657417Y-41300882D01*
X27574183Y-41345450D01*
X27520554Y-41368112D01*
X27490663Y-41370071D01*
X27478644Y-41352526D01*
X27477500Y-41337715D01*
X27491332Y-41308206D01*
X27537005Y-41281366D01*
X27585764Y-41263632D01*
X27674855Y-41237792D01*
X27728575Y-41228635D01*
X27745845Y-41235599D01*
X27951878Y-41235599D01*
X27981539Y-41227543D01*
X27983718Y-41227071D01*
X28042072Y-41211306D01*
X28076687Y-41195529D01*
X28081240Y-41187125D01*
X28091808Y-41172029D01*
X28131564Y-41158208D01*
X28135121Y-41157467D01*
X28199388Y-41144614D01*
X28170095Y-41113171D01*
X28080750Y-41113171D01*
X27900834Y-41150097D01*
X27804039Y-41171220D01*
X27710229Y-41193802D01*
X27636866Y-41213598D01*
X27625667Y-41217012D01*
X27542971Y-41240314D01*
X27490877Y-41246110D01*
X27461022Y-41233431D01*
X27445038Y-41201308D01*
X27443612Y-41195930D01*
X27438517Y-41150385D01*
X27444920Y-41127139D01*
X27472910Y-41118787D01*
X27533160Y-41111115D01*
X27615600Y-41104603D01*
X27710156Y-41099733D01*
X27806758Y-41096986D01*
X27895334Y-41096842D01*
X27965810Y-41099781D01*
X27982935Y-41101456D01*
X28080750Y-41113171D01*
X28170095Y-41113171D01*
X28157791Y-41099964D01*
X28137827Y-41081791D01*
X28112668Y-41069420D01*
X28074556Y-41061823D01*
X28015735Y-41057974D01*
X27928448Y-41056846D01*
X27834725Y-41057200D01*
X27723544Y-41058839D01*
X27622155Y-41061962D01*
X27540973Y-41066138D01*
X27490415Y-41070937D01*
X27486786Y-41071556D01*
X27420315Y-41084026D01*
X27406758Y-40971138D01*
X27398607Y-40886135D01*
X27397595Y-40868833D01*
X27371667Y-40868833D01*
X27363923Y-40886255D01*
X27357556Y-40882944D01*
X27355023Y-40857824D01*
X27357556Y-40854722D01*
X27370140Y-40857627D01*
X27371667Y-40868833D01*
X27397595Y-40868833D01*
X27393671Y-40801757D01*
X27393018Y-40771234D01*
X27401986Y-40692108D01*
X27426661Y-40586271D01*
X27463305Y-40464615D01*
X27508181Y-40338033D01*
X27557550Y-40217417D01*
X27607676Y-40113661D01*
X27634667Y-40067008D01*
X27663630Y-40016247D01*
X27677528Y-39981862D01*
X27677104Y-39974825D01*
X27677251Y-39947149D01*
X27698315Y-39891312D01*
X27737033Y-39813900D01*
X27790138Y-39721496D01*
X27847784Y-39630583D01*
X27906466Y-39537295D01*
X27963893Y-39438195D01*
X28010027Y-39350816D01*
X28020317Y-39329178D01*
X28052699Y-39263162D01*
X28080110Y-39215734D01*
X28096748Y-39196905D01*
X28096999Y-39196887D01*
X28121857Y-39213092D01*
X28171336Y-39260987D01*
X28243873Y-39338998D01*
X28291521Y-39392458D01*
X28317087Y-39426023D01*
X28324167Y-39441495D01*
X28336943Y-39471368D01*
X28367869Y-39512442D01*
X28405841Y-39552722D01*
X28439757Y-39580213D01*
X28456793Y-39584773D01*
X28468757Y-39584710D01*
X28464069Y-39595081D01*
X28468488Y-39623275D01*
X28496363Y-39668310D01*
X28519007Y-39695481D01*
X28564106Y-39747292D01*
X28598054Y-39790521D01*
X28606674Y-39803576D01*
X28640916Y-39825141D01*
X28700217Y-39812950D01*
X28784721Y-39766961D01*
X28830074Y-39735899D01*
X28943802Y-39664455D01*
X29068839Y-39602434D01*
X29185946Y-39559197D01*
X29202584Y-39554667D01*
X29249514Y-39540641D01*
X29324151Y-39516106D01*
X29414442Y-39485087D01*
X29471649Y-39464846D01*
X29579952Y-39429179D01*
X29694446Y-39396480D01*
X29796367Y-39371946D01*
X29831482Y-39365228D01*
X29989162Y-39350378D01*
X30175484Y-39352433D01*
X30380749Y-39370355D01*
X30595257Y-39403109D01*
X30809306Y-39449656D01*
X30929740Y-39482659D01*
X30999658Y-39506670D01*
X31088432Y-39541893D01*
X31188779Y-39584880D01*
X31293419Y-39632183D01*
X31395069Y-39680356D01*
X31486448Y-39725950D01*
X31560273Y-39765518D01*
X31609262Y-39795613D01*
X31626167Y-39812379D01*
X31642734Y-39820384D01*
X31663209Y-39817087D01*
X31697241Y-39794404D01*
X31746846Y-39745287D01*
X31806424Y-39677168D01*
X31870375Y-39597482D01*
X31933100Y-39513663D01*
X31988999Y-39433144D01*
X32032471Y-39363359D01*
X32057917Y-39311742D01*
X32061478Y-39288376D01*
X32068632Y-39259781D01*
X32078457Y-39253584D01*
X32100769Y-39228705D01*
X32125521Y-39178236D01*
X32133775Y-39155521D01*
X32163623Y-39083591D01*
X32191393Y-39053843D01*
X32216561Y-39066156D01*
X32238605Y-39120407D01*
X32251873Y-39183131D01*
X32263599Y-39233486D01*
X32276671Y-39245755D01*
X32286375Y-39236480D01*
X32299051Y-39225741D01*
X32297073Y-39252549D01*
X32295251Y-39261376D01*
X32296110Y-39305285D01*
X32308404Y-39379181D01*
X32330197Y-39472886D01*
X32347650Y-39536542D01*
X32375932Y-39639593D01*
X32400506Y-39739130D01*
X32418048Y-39821173D01*
X32424060Y-39858125D01*
X32434295Y-39919560D01*
X32449524Y-39949415D01*
X32476279Y-39958417D01*
X32485288Y-39958666D01*
X32538624Y-39978721D01*
X32593731Y-40034836D01*
X32648284Y-40120936D01*
X32699956Y-40230946D01*
X32746424Y-40358792D01*
X32785362Y-40498398D01*
X32814445Y-40643690D01*
X32831347Y-40788594D01*
X32834664Y-40871434D01*
X32903973Y-40871434D01*
X32897524Y-40717056D01*
X32896595Y-40710083D01*
X32875000Y-40710083D01*
X32864417Y-40720666D01*
X32853834Y-40710083D01*
X32864417Y-40699500D01*
X32875000Y-40710083D01*
X32896595Y-40710083D01*
X32875787Y-40553927D01*
X32837016Y-40402450D01*
X32778002Y-40247963D01*
X32745888Y-40177557D01*
X32674208Y-40046586D01*
X32601711Y-39953241D01*
X32580869Y-39933711D01*
X32518382Y-39867498D01*
X32486718Y-39797450D01*
X32482608Y-39778321D01*
X32470372Y-39723934D01*
X32448812Y-39641109D01*
X32421152Y-39541843D01*
X32395480Y-39454252D01*
X32364254Y-39347635D01*
X32335441Y-39244637D01*
X32312643Y-39158396D01*
X32301126Y-39110148D01*
X32285833Y-39052790D01*
X32270960Y-39019172D01*
X32263806Y-39015119D01*
X32262572Y-39013222D01*
X32190612Y-39013222D01*
X32187706Y-39025805D01*
X32176500Y-39027333D01*
X32159078Y-39019588D01*
X32162389Y-39013222D01*
X32187509Y-39010688D01*
X32190612Y-39013222D01*
X32262572Y-39013222D01*
X32256083Y-39003254D01*
X32256256Y-38962146D01*
X32257323Y-38951765D01*
X32259378Y-38902471D01*
X32245695Y-38882349D01*
X32221150Y-38879166D01*
X32184335Y-38892473D01*
G37*
X32184335Y-38892473D02*
X32176500Y-38912479D01*
X32167412Y-38943983D01*
X32142761Y-39004028D01*
X32106467Y-39083572D01*
X32068677Y-39161187D01*
X31987629Y-39312975D01*
X31904428Y-39444932D01*
X31807596Y-39574146D01*
X31725437Y-39672255D01*
X31652744Y-39756260D01*
X31418187Y-39634390D01*
X31206340Y-39537061D01*
X30978757Y-39455312D01*
X30742472Y-39390209D01*
X30504517Y-39342817D01*
X30271927Y-39314204D01*
X30051734Y-39305435D01*
X29850974Y-39317576D01*
X29676679Y-39351694D01*
X29636500Y-39364318D01*
X29592999Y-39378468D01*
X29521402Y-39400923D01*
X29434156Y-39427798D01*
X29393084Y-39440305D01*
X29235599Y-39492295D01*
X29086642Y-39549362D01*
X28954768Y-39607768D01*
X28848527Y-39663772D01*
X28785783Y-39705879D01*
X28733064Y-39743120D01*
X28689959Y-39765380D01*
X28677592Y-39768166D01*
X28652581Y-39752227D01*
X28609869Y-39709374D01*
X28556485Y-39647054D01*
X28522893Y-39604254D01*
X28447732Y-39507980D01*
X28361469Y-39401341D01*
X28280481Y-39304514D01*
X28265959Y-39287643D01*
X28208723Y-39219248D01*
X28163955Y-39161316D01*
X28137839Y-39122086D01*
X28133667Y-39111416D01*
X28116268Y-39095522D01*
X28088270Y-39094652D01*
X28054944Y-39112251D01*
X28024192Y-39159028D01*
X27999606Y-39217833D01*
X27965251Y-39297549D01*
X27918097Y-39391203D01*
X27872303Y-39471833D01*
X27769802Y-39641702D01*
X27690559Y-39777585D01*
X27634709Y-39879237D01*
X27602387Y-39946413D01*
X27593725Y-39978867D01*
X27594366Y-39980559D01*
X27591127Y-40008321D01*
X27569349Y-40056327D01*
X27555692Y-40079587D01*
X27511984Y-40160439D01*
X27463935Y-40267220D01*
X27417742Y-40384861D01*
X27379603Y-40498291D01*
X27370406Y-40530166D01*
X27358937Y-40591838D01*
X27348927Y-40681925D01*
X27341707Y-40786509D01*
X27339093Y-40857743D01*
X27333925Y-41090069D01*
X27135838Y-41126540D01*
X27055894Y-41143147D01*
X26967376Y-41164567D01*
X26876586Y-41188831D01*
X26789829Y-41213968D01*
X26713410Y-41238007D01*
X26653634Y-41258978D01*
X26616804Y-41274909D01*
X26609226Y-41283830D01*
X26630834Y-41284399D01*
X26683879Y-41276041D01*
X26764150Y-41259058D01*
X26858159Y-41236415D01*
X26906000Y-41223923D01*
X27003592Y-41198613D01*
X27095815Y-41176245D01*
X27168360Y-41160228D01*
X27191750Y-41155836D01*
X27255125Y-41144222D01*
X27304604Y-41133353D01*
X27311547Y-41131468D01*
X27340559Y-41137131D01*
X27364678Y-41177457D01*
X27371865Y-41197515D01*
X27386319Y-41248234D01*
X27390572Y-41278284D01*
X27389652Y-41280776D01*
X27367798Y-41291950D01*
X27317926Y-41314360D01*
X27255250Y-41341277D01*
X27159947Y-41382921D01*
X27057779Y-41430003D01*
X26954493Y-41479563D01*
X26855833Y-41528638D01*
X26767543Y-41574268D01*
X26695367Y-41613491D01*
X26645052Y-41643347D01*
X26622340Y-41660875D01*
X26629615Y-41663772D01*
X26675914Y-41649912D01*
X26750195Y-41620887D01*
X26842724Y-41580761D01*
X26943769Y-41533595D01*
X26957699Y-41526828D01*
X27117965Y-41449593D01*
X27241587Y-41392282D01*
X27329134Y-41354645D01*
X27381176Y-41336428D01*
X27393154Y-41334500D01*
X27415707Y-41351695D01*
X27424845Y-41389351D01*
X27416203Y-41426574D01*
X27413246Y-41430658D01*
X27385996Y-41454469D01*
X27333077Y-41494189D01*
X27264267Y-41542578D01*
X27238256Y-41560212D01*
X27139180Y-41627631D01*
X27031395Y-41702509D01*
X26921545Y-41780062D01*
X26816273Y-41855508D01*
X26722223Y-41924064D01*
X26646039Y-41980948D01*
X26594366Y-42021376D01*
X26578505Y-42035146D01*
X26548600Y-42067917D01*
X26549025Y-42078584D01*
X26575727Y-42069739D01*
X26624654Y-42043976D01*
X26691752Y-42003887D01*
X26772970Y-41952065D01*
X26864256Y-41891104D01*
X26961555Y-41823596D01*
X27060816Y-41752134D01*
X27157986Y-41679311D01*
X27249012Y-41607720D01*
X27258156Y-41600293D01*
X27305082Y-41565949D01*
X27339899Y-41547289D01*
X27345522Y-41546166D01*
X27375237Y-41531582D01*
X27392834Y-41514416D01*
X27427075Y-41490795D01*
X27466706Y-41483183D01*
X27494541Y-41493134D01*
X27498667Y-41504850D01*
X27513765Y-41552539D01*
X27554106Y-41617989D01*
X27612256Y-41692044D01*
X27680785Y-41765547D01*
X27752261Y-41829343D01*
X27777383Y-41848241D01*
X27886589Y-41921322D01*
X27986910Y-41980323D01*
X28073232Y-42022994D01*
X28140441Y-42047083D01*
X28183421Y-42050339D01*
X28197167Y-42033000D01*
X28214311Y-42014221D01*
X28228917Y-42011833D01*
X28255423Y-42017469D01*
X28253584Y-42037551D01*
X28221547Y-42076841D01*
X28191875Y-42106896D01*
X28147224Y-42161102D01*
X28087095Y-42250173D01*
X28013630Y-42370484D01*
X27928973Y-42518407D01*
X27835267Y-42690316D01*
X27742632Y-42867074D01*
X27696972Y-42964363D01*
X27649584Y-43080420D01*
X27602380Y-43208755D01*
X27557270Y-43342877D01*
X27516165Y-43476296D01*
X27480974Y-43602522D01*
X27453608Y-43715063D01*
X27435978Y-43807428D01*
X27429994Y-43873128D01*
X27437077Y-43905191D01*
X27452169Y-43905646D01*
X27456334Y-43878733D01*
X27455592Y-43835643D01*
X27454526Y-43818658D01*
X27468074Y-43797087D01*
X27479337Y-43788698D01*
X27503579Y-43758535D01*
X27526946Y-43707114D01*
X27528770Y-43701664D01*
X27546274Y-43659015D01*
X27571980Y-43636140D01*
X27619396Y-43624457D01*
X27657417Y-43619924D01*
X27744102Y-43598043D01*
X27843262Y-43554139D01*
X27938452Y-43497102D01*
X28013228Y-43435824D01*
X28027834Y-43419644D01*
X28059139Y-43391528D01*
X28116518Y-43348358D01*
X28190076Y-43297401D01*
X28229802Y-43271292D01*
X28313701Y-43212782D01*
X28391417Y-43150951D01*
X28450282Y-43096146D01*
X28465501Y-43078776D01*
X28515652Y-43010203D01*
X28567824Y-42930366D01*
X28616296Y-42849142D01*
X28655353Y-42776403D01*
X28679274Y-42722025D01*
X28684000Y-42701480D01*
X28685915Y-42684876D01*
X28620500Y-42684876D01*
X28604644Y-42753721D01*
X28561148Y-42840232D01*
X28496128Y-42936525D01*
X28415695Y-43034713D01*
X28325964Y-43126911D01*
X28233047Y-43205232D01*
X28198097Y-43229767D01*
X28113432Y-43288450D01*
X28027804Y-43352485D01*
X27959546Y-43408155D01*
X27958725Y-43408876D01*
X27860201Y-43483496D01*
X27758267Y-43539872D01*
X27664539Y-43572226D01*
X27619416Y-43577701D01*
X27581472Y-43575086D01*
X27567812Y-43558345D01*
X27571532Y-43515368D01*
X27574425Y-43498791D01*
X27596536Y-43408070D01*
X27632711Y-43296538D01*
X27679240Y-43172633D01*
X27732412Y-43044786D01*
X27788516Y-42921435D01*
X27843843Y-42811013D01*
X27894682Y-42721955D01*
X27937322Y-42662696D01*
X27946258Y-42653533D01*
X27996063Y-42618287D01*
X28072561Y-42576076D01*
X28162259Y-42533252D01*
X28251666Y-42496166D01*
X28327291Y-42471171D01*
X28340311Y-42468019D01*
X28417699Y-42470160D01*
X28495565Y-42503031D01*
X28562673Y-42557935D01*
X28607790Y-42626177D01*
X28620500Y-42684876D01*
X28685915Y-42684876D01*
X28686639Y-42678608D01*
X28698702Y-42672078D01*
X28726410Y-42684438D01*
X28775981Y-42718238D01*
X28839030Y-42765037D01*
X28966614Y-42849421D01*
X29120356Y-42933258D01*
X29284648Y-43009073D01*
X29443884Y-43069394D01*
X29525222Y-43093669D01*
X29642434Y-43115864D01*
X29789545Y-43130760D01*
X29954711Y-43138097D01*
X30126086Y-43137612D01*
X30291826Y-43129045D01*
X30430250Y-43113636D01*
X30577027Y-43086170D01*
X30740820Y-43046431D01*
X30906542Y-42998735D01*
X31059104Y-42947396D01*
X31174518Y-42900814D01*
X31245100Y-42869739D01*
X31300392Y-42847113D01*
X31329390Y-42837419D01*
X31330406Y-42837333D01*
X31344158Y-42855857D01*
X31358136Y-42901705D01*
X31360827Y-42914828D01*
X31371324Y-42947806D01*
X31393547Y-42986923D01*
X31431289Y-43036785D01*
X31488344Y-43101998D01*
X31568505Y-43187167D01*
X31675391Y-43296720D01*
X31781999Y-43403926D01*
X31864652Y-43484337D01*
X31928296Y-43542097D01*
X31977874Y-43581347D01*
X32018329Y-43606230D01*
X32054605Y-43620889D01*
X32066069Y-43624079D01*
X32130101Y-43646084D01*
X32169462Y-43679456D01*
X32193545Y-43735644D01*
X32206424Y-43795125D01*
X32220347Y-43846032D01*
X32236986Y-43873137D01*
X32240960Y-43874500D01*
X32255990Y-43855194D01*
X32259994Y-43801171D01*
X32254073Y-43718274D01*
X32239327Y-43612346D01*
X32222655Y-43520997D01*
X32195763Y-43520997D01*
X32190681Y-43544675D01*
X32178476Y-43586053D01*
X32176500Y-43601064D01*
X32163357Y-43619448D01*
X32125327Y-43605747D01*
X32086058Y-43578166D01*
X32043248Y-43548717D01*
X32013913Y-43535854D01*
X32013284Y-43535833D01*
X31993072Y-43521554D01*
X31949437Y-43482639D01*
X31888296Y-43424969D01*
X31815565Y-43354428D01*
X31737158Y-43276896D01*
X31658992Y-43198257D01*
X31586982Y-43124392D01*
X31527045Y-43061184D01*
X31485096Y-43014515D01*
X31470449Y-42996083D01*
X31444870Y-42944777D01*
X31425943Y-42884212D01*
X31420419Y-42839196D01*
X31432123Y-42803706D01*
X31467758Y-42762993D01*
X31490874Y-42741337D01*
X31545823Y-42698723D01*
X31596154Y-42672270D01*
X31615897Y-42668000D01*
X31655455Y-42680213D01*
X31714418Y-42712092D01*
X31774334Y-42752666D01*
X31837744Y-42796121D01*
X31892184Y-42826666D01*
X31924021Y-42837333D01*
X31945372Y-42849031D01*
X31970017Y-42887388D01*
X32000481Y-42957292D01*
X32036034Y-43054291D01*
X32069303Y-43153398D01*
X32098338Y-43246987D01*
X32119277Y-43322226D01*
X32126841Y-43355916D01*
X32136967Y-43406973D01*
X32144842Y-43420317D01*
X32154611Y-43400082D01*
X32158662Y-43387666D01*
X32166815Y-43371423D01*
X32167739Y-43395466D01*
X32163771Y-43437551D01*
X32159081Y-43499005D01*
X32164204Y-43525351D01*
X32178462Y-43524037D01*
X32195763Y-43520997D01*
X32222655Y-43520997D01*
X32216856Y-43489228D01*
X32187762Y-43354764D01*
X32153146Y-43214795D01*
X32114108Y-43075165D01*
X32071748Y-42941715D01*
X32057516Y-42900833D01*
X32015350Y-42782961D01*
X31938750Y-42782961D01*
X31926590Y-42791394D01*
X31891083Y-42772085D01*
X31840880Y-42734562D01*
X31782389Y-42691452D01*
X31729111Y-42656516D01*
X31715674Y-42648909D01*
X31667597Y-42623693D01*
X31729313Y-42571763D01*
X31774587Y-42537964D01*
X31807967Y-42520493D01*
X31812100Y-42519833D01*
X31832249Y-42537788D01*
X31861129Y-42584081D01*
X31892766Y-42647352D01*
X31921186Y-42716239D01*
X31931749Y-42747375D01*
X31938750Y-42782961D01*
X32015350Y-42782961D01*
X32010126Y-42768359D01*
X31974420Y-42670308D01*
X31947944Y-42601198D01*
X31928240Y-42555549D01*
X31912853Y-42527881D01*
X31899328Y-42512713D01*
X31885207Y-42504567D01*
X31878800Y-42502030D01*
X31865601Y-42491112D01*
X31868544Y-42469672D01*
X31890805Y-42431803D01*
X31935562Y-42371599D01*
X31977376Y-42318750D01*
X32037751Y-42247433D01*
X32092200Y-42190488D01*
X32133406Y-42155185D01*
X32150002Y-42147258D01*
X32203365Y-42143873D01*
X32231080Y-42141967D01*
X32308107Y-42117860D01*
X32394138Y-42059219D01*
X32484082Y-41971430D01*
X32572849Y-41859876D01*
X32655349Y-41729943D01*
X32698934Y-41647028D01*
X32735018Y-41578281D01*
X32766642Y-41527570D01*
X32787792Y-41504362D01*
X32789878Y-41503833D01*
X32801408Y-41506281D01*
X32820321Y-41515819D01*
X32851376Y-41535738D01*
X32899334Y-41569329D01*
X32968953Y-41619883D01*
X33064994Y-41690691D01*
X33132613Y-41740804D01*
X33301738Y-41870893D01*
X33443788Y-41991294D01*
X33569370Y-42111605D01*
X33689092Y-42241427D01*
X33701105Y-42255250D01*
X33750053Y-42308288D01*
X33789377Y-42344454D01*
X33810071Y-42355791D01*
X33826862Y-42366192D01*
X33827500Y-42371666D01*
X33843681Y-42392133D01*
X33849211Y-42392833D01*
X33857544Y-42378091D01*
X33841641Y-42338315D01*
X33805314Y-42280175D01*
X33752376Y-42210344D01*
X33728988Y-42182467D01*
X33671691Y-42123053D01*
X33587684Y-42045123D01*
X33484561Y-41954966D01*
X33369916Y-41858871D01*
X33251343Y-41763127D01*
X33136436Y-41674024D01*
X33032790Y-41597851D01*
X32976019Y-41558886D01*
X32889120Y-41497466D01*
X32833170Y-41448958D01*
X32810050Y-41415501D01*
X32821646Y-41399235D01*
X32834382Y-41398000D01*
X32867923Y-41407924D01*
X32927247Y-41434039D01*
X33001774Y-41470858D01*
X33080926Y-41512897D01*
X33154122Y-41554667D01*
X33210784Y-41590684D01*
X33222846Y-41599447D01*
X33272075Y-41632745D01*
X33309731Y-41650883D01*
X33316207Y-41652000D01*
X33339336Y-41666023D01*
X33340667Y-41672763D01*
X33358610Y-41692899D01*
X33392878Y-41706630D01*
X33430332Y-41722041D01*
X33440503Y-41736421D01*
X33452120Y-41760607D01*
X33487616Y-41802198D01*
X33537604Y-41852415D01*
X33592696Y-41902481D01*
X33643505Y-41943618D01*
X33680644Y-41967049D01*
X33689772Y-41969500D01*
X33708465Y-41958460D01*
X33696430Y-41927865D01*
X33658258Y-41881502D01*
X33598537Y-41823157D01*
X33521857Y-41756618D01*
X33432807Y-41685669D01*
X33335976Y-41614099D01*
X33235954Y-41545694D01*
X33137331Y-41484241D01*
X33044696Y-41433525D01*
X33033443Y-41427972D01*
X32950948Y-41386506D01*
X32914664Y-41366873D01*
X32740845Y-41366873D01*
X32740158Y-41374616D01*
X32712208Y-41376083D01*
X32669128Y-41367443D01*
X32651880Y-41354258D01*
X32643750Y-41327837D01*
X32667256Y-41327919D01*
X32705699Y-41346065D01*
X32740845Y-41366873D01*
X32914664Y-41366873D01*
X32884890Y-41350763D01*
X32843191Y-41325188D01*
X32832667Y-41315279D01*
X32844065Y-41288388D01*
X32863401Y-41259170D01*
X32884516Y-41234615D01*
X32906155Y-41229673D01*
X32942617Y-41244675D01*
X32974526Y-41261740D01*
X33110372Y-41335813D01*
X33215243Y-41393827D01*
X33295584Y-41439518D01*
X33357839Y-41476625D01*
X33408452Y-41508886D01*
X33451841Y-41538605D01*
X33512972Y-41577354D01*
X33565179Y-41602792D01*
X33589424Y-41608785D01*
X33605910Y-41598847D01*
X33587747Y-41572117D01*
X33538154Y-41530729D01*
X33460351Y-41476816D01*
X33357556Y-41412512D01*
X33232989Y-41339950D01*
X33089867Y-41261265D01*
X32970891Y-41198796D01*
X32908032Y-41166423D01*
X32905437Y-40906503D01*
X32903973Y-40871434D01*
X32834664Y-40871434D01*
X32834521Y-40979929D01*
X32828505Y-41050610D01*
X32811254Y-41087991D01*
X32777405Y-41096587D01*
X32721597Y-41080914D01*
X32638466Y-41045486D01*
X32631584Y-41042427D01*
X32530582Y-41003326D01*
X32430091Y-40974446D01*
X32338839Y-40957238D01*
X32265552Y-40953153D01*
X32218959Y-40963640D01*
X32209702Y-40972317D01*
X32216835Y-40987510D01*
X32263138Y-40994915D01*
X32301911Y-40995833D01*
X32379746Y-41003392D01*
X32471107Y-41027989D01*
X32586370Y-41072502D01*
X32601492Y-41078970D01*
X32684012Y-41115015D01*
X32750766Y-41145054D01*
X32792963Y-41165083D01*
X32803011Y-41170788D01*
X32802630Y-41194461D01*
X32790225Y-41240881D01*
X32787907Y-41247697D01*
X32764543Y-41294624D01*
X32737259Y-41304957D01*
X32729936Y-41302808D01*
X32676810Y-41284617D01*
X32598835Y-41260587D01*
X32505735Y-41233409D01*
X32407231Y-41205775D01*
X32313048Y-41180373D01*
X32232907Y-41159897D01*
X32176533Y-41147035D01*
X32156071Y-41144000D01*
X32117945Y-41149776D01*
X32115304Y-41163606D01*
X32143445Y-41180243D01*
X32197662Y-41194437D01*
X32201909Y-41195139D01*
X32262570Y-41207865D01*
X32305848Y-41222342D01*
X32313034Y-41226523D01*
X32347919Y-41245127D01*
X32399356Y-41265194D01*
X32440813Y-41283599D01*
X32499893Y-41315069D01*
X32566187Y-41353346D01*
X32629285Y-41392172D01*
X32678778Y-41425288D01*
X32704255Y-41446436D01*
X32705667Y-41449350D01*
X32698020Y-41471076D01*
X32677713Y-41521903D01*
X32648703Y-41591994D01*
X32639977Y-41612741D01*
X32552360Y-41785604D01*
X32449312Y-41928189D01*
X32334764Y-42035242D01*
X32312096Y-42051085D01*
X32244761Y-42093747D01*
X32203173Y-42113029D01*
X32179053Y-42110734D01*
X32164122Y-42088669D01*
X32162169Y-42083780D01*
X32165072Y-42045929D01*
X32177832Y-42032176D01*
X32187033Y-42014877D01*
X32174929Y-41982157D01*
X32138545Y-41927819D01*
X32109180Y-41889140D01*
X32057911Y-41821267D01*
X32014741Y-41760805D01*
X32000560Y-41738829D01*
X31846871Y-41738829D01*
X31841673Y-41758068D01*
X31818767Y-41791739D01*
X31774915Y-41846818D01*
X31731681Y-41899814D01*
X31712730Y-41935948D01*
X31710834Y-41947439D01*
X31695264Y-41968712D01*
X31689667Y-41969500D01*
X31669340Y-41985792D01*
X31668500Y-41992078D01*
X31656674Y-42023873D01*
X31627869Y-42067643D01*
X31592095Y-42111119D01*
X31559360Y-42142028D01*
X31540608Y-42148865D01*
X31515939Y-42153557D01*
X31507943Y-42162925D01*
X31505092Y-42177770D01*
X31517063Y-42172604D01*
X31538915Y-42169807D01*
X31541500Y-42176841D01*
X31526674Y-42202086D01*
X31489254Y-42241257D01*
X31439832Y-42285407D01*
X31389000Y-42325591D01*
X31347349Y-42352863D01*
X31326101Y-42358776D01*
X31312557Y-42360702D01*
X31313434Y-42366367D01*
X31302433Y-42389937D01*
X31267972Y-42432078D01*
X31226029Y-42475249D01*
X31168304Y-42526680D01*
X31126365Y-42551179D01*
X31089122Y-42554522D01*
X31077862Y-42552416D01*
X31044839Y-42547865D01*
X31049799Y-42557692D01*
X31050638Y-42558261D01*
X31062882Y-42577154D01*
X31039781Y-42600845D01*
X31029472Y-42607600D01*
X30969047Y-42640804D01*
X30889808Y-42678081D01*
X30805526Y-42713648D01*
X30729971Y-42741721D01*
X30676916Y-42756519D01*
X30673667Y-42757009D01*
X30616285Y-42774676D01*
X30568416Y-42800663D01*
X30511482Y-42828493D01*
X30462582Y-42838821D01*
X30402490Y-42847328D01*
X30366750Y-42858355D01*
X30313590Y-42868375D01*
X30227424Y-42869965D01*
X30116606Y-42863741D01*
X29989486Y-42850318D01*
X29854414Y-42830312D01*
X29766309Y-42814070D01*
X29643516Y-42789432D01*
X29556663Y-42771566D01*
X29500166Y-42758997D01*
X29468443Y-42750249D01*
X29455911Y-42743847D01*
X29456987Y-42738315D01*
X29463200Y-42733952D01*
X29457984Y-42725968D01*
X29420221Y-42721039D01*
X29396354Y-42720354D01*
X29300482Y-42704272D01*
X29190202Y-42660973D01*
X29077609Y-42596254D01*
X28980334Y-42520947D01*
X28933253Y-42476325D01*
X28905308Y-42445310D01*
X28902049Y-42435195D01*
X28899737Y-42422901D01*
X28876943Y-42397265D01*
X28464642Y-42397265D01*
X28447109Y-42422644D01*
X28392113Y-42434521D01*
X28369776Y-42435166D01*
X28306968Y-42443321D01*
X28226162Y-42464412D01*
X28164650Y-42486213D01*
X28080695Y-42519269D01*
X28029676Y-42535218D01*
X28005562Y-42533497D01*
X28002321Y-42513540D01*
X28013923Y-42474786D01*
X28014832Y-42472208D01*
X28041671Y-42414344D01*
X28082747Y-42344041D01*
X28106796Y-42308166D01*
X28151839Y-42244646D01*
X28191966Y-42187939D01*
X28207946Y-42165291D01*
X28249091Y-42125069D01*
X28287989Y-42126243D01*
X28326238Y-42169192D01*
X28341176Y-42197041D01*
X28371050Y-42244895D01*
X28399617Y-42269399D01*
X28407440Y-42270259D01*
X28425891Y-42278507D01*
X28422913Y-42296105D01*
X28426335Y-42335390D01*
X28442833Y-42360308D01*
X28464642Y-42397265D01*
X28876943Y-42397265D01*
X28872683Y-42392474D01*
X28863088Y-42383335D01*
X28829827Y-42343635D01*
X28819805Y-42312485D01*
X28821237Y-42308727D01*
X28821540Y-42291531D01*
X28813373Y-42291767D01*
X28793114Y-42277582D01*
X28758996Y-42234751D01*
X28717550Y-42171726D01*
X28706971Y-42154079D01*
X28670289Y-42089222D01*
X28647047Y-42042995D01*
X28640960Y-42023005D01*
X28643089Y-42023295D01*
X28674952Y-42031625D01*
X28732886Y-42038529D01*
X28768750Y-42040841D01*
X28823733Y-42041128D01*
X28851818Y-42036671D01*
X28851210Y-42031687D01*
X28850660Y-42016276D01*
X28892055Y-41996789D01*
X28938000Y-41982897D01*
X28960416Y-41969874D01*
X29003188Y-41940997D01*
X29017551Y-41930859D01*
X29065984Y-41886499D01*
X29073334Y-41851672D01*
X29039538Y-41826310D01*
X28964534Y-41810342D01*
X28906548Y-41805584D01*
X28782577Y-41807012D01*
X28688504Y-41825143D01*
X28628106Y-41858906D01*
X28608267Y-41890032D01*
X28597011Y-41917974D01*
X28584657Y-41913765D01*
X28562619Y-41875034D01*
X28540071Y-41811411D01*
X28529691Y-41747250D01*
X28345334Y-41747250D01*
X28334750Y-41757833D01*
X28324167Y-41747250D01*
X28334750Y-41736666D01*
X28345334Y-41747250D01*
X28529691Y-41747250D01*
X28528398Y-41739258D01*
X28528238Y-41735735D01*
X28523011Y-41687186D01*
X28521577Y-41683750D01*
X28387667Y-41683750D01*
X28377084Y-41694333D01*
X28366500Y-41683750D01*
X28377084Y-41673166D01*
X28387667Y-41683750D01*
X28521577Y-41683750D01*
X28513720Y-41664930D01*
X28510838Y-41665104D01*
X28488475Y-41659193D01*
X28483362Y-41652719D01*
X28498439Y-41644274D01*
X28554611Y-41637965D01*
X28650687Y-41633862D01*
X28785480Y-41632033D01*
X28842013Y-41631944D01*
X29213728Y-41632306D01*
X29203661Y-41687824D01*
X29185570Y-41793214D01*
X29176470Y-41863686D01*
X29176128Y-41905637D01*
X29184313Y-41925467D01*
X29194889Y-41929604D01*
X29285337Y-41922590D01*
X29343774Y-41891693D01*
X29372905Y-41872424D01*
X29393046Y-41887371D01*
X29402727Y-41904243D01*
X29415518Y-41937736D01*
X29411715Y-41948333D01*
X29412564Y-41961291D01*
X29432183Y-41987092D01*
X29455372Y-42019760D01*
X29457638Y-42035473D01*
X29466663Y-42043330D01*
X29487788Y-42045095D01*
X29515858Y-42038074D01*
X29517281Y-42028464D01*
X29522664Y-42012749D01*
X29529418Y-42011833D01*
X29550771Y-42028204D01*
X29551834Y-42035344D01*
X29562706Y-42038339D01*
X29588953Y-42013010D01*
X29589848Y-42011910D01*
X29627863Y-41964964D01*
X29695248Y-42021666D01*
X29741811Y-42053980D01*
X29777188Y-42066562D01*
X29784234Y-42065017D01*
X29804093Y-42065296D01*
X29805834Y-42072320D01*
X29789270Y-42098149D01*
X29779375Y-42103648D01*
X29764656Y-42113309D01*
X29778631Y-42115995D01*
X29807975Y-42100794D01*
X29826579Y-42076121D01*
X29859952Y-42045686D01*
X29885532Y-42046368D01*
X29907886Y-42050946D01*
X29894565Y-42038280D01*
X29876679Y-42000412D01*
X29881147Y-41961553D01*
X29898034Y-41921591D01*
X29926977Y-41915018D01*
X29940582Y-41918440D01*
X29994148Y-41943629D01*
X30019565Y-41961780D01*
X30066385Y-41982202D01*
X30104231Y-41983582D01*
X30142895Y-41967218D01*
X30150621Y-41927329D01*
X30150423Y-41925014D01*
X30141450Y-41857740D01*
X30126450Y-41771936D01*
X30109073Y-41686632D01*
X30092969Y-41620856D01*
X30090499Y-41612598D01*
X30083399Y-41578397D01*
X30099606Y-41569676D01*
X30136123Y-41575872D01*
X30209735Y-41587387D01*
X30317850Y-41598388D01*
X30452639Y-41608436D01*
X30606272Y-41617092D01*
X30770920Y-41623921D01*
X30938753Y-41628482D01*
X31101941Y-41630338D01*
X31109986Y-41630353D01*
X31301585Y-41632872D01*
X31460488Y-41639765D01*
X31584578Y-41650809D01*
X31671737Y-41665785D01*
X31719850Y-41684470D01*
X31728517Y-41694878D01*
X31748566Y-41706604D01*
X31754538Y-41704069D01*
X31786020Y-41703805D01*
X31817095Y-41715728D01*
X31837599Y-41727041D01*
X31846871Y-41738829D01*
X32000560Y-41738829D01*
X31988526Y-41720183D01*
X31987603Y-41718493D01*
X31952684Y-41683075D01*
X31921088Y-41673166D01*
X31879581Y-41666503D01*
X31813599Y-41649149D01*
X31747208Y-41628106D01*
X31706349Y-41615251D01*
X31663100Y-41604774D01*
X31612168Y-41596264D01*
X31548259Y-41589308D01*
X31466079Y-41583495D01*
X31360336Y-41578413D01*
X31225735Y-41573650D01*
X31056983Y-41568793D01*
X30948834Y-41565961D01*
X30779680Y-41560979D01*
X30619636Y-41555045D01*
X30474842Y-41548481D01*
X30351441Y-41541606D01*
X30255573Y-41534742D01*
X30193380Y-41528211D01*
X30179074Y-41525712D01*
X30109610Y-41514682D01*
X30051204Y-41513184D01*
X30032751Y-41516294D01*
X30002808Y-41528758D01*
X30011908Y-41542223D01*
X30027175Y-41551160D01*
X30051148Y-41571656D01*
X30037891Y-41588979D01*
X30024106Y-41606467D01*
X30022076Y-41641272D01*
X30031797Y-41703370D01*
X30037805Y-41732604D01*
X30050909Y-41803347D01*
X30057591Y-41858189D01*
X30056996Y-41881673D01*
X30035112Y-41886115D01*
X29985767Y-41870077D01*
X29948991Y-41852856D01*
X29890427Y-41824224D01*
X29857868Y-41814283D01*
X29839859Y-41822006D01*
X29827283Y-41841973D01*
X29809103Y-41895945D01*
X29805834Y-41924525D01*
X29796437Y-41968710D01*
X29769381Y-41974998D01*
X29726370Y-41943137D01*
X29720554Y-41937097D01*
X29666935Y-41894194D01*
X29617655Y-41890837D01*
X29563051Y-41926623D01*
X29559042Y-41930337D01*
X29530077Y-41954426D01*
X29510388Y-41957643D01*
X29496336Y-41934532D01*
X29484285Y-41879637D01*
X29472403Y-41800407D01*
X29454336Y-41723390D01*
X29428847Y-41680431D01*
X29399668Y-41673875D01*
X29370533Y-41706063D01*
X29359922Y-41729796D01*
X29330747Y-41788061D01*
X29301834Y-41828607D01*
X29274852Y-41854520D01*
X29261802Y-41845245D01*
X29254151Y-41818062D01*
X29254594Y-41760992D01*
X29267265Y-41726083D01*
X29289138Y-41675046D01*
X29305801Y-41612497D01*
X29312469Y-41565211D01*
X29302615Y-41549689D01*
X29268148Y-41556211D01*
X29260755Y-41558372D01*
X29221384Y-41563982D01*
X29147637Y-41569084D01*
X29047474Y-41573332D01*
X28928851Y-41576383D01*
X28811000Y-41577832D01*
X28419417Y-41580166D01*
X28286095Y-41711814D01*
X28222830Y-41775636D01*
X28186247Y-41817682D01*
X28172030Y-41845007D01*
X28175865Y-41864669D01*
X28185553Y-41876242D01*
X28213026Y-41910827D01*
X28210519Y-41942002D01*
X28187254Y-41976999D01*
X28170842Y-41994642D01*
X28150879Y-41999874D01*
X28118848Y-41990365D01*
X28066230Y-41963787D01*
X27997136Y-41924997D01*
X27846314Y-41828205D01*
X27726422Y-41724431D01*
X27626194Y-41603333D01*
X27593321Y-41554390D01*
X27552059Y-41484815D01*
X27534705Y-41440098D01*
X27538435Y-41412267D01*
X27541476Y-41408010D01*
X27575998Y-41383225D01*
X27640317Y-41350486D01*
X27723731Y-41314170D01*
X27815540Y-41278655D01*
X27905043Y-41248320D01*
X27951878Y-41235599D01*
X27745845Y-41235599D01*
X27725581Y-41258120D01*
X27666704Y-41295636D01*
X27657417Y-41300882D01*
X27574183Y-41345450D01*
X27520554Y-41368112D01*
X27490663Y-41370071D01*
X27478644Y-41352526D01*
X27477500Y-41337715D01*
X27491332Y-41308206D01*
X27537005Y-41281366D01*
X27585764Y-41263632D01*
X27674855Y-41237792D01*
X27728575Y-41228635D01*
X27745845Y-41235599D01*
X27951878Y-41235599D01*
X27981539Y-41227543D01*
X27983718Y-41227071D01*
X28042072Y-41211306D01*
X28076687Y-41195529D01*
X28081240Y-41187125D01*
X28091808Y-41172029D01*
X28131564Y-41158208D01*
X28135121Y-41157467D01*
X28199388Y-41144614D01*
X28170095Y-41113171D01*
X28080750Y-41113171D01*
X27900834Y-41150097D01*
X27804039Y-41171220D01*
X27710229Y-41193802D01*
X27636866Y-41213598D01*
X27625667Y-41217012D01*
X27542971Y-41240314D01*
X27490877Y-41246110D01*
X27461022Y-41233431D01*
X27445038Y-41201308D01*
X27443612Y-41195930D01*
X27438517Y-41150385D01*
X27444920Y-41127139D01*
X27472910Y-41118787D01*
X27533160Y-41111115D01*
X27615600Y-41104603D01*
X27710156Y-41099733D01*
X27806758Y-41096986D01*
X27895334Y-41096842D01*
X27965810Y-41099781D01*
X27982935Y-41101456D01*
X28080750Y-41113171D01*
X28170095Y-41113171D01*
X28157791Y-41099964D01*
X28137827Y-41081791D01*
X28112668Y-41069420D01*
X28074556Y-41061823D01*
X28015735Y-41057974D01*
X27928448Y-41056846D01*
X27834725Y-41057200D01*
X27723544Y-41058839D01*
X27622155Y-41061962D01*
X27540973Y-41066138D01*
X27490415Y-41070937D01*
X27486786Y-41071556D01*
X27420315Y-41084026D01*
X27406758Y-40971138D01*
X27398607Y-40886135D01*
X27397595Y-40868833D01*
X27371667Y-40868833D01*
X27363923Y-40886255D01*
X27357556Y-40882944D01*
X27355023Y-40857824D01*
X27357556Y-40854722D01*
X27370140Y-40857627D01*
X27371667Y-40868833D01*
X27397595Y-40868833D01*
X27393671Y-40801757D01*
X27393018Y-40771234D01*
X27401986Y-40692108D01*
X27426661Y-40586271D01*
X27463305Y-40464615D01*
X27508181Y-40338033D01*
X27557550Y-40217417D01*
X27607676Y-40113661D01*
X27634667Y-40067008D01*
X27663630Y-40016247D01*
X27677528Y-39981862D01*
X27677104Y-39974825D01*
X27677251Y-39947149D01*
X27698315Y-39891312D01*
X27737033Y-39813900D01*
X27790138Y-39721496D01*
X27847784Y-39630583D01*
X27906466Y-39537295D01*
X27963893Y-39438195D01*
X28010027Y-39350816D01*
X28020317Y-39329178D01*
X28052699Y-39263162D01*
X28080110Y-39215734D01*
X28096748Y-39196905D01*
X28096999Y-39196887D01*
X28121857Y-39213092D01*
X28171336Y-39260987D01*
X28243873Y-39338998D01*
X28291521Y-39392458D01*
X28317087Y-39426023D01*
X28324167Y-39441495D01*
X28336943Y-39471368D01*
X28367869Y-39512442D01*
X28405841Y-39552722D01*
X28439757Y-39580213D01*
X28456793Y-39584773D01*
X28468757Y-39584710D01*
X28464069Y-39595081D01*
X28468488Y-39623275D01*
X28496363Y-39668310D01*
X28519007Y-39695481D01*
X28564106Y-39747292D01*
X28598054Y-39790521D01*
X28606674Y-39803576D01*
X28640916Y-39825141D01*
X28700217Y-39812950D01*
X28784721Y-39766961D01*
X28830074Y-39735899D01*
X28943802Y-39664455D01*
X29068839Y-39602434D01*
X29185946Y-39559197D01*
X29202584Y-39554667D01*
X29249514Y-39540641D01*
X29324151Y-39516106D01*
X29414442Y-39485087D01*
X29471649Y-39464846D01*
X29579952Y-39429179D01*
X29694446Y-39396480D01*
X29796367Y-39371946D01*
X29831482Y-39365228D01*
X29989162Y-39350378D01*
X30175484Y-39352433D01*
X30380749Y-39370355D01*
X30595257Y-39403109D01*
X30809306Y-39449656D01*
X30929740Y-39482659D01*
X30999658Y-39506670D01*
X31088432Y-39541893D01*
X31188779Y-39584880D01*
X31293419Y-39632183D01*
X31395069Y-39680356D01*
X31486448Y-39725950D01*
X31560273Y-39765518D01*
X31609262Y-39795613D01*
X31626167Y-39812379D01*
X31642734Y-39820384D01*
X31663209Y-39817087D01*
X31697241Y-39794404D01*
X31746846Y-39745287D01*
X31806424Y-39677168D01*
X31870375Y-39597482D01*
X31933100Y-39513663D01*
X31988999Y-39433144D01*
X32032471Y-39363359D01*
X32057917Y-39311742D01*
X32061478Y-39288376D01*
X32068632Y-39259781D01*
X32078457Y-39253584D01*
X32100769Y-39228705D01*
X32125521Y-39178236D01*
X32133775Y-39155521D01*
X32163623Y-39083591D01*
X32191393Y-39053843D01*
X32216561Y-39066156D01*
X32238605Y-39120407D01*
X32251873Y-39183131D01*
X32263599Y-39233486D01*
X32276671Y-39245755D01*
X32286375Y-39236480D01*
X32299051Y-39225741D01*
X32297073Y-39252549D01*
X32295251Y-39261376D01*
X32296110Y-39305285D01*
X32308404Y-39379181D01*
X32330197Y-39472886D01*
X32347650Y-39536542D01*
X32375932Y-39639593D01*
X32400506Y-39739130D01*
X32418048Y-39821173D01*
X32424060Y-39858125D01*
X32434295Y-39919560D01*
X32449524Y-39949415D01*
X32476279Y-39958417D01*
X32485288Y-39958666D01*
X32538624Y-39978721D01*
X32593731Y-40034836D01*
X32648284Y-40120936D01*
X32699956Y-40230946D01*
X32746424Y-40358792D01*
X32785362Y-40498398D01*
X32814445Y-40643690D01*
X32831347Y-40788594D01*
X32834664Y-40871434D01*
X32903973Y-40871434D01*
X32897524Y-40717056D01*
X32896595Y-40710083D01*
X32875000Y-40710083D01*
X32864417Y-40720666D01*
X32853834Y-40710083D01*
X32864417Y-40699500D01*
X32875000Y-40710083D01*
X32896595Y-40710083D01*
X32875787Y-40553927D01*
X32837016Y-40402450D01*
X32778002Y-40247963D01*
X32745888Y-40177557D01*
X32674208Y-40046586D01*
X32601711Y-39953241D01*
X32580869Y-39933711D01*
X32518382Y-39867498D01*
X32486718Y-39797450D01*
X32482608Y-39778321D01*
X32470372Y-39723934D01*
X32448812Y-39641109D01*
X32421152Y-39541843D01*
X32395480Y-39454252D01*
X32364254Y-39347635D01*
X32335441Y-39244637D01*
X32312643Y-39158396D01*
X32301126Y-39110148D01*
X32285833Y-39052790D01*
X32270960Y-39019172D01*
X32263806Y-39015119D01*
X32262572Y-39013222D01*
X32190612Y-39013222D01*
X32187706Y-39025805D01*
X32176500Y-39027333D01*
X32159078Y-39019588D01*
X32162389Y-39013222D01*
X32187509Y-39010688D01*
X32190612Y-39013222D01*
X32262572Y-39013222D01*
X32256083Y-39003254D01*
X32256256Y-38962146D01*
X32257323Y-38951765D01*
X32259378Y-38902471D01*
X32245695Y-38882349D01*
X32221150Y-38879166D01*
X32184335Y-38892473D01*
G36*
X30151556Y-42844388D02*
G01*
X30154462Y-42856972D01*
X30165667Y-42858500D01*
X30183090Y-42850755D01*
X30179778Y-42844388D01*
X30154658Y-42841855D01*
X30151556Y-42844388D01*
G37*
X30151556Y-42844388D02*
X30154462Y-42856972D01*
X30165667Y-42858500D01*
X30183090Y-42850755D01*
X30179778Y-42844388D01*
X30154658Y-42841855D01*
X30151556Y-42844388D01*
G36*
X30483167Y-42805583D02*
G01*
X30493750Y-42816166D01*
X30504334Y-42805583D01*
X30493750Y-42795000D01*
X30483167Y-42805583D01*
G37*
X30483167Y-42805583D02*
X30493750Y-42816166D01*
X30504334Y-42805583D01*
X30493750Y-42795000D01*
X30483167Y-42805583D01*
G36*
X30123334Y-42805583D02*
G01*
X30133917Y-42816166D01*
X30144500Y-42805583D01*
X30133917Y-42795000D01*
X30123334Y-42805583D01*
G37*
X30123334Y-42805583D02*
X30133917Y-42816166D01*
X30144500Y-42805583D01*
X30133917Y-42795000D01*
X30123334Y-42805583D01*
G36*
X30631334Y-42720916D02*
G01*
X30641917Y-42731500D01*
X30652500Y-42720916D01*
X30641917Y-42710333D01*
X30631334Y-42720916D01*
G37*
X30631334Y-42720916D02*
X30641917Y-42731500D01*
X30652500Y-42720916D01*
X30641917Y-42710333D01*
X30631334Y-42720916D01*
G36*
X30791183Y-42681090D02*
G01*
X30761390Y-42698170D01*
X30766381Y-42709215D01*
X30778251Y-42710333D01*
X30806954Y-42694960D01*
X30811101Y-42689409D01*
X30807694Y-42677381D01*
X30791183Y-42681090D01*
G37*
X30791183Y-42681090D02*
X30761390Y-42698170D01*
X30766381Y-42709215D01*
X30778251Y-42710333D01*
X30806954Y-42694960D01*
X30811101Y-42689409D01*
X30807694Y-42677381D01*
X30791183Y-42681090D01*
G36*
X30088056Y-42696222D02*
G01*
X30090962Y-42708805D01*
X30102167Y-42710333D01*
X30119590Y-42702588D01*
X30116278Y-42696222D01*
X30091158Y-42693688D01*
X30088056Y-42696222D01*
G37*
X30088056Y-42696222D02*
X30090962Y-42708805D01*
X30102167Y-42710333D01*
X30119590Y-42702588D01*
X30116278Y-42696222D01*
X30091158Y-42693688D01*
X30088056Y-42696222D01*
G36*
X29975167Y-42699750D02*
G01*
X29985750Y-42710333D01*
X29996334Y-42699750D01*
X29985750Y-42689166D01*
X29975167Y-42699750D01*
G37*
X29975167Y-42699750D02*
X29985750Y-42710333D01*
X29996334Y-42699750D01*
X29985750Y-42689166D01*
X29975167Y-42699750D01*
G36*
X29361334Y-42699750D02*
G01*
X29371917Y-42710333D01*
X29382500Y-42699750D01*
X29371917Y-42689166D01*
X29361334Y-42699750D01*
G37*
X29361334Y-42699750D02*
X29371917Y-42710333D01*
X29382500Y-42699750D01*
X29371917Y-42689166D01*
X29361334Y-42699750D01*
G36*
X29276667Y-42678583D02*
G01*
X29287250Y-42689166D01*
X29297834Y-42678583D01*
X29287250Y-42668000D01*
X29276667Y-42678583D01*
G37*
X29276667Y-42678583D02*
X29287250Y-42689166D01*
X29297834Y-42678583D01*
X29287250Y-42668000D01*
X29276667Y-42678583D01*
G36*
X30027783Y-42181416D02*
G01*
X29992241Y-42195881D01*
X29976337Y-42192472D01*
X29962815Y-42194655D01*
X29965518Y-42207719D01*
X29959950Y-42240974D01*
X29932292Y-42287276D01*
X29922968Y-42298777D01*
X29885433Y-42356728D01*
X29870527Y-42425568D01*
X29869360Y-42461625D01*
X29873875Y-42524278D01*
X29885958Y-42558556D01*
X29892765Y-42562166D01*
X29906689Y-42577649D01*
X29903591Y-42595016D01*
X29901434Y-42617282D01*
X29909511Y-42616415D01*
X29936172Y-42620847D01*
X29954751Y-42637154D01*
X29997955Y-42660933D01*
X30059445Y-42665867D01*
X30121053Y-42653583D01*
X30164608Y-42625703D01*
X30169807Y-42617931D01*
X30180773Y-42571520D01*
X30182610Y-42500079D01*
X30179579Y-42458117D01*
X30169374Y-42368400D01*
X30159482Y-42309418D01*
X30146447Y-42269744D01*
X30126811Y-42237949D01*
X30105037Y-42211666D01*
X30067835Y-42176427D01*
X30040358Y-42173294D01*
X30027783Y-42181416D01*
G37*
X30027783Y-42181416D02*
X29992241Y-42195881D01*
X29976337Y-42192472D01*
X29962815Y-42194655D01*
X29965518Y-42207719D01*
X29959950Y-42240974D01*
X29932292Y-42287276D01*
X29922968Y-42298777D01*
X29885433Y-42356728D01*
X29870527Y-42425568D01*
X29869360Y-42461625D01*
X29873875Y-42524278D01*
X29885958Y-42558556D01*
X29892765Y-42562166D01*
X29906689Y-42577649D01*
X29903591Y-42595016D01*
X29901434Y-42617282D01*
X29909511Y-42616415D01*
X29936172Y-42620847D01*
X29954751Y-42637154D01*
X29997955Y-42660933D01*
X30059445Y-42665867D01*
X30121053Y-42653583D01*
X30164608Y-42625703D01*
X30169807Y-42617931D01*
X30180773Y-42571520D01*
X30182610Y-42500079D01*
X30179579Y-42458117D01*
X30169374Y-42368400D01*
X30159482Y-42309418D01*
X30146447Y-42269744D01*
X30126811Y-42237949D01*
X30105037Y-42211666D01*
X30067835Y-42176427D01*
X30040358Y-42173294D01*
X30027783Y-42181416D01*
G36*
X29368389Y-42653888D02*
G01*
X29371295Y-42666472D01*
X29382500Y-42668000D01*
X29399923Y-42660255D01*
X29396612Y-42653888D01*
X29371492Y-42651355D01*
X29368389Y-42653888D01*
G37*
X29368389Y-42653888D02*
X29371295Y-42666472D01*
X29382500Y-42668000D01*
X29399923Y-42660255D01*
X29396612Y-42653888D01*
X29371492Y-42651355D01*
X29368389Y-42653888D01*
G36*
X29220223Y-42653888D02*
G01*
X29223128Y-42666472D01*
X29234334Y-42668000D01*
X29251756Y-42660255D01*
X29248445Y-42653888D01*
X29223325Y-42651355D01*
X29220223Y-42653888D01*
G37*
X29220223Y-42653888D02*
X29223128Y-42666472D01*
X29234334Y-42668000D01*
X29251756Y-42660255D01*
X29248445Y-42653888D01*
X29223325Y-42651355D01*
X29220223Y-42653888D01*
G36*
X30885334Y-42636250D02*
G01*
X30895917Y-42646833D01*
X30906500Y-42636250D01*
X30895917Y-42625666D01*
X30885334Y-42636250D01*
G37*
X30885334Y-42636250D02*
X30895917Y-42646833D01*
X30906500Y-42636250D01*
X30895917Y-42625666D01*
X30885334Y-42636250D01*
G36*
X30779500Y-42636250D02*
G01*
X30790084Y-42646833D01*
X30800667Y-42636250D01*
X30790084Y-42625666D01*
X30779500Y-42636250D01*
G37*
X30779500Y-42636250D02*
X30790084Y-42646833D01*
X30800667Y-42636250D01*
X30790084Y-42625666D01*
X30779500Y-42636250D01*
G36*
X29276667Y-42636250D02*
G01*
X29287250Y-42646833D01*
X29297834Y-42636250D01*
X29287250Y-42625666D01*
X29276667Y-42636250D01*
G37*
X29276667Y-42636250D02*
X29287250Y-42646833D01*
X29297834Y-42636250D01*
X29287250Y-42625666D01*
X29276667Y-42636250D01*
G36*
X29072444Y-42533698D02*
G01*
X29073032Y-42549031D01*
X29084893Y-42586350D01*
X29091022Y-42595243D01*
X29099891Y-42590634D01*
X29099303Y-42575302D01*
X29087441Y-42537983D01*
X29081313Y-42529089D01*
X29072444Y-42533698D01*
G37*
X29072444Y-42533698D02*
X29073032Y-42549031D01*
X29084893Y-42586350D01*
X29091022Y-42595243D01*
X29099891Y-42590634D01*
X29099303Y-42575302D01*
X29087441Y-42537983D01*
X29081313Y-42529089D01*
X29072444Y-42533698D01*
G36*
X30779500Y-42572750D02*
G01*
X30790084Y-42583333D01*
X30800667Y-42572750D01*
X30790084Y-42562166D01*
X30779500Y-42572750D01*
G37*
X30779500Y-42572750D02*
X30790084Y-42583333D01*
X30800667Y-42572750D01*
X30790084Y-42562166D01*
X30779500Y-42572750D01*
G36*
X29218900Y-42570545D02*
G01*
X29225213Y-42580165D01*
X29246681Y-42581662D01*
X29269267Y-42576492D01*
X29259469Y-42568874D01*
X29226388Y-42566350D01*
X29218900Y-42570545D01*
G37*
X29218900Y-42570545D02*
X29225213Y-42580165D01*
X29246681Y-42581662D01*
X29269267Y-42576492D01*
X29259469Y-42568874D01*
X29226388Y-42566350D01*
X29218900Y-42570545D01*
G36*
X31125223Y-42505722D02*
G01*
X31122689Y-42530842D01*
X31125223Y-42533944D01*
X31137806Y-42531038D01*
X31139334Y-42519833D01*
X31131589Y-42502410D01*
X31125223Y-42505722D01*
G37*
X31125223Y-42505722D02*
X31122689Y-42530842D01*
X31125223Y-42533944D01*
X31137806Y-42531038D01*
X31139334Y-42519833D01*
X31131589Y-42502410D01*
X31125223Y-42505722D01*
G36*
X30580829Y-42003253D02*
G01*
X30562037Y-42032594D01*
X30555786Y-42099414D01*
X30562094Y-42200752D01*
X30578734Y-42320283D01*
X30607927Y-42396237D01*
X30662252Y-42460864D01*
X30731141Y-42506605D01*
X30804026Y-42525901D01*
X30855508Y-42518259D01*
X30891466Y-42496793D01*
X30925765Y-42465493D01*
X30949161Y-42435012D01*
X30952409Y-42416004D01*
X30945981Y-42414000D01*
X30931584Y-42395395D01*
X30934172Y-42345208D01*
X30939069Y-42307160D01*
X30936086Y-42301125D01*
X30934473Y-42304618D01*
X30918982Y-42309738D01*
X30896056Y-42287217D01*
X30872934Y-42249122D01*
X30856858Y-42207521D01*
X30855068Y-42174480D01*
X30855555Y-42173080D01*
X30853538Y-42138781D01*
X30844686Y-42129291D01*
X30830837Y-42131909D01*
X30834431Y-42153608D01*
X30835092Y-42170489D01*
X30814570Y-42152515D01*
X30802936Y-42138833D01*
X30738548Y-42063109D01*
X30691655Y-42016565D01*
X30654454Y-41994438D01*
X30619140Y-41991965D01*
X30580829Y-42003253D01*
G37*
X30580829Y-42003253D02*
X30562037Y-42032594D01*
X30555786Y-42099414D01*
X30562094Y-42200752D01*
X30578734Y-42320283D01*
X30607927Y-42396237D01*
X30662252Y-42460864D01*
X30731141Y-42506605D01*
X30804026Y-42525901D01*
X30855508Y-42518259D01*
X30891466Y-42496793D01*
X30925765Y-42465493D01*
X30949161Y-42435012D01*
X30952409Y-42416004D01*
X30945981Y-42414000D01*
X30931584Y-42395395D01*
X30934172Y-42345208D01*
X30939069Y-42307160D01*
X30936086Y-42301125D01*
X30934473Y-42304618D01*
X30918982Y-42309738D01*
X30896056Y-42287217D01*
X30872934Y-42249122D01*
X30856858Y-42207521D01*
X30855068Y-42174480D01*
X30855555Y-42173080D01*
X30853538Y-42138781D01*
X30844686Y-42129291D01*
X30830837Y-42131909D01*
X30834431Y-42153608D01*
X30835092Y-42170489D01*
X30814570Y-42152515D01*
X30802936Y-42138833D01*
X30738548Y-42063109D01*
X30691655Y-42016565D01*
X30654454Y-41994438D01*
X30619140Y-41991965D01*
X30580829Y-42003253D01*
G36*
X29784667Y-42530416D02*
G01*
X29795250Y-42541000D01*
X29805834Y-42530416D01*
X29795250Y-42519833D01*
X29784667Y-42530416D01*
G37*
X29784667Y-42530416D02*
X29795250Y-42541000D01*
X29805834Y-42530416D01*
X29795250Y-42519833D01*
X29784667Y-42530416D01*
G36*
X29834056Y-42484555D02*
G01*
X29831523Y-42509675D01*
X29834056Y-42512777D01*
X29846640Y-42509872D01*
X29848167Y-42498666D01*
X29840423Y-42481244D01*
X29834056Y-42484555D01*
G37*
X29834056Y-42484555D02*
X29831523Y-42509675D01*
X29834056Y-42512777D01*
X29846640Y-42509872D01*
X29848167Y-42498666D01*
X29840423Y-42481244D01*
X29834056Y-42484555D01*
G36*
X29022667Y-42509250D02*
G01*
X29033250Y-42519833D01*
X29043834Y-42509250D01*
X29033250Y-42498666D01*
X29022667Y-42509250D01*
G37*
X29022667Y-42509250D02*
X29033250Y-42519833D01*
X29043834Y-42509250D01*
X29033250Y-42498666D01*
X29022667Y-42509250D01*
G36*
X31054667Y-42488083D02*
G01*
X31065250Y-42498666D01*
X31075834Y-42488083D01*
X31065250Y-42477500D01*
X31054667Y-42488083D01*
G37*
X31054667Y-42488083D02*
X31065250Y-42498666D01*
X31075834Y-42488083D01*
X31065250Y-42477500D01*
X31054667Y-42488083D01*
G36*
X30970000Y-42488083D02*
G01*
X30980584Y-42498666D01*
X30991167Y-42488083D01*
X30980584Y-42477500D01*
X30970000Y-42488083D01*
G37*
X30970000Y-42488083D02*
X30980584Y-42498666D01*
X30991167Y-42488083D01*
X30980584Y-42477500D01*
X30970000Y-42488083D01*
G36*
X29356525Y-42092917D02*
G01*
X29340361Y-42106850D01*
X29309114Y-42126914D01*
X29292165Y-42124746D01*
X29279720Y-42124359D01*
X29283227Y-42132323D01*
X29277658Y-42158717D01*
X29247864Y-42199047D01*
X29233845Y-42213385D01*
X29188662Y-42272160D01*
X29159540Y-42338151D01*
X29157467Y-42347311D01*
X29153018Y-42403785D01*
X29170940Y-42441244D01*
X29191298Y-42460020D01*
X29253180Y-42489821D01*
X29326884Y-42498015D01*
X29394936Y-42484606D01*
X29432137Y-42459958D01*
X29454593Y-42416718D01*
X29465494Y-42345162D01*
X29467167Y-42285133D01*
X29469353Y-42207401D01*
X29477929Y-42160432D01*
X29495924Y-42132792D01*
X29510361Y-42122041D01*
X29553595Y-42106427D01*
X29579153Y-42109471D01*
X29594159Y-42115083D01*
X29579189Y-42096268D01*
X29552599Y-42079679D01*
X29520719Y-42095865D01*
X29517539Y-42098455D01*
X29487266Y-42116450D01*
X29472663Y-42102140D01*
X29472544Y-42101791D01*
X29446338Y-42080033D01*
X29401422Y-42077314D01*
X29356525Y-42092917D01*
G37*
X29356525Y-42092917D02*
X29340361Y-42106850D01*
X29309114Y-42126914D01*
X29292165Y-42124746D01*
X29279720Y-42124359D01*
X29283227Y-42132323D01*
X29277658Y-42158717D01*
X29247864Y-42199047D01*
X29233845Y-42213385D01*
X29188662Y-42272160D01*
X29159540Y-42338151D01*
X29157467Y-42347311D01*
X29153018Y-42403785D01*
X29170940Y-42441244D01*
X29191298Y-42460020D01*
X29253180Y-42489821D01*
X29326884Y-42498015D01*
X29394936Y-42484606D01*
X29432137Y-42459958D01*
X29454593Y-42416718D01*
X29465494Y-42345162D01*
X29467167Y-42285133D01*
X29469353Y-42207401D01*
X29477929Y-42160432D01*
X29495924Y-42132792D01*
X29510361Y-42122041D01*
X29553595Y-42106427D01*
X29579153Y-42109471D01*
X29594159Y-42115083D01*
X29579189Y-42096268D01*
X29552599Y-42079679D01*
X29520719Y-42095865D01*
X29517539Y-42098455D01*
X29487266Y-42116450D01*
X29472663Y-42102140D01*
X29472544Y-42101791D01*
X29446338Y-42080033D01*
X29401422Y-42077314D01*
X29356525Y-42092917D01*
G36*
X29086167Y-42488083D02*
G01*
X29096750Y-42498666D01*
X29107334Y-42488083D01*
X29096750Y-42477500D01*
X29086167Y-42488083D01*
G37*
X29086167Y-42488083D02*
X29096750Y-42498666D01*
X29107334Y-42488083D01*
X29096750Y-42477500D01*
X29086167Y-42488083D01*
G36*
X29001500Y-42466916D02*
G01*
X29012084Y-42477500D01*
X29022667Y-42466916D01*
X29012084Y-42456333D01*
X29001500Y-42466916D01*
G37*
X29001500Y-42466916D02*
X29012084Y-42477500D01*
X29022667Y-42466916D01*
X29012084Y-42456333D01*
X29001500Y-42466916D01*
G36*
X30229167Y-42445750D02*
G01*
X30239750Y-42456333D01*
X30250334Y-42445750D01*
X30239750Y-42435166D01*
X30229167Y-42445750D01*
G37*
X30229167Y-42445750D02*
X30239750Y-42456333D01*
X30250334Y-42445750D01*
X30239750Y-42435166D01*
X30229167Y-42445750D01*
G36*
X29537723Y-42421055D02*
G01*
X29535189Y-42446175D01*
X29537723Y-42449277D01*
X29550306Y-42446372D01*
X29551834Y-42435166D01*
X29544089Y-42417744D01*
X29537723Y-42421055D01*
G37*
X29537723Y-42421055D02*
X29535189Y-42446175D01*
X29537723Y-42449277D01*
X29550306Y-42446372D01*
X29551834Y-42435166D01*
X29544089Y-42417744D01*
X29537723Y-42421055D01*
G36*
X29827000Y-42403416D02*
G01*
X29806808Y-42422437D01*
X29805834Y-42425832D01*
X29822210Y-42434923D01*
X29827000Y-42435166D01*
X29847354Y-42418894D01*
X29848167Y-42412750D01*
X29835200Y-42400109D01*
X29827000Y-42403416D01*
G37*
X29827000Y-42403416D02*
X29806808Y-42422437D01*
X29805834Y-42425832D01*
X29822210Y-42434923D01*
X29827000Y-42435166D01*
X29847354Y-42418894D01*
X29848167Y-42412750D01*
X29835200Y-42400109D01*
X29827000Y-42403416D01*
G36*
X30553723Y-42378722D02*
G01*
X30551189Y-42403842D01*
X30553723Y-42406944D01*
X30566306Y-42404038D01*
X30567834Y-42392833D01*
X30560089Y-42375410D01*
X30553723Y-42378722D01*
G37*
X30553723Y-42378722D02*
X30551189Y-42403842D01*
X30553723Y-42406944D01*
X30566306Y-42404038D01*
X30567834Y-42392833D01*
X30560089Y-42375410D01*
X30553723Y-42378722D01*
G36*
X31245167Y-42382250D02*
G01*
X31255750Y-42392833D01*
X31266334Y-42382250D01*
X31255750Y-42371666D01*
X31245167Y-42382250D01*
G37*
X31245167Y-42382250D02*
X31255750Y-42392833D01*
X31266334Y-42382250D01*
X31255750Y-42371666D01*
X31245167Y-42382250D01*
G36*
X28887359Y-42328060D02*
G01*
X28883572Y-42350802D01*
X28886154Y-42387356D01*
X28896885Y-42385310D01*
X28907390Y-42369822D01*
X28908439Y-42336102D01*
X28902592Y-42327791D01*
X28887359Y-42328060D01*
G37*
X28887359Y-42328060D02*
X28883572Y-42350802D01*
X28886154Y-42387356D01*
X28896885Y-42385310D01*
X28907390Y-42369822D01*
X28908439Y-42336102D01*
X28902592Y-42327791D01*
X28887359Y-42328060D01*
G36*
X30483167Y-42361083D02*
G01*
X30493750Y-42371666D01*
X30504334Y-42361083D01*
X30493750Y-42350500D01*
X30483167Y-42361083D01*
G37*
X30483167Y-42361083D02*
X30493750Y-42371666D01*
X30504334Y-42361083D01*
X30493750Y-42350500D01*
X30483167Y-42361083D01*
G36*
X29784667Y-42361083D02*
G01*
X29795250Y-42371666D01*
X29805834Y-42361083D01*
X29795250Y-42350500D01*
X29784667Y-42361083D01*
G37*
X29784667Y-42361083D02*
X29795250Y-42371666D01*
X29805834Y-42361083D01*
X29795250Y-42350500D01*
X29784667Y-42361083D01*
G36*
X30215056Y-42294055D02*
G01*
X30212523Y-42319175D01*
X30215056Y-42322277D01*
X30227640Y-42319372D01*
X30229167Y-42308166D01*
X30221423Y-42290744D01*
X30215056Y-42294055D01*
G37*
X30215056Y-42294055D02*
X30212523Y-42319175D01*
X30215056Y-42322277D01*
X30227640Y-42319372D01*
X30229167Y-42308166D01*
X30221423Y-42290744D01*
X30215056Y-42294055D01*
G36*
X29495389Y-42294055D02*
G01*
X29492856Y-42319175D01*
X29495389Y-42322277D01*
X29507973Y-42319372D01*
X29509500Y-42308166D01*
X29501756Y-42290744D01*
X29495389Y-42294055D01*
G37*
X29495389Y-42294055D02*
X29492856Y-42319175D01*
X29495389Y-42322277D01*
X29507973Y-42319372D01*
X29509500Y-42308166D01*
X29501756Y-42290744D01*
X29495389Y-42294055D01*
G36*
X31139334Y-42297583D02*
G01*
X31149917Y-42308166D01*
X31160500Y-42297583D01*
X31149917Y-42287000D01*
X31139334Y-42297583D01*
G37*
X31139334Y-42297583D02*
X31149917Y-42308166D01*
X31160500Y-42297583D01*
X31149917Y-42287000D01*
X31139334Y-42297583D01*
G36*
X30271500Y-42297583D02*
G01*
X30282084Y-42308166D01*
X30292667Y-42297583D01*
X30282084Y-42287000D01*
X30271500Y-42297583D01*
G37*
X30271500Y-42297583D02*
X30282084Y-42308166D01*
X30292667Y-42297583D01*
X30282084Y-42287000D01*
X30271500Y-42297583D01*
G36*
X29805834Y-42297583D02*
G01*
X29816417Y-42308166D01*
X29827000Y-42297583D01*
X29816417Y-42287000D01*
X29805834Y-42297583D01*
G37*
X29805834Y-42297583D02*
X29816417Y-42308166D01*
X29827000Y-42297583D01*
X29816417Y-42287000D01*
X29805834Y-42297583D01*
G36*
X29128500Y-42297583D02*
G01*
X29139084Y-42308166D01*
X29149667Y-42297583D01*
X29139084Y-42287000D01*
X29128500Y-42297583D01*
G37*
X29128500Y-42297583D02*
X29139084Y-42308166D01*
X29149667Y-42297583D01*
X29139084Y-42287000D01*
X29128500Y-42297583D01*
G36*
X31358056Y-42272888D02*
G01*
X31360962Y-42285472D01*
X31372167Y-42287000D01*
X31389590Y-42279255D01*
X31386278Y-42272888D01*
X31361158Y-42270355D01*
X31358056Y-42272888D01*
G37*
X31358056Y-42272888D02*
X31360962Y-42285472D01*
X31372167Y-42287000D01*
X31389590Y-42279255D01*
X31386278Y-42272888D01*
X31361158Y-42270355D01*
X31358056Y-42272888D01*
G36*
X29594167Y-42276416D02*
G01*
X29604750Y-42287000D01*
X29615334Y-42276416D01*
X29604750Y-42265833D01*
X29594167Y-42276416D01*
G37*
X29594167Y-42276416D02*
X29604750Y-42287000D01*
X29615334Y-42276416D01*
X29604750Y-42265833D01*
X29594167Y-42276416D01*
G36*
X30927667Y-42255250D02*
G01*
X30938250Y-42265833D01*
X30948834Y-42255250D01*
X30938250Y-42244666D01*
X30927667Y-42255250D01*
G37*
X30927667Y-42255250D02*
X30938250Y-42265833D01*
X30948834Y-42255250D01*
X30938250Y-42244666D01*
X30927667Y-42255250D01*
G36*
X29537723Y-42230555D02*
G01*
X29535189Y-42255675D01*
X29537723Y-42258777D01*
X29550306Y-42255872D01*
X29551834Y-42244666D01*
X29544089Y-42227244D01*
X29537723Y-42230555D01*
G37*
X29537723Y-42230555D02*
X29535189Y-42255675D01*
X29537723Y-42258777D01*
X29550306Y-42255872D01*
X29551834Y-42244666D01*
X29544089Y-42227244D01*
X29537723Y-42230555D01*
G36*
X31167556Y-42230555D02*
G01*
X31170462Y-42243139D01*
X31181667Y-42244666D01*
X31199090Y-42236922D01*
X31195778Y-42230555D01*
X31170658Y-42228022D01*
X31167556Y-42230555D01*
G37*
X31167556Y-42230555D02*
X31170462Y-42243139D01*
X31181667Y-42244666D01*
X31199090Y-42236922D01*
X31195778Y-42230555D01*
X31170658Y-42228022D01*
X31167556Y-42230555D01*
G36*
X30885334Y-42212916D02*
G01*
X30895917Y-42223500D01*
X30906500Y-42212916D01*
X30895917Y-42202333D01*
X30885334Y-42212916D01*
G37*
X30885334Y-42212916D02*
X30895917Y-42223500D01*
X30906500Y-42212916D01*
X30895917Y-42202333D01*
X30885334Y-42212916D01*
G36*
X29573000Y-42212916D02*
G01*
X29583584Y-42223500D01*
X29594167Y-42212916D01*
X29583584Y-42202333D01*
X29573000Y-42212916D01*
G37*
X29573000Y-42212916D02*
X29583584Y-42223500D01*
X29594167Y-42212916D01*
X29583584Y-42202333D01*
X29573000Y-42212916D01*
G36*
X31078726Y-41770913D02*
G01*
X31058535Y-41782886D01*
X31037772Y-41801573D01*
X31029737Y-41826378D01*
X31033653Y-41869041D01*
X31048209Y-41938925D01*
X31087869Y-42060356D01*
X31144523Y-42143792D01*
X31219378Y-42190515D01*
X31295690Y-42202333D01*
X31364712Y-42196476D01*
X31406719Y-42175599D01*
X31422052Y-42157904D01*
X31440067Y-42096910D01*
X31419508Y-42022831D01*
X31361191Y-41938104D01*
X31341115Y-41915869D01*
X31303129Y-41871294D01*
X31283777Y-41839847D01*
X31283594Y-41832295D01*
X31276919Y-41822775D01*
X31262530Y-41821333D01*
X31222492Y-41812295D01*
X31168407Y-41790321D01*
X31164044Y-41788178D01*
X31113486Y-41767870D01*
X31078726Y-41770913D01*
G37*
X31078726Y-41770913D02*
X31058535Y-41782886D01*
X31037772Y-41801573D01*
X31029737Y-41826378D01*
X31033653Y-41869041D01*
X31048209Y-41938925D01*
X31087869Y-42060356D01*
X31144523Y-42143792D01*
X31219378Y-42190515D01*
X31295690Y-42202333D01*
X31364712Y-42196476D01*
X31406719Y-42175599D01*
X31422052Y-42157904D01*
X31440067Y-42096910D01*
X31419508Y-42022831D01*
X31361191Y-41938104D01*
X31341115Y-41915869D01*
X31303129Y-41871294D01*
X31283777Y-41839847D01*
X31283594Y-41832295D01*
X31276919Y-41822775D01*
X31262530Y-41821333D01*
X31222492Y-41812295D01*
X31168407Y-41790321D01*
X31164044Y-41788178D01*
X31113486Y-41767870D01*
X31078726Y-41770913D01*
G36*
X29488334Y-42191750D02*
G01*
X29498917Y-42202333D01*
X29509500Y-42191750D01*
X29498917Y-42181166D01*
X29488334Y-42191750D01*
G37*
X29488334Y-42191750D02*
X29498917Y-42202333D01*
X29509500Y-42191750D01*
X29498917Y-42181166D01*
X29488334Y-42191750D01*
G36*
X29192000Y-42191750D02*
G01*
X29202584Y-42202333D01*
X29213167Y-42191750D01*
X29202584Y-42181166D01*
X29192000Y-42191750D01*
G37*
X29192000Y-42191750D02*
X29202584Y-42202333D01*
X29213167Y-42191750D01*
X29202584Y-42181166D01*
X29192000Y-42191750D01*
G36*
X28747500Y-42170583D02*
G01*
X28758084Y-42181166D01*
X28768667Y-42170583D01*
X28758084Y-42160000D01*
X28747500Y-42170583D01*
G37*
X28747500Y-42170583D02*
X28758084Y-42181166D01*
X28768667Y-42170583D01*
X28758084Y-42160000D01*
X28747500Y-42170583D01*
G36*
X29996334Y-42149416D02*
G01*
X30006917Y-42160000D01*
X30017500Y-42149416D01*
X30006917Y-42138833D01*
X29996334Y-42149416D01*
G37*
X29996334Y-42149416D02*
X30006917Y-42160000D01*
X30017500Y-42149416D01*
X30006917Y-42138833D01*
X29996334Y-42149416D01*
G36*
X29241389Y-42124722D02*
G01*
X29238856Y-42149842D01*
X29241389Y-42152944D01*
X29253973Y-42150038D01*
X29255500Y-42138833D01*
X29247756Y-42121410D01*
X29241389Y-42124722D01*
G37*
X29241389Y-42124722D02*
X29238856Y-42149842D01*
X29241389Y-42152944D01*
X29253973Y-42150038D01*
X29255500Y-42138833D01*
X29247756Y-42121410D01*
X29241389Y-42124722D01*
G36*
X30885334Y-42128250D02*
G01*
X30895917Y-42138833D01*
X30906500Y-42128250D01*
X30895917Y-42117666D01*
X30885334Y-42128250D01*
G37*
X30885334Y-42128250D02*
X30895917Y-42138833D01*
X30906500Y-42128250D01*
X30895917Y-42117666D01*
X30885334Y-42128250D01*
G36*
X30059834Y-42128250D02*
G01*
X30070417Y-42138833D01*
X30081000Y-42128250D01*
X30070417Y-42117666D01*
X30059834Y-42128250D01*
G37*
X30059834Y-42128250D02*
X30070417Y-42138833D01*
X30081000Y-42128250D01*
X30070417Y-42117666D01*
X30059834Y-42128250D01*
G36*
X29954000Y-42128250D02*
G01*
X29964584Y-42138833D01*
X29975167Y-42128250D01*
X29964584Y-42117666D01*
X29954000Y-42128250D01*
G37*
X29954000Y-42128250D02*
X29964584Y-42138833D01*
X29975167Y-42128250D01*
X29964584Y-42117666D01*
X29954000Y-42128250D01*
G36*
X29107334Y-42128250D02*
G01*
X29117917Y-42138833D01*
X29128500Y-42128250D01*
X29117917Y-42117666D01*
X29107334Y-42128250D01*
G37*
X29107334Y-42128250D02*
X29117917Y-42138833D01*
X29128500Y-42128250D01*
X29117917Y-42117666D01*
X29107334Y-42128250D01*
G36*
X28712223Y-42103555D02*
G01*
X28709689Y-42128675D01*
X28712223Y-42131777D01*
X28724806Y-42128872D01*
X28726334Y-42117666D01*
X28718589Y-42100244D01*
X28712223Y-42103555D01*
G37*
X28712223Y-42103555D02*
X28709689Y-42128675D01*
X28712223Y-42131777D01*
X28724806Y-42128872D01*
X28726334Y-42117666D01*
X28718589Y-42100244D01*
X28712223Y-42103555D01*
G36*
X31054667Y-42107083D02*
G01*
X31065250Y-42117666D01*
X31075834Y-42107083D01*
X31065250Y-42096500D01*
X31054667Y-42107083D01*
G37*
X31054667Y-42107083D02*
X31065250Y-42117666D01*
X31075834Y-42107083D01*
X31065250Y-42096500D01*
X31054667Y-42107083D01*
G36*
X30511041Y-42071364D02*
G01*
X30508518Y-42104445D01*
X30512712Y-42111934D01*
X30522333Y-42105621D01*
X30523829Y-42084152D01*
X30518660Y-42061567D01*
X30511041Y-42071364D01*
G37*
X30511041Y-42071364D02*
X30508518Y-42104445D01*
X30512712Y-42111934D01*
X30522333Y-42105621D01*
X30523829Y-42084152D01*
X30518660Y-42061567D01*
X30511041Y-42071364D01*
G36*
X29849029Y-42090698D02*
G01*
X29848167Y-42096500D01*
X29855389Y-42117116D01*
X29857501Y-42117666D01*
X29875573Y-42102834D01*
X29879917Y-42096500D01*
X29878239Y-42076995D01*
X29870583Y-42075333D01*
X29849029Y-42090698D01*
G37*
X29849029Y-42090698D02*
X29848167Y-42096500D01*
X29855389Y-42117116D01*
X29857501Y-42117666D01*
X29875573Y-42102834D01*
X29879917Y-42096500D01*
X29878239Y-42076995D01*
X29870583Y-42075333D01*
X29849029Y-42090698D01*
G36*
X29721167Y-42107083D02*
G01*
X29731750Y-42117666D01*
X29742334Y-42107083D01*
X29731750Y-42096500D01*
X29721167Y-42107083D01*
G37*
X29721167Y-42107083D02*
X29731750Y-42117666D01*
X29742334Y-42107083D01*
X29731750Y-42096500D01*
X29721167Y-42107083D01*
G36*
X29643141Y-42089005D02*
G01*
X29647084Y-42096500D01*
X29667027Y-42116714D01*
X29670749Y-42117666D01*
X29672193Y-42103994D01*
X29668250Y-42096500D01*
X29648307Y-42076285D01*
X29644585Y-42075333D01*
X29643141Y-42089005D01*
G37*
X29643141Y-42089005D02*
X29647084Y-42096500D01*
X29667027Y-42116714D01*
X29670749Y-42117666D01*
X29672193Y-42103994D01*
X29668250Y-42096500D01*
X29648307Y-42076285D01*
X29644585Y-42075333D01*
X29643141Y-42089005D01*
G36*
X28771938Y-42062728D02*
G01*
X28749214Y-42084041D01*
X28753876Y-42096293D01*
X28756835Y-42096500D01*
X28774738Y-42081465D01*
X28781272Y-42072062D01*
X28783767Y-42057578D01*
X28771938Y-42062728D01*
G37*
X28771938Y-42062728D02*
X28749214Y-42084041D01*
X28753876Y-42096293D01*
X28756835Y-42096500D01*
X28774738Y-42081465D01*
X28781272Y-42072062D01*
X28783767Y-42057578D01*
X28771938Y-42062728D01*
G36*
X30779500Y-42064750D02*
G01*
X30790084Y-42075333D01*
X30800667Y-42064750D01*
X30790084Y-42054166D01*
X30779500Y-42064750D01*
G37*
X30779500Y-42064750D02*
X30790084Y-42075333D01*
X30800667Y-42064750D01*
X30790084Y-42054166D01*
X30779500Y-42064750D01*
G36*
X30088056Y-42061222D02*
G01*
X30090962Y-42073805D01*
X30102167Y-42075333D01*
X30119590Y-42067588D01*
X30116278Y-42061222D01*
X30091158Y-42058688D01*
X30088056Y-42061222D01*
G37*
X30088056Y-42061222D02*
X30090962Y-42073805D01*
X30102167Y-42075333D01*
X30119590Y-42067588D01*
X30116278Y-42061222D01*
X30091158Y-42058688D01*
X30088056Y-42061222D01*
G36*
X29678834Y-42064750D02*
G01*
X29689417Y-42075333D01*
X29700000Y-42064750D01*
X29689417Y-42054166D01*
X29678834Y-42064750D01*
G37*
X29678834Y-42064750D02*
X29689417Y-42075333D01*
X29700000Y-42064750D01*
X29689417Y-42054166D01*
X29678834Y-42064750D01*
G36*
X29594167Y-42064750D02*
G01*
X29604750Y-42075333D01*
X29615334Y-42064750D01*
X29604750Y-42054166D01*
X29594167Y-42064750D01*
G37*
X29594167Y-42064750D02*
X29604750Y-42075333D01*
X29615334Y-42064750D01*
X29604750Y-42054166D01*
X29594167Y-42064750D01*
G36*
X29276667Y-42064750D02*
G01*
X29287250Y-42075333D01*
X29297834Y-42064750D01*
X29287250Y-42054166D01*
X29276667Y-42064750D01*
G37*
X29276667Y-42064750D02*
X29287250Y-42075333D01*
X29297834Y-42064750D01*
X29287250Y-42054166D01*
X29276667Y-42064750D01*
G36*
X31033500Y-42043583D02*
G01*
X31044084Y-42054166D01*
X31054667Y-42043583D01*
X31044084Y-42033000D01*
X31033500Y-42043583D01*
G37*
X31033500Y-42043583D02*
X31044084Y-42054166D01*
X31054667Y-42043583D01*
X31044084Y-42033000D01*
X31033500Y-42043583D01*
G36*
X29368389Y-42040055D02*
G01*
X29371295Y-42052639D01*
X29382500Y-42054166D01*
X29399923Y-42046422D01*
X29396612Y-42040055D01*
X29371492Y-42037522D01*
X29368389Y-42040055D01*
G37*
X29368389Y-42040055D02*
X29371295Y-42052639D01*
X29382500Y-42054166D01*
X29399923Y-42046422D01*
X29396612Y-42040055D01*
X29371492Y-42037522D01*
X29368389Y-42040055D01*
G36*
X29636500Y-42022416D02*
G01*
X29647084Y-42033000D01*
X29657667Y-42022416D01*
X29647084Y-42011833D01*
X29636500Y-42022416D01*
G37*
X29636500Y-42022416D02*
X29647084Y-42033000D01*
X29657667Y-42022416D01*
X29647084Y-42011833D01*
X29636500Y-42022416D01*
G36*
X28916834Y-42022416D02*
G01*
X28927417Y-42033000D01*
X28938000Y-42022416D01*
X28927417Y-42011833D01*
X28916834Y-42022416D01*
G37*
X28916834Y-42022416D02*
X28927417Y-42033000D01*
X28938000Y-42022416D01*
X28927417Y-42011833D01*
X28916834Y-42022416D01*
G36*
X31435667Y-42001250D02*
G01*
X31446250Y-42011833D01*
X31456834Y-42001250D01*
X31446250Y-41990666D01*
X31435667Y-42001250D01*
G37*
X31435667Y-42001250D02*
X31446250Y-42011833D01*
X31456834Y-42001250D01*
X31446250Y-41990666D01*
X31435667Y-42001250D01*
G36*
X30779500Y-42001250D02*
G01*
X30790084Y-42011833D01*
X30800667Y-42001250D01*
X30790084Y-41990666D01*
X30779500Y-42001250D01*
G37*
X30779500Y-42001250D02*
X30790084Y-42011833D01*
X30800667Y-42001250D01*
X30790084Y-41990666D01*
X30779500Y-42001250D01*
G36*
X30462000Y-42001250D02*
G01*
X30472584Y-42011833D01*
X30483167Y-42001250D01*
X30472584Y-41990666D01*
X30462000Y-42001250D01*
G37*
X30462000Y-42001250D02*
X30472584Y-42011833D01*
X30483167Y-42001250D01*
X30472584Y-41990666D01*
X30462000Y-42001250D01*
G36*
X29957271Y-41978062D02*
G01*
X29934548Y-41999374D01*
X29939209Y-42011627D01*
X29942168Y-42011833D01*
X29960071Y-41996799D01*
X29966605Y-41987396D01*
X29969100Y-41972911D01*
X29957271Y-41978062D01*
G37*
X29957271Y-41978062D02*
X29934548Y-41999374D01*
X29939209Y-42011627D01*
X29942168Y-42011833D01*
X29960071Y-41996799D01*
X29966605Y-41987396D01*
X29969100Y-41972911D01*
X29957271Y-41978062D01*
G36*
X29283308Y-41983172D02*
G01*
X29287250Y-41990666D01*
X29307194Y-42010880D01*
X29310916Y-42011833D01*
X29312360Y-41998160D01*
X29308417Y-41990666D01*
X29288474Y-41970452D01*
X29284752Y-41969500D01*
X29283308Y-41983172D01*
G37*
X29283308Y-41983172D02*
X29287250Y-41990666D01*
X29307194Y-42010880D01*
X29310916Y-42011833D01*
X29312360Y-41998160D01*
X29308417Y-41990666D01*
X29288474Y-41970452D01*
X29284752Y-41969500D01*
X29283308Y-41983172D01*
G36*
X30970000Y-41980083D02*
G01*
X30980584Y-41990666D01*
X30991167Y-41980083D01*
X30980584Y-41969500D01*
X30970000Y-41980083D01*
G37*
X30970000Y-41980083D02*
X30980584Y-41990666D01*
X30991167Y-41980083D01*
X30980584Y-41969500D01*
X30970000Y-41980083D01*
G36*
X31456834Y-41958916D02*
G01*
X31467417Y-41969500D01*
X31478000Y-41958916D01*
X31467417Y-41948333D01*
X31456834Y-41958916D01*
G37*
X31456834Y-41958916D02*
X31467417Y-41969500D01*
X31478000Y-41958916D01*
X31467417Y-41948333D01*
X31456834Y-41958916D01*
G36*
X29918723Y-41934222D02*
G01*
X29916189Y-41959342D01*
X29918723Y-41962444D01*
X29931306Y-41959538D01*
X29932834Y-41948333D01*
X29925089Y-41930910D01*
X29918723Y-41934222D01*
G37*
X29918723Y-41934222D02*
X29916189Y-41959342D01*
X29918723Y-41962444D01*
X29931306Y-41959538D01*
X29932834Y-41948333D01*
X29925089Y-41930910D01*
X29918723Y-41934222D01*
G36*
X29340167Y-41958916D02*
G01*
X29350750Y-41969500D01*
X29361334Y-41958916D01*
X29350750Y-41948333D01*
X29340167Y-41958916D01*
G37*
X29340167Y-41958916D02*
X29350750Y-41969500D01*
X29361334Y-41958916D01*
X29350750Y-41948333D01*
X29340167Y-41958916D01*
G36*
X30235875Y-41902031D02*
G01*
X30233351Y-41935112D01*
X30237546Y-41942600D01*
X30247166Y-41936287D01*
X30248663Y-41914819D01*
X30243493Y-41892233D01*
X30235875Y-41902031D01*
G37*
X30235875Y-41902031D02*
X30233351Y-41935112D01*
X30237546Y-41942600D01*
X30247166Y-41936287D01*
X30248663Y-41914819D01*
X30243493Y-41892233D01*
X30235875Y-41902031D01*
G36*
X31668500Y-41916583D02*
G01*
X31679084Y-41927166D01*
X31689667Y-41916583D01*
X31679084Y-41906000D01*
X31668500Y-41916583D01*
G37*
X31668500Y-41916583D02*
X31679084Y-41927166D01*
X31689667Y-41916583D01*
X31679084Y-41906000D01*
X31668500Y-41916583D01*
G36*
X31400389Y-41891888D02*
G01*
X31397856Y-41917008D01*
X31400389Y-41920111D01*
X31412973Y-41917205D01*
X31414500Y-41906000D01*
X31406756Y-41888577D01*
X31400389Y-41891888D01*
G37*
X31400389Y-41891888D02*
X31397856Y-41917008D01*
X31400389Y-41920111D01*
X31412973Y-41917205D01*
X31414500Y-41906000D01*
X31406756Y-41888577D01*
X31400389Y-41891888D01*
G36*
X29361334Y-41916583D02*
G01*
X29371917Y-41927166D01*
X29382500Y-41916583D01*
X29371917Y-41906000D01*
X29361334Y-41916583D01*
G37*
X29361334Y-41916583D02*
X29371917Y-41927166D01*
X29382500Y-41916583D01*
X29371917Y-41906000D01*
X29361334Y-41916583D01*
G36*
X31712816Y-41772135D02*
G01*
X31713883Y-41807464D01*
X31713016Y-41821333D01*
X31707844Y-41842411D01*
X31693020Y-41826463D01*
X31689667Y-41821333D01*
X31672895Y-41804391D01*
X31669149Y-41810750D01*
X31679549Y-41846581D01*
X31686320Y-41858975D01*
X31703884Y-41868532D01*
X31724463Y-41839815D01*
X31727531Y-41833273D01*
X31739960Y-41785616D01*
X31730678Y-41767599D01*
X31713227Y-41766507D01*
X31712816Y-41772135D01*
G37*
X31712816Y-41772135D02*
X31713883Y-41807464D01*
X31713016Y-41821333D01*
X31707844Y-41842411D01*
X31693020Y-41826463D01*
X31689667Y-41821333D01*
X31672895Y-41804391D01*
X31669149Y-41810750D01*
X31679549Y-41846581D01*
X31686320Y-41858975D01*
X31703884Y-41868532D01*
X31724463Y-41839815D01*
X31727531Y-41833273D01*
X31739960Y-41785616D01*
X31730678Y-41767599D01*
X31713227Y-41766507D01*
X31712816Y-41772135D01*
G36*
X28578167Y-41874250D02*
G01*
X28588750Y-41884833D01*
X28599334Y-41874250D01*
X28588750Y-41863666D01*
X28578167Y-41874250D01*
G37*
X28578167Y-41874250D02*
X28588750Y-41884833D01*
X28599334Y-41874250D01*
X28588750Y-41863666D01*
X28578167Y-41874250D01*
G36*
X30271500Y-41853083D02*
G01*
X30282084Y-41863666D01*
X30292667Y-41853083D01*
X30282084Y-41842500D01*
X30271500Y-41853083D01*
G37*
X30271500Y-41853083D02*
X30282084Y-41863666D01*
X30292667Y-41853083D01*
X30282084Y-41842500D01*
X30271500Y-41853083D01*
G36*
X29128500Y-41853083D02*
G01*
X29139084Y-41863666D01*
X29149667Y-41853083D01*
X29139084Y-41842500D01*
X29128500Y-41853083D01*
G37*
X29128500Y-41853083D02*
X29139084Y-41863666D01*
X29149667Y-41853083D01*
X29139084Y-41842500D01*
X29128500Y-41853083D01*
G36*
X31798771Y-41766395D02*
G01*
X31776226Y-41786071D01*
X31774334Y-41790832D01*
X31784379Y-41799532D01*
X31805293Y-41780038D01*
X31808105Y-41775729D01*
X31810600Y-41761245D01*
X31798771Y-41766395D01*
G37*
X31798771Y-41766395D02*
X31776226Y-41786071D01*
X31774334Y-41790832D01*
X31784379Y-41799532D01*
X31805293Y-41780038D01*
X31808105Y-41775729D01*
X31810600Y-41761245D01*
X31798771Y-41766395D01*
G36*
X29152938Y-41766395D02*
G01*
X29130393Y-41786071D01*
X29128500Y-41790832D01*
X29138546Y-41799532D01*
X29159460Y-41780038D01*
X29162272Y-41775729D01*
X29164767Y-41761245D01*
X29152938Y-41766395D01*
G37*
X29152938Y-41766395D02*
X29130393Y-41786071D01*
X29128500Y-41790832D01*
X29138546Y-41799532D01*
X29159460Y-41780038D01*
X29162272Y-41775729D01*
X29164767Y-41761245D01*
X29152938Y-41766395D01*
G36*
X28557000Y-41768416D02*
G01*
X28567584Y-41779000D01*
X28578167Y-41768416D01*
X28567584Y-41757833D01*
X28557000Y-41768416D01*
G37*
X28557000Y-41768416D02*
X28567584Y-41779000D01*
X28578167Y-41768416D01*
X28567584Y-41757833D01*
X28557000Y-41768416D01*
G36*
X31753167Y-41747250D02*
G01*
X31763750Y-41757833D01*
X31774334Y-41747250D01*
X31763750Y-41736666D01*
X31753167Y-41747250D01*
G37*
X31753167Y-41747250D02*
X31763750Y-41757833D01*
X31774334Y-41747250D01*
X31763750Y-41736666D01*
X31753167Y-41747250D01*
G36*
X31668500Y-41747250D02*
G01*
X31679084Y-41757833D01*
X31689667Y-41747250D01*
X31679084Y-41736666D01*
X31668500Y-41747250D01*
G37*
X31668500Y-41747250D02*
X31679084Y-41757833D01*
X31689667Y-41747250D01*
X31679084Y-41736666D01*
X31668500Y-41747250D01*
G36*
X28578167Y-41726083D02*
G01*
X28588750Y-41736666D01*
X28599334Y-41726083D01*
X28588750Y-41715500D01*
X28578167Y-41726083D01*
G37*
X28578167Y-41726083D02*
X28588750Y-41736666D01*
X28599334Y-41726083D01*
X28588750Y-41715500D01*
X28578167Y-41726083D01*
G36*
X28535834Y-41726083D02*
G01*
X28546417Y-41736666D01*
X28557000Y-41726083D01*
X28546417Y-41715500D01*
X28535834Y-41726083D01*
G37*
X28535834Y-41726083D02*
X28546417Y-41736666D01*
X28557000Y-41726083D01*
X28546417Y-41715500D01*
X28535834Y-41726083D01*
G36*
X31654389Y-41701388D02*
G01*
X31657295Y-41713972D01*
X31668500Y-41715500D01*
X31685923Y-41707755D01*
X31682612Y-41701388D01*
X31657492Y-41698855D01*
X31654389Y-41701388D01*
G37*
X31654389Y-41701388D02*
X31657295Y-41713972D01*
X31668500Y-41715500D01*
X31685923Y-41707755D01*
X31682612Y-41701388D01*
X31657492Y-41698855D01*
X31654389Y-41701388D01*
G36*
X29128500Y-41683750D02*
G01*
X29139084Y-41694333D01*
X29149667Y-41683750D01*
X29139084Y-41673166D01*
X29128500Y-41683750D01*
G37*
X29128500Y-41683750D02*
X29139084Y-41694333D01*
X29149667Y-41683750D01*
X29139084Y-41673166D01*
X29128500Y-41683750D01*
G36*
X29029723Y-41659055D02*
G01*
X29032628Y-41671639D01*
X29043834Y-41673166D01*
X29061256Y-41665422D01*
X29057945Y-41659055D01*
X29032825Y-41656522D01*
X29029723Y-41659055D01*
G37*
X29029723Y-41659055D02*
X29032628Y-41671639D01*
X29043834Y-41673166D01*
X29061256Y-41665422D01*
X29057945Y-41659055D01*
X29032825Y-41656522D01*
X29029723Y-41659055D01*
G36*
X28938000Y-41662583D02*
G01*
X28948584Y-41673166D01*
X28959167Y-41662583D01*
X28948584Y-41652000D01*
X28938000Y-41662583D01*
G37*
X28938000Y-41662583D02*
X28948584Y-41673166D01*
X28959167Y-41662583D01*
X28948584Y-41652000D01*
X28938000Y-41662583D01*
G36*
X28768667Y-41662583D02*
G01*
X28779250Y-41673166D01*
X28789834Y-41662583D01*
X28779250Y-41652000D01*
X28768667Y-41662583D01*
G37*
X28768667Y-41662583D02*
X28779250Y-41673166D01*
X28789834Y-41662583D01*
X28779250Y-41652000D01*
X28768667Y-41662583D01*
G36*
X29925150Y-40706090D02*
G01*
X29885125Y-40715915D01*
X29879845Y-40720783D01*
X29885817Y-40745846D01*
X29912246Y-40791546D01*
X29951237Y-40847080D01*
X29994898Y-40901648D01*
X30035335Y-40944448D01*
X30054542Y-40959843D01*
X30078581Y-40995559D01*
X30073246Y-41043691D01*
X30045055Y-41094207D01*
X30000528Y-41137076D01*
X29946183Y-41162267D01*
X29921120Y-41165166D01*
X29824332Y-41145315D01*
X29739915Y-41091019D01*
X29682601Y-41014774D01*
X29654942Y-40965814D01*
X29637159Y-40953491D01*
X29628353Y-40965369D01*
X29616028Y-41012440D01*
X29623725Y-41031524D01*
X29636500Y-41027583D01*
X29656005Y-41029261D01*
X29657667Y-41036917D01*
X29661766Y-41081208D01*
X29681926Y-41114286D01*
X29691231Y-41124838D01*
X29747918Y-41163743D01*
X29828096Y-41191314D01*
X29913394Y-41202513D01*
X29961314Y-41198926D01*
X30038350Y-41166350D01*
X30089566Y-41121371D01*
X30125262Y-41081700D01*
X30148037Y-41071327D01*
X30171589Y-41086630D01*
X30182085Y-41096918D01*
X30272852Y-41167633D01*
X30366503Y-41205083D01*
X30456017Y-41208172D01*
X30534371Y-41175805D01*
X30558213Y-41155545D01*
X30598863Y-41103166D01*
X30606899Y-41051329D01*
X30583888Y-40985545D01*
X30577874Y-40973615D01*
X30546263Y-40924217D01*
X30524813Y-40915258D01*
X30515071Y-40945731D01*
X30518319Y-41012412D01*
X30522295Y-41081884D01*
X30512011Y-41123483D01*
X30496090Y-41142058D01*
X30433997Y-41168503D01*
X30361346Y-41161256D01*
X30288035Y-41123693D01*
X30223958Y-41059187D01*
X30214964Y-41046195D01*
X30191923Y-41006792D01*
X30193600Y-40986086D01*
X30215285Y-40971010D01*
X30245644Y-40943926D01*
X30282217Y-40898291D01*
X30287761Y-40890000D01*
X30229167Y-40890000D01*
X30213060Y-40910551D01*
X30208000Y-40911166D01*
X30187449Y-40895059D01*
X30186834Y-40890000D01*
X30202941Y-40869448D01*
X30208000Y-40868833D01*
X30228552Y-40884940D01*
X30229167Y-40890000D01*
X30287761Y-40890000D01*
X30317023Y-40846244D01*
X30342081Y-40799923D01*
X30349410Y-40771468D01*
X30348088Y-40769031D01*
X30310545Y-40749667D01*
X30245235Y-40732350D01*
X30163099Y-40718206D01*
X30075079Y-40708363D01*
X29992115Y-40703949D01*
X29925150Y-40706090D01*
G37*
X29925150Y-40706090D02*
X29885125Y-40715915D01*
X29879845Y-40720783D01*
X29885817Y-40745846D01*
X29912246Y-40791546D01*
X29951237Y-40847080D01*
X29994898Y-40901648D01*
X30035335Y-40944448D01*
X30054542Y-40959843D01*
X30078581Y-40995559D01*
X30073246Y-41043691D01*
X30045055Y-41094207D01*
X30000528Y-41137076D01*
X29946183Y-41162267D01*
X29921120Y-41165166D01*
X29824332Y-41145315D01*
X29739915Y-41091019D01*
X29682601Y-41014774D01*
X29654942Y-40965814D01*
X29637159Y-40953491D01*
X29628353Y-40965369D01*
X29616028Y-41012440D01*
X29623725Y-41031524D01*
X29636500Y-41027583D01*
X29656005Y-41029261D01*
X29657667Y-41036917D01*
X29661766Y-41081208D01*
X29681926Y-41114286D01*
X29691231Y-41124838D01*
X29747918Y-41163743D01*
X29828096Y-41191314D01*
X29913394Y-41202513D01*
X29961314Y-41198926D01*
X30038350Y-41166350D01*
X30089566Y-41121371D01*
X30125262Y-41081700D01*
X30148037Y-41071327D01*
X30171589Y-41086630D01*
X30182085Y-41096918D01*
X30272852Y-41167633D01*
X30366503Y-41205083D01*
X30456017Y-41208172D01*
X30534371Y-41175805D01*
X30558213Y-41155545D01*
X30598863Y-41103166D01*
X30606899Y-41051329D01*
X30583888Y-40985545D01*
X30577874Y-40973615D01*
X30546263Y-40924217D01*
X30524813Y-40915258D01*
X30515071Y-40945731D01*
X30518319Y-41012412D01*
X30522295Y-41081884D01*
X30512011Y-41123483D01*
X30496090Y-41142058D01*
X30433997Y-41168503D01*
X30361346Y-41161256D01*
X30288035Y-41123693D01*
X30223958Y-41059187D01*
X30214964Y-41046195D01*
X30191923Y-41006792D01*
X30193600Y-40986086D01*
X30215285Y-40971010D01*
X30245644Y-40943926D01*
X30282217Y-40898291D01*
X30287761Y-40890000D01*
X30229167Y-40890000D01*
X30213060Y-40910551D01*
X30208000Y-40911166D01*
X30187449Y-40895059D01*
X30186834Y-40890000D01*
X30202941Y-40869448D01*
X30208000Y-40868833D01*
X30228552Y-40884940D01*
X30229167Y-40890000D01*
X30287761Y-40890000D01*
X30317023Y-40846244D01*
X30342081Y-40799923D01*
X30349410Y-40771468D01*
X30348088Y-40769031D01*
X30310545Y-40749667D01*
X30245235Y-40732350D01*
X30163099Y-40718206D01*
X30075079Y-40708363D01*
X29992115Y-40703949D01*
X29925150Y-40706090D01*
G36*
X28861970Y-40327677D02*
G01*
X28771996Y-40359135D01*
X28716686Y-40393723D01*
X28657313Y-40440370D01*
X28604161Y-40489686D01*
X28567518Y-40532284D01*
X28557000Y-40555351D01*
X28569302Y-40572599D01*
X28604902Y-40556922D01*
X28661837Y-40509368D01*
X28684846Y-40486988D01*
X28742269Y-40435341D01*
X28797195Y-40395233D01*
X28823807Y-40381154D01*
X28933091Y-40361443D01*
X29047062Y-40381821D01*
X29162585Y-40440774D01*
X29276522Y-40536787D01*
X29367918Y-40643910D01*
X29401766Y-40665442D01*
X29422476Y-40659001D01*
X29431897Y-40642118D01*
X29418598Y-40612152D01*
X29379093Y-40562997D01*
X29348392Y-40529283D01*
X29231177Y-40425375D01*
X29107669Y-40356145D01*
X28982917Y-40323082D01*
X28861970Y-40327677D01*
G37*
X28861970Y-40327677D02*
X28771996Y-40359135D01*
X28716686Y-40393723D01*
X28657313Y-40440370D01*
X28604161Y-40489686D01*
X28567518Y-40532284D01*
X28557000Y-40555351D01*
X28569302Y-40572599D01*
X28604902Y-40556922D01*
X28661837Y-40509368D01*
X28684846Y-40486988D01*
X28742269Y-40435341D01*
X28797195Y-40395233D01*
X28823807Y-40381154D01*
X28933091Y-40361443D01*
X29047062Y-40381821D01*
X29162585Y-40440774D01*
X29276522Y-40536787D01*
X29367918Y-40643910D01*
X29401766Y-40665442D01*
X29422476Y-40659001D01*
X29431897Y-40642118D01*
X29418598Y-40612152D01*
X29379093Y-40562997D01*
X29348392Y-40529283D01*
X29231177Y-40425375D01*
X29107669Y-40356145D01*
X28982917Y-40323082D01*
X28861970Y-40327677D01*
G36*
X31378402Y-40283921D02*
G01*
X31372386Y-40284707D01*
X31298324Y-40305761D01*
X31212827Y-40347004D01*
X31124258Y-40402146D01*
X31040979Y-40464899D01*
X30971353Y-40528971D01*
X30923742Y-40588073D01*
X30906500Y-40635142D01*
X30916939Y-40656648D01*
X30946461Y-40643401D01*
X30992376Y-40596954D01*
X31009977Y-40575475D01*
X31091973Y-40489915D01*
X31190304Y-40414541D01*
X31292575Y-40357322D01*
X31386389Y-40326221D01*
X31401262Y-40324029D01*
X31508682Y-40333113D01*
X31618552Y-40383913D01*
X31729938Y-40475947D01*
X31761377Y-40509159D01*
X31817801Y-40562702D01*
X31862347Y-40587308D01*
X31876023Y-40587761D01*
X31886543Y-40576353D01*
X31873000Y-40549586D01*
X31832409Y-40503215D01*
X31778735Y-40449423D01*
X31675642Y-40360278D01*
X31580947Y-40305571D01*
X31485062Y-40281414D01*
X31378402Y-40283921D01*
G37*
X31378402Y-40283921D02*
X31372386Y-40284707D01*
X31298324Y-40305761D01*
X31212827Y-40347004D01*
X31124258Y-40402146D01*
X31040979Y-40464899D01*
X30971353Y-40528971D01*
X30923742Y-40588073D01*
X30906500Y-40635142D01*
X30916939Y-40656648D01*
X30946461Y-40643401D01*
X30992376Y-40596954D01*
X31009977Y-40575475D01*
X31091973Y-40489915D01*
X31190304Y-40414541D01*
X31292575Y-40357322D01*
X31386389Y-40326221D01*
X31401262Y-40324029D01*
X31508682Y-40333113D01*
X31618552Y-40383913D01*
X31729938Y-40475947D01*
X31761377Y-40509159D01*
X31817801Y-40562702D01*
X31862347Y-40587308D01*
X31876023Y-40587761D01*
X31886543Y-40576353D01*
X31873000Y-40549586D01*
X31832409Y-40503215D01*
X31778735Y-40449423D01*
X31675642Y-40360278D01*
X31580947Y-40305571D01*
X31485062Y-40281414D01*
X31378402Y-40283921D01*
G36*
X32198857Y-39538464D02*
G01*
X32178286Y-39561430D01*
X32149280Y-39612852D01*
X32117081Y-39681124D01*
X32086929Y-39754639D01*
X32064066Y-39821791D01*
X32055855Y-39855118D01*
X32053545Y-39889780D01*
X32069611Y-39910823D01*
X32113716Y-39927196D01*
X32141579Y-39934493D01*
X32223532Y-39952777D01*
X32273748Y-39956916D01*
X32300431Y-39946797D01*
X32309151Y-39932208D01*
X32308440Y-39896659D01*
X32295339Y-39840854D01*
X32289748Y-39823713D01*
X32270430Y-39748416D01*
X32261011Y-39672852D01*
X32260843Y-39664963D01*
X32252830Y-39591114D01*
X32231471Y-39546869D01*
X32199691Y-39538196D01*
X32198857Y-39538464D01*
G37*
X32198857Y-39538464D02*
X32178286Y-39561430D01*
X32149280Y-39612852D01*
X32117081Y-39681124D01*
X32086929Y-39754639D01*
X32064066Y-39821791D01*
X32055855Y-39855118D01*
X32053545Y-39889780D01*
X32069611Y-39910823D01*
X32113716Y-39927196D01*
X32141579Y-39934493D01*
X32223532Y-39952777D01*
X32273748Y-39956916D01*
X32300431Y-39946797D01*
X32309151Y-39932208D01*
X32308440Y-39896659D01*
X32295339Y-39840854D01*
X32289748Y-39823713D01*
X32270430Y-39748416D01*
X32261011Y-39672852D01*
X32260843Y-39664963D01*
X32252830Y-39591114D01*
X32231471Y-39546869D01*
X32199691Y-39538196D01*
X32198857Y-39538464D01*
G36*
X28115837Y-39576137D02*
G01*
X28103265Y-39606999D01*
X28094150Y-39665219D01*
X28087501Y-39756348D01*
X28083800Y-39842250D01*
X28080750Y-39926916D01*
X28186584Y-39930220D01*
X28256742Y-39930126D01*
X28313952Y-39926120D01*
X28331349Y-39923013D01*
X28356772Y-39913160D01*
X28354038Y-39896299D01*
X28329110Y-39866792D01*
X28306887Y-39840237D01*
X28285834Y-39808986D01*
X28260767Y-39763934D01*
X28226501Y-39695978D01*
X28194593Y-39630583D01*
X28165050Y-39587089D01*
X28134874Y-39567209D01*
X28132856Y-39567083D01*
X28115837Y-39576137D01*
G37*
X28115837Y-39576137D02*
X28103265Y-39606999D01*
X28094150Y-39665219D01*
X28087501Y-39756348D01*
X28083800Y-39842250D01*
X28080750Y-39926916D01*
X28186584Y-39930220D01*
X28256742Y-39930126D01*
X28313952Y-39926120D01*
X28331349Y-39923013D01*
X28356772Y-39913160D01*
X28354038Y-39896299D01*
X28329110Y-39866792D01*
X28306887Y-39840237D01*
X28285834Y-39808986D01*
X28260767Y-39763934D01*
X28226501Y-39695978D01*
X28194593Y-39630583D01*
X28165050Y-39587089D01*
X28134874Y-39567209D01*
X28132856Y-39567083D01*
X28115837Y-39576137D01*
M02*
