G04 #@! TF.GenerationSoftware,KiCad,Pcbnew,(5.1.6)-1*
G04 #@! TF.CreationDate,2020-09-28T23:28:44+08:00*
G04 #@! TF.ProjectId,Alvaro,416c7661-726f-42e6-9b69-6361645f7063,C*
G04 #@! TF.SameCoordinates,Original*
G04 #@! TF.FileFunction,Copper,L1,Top*
G04 #@! TF.FilePolarity,Positive*
%FSLAX46Y46*%
G04 Gerber Fmt 4.6, Leading zero omitted, Abs format (unit mm)*
G04 Created by KiCad (PCBNEW (5.1.6)-1) date 2020-09-28 23:28:44*
%MOMM*%
%LPD*%
G01*
G04 APERTURE LIST*
G04 #@! TA.AperFunction,SMDPad,CuDef*
%ADD10R,0.300000X0.800000*%
G04 #@! TD*
G04 #@! TA.AperFunction,SMDPad,CuDef*
%ADD11R,0.600000X0.800000*%
G04 #@! TD*
G04 #@! TA.AperFunction,ComponentPad*
%ADD12O,1.000000X1.800000*%
G04 #@! TD*
G04 #@! TA.AperFunction,ComponentPad*
%ADD13O,1.000000X2.200000*%
G04 #@! TD*
G04 #@! TA.AperFunction,ComponentPad*
%ADD14C,1.700000*%
G04 #@! TD*
G04 #@! TA.AperFunction,SMDPad,CuDef*
%ADD15C,0.100000*%
G04 #@! TD*
G04 #@! TA.AperFunction,SMDPad,CuDef*
%ADD16R,0.450000X0.600000*%
G04 #@! TD*
G04 #@! TA.AperFunction,SMDPad,CuDef*
%ADD17R,1.200000X1.400000*%
G04 #@! TD*
G04 #@! TA.AperFunction,ViaPad*
%ADD18C,0.500000*%
G04 #@! TD*
G04 #@! TA.AperFunction,Conductor*
%ADD19C,0.310000*%
G04 #@! TD*
G04 #@! TA.AperFunction,Conductor*
%ADD20C,0.160000*%
G04 #@! TD*
G04 APERTURE END LIST*
D10*
X28250000Y-29500000D03*
X28750000Y-29500000D03*
X31750000Y-29500000D03*
X31250000Y-29500000D03*
X30250000Y-29500000D03*
X29750000Y-29500000D03*
X30750000Y-29500000D03*
X29250000Y-29500000D03*
D11*
X27600000Y-29500000D03*
X32400000Y-29500000D03*
X33200000Y-29500000D03*
X26800000Y-29500000D03*
D12*
X24425000Y-28600000D03*
X35575000Y-28600000D03*
D13*
X24425000Y-24600000D03*
X35575000Y-24600000D03*
D14*
X24920000Y-55240000D03*
X27460000Y-55240000D03*
X30000000Y-55240000D03*
X32540000Y-55240000D03*
X35080000Y-55240000D03*
X22380000Y-27300000D03*
X22380000Y-29840000D03*
X22380000Y-32380000D03*
X22380000Y-34920000D03*
X22380000Y-37460000D03*
X22380000Y-40000000D03*
X22380000Y-42540000D03*
X22380000Y-45080000D03*
X22380000Y-47620000D03*
X22380000Y-50160000D03*
X22380000Y-52700000D03*
X22380000Y-55240000D03*
X37620000Y-55240000D03*
X37620000Y-52700000D03*
X37620000Y-50160000D03*
X37620000Y-47620000D03*
X37620000Y-45080000D03*
X37620000Y-42540000D03*
X37620000Y-40000000D03*
X37620000Y-37460000D03*
X37620000Y-34920000D03*
X37620000Y-32380000D03*
X37620000Y-29840000D03*
X37620000Y-27300000D03*
X30000000Y-32380000D03*
X27460000Y-32380000D03*
G04 #@! TA.AperFunction,SMDPad,CuDef*
G36*
G01*
X24650000Y-36418750D02*
X24650000Y-36931250D01*
G75*
G02*
X24431250Y-37150000I-218750J0D01*
G01*
X23993750Y-37150000D01*
G75*
G02*
X23775000Y-36931250I0J218750D01*
G01*
X23775000Y-36418750D01*
G75*
G02*
X23993750Y-36200000I218750J0D01*
G01*
X24431250Y-36200000D01*
G75*
G02*
X24650000Y-36418750I0J-218750D01*
G01*
G37*
G04 #@! TD.AperFunction*
G04 #@! TA.AperFunction,SMDPad,CuDef*
G36*
G01*
X26225000Y-36418750D02*
X26225000Y-36931250D01*
G75*
G02*
X26006250Y-37150000I-218750J0D01*
G01*
X25568750Y-37150000D01*
G75*
G02*
X25350000Y-36931250I0J218750D01*
G01*
X25350000Y-36418750D01*
G75*
G02*
X25568750Y-36200000I218750J0D01*
G01*
X26006250Y-36200000D01*
G75*
G02*
X26225000Y-36418750I0J-218750D01*
G01*
G37*
G04 #@! TD.AperFunction*
G04 #@! TA.AperFunction,SMDPad,CuDef*
D15*
G36*
X27023045Y-43800000D02*
G01*
X30700000Y-40123045D01*
X34376955Y-43800000D01*
X30700000Y-47476955D01*
X27023045Y-43800000D01*
G37*
G04 #@! TD.AperFunction*
G04 #@! TA.AperFunction,SMDPad,CuDef*
G36*
G01*
X30912132Y-40052334D02*
X30912132Y-40052334D01*
G75*
G02*
X30912132Y-39840202I106066J106066D01*
G01*
X31477818Y-39274516D01*
G75*
G02*
X31689950Y-39274516I106066J-106066D01*
G01*
X31689950Y-39274516D01*
G75*
G02*
X31689950Y-39486648I-106066J-106066D01*
G01*
X31124264Y-40052334D01*
G75*
G02*
X30912132Y-40052334I-106066J106066D01*
G01*
G37*
G04 #@! TD.AperFunction*
G04 #@! TA.AperFunction,SMDPad,CuDef*
G36*
G01*
X31265685Y-40405888D02*
X31265685Y-40405888D01*
G75*
G02*
X31265685Y-40193756I106066J106066D01*
G01*
X31831371Y-39628070D01*
G75*
G02*
X32043503Y-39628070I106066J-106066D01*
G01*
X32043503Y-39628070D01*
G75*
G02*
X32043503Y-39840202I-106066J-106066D01*
G01*
X31477817Y-40405888D01*
G75*
G02*
X31265685Y-40405888I-106066J106066D01*
G01*
G37*
G04 #@! TD.AperFunction*
G04 #@! TA.AperFunction,SMDPad,CuDef*
G36*
G01*
X31619239Y-40759441D02*
X31619239Y-40759441D01*
G75*
G02*
X31619239Y-40547309I106066J106066D01*
G01*
X32184925Y-39981623D01*
G75*
G02*
X32397057Y-39981623I106066J-106066D01*
G01*
X32397057Y-39981623D01*
G75*
G02*
X32397057Y-40193755I-106066J-106066D01*
G01*
X31831371Y-40759441D01*
G75*
G02*
X31619239Y-40759441I-106066J106066D01*
G01*
G37*
G04 #@! TD.AperFunction*
G04 #@! TA.AperFunction,SMDPad,CuDef*
G36*
G01*
X31972792Y-41112995D02*
X31972792Y-41112995D01*
G75*
G02*
X31972792Y-40900863I106066J106066D01*
G01*
X32538478Y-40335177D01*
G75*
G02*
X32750610Y-40335177I106066J-106066D01*
G01*
X32750610Y-40335177D01*
G75*
G02*
X32750610Y-40547309I-106066J-106066D01*
G01*
X32184924Y-41112995D01*
G75*
G02*
X31972792Y-41112995I-106066J106066D01*
G01*
G37*
G04 #@! TD.AperFunction*
G04 #@! TA.AperFunction,SMDPad,CuDef*
G36*
G01*
X32326345Y-41466548D02*
X32326345Y-41466548D01*
G75*
G02*
X32326345Y-41254416I106066J106066D01*
G01*
X32892031Y-40688730D01*
G75*
G02*
X33104163Y-40688730I106066J-106066D01*
G01*
X33104163Y-40688730D01*
G75*
G02*
X33104163Y-40900862I-106066J-106066D01*
G01*
X32538477Y-41466548D01*
G75*
G02*
X32326345Y-41466548I-106066J106066D01*
G01*
G37*
G04 #@! TD.AperFunction*
G04 #@! TA.AperFunction,SMDPad,CuDef*
G36*
G01*
X32679899Y-41820101D02*
X32679899Y-41820101D01*
G75*
G02*
X32679899Y-41607969I106066J106066D01*
G01*
X33245585Y-41042283D01*
G75*
G02*
X33457717Y-41042283I106066J-106066D01*
G01*
X33457717Y-41042283D01*
G75*
G02*
X33457717Y-41254415I-106066J-106066D01*
G01*
X32892031Y-41820101D01*
G75*
G02*
X32679899Y-41820101I-106066J106066D01*
G01*
G37*
G04 #@! TD.AperFunction*
G04 #@! TA.AperFunction,SMDPad,CuDef*
G36*
G01*
X33033452Y-42173655D02*
X33033452Y-42173655D01*
G75*
G02*
X33033452Y-41961523I106066J106066D01*
G01*
X33599138Y-41395837D01*
G75*
G02*
X33811270Y-41395837I106066J-106066D01*
G01*
X33811270Y-41395837D01*
G75*
G02*
X33811270Y-41607969I-106066J-106066D01*
G01*
X33245584Y-42173655D01*
G75*
G02*
X33033452Y-42173655I-106066J106066D01*
G01*
G37*
G04 #@! TD.AperFunction*
G04 #@! TA.AperFunction,SMDPad,CuDef*
G36*
G01*
X33387005Y-42527208D02*
X33387005Y-42527208D01*
G75*
G02*
X33387005Y-42315076I106066J106066D01*
G01*
X33952691Y-41749390D01*
G75*
G02*
X34164823Y-41749390I106066J-106066D01*
G01*
X34164823Y-41749390D01*
G75*
G02*
X34164823Y-41961522I-106066J-106066D01*
G01*
X33599137Y-42527208D01*
G75*
G02*
X33387005Y-42527208I-106066J106066D01*
G01*
G37*
G04 #@! TD.AperFunction*
G04 #@! TA.AperFunction,SMDPad,CuDef*
G36*
G01*
X33740559Y-42880761D02*
X33740559Y-42880761D01*
G75*
G02*
X33740559Y-42668629I106066J106066D01*
G01*
X34306245Y-42102943D01*
G75*
G02*
X34518377Y-42102943I106066J-106066D01*
G01*
X34518377Y-42102943D01*
G75*
G02*
X34518377Y-42315075I-106066J-106066D01*
G01*
X33952691Y-42880761D01*
G75*
G02*
X33740559Y-42880761I-106066J106066D01*
G01*
G37*
G04 #@! TD.AperFunction*
G04 #@! TA.AperFunction,SMDPad,CuDef*
G36*
G01*
X34094112Y-43234315D02*
X34094112Y-43234315D01*
G75*
G02*
X34094112Y-43022183I106066J106066D01*
G01*
X34659798Y-42456497D01*
G75*
G02*
X34871930Y-42456497I106066J-106066D01*
G01*
X34871930Y-42456497D01*
G75*
G02*
X34871930Y-42668629I-106066J-106066D01*
G01*
X34306244Y-43234315D01*
G75*
G02*
X34094112Y-43234315I-106066J106066D01*
G01*
G37*
G04 #@! TD.AperFunction*
G04 #@! TA.AperFunction,SMDPad,CuDef*
G36*
G01*
X34447666Y-43587868D02*
X34447666Y-43587868D01*
G75*
G02*
X34447666Y-43375736I106066J106066D01*
G01*
X35013352Y-42810050D01*
G75*
G02*
X35225484Y-42810050I106066J-106066D01*
G01*
X35225484Y-42810050D01*
G75*
G02*
X35225484Y-43022182I-106066J-106066D01*
G01*
X34659798Y-43587868D01*
G75*
G02*
X34447666Y-43587868I-106066J106066D01*
G01*
G37*
G04 #@! TD.AperFunction*
G04 #@! TA.AperFunction,SMDPad,CuDef*
G36*
G01*
X34447666Y-44012132D02*
X34447666Y-44012132D01*
G75*
G02*
X34659798Y-44012132I106066J-106066D01*
G01*
X35225484Y-44577818D01*
G75*
G02*
X35225484Y-44789950I-106066J-106066D01*
G01*
X35225484Y-44789950D01*
G75*
G02*
X35013352Y-44789950I-106066J106066D01*
G01*
X34447666Y-44224264D01*
G75*
G02*
X34447666Y-44012132I106066J106066D01*
G01*
G37*
G04 #@! TD.AperFunction*
G04 #@! TA.AperFunction,SMDPad,CuDef*
G36*
G01*
X34094112Y-44365685D02*
X34094112Y-44365685D01*
G75*
G02*
X34306244Y-44365685I106066J-106066D01*
G01*
X34871930Y-44931371D01*
G75*
G02*
X34871930Y-45143503I-106066J-106066D01*
G01*
X34871930Y-45143503D01*
G75*
G02*
X34659798Y-45143503I-106066J106066D01*
G01*
X34094112Y-44577817D01*
G75*
G02*
X34094112Y-44365685I106066J106066D01*
G01*
G37*
G04 #@! TD.AperFunction*
G04 #@! TA.AperFunction,SMDPad,CuDef*
G36*
G01*
X33740559Y-44719239D02*
X33740559Y-44719239D01*
G75*
G02*
X33952691Y-44719239I106066J-106066D01*
G01*
X34518377Y-45284925D01*
G75*
G02*
X34518377Y-45497057I-106066J-106066D01*
G01*
X34518377Y-45497057D01*
G75*
G02*
X34306245Y-45497057I-106066J106066D01*
G01*
X33740559Y-44931371D01*
G75*
G02*
X33740559Y-44719239I106066J106066D01*
G01*
G37*
G04 #@! TD.AperFunction*
G04 #@! TA.AperFunction,SMDPad,CuDef*
G36*
G01*
X33387005Y-45072792D02*
X33387005Y-45072792D01*
G75*
G02*
X33599137Y-45072792I106066J-106066D01*
G01*
X34164823Y-45638478D01*
G75*
G02*
X34164823Y-45850610I-106066J-106066D01*
G01*
X34164823Y-45850610D01*
G75*
G02*
X33952691Y-45850610I-106066J106066D01*
G01*
X33387005Y-45284924D01*
G75*
G02*
X33387005Y-45072792I106066J106066D01*
G01*
G37*
G04 #@! TD.AperFunction*
G04 #@! TA.AperFunction,SMDPad,CuDef*
G36*
G01*
X33033452Y-45426345D02*
X33033452Y-45426345D01*
G75*
G02*
X33245584Y-45426345I106066J-106066D01*
G01*
X33811270Y-45992031D01*
G75*
G02*
X33811270Y-46204163I-106066J-106066D01*
G01*
X33811270Y-46204163D01*
G75*
G02*
X33599138Y-46204163I-106066J106066D01*
G01*
X33033452Y-45638477D01*
G75*
G02*
X33033452Y-45426345I106066J106066D01*
G01*
G37*
G04 #@! TD.AperFunction*
G04 #@! TA.AperFunction,SMDPad,CuDef*
G36*
G01*
X32679899Y-45779899D02*
X32679899Y-45779899D01*
G75*
G02*
X32892031Y-45779899I106066J-106066D01*
G01*
X33457717Y-46345585D01*
G75*
G02*
X33457717Y-46557717I-106066J-106066D01*
G01*
X33457717Y-46557717D01*
G75*
G02*
X33245585Y-46557717I-106066J106066D01*
G01*
X32679899Y-45992031D01*
G75*
G02*
X32679899Y-45779899I106066J106066D01*
G01*
G37*
G04 #@! TD.AperFunction*
G04 #@! TA.AperFunction,SMDPad,CuDef*
G36*
G01*
X32326345Y-46133452D02*
X32326345Y-46133452D01*
G75*
G02*
X32538477Y-46133452I106066J-106066D01*
G01*
X33104163Y-46699138D01*
G75*
G02*
X33104163Y-46911270I-106066J-106066D01*
G01*
X33104163Y-46911270D01*
G75*
G02*
X32892031Y-46911270I-106066J106066D01*
G01*
X32326345Y-46345584D01*
G75*
G02*
X32326345Y-46133452I106066J106066D01*
G01*
G37*
G04 #@! TD.AperFunction*
G04 #@! TA.AperFunction,SMDPad,CuDef*
G36*
G01*
X31972792Y-46487005D02*
X31972792Y-46487005D01*
G75*
G02*
X32184924Y-46487005I106066J-106066D01*
G01*
X32750610Y-47052691D01*
G75*
G02*
X32750610Y-47264823I-106066J-106066D01*
G01*
X32750610Y-47264823D01*
G75*
G02*
X32538478Y-47264823I-106066J106066D01*
G01*
X31972792Y-46699137D01*
G75*
G02*
X31972792Y-46487005I106066J106066D01*
G01*
G37*
G04 #@! TD.AperFunction*
G04 #@! TA.AperFunction,SMDPad,CuDef*
G36*
G01*
X31619239Y-46840559D02*
X31619239Y-46840559D01*
G75*
G02*
X31831371Y-46840559I106066J-106066D01*
G01*
X32397057Y-47406245D01*
G75*
G02*
X32397057Y-47618377I-106066J-106066D01*
G01*
X32397057Y-47618377D01*
G75*
G02*
X32184925Y-47618377I-106066J106066D01*
G01*
X31619239Y-47052691D01*
G75*
G02*
X31619239Y-46840559I106066J106066D01*
G01*
G37*
G04 #@! TD.AperFunction*
G04 #@! TA.AperFunction,SMDPad,CuDef*
G36*
G01*
X31265685Y-47194112D02*
X31265685Y-47194112D01*
G75*
G02*
X31477817Y-47194112I106066J-106066D01*
G01*
X32043503Y-47759798D01*
G75*
G02*
X32043503Y-47971930I-106066J-106066D01*
G01*
X32043503Y-47971930D01*
G75*
G02*
X31831371Y-47971930I-106066J106066D01*
G01*
X31265685Y-47406244D01*
G75*
G02*
X31265685Y-47194112I106066J106066D01*
G01*
G37*
G04 #@! TD.AperFunction*
G04 #@! TA.AperFunction,SMDPad,CuDef*
G36*
G01*
X30912132Y-47547666D02*
X30912132Y-47547666D01*
G75*
G02*
X31124264Y-47547666I106066J-106066D01*
G01*
X31689950Y-48113352D01*
G75*
G02*
X31689950Y-48325484I-106066J-106066D01*
G01*
X31689950Y-48325484D01*
G75*
G02*
X31477818Y-48325484I-106066J106066D01*
G01*
X30912132Y-47759798D01*
G75*
G02*
X30912132Y-47547666I106066J106066D01*
G01*
G37*
G04 #@! TD.AperFunction*
G04 #@! TA.AperFunction,SMDPad,CuDef*
G36*
G01*
X29710050Y-48325484D02*
X29710050Y-48325484D01*
G75*
G02*
X29710050Y-48113352I106066J106066D01*
G01*
X30275736Y-47547666D01*
G75*
G02*
X30487868Y-47547666I106066J-106066D01*
G01*
X30487868Y-47547666D01*
G75*
G02*
X30487868Y-47759798I-106066J-106066D01*
G01*
X29922182Y-48325484D01*
G75*
G02*
X29710050Y-48325484I-106066J106066D01*
G01*
G37*
G04 #@! TD.AperFunction*
G04 #@! TA.AperFunction,SMDPad,CuDef*
G36*
G01*
X29356497Y-47971930D02*
X29356497Y-47971930D01*
G75*
G02*
X29356497Y-47759798I106066J106066D01*
G01*
X29922183Y-47194112D01*
G75*
G02*
X30134315Y-47194112I106066J-106066D01*
G01*
X30134315Y-47194112D01*
G75*
G02*
X30134315Y-47406244I-106066J-106066D01*
G01*
X29568629Y-47971930D01*
G75*
G02*
X29356497Y-47971930I-106066J106066D01*
G01*
G37*
G04 #@! TD.AperFunction*
G04 #@! TA.AperFunction,SMDPad,CuDef*
G36*
G01*
X29002943Y-47618377D02*
X29002943Y-47618377D01*
G75*
G02*
X29002943Y-47406245I106066J106066D01*
G01*
X29568629Y-46840559D01*
G75*
G02*
X29780761Y-46840559I106066J-106066D01*
G01*
X29780761Y-46840559D01*
G75*
G02*
X29780761Y-47052691I-106066J-106066D01*
G01*
X29215075Y-47618377D01*
G75*
G02*
X29002943Y-47618377I-106066J106066D01*
G01*
G37*
G04 #@! TD.AperFunction*
G04 #@! TA.AperFunction,SMDPad,CuDef*
G36*
G01*
X28649390Y-47264823D02*
X28649390Y-47264823D01*
G75*
G02*
X28649390Y-47052691I106066J106066D01*
G01*
X29215076Y-46487005D01*
G75*
G02*
X29427208Y-46487005I106066J-106066D01*
G01*
X29427208Y-46487005D01*
G75*
G02*
X29427208Y-46699137I-106066J-106066D01*
G01*
X28861522Y-47264823D01*
G75*
G02*
X28649390Y-47264823I-106066J106066D01*
G01*
G37*
G04 #@! TD.AperFunction*
G04 #@! TA.AperFunction,SMDPad,CuDef*
G36*
G01*
X28295837Y-46911270D02*
X28295837Y-46911270D01*
G75*
G02*
X28295837Y-46699138I106066J106066D01*
G01*
X28861523Y-46133452D01*
G75*
G02*
X29073655Y-46133452I106066J-106066D01*
G01*
X29073655Y-46133452D01*
G75*
G02*
X29073655Y-46345584I-106066J-106066D01*
G01*
X28507969Y-46911270D01*
G75*
G02*
X28295837Y-46911270I-106066J106066D01*
G01*
G37*
G04 #@! TD.AperFunction*
G04 #@! TA.AperFunction,SMDPad,CuDef*
G36*
G01*
X27942283Y-46557717D02*
X27942283Y-46557717D01*
G75*
G02*
X27942283Y-46345585I106066J106066D01*
G01*
X28507969Y-45779899D01*
G75*
G02*
X28720101Y-45779899I106066J-106066D01*
G01*
X28720101Y-45779899D01*
G75*
G02*
X28720101Y-45992031I-106066J-106066D01*
G01*
X28154415Y-46557717D01*
G75*
G02*
X27942283Y-46557717I-106066J106066D01*
G01*
G37*
G04 #@! TD.AperFunction*
G04 #@! TA.AperFunction,SMDPad,CuDef*
G36*
G01*
X27588730Y-46204163D02*
X27588730Y-46204163D01*
G75*
G02*
X27588730Y-45992031I106066J106066D01*
G01*
X28154416Y-45426345D01*
G75*
G02*
X28366548Y-45426345I106066J-106066D01*
G01*
X28366548Y-45426345D01*
G75*
G02*
X28366548Y-45638477I-106066J-106066D01*
G01*
X27800862Y-46204163D01*
G75*
G02*
X27588730Y-46204163I-106066J106066D01*
G01*
G37*
G04 #@! TD.AperFunction*
G04 #@! TA.AperFunction,SMDPad,CuDef*
G36*
G01*
X27235177Y-45850610D02*
X27235177Y-45850610D01*
G75*
G02*
X27235177Y-45638478I106066J106066D01*
G01*
X27800863Y-45072792D01*
G75*
G02*
X28012995Y-45072792I106066J-106066D01*
G01*
X28012995Y-45072792D01*
G75*
G02*
X28012995Y-45284924I-106066J-106066D01*
G01*
X27447309Y-45850610D01*
G75*
G02*
X27235177Y-45850610I-106066J106066D01*
G01*
G37*
G04 #@! TD.AperFunction*
G04 #@! TA.AperFunction,SMDPad,CuDef*
G36*
G01*
X26881623Y-45497057D02*
X26881623Y-45497057D01*
G75*
G02*
X26881623Y-45284925I106066J106066D01*
G01*
X27447309Y-44719239D01*
G75*
G02*
X27659441Y-44719239I106066J-106066D01*
G01*
X27659441Y-44719239D01*
G75*
G02*
X27659441Y-44931371I-106066J-106066D01*
G01*
X27093755Y-45497057D01*
G75*
G02*
X26881623Y-45497057I-106066J106066D01*
G01*
G37*
G04 #@! TD.AperFunction*
G04 #@! TA.AperFunction,SMDPad,CuDef*
G36*
G01*
X26528070Y-45143503D02*
X26528070Y-45143503D01*
G75*
G02*
X26528070Y-44931371I106066J106066D01*
G01*
X27093756Y-44365685D01*
G75*
G02*
X27305888Y-44365685I106066J-106066D01*
G01*
X27305888Y-44365685D01*
G75*
G02*
X27305888Y-44577817I-106066J-106066D01*
G01*
X26740202Y-45143503D01*
G75*
G02*
X26528070Y-45143503I-106066J106066D01*
G01*
G37*
G04 #@! TD.AperFunction*
G04 #@! TA.AperFunction,SMDPad,CuDef*
G36*
G01*
X26174516Y-44789950D02*
X26174516Y-44789950D01*
G75*
G02*
X26174516Y-44577818I106066J106066D01*
G01*
X26740202Y-44012132D01*
G75*
G02*
X26952334Y-44012132I106066J-106066D01*
G01*
X26952334Y-44012132D01*
G75*
G02*
X26952334Y-44224264I-106066J-106066D01*
G01*
X26386648Y-44789950D01*
G75*
G02*
X26174516Y-44789950I-106066J106066D01*
G01*
G37*
G04 #@! TD.AperFunction*
G04 #@! TA.AperFunction,SMDPad,CuDef*
G36*
G01*
X26174516Y-42810050D02*
X26174516Y-42810050D01*
G75*
G02*
X26386648Y-42810050I106066J-106066D01*
G01*
X26952334Y-43375736D01*
G75*
G02*
X26952334Y-43587868I-106066J-106066D01*
G01*
X26952334Y-43587868D01*
G75*
G02*
X26740202Y-43587868I-106066J106066D01*
G01*
X26174516Y-43022182D01*
G75*
G02*
X26174516Y-42810050I106066J106066D01*
G01*
G37*
G04 #@! TD.AperFunction*
G04 #@! TA.AperFunction,SMDPad,CuDef*
G36*
G01*
X26528070Y-42456497D02*
X26528070Y-42456497D01*
G75*
G02*
X26740202Y-42456497I106066J-106066D01*
G01*
X27305888Y-43022183D01*
G75*
G02*
X27305888Y-43234315I-106066J-106066D01*
G01*
X27305888Y-43234315D01*
G75*
G02*
X27093756Y-43234315I-106066J106066D01*
G01*
X26528070Y-42668629D01*
G75*
G02*
X26528070Y-42456497I106066J106066D01*
G01*
G37*
G04 #@! TD.AperFunction*
G04 #@! TA.AperFunction,SMDPad,CuDef*
G36*
G01*
X26881623Y-42102943D02*
X26881623Y-42102943D01*
G75*
G02*
X27093755Y-42102943I106066J-106066D01*
G01*
X27659441Y-42668629D01*
G75*
G02*
X27659441Y-42880761I-106066J-106066D01*
G01*
X27659441Y-42880761D01*
G75*
G02*
X27447309Y-42880761I-106066J106066D01*
G01*
X26881623Y-42315075D01*
G75*
G02*
X26881623Y-42102943I106066J106066D01*
G01*
G37*
G04 #@! TD.AperFunction*
G04 #@! TA.AperFunction,SMDPad,CuDef*
G36*
G01*
X27235177Y-41749390D02*
X27235177Y-41749390D01*
G75*
G02*
X27447309Y-41749390I106066J-106066D01*
G01*
X28012995Y-42315076D01*
G75*
G02*
X28012995Y-42527208I-106066J-106066D01*
G01*
X28012995Y-42527208D01*
G75*
G02*
X27800863Y-42527208I-106066J106066D01*
G01*
X27235177Y-41961522D01*
G75*
G02*
X27235177Y-41749390I106066J106066D01*
G01*
G37*
G04 #@! TD.AperFunction*
G04 #@! TA.AperFunction,SMDPad,CuDef*
G36*
G01*
X27588730Y-41395837D02*
X27588730Y-41395837D01*
G75*
G02*
X27800862Y-41395837I106066J-106066D01*
G01*
X28366548Y-41961523D01*
G75*
G02*
X28366548Y-42173655I-106066J-106066D01*
G01*
X28366548Y-42173655D01*
G75*
G02*
X28154416Y-42173655I-106066J106066D01*
G01*
X27588730Y-41607969D01*
G75*
G02*
X27588730Y-41395837I106066J106066D01*
G01*
G37*
G04 #@! TD.AperFunction*
G04 #@! TA.AperFunction,SMDPad,CuDef*
G36*
G01*
X27942283Y-41042283D02*
X27942283Y-41042283D01*
G75*
G02*
X28154415Y-41042283I106066J-106066D01*
G01*
X28720101Y-41607969D01*
G75*
G02*
X28720101Y-41820101I-106066J-106066D01*
G01*
X28720101Y-41820101D01*
G75*
G02*
X28507969Y-41820101I-106066J106066D01*
G01*
X27942283Y-41254415D01*
G75*
G02*
X27942283Y-41042283I106066J106066D01*
G01*
G37*
G04 #@! TD.AperFunction*
G04 #@! TA.AperFunction,SMDPad,CuDef*
G36*
G01*
X28295837Y-40688730D02*
X28295837Y-40688730D01*
G75*
G02*
X28507969Y-40688730I106066J-106066D01*
G01*
X29073655Y-41254416D01*
G75*
G02*
X29073655Y-41466548I-106066J-106066D01*
G01*
X29073655Y-41466548D01*
G75*
G02*
X28861523Y-41466548I-106066J106066D01*
G01*
X28295837Y-40900862D01*
G75*
G02*
X28295837Y-40688730I106066J106066D01*
G01*
G37*
G04 #@! TD.AperFunction*
G04 #@! TA.AperFunction,SMDPad,CuDef*
G36*
G01*
X28649390Y-40335177D02*
X28649390Y-40335177D01*
G75*
G02*
X28861522Y-40335177I106066J-106066D01*
G01*
X29427208Y-40900863D01*
G75*
G02*
X29427208Y-41112995I-106066J-106066D01*
G01*
X29427208Y-41112995D01*
G75*
G02*
X29215076Y-41112995I-106066J106066D01*
G01*
X28649390Y-40547309D01*
G75*
G02*
X28649390Y-40335177I106066J106066D01*
G01*
G37*
G04 #@! TD.AperFunction*
G04 #@! TA.AperFunction,SMDPad,CuDef*
G36*
G01*
X29002943Y-39981623D02*
X29002943Y-39981623D01*
G75*
G02*
X29215075Y-39981623I106066J-106066D01*
G01*
X29780761Y-40547309D01*
G75*
G02*
X29780761Y-40759441I-106066J-106066D01*
G01*
X29780761Y-40759441D01*
G75*
G02*
X29568629Y-40759441I-106066J106066D01*
G01*
X29002943Y-40193755D01*
G75*
G02*
X29002943Y-39981623I106066J106066D01*
G01*
G37*
G04 #@! TD.AperFunction*
G04 #@! TA.AperFunction,SMDPad,CuDef*
G36*
G01*
X29356497Y-39628070D02*
X29356497Y-39628070D01*
G75*
G02*
X29568629Y-39628070I106066J-106066D01*
G01*
X30134315Y-40193756D01*
G75*
G02*
X30134315Y-40405888I-106066J-106066D01*
G01*
X30134315Y-40405888D01*
G75*
G02*
X29922183Y-40405888I-106066J106066D01*
G01*
X29356497Y-39840202D01*
G75*
G02*
X29356497Y-39628070I106066J106066D01*
G01*
G37*
G04 #@! TD.AperFunction*
G04 #@! TA.AperFunction,SMDPad,CuDef*
G36*
G01*
X29710050Y-39274516D02*
X29710050Y-39274516D01*
G75*
G02*
X29922182Y-39274516I106066J-106066D01*
G01*
X30487868Y-39840202D01*
G75*
G02*
X30487868Y-40052334I-106066J-106066D01*
G01*
X30487868Y-40052334D01*
G75*
G02*
X30275736Y-40052334I-106066J106066D01*
G01*
X29710050Y-39486648D01*
G75*
G02*
X29710050Y-39274516I106066J106066D01*
G01*
G37*
G04 #@! TD.AperFunction*
G04 #@! TA.AperFunction,SMDPad,CuDef*
G36*
G01*
X25350000Y-35431250D02*
X25350000Y-34918750D01*
G75*
G02*
X25568750Y-34700000I218750J0D01*
G01*
X26006250Y-34700000D01*
G75*
G02*
X26225000Y-34918750I0J-218750D01*
G01*
X26225000Y-35431250D01*
G75*
G02*
X26006250Y-35650000I-218750J0D01*
G01*
X25568750Y-35650000D01*
G75*
G02*
X25350000Y-35431250I0J218750D01*
G01*
G37*
G04 #@! TD.AperFunction*
G04 #@! TA.AperFunction,SMDPad,CuDef*
G36*
G01*
X23775000Y-35431250D02*
X23775000Y-34918750D01*
G75*
G02*
X23993750Y-34700000I218750J0D01*
G01*
X24431250Y-34700000D01*
G75*
G02*
X24650000Y-34918750I0J-218750D01*
G01*
X24650000Y-35431250D01*
G75*
G02*
X24431250Y-35650000I-218750J0D01*
G01*
X23993750Y-35650000D01*
G75*
G02*
X23775000Y-35431250I0J218750D01*
G01*
G37*
G04 #@! TD.AperFunction*
G04 #@! TA.AperFunction,SMDPad,CuDef*
G36*
G01*
X30506250Y-35700000D02*
X29993750Y-35700000D01*
G75*
G02*
X29775000Y-35481250I0J218750D01*
G01*
X29775000Y-35043750D01*
G75*
G02*
X29993750Y-34825000I218750J0D01*
G01*
X30506250Y-34825000D01*
G75*
G02*
X30725000Y-35043750I0J-218750D01*
G01*
X30725000Y-35481250D01*
G75*
G02*
X30506250Y-35700000I-218750J0D01*
G01*
G37*
G04 #@! TD.AperFunction*
G04 #@! TA.AperFunction,SMDPad,CuDef*
G36*
G01*
X30506250Y-37275000D02*
X29993750Y-37275000D01*
G75*
G02*
X29775000Y-37056250I0J218750D01*
G01*
X29775000Y-36618750D01*
G75*
G02*
X29993750Y-36400000I218750J0D01*
G01*
X30506250Y-36400000D01*
G75*
G02*
X30725000Y-36618750I0J-218750D01*
G01*
X30725000Y-37056250D01*
G75*
G02*
X30506250Y-37275000I-218750J0D01*
G01*
G37*
G04 #@! TD.AperFunction*
G04 #@! TA.AperFunction,SMDPad,CuDef*
G36*
G01*
X29006250Y-35700000D02*
X28493750Y-35700000D01*
G75*
G02*
X28275000Y-35481250I0J218750D01*
G01*
X28275000Y-35043750D01*
G75*
G02*
X28493750Y-34825000I218750J0D01*
G01*
X29006250Y-34825000D01*
G75*
G02*
X29225000Y-35043750I0J-218750D01*
G01*
X29225000Y-35481250D01*
G75*
G02*
X29006250Y-35700000I-218750J0D01*
G01*
G37*
G04 #@! TD.AperFunction*
G04 #@! TA.AperFunction,SMDPad,CuDef*
G36*
G01*
X29006250Y-37275000D02*
X28493750Y-37275000D01*
G75*
G02*
X28275000Y-37056250I0J218750D01*
G01*
X28275000Y-36618750D01*
G75*
G02*
X28493750Y-36400000I218750J0D01*
G01*
X29006250Y-36400000D01*
G75*
G02*
X29225000Y-36618750I0J-218750D01*
G01*
X29225000Y-37056250D01*
G75*
G02*
X29006250Y-37275000I-218750J0D01*
G01*
G37*
G04 #@! TD.AperFunction*
G04 #@! TA.AperFunction,SMDPad,CuDef*
G36*
G01*
X35443750Y-31800000D02*
X35956250Y-31800000D01*
G75*
G02*
X36175000Y-32018750I0J-218750D01*
G01*
X36175000Y-32456250D01*
G75*
G02*
X35956250Y-32675000I-218750J0D01*
G01*
X35443750Y-32675000D01*
G75*
G02*
X35225000Y-32456250I0J218750D01*
G01*
X35225000Y-32018750D01*
G75*
G02*
X35443750Y-31800000I218750J0D01*
G01*
G37*
G04 #@! TD.AperFunction*
G04 #@! TA.AperFunction,SMDPad,CuDef*
G36*
G01*
X35443750Y-30225000D02*
X35956250Y-30225000D01*
G75*
G02*
X36175000Y-30443750I0J-218750D01*
G01*
X36175000Y-30881250D01*
G75*
G02*
X35956250Y-31100000I-218750J0D01*
G01*
X35443750Y-31100000D01*
G75*
G02*
X35225000Y-30881250I0J218750D01*
G01*
X35225000Y-30443750D01*
G75*
G02*
X35443750Y-30225000I218750J0D01*
G01*
G37*
G04 #@! TD.AperFunction*
G04 #@! TA.AperFunction,SMDPad,CuDef*
G36*
G01*
X25756250Y-32100000D02*
X25243750Y-32100000D01*
G75*
G02*
X25025000Y-31881250I0J218750D01*
G01*
X25025000Y-31443750D01*
G75*
G02*
X25243750Y-31225000I218750J0D01*
G01*
X25756250Y-31225000D01*
G75*
G02*
X25975000Y-31443750I0J-218750D01*
G01*
X25975000Y-31881250D01*
G75*
G02*
X25756250Y-32100000I-218750J0D01*
G01*
G37*
G04 #@! TD.AperFunction*
G04 #@! TA.AperFunction,SMDPad,CuDef*
G36*
G01*
X25756250Y-33675000D02*
X25243750Y-33675000D01*
G75*
G02*
X25025000Y-33456250I0J218750D01*
G01*
X25025000Y-33018750D01*
G75*
G02*
X25243750Y-32800000I218750J0D01*
G01*
X25756250Y-32800000D01*
G75*
G02*
X25975000Y-33018750I0J-218750D01*
G01*
X25975000Y-33456250D01*
G75*
G02*
X25756250Y-33675000I-218750J0D01*
G01*
G37*
G04 #@! TD.AperFunction*
G04 #@! TA.AperFunction,SMDPad,CuDef*
G36*
G01*
X33150000Y-31043750D02*
X33150000Y-31556250D01*
G75*
G02*
X32931250Y-31775000I-218750J0D01*
G01*
X32493750Y-31775000D01*
G75*
G02*
X32275000Y-31556250I0J218750D01*
G01*
X32275000Y-31043750D01*
G75*
G02*
X32493750Y-30825000I218750J0D01*
G01*
X32931250Y-30825000D01*
G75*
G02*
X33150000Y-31043750I0J-218750D01*
G01*
G37*
G04 #@! TD.AperFunction*
G04 #@! TA.AperFunction,SMDPad,CuDef*
G36*
G01*
X34725000Y-31043750D02*
X34725000Y-31556250D01*
G75*
G02*
X34506250Y-31775000I-218750J0D01*
G01*
X34068750Y-31775000D01*
G75*
G02*
X33850000Y-31556250I0J218750D01*
G01*
X33850000Y-31043750D01*
G75*
G02*
X34068750Y-30825000I218750J0D01*
G01*
X34506250Y-30825000D01*
G75*
G02*
X34725000Y-31043750I0J-218750D01*
G01*
G37*
G04 #@! TD.AperFunction*
G04 #@! TA.AperFunction,SMDPad,CuDef*
G36*
G01*
X35006250Y-34100000D02*
X34493750Y-34100000D01*
G75*
G02*
X34275000Y-33881250I0J218750D01*
G01*
X34275000Y-33443750D01*
G75*
G02*
X34493750Y-33225000I218750J0D01*
G01*
X35006250Y-33225000D01*
G75*
G02*
X35225000Y-33443750I0J-218750D01*
G01*
X35225000Y-33881250D01*
G75*
G02*
X35006250Y-34100000I-218750J0D01*
G01*
G37*
G04 #@! TD.AperFunction*
G04 #@! TA.AperFunction,SMDPad,CuDef*
G36*
G01*
X35006250Y-35675000D02*
X34493750Y-35675000D01*
G75*
G02*
X34275000Y-35456250I0J218750D01*
G01*
X34275000Y-35018750D01*
G75*
G02*
X34493750Y-34800000I218750J0D01*
G01*
X35006250Y-34800000D01*
G75*
G02*
X35225000Y-35018750I0J-218750D01*
G01*
X35225000Y-35456250D01*
G75*
G02*
X35006250Y-35675000I-218750J0D01*
G01*
G37*
G04 #@! TD.AperFunction*
G04 #@! TA.AperFunction,SMDPad,CuDef*
G36*
G01*
X27506250Y-35700000D02*
X26993750Y-35700000D01*
G75*
G02*
X26775000Y-35481250I0J218750D01*
G01*
X26775000Y-35043750D01*
G75*
G02*
X26993750Y-34825000I218750J0D01*
G01*
X27506250Y-34825000D01*
G75*
G02*
X27725000Y-35043750I0J-218750D01*
G01*
X27725000Y-35481250D01*
G75*
G02*
X27506250Y-35700000I-218750J0D01*
G01*
G37*
G04 #@! TD.AperFunction*
G04 #@! TA.AperFunction,SMDPad,CuDef*
G36*
G01*
X27506250Y-37275000D02*
X26993750Y-37275000D01*
G75*
G02*
X26775000Y-37056250I0J218750D01*
G01*
X26775000Y-36618750D01*
G75*
G02*
X26993750Y-36400000I218750J0D01*
G01*
X27506250Y-36400000D01*
G75*
G02*
X27725000Y-36618750I0J-218750D01*
G01*
X27725000Y-37056250D01*
G75*
G02*
X27506250Y-37275000I-218750J0D01*
G01*
G37*
G04 #@! TD.AperFunction*
G04 #@! TA.AperFunction,SMDPad,CuDef*
G36*
G01*
X25700000Y-48331250D02*
X25700000Y-47818750D01*
G75*
G02*
X25918750Y-47600000I218750J0D01*
G01*
X26356250Y-47600000D01*
G75*
G02*
X26575000Y-47818750I0J-218750D01*
G01*
X26575000Y-48331250D01*
G75*
G02*
X26356250Y-48550000I-218750J0D01*
G01*
X25918750Y-48550000D01*
G75*
G02*
X25700000Y-48331250I0J218750D01*
G01*
G37*
G04 #@! TD.AperFunction*
G04 #@! TA.AperFunction,SMDPad,CuDef*
G36*
G01*
X24125000Y-48331250D02*
X24125000Y-47818750D01*
G75*
G02*
X24343750Y-47600000I218750J0D01*
G01*
X24781250Y-47600000D01*
G75*
G02*
X25000000Y-47818750I0J-218750D01*
G01*
X25000000Y-48331250D01*
G75*
G02*
X24781250Y-48550000I-218750J0D01*
G01*
X24343750Y-48550000D01*
G75*
G02*
X24125000Y-48331250I0J218750D01*
G01*
G37*
G04 #@! TD.AperFunction*
G04 #@! TA.AperFunction,SMDPad,CuDef*
G36*
G01*
X28806250Y-53025000D02*
X28293750Y-53025000D01*
G75*
G02*
X28075000Y-52806250I0J218750D01*
G01*
X28075000Y-52368750D01*
G75*
G02*
X28293750Y-52150000I218750J0D01*
G01*
X28806250Y-52150000D01*
G75*
G02*
X29025000Y-52368750I0J-218750D01*
G01*
X29025000Y-52806250D01*
G75*
G02*
X28806250Y-53025000I-218750J0D01*
G01*
G37*
G04 #@! TD.AperFunction*
G04 #@! TA.AperFunction,SMDPad,CuDef*
G36*
G01*
X28806250Y-51450000D02*
X28293750Y-51450000D01*
G75*
G02*
X28075000Y-51231250I0J218750D01*
G01*
X28075000Y-50793750D01*
G75*
G02*
X28293750Y-50575000I218750J0D01*
G01*
X28806250Y-50575000D01*
G75*
G02*
X29025000Y-50793750I0J-218750D01*
G01*
X29025000Y-51231250D01*
G75*
G02*
X28806250Y-51450000I-218750J0D01*
G01*
G37*
G04 #@! TD.AperFunction*
G04 #@! TA.AperFunction,SMDPad,CuDef*
G36*
G01*
X32006250Y-34450000D02*
X31493750Y-34450000D01*
G75*
G02*
X31275000Y-34231250I0J218750D01*
G01*
X31275000Y-33793750D01*
G75*
G02*
X31493750Y-33575000I218750J0D01*
G01*
X32006250Y-33575000D01*
G75*
G02*
X32225000Y-33793750I0J-218750D01*
G01*
X32225000Y-34231250D01*
G75*
G02*
X32006250Y-34450000I-218750J0D01*
G01*
G37*
G04 #@! TD.AperFunction*
G04 #@! TA.AperFunction,SMDPad,CuDef*
G36*
G01*
X32006250Y-36025000D02*
X31493750Y-36025000D01*
G75*
G02*
X31275000Y-35806250I0J218750D01*
G01*
X31275000Y-35368750D01*
G75*
G02*
X31493750Y-35150000I218750J0D01*
G01*
X32006250Y-35150000D01*
G75*
G02*
X32225000Y-35368750I0J-218750D01*
G01*
X32225000Y-35806250D01*
G75*
G02*
X32006250Y-36025000I-218750J0D01*
G01*
G37*
G04 #@! TD.AperFunction*
G04 #@! TA.AperFunction,SMDPad,CuDef*
G36*
G01*
X33506250Y-34100000D02*
X32993750Y-34100000D01*
G75*
G02*
X32775000Y-33881250I0J218750D01*
G01*
X32775000Y-33443750D01*
G75*
G02*
X32993750Y-33225000I218750J0D01*
G01*
X33506250Y-33225000D01*
G75*
G02*
X33725000Y-33443750I0J-218750D01*
G01*
X33725000Y-33881250D01*
G75*
G02*
X33506250Y-34100000I-218750J0D01*
G01*
G37*
G04 #@! TD.AperFunction*
G04 #@! TA.AperFunction,SMDPad,CuDef*
G36*
G01*
X33506250Y-35675000D02*
X32993750Y-35675000D01*
G75*
G02*
X32775000Y-35456250I0J218750D01*
G01*
X32775000Y-35018750D01*
G75*
G02*
X32993750Y-34800000I218750J0D01*
G01*
X33506250Y-34800000D01*
G75*
G02*
X33725000Y-35018750I0J-218750D01*
G01*
X33725000Y-35456250D01*
G75*
G02*
X33506250Y-35675000I-218750J0D01*
G01*
G37*
G04 #@! TD.AperFunction*
G04 #@! TA.AperFunction,SMDPad,CuDef*
G36*
G01*
X34693750Y-39562500D02*
X35206250Y-39562500D01*
G75*
G02*
X35425000Y-39781250I0J-218750D01*
G01*
X35425000Y-40218750D01*
G75*
G02*
X35206250Y-40437500I-218750J0D01*
G01*
X34693750Y-40437500D01*
G75*
G02*
X34475000Y-40218750I0J218750D01*
G01*
X34475000Y-39781250D01*
G75*
G02*
X34693750Y-39562500I218750J0D01*
G01*
G37*
G04 #@! TD.AperFunction*
G04 #@! TA.AperFunction,SMDPad,CuDef*
G36*
G01*
X34693750Y-37987500D02*
X35206250Y-37987500D01*
G75*
G02*
X35425000Y-38206250I0J-218750D01*
G01*
X35425000Y-38643750D01*
G75*
G02*
X35206250Y-38862500I-218750J0D01*
G01*
X34693750Y-38862500D01*
G75*
G02*
X34475000Y-38643750I0J218750D01*
G01*
X34475000Y-38206250D01*
G75*
G02*
X34693750Y-37987500I218750J0D01*
G01*
G37*
G04 #@! TD.AperFunction*
G04 #@! TA.AperFunction,SMDPad,CuDef*
G36*
G01*
X31668750Y-49475000D02*
X32181250Y-49475000D01*
G75*
G02*
X32400000Y-49693750I0J-218750D01*
G01*
X32400000Y-50131250D01*
G75*
G02*
X32181250Y-50350000I-218750J0D01*
G01*
X31668750Y-50350000D01*
G75*
G02*
X31450000Y-50131250I0J218750D01*
G01*
X31450000Y-49693750D01*
G75*
G02*
X31668750Y-49475000I218750J0D01*
G01*
G37*
G04 #@! TD.AperFunction*
G04 #@! TA.AperFunction,SMDPad,CuDef*
G36*
G01*
X31668750Y-51050000D02*
X32181250Y-51050000D01*
G75*
G02*
X32400000Y-51268750I0J-218750D01*
G01*
X32400000Y-51706250D01*
G75*
G02*
X32181250Y-51925000I-218750J0D01*
G01*
X31668750Y-51925000D01*
G75*
G02*
X31450000Y-51706250I0J218750D01*
G01*
X31450000Y-51268750D01*
G75*
G02*
X31668750Y-51050000I218750J0D01*
G01*
G37*
G04 #@! TD.AperFunction*
G04 #@! TA.AperFunction,SMDPad,CuDef*
G36*
G01*
X25000000Y-46318750D02*
X25000000Y-46831250D01*
G75*
G02*
X24781250Y-47050000I-218750J0D01*
G01*
X24343750Y-47050000D01*
G75*
G02*
X24125000Y-46831250I0J218750D01*
G01*
X24125000Y-46318750D01*
G75*
G02*
X24343750Y-46100000I218750J0D01*
G01*
X24781250Y-46100000D01*
G75*
G02*
X25000000Y-46318750I0J-218750D01*
G01*
G37*
G04 #@! TD.AperFunction*
G04 #@! TA.AperFunction,SMDPad,CuDef*
G36*
G01*
X26575000Y-46318750D02*
X26575000Y-46831250D01*
G75*
G02*
X26356250Y-47050000I-218750J0D01*
G01*
X25918750Y-47050000D01*
G75*
G02*
X25700000Y-46831250I0J218750D01*
G01*
X25700000Y-46318750D01*
G75*
G02*
X25918750Y-46100000I218750J0D01*
G01*
X26356250Y-46100000D01*
G75*
G02*
X26575000Y-46318750I0J-218750D01*
G01*
G37*
G04 #@! TD.AperFunction*
D16*
X24450000Y-38175000D03*
X24450000Y-40275000D03*
D17*
X25250000Y-52250000D03*
X25250000Y-50050000D03*
X26850000Y-50050000D03*
X26850000Y-52250000D03*
D18*
X33075010Y-48460000D03*
X35599993Y-42600000D03*
X32144943Y-38744456D03*
X26289990Y-39978317D03*
X36800000Y-43850000D03*
X24100000Y-51150000D03*
X24100000Y-50050000D03*
X24100000Y-52250000D03*
X27600000Y-34000000D03*
X36000000Y-49150000D03*
X36200000Y-47500000D03*
X23450000Y-46500000D03*
X35900000Y-53300000D03*
X35575000Y-27225000D03*
X35575000Y-26175000D03*
X24425000Y-27225000D03*
X24425000Y-26200000D03*
X32125000Y-52450000D03*
X32900000Y-49925000D03*
X29775000Y-52900000D03*
X29800000Y-51400000D03*
X25000000Y-38950000D03*
X24125000Y-49100000D03*
X30825000Y-37875000D03*
X24900000Y-35925000D03*
X24600000Y-30150000D03*
X29450000Y-34100000D03*
X33350000Y-32400000D03*
X31600000Y-32400000D03*
X25240040Y-42705931D03*
X34735854Y-41614146D03*
X26721672Y-41471672D03*
X25968156Y-43369947D03*
X25309999Y-43859999D03*
X34229687Y-51929687D03*
X29430020Y-38750001D03*
X34803589Y-45796411D03*
X25585000Y-41564245D03*
X33050000Y-47710000D03*
X25585000Y-40810002D03*
X28182768Y-50012814D03*
X28814335Y-49821175D03*
X29488133Y-50042411D03*
X29999970Y-50600000D03*
X35750000Y-36617471D03*
X35250000Y-43800000D03*
X36410003Y-36617471D03*
X35942965Y-43800000D03*
X25800000Y-44350000D03*
X29039997Y-30739999D03*
X30250000Y-31050000D03*
X26650000Y-38000000D03*
X30325000Y-38750001D03*
X27300000Y-30450000D03*
X33517002Y-30450000D03*
X30555889Y-48819111D03*
D19*
X26137500Y-46241180D02*
X27270532Y-45108148D01*
X26137500Y-46500000D02*
X26137500Y-46241180D01*
X35425000Y-38425000D02*
X36134989Y-39134989D01*
X34950000Y-38425000D02*
X35425000Y-38425000D01*
X31700000Y-49712500D02*
X31822510Y-49712500D01*
X36134989Y-42065004D02*
X35599993Y-42600000D01*
X36134989Y-41684989D02*
X36134989Y-42065004D01*
X36134989Y-41684989D02*
X36134989Y-39134989D01*
X35435534Y-42600000D02*
X34836575Y-43198959D01*
X35599993Y-42600000D02*
X35435534Y-42600000D01*
X32144943Y-38819523D02*
X31301041Y-39663425D01*
X32144943Y-38744456D02*
X32144943Y-38819523D01*
X32123287Y-48051713D02*
X32531573Y-48460000D01*
X32531573Y-48460000D02*
X33075010Y-48460000D01*
X31654594Y-47583021D02*
X32123287Y-48051713D01*
X32123287Y-48051713D02*
X32269675Y-48198101D01*
X33075010Y-48762490D02*
X31925000Y-49912500D01*
X33075010Y-48460000D02*
X33075010Y-48762490D01*
X35700000Y-33000000D02*
X35700000Y-32237500D01*
X37620000Y-34920000D02*
X35700000Y-33000000D01*
X33250000Y-36178872D02*
X33250000Y-35237500D01*
X32144943Y-38744456D02*
X32144943Y-37283929D01*
X32144943Y-37283929D02*
X33250000Y-36178872D01*
X26289990Y-39978317D02*
X26289990Y-40710010D01*
X24424989Y-44258819D02*
X24424988Y-42684781D01*
X24980522Y-42129246D02*
X25856201Y-42129246D01*
X25133085Y-44966915D02*
X24424989Y-44258819D01*
X25133085Y-44966915D02*
X25133085Y-45495585D01*
X25133085Y-45495585D02*
X26137500Y-46500000D01*
X24424988Y-42684781D02*
X24980522Y-42129246D01*
X25596683Y-39978317D02*
X26289990Y-39978317D01*
X25300000Y-40275000D02*
X25596683Y-39978317D01*
X24450000Y-40275000D02*
X25300000Y-40275000D01*
X26156671Y-40843329D02*
X26289990Y-40710010D01*
X26156671Y-41828776D02*
X26156671Y-40843329D01*
X25856201Y-42129246D02*
X26156671Y-41828776D01*
X30700000Y-43092893D02*
X28684746Y-41077639D01*
X30700000Y-43800000D02*
X30700000Y-43092893D01*
X30700000Y-40971573D02*
X31654594Y-40016979D01*
X30700000Y-43800000D02*
X30700000Y-40971573D01*
X33528427Y-43800000D02*
X34483021Y-42845406D01*
X30700000Y-43800000D02*
X33528427Y-43800000D01*
X34381775Y-43946241D02*
X34836575Y-44401041D01*
X30846241Y-43946241D02*
X34381775Y-43946241D01*
X30700000Y-43800000D02*
X30846241Y-43946241D01*
X31301041Y-47915345D02*
X31301041Y-47936575D01*
X30700000Y-47314304D02*
X31301041Y-47915345D01*
X30700000Y-43800000D02*
X30700000Y-47314304D01*
X29285787Y-43800000D02*
X27624086Y-45461701D01*
X30700000Y-43800000D02*
X29285787Y-43800000D01*
X24512500Y-46700000D02*
X24587500Y-46700000D01*
X25100000Y-51832998D02*
X25100000Y-52100000D01*
X26137500Y-48000000D02*
X26062500Y-48000000D01*
X33250000Y-33662500D02*
X34750000Y-33662500D01*
X34525434Y-42845406D02*
X35664979Y-41705861D01*
X34483021Y-42845406D02*
X34525434Y-42845406D01*
X34950000Y-40520042D02*
X35664979Y-41235021D01*
X34950000Y-40000000D02*
X34950000Y-40520042D01*
X27143523Y-45942264D02*
X27624086Y-45461701D01*
X26137500Y-48000000D02*
X27143523Y-46993977D01*
X27143523Y-46993977D02*
X27143523Y-45942264D01*
D20*
X25250000Y-48687500D02*
X24562500Y-48000000D01*
X25250000Y-50050000D02*
X25250000Y-48687500D01*
X25250000Y-49917998D02*
X25250000Y-50050000D01*
X27538533Y-46254360D02*
X27538533Y-47157595D01*
X27977639Y-45815254D02*
X27538533Y-46254360D01*
X26815010Y-48521276D02*
X26377287Y-48958999D01*
X26815010Y-47881118D02*
X26815010Y-48521276D01*
X26377287Y-48958999D02*
X26208999Y-48958999D01*
X27538533Y-47157595D02*
X26815010Y-47881118D01*
X26208999Y-48958999D02*
X25250000Y-49917998D01*
X27375000Y-40475000D02*
X28331192Y-41431192D01*
X27250000Y-36837500D02*
X27250000Y-37700000D01*
X27375000Y-37825000D02*
X27375000Y-40475000D01*
X27250000Y-37700000D02*
X27375000Y-37825000D01*
X26598250Y-45073323D02*
X26916979Y-44754594D01*
X24819998Y-44095200D02*
X25798121Y-45073323D01*
X24819998Y-43125973D02*
X24819998Y-44095200D01*
X25240040Y-42705931D02*
X24819998Y-43125973D01*
X26916979Y-44754594D02*
X26371573Y-45300000D01*
X26024798Y-45300000D02*
X25798121Y-45073323D01*
X26371573Y-45300000D02*
X26024798Y-45300000D01*
X37620000Y-32380000D02*
X36750000Y-31510000D01*
X36750000Y-31000000D02*
X36412500Y-30662500D01*
X36750000Y-31510000D02*
X36750000Y-31000000D01*
X35700000Y-30662500D02*
X36412500Y-30662500D01*
X33594972Y-37751120D02*
X33594972Y-40905028D01*
X37267471Y-37107471D02*
X34238619Y-37107471D01*
X37620000Y-37460000D02*
X37267471Y-37107471D01*
X33594972Y-40905028D02*
X33068808Y-41431192D01*
X34238619Y-37107471D02*
X33594972Y-37751120D01*
X33914981Y-37883671D02*
X34371172Y-37427480D01*
X33914980Y-41292127D02*
X33914981Y-37883671D01*
X33422361Y-41784746D02*
X33914980Y-41292127D01*
X34371172Y-37427480D02*
X35528829Y-37427481D01*
X35528829Y-37427481D02*
X37620000Y-39518652D01*
X37620000Y-39518652D02*
X37620000Y-40000000D01*
X34234990Y-41679223D02*
X33775914Y-42138299D01*
X34234990Y-38016224D02*
X34234990Y-41679223D01*
X36529999Y-41449999D02*
X36529999Y-38881213D01*
X36529999Y-38881213D02*
X35396276Y-37747490D01*
X37620000Y-42540000D02*
X36529999Y-41449999D01*
X35396276Y-37747490D02*
X34503724Y-37747490D01*
X34503724Y-37747490D02*
X34234990Y-38016224D01*
X34129468Y-42491852D02*
X34735854Y-41885466D01*
X34735854Y-41885466D02*
X34735854Y-41614146D01*
X27270532Y-42491852D02*
X26721672Y-41942992D01*
X26721672Y-41471672D02*
X26721672Y-41942992D01*
X26392437Y-43369947D02*
X26563425Y-43198959D01*
X25968156Y-43369947D02*
X26392437Y-43369947D01*
X25309999Y-43859999D02*
X25309999Y-43335139D01*
X25897569Y-42747569D02*
X25897569Y-42646506D01*
X25309999Y-43335139D02*
X25897569Y-42747569D01*
X25897569Y-42646506D02*
X26144075Y-42400000D01*
X26471573Y-42400000D02*
X26916979Y-42845406D01*
X26144075Y-42400000D02*
X26471573Y-42400000D01*
X34525037Y-51634337D02*
X34229687Y-51929687D01*
X33775914Y-45461701D02*
X34525037Y-46210824D01*
X34525037Y-46210824D02*
X34525037Y-51634337D01*
X33708205Y-51758205D02*
X34205028Y-51261380D01*
X33708205Y-53166671D02*
X33708205Y-51758205D01*
X34205028Y-51261380D02*
X34205028Y-46597921D01*
X22380000Y-55240000D02*
X23470001Y-54149999D01*
X30957449Y-53829989D02*
X33044887Y-53829989D01*
X34205028Y-46597921D02*
X33422361Y-45815254D01*
X23470001Y-54149999D02*
X30637439Y-54149999D01*
X30637439Y-54149999D02*
X30957449Y-53829989D01*
X33044887Y-53829989D02*
X33708205Y-53166671D01*
X30504887Y-53829989D02*
X23509989Y-53829989D01*
X23509989Y-53829989D02*
X22380000Y-52700000D01*
X30824897Y-53509979D02*
X30504887Y-53829989D01*
X33885020Y-46985020D02*
X33885019Y-51128829D01*
X33388195Y-53034119D02*
X32912335Y-53509979D01*
X33068808Y-46168808D02*
X33885020Y-46985020D01*
X32912335Y-53509979D02*
X30824897Y-53509979D01*
X33885019Y-51128829D02*
X33388195Y-51625653D01*
X33388195Y-51625653D02*
X33388195Y-53034119D01*
X29430020Y-38994486D02*
X30098959Y-39663425D01*
X29430020Y-38750001D02*
X29430020Y-38994486D01*
X33540001Y-47347108D02*
X32715254Y-46522361D01*
X30372335Y-53509979D02*
X30692345Y-53189969D01*
X23470001Y-53120001D02*
X23859979Y-53509979D01*
X23470001Y-48710001D02*
X23470001Y-53120001D01*
X33565010Y-50996276D02*
X33565010Y-47372117D01*
X33565010Y-47372117D02*
X33540001Y-47347108D01*
X23859979Y-53509979D02*
X30372335Y-53509979D01*
X22380000Y-47620000D02*
X23470001Y-48710001D01*
X30692345Y-53189969D02*
X32779783Y-53189969D01*
X32779783Y-53189969D02*
X33068185Y-52901567D01*
X33068185Y-52901567D02*
X33068185Y-51493101D01*
X33068185Y-51493101D02*
X33565010Y-50996276D01*
X34129468Y-45108148D02*
X34129468Y-45122290D01*
X34129468Y-45122290D02*
X34803589Y-45796411D01*
X25585000Y-41564245D02*
X24255756Y-41564245D01*
X23470001Y-43989999D02*
X22380000Y-45080000D01*
X23470001Y-42350000D02*
X23470001Y-43989999D01*
X24255756Y-41564245D02*
X23470001Y-42350000D01*
X32488680Y-47710000D02*
X33050000Y-47710000D01*
X32008148Y-47229468D02*
X32488680Y-47710000D01*
X25585000Y-40810002D02*
X25150767Y-41244235D01*
X23675765Y-41244235D02*
X22380000Y-42540000D01*
X25150767Y-41244235D02*
X23675765Y-41244235D01*
X28684746Y-46522361D02*
X28366017Y-46841090D01*
X28182768Y-47024339D02*
X28684746Y-46522361D01*
X28182768Y-50012814D02*
X28182768Y-47024339D01*
X28502778Y-49509618D02*
X28814335Y-49821175D01*
X29038299Y-46875914D02*
X28502778Y-47411435D01*
X28502778Y-47411435D02*
X28502778Y-49509618D01*
X29391852Y-47229468D02*
X28822788Y-47798532D01*
X28822788Y-49104426D02*
X28822788Y-48702212D01*
X29488133Y-49769771D02*
X28822788Y-49104426D01*
X28822788Y-47798532D02*
X28822788Y-48702212D01*
X29488133Y-50042411D02*
X29488133Y-49769771D01*
X29999970Y-50600000D02*
X29999970Y-49829046D01*
X29999970Y-49829046D02*
X29142798Y-48971874D01*
X29142798Y-48185629D02*
X29745406Y-47583021D01*
X29142798Y-48971874D02*
X29142798Y-48185629D01*
X33274962Y-40517931D02*
X33274962Y-37618568D01*
X33274962Y-37618568D02*
X34276059Y-36617471D01*
X34276059Y-36617471D02*
X35750000Y-36617471D01*
X32715254Y-41077639D02*
X33274962Y-40517931D01*
X35613600Y-44163600D02*
X35250000Y-43800000D01*
X35613599Y-46176143D02*
X35613600Y-44163600D01*
X32540000Y-55240000D02*
X34759990Y-53020010D01*
X35165057Y-46624685D02*
X35613599Y-46176143D01*
X34759990Y-53020010D02*
X34759990Y-52577148D01*
X34759990Y-52577148D02*
X35165057Y-52172081D01*
X35165057Y-52172081D02*
X35165057Y-46624685D01*
X35080000Y-52709700D02*
X35080000Y-55240000D01*
X35080000Y-52709700D02*
X35485067Y-52304633D01*
X35485067Y-46757237D02*
X35942965Y-46299339D01*
X35485067Y-52304633D02*
X35485067Y-46757237D01*
X35942965Y-46299339D02*
X35942965Y-45757035D01*
X35942965Y-43800000D02*
X35942965Y-45757035D01*
X32954952Y-40130835D02*
X32361701Y-40724086D01*
X32954953Y-37486015D02*
X32954952Y-40130835D01*
X34143507Y-36297461D02*
X32954953Y-37486015D01*
X36410003Y-36263918D02*
X36273555Y-36127470D01*
X36273555Y-36127470D02*
X35514799Y-36127470D01*
X35514799Y-36127470D02*
X35344808Y-36297461D01*
X36410003Y-36617471D02*
X36410003Y-36263918D01*
X35344808Y-36297461D02*
X34143507Y-36297461D01*
X31090001Y-54149999D02*
X30000000Y-55240000D01*
X34439980Y-52444596D02*
X34439980Y-52887458D01*
X34483021Y-44754594D02*
X34486974Y-44754594D01*
X34845047Y-52039529D02*
X34439980Y-52444596D01*
X34486974Y-44754594D02*
X35293590Y-45561210D01*
X35293590Y-45561210D02*
X35293590Y-46043590D01*
X35293590Y-46043590D02*
X34845047Y-46492133D01*
X33177439Y-54149999D02*
X31090001Y-54149999D01*
X34439980Y-52887458D02*
X33177439Y-54149999D01*
X34845047Y-46492133D02*
X34845047Y-52039529D01*
X26312384Y-44150000D02*
X26331192Y-44168808D01*
X26000000Y-44150000D02*
X25800000Y-44350000D01*
X26000000Y-44150000D02*
X26312384Y-44150000D01*
X26563425Y-44401041D02*
X26331192Y-44168808D01*
X30000000Y-32380000D02*
X30000000Y-33800000D01*
X30250000Y-34050000D02*
X30250000Y-35262500D01*
X30000000Y-33800000D02*
X30250000Y-34050000D01*
X29750000Y-32130000D02*
X30000000Y-32380000D01*
X29750000Y-29500000D02*
X29750000Y-32130000D01*
X30750000Y-31630000D02*
X30000000Y-32380000D01*
X30750000Y-29500000D02*
X30750000Y-31630000D01*
X29250000Y-29500000D02*
X29250000Y-30529996D01*
X29250000Y-30529996D02*
X29039997Y-30739999D01*
X28750000Y-33670000D02*
X28750000Y-35262500D01*
X27460000Y-32380000D02*
X28750000Y-33670000D01*
X30250000Y-29500000D02*
X30250000Y-31050000D01*
X26587500Y-52537500D02*
X26300000Y-52250000D01*
X27858543Y-46641457D02*
X28331192Y-46168808D01*
X27858543Y-47290147D02*
X27858543Y-46641457D01*
X26937500Y-52587500D02*
X26600000Y-52250000D01*
X28300000Y-52587500D02*
X26937500Y-52587500D01*
X27690001Y-47458689D02*
X27858543Y-47290147D01*
X26850000Y-52250000D02*
X27690001Y-51409999D01*
X27690001Y-51409999D02*
X27690001Y-47458689D01*
X28486657Y-37100843D02*
X28750000Y-36837500D01*
X29038299Y-40724086D02*
X28150000Y-39835787D01*
X28150000Y-39835787D02*
X28150000Y-37975000D01*
X28750000Y-37375000D02*
X28750000Y-36837500D01*
X28150000Y-37975000D02*
X28750000Y-37375000D01*
X30250000Y-36837500D02*
X29572490Y-37515010D01*
X29572490Y-37515010D02*
X29062552Y-37515010D01*
X29062552Y-37515010D02*
X28470010Y-38107552D01*
X28470010Y-39448690D02*
X29391852Y-40370532D01*
X28470010Y-38107552D02*
X28470010Y-39448690D01*
X34788480Y-35387500D02*
X34900000Y-35387500D01*
X32634943Y-39743737D02*
X32008148Y-40370532D01*
X34750000Y-35237500D02*
X34750000Y-35727451D01*
X34500000Y-35977451D02*
X34010049Y-35977451D01*
X34010049Y-35977451D02*
X32634943Y-37352557D01*
X34750000Y-35727451D02*
X34500000Y-35977451D01*
X32634943Y-37352557D02*
X32634943Y-39743737D01*
D19*
X25787500Y-36725000D02*
X25787500Y-35225000D01*
X28865019Y-39136592D02*
X29745406Y-40016979D01*
X28865019Y-38409981D02*
X28865019Y-39136592D01*
X29090000Y-38185000D02*
X28865019Y-38409981D01*
X29759999Y-38185000D02*
X29090000Y-38185000D01*
X30325000Y-38750001D02*
X29759999Y-38185000D01*
X30325000Y-38750001D02*
X31174999Y-38750001D01*
X31174999Y-38750001D02*
X31674933Y-38250067D01*
X31674933Y-36525067D02*
X31750000Y-36450000D01*
X31674933Y-38250067D02*
X31674933Y-36525067D01*
X31750000Y-35587500D02*
X31750000Y-36450000D01*
X25787500Y-37712500D02*
X25787500Y-36675000D01*
X25325000Y-38175000D02*
X25787500Y-37712500D01*
X26075000Y-38000000D02*
X25787500Y-37712500D01*
X26650000Y-38000000D02*
X26075000Y-38000000D01*
X24450000Y-38175000D02*
X25325000Y-38175000D01*
X26899999Y-38249999D02*
X26650000Y-38000000D01*
X26900000Y-40707107D02*
X26899999Y-38249999D01*
X27977639Y-41784746D02*
X26900000Y-40707107D01*
X27600000Y-29500000D02*
X27600000Y-30150000D01*
X27600000Y-30150000D02*
X27300000Y-30450000D01*
X25482648Y-30450000D02*
X27300000Y-30450000D01*
X24709990Y-34097490D02*
X24709990Y-31222658D01*
X24709990Y-31222658D02*
X25482648Y-30450000D01*
X25787500Y-35175000D02*
X24709990Y-34097490D01*
X32400000Y-30210000D02*
X32640000Y-30450000D01*
X32640000Y-30450000D02*
X33517002Y-30450000D01*
X32400000Y-29500000D02*
X32400000Y-30210000D01*
D20*
X30555889Y-48393505D02*
X30098959Y-47936575D01*
X30555889Y-48819111D02*
X30555889Y-48393505D01*
X28250000Y-30550000D02*
X28250000Y-29500000D01*
X27800000Y-31000000D02*
X28250000Y-30550000D01*
X27232002Y-31000000D02*
X27800000Y-31000000D01*
X25500000Y-31662500D02*
X26569502Y-31662500D01*
X26569502Y-31662500D02*
X27232002Y-31000000D01*
X31250000Y-30214797D02*
X31250000Y-29500000D01*
X32712500Y-31300000D02*
X31600000Y-31300000D01*
X31250000Y-30950000D02*
X31250000Y-30214797D01*
X31600000Y-31300000D02*
X31250000Y-30950000D01*
G36*
X36653202Y-42025750D02*
G01*
X36571888Y-42222059D01*
X36530000Y-42432644D01*
X36530000Y-42647356D01*
X36571888Y-42857941D01*
X36654055Y-43056309D01*
X36773342Y-43234834D01*
X36925166Y-43386658D01*
X37103691Y-43505945D01*
X37302059Y-43588112D01*
X37512644Y-43630000D01*
X37727356Y-43630000D01*
X37937941Y-43588112D01*
X38136309Y-43505945D01*
X38314834Y-43386658D01*
X38466658Y-43234834D01*
X38575000Y-43072689D01*
X38575000Y-44547311D01*
X38466658Y-44385166D01*
X38314834Y-44233342D01*
X38136309Y-44114055D01*
X37937941Y-44031888D01*
X37727356Y-43990000D01*
X37512644Y-43990000D01*
X37302059Y-44031888D01*
X37103691Y-44114055D01*
X36925166Y-44233342D01*
X36773342Y-44385166D01*
X36654055Y-44563691D01*
X36571888Y-44762059D01*
X36530000Y-44972644D01*
X36530000Y-45187356D01*
X36571888Y-45397941D01*
X36654055Y-45596309D01*
X36773342Y-45774834D01*
X36925166Y-45926658D01*
X37103691Y-46045945D01*
X37302059Y-46128112D01*
X37512644Y-46170000D01*
X37727356Y-46170000D01*
X37937941Y-46128112D01*
X38136309Y-46045945D01*
X38314834Y-45926658D01*
X38466658Y-45774834D01*
X38575000Y-45612689D01*
X38575000Y-47087311D01*
X38466658Y-46925166D01*
X38314834Y-46773342D01*
X38136309Y-46654055D01*
X37937941Y-46571888D01*
X37727356Y-46530000D01*
X37512644Y-46530000D01*
X37302059Y-46571888D01*
X37103691Y-46654055D01*
X36925166Y-46773342D01*
X36773342Y-46925166D01*
X36654055Y-47103691D01*
X36571888Y-47302059D01*
X36530000Y-47512644D01*
X36530000Y-47727356D01*
X36571888Y-47937941D01*
X36654055Y-48136309D01*
X36773342Y-48314834D01*
X36925166Y-48466658D01*
X37103691Y-48585945D01*
X37302059Y-48668112D01*
X37512644Y-48710000D01*
X37727356Y-48710000D01*
X37937941Y-48668112D01*
X38136309Y-48585945D01*
X38314834Y-48466658D01*
X38466658Y-48314834D01*
X38575000Y-48152689D01*
X38575000Y-49627311D01*
X38466658Y-49465166D01*
X38314834Y-49313342D01*
X38136309Y-49194055D01*
X37937941Y-49111888D01*
X37727356Y-49070000D01*
X37512644Y-49070000D01*
X37302059Y-49111888D01*
X37103691Y-49194055D01*
X36925166Y-49313342D01*
X36773342Y-49465166D01*
X36654055Y-49643691D01*
X36571888Y-49842059D01*
X36530000Y-50052644D01*
X36530000Y-50267356D01*
X36571888Y-50477941D01*
X36654055Y-50676309D01*
X36773342Y-50854834D01*
X36925166Y-51006658D01*
X37103691Y-51125945D01*
X37302059Y-51208112D01*
X37512644Y-51250000D01*
X37727356Y-51250000D01*
X37937941Y-51208112D01*
X38136309Y-51125945D01*
X38314834Y-51006658D01*
X38466658Y-50854834D01*
X38575000Y-50692689D01*
X38575000Y-52167311D01*
X38466658Y-52005166D01*
X38314834Y-51853342D01*
X38136309Y-51734055D01*
X37937941Y-51651888D01*
X37727356Y-51610000D01*
X37512644Y-51610000D01*
X37302059Y-51651888D01*
X37103691Y-51734055D01*
X36925166Y-51853342D01*
X36773342Y-52005166D01*
X36654055Y-52183691D01*
X36571888Y-52382059D01*
X36530000Y-52592644D01*
X36530000Y-52807356D01*
X36571888Y-53017941D01*
X36654055Y-53216309D01*
X36773342Y-53394834D01*
X36925166Y-53546658D01*
X37103691Y-53665945D01*
X37302059Y-53748112D01*
X37512644Y-53790000D01*
X37727356Y-53790000D01*
X37937941Y-53748112D01*
X38136309Y-53665945D01*
X38314834Y-53546658D01*
X38466658Y-53394834D01*
X38575000Y-53232689D01*
X38575000Y-54707311D01*
X38466658Y-54545166D01*
X38314834Y-54393342D01*
X38136309Y-54274055D01*
X37937941Y-54191888D01*
X37727356Y-54150000D01*
X37512644Y-54150000D01*
X37302059Y-54191888D01*
X37103691Y-54274055D01*
X36925166Y-54393342D01*
X36773342Y-54545166D01*
X36654055Y-54723691D01*
X36571888Y-54922059D01*
X36530000Y-55132644D01*
X36530000Y-55347356D01*
X36571888Y-55557941D01*
X36654055Y-55756309D01*
X36773342Y-55934834D01*
X36925166Y-56086658D01*
X37087311Y-56195000D01*
X35612689Y-56195000D01*
X35774834Y-56086658D01*
X35926658Y-55934834D01*
X36045945Y-55756309D01*
X36128112Y-55557941D01*
X36170000Y-55347356D01*
X36170000Y-55132644D01*
X36128112Y-54922059D01*
X36045945Y-54723691D01*
X35926658Y-54545166D01*
X35774834Y-54393342D01*
X35596309Y-54274055D01*
X35400000Y-54192741D01*
X35400000Y-52842247D01*
X35700231Y-52542018D01*
X35712436Y-52532002D01*
X35722455Y-52519794D01*
X35752424Y-52483276D01*
X35781500Y-52428879D01*
X35782139Y-52427684D01*
X35800437Y-52367364D01*
X35805067Y-52320351D01*
X35805067Y-52320347D01*
X35806615Y-52304634D01*
X35805067Y-52288921D01*
X35805067Y-46889784D01*
X36158124Y-46536728D01*
X36170334Y-46526708D01*
X36190822Y-46501743D01*
X36210323Y-46477982D01*
X36240037Y-46422391D01*
X36251692Y-46383968D01*
X36258335Y-46362070D01*
X36262965Y-46315057D01*
X36262965Y-46315055D01*
X36264513Y-46299339D01*
X36262965Y-46283623D01*
X36262965Y-44172965D01*
X36323573Y-44112357D01*
X36377197Y-44032102D01*
X36414135Y-43942928D01*
X36432965Y-43848261D01*
X36432965Y-43751739D01*
X36414135Y-43657072D01*
X36377197Y-43567898D01*
X36323573Y-43487643D01*
X36255322Y-43419392D01*
X36175067Y-43365768D01*
X36085893Y-43328830D01*
X35991226Y-43310000D01*
X35894704Y-43310000D01*
X35800037Y-43328830D01*
X35710863Y-43365768D01*
X35630608Y-43419392D01*
X35596483Y-43453518D01*
X35562357Y-43419392D01*
X35482102Y-43365768D01*
X35392928Y-43328830D01*
X35298261Y-43310000D01*
X35284147Y-43310000D01*
X35512042Y-43082105D01*
X35551732Y-43090000D01*
X35648254Y-43090000D01*
X35742921Y-43071170D01*
X35832095Y-43034232D01*
X35912350Y-42980608D01*
X35980601Y-42912357D01*
X36034225Y-42832102D01*
X36071163Y-42742928D01*
X36084939Y-42673667D01*
X36400583Y-42358024D01*
X36415647Y-42345662D01*
X36428009Y-42330599D01*
X36428015Y-42330593D01*
X36465008Y-42285516D01*
X36501687Y-42216896D01*
X36524273Y-42142437D01*
X36526711Y-42117680D01*
X36529989Y-42084405D01*
X36529989Y-42084398D01*
X36531899Y-42065004D01*
X36529989Y-42045610D01*
X36529989Y-41902536D01*
X36653202Y-42025750D01*
G37*
X36653202Y-42025750D02*
X36571888Y-42222059D01*
X36530000Y-42432644D01*
X36530000Y-42647356D01*
X36571888Y-42857941D01*
X36654055Y-43056309D01*
X36773342Y-43234834D01*
X36925166Y-43386658D01*
X37103691Y-43505945D01*
X37302059Y-43588112D01*
X37512644Y-43630000D01*
X37727356Y-43630000D01*
X37937941Y-43588112D01*
X38136309Y-43505945D01*
X38314834Y-43386658D01*
X38466658Y-43234834D01*
X38575000Y-43072689D01*
X38575000Y-44547311D01*
X38466658Y-44385166D01*
X38314834Y-44233342D01*
X38136309Y-44114055D01*
X37937941Y-44031888D01*
X37727356Y-43990000D01*
X37512644Y-43990000D01*
X37302059Y-44031888D01*
X37103691Y-44114055D01*
X36925166Y-44233342D01*
X36773342Y-44385166D01*
X36654055Y-44563691D01*
X36571888Y-44762059D01*
X36530000Y-44972644D01*
X36530000Y-45187356D01*
X36571888Y-45397941D01*
X36654055Y-45596309D01*
X36773342Y-45774834D01*
X36925166Y-45926658D01*
X37103691Y-46045945D01*
X37302059Y-46128112D01*
X37512644Y-46170000D01*
X37727356Y-46170000D01*
X37937941Y-46128112D01*
X38136309Y-46045945D01*
X38314834Y-45926658D01*
X38466658Y-45774834D01*
X38575000Y-45612689D01*
X38575000Y-47087311D01*
X38466658Y-46925166D01*
X38314834Y-46773342D01*
X38136309Y-46654055D01*
X37937941Y-46571888D01*
X37727356Y-46530000D01*
X37512644Y-46530000D01*
X37302059Y-46571888D01*
X37103691Y-46654055D01*
X36925166Y-46773342D01*
X36773342Y-46925166D01*
X36654055Y-47103691D01*
X36571888Y-47302059D01*
X36530000Y-47512644D01*
X36530000Y-47727356D01*
X36571888Y-47937941D01*
X36654055Y-48136309D01*
X36773342Y-48314834D01*
X36925166Y-48466658D01*
X37103691Y-48585945D01*
X37302059Y-48668112D01*
X37512644Y-48710000D01*
X37727356Y-48710000D01*
X37937941Y-48668112D01*
X38136309Y-48585945D01*
X38314834Y-48466658D01*
X38466658Y-48314834D01*
X38575000Y-48152689D01*
X38575000Y-49627311D01*
X38466658Y-49465166D01*
X38314834Y-49313342D01*
X38136309Y-49194055D01*
X37937941Y-49111888D01*
X37727356Y-49070000D01*
X37512644Y-49070000D01*
X37302059Y-49111888D01*
X37103691Y-49194055D01*
X36925166Y-49313342D01*
X36773342Y-49465166D01*
X36654055Y-49643691D01*
X36571888Y-49842059D01*
X36530000Y-50052644D01*
X36530000Y-50267356D01*
X36571888Y-50477941D01*
X36654055Y-50676309D01*
X36773342Y-50854834D01*
X36925166Y-51006658D01*
X37103691Y-51125945D01*
X37302059Y-51208112D01*
X37512644Y-51250000D01*
X37727356Y-51250000D01*
X37937941Y-51208112D01*
X38136309Y-51125945D01*
X38314834Y-51006658D01*
X38466658Y-50854834D01*
X38575000Y-50692689D01*
X38575000Y-52167311D01*
X38466658Y-52005166D01*
X38314834Y-51853342D01*
X38136309Y-51734055D01*
X37937941Y-51651888D01*
X37727356Y-51610000D01*
X37512644Y-51610000D01*
X37302059Y-51651888D01*
X37103691Y-51734055D01*
X36925166Y-51853342D01*
X36773342Y-52005166D01*
X36654055Y-52183691D01*
X36571888Y-52382059D01*
X36530000Y-52592644D01*
X36530000Y-52807356D01*
X36571888Y-53017941D01*
X36654055Y-53216309D01*
X36773342Y-53394834D01*
X36925166Y-53546658D01*
X37103691Y-53665945D01*
X37302059Y-53748112D01*
X37512644Y-53790000D01*
X37727356Y-53790000D01*
X37937941Y-53748112D01*
X38136309Y-53665945D01*
X38314834Y-53546658D01*
X38466658Y-53394834D01*
X38575000Y-53232689D01*
X38575000Y-54707311D01*
X38466658Y-54545166D01*
X38314834Y-54393342D01*
X38136309Y-54274055D01*
X37937941Y-54191888D01*
X37727356Y-54150000D01*
X37512644Y-54150000D01*
X37302059Y-54191888D01*
X37103691Y-54274055D01*
X36925166Y-54393342D01*
X36773342Y-54545166D01*
X36654055Y-54723691D01*
X36571888Y-54922059D01*
X36530000Y-55132644D01*
X36530000Y-55347356D01*
X36571888Y-55557941D01*
X36654055Y-55756309D01*
X36773342Y-55934834D01*
X36925166Y-56086658D01*
X37087311Y-56195000D01*
X35612689Y-56195000D01*
X35774834Y-56086658D01*
X35926658Y-55934834D01*
X36045945Y-55756309D01*
X36128112Y-55557941D01*
X36170000Y-55347356D01*
X36170000Y-55132644D01*
X36128112Y-54922059D01*
X36045945Y-54723691D01*
X35926658Y-54545166D01*
X35774834Y-54393342D01*
X35596309Y-54274055D01*
X35400000Y-54192741D01*
X35400000Y-52842247D01*
X35700231Y-52542018D01*
X35712436Y-52532002D01*
X35722455Y-52519794D01*
X35752424Y-52483276D01*
X35781500Y-52428879D01*
X35782139Y-52427684D01*
X35800437Y-52367364D01*
X35805067Y-52320351D01*
X35805067Y-52320347D01*
X35806615Y-52304634D01*
X35805067Y-52288921D01*
X35805067Y-46889784D01*
X36158124Y-46536728D01*
X36170334Y-46526708D01*
X36190822Y-46501743D01*
X36210323Y-46477982D01*
X36240037Y-46422391D01*
X36251692Y-46383968D01*
X36258335Y-46362070D01*
X36262965Y-46315057D01*
X36262965Y-46315055D01*
X36264513Y-46299339D01*
X36262965Y-46283623D01*
X36262965Y-44172965D01*
X36323573Y-44112357D01*
X36377197Y-44032102D01*
X36414135Y-43942928D01*
X36432965Y-43848261D01*
X36432965Y-43751739D01*
X36414135Y-43657072D01*
X36377197Y-43567898D01*
X36323573Y-43487643D01*
X36255322Y-43419392D01*
X36175067Y-43365768D01*
X36085893Y-43328830D01*
X35991226Y-43310000D01*
X35894704Y-43310000D01*
X35800037Y-43328830D01*
X35710863Y-43365768D01*
X35630608Y-43419392D01*
X35596483Y-43453518D01*
X35562357Y-43419392D01*
X35482102Y-43365768D01*
X35392928Y-43328830D01*
X35298261Y-43310000D01*
X35284147Y-43310000D01*
X35512042Y-43082105D01*
X35551732Y-43090000D01*
X35648254Y-43090000D01*
X35742921Y-43071170D01*
X35832095Y-43034232D01*
X35912350Y-42980608D01*
X35980601Y-42912357D01*
X36034225Y-42832102D01*
X36071163Y-42742928D01*
X36084939Y-42673667D01*
X36400583Y-42358024D01*
X36415647Y-42345662D01*
X36428009Y-42330599D01*
X36428015Y-42330593D01*
X36465008Y-42285516D01*
X36501687Y-42216896D01*
X36524273Y-42142437D01*
X36526711Y-42117680D01*
X36529989Y-42084405D01*
X36529989Y-42084398D01*
X36531899Y-42065004D01*
X36529989Y-42045610D01*
X36529989Y-41902536D01*
X36653202Y-42025750D01*
G36*
X31428321Y-47922433D02*
G01*
X31407107Y-47943646D01*
X31861416Y-48397955D01*
X31905202Y-48392243D01*
X32238552Y-48725594D01*
X32250915Y-48740658D01*
X32265978Y-48753020D01*
X32265983Y-48753025D01*
X32299288Y-48780357D01*
X32311061Y-48790019D01*
X32379682Y-48826698D01*
X32435313Y-48843573D01*
X32045048Y-49233839D01*
X31668750Y-49233839D01*
X31579026Y-49242676D01*
X31492750Y-49268848D01*
X31413237Y-49311348D01*
X31343544Y-49368544D01*
X31286348Y-49438237D01*
X31243848Y-49517750D01*
X31217676Y-49604026D01*
X31208839Y-49693750D01*
X31208839Y-50131250D01*
X31217676Y-50220974D01*
X31243848Y-50307250D01*
X31286348Y-50386763D01*
X31343544Y-50456456D01*
X31413237Y-50513652D01*
X31492750Y-50556152D01*
X31579026Y-50582324D01*
X31668750Y-50591161D01*
X32181250Y-50591161D01*
X32270974Y-50582324D01*
X32357250Y-50556152D01*
X32436763Y-50513652D01*
X32506456Y-50456456D01*
X32563652Y-50386763D01*
X32606152Y-50307250D01*
X32632324Y-50220974D01*
X32641161Y-50131250D01*
X32641161Y-49754952D01*
X33245011Y-49151103D01*
X33245010Y-50863728D01*
X32853028Y-51255711D01*
X32840817Y-51265732D01*
X32830797Y-51277942D01*
X32800828Y-51314459D01*
X32782108Y-51349482D01*
X32771114Y-51370050D01*
X32752816Y-51430370D01*
X32750883Y-51450000D01*
X32746637Y-51493101D01*
X32748186Y-51508824D01*
X32748185Y-52769019D01*
X32647236Y-52869969D01*
X30708050Y-52869969D01*
X30692344Y-52868422D01*
X30676638Y-52869969D01*
X30676627Y-52869969D01*
X30629614Y-52874599D01*
X30569294Y-52892897D01*
X30557289Y-52899314D01*
X30513701Y-52922612D01*
X30477184Y-52952581D01*
X30477181Y-52952584D01*
X30464976Y-52962600D01*
X30454959Y-52974806D01*
X30239787Y-53189979D01*
X29059280Y-53189979D01*
X29061763Y-53188652D01*
X29131456Y-53131456D01*
X29188652Y-53061763D01*
X29231152Y-52982250D01*
X29257324Y-52895974D01*
X29266161Y-52806250D01*
X29266161Y-52368750D01*
X29257324Y-52279026D01*
X29231152Y-52192750D01*
X29188652Y-52113237D01*
X29131456Y-52043544D01*
X29061763Y-51986348D01*
X28982250Y-51943848D01*
X28920118Y-51925000D01*
X31208839Y-51925000D01*
X31213473Y-51972048D01*
X31227196Y-52017288D01*
X31249482Y-52058982D01*
X31279473Y-52095527D01*
X31316018Y-52125518D01*
X31357712Y-52147804D01*
X31402952Y-52161527D01*
X31450000Y-52166161D01*
X31785000Y-52165000D01*
X31845000Y-52105000D01*
X31845000Y-51567500D01*
X32005000Y-51567500D01*
X32005000Y-52105000D01*
X32065000Y-52165000D01*
X32400000Y-52166161D01*
X32447048Y-52161527D01*
X32492288Y-52147804D01*
X32533982Y-52125518D01*
X32570527Y-52095527D01*
X32600518Y-52058982D01*
X32622804Y-52017288D01*
X32636527Y-51972048D01*
X32641161Y-51925000D01*
X32640000Y-51627500D01*
X32580000Y-51567500D01*
X32005000Y-51567500D01*
X31845000Y-51567500D01*
X31270000Y-51567500D01*
X31210000Y-51627500D01*
X31208839Y-51925000D01*
X28920118Y-51925000D01*
X28895974Y-51917676D01*
X28806250Y-51908839D01*
X28293750Y-51908839D01*
X28204026Y-51917676D01*
X28117750Y-51943848D01*
X28038237Y-51986348D01*
X27968544Y-52043544D01*
X27911348Y-52113237D01*
X27868848Y-52192750D01*
X27846172Y-52267500D01*
X27691161Y-52267500D01*
X27691161Y-51861387D01*
X27905160Y-51647388D01*
X27917370Y-51637368D01*
X27920438Y-51633629D01*
X27941018Y-51650518D01*
X27982712Y-51672804D01*
X28027952Y-51686527D01*
X28075000Y-51691161D01*
X28410000Y-51690000D01*
X28470000Y-51630000D01*
X28470000Y-51092500D01*
X28630000Y-51092500D01*
X28630000Y-51630000D01*
X28690000Y-51690000D01*
X29025000Y-51691161D01*
X29072048Y-51686527D01*
X29117288Y-51672804D01*
X29158982Y-51650518D01*
X29195527Y-51620527D01*
X29225518Y-51583982D01*
X29247804Y-51542288D01*
X29261527Y-51497048D01*
X29266161Y-51450000D01*
X29265000Y-51152500D01*
X29205000Y-51092500D01*
X28630000Y-51092500D01*
X28470000Y-51092500D01*
X28450000Y-51092500D01*
X28450000Y-50932500D01*
X28470000Y-50932500D01*
X28470000Y-50912500D01*
X28630000Y-50912500D01*
X28630000Y-50932500D01*
X29205000Y-50932500D01*
X29265000Y-50872500D01*
X29266161Y-50575000D01*
X29261527Y-50527952D01*
X29247804Y-50482712D01*
X29238187Y-50464720D01*
X29256031Y-50476643D01*
X29345205Y-50513581D01*
X29439872Y-50532411D01*
X29513814Y-50532411D01*
X29509970Y-50551739D01*
X29509970Y-50648261D01*
X29528800Y-50742928D01*
X29565738Y-50832102D01*
X29619362Y-50912357D01*
X29687613Y-50980608D01*
X29767868Y-51034232D01*
X29857042Y-51071170D01*
X29951709Y-51090000D01*
X30048231Y-51090000D01*
X30142898Y-51071170D01*
X30194005Y-51050000D01*
X31208839Y-51050000D01*
X31210000Y-51347500D01*
X31270000Y-51407500D01*
X31845000Y-51407500D01*
X31845000Y-50870000D01*
X32005000Y-50870000D01*
X32005000Y-51407500D01*
X32580000Y-51407500D01*
X32640000Y-51347500D01*
X32641161Y-51050000D01*
X32636527Y-51002952D01*
X32622804Y-50957712D01*
X32600518Y-50916018D01*
X32570527Y-50879473D01*
X32533982Y-50849482D01*
X32492288Y-50827196D01*
X32447048Y-50813473D01*
X32400000Y-50808839D01*
X32065000Y-50810000D01*
X32005000Y-50870000D01*
X31845000Y-50870000D01*
X31785000Y-50810000D01*
X31450000Y-50808839D01*
X31402952Y-50813473D01*
X31357712Y-50827196D01*
X31316018Y-50849482D01*
X31279473Y-50879473D01*
X31249482Y-50916018D01*
X31227196Y-50957712D01*
X31213473Y-51002952D01*
X31208839Y-51050000D01*
X30194005Y-51050000D01*
X30232072Y-51034232D01*
X30312327Y-50980608D01*
X30380578Y-50912357D01*
X30434202Y-50832102D01*
X30471140Y-50742928D01*
X30489970Y-50648261D01*
X30489970Y-50551739D01*
X30471140Y-50457072D01*
X30434202Y-50367898D01*
X30380578Y-50287643D01*
X30319970Y-50227035D01*
X30319970Y-49844758D01*
X30321518Y-49829045D01*
X30319970Y-49813328D01*
X30315340Y-49766315D01*
X30297042Y-49705995D01*
X30267454Y-49650641D01*
X30267327Y-49650403D01*
X30237358Y-49613885D01*
X30237355Y-49613882D01*
X30227339Y-49601677D01*
X30215133Y-49591660D01*
X29462798Y-48839327D01*
X29462798Y-48385734D01*
X29490275Y-48437139D01*
X29539011Y-48496523D01*
X29598395Y-48545259D01*
X29666148Y-48581474D01*
X29739663Y-48603775D01*
X29816116Y-48611305D01*
X29892569Y-48603775D01*
X29966084Y-48581474D01*
X30033837Y-48545259D01*
X30078340Y-48508737D01*
X30148457Y-48438620D01*
X30195936Y-48486099D01*
X30175281Y-48506754D01*
X30121657Y-48587009D01*
X30084719Y-48676183D01*
X30065889Y-48770850D01*
X30065889Y-48867372D01*
X30084719Y-48962039D01*
X30121657Y-49051213D01*
X30175281Y-49131468D01*
X30243532Y-49199719D01*
X30323787Y-49253343D01*
X30412961Y-49290281D01*
X30507628Y-49309111D01*
X30604150Y-49309111D01*
X30698817Y-49290281D01*
X30787991Y-49253343D01*
X30868246Y-49199719D01*
X30936497Y-49131468D01*
X30990121Y-49051213D01*
X31027059Y-48962039D01*
X31045889Y-48867372D01*
X31045889Y-48770850D01*
X31027059Y-48676183D01*
X30990121Y-48587009D01*
X30936497Y-48506754D01*
X30875889Y-48446146D01*
X30875889Y-48409221D01*
X30877437Y-48393505D01*
X30875332Y-48372130D01*
X30871259Y-48330774D01*
X30852961Y-48270454D01*
X30852961Y-48270453D01*
X30852139Y-48268915D01*
X31081838Y-48268915D01*
X31364681Y-48551758D01*
X31433729Y-48588136D01*
X31508548Y-48610345D01*
X31586262Y-48617531D01*
X31663884Y-48609418D01*
X31752766Y-48570956D01*
X31762421Y-48496950D01*
X31308112Y-48042641D01*
X31081838Y-48268915D01*
X30852139Y-48268915D01*
X30823247Y-48214862D01*
X30795596Y-48181170D01*
X30783258Y-48166136D01*
X30771047Y-48156115D01*
X30601005Y-47986073D01*
X30671121Y-47915957D01*
X30697156Y-47884233D01*
X30968701Y-48155778D01*
X31194975Y-47929504D01*
X31180833Y-47915362D01*
X31279828Y-47816367D01*
X31293970Y-47830509D01*
X31315184Y-47809296D01*
X31428321Y-47922433D01*
G37*
X31428321Y-47922433D02*
X31407107Y-47943646D01*
X31861416Y-48397955D01*
X31905202Y-48392243D01*
X32238552Y-48725594D01*
X32250915Y-48740658D01*
X32265978Y-48753020D01*
X32265983Y-48753025D01*
X32299288Y-48780357D01*
X32311061Y-48790019D01*
X32379682Y-48826698D01*
X32435313Y-48843573D01*
X32045048Y-49233839D01*
X31668750Y-49233839D01*
X31579026Y-49242676D01*
X31492750Y-49268848D01*
X31413237Y-49311348D01*
X31343544Y-49368544D01*
X31286348Y-49438237D01*
X31243848Y-49517750D01*
X31217676Y-49604026D01*
X31208839Y-49693750D01*
X31208839Y-50131250D01*
X31217676Y-50220974D01*
X31243848Y-50307250D01*
X31286348Y-50386763D01*
X31343544Y-50456456D01*
X31413237Y-50513652D01*
X31492750Y-50556152D01*
X31579026Y-50582324D01*
X31668750Y-50591161D01*
X32181250Y-50591161D01*
X32270974Y-50582324D01*
X32357250Y-50556152D01*
X32436763Y-50513652D01*
X32506456Y-50456456D01*
X32563652Y-50386763D01*
X32606152Y-50307250D01*
X32632324Y-50220974D01*
X32641161Y-50131250D01*
X32641161Y-49754952D01*
X33245011Y-49151103D01*
X33245010Y-50863728D01*
X32853028Y-51255711D01*
X32840817Y-51265732D01*
X32830797Y-51277942D01*
X32800828Y-51314459D01*
X32782108Y-51349482D01*
X32771114Y-51370050D01*
X32752816Y-51430370D01*
X32750883Y-51450000D01*
X32746637Y-51493101D01*
X32748186Y-51508824D01*
X32748185Y-52769019D01*
X32647236Y-52869969D01*
X30708050Y-52869969D01*
X30692344Y-52868422D01*
X30676638Y-52869969D01*
X30676627Y-52869969D01*
X30629614Y-52874599D01*
X30569294Y-52892897D01*
X30557289Y-52899314D01*
X30513701Y-52922612D01*
X30477184Y-52952581D01*
X30477181Y-52952584D01*
X30464976Y-52962600D01*
X30454959Y-52974806D01*
X30239787Y-53189979D01*
X29059280Y-53189979D01*
X29061763Y-53188652D01*
X29131456Y-53131456D01*
X29188652Y-53061763D01*
X29231152Y-52982250D01*
X29257324Y-52895974D01*
X29266161Y-52806250D01*
X29266161Y-52368750D01*
X29257324Y-52279026D01*
X29231152Y-52192750D01*
X29188652Y-52113237D01*
X29131456Y-52043544D01*
X29061763Y-51986348D01*
X28982250Y-51943848D01*
X28920118Y-51925000D01*
X31208839Y-51925000D01*
X31213473Y-51972048D01*
X31227196Y-52017288D01*
X31249482Y-52058982D01*
X31279473Y-52095527D01*
X31316018Y-52125518D01*
X31357712Y-52147804D01*
X31402952Y-52161527D01*
X31450000Y-52166161D01*
X31785000Y-52165000D01*
X31845000Y-52105000D01*
X31845000Y-51567500D01*
X32005000Y-51567500D01*
X32005000Y-52105000D01*
X32065000Y-52165000D01*
X32400000Y-52166161D01*
X32447048Y-52161527D01*
X32492288Y-52147804D01*
X32533982Y-52125518D01*
X32570527Y-52095527D01*
X32600518Y-52058982D01*
X32622804Y-52017288D01*
X32636527Y-51972048D01*
X32641161Y-51925000D01*
X32640000Y-51627500D01*
X32580000Y-51567500D01*
X32005000Y-51567500D01*
X31845000Y-51567500D01*
X31270000Y-51567500D01*
X31210000Y-51627500D01*
X31208839Y-51925000D01*
X28920118Y-51925000D01*
X28895974Y-51917676D01*
X28806250Y-51908839D01*
X28293750Y-51908839D01*
X28204026Y-51917676D01*
X28117750Y-51943848D01*
X28038237Y-51986348D01*
X27968544Y-52043544D01*
X27911348Y-52113237D01*
X27868848Y-52192750D01*
X27846172Y-52267500D01*
X27691161Y-52267500D01*
X27691161Y-51861387D01*
X27905160Y-51647388D01*
X27917370Y-51637368D01*
X27920438Y-51633629D01*
X27941018Y-51650518D01*
X27982712Y-51672804D01*
X28027952Y-51686527D01*
X28075000Y-51691161D01*
X28410000Y-51690000D01*
X28470000Y-51630000D01*
X28470000Y-51092500D01*
X28630000Y-51092500D01*
X28630000Y-51630000D01*
X28690000Y-51690000D01*
X29025000Y-51691161D01*
X29072048Y-51686527D01*
X29117288Y-51672804D01*
X29158982Y-51650518D01*
X29195527Y-51620527D01*
X29225518Y-51583982D01*
X29247804Y-51542288D01*
X29261527Y-51497048D01*
X29266161Y-51450000D01*
X29265000Y-51152500D01*
X29205000Y-51092500D01*
X28630000Y-51092500D01*
X28470000Y-51092500D01*
X28450000Y-51092500D01*
X28450000Y-50932500D01*
X28470000Y-50932500D01*
X28470000Y-50912500D01*
X28630000Y-50912500D01*
X28630000Y-50932500D01*
X29205000Y-50932500D01*
X29265000Y-50872500D01*
X29266161Y-50575000D01*
X29261527Y-50527952D01*
X29247804Y-50482712D01*
X29238187Y-50464720D01*
X29256031Y-50476643D01*
X29345205Y-50513581D01*
X29439872Y-50532411D01*
X29513814Y-50532411D01*
X29509970Y-50551739D01*
X29509970Y-50648261D01*
X29528800Y-50742928D01*
X29565738Y-50832102D01*
X29619362Y-50912357D01*
X29687613Y-50980608D01*
X29767868Y-51034232D01*
X29857042Y-51071170D01*
X29951709Y-51090000D01*
X30048231Y-51090000D01*
X30142898Y-51071170D01*
X30194005Y-51050000D01*
X31208839Y-51050000D01*
X31210000Y-51347500D01*
X31270000Y-51407500D01*
X31845000Y-51407500D01*
X31845000Y-50870000D01*
X32005000Y-50870000D01*
X32005000Y-51407500D01*
X32580000Y-51407500D01*
X32640000Y-51347500D01*
X32641161Y-51050000D01*
X32636527Y-51002952D01*
X32622804Y-50957712D01*
X32600518Y-50916018D01*
X32570527Y-50879473D01*
X32533982Y-50849482D01*
X32492288Y-50827196D01*
X32447048Y-50813473D01*
X32400000Y-50808839D01*
X32065000Y-50810000D01*
X32005000Y-50870000D01*
X31845000Y-50870000D01*
X31785000Y-50810000D01*
X31450000Y-50808839D01*
X31402952Y-50813473D01*
X31357712Y-50827196D01*
X31316018Y-50849482D01*
X31279473Y-50879473D01*
X31249482Y-50916018D01*
X31227196Y-50957712D01*
X31213473Y-51002952D01*
X31208839Y-51050000D01*
X30194005Y-51050000D01*
X30232072Y-51034232D01*
X30312327Y-50980608D01*
X30380578Y-50912357D01*
X30434202Y-50832102D01*
X30471140Y-50742928D01*
X30489970Y-50648261D01*
X30489970Y-50551739D01*
X30471140Y-50457072D01*
X30434202Y-50367898D01*
X30380578Y-50287643D01*
X30319970Y-50227035D01*
X30319970Y-49844758D01*
X30321518Y-49829045D01*
X30319970Y-49813328D01*
X30315340Y-49766315D01*
X30297042Y-49705995D01*
X30267454Y-49650641D01*
X30267327Y-49650403D01*
X30237358Y-49613885D01*
X30237355Y-49613882D01*
X30227339Y-49601677D01*
X30215133Y-49591660D01*
X29462798Y-48839327D01*
X29462798Y-48385734D01*
X29490275Y-48437139D01*
X29539011Y-48496523D01*
X29598395Y-48545259D01*
X29666148Y-48581474D01*
X29739663Y-48603775D01*
X29816116Y-48611305D01*
X29892569Y-48603775D01*
X29966084Y-48581474D01*
X30033837Y-48545259D01*
X30078340Y-48508737D01*
X30148457Y-48438620D01*
X30195936Y-48486099D01*
X30175281Y-48506754D01*
X30121657Y-48587009D01*
X30084719Y-48676183D01*
X30065889Y-48770850D01*
X30065889Y-48867372D01*
X30084719Y-48962039D01*
X30121657Y-49051213D01*
X30175281Y-49131468D01*
X30243532Y-49199719D01*
X30323787Y-49253343D01*
X30412961Y-49290281D01*
X30507628Y-49309111D01*
X30604150Y-49309111D01*
X30698817Y-49290281D01*
X30787991Y-49253343D01*
X30868246Y-49199719D01*
X30936497Y-49131468D01*
X30990121Y-49051213D01*
X31027059Y-48962039D01*
X31045889Y-48867372D01*
X31045889Y-48770850D01*
X31027059Y-48676183D01*
X30990121Y-48587009D01*
X30936497Y-48506754D01*
X30875889Y-48446146D01*
X30875889Y-48409221D01*
X30877437Y-48393505D01*
X30875332Y-48372130D01*
X30871259Y-48330774D01*
X30852961Y-48270454D01*
X30852961Y-48270453D01*
X30852139Y-48268915D01*
X31081838Y-48268915D01*
X31364681Y-48551758D01*
X31433729Y-48588136D01*
X31508548Y-48610345D01*
X31586262Y-48617531D01*
X31663884Y-48609418D01*
X31752766Y-48570956D01*
X31762421Y-48496950D01*
X31308112Y-48042641D01*
X31081838Y-48268915D01*
X30852139Y-48268915D01*
X30823247Y-48214862D01*
X30795596Y-48181170D01*
X30783258Y-48166136D01*
X30771047Y-48156115D01*
X30601005Y-47986073D01*
X30671121Y-47915957D01*
X30697156Y-47884233D01*
X30968701Y-48155778D01*
X31194975Y-47929504D01*
X31180833Y-47915362D01*
X31279828Y-47816367D01*
X31293970Y-47830509D01*
X31315184Y-47809296D01*
X31428321Y-47922433D01*
G36*
X24159398Y-42391758D02*
G01*
X24144330Y-42404124D01*
X24094969Y-42464270D01*
X24058290Y-42532891D01*
X24035704Y-42607349D01*
X24029988Y-42665381D01*
X24029988Y-42665387D01*
X24028078Y-42684781D01*
X24029988Y-42704175D01*
X24029990Y-44239416D01*
X24028079Y-44258819D01*
X24035705Y-44336252D01*
X24054516Y-44398261D01*
X24058292Y-44410710D01*
X24094971Y-44479331D01*
X24123142Y-44513657D01*
X24131706Y-44524092D01*
X24144332Y-44539477D01*
X24159400Y-44551843D01*
X24738085Y-45130529D01*
X24738086Y-45476182D01*
X24736175Y-45495585D01*
X24743801Y-45573018D01*
X24764224Y-45640343D01*
X24766388Y-45647476D01*
X24803067Y-45716097D01*
X24852428Y-45776243D01*
X24867496Y-45788609D01*
X24937968Y-45859081D01*
X24702500Y-45860000D01*
X24642500Y-45920000D01*
X24642500Y-46495000D01*
X25180000Y-46495000D01*
X25240000Y-46435000D01*
X25240946Y-46162059D01*
X25458839Y-46379953D01*
X25458839Y-46831250D01*
X25467676Y-46920974D01*
X25493848Y-47007250D01*
X25536348Y-47086763D01*
X25593544Y-47156456D01*
X25663237Y-47213652D01*
X25742750Y-47256152D01*
X25829026Y-47282324D01*
X25918750Y-47291161D01*
X26356250Y-47291161D01*
X26445974Y-47282324D01*
X26532250Y-47256152D01*
X26611763Y-47213652D01*
X26681456Y-47156456D01*
X26738652Y-47086763D01*
X26781152Y-47007250D01*
X26807324Y-46920974D01*
X26816161Y-46831250D01*
X26816161Y-46318750D01*
X26807324Y-46229026D01*
X26784269Y-46153025D01*
X27019925Y-45917369D01*
X27063711Y-45923081D01*
X27518020Y-45468772D01*
X27496807Y-45447559D01*
X27609944Y-45334422D01*
X27631157Y-45355635D01*
X27645300Y-45341493D01*
X27744295Y-45440488D01*
X27730152Y-45454630D01*
X27751366Y-45475844D01*
X27638229Y-45588981D01*
X27617015Y-45567767D01*
X27162706Y-46022076D01*
X27172361Y-46096082D01*
X27243773Y-46126984D01*
X27241461Y-46131310D01*
X27223163Y-46191630D01*
X27218533Y-46238642D01*
X27216985Y-46254360D01*
X27218533Y-46270073D01*
X27218534Y-47025046D01*
X26776230Y-47467350D01*
X26775518Y-47466018D01*
X26745527Y-47429473D01*
X26708982Y-47399482D01*
X26667288Y-47377196D01*
X26622048Y-47363473D01*
X26575000Y-47358839D01*
X26277500Y-47360000D01*
X26217500Y-47420000D01*
X26217500Y-47995000D01*
X26237500Y-47995000D01*
X26237500Y-48155000D01*
X26217500Y-48155000D01*
X26217500Y-48175000D01*
X26057500Y-48175000D01*
X26057500Y-48155000D01*
X25520000Y-48155000D01*
X25460000Y-48215000D01*
X25459206Y-48444158D01*
X25241161Y-48226113D01*
X25241161Y-47818750D01*
X25232324Y-47729026D01*
X25206152Y-47642750D01*
X25183302Y-47600000D01*
X25458839Y-47600000D01*
X25460000Y-47935000D01*
X25520000Y-47995000D01*
X26057500Y-47995000D01*
X26057500Y-47420000D01*
X25997500Y-47360000D01*
X25700000Y-47358839D01*
X25652952Y-47363473D01*
X25607712Y-47377196D01*
X25566018Y-47399482D01*
X25529473Y-47429473D01*
X25499482Y-47466018D01*
X25477196Y-47507712D01*
X25463473Y-47552952D01*
X25458839Y-47600000D01*
X25183302Y-47600000D01*
X25163652Y-47563237D01*
X25106456Y-47493544D01*
X25036763Y-47436348D01*
X24957250Y-47393848D01*
X24870974Y-47367676D01*
X24781250Y-47358839D01*
X24343750Y-47358839D01*
X24254026Y-47367676D01*
X24167750Y-47393848D01*
X24088237Y-47436348D01*
X24018544Y-47493544D01*
X23961348Y-47563237D01*
X23918848Y-47642750D01*
X23892676Y-47729026D01*
X23883839Y-47818750D01*
X23883839Y-48331250D01*
X23892676Y-48420974D01*
X23918848Y-48507250D01*
X23961348Y-48586763D01*
X24018544Y-48656456D01*
X24088237Y-48713652D01*
X24167750Y-48756152D01*
X24254026Y-48782324D01*
X24343750Y-48791161D01*
X24781250Y-48791161D01*
X24870974Y-48782324D01*
X24887318Y-48777366D01*
X24930001Y-48820049D01*
X24930001Y-49108839D01*
X24650000Y-49108839D01*
X24602952Y-49113473D01*
X24557712Y-49127196D01*
X24516018Y-49149482D01*
X24479473Y-49179473D01*
X24449482Y-49216018D01*
X24427196Y-49257712D01*
X24413473Y-49302952D01*
X24408839Y-49350000D01*
X24408839Y-50750000D01*
X24413473Y-50797048D01*
X24427196Y-50842288D01*
X24449482Y-50883982D01*
X24479473Y-50920527D01*
X24516018Y-50950518D01*
X24557712Y-50972804D01*
X24602952Y-50986527D01*
X24650000Y-50991161D01*
X25850000Y-50991161D01*
X25897048Y-50986527D01*
X25942288Y-50972804D01*
X25983982Y-50950518D01*
X26020527Y-50920527D01*
X26050000Y-50884613D01*
X26079473Y-50920527D01*
X26116018Y-50950518D01*
X26157712Y-50972804D01*
X26202952Y-50986527D01*
X26250000Y-50991161D01*
X26710000Y-50990000D01*
X26770000Y-50930000D01*
X26770000Y-50130000D01*
X26750000Y-50130000D01*
X26750000Y-49970000D01*
X26770000Y-49970000D01*
X26770000Y-49170000D01*
X26710000Y-49110000D01*
X26678912Y-49109922D01*
X27030168Y-48758666D01*
X27042379Y-48748645D01*
X27065454Y-48720527D01*
X27082367Y-48699919D01*
X27105572Y-48656506D01*
X27112082Y-48644327D01*
X27130380Y-48584007D01*
X27135010Y-48536994D01*
X27135010Y-48536992D01*
X27136558Y-48521276D01*
X27135010Y-48505560D01*
X27135010Y-48013665D01*
X27370002Y-47778674D01*
X27370002Y-49109041D01*
X26990000Y-49110000D01*
X26930000Y-49170000D01*
X26930000Y-49970000D01*
X26950000Y-49970000D01*
X26950000Y-50130000D01*
X26930000Y-50130000D01*
X26930000Y-50930000D01*
X26990000Y-50990000D01*
X27370001Y-50990959D01*
X27370001Y-51277451D01*
X27338613Y-51308839D01*
X26250000Y-51308839D01*
X26202952Y-51313473D01*
X26157712Y-51327196D01*
X26116018Y-51349482D01*
X26079473Y-51379473D01*
X26050000Y-51415387D01*
X26020527Y-51379473D01*
X25983982Y-51349482D01*
X25942288Y-51327196D01*
X25897048Y-51313473D01*
X25850000Y-51308839D01*
X25390000Y-51310000D01*
X25330000Y-51370000D01*
X25330000Y-52170000D01*
X25350000Y-52170000D01*
X25350000Y-52330000D01*
X25330000Y-52330000D01*
X25330000Y-52350000D01*
X25170000Y-52350000D01*
X25170000Y-52330000D01*
X24470000Y-52330000D01*
X24410000Y-52390000D01*
X24408839Y-52950000D01*
X24413473Y-52997048D01*
X24427196Y-53042288D01*
X24449482Y-53083982D01*
X24479473Y-53120527D01*
X24516018Y-53150518D01*
X24557712Y-53172804D01*
X24602952Y-53186527D01*
X24637999Y-53189979D01*
X23992527Y-53189979D01*
X23790001Y-52987454D01*
X23790001Y-51550000D01*
X24408839Y-51550000D01*
X24410000Y-52110000D01*
X24470000Y-52170000D01*
X25170000Y-52170000D01*
X25170000Y-51370000D01*
X25110000Y-51310000D01*
X24650000Y-51308839D01*
X24602952Y-51313473D01*
X24557712Y-51327196D01*
X24516018Y-51349482D01*
X24479473Y-51379473D01*
X24449482Y-51416018D01*
X24427196Y-51457712D01*
X24413473Y-51502952D01*
X24408839Y-51550000D01*
X23790001Y-51550000D01*
X23790001Y-48725713D01*
X23791549Y-48710000D01*
X23789786Y-48692102D01*
X23785371Y-48647270D01*
X23767073Y-48586950D01*
X23744788Y-48545259D01*
X23737358Y-48531358D01*
X23707389Y-48494840D01*
X23707386Y-48494837D01*
X23697370Y-48482632D01*
X23685165Y-48472617D01*
X23346798Y-48134250D01*
X23428112Y-47937941D01*
X23470000Y-47727356D01*
X23470000Y-47512644D01*
X23428112Y-47302059D01*
X23345945Y-47103691D01*
X23310070Y-47050000D01*
X23883839Y-47050000D01*
X23888473Y-47097048D01*
X23902196Y-47142288D01*
X23924482Y-47183982D01*
X23954473Y-47220527D01*
X23991018Y-47250518D01*
X24032712Y-47272804D01*
X24077952Y-47286527D01*
X24125000Y-47291161D01*
X24422500Y-47290000D01*
X24482500Y-47230000D01*
X24482500Y-46655000D01*
X24642500Y-46655000D01*
X24642500Y-47230000D01*
X24702500Y-47290000D01*
X25000000Y-47291161D01*
X25047048Y-47286527D01*
X25092288Y-47272804D01*
X25133982Y-47250518D01*
X25170527Y-47220527D01*
X25200518Y-47183982D01*
X25222804Y-47142288D01*
X25236527Y-47097048D01*
X25241161Y-47050000D01*
X25240000Y-46715000D01*
X25180000Y-46655000D01*
X24642500Y-46655000D01*
X24482500Y-46655000D01*
X23945000Y-46655000D01*
X23885000Y-46715000D01*
X23883839Y-47050000D01*
X23310070Y-47050000D01*
X23226658Y-46925166D01*
X23074834Y-46773342D01*
X22896309Y-46654055D01*
X22697941Y-46571888D01*
X22487356Y-46530000D01*
X22272644Y-46530000D01*
X22062059Y-46571888D01*
X21863691Y-46654055D01*
X21685166Y-46773342D01*
X21533342Y-46925166D01*
X21425000Y-47087311D01*
X21425000Y-45612689D01*
X21533342Y-45774834D01*
X21685166Y-45926658D01*
X21863691Y-46045945D01*
X22062059Y-46128112D01*
X22272644Y-46170000D01*
X22487356Y-46170000D01*
X22697941Y-46128112D01*
X22765809Y-46100000D01*
X23883839Y-46100000D01*
X23885000Y-46435000D01*
X23945000Y-46495000D01*
X24482500Y-46495000D01*
X24482500Y-45920000D01*
X24422500Y-45860000D01*
X24125000Y-45858839D01*
X24077952Y-45863473D01*
X24032712Y-45877196D01*
X23991018Y-45899482D01*
X23954473Y-45929473D01*
X23924482Y-45966018D01*
X23902196Y-46007712D01*
X23888473Y-46052952D01*
X23883839Y-46100000D01*
X22765809Y-46100000D01*
X22896309Y-46045945D01*
X23074834Y-45926658D01*
X23226658Y-45774834D01*
X23345945Y-45596309D01*
X23428112Y-45397941D01*
X23470000Y-45187356D01*
X23470000Y-44972644D01*
X23428112Y-44762059D01*
X23346798Y-44565750D01*
X23685164Y-44227385D01*
X23697370Y-44217368D01*
X23716018Y-44194645D01*
X23737358Y-44168642D01*
X23764321Y-44118198D01*
X23767073Y-44113050D01*
X23785371Y-44052730D01*
X23790001Y-44005717D01*
X23790001Y-44005713D01*
X23791549Y-43990000D01*
X23790001Y-43974287D01*
X23790001Y-42482547D01*
X24388305Y-41884245D01*
X24666908Y-41884245D01*
X24159398Y-42391758D01*
G37*
X24159398Y-42391758D02*
X24144330Y-42404124D01*
X24094969Y-42464270D01*
X24058290Y-42532891D01*
X24035704Y-42607349D01*
X24029988Y-42665381D01*
X24029988Y-42665387D01*
X24028078Y-42684781D01*
X24029988Y-42704175D01*
X24029990Y-44239416D01*
X24028079Y-44258819D01*
X24035705Y-44336252D01*
X24054516Y-44398261D01*
X24058292Y-44410710D01*
X24094971Y-44479331D01*
X24123142Y-44513657D01*
X24131706Y-44524092D01*
X24144332Y-44539477D01*
X24159400Y-44551843D01*
X24738085Y-45130529D01*
X24738086Y-45476182D01*
X24736175Y-45495585D01*
X24743801Y-45573018D01*
X24764224Y-45640343D01*
X24766388Y-45647476D01*
X24803067Y-45716097D01*
X24852428Y-45776243D01*
X24867496Y-45788609D01*
X24937968Y-45859081D01*
X24702500Y-45860000D01*
X24642500Y-45920000D01*
X24642500Y-46495000D01*
X25180000Y-46495000D01*
X25240000Y-46435000D01*
X25240946Y-46162059D01*
X25458839Y-46379953D01*
X25458839Y-46831250D01*
X25467676Y-46920974D01*
X25493848Y-47007250D01*
X25536348Y-47086763D01*
X25593544Y-47156456D01*
X25663237Y-47213652D01*
X25742750Y-47256152D01*
X25829026Y-47282324D01*
X25918750Y-47291161D01*
X26356250Y-47291161D01*
X26445974Y-47282324D01*
X26532250Y-47256152D01*
X26611763Y-47213652D01*
X26681456Y-47156456D01*
X26738652Y-47086763D01*
X26781152Y-47007250D01*
X26807324Y-46920974D01*
X26816161Y-46831250D01*
X26816161Y-46318750D01*
X26807324Y-46229026D01*
X26784269Y-46153025D01*
X27019925Y-45917369D01*
X27063711Y-45923081D01*
X27518020Y-45468772D01*
X27496807Y-45447559D01*
X27609944Y-45334422D01*
X27631157Y-45355635D01*
X27645300Y-45341493D01*
X27744295Y-45440488D01*
X27730152Y-45454630D01*
X27751366Y-45475844D01*
X27638229Y-45588981D01*
X27617015Y-45567767D01*
X27162706Y-46022076D01*
X27172361Y-46096082D01*
X27243773Y-46126984D01*
X27241461Y-46131310D01*
X27223163Y-46191630D01*
X27218533Y-46238642D01*
X27216985Y-46254360D01*
X27218533Y-46270073D01*
X27218534Y-47025046D01*
X26776230Y-47467350D01*
X26775518Y-47466018D01*
X26745527Y-47429473D01*
X26708982Y-47399482D01*
X26667288Y-47377196D01*
X26622048Y-47363473D01*
X26575000Y-47358839D01*
X26277500Y-47360000D01*
X26217500Y-47420000D01*
X26217500Y-47995000D01*
X26237500Y-47995000D01*
X26237500Y-48155000D01*
X26217500Y-48155000D01*
X26217500Y-48175000D01*
X26057500Y-48175000D01*
X26057500Y-48155000D01*
X25520000Y-48155000D01*
X25460000Y-48215000D01*
X25459206Y-48444158D01*
X25241161Y-48226113D01*
X25241161Y-47818750D01*
X25232324Y-47729026D01*
X25206152Y-47642750D01*
X25183302Y-47600000D01*
X25458839Y-47600000D01*
X25460000Y-47935000D01*
X25520000Y-47995000D01*
X26057500Y-47995000D01*
X26057500Y-47420000D01*
X25997500Y-47360000D01*
X25700000Y-47358839D01*
X25652952Y-47363473D01*
X25607712Y-47377196D01*
X25566018Y-47399482D01*
X25529473Y-47429473D01*
X25499482Y-47466018D01*
X25477196Y-47507712D01*
X25463473Y-47552952D01*
X25458839Y-47600000D01*
X25183302Y-47600000D01*
X25163652Y-47563237D01*
X25106456Y-47493544D01*
X25036763Y-47436348D01*
X24957250Y-47393848D01*
X24870974Y-47367676D01*
X24781250Y-47358839D01*
X24343750Y-47358839D01*
X24254026Y-47367676D01*
X24167750Y-47393848D01*
X24088237Y-47436348D01*
X24018544Y-47493544D01*
X23961348Y-47563237D01*
X23918848Y-47642750D01*
X23892676Y-47729026D01*
X23883839Y-47818750D01*
X23883839Y-48331250D01*
X23892676Y-48420974D01*
X23918848Y-48507250D01*
X23961348Y-48586763D01*
X24018544Y-48656456D01*
X24088237Y-48713652D01*
X24167750Y-48756152D01*
X24254026Y-48782324D01*
X24343750Y-48791161D01*
X24781250Y-48791161D01*
X24870974Y-48782324D01*
X24887318Y-48777366D01*
X24930001Y-48820049D01*
X24930001Y-49108839D01*
X24650000Y-49108839D01*
X24602952Y-49113473D01*
X24557712Y-49127196D01*
X24516018Y-49149482D01*
X24479473Y-49179473D01*
X24449482Y-49216018D01*
X24427196Y-49257712D01*
X24413473Y-49302952D01*
X24408839Y-49350000D01*
X24408839Y-50750000D01*
X24413473Y-50797048D01*
X24427196Y-50842288D01*
X24449482Y-50883982D01*
X24479473Y-50920527D01*
X24516018Y-50950518D01*
X24557712Y-50972804D01*
X24602952Y-50986527D01*
X24650000Y-50991161D01*
X25850000Y-50991161D01*
X25897048Y-50986527D01*
X25942288Y-50972804D01*
X25983982Y-50950518D01*
X26020527Y-50920527D01*
X26050000Y-50884613D01*
X26079473Y-50920527D01*
X26116018Y-50950518D01*
X26157712Y-50972804D01*
X26202952Y-50986527D01*
X26250000Y-50991161D01*
X26710000Y-50990000D01*
X26770000Y-50930000D01*
X26770000Y-50130000D01*
X26750000Y-50130000D01*
X26750000Y-49970000D01*
X26770000Y-49970000D01*
X26770000Y-49170000D01*
X26710000Y-49110000D01*
X26678912Y-49109922D01*
X27030168Y-48758666D01*
X27042379Y-48748645D01*
X27065454Y-48720527D01*
X27082367Y-48699919D01*
X27105572Y-48656506D01*
X27112082Y-48644327D01*
X27130380Y-48584007D01*
X27135010Y-48536994D01*
X27135010Y-48536992D01*
X27136558Y-48521276D01*
X27135010Y-48505560D01*
X27135010Y-48013665D01*
X27370002Y-47778674D01*
X27370002Y-49109041D01*
X26990000Y-49110000D01*
X26930000Y-49170000D01*
X26930000Y-49970000D01*
X26950000Y-49970000D01*
X26950000Y-50130000D01*
X26930000Y-50130000D01*
X26930000Y-50930000D01*
X26990000Y-50990000D01*
X27370001Y-50990959D01*
X27370001Y-51277451D01*
X27338613Y-51308839D01*
X26250000Y-51308839D01*
X26202952Y-51313473D01*
X26157712Y-51327196D01*
X26116018Y-51349482D01*
X26079473Y-51379473D01*
X26050000Y-51415387D01*
X26020527Y-51379473D01*
X25983982Y-51349482D01*
X25942288Y-51327196D01*
X25897048Y-51313473D01*
X25850000Y-51308839D01*
X25390000Y-51310000D01*
X25330000Y-51370000D01*
X25330000Y-52170000D01*
X25350000Y-52170000D01*
X25350000Y-52330000D01*
X25330000Y-52330000D01*
X25330000Y-52350000D01*
X25170000Y-52350000D01*
X25170000Y-52330000D01*
X24470000Y-52330000D01*
X24410000Y-52390000D01*
X24408839Y-52950000D01*
X24413473Y-52997048D01*
X24427196Y-53042288D01*
X24449482Y-53083982D01*
X24479473Y-53120527D01*
X24516018Y-53150518D01*
X24557712Y-53172804D01*
X24602952Y-53186527D01*
X24637999Y-53189979D01*
X23992527Y-53189979D01*
X23790001Y-52987454D01*
X23790001Y-51550000D01*
X24408839Y-51550000D01*
X24410000Y-52110000D01*
X24470000Y-52170000D01*
X25170000Y-52170000D01*
X25170000Y-51370000D01*
X25110000Y-51310000D01*
X24650000Y-51308839D01*
X24602952Y-51313473D01*
X24557712Y-51327196D01*
X24516018Y-51349482D01*
X24479473Y-51379473D01*
X24449482Y-51416018D01*
X24427196Y-51457712D01*
X24413473Y-51502952D01*
X24408839Y-51550000D01*
X23790001Y-51550000D01*
X23790001Y-48725713D01*
X23791549Y-48710000D01*
X23789786Y-48692102D01*
X23785371Y-48647270D01*
X23767073Y-48586950D01*
X23744788Y-48545259D01*
X23737358Y-48531358D01*
X23707389Y-48494840D01*
X23707386Y-48494837D01*
X23697370Y-48482632D01*
X23685165Y-48472617D01*
X23346798Y-48134250D01*
X23428112Y-47937941D01*
X23470000Y-47727356D01*
X23470000Y-47512644D01*
X23428112Y-47302059D01*
X23345945Y-47103691D01*
X23310070Y-47050000D01*
X23883839Y-47050000D01*
X23888473Y-47097048D01*
X23902196Y-47142288D01*
X23924482Y-47183982D01*
X23954473Y-47220527D01*
X23991018Y-47250518D01*
X24032712Y-47272804D01*
X24077952Y-47286527D01*
X24125000Y-47291161D01*
X24422500Y-47290000D01*
X24482500Y-47230000D01*
X24482500Y-46655000D01*
X24642500Y-46655000D01*
X24642500Y-47230000D01*
X24702500Y-47290000D01*
X25000000Y-47291161D01*
X25047048Y-47286527D01*
X25092288Y-47272804D01*
X25133982Y-47250518D01*
X25170527Y-47220527D01*
X25200518Y-47183982D01*
X25222804Y-47142288D01*
X25236527Y-47097048D01*
X25241161Y-47050000D01*
X25240000Y-46715000D01*
X25180000Y-46655000D01*
X24642500Y-46655000D01*
X24482500Y-46655000D01*
X23945000Y-46655000D01*
X23885000Y-46715000D01*
X23883839Y-47050000D01*
X23310070Y-47050000D01*
X23226658Y-46925166D01*
X23074834Y-46773342D01*
X22896309Y-46654055D01*
X22697941Y-46571888D01*
X22487356Y-46530000D01*
X22272644Y-46530000D01*
X22062059Y-46571888D01*
X21863691Y-46654055D01*
X21685166Y-46773342D01*
X21533342Y-46925166D01*
X21425000Y-47087311D01*
X21425000Y-45612689D01*
X21533342Y-45774834D01*
X21685166Y-45926658D01*
X21863691Y-46045945D01*
X22062059Y-46128112D01*
X22272644Y-46170000D01*
X22487356Y-46170000D01*
X22697941Y-46128112D01*
X22765809Y-46100000D01*
X23883839Y-46100000D01*
X23885000Y-46435000D01*
X23945000Y-46495000D01*
X24482500Y-46495000D01*
X24482500Y-45920000D01*
X24422500Y-45860000D01*
X24125000Y-45858839D01*
X24077952Y-45863473D01*
X24032712Y-45877196D01*
X23991018Y-45899482D01*
X23954473Y-45929473D01*
X23924482Y-45966018D01*
X23902196Y-46007712D01*
X23888473Y-46052952D01*
X23883839Y-46100000D01*
X22765809Y-46100000D01*
X22896309Y-46045945D01*
X23074834Y-45926658D01*
X23226658Y-45774834D01*
X23345945Y-45596309D01*
X23428112Y-45397941D01*
X23470000Y-45187356D01*
X23470000Y-44972644D01*
X23428112Y-44762059D01*
X23346798Y-44565750D01*
X23685164Y-44227385D01*
X23697370Y-44217368D01*
X23716018Y-44194645D01*
X23737358Y-44168642D01*
X23764321Y-44118198D01*
X23767073Y-44113050D01*
X23785371Y-44052730D01*
X23790001Y-44005717D01*
X23790001Y-44005713D01*
X23791549Y-43990000D01*
X23790001Y-43974287D01*
X23790001Y-42482547D01*
X24388305Y-41884245D01*
X24666908Y-41884245D01*
X24159398Y-42391758D01*
G36*
X34963855Y-44386899D02*
G01*
X34942641Y-44408112D01*
X34956784Y-44422255D01*
X34857789Y-44521250D01*
X34843646Y-44507107D01*
X34822433Y-44528321D01*
X34709296Y-44415184D01*
X34730509Y-44393970D01*
X34716367Y-44379828D01*
X34815362Y-44280833D01*
X34829504Y-44294975D01*
X34850718Y-44273762D01*
X34963855Y-44386899D01*
G37*
X34963855Y-44386899D02*
X34942641Y-44408112D01*
X34956784Y-44422255D01*
X34857789Y-44521250D01*
X34843646Y-44507107D01*
X34822433Y-44528321D01*
X34709296Y-44415184D01*
X34730509Y-44393970D01*
X34716367Y-44379828D01*
X34815362Y-44280833D01*
X34829504Y-44294975D01*
X34850718Y-44273762D01*
X34963855Y-44386899D01*
G36*
X30827280Y-43785858D02*
G01*
X30813137Y-43800000D01*
X30827280Y-43814143D01*
X30714143Y-43927280D01*
X30700000Y-43913137D01*
X30685858Y-43927280D01*
X30572721Y-43814143D01*
X30586863Y-43800000D01*
X30572721Y-43785858D01*
X30685858Y-43672721D01*
X30700000Y-43686863D01*
X30714143Y-43672721D01*
X30827280Y-43785858D01*
G37*
X30827280Y-43785858D02*
X30813137Y-43800000D01*
X30827280Y-43814143D01*
X30714143Y-43927280D01*
X30700000Y-43913137D01*
X30685858Y-43927280D01*
X30572721Y-43814143D01*
X30586863Y-43800000D01*
X30572721Y-43785858D01*
X30685858Y-43672721D01*
X30700000Y-43686863D01*
X30714143Y-43672721D01*
X30827280Y-43785858D01*
G36*
X35739990Y-39298604D02*
G01*
X35739989Y-41665588D01*
X35739989Y-41901389D01*
X35526326Y-42115054D01*
X35457065Y-42128830D01*
X35367891Y-42165768D01*
X35287636Y-42219392D01*
X35262338Y-42244690D01*
X35215022Y-42269981D01*
X35154876Y-42319342D01*
X35142509Y-42334411D01*
X35087182Y-42389738D01*
X35043396Y-42384026D01*
X34589087Y-42838335D01*
X34610301Y-42859549D01*
X34497164Y-42972686D01*
X34475950Y-42951472D01*
X34461808Y-42965615D01*
X34362813Y-42866620D01*
X34376955Y-42852477D01*
X34355742Y-42831264D01*
X34468879Y-42718127D01*
X34490092Y-42739340D01*
X34944401Y-42285031D01*
X34934746Y-42211025D01*
X34884561Y-42189308D01*
X34951018Y-42122851D01*
X34963223Y-42112835D01*
X34975076Y-42098392D01*
X35003211Y-42064109D01*
X35032925Y-42008518D01*
X35032926Y-42008517D01*
X35034277Y-42004065D01*
X35048211Y-41994754D01*
X35116462Y-41926503D01*
X35170086Y-41846248D01*
X35207024Y-41757074D01*
X35225854Y-41662407D01*
X35225854Y-41565885D01*
X35207024Y-41471218D01*
X35170086Y-41382044D01*
X35116462Y-41301789D01*
X35048211Y-41233538D01*
X34967956Y-41179914D01*
X34878782Y-41142976D01*
X34784115Y-41124146D01*
X34687593Y-41124146D01*
X34592926Y-41142976D01*
X34554990Y-41158690D01*
X34554990Y-40678384D01*
X34810000Y-40677500D01*
X34870000Y-40617500D01*
X34870000Y-40080000D01*
X35030000Y-40080000D01*
X35030000Y-40617500D01*
X35090000Y-40677500D01*
X35425000Y-40678661D01*
X35472048Y-40674027D01*
X35517288Y-40660304D01*
X35558982Y-40638018D01*
X35595527Y-40608027D01*
X35625518Y-40571482D01*
X35647804Y-40529788D01*
X35661527Y-40484548D01*
X35666161Y-40437500D01*
X35665000Y-40140000D01*
X35605000Y-40080000D01*
X35030000Y-40080000D01*
X34870000Y-40080000D01*
X34850000Y-40080000D01*
X34850000Y-39920000D01*
X34870000Y-39920000D01*
X34870000Y-39382500D01*
X35030000Y-39382500D01*
X35030000Y-39920000D01*
X35605000Y-39920000D01*
X35665000Y-39860000D01*
X35666161Y-39562500D01*
X35661527Y-39515452D01*
X35647804Y-39470212D01*
X35625518Y-39428518D01*
X35595527Y-39391973D01*
X35558982Y-39361982D01*
X35517288Y-39339696D01*
X35472048Y-39325973D01*
X35425000Y-39321339D01*
X35090000Y-39322500D01*
X35030000Y-39382500D01*
X34870000Y-39382500D01*
X34810000Y-39322500D01*
X34554990Y-39321616D01*
X34554990Y-39079949D01*
X34604026Y-39094824D01*
X34693750Y-39103661D01*
X35206250Y-39103661D01*
X35295974Y-39094824D01*
X35382250Y-39068652D01*
X35461763Y-39026152D01*
X35464935Y-39023549D01*
X35739990Y-39298604D01*
G37*
X35739990Y-39298604D02*
X35739989Y-41665588D01*
X35739989Y-41901389D01*
X35526326Y-42115054D01*
X35457065Y-42128830D01*
X35367891Y-42165768D01*
X35287636Y-42219392D01*
X35262338Y-42244690D01*
X35215022Y-42269981D01*
X35154876Y-42319342D01*
X35142509Y-42334411D01*
X35087182Y-42389738D01*
X35043396Y-42384026D01*
X34589087Y-42838335D01*
X34610301Y-42859549D01*
X34497164Y-42972686D01*
X34475950Y-42951472D01*
X34461808Y-42965615D01*
X34362813Y-42866620D01*
X34376955Y-42852477D01*
X34355742Y-42831264D01*
X34468879Y-42718127D01*
X34490092Y-42739340D01*
X34944401Y-42285031D01*
X34934746Y-42211025D01*
X34884561Y-42189308D01*
X34951018Y-42122851D01*
X34963223Y-42112835D01*
X34975076Y-42098392D01*
X35003211Y-42064109D01*
X35032925Y-42008518D01*
X35032926Y-42008517D01*
X35034277Y-42004065D01*
X35048211Y-41994754D01*
X35116462Y-41926503D01*
X35170086Y-41846248D01*
X35207024Y-41757074D01*
X35225854Y-41662407D01*
X35225854Y-41565885D01*
X35207024Y-41471218D01*
X35170086Y-41382044D01*
X35116462Y-41301789D01*
X35048211Y-41233538D01*
X34967956Y-41179914D01*
X34878782Y-41142976D01*
X34784115Y-41124146D01*
X34687593Y-41124146D01*
X34592926Y-41142976D01*
X34554990Y-41158690D01*
X34554990Y-40678384D01*
X34810000Y-40677500D01*
X34870000Y-40617500D01*
X34870000Y-40080000D01*
X35030000Y-40080000D01*
X35030000Y-40617500D01*
X35090000Y-40677500D01*
X35425000Y-40678661D01*
X35472048Y-40674027D01*
X35517288Y-40660304D01*
X35558982Y-40638018D01*
X35595527Y-40608027D01*
X35625518Y-40571482D01*
X35647804Y-40529788D01*
X35661527Y-40484548D01*
X35666161Y-40437500D01*
X35665000Y-40140000D01*
X35605000Y-40080000D01*
X35030000Y-40080000D01*
X34870000Y-40080000D01*
X34850000Y-40080000D01*
X34850000Y-39920000D01*
X34870000Y-39920000D01*
X34870000Y-39382500D01*
X35030000Y-39382500D01*
X35030000Y-39920000D01*
X35605000Y-39920000D01*
X35665000Y-39860000D01*
X35666161Y-39562500D01*
X35661527Y-39515452D01*
X35647804Y-39470212D01*
X35625518Y-39428518D01*
X35595527Y-39391973D01*
X35558982Y-39361982D01*
X35517288Y-39339696D01*
X35472048Y-39325973D01*
X35425000Y-39321339D01*
X35090000Y-39322500D01*
X35030000Y-39382500D01*
X34870000Y-39382500D01*
X34810000Y-39322500D01*
X34554990Y-39321616D01*
X34554990Y-39079949D01*
X34604026Y-39094824D01*
X34693750Y-39103661D01*
X35206250Y-39103661D01*
X35295974Y-39094824D01*
X35382250Y-39068652D01*
X35461763Y-39026152D01*
X35464935Y-39023549D01*
X35739990Y-39298604D01*
G36*
X23685000Y-23920000D02*
G01*
X23685000Y-24520000D01*
X24345000Y-24520000D01*
X24345000Y-24500000D01*
X24505000Y-24500000D01*
X24505000Y-24520000D01*
X24525000Y-24520000D01*
X24525000Y-24680000D01*
X24505000Y-24680000D01*
X24505000Y-25875278D01*
X24619098Y-25914091D01*
X24769605Y-25859733D01*
X24891691Y-25779827D01*
X24995842Y-25677639D01*
X25078056Y-25557096D01*
X25113000Y-25474954D01*
X25113001Y-27925048D01*
X25078056Y-27842904D01*
X24995842Y-27722361D01*
X24891691Y-27620173D01*
X24769605Y-27540267D01*
X24619098Y-27485909D01*
X24505000Y-27524722D01*
X24505000Y-28520000D01*
X24525000Y-28520000D01*
X24525000Y-28680000D01*
X24505000Y-28680000D01*
X24505000Y-29675278D01*
X24619098Y-29714091D01*
X24769605Y-29659733D01*
X24891691Y-29579827D01*
X24995842Y-29477639D01*
X25078056Y-29357096D01*
X25135174Y-29222830D01*
X25135546Y-29221049D01*
X25135570Y-29221128D01*
X25164820Y-29275851D01*
X25204184Y-29323816D01*
X25252149Y-29363180D01*
X25306872Y-29392430D01*
X25366249Y-29410442D01*
X25412527Y-29415000D01*
X25428000Y-29416524D01*
X25443473Y-29415000D01*
X26315000Y-29415000D01*
X26320000Y-29420000D01*
X26720000Y-29420000D01*
X26720000Y-29415000D01*
X26880000Y-29415000D01*
X26880000Y-29420000D01*
X26900000Y-29420000D01*
X26900000Y-29580000D01*
X26880000Y-29580000D01*
X26880000Y-29600000D01*
X26720000Y-29600000D01*
X26720000Y-29580000D01*
X26320000Y-29580000D01*
X26260000Y-29640000D01*
X26258839Y-29900000D01*
X26263473Y-29947048D01*
X26277196Y-29992288D01*
X26299482Y-30033982D01*
X26316731Y-30055000D01*
X25502038Y-30055000D01*
X25482647Y-30053090D01*
X25463256Y-30055000D01*
X25463247Y-30055000D01*
X25405215Y-30060716D01*
X25330757Y-30083302D01*
X25262136Y-30119981D01*
X25201990Y-30169342D01*
X25189623Y-30184411D01*
X24444401Y-30929634D01*
X24429333Y-30942000D01*
X24379972Y-31002146D01*
X24371045Y-31018848D01*
X24343293Y-31070767D01*
X24320706Y-31145225D01*
X24313080Y-31222658D01*
X24314991Y-31242062D01*
X24314990Y-34078096D01*
X24313080Y-34097490D01*
X24314990Y-34116884D01*
X24314990Y-34116890D01*
X24320706Y-34174922D01*
X24343292Y-34249380D01*
X24379971Y-34318001D01*
X24429332Y-34378148D01*
X24444406Y-34390519D01*
X24513260Y-34459373D01*
X24352500Y-34460000D01*
X24292500Y-34520000D01*
X24292500Y-35095000D01*
X24830000Y-35095000D01*
X24890000Y-35035000D01*
X24890687Y-34836800D01*
X25108839Y-35054953D01*
X25108839Y-35431250D01*
X25117676Y-35520974D01*
X25143848Y-35607250D01*
X25186348Y-35686763D01*
X25243544Y-35756456D01*
X25313237Y-35813652D01*
X25392501Y-35856019D01*
X25392500Y-35993981D01*
X25313237Y-36036348D01*
X25243544Y-36093544D01*
X25186348Y-36163237D01*
X25143848Y-36242750D01*
X25117676Y-36329026D01*
X25108839Y-36418750D01*
X25108839Y-36931250D01*
X25117676Y-37020974D01*
X25143848Y-37107250D01*
X25186348Y-37186763D01*
X25243544Y-37256456D01*
X25313237Y-37313652D01*
X25392500Y-37356019D01*
X25392500Y-37548886D01*
X25161387Y-37780000D01*
X24896354Y-37780000D01*
X24875518Y-37741018D01*
X24845527Y-37704473D01*
X24808982Y-37674482D01*
X24767288Y-37652196D01*
X24722048Y-37638473D01*
X24675000Y-37633839D01*
X24225000Y-37633839D01*
X24177952Y-37638473D01*
X24132712Y-37652196D01*
X24091018Y-37674482D01*
X24054473Y-37704473D01*
X24024482Y-37741018D01*
X24002196Y-37782712D01*
X23988473Y-37827952D01*
X23983839Y-37875000D01*
X23983839Y-38475000D01*
X23988473Y-38522048D01*
X24002196Y-38567288D01*
X24024482Y-38608982D01*
X24054473Y-38645527D01*
X24091018Y-38675518D01*
X24132712Y-38697804D01*
X24177952Y-38711527D01*
X24225000Y-38716161D01*
X24675000Y-38716161D01*
X24722048Y-38711527D01*
X24767288Y-38697804D01*
X24808982Y-38675518D01*
X24845527Y-38645527D01*
X24875518Y-38608982D01*
X24896354Y-38570000D01*
X25305606Y-38570000D01*
X25325000Y-38571910D01*
X25344394Y-38570000D01*
X25344401Y-38570000D01*
X25402433Y-38564284D01*
X25476891Y-38541698D01*
X25545512Y-38505019D01*
X25605658Y-38455658D01*
X25618029Y-38440584D01*
X25786956Y-38271658D01*
X25794342Y-38280658D01*
X25854488Y-38330019D01*
X25923109Y-38366698D01*
X25997567Y-38389284D01*
X26055599Y-38395000D01*
X26055608Y-38395000D01*
X26074999Y-38396910D01*
X26094390Y-38395000D01*
X26359182Y-38395000D01*
X26417898Y-38434232D01*
X26504999Y-38470311D01*
X26505000Y-39537005D01*
X26432918Y-39507147D01*
X26338251Y-39488317D01*
X26241729Y-39488317D01*
X26147062Y-39507147D01*
X26057888Y-39544085D01*
X25999172Y-39583317D01*
X25616076Y-39583317D01*
X25596682Y-39581407D01*
X25577288Y-39583317D01*
X25577282Y-39583317D01*
X25527297Y-39588240D01*
X25519249Y-39589033D01*
X25496663Y-39595885D01*
X25444792Y-39611619D01*
X25376171Y-39648298D01*
X25316025Y-39697659D01*
X25303658Y-39712728D01*
X25136387Y-39880000D01*
X24896354Y-39880000D01*
X24875518Y-39841018D01*
X24845527Y-39804473D01*
X24808982Y-39774482D01*
X24767288Y-39752196D01*
X24722048Y-39738473D01*
X24675000Y-39733839D01*
X24225000Y-39733839D01*
X24177952Y-39738473D01*
X24132712Y-39752196D01*
X24091018Y-39774482D01*
X24054473Y-39804473D01*
X24024482Y-39841018D01*
X24002196Y-39882712D01*
X23988473Y-39927952D01*
X23983839Y-39975000D01*
X23983839Y-40575000D01*
X23988473Y-40622048D01*
X24002196Y-40667288D01*
X24024482Y-40708982D01*
X24054473Y-40745527D01*
X24091018Y-40775518D01*
X24132712Y-40797804D01*
X24177952Y-40811527D01*
X24225000Y-40816161D01*
X24675000Y-40816161D01*
X24722048Y-40811527D01*
X24767288Y-40797804D01*
X24808982Y-40775518D01*
X24845527Y-40745527D01*
X24875518Y-40708982D01*
X24896354Y-40670000D01*
X25113248Y-40670000D01*
X25095000Y-40761741D01*
X25095000Y-40847454D01*
X25018220Y-40924235D01*
X23691477Y-40924235D01*
X23675764Y-40922687D01*
X23660051Y-40924235D01*
X23660047Y-40924235D01*
X23613034Y-40928865D01*
X23552714Y-40947163D01*
X23541925Y-40952930D01*
X23497121Y-40976878D01*
X23460604Y-41006847D01*
X23460601Y-41006850D01*
X23448396Y-41016866D01*
X23438379Y-41029072D01*
X22894250Y-41573202D01*
X22697941Y-41491888D01*
X22487356Y-41450000D01*
X22272644Y-41450000D01*
X22062059Y-41491888D01*
X21863691Y-41574055D01*
X21685166Y-41693342D01*
X21533342Y-41845166D01*
X21425000Y-42007311D01*
X21425000Y-40532689D01*
X21533342Y-40694834D01*
X21685166Y-40846658D01*
X21863691Y-40965945D01*
X22062059Y-41048112D01*
X22272644Y-41090000D01*
X22487356Y-41090000D01*
X22697941Y-41048112D01*
X22896309Y-40965945D01*
X23074834Y-40846658D01*
X23226658Y-40694834D01*
X23345945Y-40516309D01*
X23428112Y-40317941D01*
X23470000Y-40107356D01*
X23470000Y-39892644D01*
X23428112Y-39682059D01*
X23345945Y-39483691D01*
X23226658Y-39305166D01*
X23074834Y-39153342D01*
X22896309Y-39034055D01*
X22697941Y-38951888D01*
X22487356Y-38910000D01*
X22272644Y-38910000D01*
X22062059Y-38951888D01*
X21863691Y-39034055D01*
X21685166Y-39153342D01*
X21533342Y-39305166D01*
X21425000Y-39467311D01*
X21425000Y-37992689D01*
X21533342Y-38154834D01*
X21685166Y-38306658D01*
X21863691Y-38425945D01*
X22062059Y-38508112D01*
X22272644Y-38550000D01*
X22487356Y-38550000D01*
X22697941Y-38508112D01*
X22896309Y-38425945D01*
X23074834Y-38306658D01*
X23226658Y-38154834D01*
X23345945Y-37976309D01*
X23428112Y-37777941D01*
X23470000Y-37567356D01*
X23470000Y-37352644D01*
X23429692Y-37150000D01*
X23533839Y-37150000D01*
X23538473Y-37197048D01*
X23552196Y-37242288D01*
X23574482Y-37283982D01*
X23604473Y-37320527D01*
X23641018Y-37350518D01*
X23682712Y-37372804D01*
X23727952Y-37386527D01*
X23775000Y-37391161D01*
X24072500Y-37390000D01*
X24132500Y-37330000D01*
X24132500Y-36755000D01*
X24292500Y-36755000D01*
X24292500Y-37330000D01*
X24352500Y-37390000D01*
X24650000Y-37391161D01*
X24697048Y-37386527D01*
X24742288Y-37372804D01*
X24783982Y-37350518D01*
X24820527Y-37320527D01*
X24850518Y-37283982D01*
X24872804Y-37242288D01*
X24886527Y-37197048D01*
X24891161Y-37150000D01*
X24890000Y-36815000D01*
X24830000Y-36755000D01*
X24292500Y-36755000D01*
X24132500Y-36755000D01*
X23595000Y-36755000D01*
X23535000Y-36815000D01*
X23533839Y-37150000D01*
X23429692Y-37150000D01*
X23428112Y-37142059D01*
X23345945Y-36943691D01*
X23226658Y-36765166D01*
X23074834Y-36613342D01*
X22896309Y-36494055D01*
X22697941Y-36411888D01*
X22487356Y-36370000D01*
X22272644Y-36370000D01*
X22062059Y-36411888D01*
X21863691Y-36494055D01*
X21685166Y-36613342D01*
X21533342Y-36765166D01*
X21425000Y-36927311D01*
X21425000Y-36200000D01*
X23533839Y-36200000D01*
X23535000Y-36535000D01*
X23595000Y-36595000D01*
X24132500Y-36595000D01*
X24132500Y-36020000D01*
X24292500Y-36020000D01*
X24292500Y-36595000D01*
X24830000Y-36595000D01*
X24890000Y-36535000D01*
X24891161Y-36200000D01*
X24886527Y-36152952D01*
X24872804Y-36107712D01*
X24850518Y-36066018D01*
X24820527Y-36029473D01*
X24783982Y-35999482D01*
X24742288Y-35977196D01*
X24697048Y-35963473D01*
X24650000Y-35958839D01*
X24352500Y-35960000D01*
X24292500Y-36020000D01*
X24132500Y-36020000D01*
X24072500Y-35960000D01*
X23775000Y-35958839D01*
X23727952Y-35963473D01*
X23682712Y-35977196D01*
X23641018Y-35999482D01*
X23604473Y-36029473D01*
X23574482Y-36066018D01*
X23552196Y-36107712D01*
X23538473Y-36152952D01*
X23533839Y-36200000D01*
X21425000Y-36200000D01*
X21425000Y-35706429D01*
X21706708Y-35706429D01*
X21802655Y-35850751D01*
X21995330Y-35945501D01*
X22202786Y-36000842D01*
X22417053Y-36014647D01*
X22629896Y-35986386D01*
X22833136Y-35917143D01*
X22957345Y-35850751D01*
X23053292Y-35706429D01*
X22996863Y-35650000D01*
X23533839Y-35650000D01*
X23538473Y-35697048D01*
X23552196Y-35742288D01*
X23574482Y-35783982D01*
X23604473Y-35820527D01*
X23641018Y-35850518D01*
X23682712Y-35872804D01*
X23727952Y-35886527D01*
X23775000Y-35891161D01*
X24072500Y-35890000D01*
X24132500Y-35830000D01*
X24132500Y-35255000D01*
X24292500Y-35255000D01*
X24292500Y-35830000D01*
X24352500Y-35890000D01*
X24650000Y-35891161D01*
X24697048Y-35886527D01*
X24742288Y-35872804D01*
X24783982Y-35850518D01*
X24820527Y-35820527D01*
X24850518Y-35783982D01*
X24872804Y-35742288D01*
X24886527Y-35697048D01*
X24891161Y-35650000D01*
X24890000Y-35315000D01*
X24830000Y-35255000D01*
X24292500Y-35255000D01*
X24132500Y-35255000D01*
X23595000Y-35255000D01*
X23535000Y-35315000D01*
X23533839Y-35650000D01*
X22996863Y-35650000D01*
X22380000Y-35033137D01*
X21706708Y-35706429D01*
X21425000Y-35706429D01*
X21425000Y-35451979D01*
X21449249Y-35497345D01*
X21593571Y-35593292D01*
X22266863Y-34920000D01*
X22493137Y-34920000D01*
X23166429Y-35593292D01*
X23310751Y-35497345D01*
X23405501Y-35304670D01*
X23460842Y-35097214D01*
X23474647Y-34882947D01*
X23450356Y-34700000D01*
X23533839Y-34700000D01*
X23535000Y-35035000D01*
X23595000Y-35095000D01*
X24132500Y-35095000D01*
X24132500Y-34520000D01*
X24072500Y-34460000D01*
X23775000Y-34458839D01*
X23727952Y-34463473D01*
X23682712Y-34477196D01*
X23641018Y-34499482D01*
X23604473Y-34529473D01*
X23574482Y-34566018D01*
X23552196Y-34607712D01*
X23538473Y-34652952D01*
X23533839Y-34700000D01*
X23450356Y-34700000D01*
X23446386Y-34670104D01*
X23377143Y-34466864D01*
X23310751Y-34342655D01*
X23166429Y-34246708D01*
X22493137Y-34920000D01*
X22266863Y-34920000D01*
X21593571Y-34246708D01*
X21449249Y-34342655D01*
X21425000Y-34391966D01*
X21425000Y-34133571D01*
X21706708Y-34133571D01*
X22380000Y-34806863D01*
X23053292Y-34133571D01*
X22957345Y-33989249D01*
X22764670Y-33894499D01*
X22557214Y-33839158D01*
X22342947Y-33825353D01*
X22130104Y-33853614D01*
X21926864Y-33922857D01*
X21802655Y-33989249D01*
X21706708Y-34133571D01*
X21425000Y-34133571D01*
X21425000Y-33166429D01*
X21706708Y-33166429D01*
X21802655Y-33310751D01*
X21995330Y-33405501D01*
X22202786Y-33460842D01*
X22417053Y-33474647D01*
X22629896Y-33446386D01*
X22833136Y-33377143D01*
X22957345Y-33310751D01*
X23053292Y-33166429D01*
X22380000Y-32493137D01*
X21706708Y-33166429D01*
X21425000Y-33166429D01*
X21425000Y-32911979D01*
X21449249Y-32957345D01*
X21593571Y-33053292D01*
X22266863Y-32380000D01*
X22493137Y-32380000D01*
X23166429Y-33053292D01*
X23310751Y-32957345D01*
X23405501Y-32764670D01*
X23460842Y-32557214D01*
X23474647Y-32342947D01*
X23446386Y-32130104D01*
X23377143Y-31926864D01*
X23310751Y-31802655D01*
X23166429Y-31706708D01*
X22493137Y-32380000D01*
X22266863Y-32380000D01*
X21593571Y-31706708D01*
X21449249Y-31802655D01*
X21425000Y-31851966D01*
X21425000Y-31593571D01*
X21706708Y-31593571D01*
X22380000Y-32266863D01*
X23053292Y-31593571D01*
X22957345Y-31449249D01*
X22764670Y-31354499D01*
X22557214Y-31299158D01*
X22342947Y-31285353D01*
X22130104Y-31313614D01*
X21926864Y-31382857D01*
X21802655Y-31449249D01*
X21706708Y-31593571D01*
X21425000Y-31593571D01*
X21425000Y-30372689D01*
X21533342Y-30534834D01*
X21685166Y-30686658D01*
X21863691Y-30805945D01*
X22062059Y-30888112D01*
X22272644Y-30930000D01*
X22487356Y-30930000D01*
X22697941Y-30888112D01*
X22896309Y-30805945D01*
X23074834Y-30686658D01*
X23226658Y-30534834D01*
X23345945Y-30356309D01*
X23428112Y-30157941D01*
X23470000Y-29947356D01*
X23470000Y-29732644D01*
X23428112Y-29522059D01*
X23345945Y-29323691D01*
X23226658Y-29145166D01*
X23074834Y-28993342D01*
X22896309Y-28874055D01*
X22697941Y-28791888D01*
X22487356Y-28750000D01*
X22272644Y-28750000D01*
X22062059Y-28791888D01*
X21863691Y-28874055D01*
X21685166Y-28993342D01*
X21533342Y-29145166D01*
X21425000Y-29307311D01*
X21425000Y-28680000D01*
X23685000Y-28680000D01*
X23685000Y-29080000D01*
X23714826Y-29222830D01*
X23771944Y-29357096D01*
X23854158Y-29477639D01*
X23958309Y-29579827D01*
X24080395Y-29659733D01*
X24230902Y-29714091D01*
X24345000Y-29675278D01*
X24345000Y-28680000D01*
X23685000Y-28680000D01*
X21425000Y-28680000D01*
X21425000Y-27832689D01*
X21533342Y-27994834D01*
X21685166Y-28146658D01*
X21863691Y-28265945D01*
X22062059Y-28348112D01*
X22272644Y-28390000D01*
X22487356Y-28390000D01*
X22697941Y-28348112D01*
X22896309Y-28265945D01*
X23074834Y-28146658D01*
X23101492Y-28120000D01*
X23685000Y-28120000D01*
X23685000Y-28520000D01*
X24345000Y-28520000D01*
X24345000Y-27524722D01*
X24230902Y-27485909D01*
X24080395Y-27540267D01*
X23958309Y-27620173D01*
X23854158Y-27722361D01*
X23771944Y-27842904D01*
X23714826Y-27977170D01*
X23685000Y-28120000D01*
X23101492Y-28120000D01*
X23226658Y-27994834D01*
X23345945Y-27816309D01*
X23428112Y-27617941D01*
X23470000Y-27407356D01*
X23470000Y-27192644D01*
X23428112Y-26982059D01*
X23345945Y-26783691D01*
X23226658Y-26605166D01*
X23074834Y-26453342D01*
X22896309Y-26334055D01*
X22697941Y-26251888D01*
X22487356Y-26210000D01*
X22272644Y-26210000D01*
X22062059Y-26251888D01*
X21863691Y-26334055D01*
X21685166Y-26453342D01*
X21533342Y-26605166D01*
X21425000Y-26767311D01*
X21425000Y-24775410D01*
X21434354Y-24680000D01*
X23685000Y-24680000D01*
X23685000Y-25280000D01*
X23714826Y-25422830D01*
X23771944Y-25557096D01*
X23854158Y-25677639D01*
X23958309Y-25779827D01*
X24080395Y-25859733D01*
X24230902Y-25914091D01*
X24345000Y-25875278D01*
X24345000Y-24680000D01*
X23685000Y-24680000D01*
X21434354Y-24680000D01*
X21444670Y-24574796D01*
X21498454Y-24396656D01*
X21585819Y-24232347D01*
X21703431Y-24088139D01*
X21846813Y-23969523D01*
X22010511Y-23881012D01*
X22188275Y-23825985D01*
X22387933Y-23805000D01*
X23709014Y-23805000D01*
X23685000Y-23920000D01*
G37*
X23685000Y-23920000D02*
X23685000Y-24520000D01*
X24345000Y-24520000D01*
X24345000Y-24500000D01*
X24505000Y-24500000D01*
X24505000Y-24520000D01*
X24525000Y-24520000D01*
X24525000Y-24680000D01*
X24505000Y-24680000D01*
X24505000Y-25875278D01*
X24619098Y-25914091D01*
X24769605Y-25859733D01*
X24891691Y-25779827D01*
X24995842Y-25677639D01*
X25078056Y-25557096D01*
X25113000Y-25474954D01*
X25113001Y-27925048D01*
X25078056Y-27842904D01*
X24995842Y-27722361D01*
X24891691Y-27620173D01*
X24769605Y-27540267D01*
X24619098Y-27485909D01*
X24505000Y-27524722D01*
X24505000Y-28520000D01*
X24525000Y-28520000D01*
X24525000Y-28680000D01*
X24505000Y-28680000D01*
X24505000Y-29675278D01*
X24619098Y-29714091D01*
X24769605Y-29659733D01*
X24891691Y-29579827D01*
X24995842Y-29477639D01*
X25078056Y-29357096D01*
X25135174Y-29222830D01*
X25135546Y-29221049D01*
X25135570Y-29221128D01*
X25164820Y-29275851D01*
X25204184Y-29323816D01*
X25252149Y-29363180D01*
X25306872Y-29392430D01*
X25366249Y-29410442D01*
X25412527Y-29415000D01*
X25428000Y-29416524D01*
X25443473Y-29415000D01*
X26315000Y-29415000D01*
X26320000Y-29420000D01*
X26720000Y-29420000D01*
X26720000Y-29415000D01*
X26880000Y-29415000D01*
X26880000Y-29420000D01*
X26900000Y-29420000D01*
X26900000Y-29580000D01*
X26880000Y-29580000D01*
X26880000Y-29600000D01*
X26720000Y-29600000D01*
X26720000Y-29580000D01*
X26320000Y-29580000D01*
X26260000Y-29640000D01*
X26258839Y-29900000D01*
X26263473Y-29947048D01*
X26277196Y-29992288D01*
X26299482Y-30033982D01*
X26316731Y-30055000D01*
X25502038Y-30055000D01*
X25482647Y-30053090D01*
X25463256Y-30055000D01*
X25463247Y-30055000D01*
X25405215Y-30060716D01*
X25330757Y-30083302D01*
X25262136Y-30119981D01*
X25201990Y-30169342D01*
X25189623Y-30184411D01*
X24444401Y-30929634D01*
X24429333Y-30942000D01*
X24379972Y-31002146D01*
X24371045Y-31018848D01*
X24343293Y-31070767D01*
X24320706Y-31145225D01*
X24313080Y-31222658D01*
X24314991Y-31242062D01*
X24314990Y-34078096D01*
X24313080Y-34097490D01*
X24314990Y-34116884D01*
X24314990Y-34116890D01*
X24320706Y-34174922D01*
X24343292Y-34249380D01*
X24379971Y-34318001D01*
X24429332Y-34378148D01*
X24444406Y-34390519D01*
X24513260Y-34459373D01*
X24352500Y-34460000D01*
X24292500Y-34520000D01*
X24292500Y-35095000D01*
X24830000Y-35095000D01*
X24890000Y-35035000D01*
X24890687Y-34836800D01*
X25108839Y-35054953D01*
X25108839Y-35431250D01*
X25117676Y-35520974D01*
X25143848Y-35607250D01*
X25186348Y-35686763D01*
X25243544Y-35756456D01*
X25313237Y-35813652D01*
X25392501Y-35856019D01*
X25392500Y-35993981D01*
X25313237Y-36036348D01*
X25243544Y-36093544D01*
X25186348Y-36163237D01*
X25143848Y-36242750D01*
X25117676Y-36329026D01*
X25108839Y-36418750D01*
X25108839Y-36931250D01*
X25117676Y-37020974D01*
X25143848Y-37107250D01*
X25186348Y-37186763D01*
X25243544Y-37256456D01*
X25313237Y-37313652D01*
X25392500Y-37356019D01*
X25392500Y-37548886D01*
X25161387Y-37780000D01*
X24896354Y-37780000D01*
X24875518Y-37741018D01*
X24845527Y-37704473D01*
X24808982Y-37674482D01*
X24767288Y-37652196D01*
X24722048Y-37638473D01*
X24675000Y-37633839D01*
X24225000Y-37633839D01*
X24177952Y-37638473D01*
X24132712Y-37652196D01*
X24091018Y-37674482D01*
X24054473Y-37704473D01*
X24024482Y-37741018D01*
X24002196Y-37782712D01*
X23988473Y-37827952D01*
X23983839Y-37875000D01*
X23983839Y-38475000D01*
X23988473Y-38522048D01*
X24002196Y-38567288D01*
X24024482Y-38608982D01*
X24054473Y-38645527D01*
X24091018Y-38675518D01*
X24132712Y-38697804D01*
X24177952Y-38711527D01*
X24225000Y-38716161D01*
X24675000Y-38716161D01*
X24722048Y-38711527D01*
X24767288Y-38697804D01*
X24808982Y-38675518D01*
X24845527Y-38645527D01*
X24875518Y-38608982D01*
X24896354Y-38570000D01*
X25305606Y-38570000D01*
X25325000Y-38571910D01*
X25344394Y-38570000D01*
X25344401Y-38570000D01*
X25402433Y-38564284D01*
X25476891Y-38541698D01*
X25545512Y-38505019D01*
X25605658Y-38455658D01*
X25618029Y-38440584D01*
X25786956Y-38271658D01*
X25794342Y-38280658D01*
X25854488Y-38330019D01*
X25923109Y-38366698D01*
X25997567Y-38389284D01*
X26055599Y-38395000D01*
X26055608Y-38395000D01*
X26074999Y-38396910D01*
X26094390Y-38395000D01*
X26359182Y-38395000D01*
X26417898Y-38434232D01*
X26504999Y-38470311D01*
X26505000Y-39537005D01*
X26432918Y-39507147D01*
X26338251Y-39488317D01*
X26241729Y-39488317D01*
X26147062Y-39507147D01*
X26057888Y-39544085D01*
X25999172Y-39583317D01*
X25616076Y-39583317D01*
X25596682Y-39581407D01*
X25577288Y-39583317D01*
X25577282Y-39583317D01*
X25527297Y-39588240D01*
X25519249Y-39589033D01*
X25496663Y-39595885D01*
X25444792Y-39611619D01*
X25376171Y-39648298D01*
X25316025Y-39697659D01*
X25303658Y-39712728D01*
X25136387Y-39880000D01*
X24896354Y-39880000D01*
X24875518Y-39841018D01*
X24845527Y-39804473D01*
X24808982Y-39774482D01*
X24767288Y-39752196D01*
X24722048Y-39738473D01*
X24675000Y-39733839D01*
X24225000Y-39733839D01*
X24177952Y-39738473D01*
X24132712Y-39752196D01*
X24091018Y-39774482D01*
X24054473Y-39804473D01*
X24024482Y-39841018D01*
X24002196Y-39882712D01*
X23988473Y-39927952D01*
X23983839Y-39975000D01*
X23983839Y-40575000D01*
X23988473Y-40622048D01*
X24002196Y-40667288D01*
X24024482Y-40708982D01*
X24054473Y-40745527D01*
X24091018Y-40775518D01*
X24132712Y-40797804D01*
X24177952Y-40811527D01*
X24225000Y-40816161D01*
X24675000Y-40816161D01*
X24722048Y-40811527D01*
X24767288Y-40797804D01*
X24808982Y-40775518D01*
X24845527Y-40745527D01*
X24875518Y-40708982D01*
X24896354Y-40670000D01*
X25113248Y-40670000D01*
X25095000Y-40761741D01*
X25095000Y-40847454D01*
X25018220Y-40924235D01*
X23691477Y-40924235D01*
X23675764Y-40922687D01*
X23660051Y-40924235D01*
X23660047Y-40924235D01*
X23613034Y-40928865D01*
X23552714Y-40947163D01*
X23541925Y-40952930D01*
X23497121Y-40976878D01*
X23460604Y-41006847D01*
X23460601Y-41006850D01*
X23448396Y-41016866D01*
X23438379Y-41029072D01*
X22894250Y-41573202D01*
X22697941Y-41491888D01*
X22487356Y-41450000D01*
X22272644Y-41450000D01*
X22062059Y-41491888D01*
X21863691Y-41574055D01*
X21685166Y-41693342D01*
X21533342Y-41845166D01*
X21425000Y-42007311D01*
X21425000Y-40532689D01*
X21533342Y-40694834D01*
X21685166Y-40846658D01*
X21863691Y-40965945D01*
X22062059Y-41048112D01*
X22272644Y-41090000D01*
X22487356Y-41090000D01*
X22697941Y-41048112D01*
X22896309Y-40965945D01*
X23074834Y-40846658D01*
X23226658Y-40694834D01*
X23345945Y-40516309D01*
X23428112Y-40317941D01*
X23470000Y-40107356D01*
X23470000Y-39892644D01*
X23428112Y-39682059D01*
X23345945Y-39483691D01*
X23226658Y-39305166D01*
X23074834Y-39153342D01*
X22896309Y-39034055D01*
X22697941Y-38951888D01*
X22487356Y-38910000D01*
X22272644Y-38910000D01*
X22062059Y-38951888D01*
X21863691Y-39034055D01*
X21685166Y-39153342D01*
X21533342Y-39305166D01*
X21425000Y-39467311D01*
X21425000Y-37992689D01*
X21533342Y-38154834D01*
X21685166Y-38306658D01*
X21863691Y-38425945D01*
X22062059Y-38508112D01*
X22272644Y-38550000D01*
X22487356Y-38550000D01*
X22697941Y-38508112D01*
X22896309Y-38425945D01*
X23074834Y-38306658D01*
X23226658Y-38154834D01*
X23345945Y-37976309D01*
X23428112Y-37777941D01*
X23470000Y-37567356D01*
X23470000Y-37352644D01*
X23429692Y-37150000D01*
X23533839Y-37150000D01*
X23538473Y-37197048D01*
X23552196Y-37242288D01*
X23574482Y-37283982D01*
X23604473Y-37320527D01*
X23641018Y-37350518D01*
X23682712Y-37372804D01*
X23727952Y-37386527D01*
X23775000Y-37391161D01*
X24072500Y-37390000D01*
X24132500Y-37330000D01*
X24132500Y-36755000D01*
X24292500Y-36755000D01*
X24292500Y-37330000D01*
X24352500Y-37390000D01*
X24650000Y-37391161D01*
X24697048Y-37386527D01*
X24742288Y-37372804D01*
X24783982Y-37350518D01*
X24820527Y-37320527D01*
X24850518Y-37283982D01*
X24872804Y-37242288D01*
X24886527Y-37197048D01*
X24891161Y-37150000D01*
X24890000Y-36815000D01*
X24830000Y-36755000D01*
X24292500Y-36755000D01*
X24132500Y-36755000D01*
X23595000Y-36755000D01*
X23535000Y-36815000D01*
X23533839Y-37150000D01*
X23429692Y-37150000D01*
X23428112Y-37142059D01*
X23345945Y-36943691D01*
X23226658Y-36765166D01*
X23074834Y-36613342D01*
X22896309Y-36494055D01*
X22697941Y-36411888D01*
X22487356Y-36370000D01*
X22272644Y-36370000D01*
X22062059Y-36411888D01*
X21863691Y-36494055D01*
X21685166Y-36613342D01*
X21533342Y-36765166D01*
X21425000Y-36927311D01*
X21425000Y-36200000D01*
X23533839Y-36200000D01*
X23535000Y-36535000D01*
X23595000Y-36595000D01*
X24132500Y-36595000D01*
X24132500Y-36020000D01*
X24292500Y-36020000D01*
X24292500Y-36595000D01*
X24830000Y-36595000D01*
X24890000Y-36535000D01*
X24891161Y-36200000D01*
X24886527Y-36152952D01*
X24872804Y-36107712D01*
X24850518Y-36066018D01*
X24820527Y-36029473D01*
X24783982Y-35999482D01*
X24742288Y-35977196D01*
X24697048Y-35963473D01*
X24650000Y-35958839D01*
X24352500Y-35960000D01*
X24292500Y-36020000D01*
X24132500Y-36020000D01*
X24072500Y-35960000D01*
X23775000Y-35958839D01*
X23727952Y-35963473D01*
X23682712Y-35977196D01*
X23641018Y-35999482D01*
X23604473Y-36029473D01*
X23574482Y-36066018D01*
X23552196Y-36107712D01*
X23538473Y-36152952D01*
X23533839Y-36200000D01*
X21425000Y-36200000D01*
X21425000Y-35706429D01*
X21706708Y-35706429D01*
X21802655Y-35850751D01*
X21995330Y-35945501D01*
X22202786Y-36000842D01*
X22417053Y-36014647D01*
X22629896Y-35986386D01*
X22833136Y-35917143D01*
X22957345Y-35850751D01*
X23053292Y-35706429D01*
X22996863Y-35650000D01*
X23533839Y-35650000D01*
X23538473Y-35697048D01*
X23552196Y-35742288D01*
X23574482Y-35783982D01*
X23604473Y-35820527D01*
X23641018Y-35850518D01*
X23682712Y-35872804D01*
X23727952Y-35886527D01*
X23775000Y-35891161D01*
X24072500Y-35890000D01*
X24132500Y-35830000D01*
X24132500Y-35255000D01*
X24292500Y-35255000D01*
X24292500Y-35830000D01*
X24352500Y-35890000D01*
X24650000Y-35891161D01*
X24697048Y-35886527D01*
X24742288Y-35872804D01*
X24783982Y-35850518D01*
X24820527Y-35820527D01*
X24850518Y-35783982D01*
X24872804Y-35742288D01*
X24886527Y-35697048D01*
X24891161Y-35650000D01*
X24890000Y-35315000D01*
X24830000Y-35255000D01*
X24292500Y-35255000D01*
X24132500Y-35255000D01*
X23595000Y-35255000D01*
X23535000Y-35315000D01*
X23533839Y-35650000D01*
X22996863Y-35650000D01*
X22380000Y-35033137D01*
X21706708Y-35706429D01*
X21425000Y-35706429D01*
X21425000Y-35451979D01*
X21449249Y-35497345D01*
X21593571Y-35593292D01*
X22266863Y-34920000D01*
X22493137Y-34920000D01*
X23166429Y-35593292D01*
X23310751Y-35497345D01*
X23405501Y-35304670D01*
X23460842Y-35097214D01*
X23474647Y-34882947D01*
X23450356Y-34700000D01*
X23533839Y-34700000D01*
X23535000Y-35035000D01*
X23595000Y-35095000D01*
X24132500Y-35095000D01*
X24132500Y-34520000D01*
X24072500Y-34460000D01*
X23775000Y-34458839D01*
X23727952Y-34463473D01*
X23682712Y-34477196D01*
X23641018Y-34499482D01*
X23604473Y-34529473D01*
X23574482Y-34566018D01*
X23552196Y-34607712D01*
X23538473Y-34652952D01*
X23533839Y-34700000D01*
X23450356Y-34700000D01*
X23446386Y-34670104D01*
X23377143Y-34466864D01*
X23310751Y-34342655D01*
X23166429Y-34246708D01*
X22493137Y-34920000D01*
X22266863Y-34920000D01*
X21593571Y-34246708D01*
X21449249Y-34342655D01*
X21425000Y-34391966D01*
X21425000Y-34133571D01*
X21706708Y-34133571D01*
X22380000Y-34806863D01*
X23053292Y-34133571D01*
X22957345Y-33989249D01*
X22764670Y-33894499D01*
X22557214Y-33839158D01*
X22342947Y-33825353D01*
X22130104Y-33853614D01*
X21926864Y-33922857D01*
X21802655Y-33989249D01*
X21706708Y-34133571D01*
X21425000Y-34133571D01*
X21425000Y-33166429D01*
X21706708Y-33166429D01*
X21802655Y-33310751D01*
X21995330Y-33405501D01*
X22202786Y-33460842D01*
X22417053Y-33474647D01*
X22629896Y-33446386D01*
X22833136Y-33377143D01*
X22957345Y-33310751D01*
X23053292Y-33166429D01*
X22380000Y-32493137D01*
X21706708Y-33166429D01*
X21425000Y-33166429D01*
X21425000Y-32911979D01*
X21449249Y-32957345D01*
X21593571Y-33053292D01*
X22266863Y-32380000D01*
X22493137Y-32380000D01*
X23166429Y-33053292D01*
X23310751Y-32957345D01*
X23405501Y-32764670D01*
X23460842Y-32557214D01*
X23474647Y-32342947D01*
X23446386Y-32130104D01*
X23377143Y-31926864D01*
X23310751Y-31802655D01*
X23166429Y-31706708D01*
X22493137Y-32380000D01*
X22266863Y-32380000D01*
X21593571Y-31706708D01*
X21449249Y-31802655D01*
X21425000Y-31851966D01*
X21425000Y-31593571D01*
X21706708Y-31593571D01*
X22380000Y-32266863D01*
X23053292Y-31593571D01*
X22957345Y-31449249D01*
X22764670Y-31354499D01*
X22557214Y-31299158D01*
X22342947Y-31285353D01*
X22130104Y-31313614D01*
X21926864Y-31382857D01*
X21802655Y-31449249D01*
X21706708Y-31593571D01*
X21425000Y-31593571D01*
X21425000Y-30372689D01*
X21533342Y-30534834D01*
X21685166Y-30686658D01*
X21863691Y-30805945D01*
X22062059Y-30888112D01*
X22272644Y-30930000D01*
X22487356Y-30930000D01*
X22697941Y-30888112D01*
X22896309Y-30805945D01*
X23074834Y-30686658D01*
X23226658Y-30534834D01*
X23345945Y-30356309D01*
X23428112Y-30157941D01*
X23470000Y-29947356D01*
X23470000Y-29732644D01*
X23428112Y-29522059D01*
X23345945Y-29323691D01*
X23226658Y-29145166D01*
X23074834Y-28993342D01*
X22896309Y-28874055D01*
X22697941Y-28791888D01*
X22487356Y-28750000D01*
X22272644Y-28750000D01*
X22062059Y-28791888D01*
X21863691Y-28874055D01*
X21685166Y-28993342D01*
X21533342Y-29145166D01*
X21425000Y-29307311D01*
X21425000Y-28680000D01*
X23685000Y-28680000D01*
X23685000Y-29080000D01*
X23714826Y-29222830D01*
X23771944Y-29357096D01*
X23854158Y-29477639D01*
X23958309Y-29579827D01*
X24080395Y-29659733D01*
X24230902Y-29714091D01*
X24345000Y-29675278D01*
X24345000Y-28680000D01*
X23685000Y-28680000D01*
X21425000Y-28680000D01*
X21425000Y-27832689D01*
X21533342Y-27994834D01*
X21685166Y-28146658D01*
X21863691Y-28265945D01*
X22062059Y-28348112D01*
X22272644Y-28390000D01*
X22487356Y-28390000D01*
X22697941Y-28348112D01*
X22896309Y-28265945D01*
X23074834Y-28146658D01*
X23101492Y-28120000D01*
X23685000Y-28120000D01*
X23685000Y-28520000D01*
X24345000Y-28520000D01*
X24345000Y-27524722D01*
X24230902Y-27485909D01*
X24080395Y-27540267D01*
X23958309Y-27620173D01*
X23854158Y-27722361D01*
X23771944Y-27842904D01*
X23714826Y-27977170D01*
X23685000Y-28120000D01*
X23101492Y-28120000D01*
X23226658Y-27994834D01*
X23345945Y-27816309D01*
X23428112Y-27617941D01*
X23470000Y-27407356D01*
X23470000Y-27192644D01*
X23428112Y-26982059D01*
X23345945Y-26783691D01*
X23226658Y-26605166D01*
X23074834Y-26453342D01*
X22896309Y-26334055D01*
X22697941Y-26251888D01*
X22487356Y-26210000D01*
X22272644Y-26210000D01*
X22062059Y-26251888D01*
X21863691Y-26334055D01*
X21685166Y-26453342D01*
X21533342Y-26605166D01*
X21425000Y-26767311D01*
X21425000Y-24775410D01*
X21434354Y-24680000D01*
X23685000Y-24680000D01*
X23685000Y-25280000D01*
X23714826Y-25422830D01*
X23771944Y-25557096D01*
X23854158Y-25677639D01*
X23958309Y-25779827D01*
X24080395Y-25859733D01*
X24230902Y-25914091D01*
X24345000Y-25875278D01*
X24345000Y-24680000D01*
X23685000Y-24680000D01*
X21434354Y-24680000D01*
X21444670Y-24574796D01*
X21498454Y-24396656D01*
X21585819Y-24232347D01*
X21703431Y-24088139D01*
X21846813Y-23969523D01*
X22010511Y-23881012D01*
X22188275Y-23825985D01*
X22387933Y-23805000D01*
X23709014Y-23805000D01*
X23685000Y-23920000D01*
G36*
X37805204Y-23824670D02*
G01*
X37983344Y-23878454D01*
X38147653Y-23965819D01*
X38291861Y-24083431D01*
X38410477Y-24226813D01*
X38498988Y-24390511D01*
X38554015Y-24568275D01*
X38575001Y-24767942D01*
X38575001Y-26767312D01*
X38466658Y-26605166D01*
X38314834Y-26453342D01*
X38136309Y-26334055D01*
X37937941Y-26251888D01*
X37727356Y-26210000D01*
X37512644Y-26210000D01*
X37302059Y-26251888D01*
X37103691Y-26334055D01*
X36925166Y-26453342D01*
X36773342Y-26605166D01*
X36654055Y-26783691D01*
X36571888Y-26982059D01*
X36530000Y-27192644D01*
X36530000Y-27407356D01*
X36571888Y-27617941D01*
X36654055Y-27816309D01*
X36773342Y-27994834D01*
X36925166Y-28146658D01*
X37103691Y-28265945D01*
X37302059Y-28348112D01*
X37512644Y-28390000D01*
X37727356Y-28390000D01*
X37937941Y-28348112D01*
X38136309Y-28265945D01*
X38314834Y-28146658D01*
X38466658Y-27994834D01*
X38575001Y-27832688D01*
X38575001Y-29308023D01*
X38550751Y-29262655D01*
X38406429Y-29166708D01*
X37733137Y-29840000D01*
X38406429Y-30513292D01*
X38550751Y-30417345D01*
X38575001Y-30368033D01*
X38575001Y-31847312D01*
X38466658Y-31685166D01*
X38314834Y-31533342D01*
X38136309Y-31414055D01*
X37937941Y-31331888D01*
X37727356Y-31290000D01*
X37512644Y-31290000D01*
X37302059Y-31331888D01*
X37105749Y-31413202D01*
X37070000Y-31377453D01*
X37070000Y-31015712D01*
X37071548Y-30999999D01*
X37069956Y-30983839D01*
X37065370Y-30937269D01*
X37047072Y-30876949D01*
X37023780Y-30833374D01*
X37017357Y-30821357D01*
X36987388Y-30784840D01*
X36977369Y-30772631D01*
X36965158Y-30762610D01*
X36828977Y-30626429D01*
X36946708Y-30626429D01*
X37042655Y-30770751D01*
X37235330Y-30865501D01*
X37442786Y-30920842D01*
X37657053Y-30934647D01*
X37869896Y-30906386D01*
X38073136Y-30837143D01*
X38197345Y-30770751D01*
X38293292Y-30626429D01*
X37620000Y-29953137D01*
X36946708Y-30626429D01*
X36828977Y-30626429D01*
X36649894Y-30447347D01*
X36639869Y-30435131D01*
X36591142Y-30395143D01*
X36535551Y-30365428D01*
X36475231Y-30347130D01*
X36428218Y-30342500D01*
X36428213Y-30342500D01*
X36412500Y-30340952D01*
X36403623Y-30341827D01*
X36381152Y-30267750D01*
X36338652Y-30188237D01*
X36281456Y-30118544D01*
X36211763Y-30061348D01*
X36132250Y-30018848D01*
X36045974Y-29992676D01*
X35956250Y-29983839D01*
X35443750Y-29983839D01*
X35354026Y-29992676D01*
X35267750Y-30018848D01*
X35188237Y-30061348D01*
X35118544Y-30118544D01*
X35061348Y-30188237D01*
X35018848Y-30267750D01*
X34992676Y-30354026D01*
X34983839Y-30443750D01*
X34983839Y-30881250D01*
X34992676Y-30970974D01*
X35018848Y-31057250D01*
X35061348Y-31136763D01*
X35118544Y-31206456D01*
X35188237Y-31263652D01*
X35267750Y-31306152D01*
X35354026Y-31332324D01*
X35443750Y-31341161D01*
X35956250Y-31341161D01*
X36045974Y-31332324D01*
X36132250Y-31306152D01*
X36211763Y-31263652D01*
X36281456Y-31206456D01*
X36338652Y-31136763D01*
X36371939Y-31074487D01*
X36430001Y-31132548D01*
X36430000Y-31494286D01*
X36428452Y-31510000D01*
X36430000Y-31525713D01*
X36430000Y-31525717D01*
X36434630Y-31572730D01*
X36452928Y-31633050D01*
X36459836Y-31645974D01*
X36482643Y-31688642D01*
X36496318Y-31705305D01*
X36522631Y-31737369D01*
X36534847Y-31747394D01*
X36653202Y-31865749D01*
X36571888Y-32062059D01*
X36530000Y-32272644D01*
X36530000Y-32487356D01*
X36571888Y-32697941D01*
X36654055Y-32896309D01*
X36773342Y-33074834D01*
X36925166Y-33226658D01*
X37103691Y-33345945D01*
X37302059Y-33428112D01*
X37512644Y-33470000D01*
X37727356Y-33470000D01*
X37937941Y-33428112D01*
X38136309Y-33345945D01*
X38314834Y-33226658D01*
X38466658Y-33074834D01*
X38575001Y-32912688D01*
X38575001Y-34387312D01*
X38466658Y-34225166D01*
X38314834Y-34073342D01*
X38136309Y-33954055D01*
X37937941Y-33871888D01*
X37727356Y-33830000D01*
X37512644Y-33830000D01*
X37302059Y-33871888D01*
X37180750Y-33922136D01*
X36137147Y-32878534D01*
X36211763Y-32838652D01*
X36281456Y-32781456D01*
X36338652Y-32711763D01*
X36381152Y-32632250D01*
X36407324Y-32545974D01*
X36416161Y-32456250D01*
X36416161Y-32018750D01*
X36407324Y-31929026D01*
X36381152Y-31842750D01*
X36338652Y-31763237D01*
X36281456Y-31693544D01*
X36211763Y-31636348D01*
X36132250Y-31593848D01*
X36045974Y-31567676D01*
X35956250Y-31558839D01*
X35443750Y-31558839D01*
X35354026Y-31567676D01*
X35267750Y-31593848D01*
X35188237Y-31636348D01*
X35118544Y-31693544D01*
X35061348Y-31763237D01*
X35018848Y-31842750D01*
X34992676Y-31929026D01*
X34983839Y-32018750D01*
X34983839Y-32456250D01*
X34992676Y-32545974D01*
X35018848Y-32632250D01*
X35061348Y-32711763D01*
X35118544Y-32781456D01*
X35188237Y-32838652D01*
X35267750Y-32881152D01*
X35305000Y-32892452D01*
X35305000Y-32980606D01*
X35303292Y-32997950D01*
X35272048Y-32988473D01*
X35225000Y-32983839D01*
X34890000Y-32985000D01*
X34830000Y-33045000D01*
X34830000Y-33582500D01*
X35405000Y-33582500D01*
X35465000Y-33522500D01*
X35465773Y-33324386D01*
X36622136Y-34480750D01*
X36571888Y-34602059D01*
X36530000Y-34812644D01*
X36530000Y-35027356D01*
X36571888Y-35237941D01*
X36654055Y-35436309D01*
X36773342Y-35614834D01*
X36925166Y-35766658D01*
X37103691Y-35885945D01*
X37302059Y-35968112D01*
X37512644Y-36010000D01*
X37727356Y-36010000D01*
X37937941Y-35968112D01*
X38136309Y-35885945D01*
X38314834Y-35766658D01*
X38466658Y-35614834D01*
X38575001Y-35452688D01*
X38575001Y-36927312D01*
X38466658Y-36765166D01*
X38314834Y-36613342D01*
X38136309Y-36494055D01*
X37937941Y-36411888D01*
X37727356Y-36370000D01*
X37512644Y-36370000D01*
X37302059Y-36411888D01*
X37103691Y-36494055D01*
X36925166Y-36613342D01*
X36900003Y-36638505D01*
X36900003Y-36569210D01*
X36881173Y-36474543D01*
X36844235Y-36385369D01*
X36790611Y-36305114D01*
X36729599Y-36244102D01*
X36725373Y-36201187D01*
X36710741Y-36152952D01*
X36707075Y-36140866D01*
X36677361Y-36085276D01*
X36658064Y-36061763D01*
X36637372Y-36036549D01*
X36625155Y-36026523D01*
X36510950Y-35912318D01*
X36500924Y-35900101D01*
X36452197Y-35860113D01*
X36396606Y-35830398D01*
X36336286Y-35812100D01*
X36289273Y-35807470D01*
X36289268Y-35807470D01*
X36273555Y-35805922D01*
X36257842Y-35807470D01*
X35530515Y-35807470D01*
X35514799Y-35805922D01*
X35499083Y-35807470D01*
X35499081Y-35807470D01*
X35452068Y-35812100D01*
X35405786Y-35826139D01*
X35391747Y-35830398D01*
X35336157Y-35860112D01*
X35319433Y-35873838D01*
X35287430Y-35900101D01*
X35277404Y-35912318D01*
X35212261Y-35977461D01*
X34952539Y-35977461D01*
X34965163Y-35964837D01*
X34977369Y-35954820D01*
X34987388Y-35942612D01*
X35009346Y-35915856D01*
X35095974Y-35907324D01*
X35182250Y-35881152D01*
X35261763Y-35838652D01*
X35331456Y-35781456D01*
X35388652Y-35711763D01*
X35431152Y-35632250D01*
X35457324Y-35545974D01*
X35466161Y-35456250D01*
X35466161Y-35018750D01*
X35457324Y-34929026D01*
X35431152Y-34842750D01*
X35388652Y-34763237D01*
X35331456Y-34693544D01*
X35261763Y-34636348D01*
X35182250Y-34593848D01*
X35095974Y-34567676D01*
X35006250Y-34558839D01*
X34493750Y-34558839D01*
X34404026Y-34567676D01*
X34317750Y-34593848D01*
X34238237Y-34636348D01*
X34168544Y-34693544D01*
X34111348Y-34763237D01*
X34068848Y-34842750D01*
X34042676Y-34929026D01*
X34033839Y-35018750D01*
X34033839Y-35456250D01*
X34042676Y-35545974D01*
X34068848Y-35632250D01*
X34082318Y-35657451D01*
X34025765Y-35657451D01*
X34010049Y-35655903D01*
X33994333Y-35657451D01*
X33994331Y-35657451D01*
X33947318Y-35662081D01*
X33908993Y-35673707D01*
X33931152Y-35632250D01*
X33957324Y-35545974D01*
X33966161Y-35456250D01*
X33966161Y-35018750D01*
X33957324Y-34929026D01*
X33931152Y-34842750D01*
X33888652Y-34763237D01*
X33831456Y-34693544D01*
X33761763Y-34636348D01*
X33682250Y-34593848D01*
X33595974Y-34567676D01*
X33506250Y-34558839D01*
X32993750Y-34558839D01*
X32904026Y-34567676D01*
X32817750Y-34593848D01*
X32738237Y-34636348D01*
X32668544Y-34693544D01*
X32611348Y-34763237D01*
X32568848Y-34842750D01*
X32542676Y-34929026D01*
X32533839Y-35018750D01*
X32533839Y-35456250D01*
X32542676Y-35545974D01*
X32568848Y-35632250D01*
X32611348Y-35711763D01*
X32668544Y-35781456D01*
X32738237Y-35838652D01*
X32817750Y-35881152D01*
X32855000Y-35892452D01*
X32855000Y-36015257D01*
X32069933Y-36800326D01*
X32069933Y-36682802D01*
X32080019Y-36670512D01*
X32116698Y-36601891D01*
X32139284Y-36527433D01*
X32145000Y-36469401D01*
X32145000Y-36469394D01*
X32146910Y-36450000D01*
X32145000Y-36430606D01*
X32145000Y-36242452D01*
X32182250Y-36231152D01*
X32261763Y-36188652D01*
X32331456Y-36131456D01*
X32388652Y-36061763D01*
X32431152Y-35982250D01*
X32457324Y-35895974D01*
X32466161Y-35806250D01*
X32466161Y-35368750D01*
X32457324Y-35279026D01*
X32431152Y-35192750D01*
X32388652Y-35113237D01*
X32331456Y-35043544D01*
X32261763Y-34986348D01*
X32182250Y-34943848D01*
X32095974Y-34917676D01*
X32006250Y-34908839D01*
X31493750Y-34908839D01*
X31404026Y-34917676D01*
X31317750Y-34943848D01*
X31238237Y-34986348D01*
X31168544Y-35043544D01*
X31111348Y-35113237D01*
X31068848Y-35192750D01*
X31042676Y-35279026D01*
X31033839Y-35368750D01*
X31033839Y-35806250D01*
X31042676Y-35895974D01*
X31068848Y-35982250D01*
X31111348Y-36061763D01*
X31168544Y-36131456D01*
X31238237Y-36188652D01*
X31317750Y-36231152D01*
X31355001Y-36242452D01*
X31355001Y-36292266D01*
X31344915Y-36304555D01*
X31315177Y-36360191D01*
X31308236Y-36373176D01*
X31285649Y-36447634D01*
X31278023Y-36525067D01*
X31279934Y-36544471D01*
X31279933Y-38086453D01*
X31011386Y-38355001D01*
X30615818Y-38355001D01*
X30557102Y-38315769D01*
X30467928Y-38278831D01*
X30398667Y-38265054D01*
X30053028Y-37919416D01*
X30040657Y-37904342D01*
X29980511Y-37854981D01*
X29911890Y-37818302D01*
X29837432Y-37795716D01*
X29779400Y-37790000D01*
X29779393Y-37790000D01*
X29759999Y-37788090D01*
X29740605Y-37790000D01*
X29736852Y-37790000D01*
X29751132Y-37782367D01*
X29799859Y-37742379D01*
X29809884Y-37730163D01*
X30023886Y-37516161D01*
X30506250Y-37516161D01*
X30595974Y-37507324D01*
X30682250Y-37481152D01*
X30761763Y-37438652D01*
X30831456Y-37381456D01*
X30888652Y-37311763D01*
X30931152Y-37232250D01*
X30957324Y-37145974D01*
X30966161Y-37056250D01*
X30966161Y-36618750D01*
X30957324Y-36529026D01*
X30931152Y-36442750D01*
X30888652Y-36363237D01*
X30831456Y-36293544D01*
X30761763Y-36236348D01*
X30682250Y-36193848D01*
X30595974Y-36167676D01*
X30506250Y-36158839D01*
X29993750Y-36158839D01*
X29904026Y-36167676D01*
X29817750Y-36193848D01*
X29738237Y-36236348D01*
X29668544Y-36293544D01*
X29611348Y-36363237D01*
X29568848Y-36442750D01*
X29542676Y-36529026D01*
X29533839Y-36618750D01*
X29533839Y-37056250D01*
X29537861Y-37097091D01*
X29443540Y-37191413D01*
X29457324Y-37145974D01*
X29466161Y-37056250D01*
X29466161Y-36618750D01*
X29457324Y-36529026D01*
X29431152Y-36442750D01*
X29388652Y-36363237D01*
X29331456Y-36293544D01*
X29261763Y-36236348D01*
X29182250Y-36193848D01*
X29095974Y-36167676D01*
X29006250Y-36158839D01*
X28493750Y-36158839D01*
X28404026Y-36167676D01*
X28317750Y-36193848D01*
X28238237Y-36236348D01*
X28168544Y-36293544D01*
X28111348Y-36363237D01*
X28068848Y-36442750D01*
X28042676Y-36529026D01*
X28033839Y-36618750D01*
X28033839Y-37056250D01*
X28042676Y-37145974D01*
X28068848Y-37232250D01*
X28111348Y-37311763D01*
X28168544Y-37381456D01*
X28235800Y-37436652D01*
X27934843Y-37737610D01*
X27922632Y-37747631D01*
X27910241Y-37762730D01*
X27882643Y-37796358D01*
X27856143Y-37845936D01*
X27852929Y-37851949D01*
X27834631Y-37912269D01*
X27831889Y-37940116D01*
X27828452Y-37975000D01*
X27830001Y-37990723D01*
X27830000Y-39820074D01*
X27828452Y-39835787D01*
X27830000Y-39851500D01*
X27830000Y-39851504D01*
X27834630Y-39898517D01*
X27852928Y-39958837D01*
X27859486Y-39971106D01*
X27882643Y-40014429D01*
X27890539Y-40024050D01*
X27922631Y-40063156D01*
X27934847Y-40073181D01*
X28283206Y-40421541D01*
X28233021Y-40443258D01*
X28223366Y-40517264D01*
X28677675Y-40971573D01*
X28698889Y-40950360D01*
X28812026Y-41063497D01*
X28790812Y-41084710D01*
X28804955Y-41098853D01*
X28705960Y-41197848D01*
X28691817Y-41183705D01*
X28670604Y-41204919D01*
X28557467Y-41091782D01*
X28578680Y-41070568D01*
X28124371Y-40616259D01*
X28050365Y-40625914D01*
X28028648Y-40676100D01*
X27695000Y-40342453D01*
X27695000Y-37840716D01*
X27696548Y-37825000D01*
X27694903Y-37808302D01*
X27690370Y-37762269D01*
X27676249Y-37715718D01*
X27672072Y-37701948D01*
X27642357Y-37646358D01*
X27639306Y-37642640D01*
X27602369Y-37597631D01*
X27590154Y-37587607D01*
X27570000Y-37567453D01*
X27570000Y-37509882D01*
X27595974Y-37507324D01*
X27682250Y-37481152D01*
X27761763Y-37438652D01*
X27831456Y-37381456D01*
X27888652Y-37311763D01*
X27931152Y-37232250D01*
X27957324Y-37145974D01*
X27966161Y-37056250D01*
X27966161Y-36618750D01*
X27957324Y-36529026D01*
X27931152Y-36442750D01*
X27888652Y-36363237D01*
X27831456Y-36293544D01*
X27761763Y-36236348D01*
X27682250Y-36193848D01*
X27595974Y-36167676D01*
X27506250Y-36158839D01*
X26993750Y-36158839D01*
X26904026Y-36167676D01*
X26817750Y-36193848D01*
X26738237Y-36236348D01*
X26668544Y-36293544D01*
X26611348Y-36363237D01*
X26568848Y-36442750D01*
X26542676Y-36529026D01*
X26533839Y-36618750D01*
X26533839Y-37056250D01*
X26542676Y-37145974D01*
X26568848Y-37232250D01*
X26611348Y-37311763D01*
X26668544Y-37381456D01*
X26738237Y-37438652D01*
X26817750Y-37481152D01*
X26904026Y-37507324D01*
X26930001Y-37509882D01*
X26930001Y-37597773D01*
X26882102Y-37565768D01*
X26792928Y-37528830D01*
X26698261Y-37510000D01*
X26601739Y-37510000D01*
X26507072Y-37528830D01*
X26417898Y-37565768D01*
X26359182Y-37605000D01*
X26238614Y-37605000D01*
X26182500Y-37548887D01*
X26182500Y-37356018D01*
X26261763Y-37313652D01*
X26331456Y-37256456D01*
X26388652Y-37186763D01*
X26431152Y-37107250D01*
X26457324Y-37020974D01*
X26466161Y-36931250D01*
X26466161Y-36418750D01*
X26457324Y-36329026D01*
X26431152Y-36242750D01*
X26388652Y-36163237D01*
X26331456Y-36093544D01*
X26261763Y-36036348D01*
X26182500Y-35993982D01*
X26182500Y-35856018D01*
X26261763Y-35813652D01*
X26331456Y-35756456D01*
X26377788Y-35700000D01*
X26533839Y-35700000D01*
X26538473Y-35747048D01*
X26552196Y-35792288D01*
X26574482Y-35833982D01*
X26604473Y-35870527D01*
X26641018Y-35900518D01*
X26682712Y-35922804D01*
X26727952Y-35936527D01*
X26775000Y-35941161D01*
X27110000Y-35940000D01*
X27170000Y-35880000D01*
X27170000Y-35342500D01*
X27330000Y-35342500D01*
X27330000Y-35880000D01*
X27390000Y-35940000D01*
X27725000Y-35941161D01*
X27772048Y-35936527D01*
X27817288Y-35922804D01*
X27858982Y-35900518D01*
X27895527Y-35870527D01*
X27925518Y-35833982D01*
X27947804Y-35792288D01*
X27961527Y-35747048D01*
X27966161Y-35700000D01*
X27965000Y-35402500D01*
X27905000Y-35342500D01*
X27330000Y-35342500D01*
X27170000Y-35342500D01*
X26595000Y-35342500D01*
X26535000Y-35402500D01*
X26533839Y-35700000D01*
X26377788Y-35700000D01*
X26388652Y-35686763D01*
X26431152Y-35607250D01*
X26457324Y-35520974D01*
X26466161Y-35431250D01*
X26466161Y-34918750D01*
X26457324Y-34829026D01*
X26456103Y-34825000D01*
X26533839Y-34825000D01*
X26535000Y-35122500D01*
X26595000Y-35182500D01*
X27170000Y-35182500D01*
X27170000Y-34645000D01*
X27330000Y-34645000D01*
X27330000Y-35182500D01*
X27905000Y-35182500D01*
X27965000Y-35122500D01*
X27966161Y-34825000D01*
X27961527Y-34777952D01*
X27947804Y-34732712D01*
X27925518Y-34691018D01*
X27895527Y-34654473D01*
X27858982Y-34624482D01*
X27817288Y-34602196D01*
X27772048Y-34588473D01*
X27725000Y-34583839D01*
X27390000Y-34585000D01*
X27330000Y-34645000D01*
X27170000Y-34645000D01*
X27110000Y-34585000D01*
X26775000Y-34583839D01*
X26727952Y-34588473D01*
X26682712Y-34602196D01*
X26641018Y-34624482D01*
X26604473Y-34654473D01*
X26574482Y-34691018D01*
X26552196Y-34732712D01*
X26538473Y-34777952D01*
X26533839Y-34825000D01*
X26456103Y-34825000D01*
X26431152Y-34742750D01*
X26388652Y-34663237D01*
X26331456Y-34593544D01*
X26261763Y-34536348D01*
X26182250Y-34493848D01*
X26095974Y-34467676D01*
X26006250Y-34458839D01*
X25629953Y-34458839D01*
X25104990Y-33933877D01*
X25104990Y-33915884D01*
X25360000Y-33915000D01*
X25420000Y-33855000D01*
X25420000Y-33317500D01*
X25580000Y-33317500D01*
X25580000Y-33855000D01*
X25640000Y-33915000D01*
X25975000Y-33916161D01*
X26022048Y-33911527D01*
X26067288Y-33897804D01*
X26108982Y-33875518D01*
X26145527Y-33845527D01*
X26175518Y-33808982D01*
X26197804Y-33767288D01*
X26211527Y-33722048D01*
X26216161Y-33675000D01*
X26215000Y-33377500D01*
X26155000Y-33317500D01*
X25580000Y-33317500D01*
X25420000Y-33317500D01*
X25400000Y-33317500D01*
X25400000Y-33157500D01*
X25420000Y-33157500D01*
X25420000Y-32620000D01*
X25580000Y-32620000D01*
X25580000Y-33157500D01*
X26155000Y-33157500D01*
X26215000Y-33097500D01*
X26216161Y-32800000D01*
X26211527Y-32752952D01*
X26197804Y-32707712D01*
X26175518Y-32666018D01*
X26145527Y-32629473D01*
X26108982Y-32599482D01*
X26067288Y-32577196D01*
X26022048Y-32563473D01*
X25975000Y-32558839D01*
X25640000Y-32560000D01*
X25580000Y-32620000D01*
X25420000Y-32620000D01*
X25360000Y-32560000D01*
X25104990Y-32559116D01*
X25104990Y-32317449D01*
X25154026Y-32332324D01*
X25243750Y-32341161D01*
X25756250Y-32341161D01*
X25845974Y-32332324D01*
X25932250Y-32306152D01*
X26011763Y-32263652D01*
X26081456Y-32206456D01*
X26138652Y-32136763D01*
X26181152Y-32057250D01*
X26203828Y-31982500D01*
X26444843Y-31982500D01*
X26411888Y-32062059D01*
X26370000Y-32272644D01*
X26370000Y-32487356D01*
X26411888Y-32697941D01*
X26494055Y-32896309D01*
X26613342Y-33074834D01*
X26765166Y-33226658D01*
X26943691Y-33345945D01*
X27142059Y-33428112D01*
X27352644Y-33470000D01*
X27567356Y-33470000D01*
X27777941Y-33428112D01*
X27974250Y-33346798D01*
X28430000Y-33802549D01*
X28430001Y-34590118D01*
X28404026Y-34592676D01*
X28317750Y-34618848D01*
X28238237Y-34661348D01*
X28168544Y-34718544D01*
X28111348Y-34788237D01*
X28068848Y-34867750D01*
X28042676Y-34954026D01*
X28033839Y-35043750D01*
X28033839Y-35481250D01*
X28042676Y-35570974D01*
X28068848Y-35657250D01*
X28111348Y-35736763D01*
X28168544Y-35806456D01*
X28238237Y-35863652D01*
X28317750Y-35906152D01*
X28404026Y-35932324D01*
X28493750Y-35941161D01*
X29006250Y-35941161D01*
X29095974Y-35932324D01*
X29182250Y-35906152D01*
X29261763Y-35863652D01*
X29331456Y-35806456D01*
X29388652Y-35736763D01*
X29431152Y-35657250D01*
X29457324Y-35570974D01*
X29466161Y-35481250D01*
X29466161Y-35043750D01*
X29457324Y-34954026D01*
X29431152Y-34867750D01*
X29388652Y-34788237D01*
X29331456Y-34718544D01*
X29261763Y-34661348D01*
X29182250Y-34618848D01*
X29095974Y-34592676D01*
X29070000Y-34590118D01*
X29070000Y-33685705D01*
X29071547Y-33669999D01*
X29070000Y-33654293D01*
X29070000Y-33654282D01*
X29065370Y-33607269D01*
X29047072Y-33546949D01*
X29036918Y-33527952D01*
X29017357Y-33491356D01*
X28987388Y-33454839D01*
X28987385Y-33454836D01*
X28977369Y-33442631D01*
X28965165Y-33432616D01*
X28426798Y-32894250D01*
X28508112Y-32697941D01*
X28550000Y-32487356D01*
X28550000Y-32272644D01*
X28508112Y-32062059D01*
X28425945Y-31863691D01*
X28306658Y-31685166D01*
X28154834Y-31533342D01*
X27976309Y-31414055D01*
X27777941Y-31331888D01*
X27718176Y-31320000D01*
X27784287Y-31320000D01*
X27800000Y-31321548D01*
X27815713Y-31320000D01*
X27815718Y-31320000D01*
X27862731Y-31315370D01*
X27923051Y-31297072D01*
X27978642Y-31267357D01*
X28027369Y-31227369D01*
X28037394Y-31215153D01*
X28465159Y-30787389D01*
X28477369Y-30777369D01*
X28508037Y-30739999D01*
X28517357Y-30728643D01*
X28537468Y-30691018D01*
X28547072Y-30673051D01*
X28565370Y-30612731D01*
X28570000Y-30565718D01*
X28570000Y-30565714D01*
X28571548Y-30550001D01*
X28570000Y-30534288D01*
X28570000Y-30138206D01*
X28600000Y-30141161D01*
X28900000Y-30141161D01*
X28930001Y-30138206D01*
X28930001Y-30262279D01*
X28897069Y-30268829D01*
X28807895Y-30305767D01*
X28727640Y-30359391D01*
X28659389Y-30427642D01*
X28605765Y-30507897D01*
X28568827Y-30597071D01*
X28549997Y-30691738D01*
X28549997Y-30788260D01*
X28568827Y-30882927D01*
X28605765Y-30972101D01*
X28659389Y-31052356D01*
X28727640Y-31120607D01*
X28807895Y-31174231D01*
X28897069Y-31211169D01*
X28991736Y-31229999D01*
X29088258Y-31229999D01*
X29182925Y-31211169D01*
X29272099Y-31174231D01*
X29352354Y-31120607D01*
X29420605Y-31052356D01*
X29430001Y-31038294D01*
X29430001Y-31449930D01*
X29305166Y-31533342D01*
X29153342Y-31685166D01*
X29034055Y-31863691D01*
X28951888Y-32062059D01*
X28910000Y-32272644D01*
X28910000Y-32487356D01*
X28951888Y-32697941D01*
X29034055Y-32896309D01*
X29153342Y-33074834D01*
X29305166Y-33226658D01*
X29483691Y-33345945D01*
X29680001Y-33427259D01*
X29680001Y-33784277D01*
X29678452Y-33800000D01*
X29680682Y-33822631D01*
X29684631Y-33862731D01*
X29698178Y-33907388D01*
X29702929Y-33923051D01*
X29732643Y-33978642D01*
X29757966Y-34009498D01*
X29772632Y-34027369D01*
X29784842Y-34037389D01*
X29930000Y-34182548D01*
X29930000Y-34590118D01*
X29904026Y-34592676D01*
X29817750Y-34618848D01*
X29738237Y-34661348D01*
X29668544Y-34718544D01*
X29611348Y-34788237D01*
X29568848Y-34867750D01*
X29542676Y-34954026D01*
X29533839Y-35043750D01*
X29533839Y-35481250D01*
X29542676Y-35570974D01*
X29568848Y-35657250D01*
X29611348Y-35736763D01*
X29668544Y-35806456D01*
X29738237Y-35863652D01*
X29817750Y-35906152D01*
X29904026Y-35932324D01*
X29993750Y-35941161D01*
X30506250Y-35941161D01*
X30595974Y-35932324D01*
X30682250Y-35906152D01*
X30761763Y-35863652D01*
X30831456Y-35806456D01*
X30888652Y-35736763D01*
X30931152Y-35657250D01*
X30957324Y-35570974D01*
X30966161Y-35481250D01*
X30966161Y-35043750D01*
X30957324Y-34954026D01*
X30931152Y-34867750D01*
X30888652Y-34788237D01*
X30831456Y-34718544D01*
X30761763Y-34661348D01*
X30682250Y-34618848D01*
X30595974Y-34592676D01*
X30570000Y-34590118D01*
X30570000Y-34450000D01*
X31033839Y-34450000D01*
X31038473Y-34497048D01*
X31052196Y-34542288D01*
X31074482Y-34583982D01*
X31104473Y-34620527D01*
X31141018Y-34650518D01*
X31182712Y-34672804D01*
X31227952Y-34686527D01*
X31275000Y-34691161D01*
X31610000Y-34690000D01*
X31670000Y-34630000D01*
X31670000Y-34092500D01*
X31830000Y-34092500D01*
X31830000Y-34630000D01*
X31890000Y-34690000D01*
X32225000Y-34691161D01*
X32272048Y-34686527D01*
X32317288Y-34672804D01*
X32358982Y-34650518D01*
X32395527Y-34620527D01*
X32425518Y-34583982D01*
X32447804Y-34542288D01*
X32461527Y-34497048D01*
X32466161Y-34450000D01*
X32465000Y-34152500D01*
X32412500Y-34100000D01*
X32533839Y-34100000D01*
X32538473Y-34147048D01*
X32552196Y-34192288D01*
X32574482Y-34233982D01*
X32604473Y-34270527D01*
X32641018Y-34300518D01*
X32682712Y-34322804D01*
X32727952Y-34336527D01*
X32775000Y-34341161D01*
X33110000Y-34340000D01*
X33170000Y-34280000D01*
X33170000Y-33742500D01*
X33330000Y-33742500D01*
X33330000Y-34280000D01*
X33390000Y-34340000D01*
X33725000Y-34341161D01*
X33772048Y-34336527D01*
X33817288Y-34322804D01*
X33858982Y-34300518D01*
X33895527Y-34270527D01*
X33925518Y-34233982D01*
X33947804Y-34192288D01*
X33961527Y-34147048D01*
X33966161Y-34100000D01*
X34033839Y-34100000D01*
X34038473Y-34147048D01*
X34052196Y-34192288D01*
X34074482Y-34233982D01*
X34104473Y-34270527D01*
X34141018Y-34300518D01*
X34182712Y-34322804D01*
X34227952Y-34336527D01*
X34275000Y-34341161D01*
X34610000Y-34340000D01*
X34670000Y-34280000D01*
X34670000Y-33742500D01*
X34830000Y-33742500D01*
X34830000Y-34280000D01*
X34890000Y-34340000D01*
X35225000Y-34341161D01*
X35272048Y-34336527D01*
X35317288Y-34322804D01*
X35358982Y-34300518D01*
X35395527Y-34270527D01*
X35425518Y-34233982D01*
X35447804Y-34192288D01*
X35461527Y-34147048D01*
X35466161Y-34100000D01*
X35465000Y-33802500D01*
X35405000Y-33742500D01*
X34830000Y-33742500D01*
X34670000Y-33742500D01*
X34095000Y-33742500D01*
X34035000Y-33802500D01*
X34033839Y-34100000D01*
X33966161Y-34100000D01*
X33965000Y-33802500D01*
X33905000Y-33742500D01*
X33330000Y-33742500D01*
X33170000Y-33742500D01*
X32595000Y-33742500D01*
X32535000Y-33802500D01*
X32533839Y-34100000D01*
X32412500Y-34100000D01*
X32405000Y-34092500D01*
X31830000Y-34092500D01*
X31670000Y-34092500D01*
X31095000Y-34092500D01*
X31035000Y-34152500D01*
X31033839Y-34450000D01*
X30570000Y-34450000D01*
X30570000Y-34065712D01*
X30571548Y-34049999D01*
X30569319Y-34027369D01*
X30565370Y-33987269D01*
X30547072Y-33926949D01*
X30529727Y-33894499D01*
X30517357Y-33871356D01*
X30487388Y-33834839D01*
X30487385Y-33834836D01*
X30477369Y-33822631D01*
X30465164Y-33812615D01*
X30320000Y-33667452D01*
X30320000Y-33575000D01*
X31033839Y-33575000D01*
X31035000Y-33872500D01*
X31095000Y-33932500D01*
X31670000Y-33932500D01*
X31670000Y-33395000D01*
X31830000Y-33395000D01*
X31830000Y-33932500D01*
X32405000Y-33932500D01*
X32465000Y-33872500D01*
X32466161Y-33575000D01*
X32461527Y-33527952D01*
X32447804Y-33482712D01*
X32425518Y-33441018D01*
X32395527Y-33404473D01*
X32358982Y-33374482D01*
X32317288Y-33352196D01*
X32272048Y-33338473D01*
X32225000Y-33333839D01*
X31890000Y-33335000D01*
X31830000Y-33395000D01*
X31670000Y-33395000D01*
X31610000Y-33335000D01*
X31275000Y-33333839D01*
X31227952Y-33338473D01*
X31182712Y-33352196D01*
X31141018Y-33374482D01*
X31104473Y-33404473D01*
X31074482Y-33441018D01*
X31052196Y-33482712D01*
X31038473Y-33527952D01*
X31033839Y-33575000D01*
X30320000Y-33575000D01*
X30320000Y-33427259D01*
X30516309Y-33345945D01*
X30694834Y-33226658D01*
X30696492Y-33225000D01*
X32533839Y-33225000D01*
X32535000Y-33522500D01*
X32595000Y-33582500D01*
X33170000Y-33582500D01*
X33170000Y-33045000D01*
X33330000Y-33045000D01*
X33330000Y-33582500D01*
X33905000Y-33582500D01*
X33965000Y-33522500D01*
X33966161Y-33225000D01*
X34033839Y-33225000D01*
X34035000Y-33522500D01*
X34095000Y-33582500D01*
X34670000Y-33582500D01*
X34670000Y-33045000D01*
X34610000Y-32985000D01*
X34275000Y-32983839D01*
X34227952Y-32988473D01*
X34182712Y-33002196D01*
X34141018Y-33024482D01*
X34104473Y-33054473D01*
X34074482Y-33091018D01*
X34052196Y-33132712D01*
X34038473Y-33177952D01*
X34033839Y-33225000D01*
X33966161Y-33225000D01*
X33961527Y-33177952D01*
X33947804Y-33132712D01*
X33925518Y-33091018D01*
X33895527Y-33054473D01*
X33858982Y-33024482D01*
X33817288Y-33002196D01*
X33772048Y-32988473D01*
X33725000Y-32983839D01*
X33390000Y-32985000D01*
X33330000Y-33045000D01*
X33170000Y-33045000D01*
X33110000Y-32985000D01*
X32775000Y-32983839D01*
X32727952Y-32988473D01*
X32682712Y-33002196D01*
X32641018Y-33024482D01*
X32604473Y-33054473D01*
X32574482Y-33091018D01*
X32552196Y-33132712D01*
X32538473Y-33177952D01*
X32533839Y-33225000D01*
X30696492Y-33225000D01*
X30846658Y-33074834D01*
X30965945Y-32896309D01*
X31048112Y-32697941D01*
X31090000Y-32487356D01*
X31090000Y-32272644D01*
X31048112Y-32062059D01*
X30966889Y-31865970D01*
X30977369Y-31857369D01*
X31003629Y-31825370D01*
X31017357Y-31808643D01*
X31047071Y-31753052D01*
X31047072Y-31753051D01*
X31065370Y-31692731D01*
X31070000Y-31645718D01*
X31070000Y-31645714D01*
X31071548Y-31630001D01*
X31070000Y-31614288D01*
X31070000Y-31222547D01*
X31362610Y-31515158D01*
X31372631Y-31527369D01*
X31396035Y-31546576D01*
X31421357Y-31567357D01*
X31476948Y-31597072D01*
X31485843Y-31599770D01*
X31537269Y-31615370D01*
X31584282Y-31620000D01*
X31584284Y-31620000D01*
X31600000Y-31621548D01*
X31615716Y-31620000D01*
X32040118Y-31620000D01*
X32042676Y-31645974D01*
X32068848Y-31732250D01*
X32111348Y-31811763D01*
X32168544Y-31881456D01*
X32238237Y-31938652D01*
X32317750Y-31981152D01*
X32404026Y-32007324D01*
X32493750Y-32016161D01*
X32931250Y-32016161D01*
X33020974Y-32007324D01*
X33107250Y-31981152D01*
X33186763Y-31938652D01*
X33256456Y-31881456D01*
X33313652Y-31811763D01*
X33333301Y-31775000D01*
X33608839Y-31775000D01*
X33613473Y-31822048D01*
X33627196Y-31867288D01*
X33649482Y-31908982D01*
X33679473Y-31945527D01*
X33716018Y-31975518D01*
X33757712Y-31997804D01*
X33802952Y-32011527D01*
X33850000Y-32016161D01*
X34147500Y-32015000D01*
X34207500Y-31955000D01*
X34207500Y-31380000D01*
X34367500Y-31380000D01*
X34367500Y-31955000D01*
X34427500Y-32015000D01*
X34725000Y-32016161D01*
X34772048Y-32011527D01*
X34817288Y-31997804D01*
X34858982Y-31975518D01*
X34895527Y-31945527D01*
X34925518Y-31908982D01*
X34947804Y-31867288D01*
X34961527Y-31822048D01*
X34966161Y-31775000D01*
X34965000Y-31440000D01*
X34905000Y-31380000D01*
X34367500Y-31380000D01*
X34207500Y-31380000D01*
X33670000Y-31380000D01*
X33610000Y-31440000D01*
X33608839Y-31775000D01*
X33333301Y-31775000D01*
X33356152Y-31732250D01*
X33382324Y-31645974D01*
X33391161Y-31556250D01*
X33391161Y-31043750D01*
X33382324Y-30954026D01*
X33372110Y-30920357D01*
X33374074Y-30921170D01*
X33468741Y-30940000D01*
X33565263Y-30940000D01*
X33609207Y-30931259D01*
X33610000Y-31160000D01*
X33670000Y-31220000D01*
X34207500Y-31220000D01*
X34207500Y-30645000D01*
X34367500Y-30645000D01*
X34367500Y-31220000D01*
X34905000Y-31220000D01*
X34965000Y-31160000D01*
X34966161Y-30825000D01*
X34961527Y-30777952D01*
X34947804Y-30732712D01*
X34925518Y-30691018D01*
X34895527Y-30654473D01*
X34858982Y-30624482D01*
X34817288Y-30602196D01*
X34772048Y-30588473D01*
X34725000Y-30583839D01*
X34427500Y-30585000D01*
X34367500Y-30645000D01*
X34207500Y-30645000D01*
X34147500Y-30585000D01*
X33989871Y-30584385D01*
X34007002Y-30498261D01*
X34007002Y-30401739D01*
X33988172Y-30307072D01*
X33951234Y-30217898D01*
X33897610Y-30137643D01*
X33829359Y-30069392D01*
X33749104Y-30015768D01*
X33717296Y-30002592D01*
X33722804Y-29992288D01*
X33736527Y-29947048D01*
X33741161Y-29900000D01*
X33741059Y-29877053D01*
X36525353Y-29877053D01*
X36553614Y-30089896D01*
X36622857Y-30293136D01*
X36689249Y-30417345D01*
X36833571Y-30513292D01*
X37506863Y-29840000D01*
X36833571Y-29166708D01*
X36689249Y-29262655D01*
X36594499Y-29455330D01*
X36539158Y-29662786D01*
X36525353Y-29877053D01*
X33741059Y-29877053D01*
X33740000Y-29640000D01*
X33680000Y-29580000D01*
X33280000Y-29580000D01*
X33280000Y-29600000D01*
X33120000Y-29600000D01*
X33120000Y-29580000D01*
X33100000Y-29580000D01*
X33100000Y-29420000D01*
X33120000Y-29420000D01*
X33120000Y-29415000D01*
X33280000Y-29415000D01*
X33280000Y-29420000D01*
X33680000Y-29420000D01*
X33685000Y-29415000D01*
X34556527Y-29415000D01*
X34572000Y-29416524D01*
X34587473Y-29415000D01*
X34633751Y-29410442D01*
X34693128Y-29392430D01*
X34747851Y-29363180D01*
X34795816Y-29323816D01*
X34835180Y-29275851D01*
X34864430Y-29221128D01*
X34864454Y-29221049D01*
X34864826Y-29222830D01*
X34921944Y-29357096D01*
X35004158Y-29477639D01*
X35108309Y-29579827D01*
X35230395Y-29659733D01*
X35380902Y-29714091D01*
X35495000Y-29675278D01*
X35495000Y-28680000D01*
X35655000Y-28680000D01*
X35655000Y-29675278D01*
X35769098Y-29714091D01*
X35919605Y-29659733D01*
X36041691Y-29579827D01*
X36145842Y-29477639D01*
X36228056Y-29357096D01*
X36285174Y-29222830D01*
X36315000Y-29080000D01*
X36315000Y-29053571D01*
X36946708Y-29053571D01*
X37620000Y-29726863D01*
X38293292Y-29053571D01*
X38197345Y-28909249D01*
X38004670Y-28814499D01*
X37797214Y-28759158D01*
X37582947Y-28745353D01*
X37370104Y-28773614D01*
X37166864Y-28842857D01*
X37042655Y-28909249D01*
X36946708Y-29053571D01*
X36315000Y-29053571D01*
X36315000Y-28680000D01*
X35655000Y-28680000D01*
X35495000Y-28680000D01*
X35475000Y-28680000D01*
X35475000Y-28520000D01*
X35495000Y-28520000D01*
X35495000Y-27524722D01*
X35655000Y-27524722D01*
X35655000Y-28520000D01*
X36315000Y-28520000D01*
X36315000Y-28120000D01*
X36285174Y-27977170D01*
X36228056Y-27842904D01*
X36145842Y-27722361D01*
X36041691Y-27620173D01*
X35919605Y-27540267D01*
X35769098Y-27485909D01*
X35655000Y-27524722D01*
X35495000Y-27524722D01*
X35380902Y-27485909D01*
X35230395Y-27540267D01*
X35108309Y-27620173D01*
X35004158Y-27722361D01*
X34921944Y-27842904D01*
X34887000Y-27925046D01*
X34887000Y-25474954D01*
X34921944Y-25557096D01*
X35004158Y-25677639D01*
X35108309Y-25779827D01*
X35230395Y-25859733D01*
X35380902Y-25914091D01*
X35495000Y-25875278D01*
X35495000Y-24680000D01*
X35655000Y-24680000D01*
X35655000Y-25875278D01*
X35769098Y-25914091D01*
X35919605Y-25859733D01*
X36041691Y-25779827D01*
X36145842Y-25677639D01*
X36228056Y-25557096D01*
X36285174Y-25422830D01*
X36315000Y-25280000D01*
X36315000Y-24680000D01*
X35655000Y-24680000D01*
X35495000Y-24680000D01*
X35475000Y-24680000D01*
X35475000Y-24520000D01*
X35495000Y-24520000D01*
X35495000Y-24500000D01*
X35655000Y-24500000D01*
X35655000Y-24520000D01*
X36315000Y-24520000D01*
X36315000Y-23920000D01*
X36290986Y-23805000D01*
X37604590Y-23805000D01*
X37805204Y-23824670D01*
G37*
X37805204Y-23824670D02*
X37983344Y-23878454D01*
X38147653Y-23965819D01*
X38291861Y-24083431D01*
X38410477Y-24226813D01*
X38498988Y-24390511D01*
X38554015Y-24568275D01*
X38575001Y-24767942D01*
X38575001Y-26767312D01*
X38466658Y-26605166D01*
X38314834Y-26453342D01*
X38136309Y-26334055D01*
X37937941Y-26251888D01*
X37727356Y-26210000D01*
X37512644Y-26210000D01*
X37302059Y-26251888D01*
X37103691Y-26334055D01*
X36925166Y-26453342D01*
X36773342Y-26605166D01*
X36654055Y-26783691D01*
X36571888Y-26982059D01*
X36530000Y-27192644D01*
X36530000Y-27407356D01*
X36571888Y-27617941D01*
X36654055Y-27816309D01*
X36773342Y-27994834D01*
X36925166Y-28146658D01*
X37103691Y-28265945D01*
X37302059Y-28348112D01*
X37512644Y-28390000D01*
X37727356Y-28390000D01*
X37937941Y-28348112D01*
X38136309Y-28265945D01*
X38314834Y-28146658D01*
X38466658Y-27994834D01*
X38575001Y-27832688D01*
X38575001Y-29308023D01*
X38550751Y-29262655D01*
X38406429Y-29166708D01*
X37733137Y-29840000D01*
X38406429Y-30513292D01*
X38550751Y-30417345D01*
X38575001Y-30368033D01*
X38575001Y-31847312D01*
X38466658Y-31685166D01*
X38314834Y-31533342D01*
X38136309Y-31414055D01*
X37937941Y-31331888D01*
X37727356Y-31290000D01*
X37512644Y-31290000D01*
X37302059Y-31331888D01*
X37105749Y-31413202D01*
X37070000Y-31377453D01*
X37070000Y-31015712D01*
X37071548Y-30999999D01*
X37069956Y-30983839D01*
X37065370Y-30937269D01*
X37047072Y-30876949D01*
X37023780Y-30833374D01*
X37017357Y-30821357D01*
X36987388Y-30784840D01*
X36977369Y-30772631D01*
X36965158Y-30762610D01*
X36828977Y-30626429D01*
X36946708Y-30626429D01*
X37042655Y-30770751D01*
X37235330Y-30865501D01*
X37442786Y-30920842D01*
X37657053Y-30934647D01*
X37869896Y-30906386D01*
X38073136Y-30837143D01*
X38197345Y-30770751D01*
X38293292Y-30626429D01*
X37620000Y-29953137D01*
X36946708Y-30626429D01*
X36828977Y-30626429D01*
X36649894Y-30447347D01*
X36639869Y-30435131D01*
X36591142Y-30395143D01*
X36535551Y-30365428D01*
X36475231Y-30347130D01*
X36428218Y-30342500D01*
X36428213Y-30342500D01*
X36412500Y-30340952D01*
X36403623Y-30341827D01*
X36381152Y-30267750D01*
X36338652Y-30188237D01*
X36281456Y-30118544D01*
X36211763Y-30061348D01*
X36132250Y-30018848D01*
X36045974Y-29992676D01*
X35956250Y-29983839D01*
X35443750Y-29983839D01*
X35354026Y-29992676D01*
X35267750Y-30018848D01*
X35188237Y-30061348D01*
X35118544Y-30118544D01*
X35061348Y-30188237D01*
X35018848Y-30267750D01*
X34992676Y-30354026D01*
X34983839Y-30443750D01*
X34983839Y-30881250D01*
X34992676Y-30970974D01*
X35018848Y-31057250D01*
X35061348Y-31136763D01*
X35118544Y-31206456D01*
X35188237Y-31263652D01*
X35267750Y-31306152D01*
X35354026Y-31332324D01*
X35443750Y-31341161D01*
X35956250Y-31341161D01*
X36045974Y-31332324D01*
X36132250Y-31306152D01*
X36211763Y-31263652D01*
X36281456Y-31206456D01*
X36338652Y-31136763D01*
X36371939Y-31074487D01*
X36430001Y-31132548D01*
X36430000Y-31494286D01*
X36428452Y-31510000D01*
X36430000Y-31525713D01*
X36430000Y-31525717D01*
X36434630Y-31572730D01*
X36452928Y-31633050D01*
X36459836Y-31645974D01*
X36482643Y-31688642D01*
X36496318Y-31705305D01*
X36522631Y-31737369D01*
X36534847Y-31747394D01*
X36653202Y-31865749D01*
X36571888Y-32062059D01*
X36530000Y-32272644D01*
X36530000Y-32487356D01*
X36571888Y-32697941D01*
X36654055Y-32896309D01*
X36773342Y-33074834D01*
X36925166Y-33226658D01*
X37103691Y-33345945D01*
X37302059Y-33428112D01*
X37512644Y-33470000D01*
X37727356Y-33470000D01*
X37937941Y-33428112D01*
X38136309Y-33345945D01*
X38314834Y-33226658D01*
X38466658Y-33074834D01*
X38575001Y-32912688D01*
X38575001Y-34387312D01*
X38466658Y-34225166D01*
X38314834Y-34073342D01*
X38136309Y-33954055D01*
X37937941Y-33871888D01*
X37727356Y-33830000D01*
X37512644Y-33830000D01*
X37302059Y-33871888D01*
X37180750Y-33922136D01*
X36137147Y-32878534D01*
X36211763Y-32838652D01*
X36281456Y-32781456D01*
X36338652Y-32711763D01*
X36381152Y-32632250D01*
X36407324Y-32545974D01*
X36416161Y-32456250D01*
X36416161Y-32018750D01*
X36407324Y-31929026D01*
X36381152Y-31842750D01*
X36338652Y-31763237D01*
X36281456Y-31693544D01*
X36211763Y-31636348D01*
X36132250Y-31593848D01*
X36045974Y-31567676D01*
X35956250Y-31558839D01*
X35443750Y-31558839D01*
X35354026Y-31567676D01*
X35267750Y-31593848D01*
X35188237Y-31636348D01*
X35118544Y-31693544D01*
X35061348Y-31763237D01*
X35018848Y-31842750D01*
X34992676Y-31929026D01*
X34983839Y-32018750D01*
X34983839Y-32456250D01*
X34992676Y-32545974D01*
X35018848Y-32632250D01*
X35061348Y-32711763D01*
X35118544Y-32781456D01*
X35188237Y-32838652D01*
X35267750Y-32881152D01*
X35305000Y-32892452D01*
X35305000Y-32980606D01*
X35303292Y-32997950D01*
X35272048Y-32988473D01*
X35225000Y-32983839D01*
X34890000Y-32985000D01*
X34830000Y-33045000D01*
X34830000Y-33582500D01*
X35405000Y-33582500D01*
X35465000Y-33522500D01*
X35465773Y-33324386D01*
X36622136Y-34480750D01*
X36571888Y-34602059D01*
X36530000Y-34812644D01*
X36530000Y-35027356D01*
X36571888Y-35237941D01*
X36654055Y-35436309D01*
X36773342Y-35614834D01*
X36925166Y-35766658D01*
X37103691Y-35885945D01*
X37302059Y-35968112D01*
X37512644Y-36010000D01*
X37727356Y-36010000D01*
X37937941Y-35968112D01*
X38136309Y-35885945D01*
X38314834Y-35766658D01*
X38466658Y-35614834D01*
X38575001Y-35452688D01*
X38575001Y-36927312D01*
X38466658Y-36765166D01*
X38314834Y-36613342D01*
X38136309Y-36494055D01*
X37937941Y-36411888D01*
X37727356Y-36370000D01*
X37512644Y-36370000D01*
X37302059Y-36411888D01*
X37103691Y-36494055D01*
X36925166Y-36613342D01*
X36900003Y-36638505D01*
X36900003Y-36569210D01*
X36881173Y-36474543D01*
X36844235Y-36385369D01*
X36790611Y-36305114D01*
X36729599Y-36244102D01*
X36725373Y-36201187D01*
X36710741Y-36152952D01*
X36707075Y-36140866D01*
X36677361Y-36085276D01*
X36658064Y-36061763D01*
X36637372Y-36036549D01*
X36625155Y-36026523D01*
X36510950Y-35912318D01*
X36500924Y-35900101D01*
X36452197Y-35860113D01*
X36396606Y-35830398D01*
X36336286Y-35812100D01*
X36289273Y-35807470D01*
X36289268Y-35807470D01*
X36273555Y-35805922D01*
X36257842Y-35807470D01*
X35530515Y-35807470D01*
X35514799Y-35805922D01*
X35499083Y-35807470D01*
X35499081Y-35807470D01*
X35452068Y-35812100D01*
X35405786Y-35826139D01*
X35391747Y-35830398D01*
X35336157Y-35860112D01*
X35319433Y-35873838D01*
X35287430Y-35900101D01*
X35277404Y-35912318D01*
X35212261Y-35977461D01*
X34952539Y-35977461D01*
X34965163Y-35964837D01*
X34977369Y-35954820D01*
X34987388Y-35942612D01*
X35009346Y-35915856D01*
X35095974Y-35907324D01*
X35182250Y-35881152D01*
X35261763Y-35838652D01*
X35331456Y-35781456D01*
X35388652Y-35711763D01*
X35431152Y-35632250D01*
X35457324Y-35545974D01*
X35466161Y-35456250D01*
X35466161Y-35018750D01*
X35457324Y-34929026D01*
X35431152Y-34842750D01*
X35388652Y-34763237D01*
X35331456Y-34693544D01*
X35261763Y-34636348D01*
X35182250Y-34593848D01*
X35095974Y-34567676D01*
X35006250Y-34558839D01*
X34493750Y-34558839D01*
X34404026Y-34567676D01*
X34317750Y-34593848D01*
X34238237Y-34636348D01*
X34168544Y-34693544D01*
X34111348Y-34763237D01*
X34068848Y-34842750D01*
X34042676Y-34929026D01*
X34033839Y-35018750D01*
X34033839Y-35456250D01*
X34042676Y-35545974D01*
X34068848Y-35632250D01*
X34082318Y-35657451D01*
X34025765Y-35657451D01*
X34010049Y-35655903D01*
X33994333Y-35657451D01*
X33994331Y-35657451D01*
X33947318Y-35662081D01*
X33908993Y-35673707D01*
X33931152Y-35632250D01*
X33957324Y-35545974D01*
X33966161Y-35456250D01*
X33966161Y-35018750D01*
X33957324Y-34929026D01*
X33931152Y-34842750D01*
X33888652Y-34763237D01*
X33831456Y-34693544D01*
X33761763Y-34636348D01*
X33682250Y-34593848D01*
X33595974Y-34567676D01*
X33506250Y-34558839D01*
X32993750Y-34558839D01*
X32904026Y-34567676D01*
X32817750Y-34593848D01*
X32738237Y-34636348D01*
X32668544Y-34693544D01*
X32611348Y-34763237D01*
X32568848Y-34842750D01*
X32542676Y-34929026D01*
X32533839Y-35018750D01*
X32533839Y-35456250D01*
X32542676Y-35545974D01*
X32568848Y-35632250D01*
X32611348Y-35711763D01*
X32668544Y-35781456D01*
X32738237Y-35838652D01*
X32817750Y-35881152D01*
X32855000Y-35892452D01*
X32855000Y-36015257D01*
X32069933Y-36800326D01*
X32069933Y-36682802D01*
X32080019Y-36670512D01*
X32116698Y-36601891D01*
X32139284Y-36527433D01*
X32145000Y-36469401D01*
X32145000Y-36469394D01*
X32146910Y-36450000D01*
X32145000Y-36430606D01*
X32145000Y-36242452D01*
X32182250Y-36231152D01*
X32261763Y-36188652D01*
X32331456Y-36131456D01*
X32388652Y-36061763D01*
X32431152Y-35982250D01*
X32457324Y-35895974D01*
X32466161Y-35806250D01*
X32466161Y-35368750D01*
X32457324Y-35279026D01*
X32431152Y-35192750D01*
X32388652Y-35113237D01*
X32331456Y-35043544D01*
X32261763Y-34986348D01*
X32182250Y-34943848D01*
X32095974Y-34917676D01*
X32006250Y-34908839D01*
X31493750Y-34908839D01*
X31404026Y-34917676D01*
X31317750Y-34943848D01*
X31238237Y-34986348D01*
X31168544Y-35043544D01*
X31111348Y-35113237D01*
X31068848Y-35192750D01*
X31042676Y-35279026D01*
X31033839Y-35368750D01*
X31033839Y-35806250D01*
X31042676Y-35895974D01*
X31068848Y-35982250D01*
X31111348Y-36061763D01*
X31168544Y-36131456D01*
X31238237Y-36188652D01*
X31317750Y-36231152D01*
X31355001Y-36242452D01*
X31355001Y-36292266D01*
X31344915Y-36304555D01*
X31315177Y-36360191D01*
X31308236Y-36373176D01*
X31285649Y-36447634D01*
X31278023Y-36525067D01*
X31279934Y-36544471D01*
X31279933Y-38086453D01*
X31011386Y-38355001D01*
X30615818Y-38355001D01*
X30557102Y-38315769D01*
X30467928Y-38278831D01*
X30398667Y-38265054D01*
X30053028Y-37919416D01*
X30040657Y-37904342D01*
X29980511Y-37854981D01*
X29911890Y-37818302D01*
X29837432Y-37795716D01*
X29779400Y-37790000D01*
X29779393Y-37790000D01*
X29759999Y-37788090D01*
X29740605Y-37790000D01*
X29736852Y-37790000D01*
X29751132Y-37782367D01*
X29799859Y-37742379D01*
X29809884Y-37730163D01*
X30023886Y-37516161D01*
X30506250Y-37516161D01*
X30595974Y-37507324D01*
X30682250Y-37481152D01*
X30761763Y-37438652D01*
X30831456Y-37381456D01*
X30888652Y-37311763D01*
X30931152Y-37232250D01*
X30957324Y-37145974D01*
X30966161Y-37056250D01*
X30966161Y-36618750D01*
X30957324Y-36529026D01*
X30931152Y-36442750D01*
X30888652Y-36363237D01*
X30831456Y-36293544D01*
X30761763Y-36236348D01*
X30682250Y-36193848D01*
X30595974Y-36167676D01*
X30506250Y-36158839D01*
X29993750Y-36158839D01*
X29904026Y-36167676D01*
X29817750Y-36193848D01*
X29738237Y-36236348D01*
X29668544Y-36293544D01*
X29611348Y-36363237D01*
X29568848Y-36442750D01*
X29542676Y-36529026D01*
X29533839Y-36618750D01*
X29533839Y-37056250D01*
X29537861Y-37097091D01*
X29443540Y-37191413D01*
X29457324Y-37145974D01*
X29466161Y-37056250D01*
X29466161Y-36618750D01*
X29457324Y-36529026D01*
X29431152Y-36442750D01*
X29388652Y-36363237D01*
X29331456Y-36293544D01*
X29261763Y-36236348D01*
X29182250Y-36193848D01*
X29095974Y-36167676D01*
X29006250Y-36158839D01*
X28493750Y-36158839D01*
X28404026Y-36167676D01*
X28317750Y-36193848D01*
X28238237Y-36236348D01*
X28168544Y-36293544D01*
X28111348Y-36363237D01*
X28068848Y-36442750D01*
X28042676Y-36529026D01*
X28033839Y-36618750D01*
X28033839Y-37056250D01*
X28042676Y-37145974D01*
X28068848Y-37232250D01*
X28111348Y-37311763D01*
X28168544Y-37381456D01*
X28235800Y-37436652D01*
X27934843Y-37737610D01*
X27922632Y-37747631D01*
X27910241Y-37762730D01*
X27882643Y-37796358D01*
X27856143Y-37845936D01*
X27852929Y-37851949D01*
X27834631Y-37912269D01*
X27831889Y-37940116D01*
X27828452Y-37975000D01*
X27830001Y-37990723D01*
X27830000Y-39820074D01*
X27828452Y-39835787D01*
X27830000Y-39851500D01*
X27830000Y-39851504D01*
X27834630Y-39898517D01*
X27852928Y-39958837D01*
X27859486Y-39971106D01*
X27882643Y-40014429D01*
X27890539Y-40024050D01*
X27922631Y-40063156D01*
X27934847Y-40073181D01*
X28283206Y-40421541D01*
X28233021Y-40443258D01*
X28223366Y-40517264D01*
X28677675Y-40971573D01*
X28698889Y-40950360D01*
X28812026Y-41063497D01*
X28790812Y-41084710D01*
X28804955Y-41098853D01*
X28705960Y-41197848D01*
X28691817Y-41183705D01*
X28670604Y-41204919D01*
X28557467Y-41091782D01*
X28578680Y-41070568D01*
X28124371Y-40616259D01*
X28050365Y-40625914D01*
X28028648Y-40676100D01*
X27695000Y-40342453D01*
X27695000Y-37840716D01*
X27696548Y-37825000D01*
X27694903Y-37808302D01*
X27690370Y-37762269D01*
X27676249Y-37715718D01*
X27672072Y-37701948D01*
X27642357Y-37646358D01*
X27639306Y-37642640D01*
X27602369Y-37597631D01*
X27590154Y-37587607D01*
X27570000Y-37567453D01*
X27570000Y-37509882D01*
X27595974Y-37507324D01*
X27682250Y-37481152D01*
X27761763Y-37438652D01*
X27831456Y-37381456D01*
X27888652Y-37311763D01*
X27931152Y-37232250D01*
X27957324Y-37145974D01*
X27966161Y-37056250D01*
X27966161Y-36618750D01*
X27957324Y-36529026D01*
X27931152Y-36442750D01*
X27888652Y-36363237D01*
X27831456Y-36293544D01*
X27761763Y-36236348D01*
X27682250Y-36193848D01*
X27595974Y-36167676D01*
X27506250Y-36158839D01*
X26993750Y-36158839D01*
X26904026Y-36167676D01*
X26817750Y-36193848D01*
X26738237Y-36236348D01*
X26668544Y-36293544D01*
X26611348Y-36363237D01*
X26568848Y-36442750D01*
X26542676Y-36529026D01*
X26533839Y-36618750D01*
X26533839Y-37056250D01*
X26542676Y-37145974D01*
X26568848Y-37232250D01*
X26611348Y-37311763D01*
X26668544Y-37381456D01*
X26738237Y-37438652D01*
X26817750Y-37481152D01*
X26904026Y-37507324D01*
X26930001Y-37509882D01*
X26930001Y-37597773D01*
X26882102Y-37565768D01*
X26792928Y-37528830D01*
X26698261Y-37510000D01*
X26601739Y-37510000D01*
X26507072Y-37528830D01*
X26417898Y-37565768D01*
X26359182Y-37605000D01*
X26238614Y-37605000D01*
X26182500Y-37548887D01*
X26182500Y-37356018D01*
X26261763Y-37313652D01*
X26331456Y-37256456D01*
X26388652Y-37186763D01*
X26431152Y-37107250D01*
X26457324Y-37020974D01*
X26466161Y-36931250D01*
X26466161Y-36418750D01*
X26457324Y-36329026D01*
X26431152Y-36242750D01*
X26388652Y-36163237D01*
X26331456Y-36093544D01*
X26261763Y-36036348D01*
X26182500Y-35993982D01*
X26182500Y-35856018D01*
X26261763Y-35813652D01*
X26331456Y-35756456D01*
X26377788Y-35700000D01*
X26533839Y-35700000D01*
X26538473Y-35747048D01*
X26552196Y-35792288D01*
X26574482Y-35833982D01*
X26604473Y-35870527D01*
X26641018Y-35900518D01*
X26682712Y-35922804D01*
X26727952Y-35936527D01*
X26775000Y-35941161D01*
X27110000Y-35940000D01*
X27170000Y-35880000D01*
X27170000Y-35342500D01*
X27330000Y-35342500D01*
X27330000Y-35880000D01*
X27390000Y-35940000D01*
X27725000Y-35941161D01*
X27772048Y-35936527D01*
X27817288Y-35922804D01*
X27858982Y-35900518D01*
X27895527Y-35870527D01*
X27925518Y-35833982D01*
X27947804Y-35792288D01*
X27961527Y-35747048D01*
X27966161Y-35700000D01*
X27965000Y-35402500D01*
X27905000Y-35342500D01*
X27330000Y-35342500D01*
X27170000Y-35342500D01*
X26595000Y-35342500D01*
X26535000Y-35402500D01*
X26533839Y-35700000D01*
X26377788Y-35700000D01*
X26388652Y-35686763D01*
X26431152Y-35607250D01*
X26457324Y-35520974D01*
X26466161Y-35431250D01*
X26466161Y-34918750D01*
X26457324Y-34829026D01*
X26456103Y-34825000D01*
X26533839Y-34825000D01*
X26535000Y-35122500D01*
X26595000Y-35182500D01*
X27170000Y-35182500D01*
X27170000Y-34645000D01*
X27330000Y-34645000D01*
X27330000Y-35182500D01*
X27905000Y-35182500D01*
X27965000Y-35122500D01*
X27966161Y-34825000D01*
X27961527Y-34777952D01*
X27947804Y-34732712D01*
X27925518Y-34691018D01*
X27895527Y-34654473D01*
X27858982Y-34624482D01*
X27817288Y-34602196D01*
X27772048Y-34588473D01*
X27725000Y-34583839D01*
X27390000Y-34585000D01*
X27330000Y-34645000D01*
X27170000Y-34645000D01*
X27110000Y-34585000D01*
X26775000Y-34583839D01*
X26727952Y-34588473D01*
X26682712Y-34602196D01*
X26641018Y-34624482D01*
X26604473Y-34654473D01*
X26574482Y-34691018D01*
X26552196Y-34732712D01*
X26538473Y-34777952D01*
X26533839Y-34825000D01*
X26456103Y-34825000D01*
X26431152Y-34742750D01*
X26388652Y-34663237D01*
X26331456Y-34593544D01*
X26261763Y-34536348D01*
X26182250Y-34493848D01*
X26095974Y-34467676D01*
X26006250Y-34458839D01*
X25629953Y-34458839D01*
X25104990Y-33933877D01*
X25104990Y-33915884D01*
X25360000Y-33915000D01*
X25420000Y-33855000D01*
X25420000Y-33317500D01*
X25580000Y-33317500D01*
X25580000Y-33855000D01*
X25640000Y-33915000D01*
X25975000Y-33916161D01*
X26022048Y-33911527D01*
X26067288Y-33897804D01*
X26108982Y-33875518D01*
X26145527Y-33845527D01*
X26175518Y-33808982D01*
X26197804Y-33767288D01*
X26211527Y-33722048D01*
X26216161Y-33675000D01*
X26215000Y-33377500D01*
X26155000Y-33317500D01*
X25580000Y-33317500D01*
X25420000Y-33317500D01*
X25400000Y-33317500D01*
X25400000Y-33157500D01*
X25420000Y-33157500D01*
X25420000Y-32620000D01*
X25580000Y-32620000D01*
X25580000Y-33157500D01*
X26155000Y-33157500D01*
X26215000Y-33097500D01*
X26216161Y-32800000D01*
X26211527Y-32752952D01*
X26197804Y-32707712D01*
X26175518Y-32666018D01*
X26145527Y-32629473D01*
X26108982Y-32599482D01*
X26067288Y-32577196D01*
X26022048Y-32563473D01*
X25975000Y-32558839D01*
X25640000Y-32560000D01*
X25580000Y-32620000D01*
X25420000Y-32620000D01*
X25360000Y-32560000D01*
X25104990Y-32559116D01*
X25104990Y-32317449D01*
X25154026Y-32332324D01*
X25243750Y-32341161D01*
X25756250Y-32341161D01*
X25845974Y-32332324D01*
X25932250Y-32306152D01*
X26011763Y-32263652D01*
X26081456Y-32206456D01*
X26138652Y-32136763D01*
X26181152Y-32057250D01*
X26203828Y-31982500D01*
X26444843Y-31982500D01*
X26411888Y-32062059D01*
X26370000Y-32272644D01*
X26370000Y-32487356D01*
X26411888Y-32697941D01*
X26494055Y-32896309D01*
X26613342Y-33074834D01*
X26765166Y-33226658D01*
X26943691Y-33345945D01*
X27142059Y-33428112D01*
X27352644Y-33470000D01*
X27567356Y-33470000D01*
X27777941Y-33428112D01*
X27974250Y-33346798D01*
X28430000Y-33802549D01*
X28430001Y-34590118D01*
X28404026Y-34592676D01*
X28317750Y-34618848D01*
X28238237Y-34661348D01*
X28168544Y-34718544D01*
X28111348Y-34788237D01*
X28068848Y-34867750D01*
X28042676Y-34954026D01*
X28033839Y-35043750D01*
X28033839Y-35481250D01*
X28042676Y-35570974D01*
X28068848Y-35657250D01*
X28111348Y-35736763D01*
X28168544Y-35806456D01*
X28238237Y-35863652D01*
X28317750Y-35906152D01*
X28404026Y-35932324D01*
X28493750Y-35941161D01*
X29006250Y-35941161D01*
X29095974Y-35932324D01*
X29182250Y-35906152D01*
X29261763Y-35863652D01*
X29331456Y-35806456D01*
X29388652Y-35736763D01*
X29431152Y-35657250D01*
X29457324Y-35570974D01*
X29466161Y-35481250D01*
X29466161Y-35043750D01*
X29457324Y-34954026D01*
X29431152Y-34867750D01*
X29388652Y-34788237D01*
X29331456Y-34718544D01*
X29261763Y-34661348D01*
X29182250Y-34618848D01*
X29095974Y-34592676D01*
X29070000Y-34590118D01*
X29070000Y-33685705D01*
X29071547Y-33669999D01*
X29070000Y-33654293D01*
X29070000Y-33654282D01*
X29065370Y-33607269D01*
X29047072Y-33546949D01*
X29036918Y-33527952D01*
X29017357Y-33491356D01*
X28987388Y-33454839D01*
X28987385Y-33454836D01*
X28977369Y-33442631D01*
X28965165Y-33432616D01*
X28426798Y-32894250D01*
X28508112Y-32697941D01*
X28550000Y-32487356D01*
X28550000Y-32272644D01*
X28508112Y-32062059D01*
X28425945Y-31863691D01*
X28306658Y-31685166D01*
X28154834Y-31533342D01*
X27976309Y-31414055D01*
X27777941Y-31331888D01*
X27718176Y-31320000D01*
X27784287Y-31320000D01*
X27800000Y-31321548D01*
X27815713Y-31320000D01*
X27815718Y-31320000D01*
X27862731Y-31315370D01*
X27923051Y-31297072D01*
X27978642Y-31267357D01*
X28027369Y-31227369D01*
X28037394Y-31215153D01*
X28465159Y-30787389D01*
X28477369Y-30777369D01*
X28508037Y-30739999D01*
X28517357Y-30728643D01*
X28537468Y-30691018D01*
X28547072Y-30673051D01*
X28565370Y-30612731D01*
X28570000Y-30565718D01*
X28570000Y-30565714D01*
X28571548Y-30550001D01*
X28570000Y-30534288D01*
X28570000Y-30138206D01*
X28600000Y-30141161D01*
X28900000Y-30141161D01*
X28930001Y-30138206D01*
X28930001Y-30262279D01*
X28897069Y-30268829D01*
X28807895Y-30305767D01*
X28727640Y-30359391D01*
X28659389Y-30427642D01*
X28605765Y-30507897D01*
X28568827Y-30597071D01*
X28549997Y-30691738D01*
X28549997Y-30788260D01*
X28568827Y-30882927D01*
X28605765Y-30972101D01*
X28659389Y-31052356D01*
X28727640Y-31120607D01*
X28807895Y-31174231D01*
X28897069Y-31211169D01*
X28991736Y-31229999D01*
X29088258Y-31229999D01*
X29182925Y-31211169D01*
X29272099Y-31174231D01*
X29352354Y-31120607D01*
X29420605Y-31052356D01*
X29430001Y-31038294D01*
X29430001Y-31449930D01*
X29305166Y-31533342D01*
X29153342Y-31685166D01*
X29034055Y-31863691D01*
X28951888Y-32062059D01*
X28910000Y-32272644D01*
X28910000Y-32487356D01*
X28951888Y-32697941D01*
X29034055Y-32896309D01*
X29153342Y-33074834D01*
X29305166Y-33226658D01*
X29483691Y-33345945D01*
X29680001Y-33427259D01*
X29680001Y-33784277D01*
X29678452Y-33800000D01*
X29680682Y-33822631D01*
X29684631Y-33862731D01*
X29698178Y-33907388D01*
X29702929Y-33923051D01*
X29732643Y-33978642D01*
X29757966Y-34009498D01*
X29772632Y-34027369D01*
X29784842Y-34037389D01*
X29930000Y-34182548D01*
X29930000Y-34590118D01*
X29904026Y-34592676D01*
X29817750Y-34618848D01*
X29738237Y-34661348D01*
X29668544Y-34718544D01*
X29611348Y-34788237D01*
X29568848Y-34867750D01*
X29542676Y-34954026D01*
X29533839Y-35043750D01*
X29533839Y-35481250D01*
X29542676Y-35570974D01*
X29568848Y-35657250D01*
X29611348Y-35736763D01*
X29668544Y-35806456D01*
X29738237Y-35863652D01*
X29817750Y-35906152D01*
X29904026Y-35932324D01*
X29993750Y-35941161D01*
X30506250Y-35941161D01*
X30595974Y-35932324D01*
X30682250Y-35906152D01*
X30761763Y-35863652D01*
X30831456Y-35806456D01*
X30888652Y-35736763D01*
X30931152Y-35657250D01*
X30957324Y-35570974D01*
X30966161Y-35481250D01*
X30966161Y-35043750D01*
X30957324Y-34954026D01*
X30931152Y-34867750D01*
X30888652Y-34788237D01*
X30831456Y-34718544D01*
X30761763Y-34661348D01*
X30682250Y-34618848D01*
X30595974Y-34592676D01*
X30570000Y-34590118D01*
X30570000Y-34450000D01*
X31033839Y-34450000D01*
X31038473Y-34497048D01*
X31052196Y-34542288D01*
X31074482Y-34583982D01*
X31104473Y-34620527D01*
X31141018Y-34650518D01*
X31182712Y-34672804D01*
X31227952Y-34686527D01*
X31275000Y-34691161D01*
X31610000Y-34690000D01*
X31670000Y-34630000D01*
X31670000Y-34092500D01*
X31830000Y-34092500D01*
X31830000Y-34630000D01*
X31890000Y-34690000D01*
X32225000Y-34691161D01*
X32272048Y-34686527D01*
X32317288Y-34672804D01*
X32358982Y-34650518D01*
X32395527Y-34620527D01*
X32425518Y-34583982D01*
X32447804Y-34542288D01*
X32461527Y-34497048D01*
X32466161Y-34450000D01*
X32465000Y-34152500D01*
X32412500Y-34100000D01*
X32533839Y-34100000D01*
X32538473Y-34147048D01*
X32552196Y-34192288D01*
X32574482Y-34233982D01*
X32604473Y-34270527D01*
X32641018Y-34300518D01*
X32682712Y-34322804D01*
X32727952Y-34336527D01*
X32775000Y-34341161D01*
X33110000Y-34340000D01*
X33170000Y-34280000D01*
X33170000Y-33742500D01*
X33330000Y-33742500D01*
X33330000Y-34280000D01*
X33390000Y-34340000D01*
X33725000Y-34341161D01*
X33772048Y-34336527D01*
X33817288Y-34322804D01*
X33858982Y-34300518D01*
X33895527Y-34270527D01*
X33925518Y-34233982D01*
X33947804Y-34192288D01*
X33961527Y-34147048D01*
X33966161Y-34100000D01*
X34033839Y-34100000D01*
X34038473Y-34147048D01*
X34052196Y-34192288D01*
X34074482Y-34233982D01*
X34104473Y-34270527D01*
X34141018Y-34300518D01*
X34182712Y-34322804D01*
X34227952Y-34336527D01*
X34275000Y-34341161D01*
X34610000Y-34340000D01*
X34670000Y-34280000D01*
X34670000Y-33742500D01*
X34830000Y-33742500D01*
X34830000Y-34280000D01*
X34890000Y-34340000D01*
X35225000Y-34341161D01*
X35272048Y-34336527D01*
X35317288Y-34322804D01*
X35358982Y-34300518D01*
X35395527Y-34270527D01*
X35425518Y-34233982D01*
X35447804Y-34192288D01*
X35461527Y-34147048D01*
X35466161Y-34100000D01*
X35465000Y-33802500D01*
X35405000Y-33742500D01*
X34830000Y-33742500D01*
X34670000Y-33742500D01*
X34095000Y-33742500D01*
X34035000Y-33802500D01*
X34033839Y-34100000D01*
X33966161Y-34100000D01*
X33965000Y-33802500D01*
X33905000Y-33742500D01*
X33330000Y-33742500D01*
X33170000Y-33742500D01*
X32595000Y-33742500D01*
X32535000Y-33802500D01*
X32533839Y-34100000D01*
X32412500Y-34100000D01*
X32405000Y-34092500D01*
X31830000Y-34092500D01*
X31670000Y-34092500D01*
X31095000Y-34092500D01*
X31035000Y-34152500D01*
X31033839Y-34450000D01*
X30570000Y-34450000D01*
X30570000Y-34065712D01*
X30571548Y-34049999D01*
X30569319Y-34027369D01*
X30565370Y-33987269D01*
X30547072Y-33926949D01*
X30529727Y-33894499D01*
X30517357Y-33871356D01*
X30487388Y-33834839D01*
X30487385Y-33834836D01*
X30477369Y-33822631D01*
X30465164Y-33812615D01*
X30320000Y-33667452D01*
X30320000Y-33575000D01*
X31033839Y-33575000D01*
X31035000Y-33872500D01*
X31095000Y-33932500D01*
X31670000Y-33932500D01*
X31670000Y-33395000D01*
X31830000Y-33395000D01*
X31830000Y-33932500D01*
X32405000Y-33932500D01*
X32465000Y-33872500D01*
X32466161Y-33575000D01*
X32461527Y-33527952D01*
X32447804Y-33482712D01*
X32425518Y-33441018D01*
X32395527Y-33404473D01*
X32358982Y-33374482D01*
X32317288Y-33352196D01*
X32272048Y-33338473D01*
X32225000Y-33333839D01*
X31890000Y-33335000D01*
X31830000Y-33395000D01*
X31670000Y-33395000D01*
X31610000Y-33335000D01*
X31275000Y-33333839D01*
X31227952Y-33338473D01*
X31182712Y-33352196D01*
X31141018Y-33374482D01*
X31104473Y-33404473D01*
X31074482Y-33441018D01*
X31052196Y-33482712D01*
X31038473Y-33527952D01*
X31033839Y-33575000D01*
X30320000Y-33575000D01*
X30320000Y-33427259D01*
X30516309Y-33345945D01*
X30694834Y-33226658D01*
X30696492Y-33225000D01*
X32533839Y-33225000D01*
X32535000Y-33522500D01*
X32595000Y-33582500D01*
X33170000Y-33582500D01*
X33170000Y-33045000D01*
X33330000Y-33045000D01*
X33330000Y-33582500D01*
X33905000Y-33582500D01*
X33965000Y-33522500D01*
X33966161Y-33225000D01*
X34033839Y-33225000D01*
X34035000Y-33522500D01*
X34095000Y-33582500D01*
X34670000Y-33582500D01*
X34670000Y-33045000D01*
X34610000Y-32985000D01*
X34275000Y-32983839D01*
X34227952Y-32988473D01*
X34182712Y-33002196D01*
X34141018Y-33024482D01*
X34104473Y-33054473D01*
X34074482Y-33091018D01*
X34052196Y-33132712D01*
X34038473Y-33177952D01*
X34033839Y-33225000D01*
X33966161Y-33225000D01*
X33961527Y-33177952D01*
X33947804Y-33132712D01*
X33925518Y-33091018D01*
X33895527Y-33054473D01*
X33858982Y-33024482D01*
X33817288Y-33002196D01*
X33772048Y-32988473D01*
X33725000Y-32983839D01*
X33390000Y-32985000D01*
X33330000Y-33045000D01*
X33170000Y-33045000D01*
X33110000Y-32985000D01*
X32775000Y-32983839D01*
X32727952Y-32988473D01*
X32682712Y-33002196D01*
X32641018Y-33024482D01*
X32604473Y-33054473D01*
X32574482Y-33091018D01*
X32552196Y-33132712D01*
X32538473Y-33177952D01*
X32533839Y-33225000D01*
X30696492Y-33225000D01*
X30846658Y-33074834D01*
X30965945Y-32896309D01*
X31048112Y-32697941D01*
X31090000Y-32487356D01*
X31090000Y-32272644D01*
X31048112Y-32062059D01*
X30966889Y-31865970D01*
X30977369Y-31857369D01*
X31003629Y-31825370D01*
X31017357Y-31808643D01*
X31047071Y-31753052D01*
X31047072Y-31753051D01*
X31065370Y-31692731D01*
X31070000Y-31645718D01*
X31070000Y-31645714D01*
X31071548Y-31630001D01*
X31070000Y-31614288D01*
X31070000Y-31222547D01*
X31362610Y-31515158D01*
X31372631Y-31527369D01*
X31396035Y-31546576D01*
X31421357Y-31567357D01*
X31476948Y-31597072D01*
X31485843Y-31599770D01*
X31537269Y-31615370D01*
X31584282Y-31620000D01*
X31584284Y-31620000D01*
X31600000Y-31621548D01*
X31615716Y-31620000D01*
X32040118Y-31620000D01*
X32042676Y-31645974D01*
X32068848Y-31732250D01*
X32111348Y-31811763D01*
X32168544Y-31881456D01*
X32238237Y-31938652D01*
X32317750Y-31981152D01*
X32404026Y-32007324D01*
X32493750Y-32016161D01*
X32931250Y-32016161D01*
X33020974Y-32007324D01*
X33107250Y-31981152D01*
X33186763Y-31938652D01*
X33256456Y-31881456D01*
X33313652Y-31811763D01*
X33333301Y-31775000D01*
X33608839Y-31775000D01*
X33613473Y-31822048D01*
X33627196Y-31867288D01*
X33649482Y-31908982D01*
X33679473Y-31945527D01*
X33716018Y-31975518D01*
X33757712Y-31997804D01*
X33802952Y-32011527D01*
X33850000Y-32016161D01*
X34147500Y-32015000D01*
X34207500Y-31955000D01*
X34207500Y-31380000D01*
X34367500Y-31380000D01*
X34367500Y-31955000D01*
X34427500Y-32015000D01*
X34725000Y-32016161D01*
X34772048Y-32011527D01*
X34817288Y-31997804D01*
X34858982Y-31975518D01*
X34895527Y-31945527D01*
X34925518Y-31908982D01*
X34947804Y-31867288D01*
X34961527Y-31822048D01*
X34966161Y-31775000D01*
X34965000Y-31440000D01*
X34905000Y-31380000D01*
X34367500Y-31380000D01*
X34207500Y-31380000D01*
X33670000Y-31380000D01*
X33610000Y-31440000D01*
X33608839Y-31775000D01*
X33333301Y-31775000D01*
X33356152Y-31732250D01*
X33382324Y-31645974D01*
X33391161Y-31556250D01*
X33391161Y-31043750D01*
X33382324Y-30954026D01*
X33372110Y-30920357D01*
X33374074Y-30921170D01*
X33468741Y-30940000D01*
X33565263Y-30940000D01*
X33609207Y-30931259D01*
X33610000Y-31160000D01*
X33670000Y-31220000D01*
X34207500Y-31220000D01*
X34207500Y-30645000D01*
X34367500Y-30645000D01*
X34367500Y-31220000D01*
X34905000Y-31220000D01*
X34965000Y-31160000D01*
X34966161Y-30825000D01*
X34961527Y-30777952D01*
X34947804Y-30732712D01*
X34925518Y-30691018D01*
X34895527Y-30654473D01*
X34858982Y-30624482D01*
X34817288Y-30602196D01*
X34772048Y-30588473D01*
X34725000Y-30583839D01*
X34427500Y-30585000D01*
X34367500Y-30645000D01*
X34207500Y-30645000D01*
X34147500Y-30585000D01*
X33989871Y-30584385D01*
X34007002Y-30498261D01*
X34007002Y-30401739D01*
X33988172Y-30307072D01*
X33951234Y-30217898D01*
X33897610Y-30137643D01*
X33829359Y-30069392D01*
X33749104Y-30015768D01*
X33717296Y-30002592D01*
X33722804Y-29992288D01*
X33736527Y-29947048D01*
X33741161Y-29900000D01*
X33741059Y-29877053D01*
X36525353Y-29877053D01*
X36553614Y-30089896D01*
X36622857Y-30293136D01*
X36689249Y-30417345D01*
X36833571Y-30513292D01*
X37506863Y-29840000D01*
X36833571Y-29166708D01*
X36689249Y-29262655D01*
X36594499Y-29455330D01*
X36539158Y-29662786D01*
X36525353Y-29877053D01*
X33741059Y-29877053D01*
X33740000Y-29640000D01*
X33680000Y-29580000D01*
X33280000Y-29580000D01*
X33280000Y-29600000D01*
X33120000Y-29600000D01*
X33120000Y-29580000D01*
X33100000Y-29580000D01*
X33100000Y-29420000D01*
X33120000Y-29420000D01*
X33120000Y-29415000D01*
X33280000Y-29415000D01*
X33280000Y-29420000D01*
X33680000Y-29420000D01*
X33685000Y-29415000D01*
X34556527Y-29415000D01*
X34572000Y-29416524D01*
X34587473Y-29415000D01*
X34633751Y-29410442D01*
X34693128Y-29392430D01*
X34747851Y-29363180D01*
X34795816Y-29323816D01*
X34835180Y-29275851D01*
X34864430Y-29221128D01*
X34864454Y-29221049D01*
X34864826Y-29222830D01*
X34921944Y-29357096D01*
X35004158Y-29477639D01*
X35108309Y-29579827D01*
X35230395Y-29659733D01*
X35380902Y-29714091D01*
X35495000Y-29675278D01*
X35495000Y-28680000D01*
X35655000Y-28680000D01*
X35655000Y-29675278D01*
X35769098Y-29714091D01*
X35919605Y-29659733D01*
X36041691Y-29579827D01*
X36145842Y-29477639D01*
X36228056Y-29357096D01*
X36285174Y-29222830D01*
X36315000Y-29080000D01*
X36315000Y-29053571D01*
X36946708Y-29053571D01*
X37620000Y-29726863D01*
X38293292Y-29053571D01*
X38197345Y-28909249D01*
X38004670Y-28814499D01*
X37797214Y-28759158D01*
X37582947Y-28745353D01*
X37370104Y-28773614D01*
X37166864Y-28842857D01*
X37042655Y-28909249D01*
X36946708Y-29053571D01*
X36315000Y-29053571D01*
X36315000Y-28680000D01*
X35655000Y-28680000D01*
X35495000Y-28680000D01*
X35475000Y-28680000D01*
X35475000Y-28520000D01*
X35495000Y-28520000D01*
X35495000Y-27524722D01*
X35655000Y-27524722D01*
X35655000Y-28520000D01*
X36315000Y-28520000D01*
X36315000Y-28120000D01*
X36285174Y-27977170D01*
X36228056Y-27842904D01*
X36145842Y-27722361D01*
X36041691Y-27620173D01*
X35919605Y-27540267D01*
X35769098Y-27485909D01*
X35655000Y-27524722D01*
X35495000Y-27524722D01*
X35380902Y-27485909D01*
X35230395Y-27540267D01*
X35108309Y-27620173D01*
X35004158Y-27722361D01*
X34921944Y-27842904D01*
X34887000Y-27925046D01*
X34887000Y-25474954D01*
X34921944Y-25557096D01*
X35004158Y-25677639D01*
X35108309Y-25779827D01*
X35230395Y-25859733D01*
X35380902Y-25914091D01*
X35495000Y-25875278D01*
X35495000Y-24680000D01*
X35655000Y-24680000D01*
X35655000Y-25875278D01*
X35769098Y-25914091D01*
X35919605Y-25859733D01*
X36041691Y-25779827D01*
X36145842Y-25677639D01*
X36228056Y-25557096D01*
X36285174Y-25422830D01*
X36315000Y-25280000D01*
X36315000Y-24680000D01*
X35655000Y-24680000D01*
X35495000Y-24680000D01*
X35475000Y-24680000D01*
X35475000Y-24520000D01*
X35495000Y-24520000D01*
X35495000Y-24500000D01*
X35655000Y-24500000D01*
X35655000Y-24520000D01*
X36315000Y-24520000D01*
X36315000Y-23920000D01*
X36290986Y-23805000D01*
X37604590Y-23805000D01*
X37805204Y-23824670D01*
G36*
X32314944Y-39611188D02*
G01*
X32310692Y-39615440D01*
X32288975Y-39565254D01*
X32214969Y-39555599D01*
X31760660Y-40009908D01*
X31781874Y-40031122D01*
X31668737Y-40144259D01*
X31647523Y-40123045D01*
X31633381Y-40137188D01*
X31534386Y-40038193D01*
X31548528Y-40024050D01*
X31527315Y-40002837D01*
X31640452Y-39889700D01*
X31661665Y-39910913D01*
X32115974Y-39456604D01*
X32110262Y-39412819D01*
X32314944Y-39208137D01*
X32314944Y-39611188D01*
G37*
X32314944Y-39611188D02*
X32310692Y-39615440D01*
X32288975Y-39565254D01*
X32214969Y-39555599D01*
X31760660Y-40009908D01*
X31781874Y-40031122D01*
X31668737Y-40144259D01*
X31647523Y-40123045D01*
X31633381Y-40137188D01*
X31534386Y-40038193D01*
X31548528Y-40024050D01*
X31527315Y-40002837D01*
X31640452Y-39889700D01*
X31661665Y-39910913D01*
X32115974Y-39456604D01*
X32110262Y-39412819D01*
X32314944Y-39208137D01*
X32314944Y-39611188D01*
M02*
