M48
; DRILL file {KiCad (5.1.6)-1} date 09/28/20 23:28:46
; FORMAT={-:-/ absolute / inch / decimal}
; #@! TF.CreationDate,2020-09-28T23:28:46+08:00
; #@! TF.GenerationSoftware,Kicad,Pcbnew,(5.1.6)-1
; #@! TF.FileFunction,Plated,1,2,PTH
FMAT,2
INCH
T1C0.0118
T2C0.0236
T3C0.0394
%
G90
G05
T1
X0.9232Y-1.8307
X0.9488Y-1.9705
X0.9488Y-2.0138
X0.9488Y-2.0571
X0.9498Y-1.9331
X0.9616Y-1.0315
X0.9616Y-1.0719
X0.9685Y-1.187
X0.9803Y-1.4144
X0.9843Y-1.5335
X0.9937Y-1.6813
X0.9965Y-1.7268
X1.0073Y-1.6067
X1.0073Y-1.6364
X1.0157Y-1.7461
X1.0224Y-1.7075
X1.035Y-1.5739
X1.0492Y-1.4961
X1.052Y-1.6327
X1.0748Y-1.1988
X1.0866Y-1.3386
X1.1096Y-1.969
X1.1344Y-1.9615
X1.1433Y-1.2102
X1.1587Y-1.5256
X1.1594Y-1.3425
X1.161Y-1.9702
X1.1722Y-2.0827
X1.1732Y-2.0236
X1.1811Y-1.9921
X1.1909Y-1.2224
X1.1939Y-1.5256
X1.203Y-1.922
X1.2136Y-1.4911
X1.2441Y-1.2756
X1.2648Y-2.065
X1.2655Y-1.5254
X1.2953Y-1.9656
X1.3012Y-1.8783
X1.3022Y-1.9079
X1.313Y-1.2756
X1.3196Y-1.1988
X1.3476Y-2.0445
X1.3676Y-1.6384
X1.3702Y-1.803
X1.3878Y-1.7244
X1.4006Y-1.0305
X1.4006Y-1.0719
X1.4016Y-1.6772
X1.4075Y-1.4416
X1.4134Y-2.0984
X1.4151Y-1.7244
X1.4173Y-1.935
X1.4252Y-1.8701
X1.4335Y-1.4416
X1.4488Y-1.7264
T3
X0.9811Y-2.1748
X1.0811Y-2.1748
X1.1811Y-2.1748
X1.2811Y-2.1748
X1.3811Y-2.1748
X0.8811Y-1.0748
X0.8811Y-1.1748
X0.8811Y-1.2748
X0.8811Y-1.3748
X0.8811Y-1.4748
X0.8811Y-1.5748
X0.8811Y-1.6748
X0.8811Y-1.7748
X0.8811Y-1.8748
X0.8811Y-1.9748
X0.8811Y-2.0748
X0.8811Y-2.1748
X1.0811Y-1.2748
X1.1811Y-1.2748
X1.4811Y-1.0748
X1.4811Y-1.1748
X1.4811Y-1.2748
X1.4811Y-1.3748
X1.4811Y-1.4748
X1.4811Y-1.5748
X1.4811Y-1.6748
X1.4811Y-1.7748
X1.4811Y-1.8748
X1.4811Y-1.9748
X1.4811Y-2.0748
X1.4811Y-2.1748
T2
G00X0.9616Y-0.9449
M15
G01X0.9616Y-0.9921
M16
G05
G00X0.9616Y-1.1102
M15
G01X0.9616Y-1.1417
M16
G05
G00X1.4006Y-0.9449
M15
G01X1.4006Y-0.9921
M16
G05
G00X1.4006Y-1.1102
M15
G01X1.4006Y-1.1417
M16
G05
T0
M30
