G04 #@! TF.GenerationSoftware,KiCad,Pcbnew,(5.1.6)-1*
G04 #@! TF.CreationDate,2020-10-13T18:08:15+08:00*
G04 #@! TF.ProjectId,Alvaro,416c7661-726f-42e6-9b69-6361645f7063,C*
G04 #@! TF.SameCoordinates,Original*
G04 #@! TF.FileFunction,Soldermask,Top*
G04 #@! TF.FilePolarity,Negative*
%FSLAX46Y46*%
G04 Gerber Fmt 4.6, Leading zero omitted, Abs format (unit mm)*
G04 Created by KiCad (PCBNEW (5.1.6)-1) date 2020-10-13 18:08:15*
%MOMM*%
%LPD*%
G01*
G04 APERTURE LIST*
%ADD10R,0.700000X1.200000*%
%ADD11C,1.400000*%
%ADD12R,0.940000X1.200000*%
%ADD13R,1.600000X1.300000*%
%ADD14C,2.100000*%
%ADD15C,0.100000*%
%ADD16R,1.600000X1.800000*%
G04 APERTURE END LIST*
G36*
G01*
X25345000Y-31475000D02*
X23855000Y-31475000D01*
G75*
G02*
X23525000Y-31145000I0J330000D01*
G01*
X23525000Y-30155000D01*
G75*
G02*
X23855000Y-29825000I330000J0D01*
G01*
X25345000Y-29825000D01*
G75*
G02*
X25675000Y-30155000I0J-330000D01*
G01*
X25675000Y-31145000D01*
G75*
G02*
X25345000Y-31475000I-330000J0D01*
G01*
G37*
G36*
G01*
X25345000Y-34275000D02*
X23855000Y-34275000D01*
G75*
G02*
X23525000Y-33945000I0J330000D01*
G01*
X23525000Y-32955000D01*
G75*
G02*
X23855000Y-32625000I330000J0D01*
G01*
X25345000Y-32625000D01*
G75*
G02*
X25675000Y-32955000I0J-330000D01*
G01*
X25675000Y-33945000D01*
G75*
G02*
X25345000Y-34275000I-330000J0D01*
G01*
G37*
D10*
X31758000Y-29500000D03*
X28750000Y-29500000D03*
D11*
X24424400Y-23973200D03*
X24424700Y-24252600D03*
X24424700Y-24557400D03*
X24424700Y-24900300D03*
X24424700Y-25192400D03*
X35575300Y-24570100D03*
X35575300Y-24265300D03*
X35575000Y-23985900D03*
X35575300Y-25205100D03*
X35575300Y-24913000D03*
X35575300Y-28735700D03*
X35575600Y-28219000D03*
X35575600Y-28981000D03*
X35575600Y-28481700D03*
X24425000Y-28481700D03*
X24425000Y-28981000D03*
X24425000Y-28219000D03*
X24424700Y-28735700D03*
D12*
X26800000Y-29500000D03*
X33200000Y-29500000D03*
X32400000Y-29500000D03*
X27600000Y-29500000D03*
D10*
X29250000Y-29500000D03*
X30750000Y-29500000D03*
X29750000Y-29500000D03*
X30250000Y-29500000D03*
X31250000Y-29500000D03*
X28250000Y-29500000D03*
D13*
X25100000Y-38150000D03*
X25100000Y-41450000D03*
D14*
X24920000Y-55240000D03*
X27460000Y-55240000D03*
X30000000Y-55240000D03*
X32540000Y-55240000D03*
X35080000Y-55240000D03*
X22380000Y-27300000D03*
X22380000Y-29840000D03*
X22380000Y-32380000D03*
X22380000Y-34920000D03*
X22380000Y-37460000D03*
X22380000Y-40000000D03*
X22380000Y-42540000D03*
X22380000Y-45080000D03*
X22380000Y-47620000D03*
X22380000Y-50160000D03*
X22380000Y-52700000D03*
X22380000Y-55240000D03*
X37620000Y-55240000D03*
X37620000Y-52700000D03*
X37620000Y-50160000D03*
X37620000Y-47620000D03*
X37620000Y-45080000D03*
X37620000Y-42540000D03*
X37620000Y-40000000D03*
X37620000Y-37460000D03*
X37620000Y-34920000D03*
X37620000Y-32380000D03*
X37620000Y-29840000D03*
X37620000Y-27300000D03*
X30000000Y-32380000D03*
X27460000Y-32380000D03*
G36*
G01*
X26425000Y-36343750D02*
X26425000Y-37056250D01*
G75*
G02*
X26106250Y-37375000I-318750J0D01*
G01*
X25468750Y-37375000D01*
G75*
G02*
X25150000Y-37056250I0J318750D01*
G01*
X25150000Y-36343750D01*
G75*
G02*
X25468750Y-36025000I318750J0D01*
G01*
X26106250Y-36025000D01*
G75*
G02*
X26425000Y-36343750I0J-318750D01*
G01*
G37*
G36*
G01*
X24850000Y-36343750D02*
X24850000Y-37056250D01*
G75*
G02*
X24531250Y-37375000I-318750J0D01*
G01*
X23893750Y-37375000D01*
G75*
G02*
X23575000Y-37056250I0J318750D01*
G01*
X23575000Y-36343750D01*
G75*
G02*
X23893750Y-36025000I318750J0D01*
G01*
X24531250Y-36025000D01*
G75*
G02*
X24850000Y-36343750I0J-318750D01*
G01*
G37*
D15*
G36*
X26740202Y-43800000D02*
G01*
X30700000Y-39840202D01*
X34659798Y-43800000D01*
X30700000Y-47759798D01*
X26740202Y-43800000D01*
G37*
G36*
G01*
X30770711Y-40193755D02*
X30770711Y-40193755D01*
G75*
G02*
X30770711Y-39698781I247487J247487D01*
G01*
X31336397Y-39133095D01*
G75*
G02*
X31831371Y-39133095I247487J-247487D01*
G01*
X31831371Y-39133095D01*
G75*
G02*
X31831371Y-39628069I-247487J-247487D01*
G01*
X31265685Y-40193755D01*
G75*
G02*
X30770711Y-40193755I-247487J247487D01*
G01*
G37*
G36*
G01*
X31124264Y-40547309D02*
X31124264Y-40547309D01*
G75*
G02*
X31124264Y-40052335I247487J247487D01*
G01*
X31689950Y-39486649D01*
G75*
G02*
X32184924Y-39486649I247487J-247487D01*
G01*
X32184924Y-39486649D01*
G75*
G02*
X32184924Y-39981623I-247487J-247487D01*
G01*
X31619238Y-40547309D01*
G75*
G02*
X31124264Y-40547309I-247487J247487D01*
G01*
G37*
G36*
G01*
X31477818Y-40900862D02*
X31477818Y-40900862D01*
G75*
G02*
X31477818Y-40405888I247487J247487D01*
G01*
X32043504Y-39840202D01*
G75*
G02*
X32538478Y-39840202I247487J-247487D01*
G01*
X32538478Y-39840202D01*
G75*
G02*
X32538478Y-40335176I-247487J-247487D01*
G01*
X31972792Y-40900862D01*
G75*
G02*
X31477818Y-40900862I-247487J247487D01*
G01*
G37*
G36*
G01*
X31831371Y-41254416D02*
X31831371Y-41254416D01*
G75*
G02*
X31831371Y-40759442I247487J247487D01*
G01*
X32397057Y-40193756D01*
G75*
G02*
X32892031Y-40193756I247487J-247487D01*
G01*
X32892031Y-40193756D01*
G75*
G02*
X32892031Y-40688730I-247487J-247487D01*
G01*
X32326345Y-41254416D01*
G75*
G02*
X31831371Y-41254416I-247487J247487D01*
G01*
G37*
G36*
G01*
X32184924Y-41607969D02*
X32184924Y-41607969D01*
G75*
G02*
X32184924Y-41112995I247487J247487D01*
G01*
X32750610Y-40547309D01*
G75*
G02*
X33245584Y-40547309I247487J-247487D01*
G01*
X33245584Y-40547309D01*
G75*
G02*
X33245584Y-41042283I-247487J-247487D01*
G01*
X32679898Y-41607969D01*
G75*
G02*
X32184924Y-41607969I-247487J247487D01*
G01*
G37*
G36*
G01*
X32538478Y-41961522D02*
X32538478Y-41961522D01*
G75*
G02*
X32538478Y-41466548I247487J247487D01*
G01*
X33104164Y-40900862D01*
G75*
G02*
X33599138Y-40900862I247487J-247487D01*
G01*
X33599138Y-40900862D01*
G75*
G02*
X33599138Y-41395836I-247487J-247487D01*
G01*
X33033452Y-41961522D01*
G75*
G02*
X32538478Y-41961522I-247487J247487D01*
G01*
G37*
G36*
G01*
X32892031Y-42315076D02*
X32892031Y-42315076D01*
G75*
G02*
X32892031Y-41820102I247487J247487D01*
G01*
X33457717Y-41254416D01*
G75*
G02*
X33952691Y-41254416I247487J-247487D01*
G01*
X33952691Y-41254416D01*
G75*
G02*
X33952691Y-41749390I-247487J-247487D01*
G01*
X33387005Y-42315076D01*
G75*
G02*
X32892031Y-42315076I-247487J247487D01*
G01*
G37*
G36*
G01*
X33245584Y-42668629D02*
X33245584Y-42668629D01*
G75*
G02*
X33245584Y-42173655I247487J247487D01*
G01*
X33811270Y-41607969D01*
G75*
G02*
X34306244Y-41607969I247487J-247487D01*
G01*
X34306244Y-41607969D01*
G75*
G02*
X34306244Y-42102943I-247487J-247487D01*
G01*
X33740558Y-42668629D01*
G75*
G02*
X33245584Y-42668629I-247487J247487D01*
G01*
G37*
G36*
G01*
X33599138Y-43022182D02*
X33599138Y-43022182D01*
G75*
G02*
X33599138Y-42527208I247487J247487D01*
G01*
X34164824Y-41961522D01*
G75*
G02*
X34659798Y-41961522I247487J-247487D01*
G01*
X34659798Y-41961522D01*
G75*
G02*
X34659798Y-42456496I-247487J-247487D01*
G01*
X34094112Y-43022182D01*
G75*
G02*
X33599138Y-43022182I-247487J247487D01*
G01*
G37*
G36*
G01*
X33952691Y-43375736D02*
X33952691Y-43375736D01*
G75*
G02*
X33952691Y-42880762I247487J247487D01*
G01*
X34518377Y-42315076D01*
G75*
G02*
X35013351Y-42315076I247487J-247487D01*
G01*
X35013351Y-42315076D01*
G75*
G02*
X35013351Y-42810050I-247487J-247487D01*
G01*
X34447665Y-43375736D01*
G75*
G02*
X33952691Y-43375736I-247487J247487D01*
G01*
G37*
G36*
G01*
X34306245Y-43729289D02*
X34306245Y-43729289D01*
G75*
G02*
X34306245Y-43234315I247487J247487D01*
G01*
X34871931Y-42668629D01*
G75*
G02*
X35366905Y-42668629I247487J-247487D01*
G01*
X35366905Y-42668629D01*
G75*
G02*
X35366905Y-43163603I-247487J-247487D01*
G01*
X34801219Y-43729289D01*
G75*
G02*
X34306245Y-43729289I-247487J247487D01*
G01*
G37*
G36*
G01*
X34306245Y-43870711D02*
X34306245Y-43870711D01*
G75*
G02*
X34801219Y-43870711I247487J-247487D01*
G01*
X35366905Y-44436397D01*
G75*
G02*
X35366905Y-44931371I-247487J-247487D01*
G01*
X35366905Y-44931371D01*
G75*
G02*
X34871931Y-44931371I-247487J247487D01*
G01*
X34306245Y-44365685D01*
G75*
G02*
X34306245Y-43870711I247487J247487D01*
G01*
G37*
G36*
G01*
X33952691Y-44224264D02*
X33952691Y-44224264D01*
G75*
G02*
X34447665Y-44224264I247487J-247487D01*
G01*
X35013351Y-44789950D01*
G75*
G02*
X35013351Y-45284924I-247487J-247487D01*
G01*
X35013351Y-45284924D01*
G75*
G02*
X34518377Y-45284924I-247487J247487D01*
G01*
X33952691Y-44719238D01*
G75*
G02*
X33952691Y-44224264I247487J247487D01*
G01*
G37*
G36*
G01*
X33599138Y-44577818D02*
X33599138Y-44577818D01*
G75*
G02*
X34094112Y-44577818I247487J-247487D01*
G01*
X34659798Y-45143504D01*
G75*
G02*
X34659798Y-45638478I-247487J-247487D01*
G01*
X34659798Y-45638478D01*
G75*
G02*
X34164824Y-45638478I-247487J247487D01*
G01*
X33599138Y-45072792D01*
G75*
G02*
X33599138Y-44577818I247487J247487D01*
G01*
G37*
G36*
G01*
X33245584Y-44931371D02*
X33245584Y-44931371D01*
G75*
G02*
X33740558Y-44931371I247487J-247487D01*
G01*
X34306244Y-45497057D01*
G75*
G02*
X34306244Y-45992031I-247487J-247487D01*
G01*
X34306244Y-45992031D01*
G75*
G02*
X33811270Y-45992031I-247487J247487D01*
G01*
X33245584Y-45426345D01*
G75*
G02*
X33245584Y-44931371I247487J247487D01*
G01*
G37*
G36*
G01*
X32892031Y-45284924D02*
X32892031Y-45284924D01*
G75*
G02*
X33387005Y-45284924I247487J-247487D01*
G01*
X33952691Y-45850610D01*
G75*
G02*
X33952691Y-46345584I-247487J-247487D01*
G01*
X33952691Y-46345584D01*
G75*
G02*
X33457717Y-46345584I-247487J247487D01*
G01*
X32892031Y-45779898D01*
G75*
G02*
X32892031Y-45284924I247487J247487D01*
G01*
G37*
G36*
G01*
X32538478Y-45638478D02*
X32538478Y-45638478D01*
G75*
G02*
X33033452Y-45638478I247487J-247487D01*
G01*
X33599138Y-46204164D01*
G75*
G02*
X33599138Y-46699138I-247487J-247487D01*
G01*
X33599138Y-46699138D01*
G75*
G02*
X33104164Y-46699138I-247487J247487D01*
G01*
X32538478Y-46133452D01*
G75*
G02*
X32538478Y-45638478I247487J247487D01*
G01*
G37*
G36*
G01*
X32184924Y-45992031D02*
X32184924Y-45992031D01*
G75*
G02*
X32679898Y-45992031I247487J-247487D01*
G01*
X33245584Y-46557717D01*
G75*
G02*
X33245584Y-47052691I-247487J-247487D01*
G01*
X33245584Y-47052691D01*
G75*
G02*
X32750610Y-47052691I-247487J247487D01*
G01*
X32184924Y-46487005D01*
G75*
G02*
X32184924Y-45992031I247487J247487D01*
G01*
G37*
G36*
G01*
X31831371Y-46345584D02*
X31831371Y-46345584D01*
G75*
G02*
X32326345Y-46345584I247487J-247487D01*
G01*
X32892031Y-46911270D01*
G75*
G02*
X32892031Y-47406244I-247487J-247487D01*
G01*
X32892031Y-47406244D01*
G75*
G02*
X32397057Y-47406244I-247487J247487D01*
G01*
X31831371Y-46840558D01*
G75*
G02*
X31831371Y-46345584I247487J247487D01*
G01*
G37*
G36*
G01*
X31477818Y-46699138D02*
X31477818Y-46699138D01*
G75*
G02*
X31972792Y-46699138I247487J-247487D01*
G01*
X32538478Y-47264824D01*
G75*
G02*
X32538478Y-47759798I-247487J-247487D01*
G01*
X32538478Y-47759798D01*
G75*
G02*
X32043504Y-47759798I-247487J247487D01*
G01*
X31477818Y-47194112D01*
G75*
G02*
X31477818Y-46699138I247487J247487D01*
G01*
G37*
G36*
G01*
X31124264Y-47052691D02*
X31124264Y-47052691D01*
G75*
G02*
X31619238Y-47052691I247487J-247487D01*
G01*
X32184924Y-47618377D01*
G75*
G02*
X32184924Y-48113351I-247487J-247487D01*
G01*
X32184924Y-48113351D01*
G75*
G02*
X31689950Y-48113351I-247487J247487D01*
G01*
X31124264Y-47547665D01*
G75*
G02*
X31124264Y-47052691I247487J247487D01*
G01*
G37*
G36*
G01*
X30770711Y-47406245D02*
X30770711Y-47406245D01*
G75*
G02*
X31265685Y-47406245I247487J-247487D01*
G01*
X31831371Y-47971931D01*
G75*
G02*
X31831371Y-48466905I-247487J-247487D01*
G01*
X31831371Y-48466905D01*
G75*
G02*
X31336397Y-48466905I-247487J247487D01*
G01*
X30770711Y-47901219D01*
G75*
G02*
X30770711Y-47406245I247487J247487D01*
G01*
G37*
G36*
G01*
X29568629Y-48466905D02*
X29568629Y-48466905D01*
G75*
G02*
X29568629Y-47971931I247487J247487D01*
G01*
X30134315Y-47406245D01*
G75*
G02*
X30629289Y-47406245I247487J-247487D01*
G01*
X30629289Y-47406245D01*
G75*
G02*
X30629289Y-47901219I-247487J-247487D01*
G01*
X30063603Y-48466905D01*
G75*
G02*
X29568629Y-48466905I-247487J247487D01*
G01*
G37*
G36*
G01*
X29215076Y-48113351D02*
X29215076Y-48113351D01*
G75*
G02*
X29215076Y-47618377I247487J247487D01*
G01*
X29780762Y-47052691D01*
G75*
G02*
X30275736Y-47052691I247487J-247487D01*
G01*
X30275736Y-47052691D01*
G75*
G02*
X30275736Y-47547665I-247487J-247487D01*
G01*
X29710050Y-48113351D01*
G75*
G02*
X29215076Y-48113351I-247487J247487D01*
G01*
G37*
G36*
G01*
X28861522Y-47759798D02*
X28861522Y-47759798D01*
G75*
G02*
X28861522Y-47264824I247487J247487D01*
G01*
X29427208Y-46699138D01*
G75*
G02*
X29922182Y-46699138I247487J-247487D01*
G01*
X29922182Y-46699138D01*
G75*
G02*
X29922182Y-47194112I-247487J-247487D01*
G01*
X29356496Y-47759798D01*
G75*
G02*
X28861522Y-47759798I-247487J247487D01*
G01*
G37*
G36*
G01*
X28507969Y-47406244D02*
X28507969Y-47406244D01*
G75*
G02*
X28507969Y-46911270I247487J247487D01*
G01*
X29073655Y-46345584D01*
G75*
G02*
X29568629Y-46345584I247487J-247487D01*
G01*
X29568629Y-46345584D01*
G75*
G02*
X29568629Y-46840558I-247487J-247487D01*
G01*
X29002943Y-47406244D01*
G75*
G02*
X28507969Y-47406244I-247487J247487D01*
G01*
G37*
G36*
G01*
X28154416Y-47052691D02*
X28154416Y-47052691D01*
G75*
G02*
X28154416Y-46557717I247487J247487D01*
G01*
X28720102Y-45992031D01*
G75*
G02*
X29215076Y-45992031I247487J-247487D01*
G01*
X29215076Y-45992031D01*
G75*
G02*
X29215076Y-46487005I-247487J-247487D01*
G01*
X28649390Y-47052691D01*
G75*
G02*
X28154416Y-47052691I-247487J247487D01*
G01*
G37*
G36*
G01*
X27800862Y-46699138D02*
X27800862Y-46699138D01*
G75*
G02*
X27800862Y-46204164I247487J247487D01*
G01*
X28366548Y-45638478D01*
G75*
G02*
X28861522Y-45638478I247487J-247487D01*
G01*
X28861522Y-45638478D01*
G75*
G02*
X28861522Y-46133452I-247487J-247487D01*
G01*
X28295836Y-46699138D01*
G75*
G02*
X27800862Y-46699138I-247487J247487D01*
G01*
G37*
G36*
G01*
X27447309Y-46345584D02*
X27447309Y-46345584D01*
G75*
G02*
X27447309Y-45850610I247487J247487D01*
G01*
X28012995Y-45284924D01*
G75*
G02*
X28507969Y-45284924I247487J-247487D01*
G01*
X28507969Y-45284924D01*
G75*
G02*
X28507969Y-45779898I-247487J-247487D01*
G01*
X27942283Y-46345584D01*
G75*
G02*
X27447309Y-46345584I-247487J247487D01*
G01*
G37*
G36*
G01*
X27093756Y-45992031D02*
X27093756Y-45992031D01*
G75*
G02*
X27093756Y-45497057I247487J247487D01*
G01*
X27659442Y-44931371D01*
G75*
G02*
X28154416Y-44931371I247487J-247487D01*
G01*
X28154416Y-44931371D01*
G75*
G02*
X28154416Y-45426345I-247487J-247487D01*
G01*
X27588730Y-45992031D01*
G75*
G02*
X27093756Y-45992031I-247487J247487D01*
G01*
G37*
G36*
G01*
X26740202Y-45638478D02*
X26740202Y-45638478D01*
G75*
G02*
X26740202Y-45143504I247487J247487D01*
G01*
X27305888Y-44577818D01*
G75*
G02*
X27800862Y-44577818I247487J-247487D01*
G01*
X27800862Y-44577818D01*
G75*
G02*
X27800862Y-45072792I-247487J-247487D01*
G01*
X27235176Y-45638478D01*
G75*
G02*
X26740202Y-45638478I-247487J247487D01*
G01*
G37*
G36*
G01*
X26386649Y-45284924D02*
X26386649Y-45284924D01*
G75*
G02*
X26386649Y-44789950I247487J247487D01*
G01*
X26952335Y-44224264D01*
G75*
G02*
X27447309Y-44224264I247487J-247487D01*
G01*
X27447309Y-44224264D01*
G75*
G02*
X27447309Y-44719238I-247487J-247487D01*
G01*
X26881623Y-45284924D01*
G75*
G02*
X26386649Y-45284924I-247487J247487D01*
G01*
G37*
G36*
G01*
X26033095Y-44931371D02*
X26033095Y-44931371D01*
G75*
G02*
X26033095Y-44436397I247487J247487D01*
G01*
X26598781Y-43870711D01*
G75*
G02*
X27093755Y-43870711I247487J-247487D01*
G01*
X27093755Y-43870711D01*
G75*
G02*
X27093755Y-44365685I-247487J-247487D01*
G01*
X26528069Y-44931371D01*
G75*
G02*
X26033095Y-44931371I-247487J247487D01*
G01*
G37*
G36*
G01*
X26033095Y-42668629D02*
X26033095Y-42668629D01*
G75*
G02*
X26528069Y-42668629I247487J-247487D01*
G01*
X27093755Y-43234315D01*
G75*
G02*
X27093755Y-43729289I-247487J-247487D01*
G01*
X27093755Y-43729289D01*
G75*
G02*
X26598781Y-43729289I-247487J247487D01*
G01*
X26033095Y-43163603D01*
G75*
G02*
X26033095Y-42668629I247487J247487D01*
G01*
G37*
G36*
G01*
X26386649Y-42315076D02*
X26386649Y-42315076D01*
G75*
G02*
X26881623Y-42315076I247487J-247487D01*
G01*
X27447309Y-42880762D01*
G75*
G02*
X27447309Y-43375736I-247487J-247487D01*
G01*
X27447309Y-43375736D01*
G75*
G02*
X26952335Y-43375736I-247487J247487D01*
G01*
X26386649Y-42810050D01*
G75*
G02*
X26386649Y-42315076I247487J247487D01*
G01*
G37*
G36*
G01*
X26740202Y-41961522D02*
X26740202Y-41961522D01*
G75*
G02*
X27235176Y-41961522I247487J-247487D01*
G01*
X27800862Y-42527208D01*
G75*
G02*
X27800862Y-43022182I-247487J-247487D01*
G01*
X27800862Y-43022182D01*
G75*
G02*
X27305888Y-43022182I-247487J247487D01*
G01*
X26740202Y-42456496D01*
G75*
G02*
X26740202Y-41961522I247487J247487D01*
G01*
G37*
G36*
G01*
X27093756Y-41607969D02*
X27093756Y-41607969D01*
G75*
G02*
X27588730Y-41607969I247487J-247487D01*
G01*
X28154416Y-42173655D01*
G75*
G02*
X28154416Y-42668629I-247487J-247487D01*
G01*
X28154416Y-42668629D01*
G75*
G02*
X27659442Y-42668629I-247487J247487D01*
G01*
X27093756Y-42102943D01*
G75*
G02*
X27093756Y-41607969I247487J247487D01*
G01*
G37*
G36*
G01*
X27447309Y-41254416D02*
X27447309Y-41254416D01*
G75*
G02*
X27942283Y-41254416I247487J-247487D01*
G01*
X28507969Y-41820102D01*
G75*
G02*
X28507969Y-42315076I-247487J-247487D01*
G01*
X28507969Y-42315076D01*
G75*
G02*
X28012995Y-42315076I-247487J247487D01*
G01*
X27447309Y-41749390D01*
G75*
G02*
X27447309Y-41254416I247487J247487D01*
G01*
G37*
G36*
G01*
X27800862Y-40900862D02*
X27800862Y-40900862D01*
G75*
G02*
X28295836Y-40900862I247487J-247487D01*
G01*
X28861522Y-41466548D01*
G75*
G02*
X28861522Y-41961522I-247487J-247487D01*
G01*
X28861522Y-41961522D01*
G75*
G02*
X28366548Y-41961522I-247487J247487D01*
G01*
X27800862Y-41395836D01*
G75*
G02*
X27800862Y-40900862I247487J247487D01*
G01*
G37*
G36*
G01*
X28154416Y-40547309D02*
X28154416Y-40547309D01*
G75*
G02*
X28649390Y-40547309I247487J-247487D01*
G01*
X29215076Y-41112995D01*
G75*
G02*
X29215076Y-41607969I-247487J-247487D01*
G01*
X29215076Y-41607969D01*
G75*
G02*
X28720102Y-41607969I-247487J247487D01*
G01*
X28154416Y-41042283D01*
G75*
G02*
X28154416Y-40547309I247487J247487D01*
G01*
G37*
G36*
G01*
X28507969Y-40193756D02*
X28507969Y-40193756D01*
G75*
G02*
X29002943Y-40193756I247487J-247487D01*
G01*
X29568629Y-40759442D01*
G75*
G02*
X29568629Y-41254416I-247487J-247487D01*
G01*
X29568629Y-41254416D01*
G75*
G02*
X29073655Y-41254416I-247487J247487D01*
G01*
X28507969Y-40688730D01*
G75*
G02*
X28507969Y-40193756I247487J247487D01*
G01*
G37*
G36*
G01*
X28861522Y-39840202D02*
X28861522Y-39840202D01*
G75*
G02*
X29356496Y-39840202I247487J-247487D01*
G01*
X29922182Y-40405888D01*
G75*
G02*
X29922182Y-40900862I-247487J-247487D01*
G01*
X29922182Y-40900862D01*
G75*
G02*
X29427208Y-40900862I-247487J247487D01*
G01*
X28861522Y-40335176D01*
G75*
G02*
X28861522Y-39840202I247487J247487D01*
G01*
G37*
G36*
G01*
X29215076Y-39486649D02*
X29215076Y-39486649D01*
G75*
G02*
X29710050Y-39486649I247487J-247487D01*
G01*
X30275736Y-40052335D01*
G75*
G02*
X30275736Y-40547309I-247487J-247487D01*
G01*
X30275736Y-40547309D01*
G75*
G02*
X29780762Y-40547309I-247487J247487D01*
G01*
X29215076Y-39981623D01*
G75*
G02*
X29215076Y-39486649I247487J247487D01*
G01*
G37*
G36*
G01*
X29568629Y-39133095D02*
X29568629Y-39133095D01*
G75*
G02*
X30063603Y-39133095I247487J-247487D01*
G01*
X30629289Y-39698781D01*
G75*
G02*
X30629289Y-40193755I-247487J-247487D01*
G01*
X30629289Y-40193755D01*
G75*
G02*
X30134315Y-40193755I-247487J247487D01*
G01*
X29568629Y-39628069D01*
G75*
G02*
X29568629Y-39133095I247487J247487D01*
G01*
G37*
G36*
G01*
X23575000Y-35556250D02*
X23575000Y-34843750D01*
G75*
G02*
X23893750Y-34525000I318750J0D01*
G01*
X24531250Y-34525000D01*
G75*
G02*
X24850000Y-34843750I0J-318750D01*
G01*
X24850000Y-35556250D01*
G75*
G02*
X24531250Y-35875000I-318750J0D01*
G01*
X23893750Y-35875000D01*
G75*
G02*
X23575000Y-35556250I0J318750D01*
G01*
G37*
G36*
G01*
X25150000Y-35556250D02*
X25150000Y-34843750D01*
G75*
G02*
X25468750Y-34525000I318750J0D01*
G01*
X26106250Y-34525000D01*
G75*
G02*
X26425000Y-34843750I0J-318750D01*
G01*
X26425000Y-35556250D01*
G75*
G02*
X26106250Y-35875000I-318750J0D01*
G01*
X25468750Y-35875000D01*
G75*
G02*
X25150000Y-35556250I0J318750D01*
G01*
G37*
G36*
G01*
X30606250Y-35900000D02*
X29893750Y-35900000D01*
G75*
G02*
X29575000Y-35581250I0J318750D01*
G01*
X29575000Y-34943750D01*
G75*
G02*
X29893750Y-34625000I318750J0D01*
G01*
X30606250Y-34625000D01*
G75*
G02*
X30925000Y-34943750I0J-318750D01*
G01*
X30925000Y-35581250D01*
G75*
G02*
X30606250Y-35900000I-318750J0D01*
G01*
G37*
G36*
G01*
X30606250Y-37475000D02*
X29893750Y-37475000D01*
G75*
G02*
X29575000Y-37156250I0J318750D01*
G01*
X29575000Y-36518750D01*
G75*
G02*
X29893750Y-36200000I318750J0D01*
G01*
X30606250Y-36200000D01*
G75*
G02*
X30925000Y-36518750I0J-318750D01*
G01*
X30925000Y-37156250D01*
G75*
G02*
X30606250Y-37475000I-318750J0D01*
G01*
G37*
G36*
G01*
X29106250Y-35900000D02*
X28393750Y-35900000D01*
G75*
G02*
X28075000Y-35581250I0J318750D01*
G01*
X28075000Y-34943750D01*
G75*
G02*
X28393750Y-34625000I318750J0D01*
G01*
X29106250Y-34625000D01*
G75*
G02*
X29425000Y-34943750I0J-318750D01*
G01*
X29425000Y-35581250D01*
G75*
G02*
X29106250Y-35900000I-318750J0D01*
G01*
G37*
G36*
G01*
X29106250Y-37475000D02*
X28393750Y-37475000D01*
G75*
G02*
X28075000Y-37156250I0J318750D01*
G01*
X28075000Y-36518750D01*
G75*
G02*
X28393750Y-36200000I318750J0D01*
G01*
X29106250Y-36200000D01*
G75*
G02*
X29425000Y-36518750I0J-318750D01*
G01*
X29425000Y-37156250D01*
G75*
G02*
X29106250Y-37475000I-318750J0D01*
G01*
G37*
G36*
G01*
X35543750Y-30275000D02*
X36256250Y-30275000D01*
G75*
G02*
X36575000Y-30593750I0J-318750D01*
G01*
X36575000Y-31231250D01*
G75*
G02*
X36256250Y-31550000I-318750J0D01*
G01*
X35543750Y-31550000D01*
G75*
G02*
X35225000Y-31231250I0J318750D01*
G01*
X35225000Y-30593750D01*
G75*
G02*
X35543750Y-30275000I318750J0D01*
G01*
G37*
G36*
G01*
X35543750Y-31850000D02*
X36256250Y-31850000D01*
G75*
G02*
X36575000Y-32168750I0J-318750D01*
G01*
X36575000Y-32806250D01*
G75*
G02*
X36256250Y-33125000I-318750J0D01*
G01*
X35543750Y-33125000D01*
G75*
G02*
X35225000Y-32806250I0J318750D01*
G01*
X35225000Y-32168750D01*
G75*
G02*
X35543750Y-31850000I318750J0D01*
G01*
G37*
G36*
G01*
X34756250Y-33125000D02*
X34043750Y-33125000D01*
G75*
G02*
X33725000Y-32806250I0J318750D01*
G01*
X33725000Y-32168750D01*
G75*
G02*
X34043750Y-31850000I318750J0D01*
G01*
X34756250Y-31850000D01*
G75*
G02*
X35075000Y-32168750I0J-318750D01*
G01*
X35075000Y-32806250D01*
G75*
G02*
X34756250Y-33125000I-318750J0D01*
G01*
G37*
G36*
G01*
X34756250Y-31550000D02*
X34043750Y-31550000D01*
G75*
G02*
X33725000Y-31231250I0J318750D01*
G01*
X33725000Y-30593750D01*
G75*
G02*
X34043750Y-30275000I318750J0D01*
G01*
X34756250Y-30275000D01*
G75*
G02*
X35075000Y-30593750I0J-318750D01*
G01*
X35075000Y-31231250D01*
G75*
G02*
X34756250Y-31550000I-318750J0D01*
G01*
G37*
G36*
G01*
X33256250Y-31550000D02*
X32543750Y-31550000D01*
G75*
G02*
X32225000Y-31231250I0J318750D01*
G01*
X32225000Y-30593750D01*
G75*
G02*
X32543750Y-30275000I318750J0D01*
G01*
X33256250Y-30275000D01*
G75*
G02*
X33575000Y-30593750I0J-318750D01*
G01*
X33575000Y-31231250D01*
G75*
G02*
X33256250Y-31550000I-318750J0D01*
G01*
G37*
G36*
G01*
X33256250Y-33125000D02*
X32543750Y-33125000D01*
G75*
G02*
X32225000Y-32806250I0J318750D01*
G01*
X32225000Y-32168750D01*
G75*
G02*
X32543750Y-31850000I318750J0D01*
G01*
X33256250Y-31850000D01*
G75*
G02*
X33575000Y-32168750I0J-318750D01*
G01*
X33575000Y-32806250D01*
G75*
G02*
X33256250Y-33125000I-318750J0D01*
G01*
G37*
G36*
G01*
X35106250Y-34550000D02*
X34393750Y-34550000D01*
G75*
G02*
X34075000Y-34231250I0J318750D01*
G01*
X34075000Y-33593750D01*
G75*
G02*
X34393750Y-33275000I318750J0D01*
G01*
X35106250Y-33275000D01*
G75*
G02*
X35425000Y-33593750I0J-318750D01*
G01*
X35425000Y-34231250D01*
G75*
G02*
X35106250Y-34550000I-318750J0D01*
G01*
G37*
G36*
G01*
X35106250Y-36125000D02*
X34393750Y-36125000D01*
G75*
G02*
X34075000Y-35806250I0J318750D01*
G01*
X34075000Y-35168750D01*
G75*
G02*
X34393750Y-34850000I318750J0D01*
G01*
X35106250Y-34850000D01*
G75*
G02*
X35425000Y-35168750I0J-318750D01*
G01*
X35425000Y-35806250D01*
G75*
G02*
X35106250Y-36125000I-318750J0D01*
G01*
G37*
G36*
G01*
X27606250Y-35900000D02*
X26893750Y-35900000D01*
G75*
G02*
X26575000Y-35581250I0J318750D01*
G01*
X26575000Y-34943750D01*
G75*
G02*
X26893750Y-34625000I318750J0D01*
G01*
X27606250Y-34625000D01*
G75*
G02*
X27925000Y-34943750I0J-318750D01*
G01*
X27925000Y-35581250D01*
G75*
G02*
X27606250Y-35900000I-318750J0D01*
G01*
G37*
G36*
G01*
X27606250Y-37475000D02*
X26893750Y-37475000D01*
G75*
G02*
X26575000Y-37156250I0J318750D01*
G01*
X26575000Y-36518750D01*
G75*
G02*
X26893750Y-36200000I318750J0D01*
G01*
X27606250Y-36200000D01*
G75*
G02*
X27925000Y-36518750I0J-318750D01*
G01*
X27925000Y-37156250D01*
G75*
G02*
X27606250Y-37475000I-318750J0D01*
G01*
G37*
G36*
G01*
X25500000Y-48431250D02*
X25500000Y-47718750D01*
G75*
G02*
X25818750Y-47400000I318750J0D01*
G01*
X26456250Y-47400000D01*
G75*
G02*
X26775000Y-47718750I0J-318750D01*
G01*
X26775000Y-48431250D01*
G75*
G02*
X26456250Y-48750000I-318750J0D01*
G01*
X25818750Y-48750000D01*
G75*
G02*
X25500000Y-48431250I0J318750D01*
G01*
G37*
G36*
G01*
X23925000Y-48431250D02*
X23925000Y-47718750D01*
G75*
G02*
X24243750Y-47400000I318750J0D01*
G01*
X24881250Y-47400000D01*
G75*
G02*
X25200000Y-47718750I0J-318750D01*
G01*
X25200000Y-48431250D01*
G75*
G02*
X24881250Y-48750000I-318750J0D01*
G01*
X24243750Y-48750000D01*
G75*
G02*
X23925000Y-48431250I0J318750D01*
G01*
G37*
G36*
G01*
X28906250Y-53225000D02*
X28193750Y-53225000D01*
G75*
G02*
X27875000Y-52906250I0J318750D01*
G01*
X27875000Y-52268750D01*
G75*
G02*
X28193750Y-51950000I318750J0D01*
G01*
X28906250Y-51950000D01*
G75*
G02*
X29225000Y-52268750I0J-318750D01*
G01*
X29225000Y-52906250D01*
G75*
G02*
X28906250Y-53225000I-318750J0D01*
G01*
G37*
G36*
G01*
X28906250Y-51650000D02*
X28193750Y-51650000D01*
G75*
G02*
X27875000Y-51331250I0J318750D01*
G01*
X27875000Y-50693750D01*
G75*
G02*
X28193750Y-50375000I318750J0D01*
G01*
X28906250Y-50375000D01*
G75*
G02*
X29225000Y-50693750I0J-318750D01*
G01*
X29225000Y-51331250D01*
G75*
G02*
X28906250Y-51650000I-318750J0D01*
G01*
G37*
G36*
G01*
X32106250Y-34550000D02*
X31393750Y-34550000D01*
G75*
G02*
X31075000Y-34231250I0J318750D01*
G01*
X31075000Y-33593750D01*
G75*
G02*
X31393750Y-33275000I318750J0D01*
G01*
X32106250Y-33275000D01*
G75*
G02*
X32425000Y-33593750I0J-318750D01*
G01*
X32425000Y-34231250D01*
G75*
G02*
X32106250Y-34550000I-318750J0D01*
G01*
G37*
G36*
G01*
X32106250Y-36125000D02*
X31393750Y-36125000D01*
G75*
G02*
X31075000Y-35806250I0J318750D01*
G01*
X31075000Y-35168750D01*
G75*
G02*
X31393750Y-34850000I318750J0D01*
G01*
X32106250Y-34850000D01*
G75*
G02*
X32425000Y-35168750I0J-318750D01*
G01*
X32425000Y-35806250D01*
G75*
G02*
X32106250Y-36125000I-318750J0D01*
G01*
G37*
G36*
G01*
X33606250Y-34550000D02*
X32893750Y-34550000D01*
G75*
G02*
X32575000Y-34231250I0J318750D01*
G01*
X32575000Y-33593750D01*
G75*
G02*
X32893750Y-33275000I318750J0D01*
G01*
X33606250Y-33275000D01*
G75*
G02*
X33925000Y-33593750I0J-318750D01*
G01*
X33925000Y-34231250D01*
G75*
G02*
X33606250Y-34550000I-318750J0D01*
G01*
G37*
G36*
G01*
X33606250Y-36125000D02*
X32893750Y-36125000D01*
G75*
G02*
X32575000Y-35806250I0J318750D01*
G01*
X32575000Y-35168750D01*
G75*
G02*
X32893750Y-34850000I318750J0D01*
G01*
X33606250Y-34850000D01*
G75*
G02*
X33925000Y-35168750I0J-318750D01*
G01*
X33925000Y-35806250D01*
G75*
G02*
X33606250Y-36125000I-318750J0D01*
G01*
G37*
G36*
G01*
X34593750Y-37825000D02*
X35306250Y-37825000D01*
G75*
G02*
X35625000Y-38143750I0J-318750D01*
G01*
X35625000Y-38781250D01*
G75*
G02*
X35306250Y-39100000I-318750J0D01*
G01*
X34593750Y-39100000D01*
G75*
G02*
X34275000Y-38781250I0J318750D01*
G01*
X34275000Y-38143750D01*
G75*
G02*
X34593750Y-37825000I318750J0D01*
G01*
G37*
G36*
G01*
X34593750Y-39400000D02*
X35306250Y-39400000D01*
G75*
G02*
X35625000Y-39718750I0J-318750D01*
G01*
X35625000Y-40356250D01*
G75*
G02*
X35306250Y-40675000I-318750J0D01*
G01*
X34593750Y-40675000D01*
G75*
G02*
X34275000Y-40356250I0J318750D01*
G01*
X34275000Y-39718750D01*
G75*
G02*
X34593750Y-39400000I318750J0D01*
G01*
G37*
G36*
G01*
X31568750Y-49275000D02*
X32281250Y-49275000D01*
G75*
G02*
X32600000Y-49593750I0J-318750D01*
G01*
X32600000Y-50231250D01*
G75*
G02*
X32281250Y-50550000I-318750J0D01*
G01*
X31568750Y-50550000D01*
G75*
G02*
X31250000Y-50231250I0J318750D01*
G01*
X31250000Y-49593750D01*
G75*
G02*
X31568750Y-49275000I318750J0D01*
G01*
G37*
G36*
G01*
X31568750Y-50850000D02*
X32281250Y-50850000D01*
G75*
G02*
X32600000Y-51168750I0J-318750D01*
G01*
X32600000Y-51806250D01*
G75*
G02*
X32281250Y-52125000I-318750J0D01*
G01*
X31568750Y-52125000D01*
G75*
G02*
X31250000Y-51806250I0J318750D01*
G01*
X31250000Y-51168750D01*
G75*
G02*
X31568750Y-50850000I318750J0D01*
G01*
G37*
G36*
G01*
X26775000Y-46218750D02*
X26775000Y-46931250D01*
G75*
G02*
X26456250Y-47250000I-318750J0D01*
G01*
X25818750Y-47250000D01*
G75*
G02*
X25500000Y-46931250I0J318750D01*
G01*
X25500000Y-46218750D01*
G75*
G02*
X25818750Y-45900000I318750J0D01*
G01*
X26456250Y-45900000D01*
G75*
G02*
X26775000Y-46218750I0J-318750D01*
G01*
G37*
G36*
G01*
X25200000Y-46218750D02*
X25200000Y-46931250D01*
G75*
G02*
X24881250Y-47250000I-318750J0D01*
G01*
X24243750Y-47250000D01*
G75*
G02*
X23925000Y-46931250I0J318750D01*
G01*
X23925000Y-46218750D01*
G75*
G02*
X24243750Y-45900000I318750J0D01*
G01*
X24881250Y-45900000D01*
G75*
G02*
X25200000Y-46218750I0J-318750D01*
G01*
G37*
D16*
X25250000Y-52100000D03*
X25250000Y-49900000D03*
X26850000Y-49900000D03*
X26850000Y-52100000D03*
M02*
